ISO-10303-21;
HEADER;
/* Generated by software containing ST-Developer
 * from STEP Tools, Inc. (www.steptools.com) 
 */
/* OPTION: using custom renumber hook */

FILE_DESCRIPTION(
/* description */ ('STEP AP242',
'CAx-IF Rec.Pracs.---Representation and Presentation of Product Manufa
cturing Information (PMI)---4.0---2014-10-13',
'CAx-IF Rec.Pracs.---3D Tessellated Geometry---0.4---2014-09-14','2;1',
'CAx-IF Rec.Pracs.---User Defined Attributes---1.5---2016-08-15'),
/* implementation_level */ '2;1');

FILE_NAME(
/* name */ '69065d93ee2a6d5daf038d8e',
/* time_stamp */ '2025-11-01T19:20:52Z',
/* author */ (''),
/* organization */ (''),
/* preprocessor_version */ 'ST-DEVELOPER v20',
/* originating_system */ 'ONSHAPE BY PTC INC, 1.206',
/* authorisation */ '  ');

FILE_SCHEMA (('AP242_MANAGED_MODEL_BASED_3D_ENGINEERING_MIM_LF { 1 0 10303 442 1 1 4 }'));
ENDSEC;

DATA;
#10=SHAPE_REPRESENTATION_RELATIONSHIP('','',#874,#11);
#11=ADVANCED_BREP_SHAPE_REPRESENTATION('',(#872),#1426);
#12=ELLIPSE('',#887,0.00652613029003406,0.004875);
#13=ELLIPSE('',#888,0.00652613029003406,0.004875);
#14=CIRCLE('',#878,0.00275);
#15=CIRCLE('',#879,0.00275);
#16=CIRCLE('',#883,0.004875);
#17=CIRCLE('',#884,0.004875);
#18=CIRCLE('',#890,0.009);
#19=CIRCLE('',#891,0.0017);
#20=CIRCLE('',#892,0.0017);
#21=CIRCLE('',#893,0.0017);
#22=CIRCLE('',#894,0.0017);
#23=CIRCLE('',#897,0.00275);
#24=CIRCLE('',#898,0.00275);
#25=CIRCLE('',#901,0.00275);
#26=CIRCLE('',#902,0.00275);
#27=CIRCLE('',#913,0.0017);
#28=CIRCLE('',#914,0.0017);
#29=CIRCLE('',#915,0.0017);
#30=CIRCLE('',#916,0.0017);
#31=CIRCLE('',#917,0.01105);
#32=CIRCLE('',#919,0.01105);
#33=CIRCLE('',#926,0.009);
#34=CIRCLE('',#931,0.00275);
#35=CIRCLE('',#933,0.00275);
#36=CIRCLE('',#935,0.00275);
#37=CIRCLE('',#937,0.004875);
#38=CIRCLE('',#940,0.00275);
#39=CIRCLE('',#942,0.004875);
#40=CIRCLE('',#945,0.004875);
#41=CIRCLE('',#948,0.004875);
#42=CYLINDRICAL_SURFACE('',#877,0.00275);
#43=CYLINDRICAL_SURFACE('',#920,0.01105);
#44=CYLINDRICAL_SURFACE('',#921,0.0017);
#45=CYLINDRICAL_SURFACE('',#922,0.0017);
#46=CYLINDRICAL_SURFACE('',#923,0.0017);
#47=CYLINDRICAL_SURFACE('',#924,0.0017);
#48=CYLINDRICAL_SURFACE('',#925,0.009);
#49=CYLINDRICAL_SURFACE('',#930,0.00275);
#50=CYLINDRICAL_SURFACE('',#932,0.00275);
#51=CYLINDRICAL_SURFACE('',#934,0.00275);
#52=CYLINDRICAL_SURFACE('',#938,0.004875);
#53=CYLINDRICAL_SURFACE('',#939,0.00275);
#54=CYLINDRICAL_SURFACE('',#943,0.004875);
#55=CYLINDRICAL_SURFACE('',#944,0.004875);
#56=CYLINDRICAL_SURFACE('',#947,0.004875);
#57=ORIENTED_EDGE('',*,*,#271,.T.);
#58=ORIENTED_EDGE('',*,*,#272,.T.);
#59=ORIENTED_EDGE('',*,*,#273,.T.);
#60=ORIENTED_EDGE('',*,*,#274,.F.);
#61=ORIENTED_EDGE('',*,*,#275,.F.);
#62=ORIENTED_EDGE('',*,*,#276,.T.);
#63=ORIENTED_EDGE('',*,*,#277,.F.);
#64=ORIENTED_EDGE('',*,*,#278,.T.);
#65=ORIENTED_EDGE('',*,*,#279,.T.);
#66=ORIENTED_EDGE('',*,*,#280,.F.);
#67=ORIENTED_EDGE('',*,*,#281,.F.);
#68=ORIENTED_EDGE('',*,*,#282,.T.);
#69=ORIENTED_EDGE('',*,*,#283,.F.);
#70=ORIENTED_EDGE('',*,*,#284,.T.);
#71=ORIENTED_EDGE('',*,*,#285,.F.);
#72=ORIENTED_EDGE('',*,*,#286,.T.);
#73=ORIENTED_EDGE('',*,*,#277,.T.);
#74=ORIENTED_EDGE('',*,*,#287,.F.);
#75=ORIENTED_EDGE('',*,*,#288,.F.);
#76=ORIENTED_EDGE('',*,*,#289,.T.);
#77=ORIENTED_EDGE('',*,*,#290,.F.);
#78=ORIENTED_EDGE('',*,*,#291,.T.);
#79=ORIENTED_EDGE('',*,*,#275,.T.);
#80=ORIENTED_EDGE('',*,*,#292,.F.);
#81=ORIENTED_EDGE('',*,*,#293,.T.);
#82=ORIENTED_EDGE('',*,*,#294,.T.);
#83=ORIENTED_EDGE('',*,*,#295,.F.);
#84=ORIENTED_EDGE('',*,*,#296,.T.);
#85=ORIENTED_EDGE('',*,*,#297,.F.);
#86=ORIENTED_EDGE('',*,*,#298,.T.);
#87=ORIENTED_EDGE('',*,*,#299,.T.);
#88=ORIENTED_EDGE('',*,*,#285,.T.);
#89=ORIENTED_EDGE('',*,*,#300,.T.);
#90=ORIENTED_EDGE('',*,*,#301,.T.);
#91=ORIENTED_EDGE('',*,*,#302,.T.);
#92=ORIENTED_EDGE('',*,*,#288,.T.);
#93=ORIENTED_EDGE('',*,*,#303,.T.);
#94=ORIENTED_EDGE('',*,*,#304,.T.);
#95=ORIENTED_EDGE('',*,*,#305,.F.);
#96=ORIENTED_EDGE('',*,*,#306,.T.);
#97=ORIENTED_EDGE('',*,*,#307,.T.);
#98=ORIENTED_EDGE('',*,*,#308,.T.);
#99=ORIENTED_EDGE('',*,*,#305,.T.);
#100=ORIENTED_EDGE('',*,*,#309,.T.);
#101=ORIENTED_EDGE('',*,*,#310,.T.);
#102=ORIENTED_EDGE('',*,*,#311,.F.);
#103=ORIENTED_EDGE('',*,*,#312,.F.);
#104=ORIENTED_EDGE('',*,*,#313,.T.);
#105=ORIENTED_EDGE('',*,*,#314,.F.);
#106=ORIENTED_EDGE('',*,*,#315,.F.);
#107=ORIENTED_EDGE('',*,*,#316,.F.);
#108=ORIENTED_EDGE('',*,*,#279,.F.);
#109=ORIENTED_EDGE('',*,*,#317,.T.);
#110=ORIENTED_EDGE('',*,*,#311,.T.);
#111=ORIENTED_EDGE('',*,*,#318,.F.);
#112=ORIENTED_EDGE('',*,*,#273,.F.);
#113=ORIENTED_EDGE('',*,*,#319,.T.);
#114=ORIENTED_EDGE('',*,*,#320,.T.);
#115=ORIENTED_EDGE('',*,*,#321,.T.);
#116=ORIENTED_EDGE('',*,*,#322,.T.);
#117=ORIENTED_EDGE('',*,*,#297,.T.);
#118=ORIENTED_EDGE('',*,*,#323,.T.);
#119=ORIENTED_EDGE('',*,*,#324,.F.);
#120=ORIENTED_EDGE('',*,*,#325,.T.);
#121=ORIENTED_EDGE('',*,*,#326,.T.);
#122=ORIENTED_EDGE('',*,*,#327,.T.);
#123=ORIENTED_EDGE('',*,*,#324,.T.);
#124=ORIENTED_EDGE('',*,*,#328,.T.);
#125=ORIENTED_EDGE('',*,*,#329,.F.);
#126=ORIENTED_EDGE('',*,*,#330,.F.);
#127=ORIENTED_EDGE('',*,*,#331,.T.);
#128=ORIENTED_EDGE('',*,*,#332,.T.);
#129=ORIENTED_EDGE('',*,*,#333,.F.);
#130=ORIENTED_EDGE('',*,*,#334,.F.);
#131=ORIENTED_EDGE('',*,*,#335,.T.);
#132=ORIENTED_EDGE('',*,*,#330,.T.);
#133=ORIENTED_EDGE('',*,*,#336,.F.);
#134=ORIENTED_EDGE('',*,*,#337,.F.);
#135=ORIENTED_EDGE('',*,*,#338,.T.);
#136=ORIENTED_EDGE('',*,*,#339,.T.);
#137=ORIENTED_EDGE('',*,*,#303,.F.);
#138=ORIENTED_EDGE('',*,*,#340,.T.);
#139=ORIENTED_EDGE('',*,*,#341,.F.);
#140=ORIENTED_EDGE('',*,*,#334,.T.);
#141=ORIENTED_EDGE('',*,*,#299,.F.);
#142=ORIENTED_EDGE('',*,*,#342,.T.);
#143=ORIENTED_EDGE('',*,*,#331,.F.);
#144=ORIENTED_EDGE('',*,*,#335,.F.);
#145=ORIENTED_EDGE('',*,*,#341,.T.);
#146=ORIENTED_EDGE('',*,*,#343,.T.);
#147=ORIENTED_EDGE('',*,*,#312,.T.);
#148=ORIENTED_EDGE('',*,*,#317,.F.);
#149=ORIENTED_EDGE('',*,*,#278,.F.);
#150=ORIENTED_EDGE('',*,*,#286,.F.);
#151=ORIENTED_EDGE('',*,*,#310,.F.);
#152=ORIENTED_EDGE('',*,*,#344,.T.);
#153=ORIENTED_EDGE('',*,*,#338,.F.);
#154=ORIENTED_EDGE('',*,*,#333,.T.);
#155=ORIENTED_EDGE('',*,*,#329,.T.);
#156=ORIENTED_EDGE('',*,*,#345,.T.);
#157=ORIENTED_EDGE('',*,*,#295,.T.);
#158=ORIENTED_EDGE('',*,*,#292,.T.);
#159=ORIENTED_EDGE('',*,*,#274,.T.);
#160=ORIENTED_EDGE('',*,*,#318,.T.);
#161=ORIENTED_EDGE('',*,*,#346,.T.);
#162=ORIENTED_EDGE('',*,*,#347,.T.);
#163=ORIENTED_EDGE('',*,*,#301,.F.);
#164=ORIENTED_EDGE('',*,*,#348,.F.);
#165=ORIENTED_EDGE('',*,*,#349,.F.);
#166=ORIENTED_EDGE('',*,*,#350,.T.);
#167=ORIENTED_EDGE('',*,*,#348,.T.);
#168=ORIENTED_EDGE('',*,*,#300,.F.);
#169=ORIENTED_EDGE('',*,*,#284,.F.);
#170=ORIENTED_EDGE('',*,*,#283,.T.);
#171=ORIENTED_EDGE('',*,*,#351,.F.);
#172=ORIENTED_EDGE('',*,*,#352,.F.);
#173=ORIENTED_EDGE('',*,*,#349,.T.);
#174=ORIENTED_EDGE('',*,*,#287,.T.);
#175=ORIENTED_EDGE('',*,*,#353,.F.);
#176=ORIENTED_EDGE('',*,*,#351,.T.);
#177=ORIENTED_EDGE('',*,*,#302,.F.);
#178=ORIENTED_EDGE('',*,*,#347,.F.);
#179=ORIENTED_EDGE('',*,*,#354,.T.);
#180=ORIENTED_EDGE('',*,*,#355,.T.);
#181=ORIENTED_EDGE('',*,*,#289,.F.);
#182=ORIENTED_EDGE('',*,*,#356,.F.);
#183=ORIENTED_EDGE('',*,*,#357,.T.);
#184=ORIENTED_EDGE('',*,*,#291,.F.);
#185=ORIENTED_EDGE('',*,*,#290,.T.);
#186=ORIENTED_EDGE('',*,*,#355,.F.);
#187=ORIENTED_EDGE('',*,*,#358,.F.);
#188=ORIENTED_EDGE('',*,*,#356,.T.);
#189=ORIENTED_EDGE('',*,*,#359,.T.);
#190=ORIENTED_EDGE('',*,*,#360,.T.);
#191=ORIENTED_EDGE('',*,*,#361,.T.);
#192=ORIENTED_EDGE('',*,*,#362,.T.);
#193=ORIENTED_EDGE('',*,*,#363,.T.);
#194=ORIENTED_EDGE('',*,*,#346,.F.);
#195=ORIENTED_EDGE('',*,*,#350,.F.);
#196=ORIENTED_EDGE('',*,*,#352,.T.);
#197=ORIENTED_EDGE('',*,*,#353,.T.);
#198=ORIENTED_EDGE('',*,*,#276,.F.);
#199=ORIENTED_EDGE('',*,*,#357,.F.);
#200=ORIENTED_EDGE('',*,*,#358,.T.);
#201=ORIENTED_EDGE('',*,*,#354,.F.);
#202=ORIENTED_EDGE('',*,*,#281,.T.);
#203=ORIENTED_EDGE('',*,*,#364,.F.);
#204=ORIENTED_EDGE('',*,*,#364,.T.);
#205=ORIENTED_EDGE('',*,*,#363,.F.);
#206=ORIENTED_EDGE('',*,*,#322,.F.);
#207=ORIENTED_EDGE('',*,*,#362,.F.);
#208=ORIENTED_EDGE('',*,*,#321,.F.);
#209=ORIENTED_EDGE('',*,*,#361,.F.);
#210=ORIENTED_EDGE('',*,*,#320,.F.);
#211=ORIENTED_EDGE('',*,*,#360,.F.);
#212=ORIENTED_EDGE('',*,*,#319,.F.);
#213=ORIENTED_EDGE('',*,*,#359,.F.);
#214=ORIENTED_EDGE('',*,*,#315,.T.);
#215=ORIENTED_EDGE('',*,*,#365,.F.);
#216=ORIENTED_EDGE('',*,*,#366,.F.);
#217=ORIENTED_EDGE('',*,*,#367,.T.);
#218=ORIENTED_EDGE('',*,*,#314,.T.);
#219=ORIENTED_EDGE('',*,*,#272,.F.);
#220=ORIENTED_EDGE('',*,*,#368,.F.);
#221=ORIENTED_EDGE('',*,*,#365,.T.);
#222=ORIENTED_EDGE('',*,*,#316,.T.);
#223=ORIENTED_EDGE('',*,*,#367,.F.);
#224=ORIENTED_EDGE('',*,*,#369,.F.);
#225=ORIENTED_EDGE('',*,*,#280,.T.);
#226=ORIENTED_EDGE('',*,*,#282,.F.);
#227=ORIENTED_EDGE('',*,*,#366,.T.);
#228=ORIENTED_EDGE('',*,*,#368,.T.);
#229=ORIENTED_EDGE('',*,*,#271,.F.);
#230=ORIENTED_EDGE('',*,*,#369,.T.);
#231=ORIENTED_EDGE('',*,*,#370,.F.);
#232=ORIENTED_EDGE('',*,*,#337,.T.);
#233=ORIENTED_EDGE('',*,*,#371,.F.);
#234=ORIENTED_EDGE('',*,*,#336,.T.);
#235=ORIENTED_EDGE('',*,*,#327,.F.);
#236=ORIENTED_EDGE('',*,*,#372,.F.);
#237=ORIENTED_EDGE('',*,*,#372,.T.);
#238=ORIENTED_EDGE('',*,*,#373,.F.);
#239=ORIENTED_EDGE('',*,*,#373,.T.);
#240=ORIENTED_EDGE('',*,*,#294,.F.);
#241=ORIENTED_EDGE('',*,*,#326,.F.);
#242=ORIENTED_EDGE('',*,*,#374,.F.);
#243=ORIENTED_EDGE('',*,*,#374,.T.);
#244=ORIENTED_EDGE('',*,*,#375,.F.);
#245=ORIENTED_EDGE('',*,*,#375,.T.);
#246=ORIENTED_EDGE('',*,*,#293,.F.);
#247=ORIENTED_EDGE('',*,*,#376,.F.);
#248=ORIENTED_EDGE('',*,*,#308,.F.);
#249=ORIENTED_EDGE('',*,*,#371,.T.);
#250=ORIENTED_EDGE('',*,*,#376,.T.);
#251=ORIENTED_EDGE('',*,*,#377,.F.);
#252=ORIENTED_EDGE('',*,*,#307,.F.);
#253=ORIENTED_EDGE('',*,*,#370,.T.);
#254=ORIENTED_EDGE('',*,*,#377,.T.);
#255=ORIENTED_EDGE('',*,*,#339,.F.);
#256=ORIENTED_EDGE('',*,*,#344,.F.);
#257=ORIENTED_EDGE('',*,*,#309,.F.);
#258=ORIENTED_EDGE('',*,*,#304,.F.);
#259=ORIENTED_EDGE('',*,*,#328,.F.);
#260=ORIENTED_EDGE('',*,*,#323,.F.);
#261=ORIENTED_EDGE('',*,*,#296,.F.);
#262=ORIENTED_EDGE('',*,*,#345,.F.);
#263=ORIENTED_EDGE('',*,*,#332,.F.);
#264=ORIENTED_EDGE('',*,*,#342,.F.);
#265=ORIENTED_EDGE('',*,*,#298,.F.);
#266=ORIENTED_EDGE('',*,*,#325,.F.);
#267=ORIENTED_EDGE('',*,*,#340,.F.);
#268=ORIENTED_EDGE('',*,*,#306,.F.);
#269=ORIENTED_EDGE('',*,*,#313,.F.);
#270=ORIENTED_EDGE('',*,*,#343,.F.);
#271=EDGE_CURVE('',#378,#379,#458,.T.);
#272=EDGE_CURVE('',#379,#380,#459,.T.);
#273=EDGE_CURVE('',#380,#381,#460,.T.);
#274=EDGE_CURVE('',#382,#381,#461,.T.);
#275=EDGE_CURVE('',#383,#382,#462,.T.);
#276=EDGE_CURVE('',#383,#384,#463,.T.);
#277=EDGE_CURVE('',#385,#384,#464,.T.);
#278=EDGE_CURVE('',#385,#386,#465,.T.);
#279=EDGE_CURVE('',#386,#387,#466,.T.);
#280=EDGE_CURVE('',#378,#387,#467,.T.);
#281=EDGE_CURVE('',#388,#388,#14,.T.);
#282=EDGE_CURVE('',#389,#389,#15,.T.);
#283=EDGE_CURVE('',#390,#391,#468,.T.);
#284=EDGE_CURVE('',#390,#392,#469,.T.);
#285=EDGE_CURVE('',#393,#392,#470,.T.);
#286=EDGE_CURVE('',#393,#385,#471,.T.);
#287=EDGE_CURVE('',#391,#384,#472,.T.);
#288=EDGE_CURVE('',#394,#395,#473,.T.);
#289=EDGE_CURVE('',#394,#396,#474,.T.);
#290=EDGE_CURVE('',#397,#396,#475,.T.);
#291=EDGE_CURVE('',#397,#383,#476,.T.);
#292=EDGE_CURVE('',#395,#382,#477,.T.);
#293=EDGE_CURVE('',#398,#398,#16,.T.);
#294=EDGE_CURVE('',#399,#399,#17,.T.);
#295=EDGE_CURVE('',#400,#395,#478,.T.);
#296=EDGE_CURVE('',#400,#401,#479,.T.);
#297=EDGE_CURVE('',#402,#401,#480,.T.);
#298=EDGE_CURVE('',#402,#403,#481,.F.);
#299=EDGE_CURVE('',#403,#393,#482,.T.);
#300=EDGE_CURVE('',#392,#404,#483,.T.);
#301=EDGE_CURVE('',#404,#405,#484,.T.);
#302=EDGE_CURVE('',#405,#394,#485,.T.);
#303=EDGE_CURVE('',#406,#407,#486,.T.);
#304=EDGE_CURVE('',#407,#408,#487,.T.);
#305=EDGE_CURVE('',#409,#408,#488,.T.);
#306=EDGE_CURVE('',#409,#406,#489,.T.);
#307=EDGE_CURVE('',#410,#410,#12,.T.);
#308=EDGE_CURVE('',#411,#411,#13,.T.);
#309=EDGE_CURVE('',#408,#412,#490,.F.);
#310=EDGE_CURVE('',#412,#413,#491,.T.);
#311=EDGE_CURVE('',#414,#413,#492,.T.);
#312=EDGE_CURVE('',#415,#414,#493,.T.);
#313=EDGE_CURVE('',#415,#409,#494,.T.);
#314=EDGE_CURVE('',#416,#380,#495,.T.);
#315=EDGE_CURVE('',#417,#416,#18,.T.);
#316=EDGE_CURVE('',#387,#417,#496,.T.);
#317=EDGE_CURVE('',#386,#414,#497,.T.);
#318=EDGE_CURVE('',#381,#413,#498,.T.);
#319=EDGE_CURVE('',#418,#418,#19,.F.);
#320=EDGE_CURVE('',#419,#419,#20,.F.);
#321=EDGE_CURVE('',#420,#420,#21,.F.);
#322=EDGE_CURVE('',#421,#421,#22,.F.);
#323=EDGE_CURVE('',#401,#422,#499,.T.);
#324=EDGE_CURVE('',#423,#422,#500,.T.);
#325=EDGE_CURVE('',#423,#402,#501,.T.);
#326=EDGE_CURVE('',#424,#424,#23,.F.);
#327=EDGE_CURVE('',#425,#425,#24,.F.);
#328=EDGE_CURVE('',#422,#426,#502,.T.);
#329=EDGE_CURVE('',#427,#426,#503,.T.);
#330=EDGE_CURVE('',#428,#427,#504,.T.);
#331=EDGE_CURVE('',#428,#429,#505,.T.);
#332=EDGE_CURVE('',#429,#423,#506,.F.);
#333=EDGE_CURVE('',#430,#427,#507,.T.);
#334=EDGE_CURVE('',#431,#430,#508,.T.);
#335=EDGE_CURVE('',#431,#428,#509,.T.);
#336=EDGE_CURVE('',#432,#432,#25,.F.);
#337=EDGE_CURVE('',#433,#433,#26,.F.);
#338=EDGE_CURVE('',#430,#434,#510,.T.);
#339=EDGE_CURVE('',#434,#407,#511,.F.);
#340=EDGE_CURVE('',#406,#435,#512,.T.);
#341=EDGE_CURVE('',#431,#435,#513,.T.);
#342=EDGE_CURVE('',#403,#429,#514,.T.);
#343=EDGE_CURVE('',#435,#415,#515,.T.);
#344=EDGE_CURVE('',#412,#434,#516,.T.);
#345=EDGE_CURVE('',#426,#400,#517,.T.);
#346=EDGE_CURVE('',#436,#437,#518,.T.);
#347=EDGE_CURVE('',#437,#405,#519,.T.);
#348=EDGE_CURVE('',#436,#404,#520,.T.);
#349=EDGE_CURVE('',#438,#390,#521,.T.);
#350=EDGE_CURVE('',#438,#436,#522,.T.);
#351=EDGE_CURVE('',#439,#391,#523,.T.);
#352=EDGE_CURVE('',#438,#439,#524,.T.);
#353=EDGE_CURVE('',#439,#384,#525,.T.);
#354=EDGE_CURVE('',#437,#440,#526,.T.);
#355=EDGE_CURVE('',#440,#396,#527,.T.);
#356=EDGE_CURVE('',#441,#397,#528,.T.);
#357=EDGE_CURVE('',#441,#383,#529,.T.);
#358=EDGE_CURVE('',#441,#440,#530,.T.);
#359=EDGE_CURVE('',#442,#442,#27,.T.);
#360=EDGE_CURVE('',#443,#443,#28,.T.);
#361=EDGE_CURVE('',#444,#444,#29,.T.);
#362=EDGE_CURVE('',#445,#445,#30,.T.);
#363=EDGE_CURVE('',#446,#446,#31,.T.);
#364=EDGE_CURVE('',#447,#447,#32,.T.);
#365=EDGE_CURVE('',#448,#416,#531,.T.);
#366=EDGE_CURVE('',#449,#448,#33,.T.);
#367=EDGE_CURVE('',#449,#417,#532,.T.);
#368=EDGE_CURVE('',#448,#379,#533,.T.);
#369=EDGE_CURVE('',#378,#449,#534,.T.);
#370=EDGE_CURVE('',#450,#450,#34,.T.);
#371=EDGE_CURVE('',#451,#451,#35,.T.);
#372=EDGE_CURVE('',#452,#452,#36,.T.);
#373=EDGE_CURVE('',#453,#453,#37,.T.);
#374=EDGE_CURVE('',#454,#454,#38,.T.);
#375=EDGE_CURVE('',#455,#455,#39,.T.);
#376=EDGE_CURVE('',#456,#456,#40,.F.);
#377=EDGE_CURVE('',#457,#457,#41,.F.);
#378=VERTEX_POINT('',#1192);
#379=VERTEX_POINT('',#1193);
#380=VERTEX_POINT('',#1195);
#381=VERTEX_POINT('',#1197);
#382=VERTEX_POINT('',#1199);
#383=VERTEX_POINT('',#1201);
#384=VERTEX_POINT('',#1203);
#385=VERTEX_POINT('',#1205);
#386=VERTEX_POINT('',#1207);
#387=VERTEX_POINT('',#1209);
#388=VERTEX_POINT('',#1213);
#389=VERTEX_POINT('',#1215);
#390=VERTEX_POINT('',#1218);
#391=VERTEX_POINT('',#1219);
#392=VERTEX_POINT('',#1221);
#393=VERTEX_POINT('',#1223);
#394=VERTEX_POINT('',#1228);
#395=VERTEX_POINT('',#1229);
#396=VERTEX_POINT('',#1231);
#397=VERTEX_POINT('',#1233);
#398=VERTEX_POINT('',#1238);
#399=VERTEX_POINT('',#1240);
#400=VERTEX_POINT('',#1242);
#401=VERTEX_POINT('',#1244);
#402=VERTEX_POINT('',#1246);
#403=VERTEX_POINT('',#1248);
#404=VERTEX_POINT('',#1251);
#405=VERTEX_POINT('',#1253);
#406=VERTEX_POINT('',#1257);
#407=VERTEX_POINT('',#1258);
#408=VERTEX_POINT('',#1260);
#409=VERTEX_POINT('',#1262);
#410=VERTEX_POINT('',#1266);
#411=VERTEX_POINT('',#1268);
#412=VERTEX_POINT('',#1270);
#413=VERTEX_POINT('',#1272);
#414=VERTEX_POINT('',#1274);
#415=VERTEX_POINT('',#1276);
#416=VERTEX_POINT('',#1280);
#417=VERTEX_POINT('',#1282);
#418=VERTEX_POINT('',#1287);
#419=VERTEX_POINT('',#1289);
#420=VERTEX_POINT('',#1291);
#421=VERTEX_POINT('',#1293);
#422=VERTEX_POINT('',#1296);
#423=VERTEX_POINT('',#1298);
#424=VERTEX_POINT('',#1302);
#425=VERTEX_POINT('',#1304);
#426=VERTEX_POINT('',#1306);
#427=VERTEX_POINT('',#1308);
#428=VERTEX_POINT('',#1310);
#429=VERTEX_POINT('',#1312);
#430=VERTEX_POINT('',#1316);
#431=VERTEX_POINT('',#1318);
#432=VERTEX_POINT('',#1322);
#433=VERTEX_POINT('',#1324);
#434=VERTEX_POINT('',#1326);
#435=VERTEX_POINT('',#1329);
#436=VERTEX_POINT('',#1339);
#437=VERTEX_POINT('',#1340);
#438=VERTEX_POINT('',#1345);
#439=VERTEX_POINT('',#1349);
#440=VERTEX_POINT('',#1355);
#441=VERTEX_POINT('',#1359);
#442=VERTEX_POINT('',#1365);
#443=VERTEX_POINT('',#1367);
#444=VERTEX_POINT('',#1369);
#445=VERTEX_POINT('',#1371);
#446=VERTEX_POINT('',#1373);
#447=VERTEX_POINT('',#1376);
#448=VERTEX_POINT('',#1384);
#449=VERTEX_POINT('',#1386);
#450=VERTEX_POINT('',#1395);
#451=VERTEX_POINT('',#1398);
#452=VERTEX_POINT('',#1401);
#453=VERTEX_POINT('',#1404);
#454=VERTEX_POINT('',#1408);
#455=VERTEX_POINT('',#1411);
#456=VERTEX_POINT('',#1415);
#457=VERTEX_POINT('',#1419);
#458=LINE('',#1191,#535);
#459=LINE('',#1194,#536);
#460=LINE('',#1196,#537);
#461=LINE('',#1198,#538);
#462=LINE('',#1200,#539);
#463=LINE('',#1202,#540);
#464=LINE('',#1204,#541);
#465=LINE('',#1206,#542);
#466=LINE('',#1208,#543);
#467=LINE('',#1210,#544);
#468=LINE('',#1217,#545);
#469=LINE('',#1220,#546);
#470=LINE('',#1222,#547);
#471=LINE('',#1224,#548);
#472=LINE('',#1225,#549);
#473=LINE('',#1227,#550);
#474=LINE('',#1230,#551);
#475=LINE('',#1232,#552);
#476=LINE('',#1234,#553);
#477=LINE('',#1235,#554);
#478=LINE('',#1241,#555);
#479=LINE('',#1243,#556);
#480=LINE('',#1245,#557);
#481=LINE('',#1247,#558);
#482=LINE('',#1249,#559);
#483=LINE('',#1250,#560);
#484=LINE('',#1252,#561);
#485=LINE('',#1254,#562);
#486=LINE('',#1256,#563);
#487=LINE('',#1259,#564);
#488=LINE('',#1261,#565);
#489=LINE('',#1263,#566);
#490=LINE('',#1269,#567);
#491=LINE('',#1271,#568);
#492=LINE('',#1273,#569);
#493=LINE('',#1275,#570);
#494=LINE('',#1277,#571);
#495=LINE('',#1279,#572);
#496=LINE('',#1283,#573);
#497=LINE('',#1284,#574);
#498=LINE('',#1285,#575);
#499=LINE('',#1295,#576);
#500=LINE('',#1297,#577);
#501=LINE('',#1299,#578);
#502=LINE('',#1305,#579);
#503=LINE('',#1307,#580);
#504=LINE('',#1309,#581);
#505=LINE('',#1311,#582);
#506=LINE('',#1313,#583);
#507=LINE('',#1315,#584);
#508=LINE('',#1317,#585);
#509=LINE('',#1319,#586);
#510=LINE('',#1325,#587);
#511=LINE('',#1327,#588);
#512=LINE('',#1328,#589);
#513=LINE('',#1330,#590);
#514=LINE('',#1332,#591);
#515=LINE('',#1333,#592);
#516=LINE('',#1335,#593);
#517=LINE('',#1336,#594);
#518=LINE('',#1338,#595);
#519=LINE('',#1341,#596);
#520=LINE('',#1342,#597);
#521=LINE('',#1344,#598);
#522=LINE('',#1346,#599);
#523=LINE('',#1348,#600);
#524=LINE('',#1350,#601);
#525=LINE('',#1352,#602);
#526=LINE('',#1354,#603);
#527=LINE('',#1356,#604);
#528=LINE('',#1358,#605);
#529=LINE('',#1360,#606);
#530=LINE('',#1362,#607);
#531=LINE('',#1383,#608);
#532=LINE('',#1387,#609);
#533=LINE('',#1389,#610);
#534=LINE('',#1391,#611);
#535=VECTOR('',#958,1.);
#536=VECTOR('',#959,1.);
#537=VECTOR('',#960,1.);
#538=VECTOR('',#961,1.);
#539=VECTOR('',#962,1.);
#540=VECTOR('',#963,1.);
#541=VECTOR('',#964,1.);
#542=VECTOR('',#965,1.);
#543=VECTOR('',#966,1.);
#544=VECTOR('',#967,1.);
#545=VECTOR('',#976,1.);
#546=VECTOR('',#977,1.);
#547=VECTOR('',#978,1.);
#548=VECTOR('',#979,1.);
#549=VECTOR('',#980,1.);
#550=VECTOR('',#983,1.);
#551=VECTOR('',#984,1.);
#552=VECTOR('',#985,1.);
#553=VECTOR('',#986,1.);
#554=VECTOR('',#987,1.);
#555=VECTOR('',#994,1.);
#556=VECTOR('',#995,1.);
#557=VECTOR('',#996,1.);
#558=VECTOR('',#997,1.);
#559=VECTOR('',#998,1.);
#560=VECTOR('',#999,1.);
#561=VECTOR('',#1000,1.);
#562=VECTOR('',#1001,1.);
#563=VECTOR('',#1004,1.);
#564=VECTOR('',#1005,1.);
#565=VECTOR('',#1006,1.);
#566=VECTOR('',#1007,1.);
#567=VECTOR('',#1014,1.);
#568=VECTOR('',#1015,1.);
#569=VECTOR('',#1016,1.);
#570=VECTOR('',#1017,1.);
#571=VECTOR('',#1018,1.);
#572=VECTOR('',#1021,1.);
#573=VECTOR('',#1024,1.);
#574=VECTOR('',#1025,1.);
#575=VECTOR('',#1026,1.);
#576=VECTOR('',#1037,1.);
#577=VECTOR('',#1038,1.);
#578=VECTOR('',#1039,1.);
#579=VECTOR('',#1046,1.);
#580=VECTOR('',#1047,1.);
#581=VECTOR('',#1048,1.);
#582=VECTOR('',#1049,1.);
#583=VECTOR('',#1050,1.);
#584=VECTOR('',#1053,1.);
#585=VECTOR('',#1054,1.);
#586=VECTOR('',#1055,1.);
#587=VECTOR('',#1062,1.);
#588=VECTOR('',#1063,1.);
#589=VECTOR('',#1064,1.);
#590=VECTOR('',#1065,1.);
#591=VECTOR('',#1068,1.);
#592=VECTOR('',#1069,1.);
#593=VECTOR('',#1072,1.);
#594=VECTOR('',#1073,1.);
#595=VECTOR('',#1076,1.);
#596=VECTOR('',#1077,1.);
#597=VECTOR('',#1078,1.);
#598=VECTOR('',#1081,1.);
#599=VECTOR('',#1082,1.);
#600=VECTOR('',#1085,1.);
#601=VECTOR('',#1086,1.);
#602=VECTOR('',#1089,1.);
#603=VECTOR('',#1092,1.);
#604=VECTOR('',#1093,1.);
#605=VECTOR('',#1096,1.);
#606=VECTOR('',#1097,1.);
#607=VECTOR('',#1100,1.);
#608=VECTOR('',#1129,1.);
#609=VECTOR('',#1132,1.);
#610=VECTOR('',#1135,1.);
#611=VECTOR('',#1138,1.);
#612=EDGE_LOOP('',(#57,#58,#59,#60,#61,#62,#63,#64,#65,#66));
#613=EDGE_LOOP('',(#67));
#614=EDGE_LOOP('',(#68));
#615=EDGE_LOOP('',(#69,#70,#71,#72,#73,#74));
#616=EDGE_LOOP('',(#75,#76,#77,#78,#79,#80));
#617=EDGE_LOOP('',(#81));
#618=EDGE_LOOP('',(#82));
#619=EDGE_LOOP('',(#83,#84,#85,#86,#87,#88,#89,#90,#91,#92));
#620=EDGE_LOOP('',(#93,#94,#95,#96));
#621=EDGE_LOOP('',(#97));
#622=EDGE_LOOP('',(#98));
#623=EDGE_LOOP('',(#99,#100,#101,#102,#103,#104));
#624=EDGE_LOOP('',(#105,#106,#107,#108,#109,#110,#111,#112));
#625=EDGE_LOOP('',(#113));
#626=EDGE_LOOP('',(#114));
#627=EDGE_LOOP('',(#115));
#628=EDGE_LOOP('',(#116));
#629=EDGE_LOOP('',(#117,#118,#119,#120));
#630=EDGE_LOOP('',(#121));
#631=EDGE_LOOP('',(#122));
#632=EDGE_LOOP('',(#123,#124,#125,#126,#127,#128));
#633=EDGE_LOOP('',(#129,#130,#131,#132));
#634=EDGE_LOOP('',(#133));
#635=EDGE_LOOP('',(#134));
#636=EDGE_LOOP('',(#135,#136,#137,#138,#139,#140));
#637=EDGE_LOOP('',(#141,#142,#143,#144,#145,#146,#147,#148,#149,#150));
#638=EDGE_LOOP('',(#151,#152,#153,#154,#155,#156,#157,#158,#159,#160));
#639=EDGE_LOOP('',(#161,#162,#163,#164));
#640=EDGE_LOOP('',(#165,#166,#167,#168,#169));
#641=EDGE_LOOP('',(#170,#171,#172,#173));
#642=EDGE_LOOP('',(#174,#175,#176));
#643=EDGE_LOOP('',(#177,#178,#179,#180,#181));
#644=EDGE_LOOP('',(#182,#183,#184));
#645=EDGE_LOOP('',(#185,#186,#187,#188));
#646=EDGE_LOOP('',(#189));
#647=EDGE_LOOP('',(#190));
#648=EDGE_LOOP('',(#191));
#649=EDGE_LOOP('',(#192));
#650=EDGE_LOOP('',(#193));
#651=EDGE_LOOP('',(#194,#195,#196,#197,#198,#199,#200,#201));
#652=EDGE_LOOP('',(#202));
#653=EDGE_LOOP('',(#203));
#654=EDGE_LOOP('',(#204));
#655=EDGE_LOOP('',(#205));
#656=EDGE_LOOP('',(#206));
#657=EDGE_LOOP('',(#207));
#658=EDGE_LOOP('',(#208));
#659=EDGE_LOOP('',(#209));
#660=EDGE_LOOP('',(#210));
#661=EDGE_LOOP('',(#211));
#662=EDGE_LOOP('',(#212));
#663=EDGE_LOOP('',(#213));
#664=EDGE_LOOP('',(#214,#215,#216,#217));
#665=EDGE_LOOP('',(#218,#219,#220,#221));
#666=EDGE_LOOP('',(#222,#223,#224,#225));
#667=EDGE_LOOP('',(#226));
#668=EDGE_LOOP('',(#227,#228,#229,#230));
#669=EDGE_LOOP('',(#231));
#670=EDGE_LOOP('',(#232));
#671=EDGE_LOOP('',(#233));
#672=EDGE_LOOP('',(#234));
#673=EDGE_LOOP('',(#235));
#674=EDGE_LOOP('',(#236));
#675=EDGE_LOOP('',(#237));
#676=EDGE_LOOP('',(#238));
#677=EDGE_LOOP('',(#239));
#678=EDGE_LOOP('',(#240));
#679=EDGE_LOOP('',(#241));
#680=EDGE_LOOP('',(#242));
#681=EDGE_LOOP('',(#243));
#682=EDGE_LOOP('',(#244));
#683=EDGE_LOOP('',(#245));
#684=EDGE_LOOP('',(#246));
#685=EDGE_LOOP('',(#247));
#686=EDGE_LOOP('',(#248));
#687=EDGE_LOOP('',(#249));
#688=EDGE_LOOP('',(#250));
#689=EDGE_LOOP('',(#251));
#690=EDGE_LOOP('',(#252));
#691=EDGE_LOOP('',(#253));
#692=EDGE_LOOP('',(#254));
#693=EDGE_LOOP('',(#255,#256,#257,#258));
#694=EDGE_LOOP('',(#259,#260,#261,#262));
#695=EDGE_LOOP('',(#263,#264,#265,#266));
#696=EDGE_LOOP('',(#267,#268,#269,#270));
#697=FACE_BOUND('',#612,.T.);
#698=FACE_BOUND('',#613,.T.);
#699=FACE_BOUND('',#614,.T.);
#700=FACE_BOUND('',#615,.T.);
#701=FACE_BOUND('',#616,.T.);
#702=FACE_BOUND('',#617,.T.);
#703=FACE_BOUND('',#618,.T.);
#704=FACE_BOUND('',#619,.T.);
#705=FACE_BOUND('',#620,.T.);
#706=FACE_BOUND('',#621,.T.);
#707=FACE_BOUND('',#622,.T.);
#708=FACE_BOUND('',#623,.T.);
#709=FACE_BOUND('',#624,.T.);
#710=FACE_BOUND('',#625,.T.);
#711=FACE_BOUND('',#626,.T.);
#712=FACE_BOUND('',#627,.T.);
#713=FACE_BOUND('',#628,.T.);
#714=FACE_BOUND('',#629,.T.);
#715=FACE_BOUND('',#630,.T.);
#716=FACE_BOUND('',#631,.T.);
#717=FACE_BOUND('',#632,.T.);
#718=FACE_BOUND('',#633,.T.);
#719=FACE_BOUND('',#634,.T.);
#720=FACE_BOUND('',#635,.T.);
#721=FACE_BOUND('',#636,.T.);
#722=FACE_BOUND('',#637,.T.);
#723=FACE_BOUND('',#638,.T.);
#724=FACE_BOUND('',#639,.T.);
#725=FACE_BOUND('',#640,.T.);
#726=FACE_BOUND('',#641,.T.);
#727=FACE_BOUND('',#642,.T.);
#728=FACE_BOUND('',#643,.T.);
#729=FACE_BOUND('',#644,.T.);
#730=FACE_BOUND('',#645,.T.);
#731=FACE_BOUND('',#646,.T.);
#732=FACE_BOUND('',#647,.T.);
#733=FACE_BOUND('',#648,.T.);
#734=FACE_BOUND('',#649,.T.);
#735=FACE_BOUND('',#650,.T.);
#736=FACE_BOUND('',#651,.T.);
#737=FACE_BOUND('',#652,.T.);
#738=FACE_BOUND('',#653,.T.);
#739=FACE_BOUND('',#654,.T.);
#740=FACE_BOUND('',#655,.T.);
#741=FACE_BOUND('',#656,.T.);
#742=FACE_BOUND('',#657,.T.);
#743=FACE_BOUND('',#658,.T.);
#744=FACE_BOUND('',#659,.T.);
#745=FACE_BOUND('',#660,.T.);
#746=FACE_BOUND('',#661,.T.);
#747=FACE_BOUND('',#662,.T.);
#748=FACE_BOUND('',#663,.T.);
#749=FACE_BOUND('',#664,.T.);
#750=FACE_BOUND('',#665,.T.);
#751=FACE_BOUND('',#666,.T.);
#752=FACE_BOUND('',#667,.T.);
#753=FACE_BOUND('',#668,.T.);
#754=FACE_BOUND('',#669,.T.);
#755=FACE_BOUND('',#670,.T.);
#756=FACE_BOUND('',#671,.T.);
#757=FACE_BOUND('',#672,.T.);
#758=FACE_BOUND('',#673,.T.);
#759=FACE_BOUND('',#674,.T.);
#760=FACE_BOUND('',#675,.T.);
#761=FACE_BOUND('',#676,.T.);
#762=FACE_BOUND('',#677,.T.);
#763=FACE_BOUND('',#678,.T.);
#764=FACE_BOUND('',#679,.T.);
#765=FACE_BOUND('',#680,.T.);
#766=FACE_BOUND('',#681,.T.);
#767=FACE_BOUND('',#682,.T.);
#768=FACE_BOUND('',#683,.T.);
#769=FACE_BOUND('',#684,.T.);
#770=FACE_BOUND('',#685,.T.);
#771=FACE_BOUND('',#686,.T.);
#772=FACE_BOUND('',#687,.T.);
#773=FACE_BOUND('',#688,.T.);
#774=FACE_BOUND('',#689,.T.);
#775=FACE_BOUND('',#690,.T.);
#776=FACE_BOUND('',#691,.T.);
#777=FACE_BOUND('',#692,.T.);
#778=FACE_BOUND('',#693,.T.);
#779=FACE_BOUND('',#694,.T.);
#780=FACE_BOUND('',#695,.T.);
#781=FACE_BOUND('',#696,.T.);
#782=PLANE('',#876);
#783=PLANE('',#880);
#784=PLANE('',#881);
#785=PLANE('',#882);
#786=PLANE('',#885);
#787=PLANE('',#886);
#788=PLANE('',#889);
#789=PLANE('',#895);
#790=PLANE('',#896);
#791=PLANE('',#899);
#792=PLANE('',#900);
#793=PLANE('',#903);
#794=PLANE('',#904);
#795=PLANE('',#905);
#796=PLANE('',#906);
#797=PLANE('',#907);
#798=PLANE('',#908);
#799=PLANE('',#909);
#800=PLANE('',#910);
#801=PLANE('',#911);
#802=PLANE('',#912);
#803=PLANE('',#918);
#804=PLANE('',#927);
#805=PLANE('',#928);
#806=PLANE('',#929);
#807=PLANE('',#936);
#808=PLANE('',#941);
#809=PLANE('',#946);
#810=PLANE('',#949);
#811=PLANE('',#950);
#812=PLANE('',#951);
#813=PLANE('',#952);
#814=PLANE('',#953);
#815=ADVANCED_FACE('',(#697),#782,.T.);
#816=ADVANCED_FACE('',(#698,#699),#42,.F.);
#817=ADVANCED_FACE('',(#700),#783,.T.);
#818=ADVANCED_FACE('',(#701),#784,.T.);
#819=ADVANCED_FACE('',(#702,#703,#704),#785,.T.);
#820=ADVANCED_FACE('',(#705),#786,.F.);
#821=ADVANCED_FACE('',(#706,#707,#708),#787,.F.);
#822=ADVANCED_FACE('',(#709,#710,#711,#712,#713),#788,.T.);
#823=ADVANCED_FACE('',(#714),#789,.T.);
#824=ADVANCED_FACE('',(#715,#716,#717),#790,.T.);
#825=ADVANCED_FACE('',(#718),#791,.T.);
#826=ADVANCED_FACE('',(#719,#720,#721),#792,.F.);
#827=ADVANCED_FACE('',(#722),#793,.T.);
#828=ADVANCED_FACE('',(#723),#794,.F.);
#829=ADVANCED_FACE('',(#724),#795,.T.);
#830=ADVANCED_FACE('',(#725),#796,.T.);
#831=ADVANCED_FACE('',(#726),#797,.F.);
#832=ADVANCED_FACE('',(#727),#798,.F.);
#833=ADVANCED_FACE('',(#728),#799,.T.);
#834=ADVANCED_FACE('',(#729),#800,.T.);
#835=ADVANCED_FACE('',(#730),#801,.F.);
#836=ADVANCED_FACE('',(#731,#732,#733,#734,#735,#736),#802,.F.);
#837=ADVANCED_FACE('',(#737,#738),#803,.T.);
#838=ADVANCED_FACE('',(#739,#740),#43,.F.);
#839=ADVANCED_FACE('',(#741,#742),#44,.F.);
#840=ADVANCED_FACE('',(#743,#744),#45,.F.);
#841=ADVANCED_FACE('',(#745,#746),#46,.F.);
#842=ADVANCED_FACE('',(#747,#748),#47,.F.);
#843=ADVANCED_FACE('',(#749),#48,.F.);
#844=ADVANCED_FACE('',(#750),#804,.F.);
#845=ADVANCED_FACE('',(#751),#805,.F.);
#846=ADVANCED_FACE('',(#752,#753),#806,.T.);
#847=ADVANCED_FACE('',(#754,#755),#49,.F.);
#848=ADVANCED_FACE('',(#756,#757),#50,.F.);
#849=ADVANCED_FACE('',(#758,#759),#51,.F.);
#850=ADVANCED_FACE('',(#760,#761),#807,.T.);
#851=ADVANCED_FACE('',(#762,#763),#52,.F.);
#852=ADVANCED_FACE('',(#764,#765),#53,.F.);
#853=ADVANCED_FACE('',(#766,#767),#808,.T.);
#854=ADVANCED_FACE('',(#768,#769),#54,.F.);
#855=ADVANCED_FACE('',(#770,#771),#55,.F.);
#856=ADVANCED_FACE('',(#772,#773),#809,.F.);
#857=ADVANCED_FACE('',(#774,#775),#56,.F.);
#858=ADVANCED_FACE('',(#776,#777),#810,.F.);
#859=ADVANCED_FACE('',(#778),#811,.F.);
#860=ADVANCED_FACE('',(#779),#812,.T.);
#861=ADVANCED_FACE('',(#780),#813,.F.);
#862=ADVANCED_FACE('',(#781),#814,.T.);
#863=CLOSED_SHELL('',(#815,#816,#817,#818,#819,#820,#821,#822,#823,#824,
#825,#826,#827,#828,#829,#830,#831,#832,#833,#834,#835,#836,#837,#838,#839,
#840,#841,#842,#843,#844,#845,#846,#847,#848,#849,#850,#851,#852,#853,#854,
#855,#856,#857,#858,#859,#860,#861,#862));
#864=STYLED_ITEM('',(#865),#872);
#865=PRESENTATION_STYLE_ASSIGNMENT((#866));
#866=SURFACE_STYLE_USAGE(.BOTH.,#867);
#867=SURFACE_SIDE_STYLE('',(#868));
#868=SURFACE_STYLE_FILL_AREA(#869);
#869=FILL_AREA_STYLE('',(#870));
#870=FILL_AREA_STYLE_COLOUR('',#871);
#871=COLOUR_RGB('',0.301960784313725,0.301960784313725,0.301960784313725);
#872=MANIFOLD_SOLID_BREP('Mounting Bracket',#863);
#873=SHAPE_DEFINITION_REPRESENTATION(#1431,#874);
#874=SHAPE_REPRESENTATION('Mounting Bracket',(#875),#1426);
#875=AXIS2_PLACEMENT_3D('',#1189,#954,#955);
#876=AXIS2_PLACEMENT_3D('',#1190,#956,#957);
#877=AXIS2_PLACEMENT_3D('',#1211,#968,#969);
#878=AXIS2_PLACEMENT_3D('',#1212,#970,#971);
#879=AXIS2_PLACEMENT_3D('',#1214,#972,#973);
#880=AXIS2_PLACEMENT_3D('',#1216,#974,#975);
#881=AXIS2_PLACEMENT_3D('',#1226,#981,#982);
#882=AXIS2_PLACEMENT_3D('',#1236,#988,#989);
#883=AXIS2_PLACEMENT_3D('',#1237,#990,#991);
#884=AXIS2_PLACEMENT_3D('',#1239,#992,#993);
#885=AXIS2_PLACEMENT_3D('',#1255,#1002,#1003);
#886=AXIS2_PLACEMENT_3D('',#1264,#1008,#1009);
#887=AXIS2_PLACEMENT_3D('',#1265,#1010,#1011);
#888=AXIS2_PLACEMENT_3D('',#1267,#1012,#1013);
#889=AXIS2_PLACEMENT_3D('',#1278,#1019,#1020);
#890=AXIS2_PLACEMENT_3D('',#1281,#1022,#1023);
#891=AXIS2_PLACEMENT_3D('',#1286,#1027,#1028);
#892=AXIS2_PLACEMENT_3D('',#1288,#1029,#1030);
#893=AXIS2_PLACEMENT_3D('',#1290,#1031,#1032);
#894=AXIS2_PLACEMENT_3D('',#1292,#1033,#1034);
#895=AXIS2_PLACEMENT_3D('',#1294,#1035,#1036);
#896=AXIS2_PLACEMENT_3D('',#1300,#1040,#1041);
#897=AXIS2_PLACEMENT_3D('',#1301,#1042,#1043);
#898=AXIS2_PLACEMENT_3D('',#1303,#1044,#1045);
#899=AXIS2_PLACEMENT_3D('',#1314,#1051,#1052);
#900=AXIS2_PLACEMENT_3D('',#1320,#1056,#1057);
#901=AXIS2_PLACEMENT_3D('',#1321,#1058,#1059);
#902=AXIS2_PLACEMENT_3D('',#1323,#1060,#1061);
#903=AXIS2_PLACEMENT_3D('',#1331,#1066,#1067);
#904=AXIS2_PLACEMENT_3D('',#1334,#1070,#1071);
#905=AXIS2_PLACEMENT_3D('',#1337,#1074,#1075);
#906=AXIS2_PLACEMENT_3D('',#1343,#1079,#1080);
#907=AXIS2_PLACEMENT_3D('',#1347,#1083,#1084);
#908=AXIS2_PLACEMENT_3D('',#1351,#1087,#1088);
#909=AXIS2_PLACEMENT_3D('',#1353,#1090,#1091);
#910=AXIS2_PLACEMENT_3D('',#1357,#1094,#1095);
#911=AXIS2_PLACEMENT_3D('',#1361,#1098,#1099);
#912=AXIS2_PLACEMENT_3D('',#1363,#1101,#1102);
#913=AXIS2_PLACEMENT_3D('',#1364,#1103,#1104);
#914=AXIS2_PLACEMENT_3D('',#1366,#1105,#1106);
#915=AXIS2_PLACEMENT_3D('',#1368,#1107,#1108);
#916=AXIS2_PLACEMENT_3D('',#1370,#1109,#1110);
#917=AXIS2_PLACEMENT_3D('',#1372,#1111,#1112);
#918=AXIS2_PLACEMENT_3D('',#1374,#1113,#1114);
#919=AXIS2_PLACEMENT_3D('',#1375,#1115,#1116);
#920=AXIS2_PLACEMENT_3D('',#1377,#1117,#1118);
#921=AXIS2_PLACEMENT_3D('',#1378,#1119,#1120);
#922=AXIS2_PLACEMENT_3D('',#1379,#1121,#1122);
#923=AXIS2_PLACEMENT_3D('',#1380,#1123,#1124);
#924=AXIS2_PLACEMENT_3D('',#1381,#1125,#1126);
#925=AXIS2_PLACEMENT_3D('',#1382,#1127,#1128);
#926=AXIS2_PLACEMENT_3D('',#1385,#1130,#1131);
#927=AXIS2_PLACEMENT_3D('',#1388,#1133,#1134);
#928=AXIS2_PLACEMENT_3D('',#1390,#1136,#1137);
#929=AXIS2_PLACEMENT_3D('',#1392,#1139,#1140);
#930=AXIS2_PLACEMENT_3D('',#1393,#1141,#1142);
#931=AXIS2_PLACEMENT_3D('',#1394,#1143,#1144);
#932=AXIS2_PLACEMENT_3D('',#1396,#1145,#1146);
#933=AXIS2_PLACEMENT_3D('',#1397,#1147,#1148);
#934=AXIS2_PLACEMENT_3D('',#1399,#1149,#1150);
#935=AXIS2_PLACEMENT_3D('',#1400,#1151,#1152);
#936=AXIS2_PLACEMENT_3D('',#1402,#1153,#1154);
#937=AXIS2_PLACEMENT_3D('',#1403,#1155,#1156);
#938=AXIS2_PLACEMENT_3D('',#1405,#1157,#1158);
#939=AXIS2_PLACEMENT_3D('',#1406,#1159,#1160);
#940=AXIS2_PLACEMENT_3D('',#1407,#1161,#1162);
#941=AXIS2_PLACEMENT_3D('',#1409,#1163,#1164);
#942=AXIS2_PLACEMENT_3D('',#1410,#1165,#1166);
#943=AXIS2_PLACEMENT_3D('',#1412,#1167,#1168);
#944=AXIS2_PLACEMENT_3D('',#1413,#1169,#1170);
#945=AXIS2_PLACEMENT_3D('',#1414,#1171,#1172);
#946=AXIS2_PLACEMENT_3D('',#1416,#1173,#1174);
#947=AXIS2_PLACEMENT_3D('',#1417,#1175,#1176);
#948=AXIS2_PLACEMENT_3D('',#1418,#1177,#1178);
#949=AXIS2_PLACEMENT_3D('',#1420,#1179,#1180);
#950=AXIS2_PLACEMENT_3D('',#1421,#1181,#1182);
#951=AXIS2_PLACEMENT_3D('',#1422,#1183,#1184);
#952=AXIS2_PLACEMENT_3D('',#1423,#1185,#1186);
#953=AXIS2_PLACEMENT_3D('',#1424,#1187,#1188);
#954=DIRECTION('',(0.,0.,1.));
#955=DIRECTION('',(1.,0.,0.));
#956=DIRECTION('',(0.,1.,0.));
#957=DIRECTION('',(0.,0.,1.));
#958=DIRECTION('',(0.,0.,-1.));
#959=DIRECTION('',(1.,1.22464679914735E-16,0.));
#960=DIRECTION('',(0.,0.,-1.));
#961=DIRECTION('',(1.,0.,0.));
#962=DIRECTION('',(0.,0.,-1.));
#963=DIRECTION('',(0.,3.30423519233678E-16,1.));
#964=DIRECTION('',(0.,0.,-1.));
#965=DIRECTION('',(1.,0.,0.));
#966=DIRECTION('',(0.,0.,-1.));
#967=DIRECTION('',(1.,1.22464679914735E-16,0.));
#968=DIRECTION('',(1.,0.,0.));
#969=DIRECTION('',(0.,0.,-1.));
#970=DIRECTION('',(1.,0.,0.));
#971=DIRECTION('',(0.,0.,-1.));
#972=DIRECTION('',(1.,1.22464679914735E-16,0.));
#973=DIRECTION('',(-1.22464679914735E-16,1.,0.));
#974=DIRECTION('',(-0.746997038573461,0.66482736433038,0.));
#975=DIRECTION('',(-0.66482736433038,-0.746997038573461,0.));
#976=DIRECTION('',(0.,0.,1.));
#977=DIRECTION('',(-0.66482736433038,-0.746997038573461,0.));
#978=DIRECTION('',(0.,0.,-1.));
#979=DIRECTION('',(0.66482736433038,0.746997038573461,0.));
#980=DIRECTION('',(0.66482736433038,0.746997038573461,0.));
#981=DIRECTION('',(-0.746997038573461,0.66482736433038,0.));
#982=DIRECTION('',(-0.66482736433038,-0.746997038573461,0.));
#983=DIRECTION('',(0.,0.,-1.));
#984=DIRECTION('',(0.66482736433038,0.746997038573461,0.));
#985=DIRECTION('',(0.,0.,1.));
#986=DIRECTION('',(0.66482736433038,0.746997038573461,0.));
#987=DIRECTION('',(0.66482736433038,0.746997038573461,0.));
#988=DIRECTION('',(-1.,0.,0.));
#989=DIRECTION('',(0.,0.,1.));
#990=DIRECTION('',(1.,0.,0.));
#991=DIRECTION('',(0.,0.,-1.));
#992=DIRECTION('',(1.,0.,0.));
#993=DIRECTION('',(0.,0.,-1.));
#994=DIRECTION('',(0.,1.,0.));
#995=DIRECTION('',(0.,-0.707106781186548,0.707106781186548));
#996=DIRECTION('',(0.,0.,-1.));
#997=DIRECTION('',(0.,-0.707106781186548,-0.707106781186548));
#998=DIRECTION('',(0.,1.,0.));
#999=DIRECTION('',(0.,-1.,0.));
#1000=DIRECTION('',(0.,-2.71050543121376E-16,-1.));
#1001=DIRECTION('',(0.,1.,0.));
#1002=DIRECTION('',(0.,1.,0.));
#1003=DIRECTION('',(0.,0.,1.));
#1004=DIRECTION('',(0.,0.,-1.));
#1005=DIRECTION('',(1.,0.,0.));
#1006=DIRECTION('',(0.,0.,-1.));
#1007=DIRECTION('',(-1.,0.,0.));
#1008=DIRECTION('',(-0.746997038573461,0.66482736433038,0.));
#1009=DIRECTION('',(-0.66482736433038,-0.746997038573461,0.));
#1010=DIRECTION('',(-0.746997038573461,0.66482736433038,0.));
#1011=DIRECTION('',(0.66482736433038,0.746997038573461,0.));
#1012=DIRECTION('',(-0.746997038573461,0.66482736433038,0.));
#1013=DIRECTION('',(0.66482736433038,0.746997038573461,0.));
#1014=DIRECTION('',(-0.532628648742639,-0.598459155890605,0.598459155890605));
#1015=DIRECTION('',(0.66482736433038,0.746997038573461,0.));
#1016=DIRECTION('',(0.,0.,-1.));
#1017=DIRECTION('',(0.66482736433038,0.746997038573461,0.));
#1018=DIRECTION('',(-0.532628648742639,-0.598459155890605,-0.598459155890605));
#1019=DIRECTION('',(1.,1.22464679914735E-16,0.));
#1020=DIRECTION('',(-1.22464679914735E-16,1.,0.));
#1021=DIRECTION('',(-1.22464679914735E-16,1.,0.));
#1022=DIRECTION('',(1.,1.22464679914735E-16,0.));
#1023=DIRECTION('',(-1.22464679914735E-16,1.,0.));
#1024=DIRECTION('',(1.22464679914735E-16,-1.,0.));
#1025=DIRECTION('',(1.22464679914735E-16,-1.,0.));
#1026=DIRECTION('',(1.22464679914735E-16,-1.,0.));
#1027=DIRECTION('',(1.,1.22464679914735E-16,0.));
#1028=DIRECTION('',(-1.22464679914735E-16,1.,0.));
#1029=DIRECTION('',(1.,1.22464679914735E-16,0.));
#1030=DIRECTION('',(-1.22464679914735E-16,1.,0.));
#1031=DIRECTION('',(1.,1.22464679914735E-16,0.));
#1032=DIRECTION('',(-1.22464679914735E-16,1.,0.));
#1033=DIRECTION('',(1.,1.22464679914735E-16,0.));
#1034=DIRECTION('',(-1.22464679914735E-16,1.,0.));
#1035=DIRECTION('',(0.,-1.,0.));
#1036=DIRECTION('',(0.,0.,-1.));
#1037=DIRECTION('',(1.,0.,0.));
#1038=DIRECTION('',(0.,0.,-1.));
#1039=DIRECTION('',(-1.,0.,0.));
#1040=DIRECTION('',(1.,0.,0.));
#1041=DIRECTION('',(0.,0.,-1.));
#1042=DIRECTION('',(1.,0.,0.));
#1043=DIRECTION('',(0.,0.,-1.));
#1044=DIRECTION('',(1.,0.,0.));
#1045=DIRECTION('',(0.,0.,-1.));
#1046=DIRECTION('',(0.,0.707106781186548,-0.707106781186548));
#1047=DIRECTION('',(0.,-1.,0.));
#1048=DIRECTION('',(0.,0.,-1.));
#1049=DIRECTION('',(0.,-1.,0.));
#1050=DIRECTION('',(0.,0.707106781186548,0.707106781186548));
#1051=DIRECTION('',(0.,-1.,0.));
#1052=DIRECTION('',(0.,0.,-1.));
#1053=DIRECTION('',(-1.,0.,0.));
#1054=DIRECTION('',(0.,0.,-1.));
#1055=DIRECTION('',(-1.,0.,0.));
#1056=DIRECTION('',(1.,1.7347234759768E-16,0.));
#1057=DIRECTION('',(-1.7347234759768E-16,1.,0.));
#1058=DIRECTION('',(1.,1.7347234759768E-16,0.));
#1059=DIRECTION('',(-1.7347234759768E-16,1.,0.));
#1060=DIRECTION('',(1.,1.7347234759768E-16,0.));
#1061=DIRECTION('',(-1.7347234759768E-16,1.,0.));
#1062=DIRECTION('',(1.7347234759768E-16,-1.,0.));
#1063=DIRECTION('',(-1.2266347333467E-16,0.707106781186548,-0.707106781186548));
#1064=DIRECTION('',(-1.2266347333467E-16,0.707106781186548,0.707106781186548));
#1065=DIRECTION('',(1.7347234759768E-16,-1.,0.));
#1066=DIRECTION('',(0.,0.,1.));
#1067=DIRECTION('',(1.,0.,0.));
#1068=DIRECTION('',(1.,0.,0.));
#1069=DIRECTION('',(1.,0.,0.));
#1070=DIRECTION('',(0.,0.,1.));
#1071=DIRECTION('',(1.,0.,0.));
#1072=DIRECTION('',(-1.,0.,0.));
#1073=DIRECTION('',(-1.,0.,0.));
#1074=DIRECTION('',(0.,1.,-2.71050543121376E-16));
#1075=DIRECTION('',(0.,2.71050543121376E-16,1.));
#1076=DIRECTION('',(0.,-2.71050543121376E-16,-1.));
#1077=DIRECTION('',(-1.,0.,0.));
#1078=DIRECTION('',(-1.,0.,0.));
#1079=DIRECTION('',(0.,0.,-1.));
#1080=DIRECTION('',(-1.,0.,0.));
#1081=DIRECTION('',(-1.,0.,0.));
#1082=DIRECTION('',(0.,-1.,0.));
#1083=DIRECTION('',(0.,-1.,0.));
#1084=DIRECTION('',(0.,0.,-1.));
#1085=DIRECTION('',(-1.,0.,0.));
#1086=DIRECTION('',(0.,0.,1.));
#1087=DIRECTION('',(0.,0.,1.));
#1088=DIRECTION('',(1.,0.,0.));
#1089=DIRECTION('',(0.,1.,0.));
#1090=DIRECTION('',(0.,0.,1.));
#1091=DIRECTION('',(1.,0.,0.));
#1092=DIRECTION('',(0.,1.,0.));
#1093=DIRECTION('',(-1.,0.,0.));
#1094=DIRECTION('',(0.,0.,1.));
#1095=DIRECTION('',(1.,0.,0.));
#1096=DIRECTION('',(-1.,0.,0.));
#1097=DIRECTION('',(0.,1.,0.));
#1098=DIRECTION('',(0.,-1.,0.));
#1099=DIRECTION('',(0.,0.,-1.));
#1100=DIRECTION('',(0.,0.,1.));
#1101=DIRECTION('',(1.,0.,0.));
#1102=DIRECTION('',(0.,1.,0.));
#1103=DIRECTION('',(1.,0.,0.));
#1104=DIRECTION('',(0.,0.,-1.));
#1105=DIRECTION('',(1.,0.,0.));
#1106=DIRECTION('',(0.,0.,-1.));
#1107=DIRECTION('',(1.,0.,0.));
#1108=DIRECTION('',(0.,0.,-1.));
#1109=DIRECTION('',(1.,0.,0.));
#1110=DIRECTION('',(0.,0.,-1.));
#1111=DIRECTION('',(1.,0.,0.));
#1112=DIRECTION('',(0.,0.,-1.));
#1113=DIRECTION('',(-1.,0.,0.));
#1114=DIRECTION('',(0.,0.,1.));
#1115=DIRECTION('',(1.,0.,0.));
#1116=DIRECTION('',(0.,0.,-1.));
#1117=DIRECTION('',(1.,0.,0.));
#1118=DIRECTION('',(0.,0.,-1.));
#1119=DIRECTION('',(1.,0.,0.));
#1120=DIRECTION('',(0.,0.,-1.));
#1121=DIRECTION('',(1.,0.,0.));
#1122=DIRECTION('',(0.,0.,-1.));
#1123=DIRECTION('',(1.,0.,0.));
#1124=DIRECTION('',(0.,0.,-1.));
#1125=DIRECTION('',(1.,0.,0.));
#1126=DIRECTION('',(0.,0.,-1.));
#1127=DIRECTION('',(1.,1.22464679914735E-16,0.));
#1128=DIRECTION('',(-1.22464679914735E-16,1.,0.));
#1129=DIRECTION('',(1.,1.22464679914735E-16,0.));
#1130=DIRECTION('',(1.,1.22464679914735E-16,0.));
#1131=DIRECTION('',(-1.22464679914735E-16,1.,0.));
#1132=DIRECTION('',(1.,1.22464679914735E-16,0.));
#1133=DIRECTION('',(0.,0.,-1.));
#1134=DIRECTION('',(-1.,0.,0.));
#1135=DIRECTION('',(-1.22464679914735E-16,1.,0.));
#1136=DIRECTION('',(0.,0.,1.));
#1137=DIRECTION('',(1.,0.,0.));
#1138=DIRECTION('',(1.22464679914735E-16,-1.,0.));
#1139=DIRECTION('',(1.,1.22464679914735E-16,0.));
#1140=DIRECTION('',(-1.22464679914735E-16,1.,0.));
#1141=DIRECTION('',(1.,0.,0.));
#1142=DIRECTION('',(0.,0.,-1.));
#1143=DIRECTION('',(-1.,0.,0.));
#1144=DIRECTION('',(0.,0.,1.));
#1145=DIRECTION('',(1.,0.,0.));
#1146=DIRECTION('',(0.,0.,-1.));
#1147=DIRECTION('',(-1.,0.,0.));
#1148=DIRECTION('',(0.,0.,1.));
#1149=DIRECTION('',(1.,0.,0.));
#1150=DIRECTION('',(0.,0.,-1.));
#1151=DIRECTION('',(1.,0.,0.));
#1152=DIRECTION('',(0.,0.,-1.));
#1153=DIRECTION('',(-1.,0.,0.));
#1154=DIRECTION('',(0.,0.,1.));
#1155=DIRECTION('',(1.,0.,0.));
#1156=DIRECTION('',(0.,0.,-1.));
#1157=DIRECTION('',(1.,0.,0.));
#1158=DIRECTION('',(0.,0.,-1.));
#1159=DIRECTION('',(1.,0.,0.));
#1160=DIRECTION('',(0.,0.,-1.));
#1161=DIRECTION('',(1.,0.,0.));
#1162=DIRECTION('',(0.,0.,-1.));
#1163=DIRECTION('',(-1.,0.,0.));
#1164=DIRECTION('',(0.,0.,1.));
#1165=DIRECTION('',(1.,0.,0.));
#1166=DIRECTION('',(0.,0.,-1.));
#1167=DIRECTION('',(1.,0.,0.));
#1168=DIRECTION('',(0.,0.,-1.));
#1169=DIRECTION('',(1.,0.,0.));
#1170=DIRECTION('',(0.,0.,-1.));
#1171=DIRECTION('',(-1.,0.,0.));
#1172=DIRECTION('',(0.,0.,1.));
#1173=DIRECTION('',(-1.,0.,0.));
#1174=DIRECTION('',(0.,-1.,0.));
#1175=DIRECTION('',(1.,0.,0.));
#1176=DIRECTION('',(0.,0.,-1.));
#1177=DIRECTION('',(-1.,0.,0.));
#1178=DIRECTION('',(0.,0.,1.));
#1179=DIRECTION('',(-1.,0.,0.));
#1180=DIRECTION('',(0.,-1.,0.));
#1181=DIRECTION('',(0.,0.707106781186548,0.707106781186548));
#1182=DIRECTION('',(1.,0.,0.));
#1183=DIRECTION('',(0.,-0.707106781186548,-0.707106781186548));
#1184=DIRECTION('',(1.,0.,0.));
#1185=DIRECTION('',(0.,0.707106781186548,-0.707106781186548));
#1186=DIRECTION('',(-1.,0.,0.));
#1187=DIRECTION('',(0.,-0.707106781186548,0.707106781186548));
#1188=DIRECTION('',(-1.,0.,0.));
#1189=CARTESIAN_POINT('',(0.,0.,0.));
#1190=CARTESIAN_POINT('',(-0.0045,0.051,0.052));
#1191=CARTESIAN_POINT('',(-0.004,0.051,0.052));
#1192=CARTESIAN_POINT('',(-0.004,0.051,0.0285));
#1193=CARTESIAN_POINT('',(-0.004,0.051,0.0235));
#1194=CARTESIAN_POINT('',(-0.004,0.051,0.0235));
#1195=CARTESIAN_POINT('',(-5.20417042793042E-18,0.051,0.0235));
#1196=CARTESIAN_POINT('',(-5.20417042793042E-18,0.051,0.052));
#1197=CARTESIAN_POINT('',(-5.20417042793042E-18,0.051,0.));
#1198=CARTESIAN_POINT('',(-0.0045,0.051,0.));
#1199=CARTESIAN_POINT('',(-0.009,0.051,0.));
#1200=CARTESIAN_POINT('',(-0.009,0.051,0.052));
#1201=CARTESIAN_POINT('',(-0.009,0.051,0.005));
#1202=CARTESIAN_POINT('',(-0.009,0.051,0.026));
#1203=CARTESIAN_POINT('',(-0.009,0.051,0.047));
#1204=CARTESIAN_POINT('',(-0.009,0.051,0.052));
#1205=CARTESIAN_POINT('',(-0.009,0.051,0.052));
#1206=CARTESIAN_POINT('',(-0.0045,0.051,0.052));
#1207=CARTESIAN_POINT('',(-5.20417042793042E-18,0.051,0.052));
#1208=CARTESIAN_POINT('',(-5.20417042793042E-18,0.051,0.052));
#1209=CARTESIAN_POINT('',(-4.91696407979196E-18,0.051,0.0285));
#1210=CARTESIAN_POINT('',(-0.004,0.051,0.0285));
#1211=CARTESIAN_POINT('',(-0.009,0.03,0.026));
#1212=CARTESIAN_POINT('',(-0.0068,0.03,0.026));
#1213=CARTESIAN_POINT('',(-0.0068,0.03,0.02325));
#1214=CARTESIAN_POINT('',(-0.004,0.03,0.026));
#1215=CARTESIAN_POINT('',(-0.004,0.03275,0.026));
#1216=CARTESIAN_POINT('',(-0.0295,0.0279662921348315,0.052));
#1217=CARTESIAN_POINT('',(-0.04638,0.009,0.052));
#1218=CARTESIAN_POINT('',(-0.04638,0.009,0.03));
#1219=CARTESIAN_POINT('',(-0.04638,0.009,0.047));
#1220=CARTESIAN_POINT('',(-0.0295,0.0279662921348315,0.03));
#1221=CARTESIAN_POINT('',(-0.05,0.00493258426966293,0.03));
#1222=CARTESIAN_POINT('',(-0.05,0.00493258426966292,0.052));
#1223=CARTESIAN_POINT('',(-0.05,0.00493258426966292,0.052));
#1224=CARTESIAN_POINT('',(-0.0295,0.0279662921348315,0.052));
#1225=CARTESIAN_POINT('',(-0.0295,0.0279662921348315,0.047));
#1226=CARTESIAN_POINT('',(-0.0295,0.0279662921348315,0.052));
#1227=CARTESIAN_POINT('',(-0.05,0.00493258426966292,0.052));
#1228=CARTESIAN_POINT('',(-0.05,0.00493258426966292,0.022));
#1229=CARTESIAN_POINT('',(-0.05,0.00493258426966292,0.));
#1230=CARTESIAN_POINT('',(-0.0295,0.0279662921348315,0.022));
#1231=CARTESIAN_POINT('',(-0.04638,0.009,0.022));
#1232=CARTESIAN_POINT('',(-0.04638,0.009,0.052));
#1233=CARTESIAN_POINT('',(-0.04638,0.009,0.005));
#1234=CARTESIAN_POINT('',(-0.0295,0.0279662921348315,0.005));
#1235=CARTESIAN_POINT('',(-0.0295,0.0279662921348315,0.));
#1236=CARTESIAN_POINT('',(-0.05,-0.00753370786516854,0.052));
#1237=CARTESIAN_POINT('',(-0.05,-0.01,0.017));
#1238=CARTESIAN_POINT('',(-0.05,-0.01,0.012125));
#1239=CARTESIAN_POINT('',(-0.05,-0.01,0.035));
#1240=CARTESIAN_POINT('',(-0.05,-0.01,0.030125));
#1241=CARTESIAN_POINT('',(-0.05,-0.00753370786516854,0.));
#1242=CARTESIAN_POINT('',(-0.05,-0.006,0.));
#1243=CARTESIAN_POINT('',(-0.05,-0.0327668539325842,0.0267668539325842));
#1244=CARTESIAN_POINT('',(-0.05,-0.02,0.014));
#1245=CARTESIAN_POINT('',(-0.05,-0.02,0.052));
#1246=CARTESIAN_POINT('',(-0.05,-0.02,0.038));
#1247=CARTESIAN_POINT('',(-0.05,-0.00676685393258427,0.0512331460674157));
#1248=CARTESIAN_POINT('',(-0.05,-0.006,0.052));
#1249=CARTESIAN_POINT('',(-0.05,-0.00753370786516854,0.052));
#1250=CARTESIAN_POINT('',(-0.05,0.00575,0.03));
#1251=CARTESIAN_POINT('',(-0.05,0.0025,0.03));
#1252=CARTESIAN_POINT('',(-0.05,0.0025,0.026));
#1253=CARTESIAN_POINT('',(-0.05,0.0025,0.022));
#1254=CARTESIAN_POINT('',(-0.05,0.00575,0.022));
#1255=CARTESIAN_POINT('',(-0.0203,-0.02,0.052));
#1256=CARTESIAN_POINT('',(-0.0228,-0.02,0.052));
#1257=CARTESIAN_POINT('',(-0.0228,-0.02,0.038));
#1258=CARTESIAN_POINT('',(-0.0228,-0.02,0.014));
#1259=CARTESIAN_POINT('',(-0.0203,-0.02,0.014));
#1260=CARTESIAN_POINT('',(-0.0178,-0.02,0.014));
#1261=CARTESIAN_POINT('',(-0.0178,-0.02,0.052));
#1262=CARTESIAN_POINT('',(-0.0178,-0.02,0.038));
#1263=CARTESIAN_POINT('',(-0.0228,-0.02,0.038));
#1264=CARTESIAN_POINT('',(-0.0089,-0.01,0.052));
#1265=CARTESIAN_POINT('',(-0.0089,-0.01,0.035));
#1266=CARTESIAN_POINT('',(-0.00456125,-0.005125,0.035));
#1267=CARTESIAN_POINT('',(-0.0089,-0.01,0.017));
#1268=CARTESIAN_POINT('',(-0.00456125,-0.005125,0.017));
#1269=CARTESIAN_POINT('',(-0.0185092331936535,-0.0207968912288242,0.0147968912288242));
#1270=CARTESIAN_POINT('',(-0.00534,-0.006,0.));
#1271=CARTESIAN_POINT('',(-0.0089,-0.01,0.));
#1272=CARTESIAN_POINT('',(1.61594094399799E-18,-1.7347234759768E-18,0.));
#1273=CARTESIAN_POINT('',(1.61594094399799E-18,-1.7347234759768E-18,0.052));
#1274=CARTESIAN_POINT('',(1.61594094399799E-18,-1.7347234759768E-18,0.052));
#1275=CARTESIAN_POINT('',(-0.0089,-0.01,0.052));
#1276=CARTESIAN_POINT('',(-0.00534,-0.006,0.052));
#1277=CARTESIAN_POINT('',(-0.0109174098348913,-0.0122667526234734,0.0457332473765266));
#1278=CARTESIAN_POINT('',(-1.50690839382775E-18,0.0255,0.052));
#1279=CARTESIAN_POINT('',(-3.87328166147163E-18,0.0448229041164476,0.0235));
#1280=CARTESIAN_POINT('',(-3.11680559128976E-18,0.0386458082328953,0.0235));
#1281=CARTESIAN_POINT('',(-2.05799945344406E-18,0.03,0.026));
#1282=CARTESIAN_POINT('',(-3.11680559128976E-18,0.0386458082328953,0.0285));
#1283=CARTESIAN_POINT('',(-3.87328166147163E-18,0.0448229041164476,0.0285));
#1284=CARTESIAN_POINT('',(-1.50690839382775E-18,0.0255,0.052));
#1285=CARTESIAN_POINT('',(-1.50690839382775E-18,0.0255,0.));
#1286=CARTESIAN_POINT('',(-3.46944695195361E-18,0.0455,0.0105));
#1287=CARTESIAN_POINT('',(-3.67763690780866E-18,0.0472,0.0105));
#1288=CARTESIAN_POINT('',(0.,0.0145,0.0105));
#1289=CARTESIAN_POINT('',(-2.0818995585505E-19,0.0162,0.0105));
#1290=CARTESIAN_POINT('',(0.,0.0145,0.0415));
#1291=CARTESIAN_POINT('',(-2.0818995585505E-19,0.0162,0.0415));
#1292=CARTESIAN_POINT('',(-3.46944695195361E-18,0.0455,0.0415));
#1293=CARTESIAN_POINT('',(-3.67763690780866E-18,0.0472,0.0415));
#1294=CARTESIAN_POINT('',(-0.0465,-0.02,0.052));
#1295=CARTESIAN_POINT('',(-0.043,-0.02,0.014));
#1296=CARTESIAN_POINT('',(-0.043,-0.02,0.014));
#1297=CARTESIAN_POINT('',(-0.043,-0.02,0.052));
#1298=CARTESIAN_POINT('',(-0.043,-0.02,0.038));
#1299=CARTESIAN_POINT('',(-0.0465,-0.02,0.038));
#1300=CARTESIAN_POINT('',(-0.043,-0.01,0.052));
#1301=CARTESIAN_POINT('',(-0.043,-0.01,0.017));
#1302=CARTESIAN_POINT('',(-0.043,-0.01,0.01425));
#1303=CARTESIAN_POINT('',(-0.043,-0.01,0.035));
#1304=CARTESIAN_POINT('',(-0.043,-0.01,0.03225));
#1305=CARTESIAN_POINT('',(-0.043,-0.034,0.028));
#1306=CARTESIAN_POINT('',(-0.043,-0.006,0.));
#1307=CARTESIAN_POINT('',(-0.043,-0.01,0.));
#1308=CARTESIAN_POINT('',(-0.043,-5.20417042793042E-18,0.));
#1309=CARTESIAN_POINT('',(-0.043,-5.20417042793042E-18,0.052));
#1310=CARTESIAN_POINT('',(-0.043,-5.20417042793042E-18,0.052));
#1311=CARTESIAN_POINT('',(-0.043,-0.01,0.052));
#1312=CARTESIAN_POINT('',(-0.043,-0.006,0.052));
#1313=CARTESIAN_POINT('',(-0.043,-0.008,0.05));
#1314=CARTESIAN_POINT('',(-0.0329,0.,0.052));
#1315=CARTESIAN_POINT('',(-0.0329,0.,0.));
#1316=CARTESIAN_POINT('',(-0.0228,0.,0.));
#1317=CARTESIAN_POINT('',(-0.0228,0.,0.052));
#1318=CARTESIAN_POINT('',(-0.0228,0.,0.052));
#1319=CARTESIAN_POINT('',(-0.0329,0.,0.052));
#1320=CARTESIAN_POINT('',(-0.0228,-0.01,0.052));
#1321=CARTESIAN_POINT('',(-0.0228,-0.01,0.017));
#1322=CARTESIAN_POINT('',(-0.0228,-0.00725,0.017));
#1323=CARTESIAN_POINT('',(-0.0228,-0.01,0.035));
#1324=CARTESIAN_POINT('',(-0.0228,-0.00725,0.035));
#1325=CARTESIAN_POINT('',(-0.0228,-0.01,0.));
#1326=CARTESIAN_POINT('',(-0.0228,-0.006,0.));
#1327=CARTESIAN_POINT('',(-0.0228,-0.02,0.014));
#1328=CARTESIAN_POINT('',(-0.0228,-0.006,0.052));
#1329=CARTESIAN_POINT('',(-0.0228,-0.006,0.052));
#1330=CARTESIAN_POINT('',(-0.0228,-0.01,0.052));
#1331=CARTESIAN_POINT('',(-0.025,0.0126910112359551,0.052));
#1332=CARTESIAN_POINT('',(-0.025,-0.006,0.052));
#1333=CARTESIAN_POINT('',(-0.0178,-0.006,0.052));
#1334=CARTESIAN_POINT('',(-0.025,0.0126910112359551,0.));
#1335=CARTESIAN_POINT('',(-0.025,-0.006,0.));
#1336=CARTESIAN_POINT('',(-0.05,-0.006,0.));
#1337=CARTESIAN_POINT('',(-0.008998,0.0025,0.026));
#1338=CARTESIAN_POINT('',(-0.009,0.0025,0.026));
#1339=CARTESIAN_POINT('',(-0.009,0.0025,0.03));
#1340=CARTESIAN_POINT('',(-0.009,0.0025,0.022));
#1341=CARTESIAN_POINT('',(-0.008998,0.0025,0.022));
#1342=CARTESIAN_POINT('',(-0.008998,0.0025,0.03));
#1343=CARTESIAN_POINT('',(-0.008998,0.00575,0.03));
#1344=CARTESIAN_POINT('',(-0.008998,0.009,0.03));
#1345=CARTESIAN_POINT('',(-0.009,0.009,0.03));
#1346=CARTESIAN_POINT('',(-0.009,0.00575,0.03));
#1347=CARTESIAN_POINT('',(-0.008998,0.009,0.0385));
#1348=CARTESIAN_POINT('',(-0.008998,0.009,0.047));
#1349=CARTESIAN_POINT('',(-0.009,0.009,0.047));
#1350=CARTESIAN_POINT('',(-0.009,0.009,0.0385));
#1351=CARTESIAN_POINT('',(-0.008998,0.03,0.047));
#1352=CARTESIAN_POINT('',(-0.009,0.03,0.047));
#1353=CARTESIAN_POINT('',(-0.008998,0.00575,0.022));
#1354=CARTESIAN_POINT('',(-0.009,0.00575,0.022));
#1355=CARTESIAN_POINT('',(-0.009,0.009,0.022));
#1356=CARTESIAN_POINT('',(-0.008998,0.009,0.022));
#1357=CARTESIAN_POINT('',(-0.008998,0.03,0.005));
#1358=CARTESIAN_POINT('',(-0.008998,0.009,0.005));
#1359=CARTESIAN_POINT('',(-0.009,0.009,0.005));
#1360=CARTESIAN_POINT('',(-0.009,0.03,0.005));
#1361=CARTESIAN_POINT('',(-0.008998,0.009,0.0135));
#1362=CARTESIAN_POINT('',(-0.009,0.009,0.0135));
#1363=CARTESIAN_POINT('',(-0.009,0.051,0.052));
#1364=CARTESIAN_POINT('',(-0.009,0.0455,0.0105));
#1365=CARTESIAN_POINT('',(-0.009,0.0455,0.0088));
#1366=CARTESIAN_POINT('',(-0.009,0.0145,0.0105));
#1367=CARTESIAN_POINT('',(-0.009,0.0145,0.0088));
#1368=CARTESIAN_POINT('',(-0.009,0.0145,0.0415));
#1369=CARTESIAN_POINT('',(-0.009,0.0145,0.0398));
#1370=CARTESIAN_POINT('',(-0.009,0.0455,0.0415));
#1371=CARTESIAN_POINT('',(-0.009,0.0455,0.0398));
#1372=CARTESIAN_POINT('',(-0.009,0.03,0.026));
#1373=CARTESIAN_POINT('',(-0.009,0.03,0.01495));
#1374=CARTESIAN_POINT('',(-0.0068,0.04105,0.026));
#1375=CARTESIAN_POINT('',(-0.0068,0.03,0.026));
#1376=CARTESIAN_POINT('',(-0.0068,0.03,0.01495));
#1377=CARTESIAN_POINT('',(-0.009,0.03,0.026));
#1378=CARTESIAN_POINT('',(-0.009,0.0455,0.0415));
#1379=CARTESIAN_POINT('',(-0.009,0.0145,0.0415));
#1380=CARTESIAN_POINT('',(-0.009,0.0145,0.0105));
#1381=CARTESIAN_POINT('',(-0.009,0.0455,0.0105));
#1382=CARTESIAN_POINT('',(-0.004,0.03,0.026));
#1383=CARTESIAN_POINT('',(-0.004,0.0386458082328953,0.0235));
#1384=CARTESIAN_POINT('',(-0.004,0.0386458082328953,0.0235));
#1385=CARTESIAN_POINT('',(-0.004,0.03,0.026));
#1386=CARTESIAN_POINT('',(-0.004,0.0386458082328953,0.0285));
#1387=CARTESIAN_POINT('',(-0.004,0.0386458082328953,0.0285));
#1388=CARTESIAN_POINT('',(-0.004,0.0448229041164476,0.0235));
#1389=CARTESIAN_POINT('',(-0.004,0.0448229041164476,0.0235));
#1390=CARTESIAN_POINT('',(-0.004,0.0448229041164476,0.0285));
#1391=CARTESIAN_POINT('',(-0.004,0.0448229041164476,0.0285));
#1392=CARTESIAN_POINT('',(-0.004,0.0280872397124767,0.026));
#1393=CARTESIAN_POINT('',(-0.05,-0.01,0.035));
#1394=CARTESIAN_POINT('',(-0.0178,-0.01,0.035));
#1395=CARTESIAN_POINT('',(-0.0178,-0.01,0.03775));
#1396=CARTESIAN_POINT('',(-0.05,-0.01,0.017));
#1397=CARTESIAN_POINT('',(-0.0178,-0.01,0.017));
#1398=CARTESIAN_POINT('',(-0.0178,-0.01,0.01975));
#1399=CARTESIAN_POINT('',(-0.05,-0.01,0.035));
#1400=CARTESIAN_POINT('',(-0.047,-0.01,0.035));
#1401=CARTESIAN_POINT('',(-0.047,-0.01,0.03225));
#1402=CARTESIAN_POINT('',(-0.047,-0.005125,0.035));
#1403=CARTESIAN_POINT('',(-0.047,-0.01,0.035));
#1404=CARTESIAN_POINT('',(-0.047,-0.01,0.030125));
#1405=CARTESIAN_POINT('',(-0.05,-0.01,0.035));
#1406=CARTESIAN_POINT('',(-0.05,-0.01,0.017));
#1407=CARTESIAN_POINT('',(-0.047,-0.01,0.017));
#1408=CARTESIAN_POINT('',(-0.047,-0.01,0.01425));
#1409=CARTESIAN_POINT('',(-0.047,-0.005125,0.017));
#1410=CARTESIAN_POINT('',(-0.047,-0.01,0.017));
#1411=CARTESIAN_POINT('',(-0.047,-0.01,0.012125));
#1412=CARTESIAN_POINT('',(-0.05,-0.01,0.017));
#1413=CARTESIAN_POINT('',(-0.017802,-0.01,0.017));
#1414=CARTESIAN_POINT('',(-0.0178,-0.01,0.017));
#1415=CARTESIAN_POINT('',(-0.0178,-0.01,0.021875));
#1416=CARTESIAN_POINT('',(-0.0178,-0.02,0.));
#1417=CARTESIAN_POINT('',(-0.017802,-0.01,0.035));
#1418=CARTESIAN_POINT('',(-0.0178,-0.01,0.035));
#1419=CARTESIAN_POINT('',(-0.0178,-0.01,0.039875));
#1420=CARTESIAN_POINT('',(-0.0178,-0.02,0.));
#1421=CARTESIAN_POINT('',(-0.0203,-0.02,0.014));
#1422=CARTESIAN_POINT('',(-0.025,-0.006,0.));
#1423=CARTESIAN_POINT('',(-0.0465,-0.02,0.038));
#1424=CARTESIAN_POINT('',(-0.025,-0.006,0.052));
#1425=MECHANICAL_DESIGN_GEOMETRIC_PRESENTATION_REPRESENTATION('',(#864),
#1426);
#1426=(
GEOMETRIC_REPRESENTATION_CONTEXT(3)
GLOBAL_UNCERTAINTY_ASSIGNED_CONTEXT((#1427))
GLOBAL_UNIT_ASSIGNED_CONTEXT((#1430,#1429,#1428))
REPRESENTATION_CONTEXT('Mounting Bracket','TOP_LEVEL_ASSEMBLY_PART')
);
#1427=UNCERTAINTY_MEASURE_WITH_UNIT(LENGTH_MEASURE(1.E-8),#1430,
'DISTANCE_ACCURACY_VALUE','Maximum Tolerance applied to model');
#1428=(
NAMED_UNIT(*)
SI_UNIT($,.STERADIAN.)
SOLID_ANGLE_UNIT()
);
#1429=(
NAMED_UNIT(*)
PLANE_ANGLE_UNIT()
SI_UNIT($,.RADIAN.)
);
#1430=(
LENGTH_UNIT()
NAMED_UNIT(*)
SI_UNIT($,.METRE.)
);
#1431=PRODUCT_DEFINITION_SHAPE('','',#1432);
#1432=PRODUCT_DEFINITION('','',#1434,#1433);
#1433=PRODUCT_DEFINITION_CONTEXT('',#1440,'design');
#1434=PRODUCT_DEFINITION_FORMATION_WITH_SPECIFIED_SOURCE('','',#1436,
 .NOT_KNOWN.);
#1435=PRODUCT_RELATED_PRODUCT_CATEGORY('','',(#1436));
#1436=PRODUCT('Mounting Bracket','Mounting Bracket','Mounting Bracket',
(#1438));
#1437=PRODUCT_CATEGORY('','');
#1438=PRODUCT_CONTEXT('',#1440,'mechanical');
#1439=APPLICATION_PROTOCOL_DEFINITION('international standard',
'ap242_managed_model_based_3d_engineering',2011,#1440);
#1440=APPLICATION_CONTEXT('managed model based 3d engineering');
ENDSEC;
END-ISO-10303-21;
