ISO-10303-21;
HEADER;
/* Generated by software containing ST-Developer
 * from STEP Tools, Inc. (www.steptools.com) 
 */
/* OPTION: using custom renumber hook */

FILE_DESCRIPTION(
/* description */ ('STEP AP242',
'CAx-IF Rec.Pracs.---Representation and Presentation of Product Manufa
cturing Information (PMI)---4.0---2014-10-13',
'CAx-IF Rec.Pracs.---3D Tessellated Geometry---0.4---2014-09-14','2;1',
'CAx-IF Rec.Pracs.---User Defined Attributes---1.5---2016-08-15'),
/* implementation_level */ '2;1');

FILE_NAME(
/* name */ '69065e7aee2a6d5daf038ff8',
/* time_stamp */ '2025-11-01T19:24:43Z',
/* author */ (''),
/* organization */ (''),
/* preprocessor_version */ 'ST-DEVELOPER v20',
/* originating_system */ 'ONSHAPE BY PTC INC, 1.206',
/* authorisation */ '  ');

FILE_SCHEMA (('AP242_MANAGED_MODEL_BASED_3D_ENGINEERING_MIM_LF { 1 0 10303 442 1 1 4 }'));
ENDSEC;

DATA;
#10=SHAPE_REPRESENTATION_RELATIONSHIP('','',#1324,#11);
#11=ADVANCED_BREP_SHAPE_REPRESENTATION('',(#1322),#2224);
#12=VERTEX_LOOP('',#998);
#13=VERTEX_LOOP('',#1000);
#14=CONICAL_SURFACE('',#1396,0.003,1.02974425867665);
#15=CONICAL_SURFACE('',#1399,0.003,1.02974425867665);
#16=ELLIPSE('',#1346,0.155563491861041,0.11);
#17=ELLIPSE('',#1359,0.155563491861041,0.11);
#18=PLANE('',#1340);
#19=PLANE('',#1341);
#20=PLANE('',#1342);
#21=PLANE('',#1343);
#22=PLANE('',#1350);
#23=PLANE('',#1351);
#24=PLANE('',#1362);
#25=PLANE('',#1363);
#26=PLANE('',#1365);
#27=PLANE('',#1366);
#28=PLANE('',#1367);
#29=PLANE('',#1368);
#30=PLANE('',#1371);
#31=PLANE('',#1372);
#32=PLANE('',#1375);
#33=PLANE('',#1376);
#34=PLANE('',#1377);
#35=PLANE('',#1378);
#36=PLANE('',#1379);
#37=PLANE('',#1380);
#38=PLANE('',#1385);
#39=PLANE('',#1386);
#40=PLANE('',#1387);
#41=PLANE('',#1388);
#42=PLANE('',#1389);
#43=PLANE('',#1390);
#44=PLANE('',#1391);
#45=PLANE('',#1410);
#46=PLANE('',#1411);
#47=PLANE('',#1412);
#48=PLANE('',#1413);
#49=PLANE('',#1414);
#50=PLANE('',#1415);
#51=PLANE('',#1416);
#52=PLANE('',#1417);
#53=PLANE('',#1418);
#54=PLANE('',#1419);
#55=PLANE('',#1420);
#56=PLANE('',#1421);
#57=PLANE('',#1422);
#58=PLANE('',#1423);
#59=PLANE('',#1424);
#60=PLANE('',#1425);
#61=PLANE('',#1426);
#62=PLANE('',#1427);
#63=PLANE('',#1428);
#64=PLANE('',#1429);
#65=PLANE('',#1430);
#66=PLANE('',#1431);
#67=PLANE('',#1432);
#68=PLANE('',#1433);
#69=PLANE('',#1434);
#70=PLANE('',#1435);
#71=LINE('',#1873,#194);
#72=LINE('',#1877,#195);
#73=LINE('',#1881,#196);
#74=LINE('',#1885,#197);
#75=LINE('',#1906,#198);
#76=LINE('',#1908,#199);
#77=LINE('',#1911,#200);
#78=LINE('',#1913,#201);
#79=LINE('',#1915,#202);
#80=LINE('',#1917,#203);
#81=LINE('',#1919,#204);
#82=LINE('',#1921,#205);
#83=LINE('',#1923,#206);
#84=LINE('',#1925,#207);
#85=LINE('',#1928,#208);
#86=LINE('',#1930,#209);
#87=LINE('',#1932,#210);
#88=LINE('',#1934,#211);
#89=LINE('',#1937,#212);
#90=LINE('',#1939,#213);
#91=LINE('',#1941,#214);
#92=LINE('',#1943,#215);
#93=LINE('',#1945,#216);
#94=LINE('',#1946,#217);
#95=LINE('',#1948,#218);
#96=LINE('',#1950,#219);
#97=LINE('',#1952,#220);
#98=LINE('',#1954,#221);
#99=LINE('',#1967,#222);
#100=LINE('',#1970,#223);
#101=LINE('',#1972,#224);
#102=LINE('',#1973,#225);
#103=LINE('',#1975,#226);
#104=LINE('',#1977,#227);
#105=LINE('',#1979,#228);
#106=LINE('',#1981,#229);
#107=LINE('',#1991,#230);
#108=LINE('',#1994,#231);
#109=LINE('',#1996,#232);
#110=LINE('',#1998,#233);
#111=LINE('',#2000,#234);
#112=LINE('',#2001,#235);
#113=LINE('',#2005,#236);
#114=LINE('',#2006,#237);
#115=LINE('',#2008,#238);
#116=LINE('',#2010,#239);
#117=LINE('',#2011,#240);
#118=LINE('',#2024,#241);
#119=LINE('',#2026,#242);
#120=LINE('',#2028,#243);
#121=LINE('',#2032,#244);
#122=LINE('',#2034,#245);
#123=LINE('',#2036,#246);
#124=LINE('',#2038,#247);
#125=LINE('',#2046,#248);
#126=LINE('',#2048,#249);
#127=LINE('',#2050,#250);
#128=LINE('',#2053,#251);
#129=LINE('',#2054,#252);
#130=LINE('',#2056,#253);
#131=LINE('',#2058,#254);
#132=LINE('',#2060,#255);
#133=LINE('',#2062,#256);
#134=LINE('',#2064,#257);
#135=LINE('',#2067,#258);
#136=LINE('',#2069,#259);
#137=LINE('',#2071,#260);
#138=LINE('',#2073,#261);
#139=LINE('',#2075,#262);
#140=LINE('',#2085,#263);
#141=LINE('',#2088,#264);
#142=LINE('',#2090,#265);
#143=LINE('',#2092,#266);
#144=LINE('',#2093,#267);
#145=LINE('',#2096,#268);
#146=LINE('',#2097,#269);
#147=LINE('',#2098,#270);
#148=LINE('',#2099,#271);
#149=LINE('',#2101,#272);
#150=LINE('',#2103,#273);
#151=LINE('',#2105,#274);
#152=LINE('',#2107,#275);
#153=LINE('',#2109,#276);
#154=LINE('',#2111,#277);
#155=LINE('',#2113,#278);
#156=LINE('',#2144,#279);
#157=LINE('',#2146,#280);
#158=LINE('',#2148,#281);
#159=LINE('',#2150,#282);
#160=LINE('',#2152,#283);
#161=LINE('',#2154,#284);
#162=LINE('',#2156,#285);
#163=LINE('',#2158,#286);
#164=LINE('',#2161,#287);
#165=LINE('',#2163,#288);
#166=LINE('',#2165,#289);
#167=LINE('',#2167,#290);
#168=LINE('',#2169,#291);
#169=LINE('',#2171,#292);
#170=LINE('',#2173,#293);
#171=LINE('',#2175,#294);
#172=LINE('',#2178,#295);
#173=LINE('',#2180,#296);
#174=LINE('',#2182,#297);
#175=LINE('',#2184,#298);
#176=LINE('',#2186,#299);
#177=LINE('',#2188,#300);
#178=LINE('',#2190,#301);
#179=LINE('',#2192,#302);
#180=LINE('',#2195,#303);
#181=LINE('',#2197,#304);
#182=LINE('',#2199,#305);
#183=LINE('',#2201,#306);
#184=LINE('',#2203,#307);
#185=LINE('',#2205,#308);
#186=LINE('',#2207,#309);
#187=LINE('',#2209,#310);
#188=LINE('',#2212,#311);
#189=LINE('',#2213,#312);
#190=LINE('',#2215,#313);
#191=LINE('',#2217,#314);
#192=LINE('',#2219,#315);
#193=LINE('',#2221,#316);
#194=VECTOR('',#1456,1.);
#195=VECTOR('',#1459,1.);
#196=VECTOR('',#1462,1.);
#197=VECTOR('',#1465,1.);
#198=VECTOR('',#1470,1.);
#199=VECTOR('',#1473,1.);
#200=VECTOR('',#1474,1.);
#201=VECTOR('',#1475,1.);
#202=VECTOR('',#1476,1.);
#203=VECTOR('',#1477,1.);
#204=VECTOR('',#1478,1.);
#205=VECTOR('',#1479,1.);
#206=VECTOR('',#1480,1.);
#207=VECTOR('',#1483,1.);
#208=VECTOR('',#1484,1.);
#209=VECTOR('',#1485,1.);
#210=VECTOR('',#1486,1.);
#211=VECTOR('',#1489,1.);
#212=VECTOR('',#1490,1.);
#213=VECTOR('',#1491,1.);
#214=VECTOR('',#1492,1.);
#215=VECTOR('',#1495,1.);
#216=VECTOR('',#1496,1.);
#217=VECTOR('',#1497,1.);
#218=VECTOR('',#1498,1.);
#219=VECTOR('',#1499,1.);
#220=VECTOR('',#1500,1.);
#221=VECTOR('',#1501,1.);
#222=VECTOR('',#1512,1.);
#223=VECTOR('',#1517,1.);
#224=VECTOR('',#1518,1.);
#225=VECTOR('',#1519,1.);
#226=VECTOR('',#1520,1.);
#227=VECTOR('',#1521,1.);
#228=VECTOR('',#1522,1.);
#229=VECTOR('',#1523,1.);
#230=VECTOR('',#1534,1.);
#231=VECTOR('',#1535,1.);
#232=VECTOR('',#1536,1.);
#233=VECTOR('',#1537,1.);
#234=VECTOR('',#1538,1.);
#235=VECTOR('',#1539,1.);
#236=VECTOR('',#1542,1.);
#237=VECTOR('',#1543,1.);
#238=VECTOR('',#1544,1.);
#239=VECTOR('',#1547,1.);
#240=VECTOR('',#1548,1.);
#241=VECTOR('',#1559,1.);
#242=VECTOR('',#1562,1.);
#243=VECTOR('',#1565,1.);
#244=VECTOR('',#1572,1.);
#245=VECTOR('',#1573,1.);
#246=VECTOR('',#1576,1.);
#247=VECTOR('',#1577,1.);
#248=VECTOR('',#1592,1.);
#249=VECTOR('',#1595,1.);
#250=VECTOR('',#1598,1.);
#251=VECTOR('',#1599,1.);
#252=VECTOR('',#1600,1.);
#253=VECTOR('',#1603,1.);
#254=VECTOR('',#1606,1.);
#255=VECTOR('',#1607,1.);
#256=VECTOR('',#1608,1.);
#257=VECTOR('',#1611,1.);
#258=VECTOR('',#1612,1.);
#259=VECTOR('',#1613,1.);
#260=VECTOR('',#1614,1.);
#261=VECTOR('',#1615,1.);
#262=VECTOR('',#1616,1.);
#263=VECTOR('',#1627,1.);
#264=VECTOR('',#1628,1.);
#265=VECTOR('',#1629,1.);
#266=VECTOR('',#1630,1.);
#267=VECTOR('',#1631,1.);
#268=VECTOR('',#1632,1.);
#269=VECTOR('',#1633,1.);
#270=VECTOR('',#1634,1.);
#271=VECTOR('',#1635,1.);
#272=VECTOR('',#1638,1.);
#273=VECTOR('',#1641,1.);
#274=VECTOR('',#1644,1.);
#275=VECTOR('',#1645,1.);
#276=VECTOR('',#1648,1.);
#277=VECTOR('',#1649,1.);
#278=VECTOR('',#1652,1.);
#279=VECTOR('',#1693,1.);
#280=VECTOR('',#1694,1.);
#281=VECTOR('',#1695,1.);
#282=VECTOR('',#1698,1.);
#283=VECTOR('',#1699,1.);
#284=VECTOR('',#1702,1.);
#285=VECTOR('',#1703,1.);
#286=VECTOR('',#1706,1.);
#287=VECTOR('',#1711,1.);
#288=VECTOR('',#1712,1.);
#289=VECTOR('',#1713,1.);
#290=VECTOR('',#1716,1.);
#291=VECTOR('',#1717,1.);
#292=VECTOR('',#1720,1.);
#293=VECTOR('',#1721,1.);
#294=VECTOR('',#1724,1.);
#295=VECTOR('',#1729,1.);
#296=VECTOR('',#1730,1.);
#297=VECTOR('',#1731,1.);
#298=VECTOR('',#1734,1.);
#299=VECTOR('',#1735,1.);
#300=VECTOR('',#1738,1.);
#301=VECTOR('',#1739,1.);
#302=VECTOR('',#1742,1.);
#303=VECTOR('',#1747,1.);
#304=VECTOR('',#1748,1.);
#305=VECTOR('',#1749,1.);
#306=VECTOR('',#1752,1.);
#307=VECTOR('',#1753,1.);
#308=VECTOR('',#1756,1.);
#309=VECTOR('',#1757,1.);
#310=VECTOR('',#1760,1.);
#311=VECTOR('',#1765,1.);
#312=VECTOR('',#1766,1.);
#313=VECTOR('',#1769,1.);
#314=VECTOR('',#1772,1.);
#315=VECTOR('',#1775,1.);
#316=VECTOR('',#1778,1.);
#317=CYLINDRICAL_SURFACE('',#1333,0.118);
#318=CYLINDRICAL_SURFACE('',#1344,0.11);
#319=CYLINDRICAL_SURFACE('',#1348,0.02295);
#320=CYLINDRICAL_SURFACE('',#1349,0.02295);
#321=CYLINDRICAL_SURFACE('',#1357,0.01995);
#322=CYLINDRICAL_SURFACE('',#1358,0.11);
#323=CYLINDRICAL_SURFACE('',#1364,0.02295);
#324=CYLINDRICAL_SURFACE('',#1369,0.118);
#325=CYLINDRICAL_SURFACE('',#1374,0.118);
#326=CYLINDRICAL_SURFACE('',#1394,0.0022);
#327=CYLINDRICAL_SURFACE('',#1395,0.0022);
#328=CYLINDRICAL_SURFACE('',#1398,0.003);
#329=CYLINDRICAL_SURFACE('',#1401,0.003);
#330=CYLINDRICAL_SURFACE('',#1402,0.0021);
#331=CYLINDRICAL_SURFACE('',#1404,0.0021);
#332=CYLINDRICAL_SURFACE('',#1406,0.0021);
#333=CYLINDRICAL_SURFACE('',#1408,0.0021);
#334=CIRCLE('',#1327,0.0229476584563489);
#335=CIRCLE('',#1328,0.0220940089660958);
#336=CIRCLE('',#1329,0.02295);
#337=CIRCLE('',#1330,0.02295);
#338=CIRCLE('',#1331,0.01995);
#339=CIRCLE('',#1332,0.02295);
#340=CIRCLE('',#1334,0.118);
#341=CIRCLE('',#1335,0.118);
#342=CIRCLE('',#1336,0.118);
#343=CIRCLE('',#1337,0.118);
#344=CIRCLE('',#1338,0.118);
#345=CIRCLE('',#1339,0.118);
#346=CIRCLE('',#1345,0.11);
#347=CIRCLE('',#1347,0.11);
#348=CIRCLE('',#1352,0.003);
#349=CIRCLE('',#1353,0.003);
#350=CIRCLE('',#1354,0.0022);
#351=CIRCLE('',#1355,0.0022);
#352=CIRCLE('',#1356,0.01995);
#353=CIRCLE('',#1360,0.11);
#354=CIRCLE('',#1361,0.11);
#355=CIRCLE('',#1370,0.118);
#356=CIRCLE('',#1373,0.118);
#357=CIRCLE('',#1381,0.0021);
#358=CIRCLE('',#1382,0.0021);
#359=CIRCLE('',#1383,0.0021);
#360=CIRCLE('',#1384,0.0021);
#361=CIRCLE('',#1392,0.0022);
#362=CIRCLE('',#1393,0.0022);
#363=CIRCLE('',#1397,0.003);
#364=CIRCLE('',#1400,0.003);
#365=CIRCLE('',#1403,0.0021);
#366=CIRCLE('',#1405,0.0021);
#367=CIRCLE('',#1407,0.0021);
#368=CIRCLE('',#1409,0.0021);
#369=ORIENTED_EDGE('',*,*,#723,.T.);
#370=ORIENTED_EDGE('',*,*,#724,.T.);
#371=ORIENTED_EDGE('',*,*,#725,.F.);
#372=ORIENTED_EDGE('',*,*,#726,.F.);
#373=ORIENTED_EDGE('',*,*,#727,.F.);
#374=ORIENTED_EDGE('',*,*,#728,.F.);
#375=ORIENTED_EDGE('',*,*,#729,.T.);
#376=ORIENTED_EDGE('',*,*,#730,.F.);
#377=ORIENTED_EDGE('',*,*,#731,.T.);
#378=ORIENTED_EDGE('',*,*,#732,.T.);
#379=ORIENTED_EDGE('',*,*,#733,.T.);
#380=ORIENTED_EDGE('',*,*,#734,.F.);
#381=ORIENTED_EDGE('',*,*,#735,.F.);
#382=ORIENTED_EDGE('',*,*,#736,.F.);
#383=ORIENTED_EDGE('',*,*,#737,.F.);
#384=ORIENTED_EDGE('',*,*,#738,.T.);
#385=ORIENTED_EDGE('',*,*,#739,.F.);
#386=ORIENTED_EDGE('',*,*,#740,.F.);
#387=ORIENTED_EDGE('',*,*,#741,.F.);
#388=ORIENTED_EDGE('',*,*,#742,.T.);
#389=ORIENTED_EDGE('',*,*,#743,.F.);
#390=ORIENTED_EDGE('',*,*,#744,.T.);
#391=ORIENTED_EDGE('',*,*,#745,.T.);
#392=ORIENTED_EDGE('',*,*,#746,.F.);
#393=ORIENTED_EDGE('',*,*,#747,.F.);
#394=ORIENTED_EDGE('',*,*,#748,.T.);
#395=ORIENTED_EDGE('',*,*,#749,.T.);
#396=ORIENTED_EDGE('',*,*,#750,.F.);
#397=ORIENTED_EDGE('',*,*,#751,.T.);
#398=ORIENTED_EDGE('',*,*,#730,.T.);
#399=ORIENTED_EDGE('',*,*,#752,.F.);
#400=ORIENTED_EDGE('',*,*,#728,.T.);
#401=ORIENTED_EDGE('',*,*,#753,.F.);
#402=ORIENTED_EDGE('',*,*,#754,.F.);
#403=ORIENTED_EDGE('',*,*,#755,.T.);
#404=ORIENTED_EDGE('',*,*,#756,.T.);
#405=ORIENTED_EDGE('',*,*,#757,.T.);
#406=ORIENTED_EDGE('',*,*,#758,.T.);
#407=ORIENTED_EDGE('',*,*,#759,.T.);
#408=ORIENTED_EDGE('',*,*,#760,.T.);
#409=ORIENTED_EDGE('',*,*,#761,.F.);
#410=ORIENTED_EDGE('',*,*,#762,.T.);
#411=ORIENTED_EDGE('',*,*,#763,.F.);
#412=ORIENTED_EDGE('',*,*,#764,.T.);
#413=ORIENTED_EDGE('',*,*,#765,.T.);
#414=ORIENTED_EDGE('',*,*,#766,.F.);
#415=ORIENTED_EDGE('',*,*,#767,.F.);
#416=ORIENTED_EDGE('',*,*,#768,.T.);
#417=ORIENTED_EDGE('',*,*,#769,.T.);
#418=ORIENTED_EDGE('',*,*,#770,.F.);
#419=ORIENTED_EDGE('',*,*,#771,.F.);
#420=ORIENTED_EDGE('',*,*,#772,.F.);
#421=ORIENTED_EDGE('',*,*,#739,.T.);
#422=ORIENTED_EDGE('',*,*,#773,.T.);
#423=ORIENTED_EDGE('',*,*,#774,.T.);
#424=ORIENTED_EDGE('',*,*,#775,.T.);
#425=ORIENTED_EDGE('',*,*,#776,.F.);
#426=ORIENTED_EDGE('',*,*,#777,.F.);
#427=ORIENTED_EDGE('',*,*,#778,.F.);
#428=ORIENTED_EDGE('',*,*,#779,.T.);
#429=ORIENTED_EDGE('',*,*,#769,.F.);
#430=ORIENTED_EDGE('',*,*,#780,.T.);
#431=ORIENTED_EDGE('',*,*,#781,.T.);
#432=ORIENTED_EDGE('',*,*,#776,.T.);
#433=ORIENTED_EDGE('',*,*,#781,.F.);
#434=ORIENTED_EDGE('',*,*,#782,.T.);
#435=ORIENTED_EDGE('',*,*,#742,.F.);
#436=ORIENTED_EDGE('',*,*,#777,.T.);
#437=ORIENTED_EDGE('',*,*,#729,.F.);
#438=ORIENTED_EDGE('',*,*,#752,.T.);
#439=ORIENTED_EDGE('',*,*,#783,.F.);
#440=ORIENTED_EDGE('',*,*,#784,.T.);
#441=ORIENTED_EDGE('',*,*,#785,.F.);
#442=ORIENTED_EDGE('',*,*,#786,.F.);
#443=ORIENTED_EDGE('',*,*,#787,.F.);
#444=ORIENTED_EDGE('',*,*,#788,.T.);
#445=ORIENTED_EDGE('',*,*,#789,.F.);
#446=ORIENTED_EDGE('',*,*,#735,.T.);
#447=ORIENTED_EDGE('',*,*,#790,.T.);
#448=ORIENTED_EDGE('',*,*,#791,.T.);
#449=ORIENTED_EDGE('',*,*,#792,.T.);
#450=ORIENTED_EDGE('',*,*,#793,.T.);
#451=ORIENTED_EDGE('',*,*,#794,.F.);
#452=ORIENTED_EDGE('',*,*,#795,.T.);
#453=ORIENTED_EDGE('',*,*,#796,.T.);
#454=ORIENTED_EDGE('',*,*,#797,.T.);
#455=ORIENTED_EDGE('',*,*,#798,.F.);
#456=ORIENTED_EDGE('',*,*,#774,.F.);
#457=ORIENTED_EDGE('',*,*,#799,.F.);
#458=ORIENTED_EDGE('',*,*,#800,.T.);
#459=ORIENTED_EDGE('',*,*,#801,.T.);
#460=ORIENTED_EDGE('',*,*,#788,.F.);
#461=ORIENTED_EDGE('',*,*,#802,.T.);
#462=ORIENTED_EDGE('',*,*,#803,.T.);
#463=ORIENTED_EDGE('',*,*,#737,.T.);
#464=ORIENTED_EDGE('',*,*,#804,.T.);
#465=ORIENTED_EDGE('',*,*,#800,.F.);
#466=ORIENTED_EDGE('',*,*,#805,.F.);
#467=ORIENTED_EDGE('',*,*,#765,.F.);
#468=ORIENTED_EDGE('',*,*,#806,.T.);
#469=ORIENTED_EDGE('',*,*,#807,.T.);
#470=ORIENTED_EDGE('',*,*,#786,.T.);
#471=ORIENTED_EDGE('',*,*,#808,.T.);
#472=ORIENTED_EDGE('',*,*,#809,.F.);
#473=ORIENTED_EDGE('',*,*,#807,.F.);
#474=ORIENTED_EDGE('',*,*,#810,.T.);
#475=ORIENTED_EDGE('',*,*,#802,.F.);
#476=ORIENTED_EDGE('',*,*,#787,.T.);
#477=ORIENTED_EDGE('',*,*,#798,.T.);
#478=ORIENTED_EDGE('',*,*,#811,.T.);
#479=ORIENTED_EDGE('',*,*,#778,.T.);
#480=ORIENTED_EDGE('',*,*,#775,.F.);
#481=ORIENTED_EDGE('',*,*,#812,.F.);
#482=ORIENTED_EDGE('',*,*,#808,.F.);
#483=ORIENTED_EDGE('',*,*,#785,.T.);
#484=ORIENTED_EDGE('',*,*,#732,.F.);
#485=ORIENTED_EDGE('',*,*,#805,.T.);
#486=ORIENTED_EDGE('',*,*,#799,.T.);
#487=ORIENTED_EDGE('',*,*,#773,.F.);
#488=ORIENTED_EDGE('',*,*,#738,.F.);
#489=ORIENTED_EDGE('',*,*,#736,.T.);
#490=ORIENTED_EDGE('',*,*,#789,.T.);
#491=ORIENTED_EDGE('',*,*,#801,.F.);
#492=ORIENTED_EDGE('',*,*,#804,.F.);
#493=ORIENTED_EDGE('',*,*,#753,.T.);
#494=ORIENTED_EDGE('',*,*,#727,.T.);
#495=ORIENTED_EDGE('',*,*,#782,.F.);
#496=ORIENTED_EDGE('',*,*,#780,.F.);
#497=ORIENTED_EDGE('',*,*,#768,.F.);
#498=ORIENTED_EDGE('',*,*,#813,.F.);
#499=ORIENTED_EDGE('',*,*,#814,.T.);
#500=ORIENTED_EDGE('',*,*,#751,.F.);
#501=ORIENTED_EDGE('',*,*,#815,.F.);
#502=ORIENTED_EDGE('',*,*,#816,.T.);
#503=ORIENTED_EDGE('',*,*,#766,.T.);
#504=ORIENTED_EDGE('',*,*,#809,.T.);
#505=ORIENTED_EDGE('',*,*,#812,.T.);
#506=ORIENTED_EDGE('',*,*,#731,.F.);
#507=ORIENTED_EDGE('',*,*,#740,.T.);
#508=ORIENTED_EDGE('',*,*,#772,.T.);
#509=ORIENTED_EDGE('',*,*,#817,.F.);
#510=ORIENTED_EDGE('',*,*,#741,.T.);
#511=ORIENTED_EDGE('',*,*,#817,.T.);
#512=ORIENTED_EDGE('',*,*,#771,.T.);
#513=ORIENTED_EDGE('',*,*,#818,.F.);
#514=ORIENTED_EDGE('',*,*,#733,.F.);
#515=ORIENTED_EDGE('',*,*,#784,.F.);
#516=ORIENTED_EDGE('',*,*,#783,.T.);
#517=ORIENTED_EDGE('',*,*,#734,.T.);
#518=ORIENTED_EDGE('',*,*,#818,.T.);
#519=ORIENTED_EDGE('',*,*,#803,.F.);
#520=ORIENTED_EDGE('',*,*,#810,.F.);
#521=ORIENTED_EDGE('',*,*,#806,.F.);
#522=ORIENTED_EDGE('',*,*,#819,.F.);
#523=ORIENTED_EDGE('',*,*,#797,.F.);
#524=ORIENTED_EDGE('',*,*,#820,.F.);
#525=ORIENTED_EDGE('',*,*,#779,.F.);
#526=ORIENTED_EDGE('',*,*,#811,.F.);
#527=ORIENTED_EDGE('',*,*,#821,.T.);
#528=ORIENTED_EDGE('',*,*,#822,.T.);
#529=ORIENTED_EDGE('',*,*,#794,.T.);
#530=ORIENTED_EDGE('',*,*,#819,.T.);
#531=ORIENTED_EDGE('',*,*,#764,.F.);
#532=ORIENTED_EDGE('',*,*,#823,.F.);
#533=ORIENTED_EDGE('',*,*,#754,.T.);
#534=ORIENTED_EDGE('',*,*,#814,.F.);
#535=ORIENTED_EDGE('',*,*,#824,.F.);
#536=ORIENTED_EDGE('',*,*,#815,.T.);
#537=ORIENTED_EDGE('',*,*,#796,.F.);
#538=ORIENTED_EDGE('',*,*,#825,.T.);
#539=ORIENTED_EDGE('',*,*,#826,.T.);
#540=ORIENTED_EDGE('',*,*,#827,.T.);
#541=ORIENTED_EDGE('',*,*,#770,.T.);
#542=ORIENTED_EDGE('',*,*,#820,.T.);
#543=ORIENTED_EDGE('',*,*,#828,.T.);
#544=ORIENTED_EDGE('',*,*,#829,.T.);
#545=ORIENTED_EDGE('',*,*,#830,.T.);
#546=ORIENTED_EDGE('',*,*,#831,.T.);
#547=ORIENTED_EDGE('',*,*,#832,.T.);
#548=ORIENTED_EDGE('',*,*,#833,.T.);
#549=ORIENTED_EDGE('',*,*,#834,.T.);
#550=ORIENTED_EDGE('',*,*,#835,.T.);
#551=ORIENTED_EDGE('',*,*,#836,.T.);
#552=ORIENTED_EDGE('',*,*,#837,.T.);
#553=ORIENTED_EDGE('',*,*,#838,.T.);
#554=ORIENTED_EDGE('',*,*,#839,.T.);
#555=ORIENTED_EDGE('',*,*,#840,.F.);
#556=ORIENTED_EDGE('',*,*,#841,.F.);
#557=ORIENTED_EDGE('',*,*,#842,.F.);
#558=ORIENTED_EDGE('',*,*,#843,.T.);
#559=ORIENTED_EDGE('',*,*,#758,.F.);
#560=ORIENTED_EDGE('',*,*,#844,.T.);
#561=ORIENTED_EDGE('',*,*,#823,.T.);
#562=ORIENTED_EDGE('',*,*,#763,.T.);
#563=ORIENTED_EDGE('',*,*,#816,.F.);
#564=ORIENTED_EDGE('',*,*,#824,.T.);
#565=ORIENTED_EDGE('',*,*,#813,.T.);
#566=ORIENTED_EDGE('',*,*,#767,.T.);
#567=ORIENTED_EDGE('',*,*,#827,.F.);
#568=ORIENTED_EDGE('',*,*,#845,.T.);
#569=ORIENTED_EDGE('',*,*,#762,.F.);
#570=ORIENTED_EDGE('',*,*,#846,.F.);
#571=ORIENTED_EDGE('',*,*,#826,.F.);
#572=ORIENTED_EDGE('',*,*,#847,.T.);
#573=ORIENTED_EDGE('',*,*,#755,.F.);
#574=ORIENTED_EDGE('',*,*,#845,.F.);
#575=ORIENTED_EDGE('',*,*,#757,.F.);
#576=ORIENTED_EDGE('',*,*,#848,.T.);
#577=ORIENTED_EDGE('',*,*,#821,.F.);
#578=ORIENTED_EDGE('',*,*,#844,.F.);
#579=ORIENTED_EDGE('',*,*,#759,.F.);
#580=ORIENTED_EDGE('',*,*,#843,.F.);
#581=ORIENTED_EDGE('',*,*,#849,.T.);
#582=ORIENTED_EDGE('',*,*,#850,.T.);
#583=ORIENTED_EDGE('',*,*,#761,.T.);
#584=ORIENTED_EDGE('',*,*,#851,.F.);
#585=ORIENTED_EDGE('',*,*,#852,.F.);
#586=ORIENTED_EDGE('',*,*,#846,.T.);
#587=ORIENTED_EDGE('',*,*,#760,.F.);
#588=ORIENTED_EDGE('',*,*,#850,.F.);
#589=ORIENTED_EDGE('',*,*,#853,.T.);
#590=ORIENTED_EDGE('',*,*,#851,.T.);
#591=ORIENTED_EDGE('',*,*,#854,.T.);
#592=ORIENTED_EDGE('',*,*,#855,.T.);
#593=ORIENTED_EDGE('',*,*,#849,.F.);
#594=ORIENTED_EDGE('',*,*,#842,.T.);
#595=ORIENTED_EDGE('',*,*,#852,.T.);
#596=ORIENTED_EDGE('',*,*,#853,.F.);
#597=ORIENTED_EDGE('',*,*,#793,.F.);
#598=ORIENTED_EDGE('',*,*,#855,.F.);
#599=ORIENTED_EDGE('',*,*,#792,.F.);
#600=ORIENTED_EDGE('',*,*,#854,.F.);
#601=ORIENTED_EDGE('',*,*,#856,.F.);
#602=ORIENTED_EDGE('',*,*,#856,.T.);
#603=ORIENTED_EDGE('',*,*,#791,.F.);
#604=ORIENTED_EDGE('',*,*,#857,.F.);
#605=ORIENTED_EDGE('',*,*,#857,.T.);
#606=ORIENTED_EDGE('',*,*,#790,.F.);
#607=ORIENTED_EDGE('',*,*,#858,.F.);
#608=ORIENTED_EDGE('',*,*,#837,.F.);
#609=ORIENTED_EDGE('',*,*,#859,.F.);
#610=ORIENTED_EDGE('',*,*,#836,.F.);
#611=ORIENTED_EDGE('',*,*,#860,.F.);
#612=ORIENTED_EDGE('',*,*,#835,.F.);
#613=ORIENTED_EDGE('',*,*,#861,.F.);
#614=ORIENTED_EDGE('',*,*,#834,.F.);
#615=ORIENTED_EDGE('',*,*,#862,.F.);
#616=ORIENTED_EDGE('',*,*,#863,.F.);
#617=ORIENTED_EDGE('',*,*,#864,.T.);
#618=ORIENTED_EDGE('',*,*,#724,.F.);
#619=ORIENTED_EDGE('',*,*,#725,.T.);
#620=ORIENTED_EDGE('',*,*,#864,.F.);
#621=ORIENTED_EDGE('',*,*,#865,.T.);
#622=ORIENTED_EDGE('',*,*,#866,.T.);
#623=ORIENTED_EDGE('',*,*,#726,.T.);
#624=ORIENTED_EDGE('',*,*,#866,.F.);
#625=ORIENTED_EDGE('',*,*,#867,.T.);
#626=ORIENTED_EDGE('',*,*,#868,.T.);
#627=ORIENTED_EDGE('',*,*,#868,.F.);
#628=ORIENTED_EDGE('',*,*,#869,.F.);
#629=ORIENTED_EDGE('',*,*,#862,.T.);
#630=ORIENTED_EDGE('',*,*,#723,.F.);
#631=ORIENTED_EDGE('',*,*,#861,.T.);
#632=ORIENTED_EDGE('',*,*,#863,.T.);
#633=ORIENTED_EDGE('',*,*,#869,.T.);
#634=ORIENTED_EDGE('',*,*,#867,.F.);
#635=ORIENTED_EDGE('',*,*,#865,.F.);
#636=ORIENTED_EDGE('',*,*,#747,.T.);
#637=ORIENTED_EDGE('',*,*,#870,.F.);
#638=ORIENTED_EDGE('',*,*,#871,.F.);
#639=ORIENTED_EDGE('',*,*,#872,.T.);
#640=ORIENTED_EDGE('',*,*,#872,.F.);
#641=ORIENTED_EDGE('',*,*,#873,.T.);
#642=ORIENTED_EDGE('',*,*,#874,.T.);
#643=ORIENTED_EDGE('',*,*,#748,.F.);
#644=ORIENTED_EDGE('',*,*,#874,.F.);
#645=ORIENTED_EDGE('',*,*,#875,.T.);
#646=ORIENTED_EDGE('',*,*,#876,.T.);
#647=ORIENTED_EDGE('',*,*,#749,.F.);
#648=ORIENTED_EDGE('',*,*,#750,.T.);
#649=ORIENTED_EDGE('',*,*,#876,.F.);
#650=ORIENTED_EDGE('',*,*,#877,.F.);
#651=ORIENTED_EDGE('',*,*,#870,.T.);
#652=ORIENTED_EDGE('',*,*,#860,.T.);
#653=ORIENTED_EDGE('',*,*,#871,.T.);
#654=ORIENTED_EDGE('',*,*,#877,.T.);
#655=ORIENTED_EDGE('',*,*,#875,.F.);
#656=ORIENTED_EDGE('',*,*,#873,.F.);
#657=ORIENTED_EDGE('',*,*,#743,.T.);
#658=ORIENTED_EDGE('',*,*,#878,.F.);
#659=ORIENTED_EDGE('',*,*,#879,.F.);
#660=ORIENTED_EDGE('',*,*,#880,.T.);
#661=ORIENTED_EDGE('',*,*,#880,.F.);
#662=ORIENTED_EDGE('',*,*,#881,.T.);
#663=ORIENTED_EDGE('',*,*,#882,.T.);
#664=ORIENTED_EDGE('',*,*,#744,.F.);
#665=ORIENTED_EDGE('',*,*,#882,.F.);
#666=ORIENTED_EDGE('',*,*,#883,.T.);
#667=ORIENTED_EDGE('',*,*,#884,.T.);
#668=ORIENTED_EDGE('',*,*,#745,.F.);
#669=ORIENTED_EDGE('',*,*,#746,.T.);
#670=ORIENTED_EDGE('',*,*,#884,.F.);
#671=ORIENTED_EDGE('',*,*,#885,.F.);
#672=ORIENTED_EDGE('',*,*,#878,.T.);
#673=ORIENTED_EDGE('',*,*,#859,.T.);
#674=ORIENTED_EDGE('',*,*,#879,.T.);
#675=ORIENTED_EDGE('',*,*,#885,.T.);
#676=ORIENTED_EDGE('',*,*,#883,.F.);
#677=ORIENTED_EDGE('',*,*,#881,.F.);
#678=ORIENTED_EDGE('',*,*,#886,.F.);
#679=ORIENTED_EDGE('',*,*,#887,.F.);
#680=ORIENTED_EDGE('',*,*,#888,.T.);
#681=ORIENTED_EDGE('',*,*,#839,.F.);
#682=ORIENTED_EDGE('',*,*,#840,.T.);
#683=ORIENTED_EDGE('',*,*,#888,.F.);
#684=ORIENTED_EDGE('',*,*,#889,.T.);
#685=ORIENTED_EDGE('',*,*,#890,.T.);
#686=ORIENTED_EDGE('',*,*,#841,.T.);
#687=ORIENTED_EDGE('',*,*,#890,.F.);
#688=ORIENTED_EDGE('',*,*,#891,.T.);
#689=ORIENTED_EDGE('',*,*,#892,.T.);
#690=ORIENTED_EDGE('',*,*,#892,.F.);
#691=ORIENTED_EDGE('',*,*,#893,.F.);
#692=ORIENTED_EDGE('',*,*,#886,.T.);
#693=ORIENTED_EDGE('',*,*,#838,.F.);
#694=ORIENTED_EDGE('',*,*,#858,.T.);
#695=ORIENTED_EDGE('',*,*,#887,.T.);
#696=ORIENTED_EDGE('',*,*,#893,.T.);
#697=ORIENTED_EDGE('',*,*,#891,.F.);
#698=ORIENTED_EDGE('',*,*,#889,.F.);
#699=ORIENTED_EDGE('',*,*,#894,.F.);
#700=ORIENTED_EDGE('',*,*,#848,.F.);
#701=ORIENTED_EDGE('',*,*,#895,.F.);
#702=ORIENTED_EDGE('',*,*,#832,.F.);
#703=ORIENTED_EDGE('',*,*,#895,.T.);
#704=ORIENTED_EDGE('',*,*,#756,.F.);
#705=ORIENTED_EDGE('',*,*,#896,.F.);
#706=ORIENTED_EDGE('',*,*,#833,.F.);
#707=ORIENTED_EDGE('',*,*,#894,.T.);
#708=ORIENTED_EDGE('',*,*,#831,.F.);
#709=ORIENTED_EDGE('',*,*,#897,.F.);
#710=ORIENTED_EDGE('',*,*,#822,.F.);
#711=ORIENTED_EDGE('',*,*,#896,.T.);
#712=ORIENTED_EDGE('',*,*,#847,.F.);
#713=ORIENTED_EDGE('',*,*,#898,.F.);
#714=ORIENTED_EDGE('',*,*,#828,.F.);
#715=ORIENTED_EDGE('',*,*,#897,.T.);
#716=ORIENTED_EDGE('',*,*,#830,.F.);
#717=ORIENTED_EDGE('',*,*,#899,.F.);
#718=ORIENTED_EDGE('',*,*,#795,.F.);
#719=ORIENTED_EDGE('',*,*,#898,.T.);
#720=ORIENTED_EDGE('',*,*,#825,.F.);
#721=ORIENTED_EDGE('',*,*,#899,.T.);
#722=ORIENTED_EDGE('',*,*,#829,.F.);
#723=EDGE_CURVE('',#900,#901,#1022,.T.);
#724=EDGE_CURVE('',#901,#902,#334,.F.);
#725=EDGE_CURVE('',#903,#902,#1023,.T.);
#726=EDGE_CURVE('',#900,#903,#335,.F.);
#727=EDGE_CURVE('',#904,#905,#1024,.T.);
#728=EDGE_CURVE('',#906,#904,#1025,.T.);
#729=EDGE_CURVE('',#906,#907,#336,.T.);
#730=EDGE_CURVE('',#908,#907,#1026,.T.);
#731=EDGE_CURVE('',#908,#909,#1027,.T.);
#732=EDGE_CURVE('',#909,#910,#337,.T.);
#733=EDGE_CURVE('',#910,#911,#1028,.T.);
#734=EDGE_CURVE('',#912,#911,#1029,.T.);
#735=EDGE_CURVE('',#913,#912,#1030,.T.);
#736=EDGE_CURVE('',#914,#913,#1031,.T.);
#737=EDGE_CURVE('',#915,#914,#338,.T.);
#738=EDGE_CURVE('',#915,#916,#1032,.T.);
#739=EDGE_CURVE('',#917,#916,#1033,.T.);
#740=EDGE_CURVE('',#918,#917,#1034,.T.);
#741=EDGE_CURVE('',#919,#918,#1035,.T.);
#742=EDGE_CURVE('',#919,#905,#339,.T.);
#743=EDGE_CURVE('',#920,#921,#340,.T.);
#744=EDGE_CURVE('',#920,#922,#71,.F.);
#745=EDGE_CURVE('',#922,#923,#341,.T.);
#746=EDGE_CURVE('',#921,#923,#72,.F.);
#747=EDGE_CURVE('',#924,#925,#342,.T.);
#748=EDGE_CURVE('',#924,#926,#73,.F.);
#749=EDGE_CURVE('',#926,#927,#343,.T.);
#750=EDGE_CURVE('',#925,#927,#74,.F.);
#751=EDGE_CURVE('',#928,#908,#344,.T.);
#752=EDGE_CURVE('',#906,#907,#1036,.T.);
#753=EDGE_CURVE('',#929,#904,#345,.T.);
#754=EDGE_CURVE('',#928,#929,#75,.T.);
#755=EDGE_CURVE('',#930,#931,#76,.T.);
#756=EDGE_CURVE('',#931,#932,#77,.T.);
#757=EDGE_CURVE('',#932,#933,#78,.T.);
#758=EDGE_CURVE('',#933,#934,#79,.T.);
#759=EDGE_CURVE('',#934,#935,#80,.T.);
#760=EDGE_CURVE('',#935,#936,#81,.T.);
#761=EDGE_CURVE('',#937,#936,#82,.T.);
#762=EDGE_CURVE('',#937,#930,#83,.T.);
#763=EDGE_CURVE('',#938,#939,#84,.T.);
#764=EDGE_CURVE('',#938,#940,#85,.T.);
#765=EDGE_CURVE('',#940,#941,#86,.T.);
#766=EDGE_CURVE('',#939,#941,#87,.T.);
#767=EDGE_CURVE('',#942,#943,#88,.T.);
#768=EDGE_CURVE('',#942,#944,#89,.T.);
#769=EDGE_CURVE('',#944,#945,#90,.T.);
#770=EDGE_CURVE('',#943,#945,#91,.T.);
#771=EDGE_CURVE('',#946,#919,#92,.T.);
#772=EDGE_CURVE('',#917,#946,#93,.T.);
#773=EDGE_CURVE('',#916,#947,#94,.T.);
#774=EDGE_CURVE('',#947,#948,#95,.T.);
#775=EDGE_CURVE('',#948,#949,#96,.T.);
#776=EDGE_CURVE('',#950,#949,#97,.T.);
#777=EDGE_CURVE('',#919,#950,#98,.T.);
#778=EDGE_CURVE('',#951,#949,#346,.T.);
#779=EDGE_CURVE('',#951,#945,#16,.T.);
#780=EDGE_CURVE('',#944,#952,#347,.T.);
#781=EDGE_CURVE('',#952,#950,#1037,.T.);
#782=EDGE_CURVE('',#952,#905,#99,.F.);
#783=EDGE_CURVE('',#953,#912,#100,.T.);
#784=EDGE_CURVE('',#953,#910,#101,.T.);
#785=EDGE_CURVE('',#954,#910,#102,.F.);
#786=EDGE_CURVE('',#955,#954,#103,.T.);
#787=EDGE_CURVE('',#956,#955,#104,.T.);
#788=EDGE_CURVE('',#956,#957,#105,.T.);
#789=EDGE_CURVE('',#913,#957,#106,.T.);
#790=EDGE_CURVE('',#958,#958,#348,.T.);
#791=EDGE_CURVE('',#959,#959,#349,.T.);
#792=EDGE_CURVE('',#960,#960,#350,.F.);
#793=EDGE_CURVE('',#961,#961,#351,.F.);
#794=EDGE_CURVE('',#962,#963,#107,.T.);
#795=EDGE_CURVE('',#962,#964,#108,.T.);
#796=EDGE_CURVE('',#964,#965,#109,.T.);
#797=EDGE_CURVE('',#965,#966,#110,.T.);
#798=EDGE_CURVE('',#948,#966,#111,.T.);
#799=EDGE_CURVE('',#967,#947,#112,.T.);
#800=EDGE_CURVE('',#967,#968,#352,.T.);
#801=EDGE_CURVE('',#968,#957,#113,.T.);
#802=EDGE_CURVE('',#956,#969,#114,.T.);
#803=EDGE_CURVE('',#969,#963,#115,.F.);
#804=EDGE_CURVE('',#914,#968,#116,.T.);
#805=EDGE_CURVE('',#915,#967,#117,.T.);
#806=EDGE_CURVE('',#940,#970,#17,.F.);
#807=EDGE_CURVE('',#970,#955,#353,.T.);
#808=EDGE_CURVE('',#954,#971,#1038,.T.);
#809=EDGE_CURVE('',#941,#971,#354,.T.);
#810=EDGE_CURVE('',#970,#969,#118,.T.);
#811=EDGE_CURVE('',#966,#951,#119,.T.);
#812=EDGE_CURVE('',#971,#909,#120,.F.);
#813=EDGE_CURVE('',#972,#942,#121,.T.);
#814=EDGE_CURVE('',#972,#929,#122,.T.);
#815=EDGE_CURVE('',#973,#928,#123,.T.);
#816=EDGE_CURVE('',#973,#939,#124,.T.);
#817=EDGE_CURVE('',#918,#946,#355,.T.);
#818=EDGE_CURVE('',#911,#953,#356,.T.);
#819=EDGE_CURVE('',#963,#940,#125,.T.);
#820=EDGE_CURVE('',#945,#965,#126,.T.);
#821=EDGE_CURVE('',#974,#975,#127,.T.);
#822=EDGE_CURVE('',#975,#962,#128,.T.);
#823=EDGE_CURVE('',#974,#938,#129,.T.);
#824=EDGE_CURVE('',#973,#972,#130,.T.);
#825=EDGE_CURVE('',#964,#976,#131,.T.);
#826=EDGE_CURVE('',#976,#977,#132,.T.);
#827=EDGE_CURVE('',#977,#943,#133,.T.);
#828=EDGE_CURVE('',#978,#979,#134,.T.);
#829=EDGE_CURVE('',#979,#980,#135,.T.);
#830=EDGE_CURVE('',#980,#981,#136,.T.);
#831=EDGE_CURVE('',#981,#982,#137,.T.);
#832=EDGE_CURVE('',#982,#983,#138,.T.);
#833=EDGE_CURVE('',#983,#978,#139,.T.);
#834=EDGE_CURVE('',#984,#984,#357,.T.);
#835=EDGE_CURVE('',#985,#985,#358,.T.);
#836=EDGE_CURVE('',#986,#986,#359,.T.);
#837=EDGE_CURVE('',#987,#987,#360,.T.);
#838=EDGE_CURVE('',#988,#989,#140,.T.);
#839=EDGE_CURVE('',#989,#990,#141,.T.);
#840=EDGE_CURVE('',#991,#990,#142,.T.);
#841=EDGE_CURVE('',#988,#991,#143,.T.);
#842=EDGE_CURVE('',#992,#993,#144,.T.);
#843=EDGE_CURVE('',#992,#934,#145,.T.);
#844=EDGE_CURVE('',#933,#974,#146,.T.);
#845=EDGE_CURVE('',#977,#930,#147,.T.);
#846=EDGE_CURVE('',#993,#937,#148,.T.);
#847=EDGE_CURVE('',#976,#931,#149,.T.);
#848=EDGE_CURVE('',#932,#975,#150,.T.);
#849=EDGE_CURVE('',#992,#994,#151,.T.);
#850=EDGE_CURVE('',#994,#935,#152,.T.);
#851=EDGE_CURVE('',#995,#936,#153,.T.);
#852=EDGE_CURVE('',#993,#995,#154,.T.);
#853=EDGE_CURVE('',#994,#995,#155,.T.);
#854=EDGE_CURVE('',#996,#996,#361,.T.);
#855=EDGE_CURVE('',#997,#997,#362,.T.);
#856=EDGE_CURVE('',#999,#999,#363,.T.);
#857=EDGE_CURVE('',#1001,#1001,#364,.T.);
#858=EDGE_CURVE('',#1002,#1002,#365,.T.);
#859=EDGE_CURVE('',#1003,#1003,#366,.T.);
#860=EDGE_CURVE('',#1004,#1004,#367,.T.);
#861=EDGE_CURVE('',#1005,#1005,#368,.T.);
#862=EDGE_CURVE('',#1006,#901,#156,.T.);
#863=EDGE_CURVE('',#1007,#1006,#157,.T.);
#864=EDGE_CURVE('',#1007,#902,#158,.T.);
#865=EDGE_CURVE('',#1007,#1008,#159,.T.);
#866=EDGE_CURVE('',#1008,#903,#160,.T.);
#867=EDGE_CURVE('',#1008,#1009,#161,.T.);
#868=EDGE_CURVE('',#1009,#900,#162,.T.);
#869=EDGE_CURVE('',#1006,#1009,#163,.T.);
#870=EDGE_CURVE('',#1010,#925,#164,.T.);
#871=EDGE_CURVE('',#1011,#1010,#165,.T.);
#872=EDGE_CURVE('',#1011,#924,#166,.T.);
#873=EDGE_CURVE('',#1011,#1012,#167,.T.);
#874=EDGE_CURVE('',#1012,#926,#168,.T.);
#875=EDGE_CURVE('',#1012,#1013,#169,.T.);
#876=EDGE_CURVE('',#1013,#927,#170,.T.);
#877=EDGE_CURVE('',#1010,#1013,#171,.T.);
#878=EDGE_CURVE('',#1014,#921,#172,.T.);
#879=EDGE_CURVE('',#1015,#1014,#173,.T.);
#880=EDGE_CURVE('',#1015,#920,#174,.T.);
#881=EDGE_CURVE('',#1015,#1016,#175,.T.);
#882=EDGE_CURVE('',#1016,#922,#176,.T.);
#883=EDGE_CURVE('',#1016,#1017,#177,.T.);
#884=EDGE_CURVE('',#1017,#923,#178,.T.);
#885=EDGE_CURVE('',#1014,#1017,#179,.T.);
#886=EDGE_CURVE('',#1018,#989,#180,.T.);
#887=EDGE_CURVE('',#1019,#1018,#181,.T.);
#888=EDGE_CURVE('',#1019,#990,#182,.T.);
#889=EDGE_CURVE('',#1019,#1020,#183,.T.);
#890=EDGE_CURVE('',#1020,#991,#184,.T.);
#891=EDGE_CURVE('',#1020,#1021,#185,.T.);
#892=EDGE_CURVE('',#1021,#988,#186,.T.);
#893=EDGE_CURVE('',#1018,#1021,#187,.T.);
#894=EDGE_CURVE('',#975,#982,#188,.T.);
#895=EDGE_CURVE('',#983,#932,#189,.T.);
#896=EDGE_CURVE('',#978,#931,#190,.T.);
#897=EDGE_CURVE('',#962,#981,#191,.T.);
#898=EDGE_CURVE('',#979,#976,#192,.T.);
#899=EDGE_CURVE('',#964,#980,#193,.T.);
#900=VERTEX_POINT('',#1787);
#901=VERTEX_POINT('',#1788);
#902=VERTEX_POINT('',#1790);
#903=VERTEX_POINT('',#1795);
#904=VERTEX_POINT('',#1801);
#905=VERTEX_POINT('',#1802);
#906=VERTEX_POINT('',#1807);
#907=VERTEX_POINT('',#1809);
#908=VERTEX_POINT('',#1814);
#909=VERTEX_POINT('',#1819);
#910=VERTEX_POINT('',#1821);
#911=VERTEX_POINT('',#1827);
#912=VERTEX_POINT('',#1832);
#913=VERTEX_POINT('',#1837);
#914=VERTEX_POINT('',#1843);
#915=VERTEX_POINT('',#1845);
#916=VERTEX_POINT('',#1851);
#917=VERTEX_POINT('',#1856);
#918=VERTEX_POINT('',#1861);
#919=VERTEX_POINT('',#1867);
#920=VERTEX_POINT('',#1871);
#921=VERTEX_POINT('',#1872);
#922=VERTEX_POINT('',#1874);
#923=VERTEX_POINT('',#1876);
#924=VERTEX_POINT('',#1879);
#925=VERTEX_POINT('',#1880);
#926=VERTEX_POINT('',#1882);
#927=VERTEX_POINT('',#1884);
#928=VERTEX_POINT('',#1887);
#929=VERTEX_POINT('',#1905);
#930=VERTEX_POINT('',#1909);
#931=VERTEX_POINT('',#1910);
#932=VERTEX_POINT('',#1912);
#933=VERTEX_POINT('',#1914);
#934=VERTEX_POINT('',#1916);
#935=VERTEX_POINT('',#1918);
#936=VERTEX_POINT('',#1920);
#937=VERTEX_POINT('',#1922);
#938=VERTEX_POINT('',#1926);
#939=VERTEX_POINT('',#1927);
#940=VERTEX_POINT('',#1929);
#941=VERTEX_POINT('',#1931);
#942=VERTEX_POINT('',#1935);
#943=VERTEX_POINT('',#1936);
#944=VERTEX_POINT('',#1938);
#945=VERTEX_POINT('',#1940);
#946=VERTEX_POINT('',#1944);
#947=VERTEX_POINT('',#1947);
#948=VERTEX_POINT('',#1949);
#949=VERTEX_POINT('',#1951);
#950=VERTEX_POINT('',#1953);
#951=VERTEX_POINT('',#1957);
#952=VERTEX_POINT('',#1960);
#953=VERTEX_POINT('',#1971);
#954=VERTEX_POINT('',#1974);
#955=VERTEX_POINT('',#1976);
#956=VERTEX_POINT('',#1978);
#957=VERTEX_POINT('',#1980);
#958=VERTEX_POINT('',#1984);
#959=VERTEX_POINT('',#1986);
#960=VERTEX_POINT('',#1988);
#961=VERTEX_POINT('',#1990);
#962=VERTEX_POINT('',#1992);
#963=VERTEX_POINT('',#1993);
#964=VERTEX_POINT('',#1995);
#965=VERTEX_POINT('',#1997);
#966=VERTEX_POINT('',#1999);
#967=VERTEX_POINT('',#2002);
#968=VERTEX_POINT('',#2004);
#969=VERTEX_POINT('',#2007);
#970=VERTEX_POINT('',#2014);
#971=VERTEX_POINT('',#2021);
#972=VERTEX_POINT('',#2033);
#973=VERTEX_POINT('',#2037);
#974=VERTEX_POINT('',#2051);
#975=VERTEX_POINT('',#2052);
#976=VERTEX_POINT('',#2059);
#977=VERTEX_POINT('',#2061);
#978=VERTEX_POINT('',#2065);
#979=VERTEX_POINT('',#2066);
#980=VERTEX_POINT('',#2068);
#981=VERTEX_POINT('',#2070);
#982=VERTEX_POINT('',#2072);
#983=VERTEX_POINT('',#2074);
#984=VERTEX_POINT('',#2077);
#985=VERTEX_POINT('',#2079);
#986=VERTEX_POINT('',#2081);
#987=VERTEX_POINT('',#2083);
#988=VERTEX_POINT('',#2086);
#989=VERTEX_POINT('',#2087);
#990=VERTEX_POINT('',#2089);
#991=VERTEX_POINT('',#2091);
#992=VERTEX_POINT('',#2094);
#993=VERTEX_POINT('',#2095);
#994=VERTEX_POINT('',#2106);
#995=VERTEX_POINT('',#2110);
#996=VERTEX_POINT('',#2116);
#997=VERTEX_POINT('',#2118);
#998=VERTEX_POINT('',#2122);
#999=VERTEX_POINT('',#2124);
#1000=VERTEX_POINT('',#2127);
#1001=VERTEX_POINT('',#2129);
#1002=VERTEX_POINT('',#2133);
#1003=VERTEX_POINT('',#2136);
#1004=VERTEX_POINT('',#2139);
#1005=VERTEX_POINT('',#2142);
#1006=VERTEX_POINT('',#2145);
#1007=VERTEX_POINT('',#2147);
#1008=VERTEX_POINT('',#2151);
#1009=VERTEX_POINT('',#2155);
#1010=VERTEX_POINT('',#2162);
#1011=VERTEX_POINT('',#2164);
#1012=VERTEX_POINT('',#2168);
#1013=VERTEX_POINT('',#2172);
#1014=VERTEX_POINT('',#2179);
#1015=VERTEX_POINT('',#2181);
#1016=VERTEX_POINT('',#2185);
#1017=VERTEX_POINT('',#2189);
#1018=VERTEX_POINT('',#2196);
#1019=VERTEX_POINT('',#2198);
#1020=VERTEX_POINT('',#2202);
#1021=VERTEX_POINT('',#2206);
#1022=B_SPLINE_CURVE_WITH_KNOTS('',3,(#1783,#1784,#1785,#1786),
 .UNSPECIFIED.,.F.,.F.,(4,4),(0.100640723203817,0.107864951894944),
 .UNSPECIFIED.);
#1023=B_SPLINE_CURVE_WITH_KNOTS('',3,(#1791,#1792,#1793,#1794),
 .UNSPECIFIED.,.F.,.F.,(4,4),(0.100640723203817,0.107864951894967),
 .UNSPECIFIED.);
#1024=B_SPLINE_CURVE_WITH_KNOTS('',3,(#1797,#1798,#1799,#1800),
 .UNSPECIFIED.,.F.,.F.,(4,4),(0.00491528765013631,0.00505867669202226),
 .UNSPECIFIED.);
#1025=B_SPLINE_CURVE_WITH_KNOTS('',3,(#1803,#1804,#1805,#1806),
 .UNSPECIFIED.,.F.,.F.,(4,4),(4.04946736255219E-7,0.000292797443855792),
 .UNSPECIFIED.);
#1026=B_SPLINE_CURVE_WITH_KNOTS('',3,(#1810,#1811,#1812,#1813),
 .UNSPECIFIED.,.F.,.F.,(4,4),(8.87461966342064E-7,0.000293279959103659),
 .UNSPECIFIED.);
#1027=B_SPLINE_CURVE_WITH_KNOTS('',3,(#1815,#1816,#1817,#1818),
 .UNSPECIFIED.,.F.,.F.,(4,4),(0.00491528765012556,0.00505867669202227),
 .UNSPECIFIED.);
#1028=B_SPLINE_CURVE_WITH_KNOTS('',3,(#1822,#1823,#1824,#1825,#1826),
 .UNSPECIFIED.,.F.,.F.,(4,1,4),(0.0258788150598511,0.0287969263820715,0.031715037704292),
 .UNSPECIFIED.);
#1029=B_SPLINE_CURVE_WITH_KNOTS('',3,(#1828,#1829,#1830,#1831),
 .UNSPECIFIED.,.F.,.F.,(4,4),(2.30277938801886E-7,0.00222596582255091),
 .UNSPECIFIED.);
#1030=B_SPLINE_CURVE_WITH_KNOTS('',3,(#1833,#1834,#1835,#1836),
 .UNSPECIFIED.,.F.,.F.,(4,4),(0.0281212328182467,0.033932853698099),
 .UNSPECIFIED.);
#1031=B_SPLINE_CURVE_WITH_KNOTS('',3,(#1838,#1839,#1840,#1841,#1842),
 .UNSPECIFIED.,.F.,.F.,(4,1,4),(0.00879947784316763,0.0120345262778531,
0.0152695747125385),.UNSPECIFIED.);
#1032=B_SPLINE_CURVE_WITH_KNOTS('',3,(#1846,#1847,#1848,#1849,#1850),
 .UNSPECIFIED.,.F.,.F.,(4,1,4),(0.00879947784316762,0.0120345262778599,
0.0152695747125521),.UNSPECIFIED.);
#1033=B_SPLINE_CURVE_WITH_KNOTS('',3,(#1852,#1853,#1854,#1855),
 .UNSPECIFIED.,.F.,.F.,(4,4),(0.127339311375785,0.133174892906547),
 .UNSPECIFIED.);
#1034=B_SPLINE_CURVE_WITH_KNOTS('',3,(#1857,#1858,#1859,#1860),
 .UNSPECIFIED.,.F.,.F.,(4,4),(8.75274079621726E-7,0.00222661081872079),
 .UNSPECIFIED.);
#1035=B_SPLINE_CURVE_WITH_KNOTS('',3,(#1862,#1863,#1864,#1865,#1866),
 .UNSPECIFIED.,.F.,.F.,(4,1,4),(0.0258788150598512,0.0287969263820753,0.0317150377042995),
 .UNSPECIFIED.);
#1036=B_SPLINE_CURVE_WITH_KNOTS('',3,(#1888,#1889,#1890,#1891,#1892,#1893,
#1894,#1895,#1896,#1897,#1898,#1899,#1900,#1901,#1902,#1903),
 .UNSPECIFIED.,.F.,.F.,(4,1,1,1,1,1,1,1,1,1,1,1,1,4),(0.,0.00801389262308995,
0.0120208389346349,0.0160277852461799,0.0200347315577249,0.0240416778692698,
0.0280486241808148,0.0320555704923598,0.0360625168039048,0.0400694631154497,
0.0480833557385397,0.0520903020500846,0.0560972483616296,0.0641111409847196),
 .UNSPECIFIED.);
#1037=B_SPLINE_CURVE_WITH_KNOTS('',3,(#1961,#1962,#1963,#1964,#1965),
 .UNSPECIFIED.,.F.,.F.,(4,1,4),(0.080059195982544,0.0869792375975254,0.0938992792125068),
 .UNSPECIFIED.);
#1038=B_SPLINE_CURVE_WITH_KNOTS('',3,(#2016,#2017,#2018,#2019,#2020),
 .UNSPECIFIED.,.F.,.F.,(4,1,4),(0.,0.00690938977760958,0.0138187795552192),
 .UNSPECIFIED.);
#1039=EDGE_LOOP('',(#369,#370,#371,#372));
#1040=EDGE_LOOP('',(#373,#374,#375,#376,#377,#378,#379,#380,#381,#382,#383,
#384,#385,#386,#387,#388));
#1041=EDGE_LOOP('',(#389,#390,#391,#392));
#1042=EDGE_LOOP('',(#393,#394,#395,#396));
#1043=EDGE_LOOP('',(#397,#398,#399,#400,#401,#402));
#1044=EDGE_LOOP('',(#403,#404,#405,#406,#407,#408,#409,#410));
#1045=EDGE_LOOP('',(#411,#412,#413,#414));
#1046=EDGE_LOOP('',(#415,#416,#417,#418));
#1047=EDGE_LOOP('',(#419,#420,#421,#422,#423,#424,#425,#426));
#1048=EDGE_LOOP('',(#427,#428,#429,#430,#431,#432));
#1049=EDGE_LOOP('',(#433,#434,#435,#436));
#1050=EDGE_LOOP('',(#437,#438));
#1051=EDGE_LOOP('',(#439,#440,#441,#442,#443,#444,#445,#446));
#1052=EDGE_LOOP('',(#447));
#1053=EDGE_LOOP('',(#448));
#1054=EDGE_LOOP('',(#449));
#1055=EDGE_LOOP('',(#450));
#1056=EDGE_LOOP('',(#451,#452,#453,#454,#455,#456,#457,#458,#459,#460,#461,
#462));
#1057=EDGE_LOOP('',(#463,#464,#465,#466));
#1058=EDGE_LOOP('',(#467,#468,#469,#470,#471,#472));
#1059=EDGE_LOOP('',(#473,#474,#475,#476));
#1060=EDGE_LOOP('',(#477,#478,#479,#480));
#1061=EDGE_LOOP('',(#481,#482,#483,#484));
#1062=EDGE_LOOP('',(#485,#486,#487,#488));
#1063=EDGE_LOOP('',(#489,#490,#491,#492));
#1064=EDGE_LOOP('',(#493,#494,#495,#496,#497,#498,#499));
#1065=EDGE_LOOP('',(#500,#501,#502,#503,#504,#505,#506));
#1066=EDGE_LOOP('',(#507,#508,#509));
#1067=EDGE_LOOP('',(#510,#511,#512));
#1068=EDGE_LOOP('',(#513,#514,#515));
#1069=EDGE_LOOP('',(#516,#517,#518));
#1070=EDGE_LOOP('',(#519,#520,#521,#522));
#1071=EDGE_LOOP('',(#523,#524,#525,#526));
#1072=EDGE_LOOP('',(#527,#528,#529,#530,#531,#532));
#1073=EDGE_LOOP('',(#533,#534,#535,#536));
#1074=EDGE_LOOP('',(#537,#538,#539,#540,#541,#542));
#1075=EDGE_LOOP('',(#543,#544,#545,#546,#547,#548));
#1076=EDGE_LOOP('',(#549));
#1077=EDGE_LOOP('',(#550));
#1078=EDGE_LOOP('',(#551));
#1079=EDGE_LOOP('',(#552));
#1080=EDGE_LOOP('',(#553,#554,#555,#556));
#1081=EDGE_LOOP('',(#557,#558,#559,#560,#561,#562,#563,#564,#565,#566,#567,
#568,#569,#570));
#1082=EDGE_LOOP('',(#571,#572,#573,#574));
#1083=EDGE_LOOP('',(#575,#576,#577,#578));
#1084=EDGE_LOOP('',(#579,#580,#581,#582));
#1085=EDGE_LOOP('',(#583,#584,#585,#586));
#1086=EDGE_LOOP('',(#587,#588,#589,#590));
#1087=EDGE_LOOP('',(#591));
#1088=EDGE_LOOP('',(#592));
#1089=EDGE_LOOP('',(#593,#594,#595,#596));
#1090=EDGE_LOOP('',(#597));
#1091=EDGE_LOOP('',(#598));
#1092=EDGE_LOOP('',(#599));
#1093=EDGE_LOOP('',(#600));
#1094=EDGE_LOOP('',(#601));
#1095=EDGE_LOOP('',(#602));
#1096=EDGE_LOOP('',(#603));
#1097=EDGE_LOOP('',(#604));
#1098=EDGE_LOOP('',(#605));
#1099=EDGE_LOOP('',(#606));
#1100=EDGE_LOOP('',(#607));
#1101=EDGE_LOOP('',(#608));
#1102=EDGE_LOOP('',(#609));
#1103=EDGE_LOOP('',(#610));
#1104=EDGE_LOOP('',(#611));
#1105=EDGE_LOOP('',(#612));
#1106=EDGE_LOOP('',(#613));
#1107=EDGE_LOOP('',(#614));
#1108=EDGE_LOOP('',(#615,#616,#617,#618));
#1109=EDGE_LOOP('',(#619,#620,#621,#622));
#1110=EDGE_LOOP('',(#623,#624,#625,#626));
#1111=EDGE_LOOP('',(#627,#628,#629,#630));
#1112=EDGE_LOOP('',(#631));
#1113=EDGE_LOOP('',(#632,#633,#634,#635));
#1114=EDGE_LOOP('',(#636,#637,#638,#639));
#1115=EDGE_LOOP('',(#640,#641,#642,#643));
#1116=EDGE_LOOP('',(#644,#645,#646,#647));
#1117=EDGE_LOOP('',(#648,#649,#650,#651));
#1118=EDGE_LOOP('',(#652));
#1119=EDGE_LOOP('',(#653,#654,#655,#656));
#1120=EDGE_LOOP('',(#657,#658,#659,#660));
#1121=EDGE_LOOP('',(#661,#662,#663,#664));
#1122=EDGE_LOOP('',(#665,#666,#667,#668));
#1123=EDGE_LOOP('',(#669,#670,#671,#672));
#1124=EDGE_LOOP('',(#673));
#1125=EDGE_LOOP('',(#674,#675,#676,#677));
#1126=EDGE_LOOP('',(#678,#679,#680,#681));
#1127=EDGE_LOOP('',(#682,#683,#684,#685));
#1128=EDGE_LOOP('',(#686,#687,#688,#689));
#1129=EDGE_LOOP('',(#690,#691,#692,#693));
#1130=EDGE_LOOP('',(#694));
#1131=EDGE_LOOP('',(#695,#696,#697,#698));
#1132=EDGE_LOOP('',(#699,#700,#701,#702));
#1133=EDGE_LOOP('',(#703,#704,#705,#706));
#1134=EDGE_LOOP('',(#707,#708,#709,#710));
#1135=EDGE_LOOP('',(#711,#712,#713,#714));
#1136=EDGE_LOOP('',(#715,#716,#717,#718));
#1137=EDGE_LOOP('',(#719,#720,#721,#722));
#1138=FACE_BOUND('',#1039,.T.);
#1139=FACE_BOUND('',#1040,.T.);
#1140=FACE_BOUND('',#1041,.T.);
#1141=FACE_BOUND('',#1042,.T.);
#1142=FACE_BOUND('',#1043,.T.);
#1143=FACE_BOUND('',#1044,.T.);
#1144=FACE_BOUND('',#1045,.T.);
#1145=FACE_BOUND('',#1046,.T.);
#1146=FACE_BOUND('',#1047,.T.);
#1147=FACE_BOUND('',#1048,.T.);
#1148=FACE_BOUND('',#1049,.T.);
#1149=FACE_BOUND('',#1050,.T.);
#1150=FACE_BOUND('',#1051,.T.);
#1151=FACE_BOUND('',#1052,.T.);
#1152=FACE_BOUND('',#1053,.T.);
#1153=FACE_BOUND('',#1054,.T.);
#1154=FACE_BOUND('',#1055,.T.);
#1155=FACE_BOUND('',#1056,.T.);
#1156=FACE_BOUND('',#1057,.T.);
#1157=FACE_BOUND('',#1058,.T.);
#1158=FACE_BOUND('',#1059,.T.);
#1159=FACE_BOUND('',#1060,.T.);
#1160=FACE_BOUND('',#1061,.T.);
#1161=FACE_BOUND('',#1062,.T.);
#1162=FACE_BOUND('',#1063,.T.);
#1163=FACE_BOUND('',#1064,.T.);
#1164=FACE_BOUND('',#1065,.T.);
#1165=FACE_BOUND('',#1066,.T.);
#1166=FACE_BOUND('',#1067,.T.);
#1167=FACE_BOUND('',#1068,.T.);
#1168=FACE_BOUND('',#1069,.T.);
#1169=FACE_BOUND('',#1070,.T.);
#1170=FACE_BOUND('',#1071,.T.);
#1171=FACE_BOUND('',#1072,.T.);
#1172=FACE_BOUND('',#1073,.T.);
#1173=FACE_BOUND('',#1074,.T.);
#1174=FACE_BOUND('',#1075,.T.);
#1175=FACE_BOUND('',#1076,.T.);
#1176=FACE_BOUND('',#1077,.T.);
#1177=FACE_BOUND('',#1078,.T.);
#1178=FACE_BOUND('',#1079,.T.);
#1179=FACE_BOUND('',#1080,.T.);
#1180=FACE_BOUND('',#1081,.T.);
#1181=FACE_BOUND('',#1082,.T.);
#1182=FACE_BOUND('',#1083,.T.);
#1183=FACE_BOUND('',#1084,.T.);
#1184=FACE_BOUND('',#1085,.T.);
#1185=FACE_BOUND('',#1086,.T.);
#1186=FACE_BOUND('',#1087,.T.);
#1187=FACE_BOUND('',#1088,.T.);
#1188=FACE_BOUND('',#1089,.T.);
#1189=FACE_BOUND('',#1090,.T.);
#1190=FACE_BOUND('',#1091,.T.);
#1191=FACE_BOUND('',#1092,.T.);
#1192=FACE_BOUND('',#1093,.T.);
#1193=FACE_BOUND('',#12,.T.);
#1194=FACE_BOUND('',#1094,.T.);
#1195=FACE_BOUND('',#1095,.T.);
#1196=FACE_BOUND('',#1096,.T.);
#1197=FACE_BOUND('',#13,.T.);
#1198=FACE_BOUND('',#1097,.T.);
#1199=FACE_BOUND('',#1098,.T.);
#1200=FACE_BOUND('',#1099,.T.);
#1201=FACE_BOUND('',#1100,.T.);
#1202=FACE_BOUND('',#1101,.T.);
#1203=FACE_BOUND('',#1102,.T.);
#1204=FACE_BOUND('',#1103,.T.);
#1205=FACE_BOUND('',#1104,.T.);
#1206=FACE_BOUND('',#1105,.T.);
#1207=FACE_BOUND('',#1106,.T.);
#1208=FACE_BOUND('',#1107,.T.);
#1209=FACE_BOUND('',#1108,.T.);
#1210=FACE_BOUND('',#1109,.T.);
#1211=FACE_BOUND('',#1110,.T.);
#1212=FACE_BOUND('',#1111,.T.);
#1213=FACE_BOUND('',#1112,.T.);
#1214=FACE_BOUND('',#1113,.T.);
#1215=FACE_BOUND('',#1114,.T.);
#1216=FACE_BOUND('',#1115,.T.);
#1217=FACE_BOUND('',#1116,.T.);
#1218=FACE_BOUND('',#1117,.T.);
#1219=FACE_BOUND('',#1118,.T.);
#1220=FACE_BOUND('',#1119,.T.);
#1221=FACE_BOUND('',#1120,.T.);
#1222=FACE_BOUND('',#1121,.T.);
#1223=FACE_BOUND('',#1122,.T.);
#1224=FACE_BOUND('',#1123,.T.);
#1225=FACE_BOUND('',#1124,.T.);
#1226=FACE_BOUND('',#1125,.T.);
#1227=FACE_BOUND('',#1126,.T.);
#1228=FACE_BOUND('',#1127,.T.);
#1229=FACE_BOUND('',#1128,.T.);
#1230=FACE_BOUND('',#1129,.T.);
#1231=FACE_BOUND('',#1130,.T.);
#1232=FACE_BOUND('',#1131,.T.);
#1233=FACE_BOUND('',#1132,.T.);
#1234=FACE_BOUND('',#1133,.T.);
#1235=FACE_BOUND('',#1134,.T.);
#1236=FACE_BOUND('',#1135,.T.);
#1237=FACE_BOUND('',#1136,.T.);
#1238=FACE_BOUND('',#1137,.T.);
#1239=DEGENERATE_TOROIDAL_SURFACE('',#1326,0.0112166666666667,0.0341666666666667,
 .F.);
#1240=ADVANCED_FACE('',(#1138,#1139),#1239,.T.);
#1241=ADVANCED_FACE('',(#1140,#1141,#1142),#317,.F.);
#1242=ADVANCED_FACE('',(#1143),#18,.T.);
#1243=ADVANCED_FACE('',(#1144),#19,.F.);
#1244=ADVANCED_FACE('',(#1145),#20,.F.);
#1245=ADVANCED_FACE('',(#1146),#21,.F.);
#1246=ADVANCED_FACE('',(#1147),#318,.F.);
#1247=ADVANCED_FACE('',(#1148),#319,.F.);
#1248=ADVANCED_FACE('',(#1149),#320,.F.);
#1249=ADVANCED_FACE('',(#1150),#22,.F.);
#1250=ADVANCED_FACE('',(#1151,#1152,#1153,#1154,#1155),#23,.T.);
#1251=ADVANCED_FACE('',(#1156),#321,.F.);
#1252=ADVANCED_FACE('',(#1157),#322,.F.);
#1253=ADVANCED_FACE('',(#1158),#24,.T.);
#1254=ADVANCED_FACE('',(#1159),#25,.F.);
#1255=ADVANCED_FACE('',(#1160),#323,.F.);
#1256=ADVANCED_FACE('',(#1161),#26,.F.);
#1257=ADVANCED_FACE('',(#1162),#27,.T.);
#1258=ADVANCED_FACE('',(#1163),#28,.T.);
#1259=ADVANCED_FACE('',(#1164),#29,.F.);
#1260=ADVANCED_FACE('',(#1165),#324,.F.);
#1261=ADVANCED_FACE('',(#1166),#30,.T.);
#1262=ADVANCED_FACE('',(#1167),#31,.F.);
#1263=ADVANCED_FACE('',(#1168),#325,.F.);
#1264=ADVANCED_FACE('',(#1169),#32,.F.);
#1265=ADVANCED_FACE('',(#1170),#33,.T.);
#1266=ADVANCED_FACE('',(#1171),#34,.F.);
#1267=ADVANCED_FACE('',(#1172),#35,.F.);
#1268=ADVANCED_FACE('',(#1173),#36,.F.);
#1269=ADVANCED_FACE('',(#1174,#1175,#1176,#1177,#1178),#37,.T.);
#1270=ADVANCED_FACE('',(#1179,#1180),#38,.F.);
#1271=ADVANCED_FACE('',(#1181),#39,.T.);
#1272=ADVANCED_FACE('',(#1182),#40,.T.);
#1273=ADVANCED_FACE('',(#1183),#41,.T.);
#1274=ADVANCED_FACE('',(#1184),#42,.F.);
#1275=ADVANCED_FACE('',(#1185),#43,.T.);
#1276=ADVANCED_FACE('',(#1186,#1187,#1188),#44,.T.);
#1277=ADVANCED_FACE('',(#1189,#1190),#326,.F.);
#1278=ADVANCED_FACE('',(#1191,#1192),#327,.F.);
#1279=ADVANCED_FACE('',(#1193,#1194),#14,.F.);
#1280=ADVANCED_FACE('',(#1195,#1196),#328,.F.);
#1281=ADVANCED_FACE('',(#1197,#1198),#15,.F.);
#1282=ADVANCED_FACE('',(#1199,#1200),#329,.F.);
#1283=ADVANCED_FACE('',(#1201,#1202),#330,.F.);
#1284=ADVANCED_FACE('',(#1203,#1204),#331,.F.);
#1285=ADVANCED_FACE('',(#1205,#1206),#332,.F.);
#1286=ADVANCED_FACE('',(#1207,#1208),#333,.F.);
#1287=ADVANCED_FACE('',(#1209),#45,.F.);
#1288=ADVANCED_FACE('',(#1210),#46,.T.);
#1289=ADVANCED_FACE('',(#1211),#47,.T.);
#1290=ADVANCED_FACE('',(#1212),#48,.F.);
#1291=ADVANCED_FACE('',(#1213,#1214),#49,.F.);
#1292=ADVANCED_FACE('',(#1215),#50,.F.);
#1293=ADVANCED_FACE('',(#1216),#51,.T.);
#1294=ADVANCED_FACE('',(#1217),#52,.T.);
#1295=ADVANCED_FACE('',(#1218),#53,.F.);
#1296=ADVANCED_FACE('',(#1219,#1220),#54,.F.);
#1297=ADVANCED_FACE('',(#1221),#55,.F.);
#1298=ADVANCED_FACE('',(#1222),#56,.T.);
#1299=ADVANCED_FACE('',(#1223),#57,.T.);
#1300=ADVANCED_FACE('',(#1224),#58,.F.);
#1301=ADVANCED_FACE('',(#1225,#1226),#59,.F.);
#1302=ADVANCED_FACE('',(#1227),#60,.F.);
#1303=ADVANCED_FACE('',(#1228),#61,.T.);
#1304=ADVANCED_FACE('',(#1229),#62,.T.);
#1305=ADVANCED_FACE('',(#1230),#63,.F.);
#1306=ADVANCED_FACE('',(#1231,#1232),#64,.F.);
#1307=ADVANCED_FACE('',(#1233),#65,.F.);
#1308=ADVANCED_FACE('',(#1234),#66,.F.);
#1309=ADVANCED_FACE('',(#1235),#67,.T.);
#1310=ADVANCED_FACE('',(#1236),#68,.F.);
#1311=ADVANCED_FACE('',(#1237),#69,.F.);
#1312=ADVANCED_FACE('',(#1238),#70,.T.);
#1313=CLOSED_SHELL('',(#1240,#1241,#1242,#1243,#1244,#1245,#1246,#1247,
#1248,#1249,#1250,#1251,#1252,#1253,#1254,#1255,#1256,#1257,#1258,#1259,
#1260,#1261,#1262,#1263,#1264,#1265,#1266,#1267,#1268,#1269,#1270,#1271,
#1272,#1273,#1274,#1275,#1276,#1277,#1278,#1279,#1280,#1281,#1282,#1283,
#1284,#1285,#1286,#1287,#1288,#1289,#1290,#1291,#1292,#1293,#1294,#1295,
#1296,#1297,#1298,#1299,#1300,#1301,#1302,#1303,#1304,#1305,#1306,#1307,
#1308,#1309,#1310,#1311,#1312));
#1314=STYLED_ITEM('',(#1315),#1322);
#1315=PRESENTATION_STYLE_ASSIGNMENT((#1316));
#1316=SURFACE_STYLE_USAGE(.BOTH.,#1317);
#1317=SURFACE_SIDE_STYLE('',(#1318));
#1318=SURFACE_STYLE_FILL_AREA(#1319);
#1319=FILL_AREA_STYLE('',(#1320));
#1320=FILL_AREA_STYLE_COLOUR('',#1321);
#1321=DRAUGHTING_PRE_DEFINED_COLOUR('white');
#1322=MANIFOLD_SOLID_BREP('Head Attachment',#1313);
#1323=SHAPE_DEFINITION_REPRESENTATION(#2229,#1324);
#1324=SHAPE_REPRESENTATION('Head Attachment',(#1325),#2224);
#1325=AXIS2_PLACEMENT_3D('',#1781,#1436,#1437);
#1326=AXIS2_PLACEMENT_3D('',#1782,#1438,#1439);
#1327=AXIS2_PLACEMENT_3D('',#1789,#1440,#1441);
#1328=AXIS2_PLACEMENT_3D('',#1796,#1442,#1443);
#1329=AXIS2_PLACEMENT_3D('',#1808,#1444,#1445);
#1330=AXIS2_PLACEMENT_3D('',#1820,#1446,#1447);
#1331=AXIS2_PLACEMENT_3D('',#1844,#1448,#1449);
#1332=AXIS2_PLACEMENT_3D('',#1868,#1450,#1451);
#1333=AXIS2_PLACEMENT_3D('',#1869,#1452,#1453);
#1334=AXIS2_PLACEMENT_3D('',#1870,#1454,#1455);
#1335=AXIS2_PLACEMENT_3D('',#1875,#1457,#1458);
#1336=AXIS2_PLACEMENT_3D('',#1878,#1460,#1461);
#1337=AXIS2_PLACEMENT_3D('',#1883,#1463,#1464);
#1338=AXIS2_PLACEMENT_3D('',#1886,#1466,#1467);
#1339=AXIS2_PLACEMENT_3D('',#1904,#1468,#1469);
#1340=AXIS2_PLACEMENT_3D('',#1907,#1471,#1472);
#1341=AXIS2_PLACEMENT_3D('',#1924,#1481,#1482);
#1342=AXIS2_PLACEMENT_3D('',#1933,#1487,#1488);
#1343=AXIS2_PLACEMENT_3D('',#1942,#1493,#1494);
#1344=AXIS2_PLACEMENT_3D('',#1955,#1502,#1503);
#1345=AXIS2_PLACEMENT_3D('',#1956,#1504,#1505);
#1346=AXIS2_PLACEMENT_3D('',#1958,#1506,#1507);
#1347=AXIS2_PLACEMENT_3D('',#1959,#1508,#1509);
#1348=AXIS2_PLACEMENT_3D('',#1966,#1510,#1511);
#1349=AXIS2_PLACEMENT_3D('',#1968,#1513,#1514);
#1350=AXIS2_PLACEMENT_3D('',#1969,#1515,#1516);
#1351=AXIS2_PLACEMENT_3D('',#1982,#1524,#1525);
#1352=AXIS2_PLACEMENT_3D('',#1983,#1526,#1527);
#1353=AXIS2_PLACEMENT_3D('',#1985,#1528,#1529);
#1354=AXIS2_PLACEMENT_3D('',#1987,#1530,#1531);
#1355=AXIS2_PLACEMENT_3D('',#1989,#1532,#1533);
#1356=AXIS2_PLACEMENT_3D('',#2003,#1540,#1541);
#1357=AXIS2_PLACEMENT_3D('',#2009,#1545,#1546);
#1358=AXIS2_PLACEMENT_3D('',#2012,#1549,#1550);
#1359=AXIS2_PLACEMENT_3D('',#2013,#1551,#1552);
#1360=AXIS2_PLACEMENT_3D('',#2015,#1553,#1554);
#1361=AXIS2_PLACEMENT_3D('',#2022,#1555,#1556);
#1362=AXIS2_PLACEMENT_3D('',#2023,#1557,#1558);
#1363=AXIS2_PLACEMENT_3D('',#2025,#1560,#1561);
#1364=AXIS2_PLACEMENT_3D('',#2027,#1563,#1564);
#1365=AXIS2_PLACEMENT_3D('',#2029,#1566,#1567);
#1366=AXIS2_PLACEMENT_3D('',#2030,#1568,#1569);
#1367=AXIS2_PLACEMENT_3D('',#2031,#1570,#1571);
#1368=AXIS2_PLACEMENT_3D('',#2035,#1574,#1575);
#1369=AXIS2_PLACEMENT_3D('',#2039,#1578,#1579);
#1370=AXIS2_PLACEMENT_3D('',#2040,#1580,#1581);
#1371=AXIS2_PLACEMENT_3D('',#2041,#1582,#1583);
#1372=AXIS2_PLACEMENT_3D('',#2042,#1584,#1585);
#1373=AXIS2_PLACEMENT_3D('',#2043,#1586,#1587);
#1374=AXIS2_PLACEMENT_3D('',#2044,#1588,#1589);
#1375=AXIS2_PLACEMENT_3D('',#2045,#1590,#1591);
#1376=AXIS2_PLACEMENT_3D('',#2047,#1593,#1594);
#1377=AXIS2_PLACEMENT_3D('',#2049,#1596,#1597);
#1378=AXIS2_PLACEMENT_3D('',#2055,#1601,#1602);
#1379=AXIS2_PLACEMENT_3D('',#2057,#1604,#1605);
#1380=AXIS2_PLACEMENT_3D('',#2063,#1609,#1610);
#1381=AXIS2_PLACEMENT_3D('',#2076,#1617,#1618);
#1382=AXIS2_PLACEMENT_3D('',#2078,#1619,#1620);
#1383=AXIS2_PLACEMENT_3D('',#2080,#1621,#1622);
#1384=AXIS2_PLACEMENT_3D('',#2082,#1623,#1624);
#1385=AXIS2_PLACEMENT_3D('',#2084,#1625,#1626);
#1386=AXIS2_PLACEMENT_3D('',#2100,#1636,#1637);
#1387=AXIS2_PLACEMENT_3D('',#2102,#1639,#1640);
#1388=AXIS2_PLACEMENT_3D('',#2104,#1642,#1643);
#1389=AXIS2_PLACEMENT_3D('',#2108,#1646,#1647);
#1390=AXIS2_PLACEMENT_3D('',#2112,#1650,#1651);
#1391=AXIS2_PLACEMENT_3D('',#2114,#1653,#1654);
#1392=AXIS2_PLACEMENT_3D('',#2115,#1655,#1656);
#1393=AXIS2_PLACEMENT_3D('',#2117,#1657,#1658);
#1394=AXIS2_PLACEMENT_3D('',#2119,#1659,#1660);
#1395=AXIS2_PLACEMENT_3D('',#2120,#1661,#1662);
#1396=AXIS2_PLACEMENT_3D('',#2121,#1663,#1664);
#1397=AXIS2_PLACEMENT_3D('',#2123,#1665,#1666);
#1398=AXIS2_PLACEMENT_3D('',#2125,#1667,#1668);
#1399=AXIS2_PLACEMENT_3D('',#2126,#1669,#1670);
#1400=AXIS2_PLACEMENT_3D('',#2128,#1671,#1672);
#1401=AXIS2_PLACEMENT_3D('',#2130,#1673,#1674);
#1402=AXIS2_PLACEMENT_3D('',#2131,#1675,#1676);
#1403=AXIS2_PLACEMENT_3D('',#2132,#1677,#1678);
#1404=AXIS2_PLACEMENT_3D('',#2134,#1679,#1680);
#1405=AXIS2_PLACEMENT_3D('',#2135,#1681,#1682);
#1406=AXIS2_PLACEMENT_3D('',#2137,#1683,#1684);
#1407=AXIS2_PLACEMENT_3D('',#2138,#1685,#1686);
#1408=AXIS2_PLACEMENT_3D('',#2140,#1687,#1688);
#1409=AXIS2_PLACEMENT_3D('',#2141,#1689,#1690);
#1410=AXIS2_PLACEMENT_3D('',#2143,#1691,#1692);
#1411=AXIS2_PLACEMENT_3D('',#2149,#1696,#1697);
#1412=AXIS2_PLACEMENT_3D('',#2153,#1700,#1701);
#1413=AXIS2_PLACEMENT_3D('',#2157,#1704,#1705);
#1414=AXIS2_PLACEMENT_3D('',#2159,#1707,#1708);
#1415=AXIS2_PLACEMENT_3D('',#2160,#1709,#1710);
#1416=AXIS2_PLACEMENT_3D('',#2166,#1714,#1715);
#1417=AXIS2_PLACEMENT_3D('',#2170,#1718,#1719);
#1418=AXIS2_PLACEMENT_3D('',#2174,#1722,#1723);
#1419=AXIS2_PLACEMENT_3D('',#2176,#1725,#1726);
#1420=AXIS2_PLACEMENT_3D('',#2177,#1727,#1728);
#1421=AXIS2_PLACEMENT_3D('',#2183,#1732,#1733);
#1422=AXIS2_PLACEMENT_3D('',#2187,#1736,#1737);
#1423=AXIS2_PLACEMENT_3D('',#2191,#1740,#1741);
#1424=AXIS2_PLACEMENT_3D('',#2193,#1743,#1744);
#1425=AXIS2_PLACEMENT_3D('',#2194,#1745,#1746);
#1426=AXIS2_PLACEMENT_3D('',#2200,#1750,#1751);
#1427=AXIS2_PLACEMENT_3D('',#2204,#1754,#1755);
#1428=AXIS2_PLACEMENT_3D('',#2208,#1758,#1759);
#1429=AXIS2_PLACEMENT_3D('',#2210,#1761,#1762);
#1430=AXIS2_PLACEMENT_3D('',#2211,#1763,#1764);
#1431=AXIS2_PLACEMENT_3D('',#2214,#1767,#1768);
#1432=AXIS2_PLACEMENT_3D('',#2216,#1770,#1771);
#1433=AXIS2_PLACEMENT_3D('',#2218,#1773,#1774);
#1434=AXIS2_PLACEMENT_3D('',#2220,#1776,#1777);
#1435=AXIS2_PLACEMENT_3D('',#2222,#1779,#1780);
#1436=DIRECTION('',(0.,0.,1.));
#1437=DIRECTION('',(1.,0.,0.));
#1438=DIRECTION('',(0.,0.,-1.));
#1439=DIRECTION('',(-1.,0.,0.));
#1440=DIRECTION('',(0.,0.,-1.));
#1441=DIRECTION('',(-1.,0.,0.));
#1442=DIRECTION('',(0.,1.20466908053945E-16,-1.));
#1443=DIRECTION('',(0.,1.,1.20466908053945E-16));
#1444=DIRECTION('',(0.,0.,-1.));
#1445=DIRECTION('',(-1.,0.,0.));
#1446=DIRECTION('',(0.,0.,-1.));
#1447=DIRECTION('',(-1.,0.,0.));
#1448=DIRECTION('',(0.,0.,-1.));
#1449=DIRECTION('',(-1.,0.,0.));
#1450=DIRECTION('',(0.,0.,-1.));
#1451=DIRECTION('',(-1.,0.,0.));
#1452=DIRECTION('',(0.,1.,0.));
#1453=DIRECTION('',(0.,0.,1.));
#1454=DIRECTION('',(0.,1.,0.));
#1455=DIRECTION('',(0.,0.,1.));
#1456=DIRECTION('',(0.,1.,0.));
#1457=DIRECTION('',(0.,1.,4.8186763221578E-16));
#1458=DIRECTION('',(0.,-4.8186763221578E-16,1.));
#1459=DIRECTION('',(0.,1.,0.));
#1460=DIRECTION('',(0.,1.,4.8186763221578E-16));
#1461=DIRECTION('',(0.,-4.8186763221578E-16,1.));
#1462=DIRECTION('',(0.,1.,0.));
#1463=DIRECTION('',(0.,1.,0.));
#1464=DIRECTION('',(0.,0.,1.));
#1465=DIRECTION('',(0.,1.,0.));
#1466=DIRECTION('',(0.,-1.,0.));
#1467=DIRECTION('',(0.,0.,-1.));
#1468=DIRECTION('',(0.,-1.,0.));
#1469=DIRECTION('',(0.,0.,-1.));
#1470=DIRECTION('',(0.,1.,0.));
#1471=DIRECTION('',(1.21734980770302E-16,0.,-1.));
#1472=DIRECTION('',(1.,0.,1.21734980770302E-16));
#1473=DIRECTION('',(1.,0.,1.21734980770302E-16));
#1474=DIRECTION('',(0.,-1.,0.));
#1475=DIRECTION('',(-1.,0.,-1.21734980770302E-16));
#1476=DIRECTION('',(0.,1.,0.));
#1477=DIRECTION('',(1.,0.,1.21734980770302E-16));
#1478=DIRECTION('',(0.,1.,0.));
#1479=DIRECTION('',(1.,0.,1.21734980770302E-16));
#1480=DIRECTION('',(0.,1.,0.));
#1481=DIRECTION('',(-1.21734980770302E-16,0.,1.));
#1482=DIRECTION('',(1.,0.,1.21734980770302E-16));
#1483=DIRECTION('',(0.,1.,0.));
#1484=DIRECTION('',(-1.,0.,-1.21734980770302E-16));
#1485=DIRECTION('',(0.,1.,0.));
#1486=DIRECTION('',(-1.,0.,-1.21734980770302E-16));
#1487=DIRECTION('',(-1.21734980770302E-16,0.,1.));
#1488=DIRECTION('',(1.,0.,1.21734980770302E-16));
#1489=DIRECTION('',(0.,1.,0.));
#1490=DIRECTION('',(-1.,0.,-1.21734980770302E-16));
#1491=DIRECTION('',(0.,1.,0.));
#1492=DIRECTION('',(-1.,0.,-1.21734980770302E-16));
#1493=DIRECTION('',(1.,0.,0.));
#1494=DIRECTION('',(0.,0.,-1.));
#1495=DIRECTION('',(0.,0.,-1.));
#1496=DIRECTION('',(0.,1.,0.));
#1497=DIRECTION('',(0.,0.,1.));
#1498=DIRECTION('',(0.,1.,0.));
#1499=DIRECTION('',(0.,0.,-1.));
#1500=DIRECTION('',(0.,1.,0.));
#1501=DIRECTION('',(0.,0.,-1.));
#1502=DIRECTION('',(0.,1.,0.));
#1503=DIRECTION('',(0.,0.,1.));
#1504=DIRECTION('',(0.,-1.,0.));
#1505=DIRECTION('',(0.,0.,-1.));
#1506=DIRECTION('',(0.707106781186548,0.707106781186547,8.60796304102948E-17));
#1507=DIRECTION('',(-0.707106781186547,0.707106781186548,-8.60796304102946E-17));
#1508=DIRECTION('',(0.,-1.,0.));
#1509=DIRECTION('',(0.,0.,-1.));
#1510=DIRECTION('',(0.,0.,-1.));
#1511=DIRECTION('',(-1.,0.,0.));
#1512=DIRECTION('',(0.,0.,-1.));
#1513=DIRECTION('',(0.,0.,-1.));
#1514=DIRECTION('',(-1.,0.,0.));
#1515=DIRECTION('',(1.,0.,0.));
#1516=DIRECTION('',(0.,0.,-1.));
#1517=DIRECTION('',(0.,1.,0.));
#1518=DIRECTION('',(0.,0.,-1.));
#1519=DIRECTION('',(0.,0.,-1.));
#1520=DIRECTION('',(0.,1.,0.));
#1521=DIRECTION('',(0.,0.,-1.));
#1522=DIRECTION('',(0.,1.,0.));
#1523=DIRECTION('',(0.,0.,1.));
#1524=DIRECTION('',(0.,0.,1.));
#1525=DIRECTION('',(1.,0.,0.));
#1526=DIRECTION('',(0.,0.,-1.));
#1527=DIRECTION('',(-1.,0.,0.));
#1528=DIRECTION('',(0.,0.,-1.));
#1529=DIRECTION('',(-1.,0.,0.));
#1530=DIRECTION('',(0.,0.,1.));
#1531=DIRECTION('',(1.,0.,0.));
#1532=DIRECTION('',(0.,0.,1.));
#1533=DIRECTION('',(1.,0.,0.));
#1534=DIRECTION('',(-1.,0.,-1.21734980770302E-16));
#1535=DIRECTION('',(0.,1.,0.));
#1536=DIRECTION('',(-1.,0.,-1.21734980770302E-16));
#1537=DIRECTION('',(-0.707106781186547,0.707106781186548,0.));
#1538=DIRECTION('',(1.,0.,0.));
#1539=DIRECTION('',(-1.,0.,0.));
#1540=DIRECTION('',(0.,0.,-1.));
#1541=DIRECTION('',(-1.,0.,0.));
#1542=DIRECTION('',(-1.,0.,0.));
#1543=DIRECTION('',(1.,0.,0.));
#1544=DIRECTION('',(-0.707106781186547,-0.707106781186548,0.));
#1545=DIRECTION('',(0.,0.,-1.));
#1546=DIRECTION('',(-1.,0.,0.));
#1547=DIRECTION('',(0.,0.,1.));
#1548=DIRECTION('',(0.,0.,1.));
#1549=DIRECTION('',(0.,1.,0.));
#1550=DIRECTION('',(0.,0.,1.));
#1551=DIRECTION('',(-0.707106781186548,0.707106781186547,-8.60796304102947E-17));
#1552=DIRECTION('',(0.707106781186547,0.707106781186548,8.60796304102947E-17));
#1553=DIRECTION('',(0.,-1.,0.));
#1554=DIRECTION('',(0.,0.,-1.));
#1555=DIRECTION('',(0.,-1.,0.));
#1556=DIRECTION('',(0.,0.,-1.));
#1557=DIRECTION('',(0.,-1.,0.));
#1558=DIRECTION('',(1.,0.,0.));
#1559=DIRECTION('',(-1.21734980770302E-16,0.,1.));
#1560=DIRECTION('',(0.,-1.,0.));
#1561=DIRECTION('',(1.,0.,0.));
#1562=DIRECTION('',(1.21734980770302E-16,0.,-1.));
#1563=DIRECTION('',(0.,0.,-1.));
#1564=DIRECTION('',(-1.,0.,0.));
#1565=DIRECTION('',(0.,0.,-1.));
#1566=DIRECTION('',(0.,1.,0.));
#1567=DIRECTION('',(0.,0.,1.));
#1568=DIRECTION('',(0.,1.,0.));
#1569=DIRECTION('',(0.,0.,1.));
#1570=DIRECTION('',(0.,-1.,0.));
#1571=DIRECTION('',(1.,0.,0.));
#1572=DIRECTION('',(1.21734980770302E-16,0.,-1.));
#1573=DIRECTION('',(-1.,0.,-1.21734980770302E-16));
#1574=DIRECTION('',(0.,-1.,0.));
#1575=DIRECTION('',(1.,0.,0.));
#1576=DIRECTION('',(-1.,0.,-1.21734980770302E-16));
#1577=DIRECTION('',(1.21734980770302E-16,0.,-1.));
#1578=DIRECTION('',(0.,1.,0.));
#1579=DIRECTION('',(0.,0.,1.));
#1580=DIRECTION('',(0.,-1.,0.));
#1581=DIRECTION('',(0.,0.,-1.));
#1582=DIRECTION('',(0.,-1.,0.));
#1583=DIRECTION('',(1.,0.,0.));
#1584=DIRECTION('',(0.,-1.,0.));
#1585=DIRECTION('',(1.,0.,0.));
#1586=DIRECTION('',(0.,-1.,0.));
#1587=DIRECTION('',(0.,0.,-1.));
#1588=DIRECTION('',(0.,1.,0.));
#1589=DIRECTION('',(0.,0.,1.));
#1590=DIRECTION('',(-0.707106781186548,0.707106781186547,-8.60796304102947E-17));
#1591=DIRECTION('',(1.21734980770302E-16,0.,-1.));
#1592=DIRECTION('',(1.21734980770302E-16,0.,-1.));
#1593=DIRECTION('',(0.707106781186548,0.707106781186547,8.60796304102948E-17));
#1594=DIRECTION('',(-1.21734980770302E-16,0.,1.));
#1595=DIRECTION('',(-1.21734980770302E-16,0.,1.));
#1596=DIRECTION('',(0.,1.,0.));
#1597=DIRECTION('',(0.,0.,1.));
#1598=DIRECTION('',(1.,0.,1.21734980770302E-16));
#1599=DIRECTION('',(-1.21734980770302E-16,0.,1.));
#1600=DIRECTION('',(-1.21734980770302E-16,0.,1.));
#1601=DIRECTION('',(-1.21734980770302E-16,0.,1.));
#1602=DIRECTION('',(1.,0.,1.21734980770302E-16));
#1603=DIRECTION('',(0.,1.,0.));
#1604=DIRECTION('',(0.,-1.,0.));
#1605=DIRECTION('',(0.,0.,-1.));
#1606=DIRECTION('',(1.21734980770302E-16,0.,-1.));
#1607=DIRECTION('',(-1.,0.,-1.21734980770302E-16));
#1608=DIRECTION('',(-1.21734980770302E-16,0.,1.));
#1609=DIRECTION('',(1.,0.,1.21734980770302E-16));
#1610=DIRECTION('',(0.,1.,0.));
#1611=DIRECTION('',(-1.07184132417833E-16,0.474099823035018,0.880471099922175));
#1612=DIRECTION('',(-1.21734980770302E-16,0.,1.));
#1613=DIRECTION('',(0.,-1.,0.));
#1614=DIRECTION('',(1.21734980770302E-16,0.,-1.));
#1615=DIRECTION('',(1.07184132417833E-16,0.474099823035018,-0.880471099922175));
#1616=DIRECTION('',(0.,1.,0.));
#1617=DIRECTION('',(-1.,0.,-1.21734980770302E-16));
#1618=DIRECTION('',(-1.21734980770302E-16,0.,1.));
#1619=DIRECTION('',(-1.,0.,-1.21734980770302E-16));
#1620=DIRECTION('',(-1.21734980770302E-16,0.,1.));
#1621=DIRECTION('',(-1.,0.,-1.21734980770302E-16));
#1622=DIRECTION('',(-1.21734980770302E-16,0.,1.));
#1623=DIRECTION('',(-1.,0.,-1.21734980770302E-16));
#1624=DIRECTION('',(-1.21734980770302E-16,0.,1.));
#1625=DIRECTION('',(1.,0.,1.21734980770302E-16));
#1626=DIRECTION('',(0.,1.,0.));
#1627=DIRECTION('',(0.,1.,0.));
#1628=DIRECTION('',(-1.21734980770302E-16,-3.01167270134862E-16,1.));
#1629=DIRECTION('',(0.,1.,0.));
#1630=DIRECTION('',(-1.21734980770302E-16,-3.01167270134862E-16,1.));
#1631=DIRECTION('',(0.,1.,0.));
#1632=DIRECTION('',(1.21734980770302E-16,0.,-1.));
#1633=DIRECTION('',(-1.07184132417833E-16,-0.474099823035018,0.880471099922175));
#1634=DIRECTION('',(1.07184132417833E-16,-0.474099823035018,-0.880471099922175));
#1635=DIRECTION('',(1.21734980770302E-16,0.,-1.));
#1636=DIRECTION('',(5.77145328403716E-17,0.880471099922175,-0.474099823035018));
#1637=DIRECTION('',(1.,0.,1.21734980770302E-16));
#1638=DIRECTION('',(1.07184132417833E-16,-0.474099823035018,-0.880471099922175));
#1639=DIRECTION('',(5.77145328403716E-17,-0.880471099922175,-0.474099823035018));
#1640=DIRECTION('',(1.,0.,1.21734980770302E-16));
#1641=DIRECTION('',(-1.07184132417833E-16,-0.474099823035018,0.880471099922175));
#1642=DIRECTION('',(0.,1.,0.));
#1643=DIRECTION('',(0.,0.,1.));
#1644=DIRECTION('',(1.,0.,1.21734980770302E-16));
#1645=DIRECTION('',(1.21734980770302E-16,0.,-1.));
#1646=DIRECTION('',(0.,1.,0.));
#1647=DIRECTION('',(0.,0.,1.));
#1648=DIRECTION('',(1.21734980770302E-16,0.,-1.));
#1649=DIRECTION('',(1.,0.,1.21734980770302E-16));
#1650=DIRECTION('',(-1.,0.,-1.21734980770302E-16));
#1651=DIRECTION('',(-1.21734980770302E-16,0.,1.));
#1652=DIRECTION('',(0.,1.,0.));
#1653=DIRECTION('',(1.21734980770302E-16,0.,-1.));
#1654=DIRECTION('',(1.,0.,1.21734980770302E-16));
#1655=DIRECTION('',(-1.21734980770302E-16,0.,1.));
#1656=DIRECTION('',(1.,0.,1.21734980770302E-16));
#1657=DIRECTION('',(-1.21734980770302E-16,0.,1.));
#1658=DIRECTION('',(1.,0.,1.21734980770302E-16));
#1659=DIRECTION('',(-1.21734980770302E-16,0.,1.));
#1660=DIRECTION('',(1.,0.,1.21734980770302E-16));
#1661=DIRECTION('',(-1.21734980770302E-16,0.,1.));
#1662=DIRECTION('',(1.,0.,1.21734980770302E-16));
#1663=DIRECTION('',(0.,0.,1.));
#1664=DIRECTION('',(1.,0.,0.));
#1665=DIRECTION('',(0.,0.,-1.));
#1666=DIRECTION('',(-1.,0.,0.));
#1667=DIRECTION('',(0.,0.,-1.));
#1668=DIRECTION('',(-1.,0.,0.));
#1669=DIRECTION('',(0.,0.,1.));
#1670=DIRECTION('',(1.,0.,0.));
#1671=DIRECTION('',(0.,0.,-1.));
#1672=DIRECTION('',(-1.,0.,0.));
#1673=DIRECTION('',(0.,0.,-1.));
#1674=DIRECTION('',(-1.,0.,0.));
#1675=DIRECTION('',(-1.,0.,-1.21734980770302E-16));
#1676=DIRECTION('',(-1.21734980770302E-16,0.,1.));
#1677=DIRECTION('',(1.,0.,0.));
#1678=DIRECTION('',(0.,0.,-1.));
#1679=DIRECTION('',(-1.,0.,-1.21734980770302E-16));
#1680=DIRECTION('',(-1.21734980770302E-16,0.,1.));
#1681=DIRECTION('',(1.,0.,0.));
#1682=DIRECTION('',(0.,0.,-1.));
#1683=DIRECTION('',(-1.,0.,-1.21734980770302E-16));
#1684=DIRECTION('',(-1.21734980770302E-16,0.,1.));
#1685=DIRECTION('',(1.,0.,0.));
#1686=DIRECTION('',(0.,0.,-1.));
#1687=DIRECTION('',(-1.,0.,-1.21734980770302E-16));
#1688=DIRECTION('',(-1.21734980770302E-16,0.,1.));
#1689=DIRECTION('',(1.,0.,0.));
#1690=DIRECTION('',(0.,0.,-1.));
#1691=DIRECTION('',(0.,0.,-1.));
#1692=DIRECTION('',(-1.,0.,0.));
#1693=DIRECTION('',(-1.,0.,0.));
#1694=DIRECTION('',(0.,-1.,0.));
#1695=DIRECTION('',(-1.,0.,0.));
#1696=DIRECTION('',(0.,-1.,-1.80700362080917E-16));
#1697=DIRECTION('',(0.,1.80700362080917E-16,-1.));
#1698=DIRECTION('',(0.,-1.80700362080917E-16,1.));
#1699=DIRECTION('',(-1.,0.,0.));
#1700=DIRECTION('',(0.,1.20466908053945E-16,-1.));
#1701=DIRECTION('',(0.,1.,1.20466908053945E-16));
#1702=DIRECTION('',(0.,-1.,-1.20466908053945E-16));
#1703=DIRECTION('',(-1.,0.,0.));
#1704=DIRECTION('',(0.,-1.,-1.80700362080917E-16));
#1705=DIRECTION('',(0.,1.80700362080917E-16,-1.));
#1706=DIRECTION('',(0.,-1.80700362080917E-16,1.));
#1707=DIRECTION('',(1.,0.,0.));
#1708=DIRECTION('',(0.,1.,0.));
#1709=DIRECTION('',(0.,1.,4.8186763221578E-16));
#1710=DIRECTION('',(0.,-4.8186763221578E-16,1.));
#1711=DIRECTION('',(-1.,0.,0.));
#1712=DIRECTION('',(0.,4.8186763221578E-16,-1.));
#1713=DIRECTION('',(-1.,0.,0.));
#1714=DIRECTION('',(0.,0.,-1.));
#1715=DIRECTION('',(-1.,0.,0.));
#1716=DIRECTION('',(0.,-1.,0.));
#1717=DIRECTION('',(-1.,0.,0.));
#1718=DIRECTION('',(0.,1.,0.));
#1719=DIRECTION('',(0.,0.,1.));
#1720=DIRECTION('',(0.,0.,-1.));
#1721=DIRECTION('',(-1.,0.,0.));
#1722=DIRECTION('',(0.,0.,-1.));
#1723=DIRECTION('',(-1.,0.,0.));
#1724=DIRECTION('',(0.,-1.,0.));
#1725=DIRECTION('',(1.,0.,0.));
#1726=DIRECTION('',(0.,1.,0.));
#1727=DIRECTION('',(0.,1.,0.));
#1728=DIRECTION('',(0.,0.,1.));
#1729=DIRECTION('',(-1.,0.,0.));
#1730=DIRECTION('',(0.,0.,-1.));
#1731=DIRECTION('',(-1.,0.,0.));
#1732=DIRECTION('',(0.,0.,-1.));
#1733=DIRECTION('',(-1.,0.,0.));
#1734=DIRECTION('',(0.,-1.,0.));
#1735=DIRECTION('',(-1.,0.,0.));
#1736=DIRECTION('',(0.,1.,4.8186763221578E-16));
#1737=DIRECTION('',(0.,-4.8186763221578E-16,1.));
#1738=DIRECTION('',(0.,4.8186763221578E-16,-1.));
#1739=DIRECTION('',(-1.,0.,0.));
#1740=DIRECTION('',(0.,0.,-1.));
#1741=DIRECTION('',(-1.,0.,0.));
#1742=DIRECTION('',(0.,-1.,0.));
#1743=DIRECTION('',(1.,0.,0.));
#1744=DIRECTION('',(0.,1.,0.));
#1745=DIRECTION('',(0.,1.,3.01167270134862E-16));
#1746=DIRECTION('',(0.,-3.01167270134862E-16,1.));
#1747=DIRECTION('',(-1.,0.,0.));
#1748=DIRECTION('',(0.,3.01167270134862E-16,-1.));
#1749=DIRECTION('',(-1.,0.,0.));
#1750=DIRECTION('',(0.,0.,-1.));
#1751=DIRECTION('',(-1.,0.,0.));
#1752=DIRECTION('',(0.,-1.,0.));
#1753=DIRECTION('',(-1.,0.,0.));
#1754=DIRECTION('',(0.,1.,3.01167270134862E-16));
#1755=DIRECTION('',(0.,-3.01167270134862E-16,1.));
#1756=DIRECTION('',(0.,3.01167270134862E-16,-1.));
#1757=DIRECTION('',(-1.,0.,0.));
#1758=DIRECTION('',(0.,0.,-1.));
#1759=DIRECTION('',(-1.,0.,0.));
#1760=DIRECTION('',(0.,-1.,0.));
#1761=DIRECTION('',(1.,0.,0.));
#1762=DIRECTION('',(0.,1.,0.));
#1763=DIRECTION('',(-0.707106781186543,0.622587085393753,0.335239199827405));
#1764=DIRECTION('',(1.07184132417833E-16,0.474099823035018,-0.880471099922175));
#1765=DIRECTION('',(0.696131209772431,0.696131209772428,0.175506915993495));
#1766=DIRECTION('',(-0.651391819956915,-0.389072478834517,-0.651391819956915));
#1767=DIRECTION('',(-0.707106781186548,0.,0.707106781186548));
#1768=DIRECTION('',(0.,1.,0.));
#1769=DIRECTION('',(-0.651391819956916,0.389072478834516,-0.651391819956916));
#1770=DIRECTION('',(0.707106781186546,-0.70710678118655,8.60796304102945E-17));
#1771=DIRECTION('',(-1.21734980770302E-16,0.,1.));
#1772=DIRECTION('',(0.577350269189628,0.577350269189625,-0.577350269189625));
#1773=DIRECTION('',(-0.707106781186542,-0.622587085393753,0.335239199827405));
#1774=DIRECTION('',(-1.07184132417833E-16,0.474099823035018,0.880471099922175));
#1775=DIRECTION('',(-0.696131209772431,0.696131209772431,-0.175506915993485));
#1776=DIRECTION('',(-0.707106781186546,0.,-0.70710678118655));
#1777=DIRECTION('',(0.,1.,0.));
#1778=DIRECTION('',(0.577350269189627,-0.577350269189627,-0.577350269189624));
#1779=DIRECTION('',(0.707106781186548,0.707106781186548,8.60796304102947E-17));
#1780=DIRECTION('',(1.21734980770302E-16,0.,-1.));
#1781=CARTESIAN_POINT('',(0.,0.,0.));
#1782=CARTESIAN_POINT('',(0.023,0.,-0.009));
#1783=CARTESIAN_POINT('',(0.0447987438214664,-0.0036,-0.0014));
#1784=CARTESIAN_POINT('',(0.0453417693555009,-0.0036,-0.0037482646598124));
#1785=CARTESIAN_POINT('',(0.0456349641953854,-0.0036,-0.00619143022537899));
#1786=CARTESIAN_POINT('',(0.0456635175696367,-0.0036,-0.00859999999997778));
#1787=CARTESIAN_POINT('',(0.0447987438214664,-0.0036,-0.0014));
#1788=CARTESIAN_POINT('',(0.0456635175696366,-0.0036,-0.00859999999997775));
#1789=CARTESIAN_POINT('',(0.023,0.,-0.0086));
#1790=CARTESIAN_POINT('',(0.0456635175696366,0.0036,-0.0086));
#1791=CARTESIAN_POINT('',(0.0447987438214664,0.0036,-0.0014));
#1792=CARTESIAN_POINT('',(0.0453417693555026,0.0036,-0.00374826465981964));
#1793=CARTESIAN_POINT('',(0.0456349641953872,0.0036,-0.00619143022539391));
#1794=CARTESIAN_POINT('',(0.0456635175696369,0.0036,-0.00860000000000006));
#1795=CARTESIAN_POINT('',(0.0447987438214664,0.0036,-0.0014));
#1796=CARTESIAN_POINT('',(0.023,-9.15548501209981E-19,-0.0014));
#1797=CARTESIAN_POINT('',(0.0289988341403995,0.022151805795465,-0.00885568778734493));
#1798=CARTESIAN_POINT('',(0.0289996108213718,0.022151805795465,-0.00890375271010519));
#1799=CARTESIAN_POINT('',(0.0290000000000002,0.022151805795465,-0.0089518567246216));
#1800=CARTESIAN_POINT('',(0.0290000000000002,0.022151805795465,-0.00899999999999998));
#1801=CARTESIAN_POINT('',(0.0289988341403992,0.022151805795465,-0.00885568778734495));
#1802=CARTESIAN_POINT('',(0.029,0.022151805795465,-0.009));
#1803=CARTESIAN_POINT('',(0.0292439998523502,0.0220842696470554,-0.00899999999999998));
#1804=CARTESIAN_POINT('',(0.0291624474878814,0.0221073273691282,-0.00895186326194137));
#1805=CARTESIAN_POINT('',(0.0290807257472185,0.0221298394425394,-0.00890375892480039));
#1806=CARTESIAN_POINT('',(0.0289988341403993,0.0221518057954651,-0.00885568778734492));
#1807=CARTESIAN_POINT('',(0.0292439998523502,0.0220842696470554,-0.009));
#1808=CARTESIAN_POINT('',(0.023,0.,-0.009));
#1809=CARTESIAN_POINT('',(0.0292439998523502,-0.0220842696470554,-0.009));
#1810=CARTESIAN_POINT('',(0.0289988341403843,-0.0221518057954691,-0.00885568778733616));
#1811=CARTESIAN_POINT('',(0.0290807257472085,-0.0221298394425422,-0.00890375892479454));
#1812=CARTESIAN_POINT('',(0.0291624474878764,-0.0221073273691296,-0.00895186326193844));
#1813=CARTESIAN_POINT('',(0.0292439998523502,-0.0220842696470554,-0.00899999999999998));
#1814=CARTESIAN_POINT('',(0.0289988341403835,-0.0221518057954651,-0.00885568778733571));
#1815=CARTESIAN_POINT('',(0.0289988341403991,-0.0221518057954651,-0.00885568778733414));
#1816=CARTESIAN_POINT('',(0.0289996108213715,-0.0221518057954651,-0.008903752710098));
#1817=CARTESIAN_POINT('',(0.029,-0.0221518057954651,-0.008951856724618));
#1818=CARTESIAN_POINT('',(0.029,-0.0221518057954651,-0.009));
#1819=CARTESIAN_POINT('',(0.029,-0.0221518057954651,-0.009));
#1820=CARTESIAN_POINT('',(0.023,0.,-0.009));
#1821=CARTESIAN_POINT('',(0.017,-0.0221518057954651,-0.009));
#1822=CARTESIAN_POINT('',(0.017,-0.0221518057954651,-0.009));
#1823=CARTESIAN_POINT('',(0.017,-0.0221518057954651,-0.00802376082958117));
#1824=CARTESIAN_POINT('',(0.0173197609560153,-0.0221518057954651,-0.00606070122033322));
#1825=CARTESIAN_POINT('',(0.0182990562036203,-0.0221518057954651,-0.00432003732967001));
#1826=CARTESIAN_POINT('',(0.0189505077972809,-0.0221518057954651,-0.00358958337907667));
#1827=CARTESIAN_POINT('',(0.0189505077972585,-0.0221518057954651,-0.00358958337905829));
#1828=CARTESIAN_POINT('',(0.017,-0.0215453298695933,-0.00270549910727141));
#1829=CARTESIAN_POINT('',(0.0176443626846173,-0.0217802345338644,-0.00299054223493403));
#1830=CARTESIAN_POINT('',(0.0182946340360237,-0.0219822662399396,-0.00328509883995606));
#1831=CARTESIAN_POINT('',(0.0189505077972602,-0.0221518057954585,-0.00358958337905905));
#1832=CARTESIAN_POINT('',(0.017,-0.0215453298695933,-0.00270549910727143));
#1833=CARTESIAN_POINT('',(0.017,-0.0199499999999927,0.0028405024658185));
#1834=CARTESIAN_POINT('',(0.017,-0.0206466841635466,0.00103464943055659));
#1835=CARTESIAN_POINT('',(0.017,-0.0211795725132425,-0.000825675497444032));
#1836=CARTESIAN_POINT('',(0.017,-0.0215453298695933,-0.00270549910727142));
#1837=CARTESIAN_POINT('',(0.017,-0.01995,0.00284050246582244));
#1838=CARTESIAN_POINT('',(0.023,-0.01995,0.00500000000000007));
#1839=CARTESIAN_POINT('',(0.0219256443710934,-0.01995,0.00500000000000007));
#1840=CARTESIAN_POINT('',(0.0197558857120297,-0.01995,0.00459990018813234));
#1841=CARTESIAN_POINT('',(0.017852053306984,-0.01995,0.00350473719933381));
#1842=CARTESIAN_POINT('',(0.0170000000000106,-0.01995,0.00284050246580793));
#1843=CARTESIAN_POINT('',(0.023,-0.01995,0.005));
#1844=CARTESIAN_POINT('',(0.023,0.,0.005));
#1845=CARTESIAN_POINT('',(0.023,0.01995,0.005));
#1846=CARTESIAN_POINT('',(0.023,0.01995,0.00500000000000006));
#1847=CARTESIAN_POINT('',(0.0219256443710911,0.01995,0.00500000000000006));
#1848=CARTESIAN_POINT('',(0.0197558857120229,0.01995,0.00459990018813061));
#1849=CARTESIAN_POINT('',(0.0178520533069743,0.01995,0.00350473719932785));
#1850=CARTESIAN_POINT('',(0.0169999999999999,0.01995,0.00284050246579954));
#1851=CARTESIAN_POINT('',(0.017,0.01995,0.00284050246579942));
#1852=CARTESIAN_POINT('',(0.017,0.0215453298695933,-0.0027054991072714));
#1853=CARTESIAN_POINT('',(0.017,0.0211773558185706,-0.000814282712288048));
#1854=CARTESIAN_POINT('',(0.017,0.020646676423356,0.00103466949365703));
#1855=CARTESIAN_POINT('',(0.017,0.0199500000000001,0.00284050246579942));
#1856=CARTESIAN_POINT('',(0.017,0.0215453298695933,-0.00270549910727142));
#1857=CARTESIAN_POINT('',(0.0189505077972859,0.0221518057954652,-0.00358958337907098));
#1858=CARTESIAN_POINT('',(0.0182946340360407,0.0219822662399449,-0.00328509883996375));
#1859=CARTESIAN_POINT('',(0.0176443626846257,0.0217802345338675,-0.00299054223493774));
#1860=CARTESIAN_POINT('',(0.017,0.0215453298695933,-0.0027054991072714));
#1861=CARTESIAN_POINT('',(0.0189505077972859,0.022151805795465,-0.00358958337907103));
#1862=CARTESIAN_POINT('',(0.0169999999999998,0.022151805795465,-0.009));
#1863=CARTESIAN_POINT('',(0.0169999999999998,0.022151805795465,-0.00802376082957992));
#1864=CARTESIAN_POINT('',(0.0173197609560159,0.0221518057954651,-0.00606070122032938));
#1865=CARTESIAN_POINT('',(0.0182990562036235,0.022151805795465,-0.00432003732966451));
#1866=CARTESIAN_POINT('',(0.0189505077972858,0.022151805795465,-0.00358958337907093));
#1867=CARTESIAN_POINT('',(0.017,0.022151805795465,-0.009));
#1868=CARTESIAN_POINT('',(0.023,0.,-0.009));
#1869=CARTESIAN_POINT('',(-0.0307368300222913,-0.0221538057954651,-0.110618404078933));
#1870=CARTESIAN_POINT('',(-0.0307368300222913,0.0186,-0.110618404078933));
#1871=CARTESIAN_POINT('',(0.0464906027565356,0.0186,-0.0214));
#1872=CARTESIAN_POINT('',(0.0540981945391766,0.0186,-0.0286));
#1873=CARTESIAN_POINT('',(0.0464906027565356,-0.0221538057954651,-0.0214));
#1874=CARTESIAN_POINT('',(0.0464906027565356,0.0114,-0.0214));
#1875=CARTESIAN_POINT('',(-0.0307368300222913,0.0114,-0.110618404078933));
#1876=CARTESIAN_POINT('',(0.0540981945391766,0.0114,-0.0286));
#1877=CARTESIAN_POINT('',(0.0540981945391766,-0.0221538057954651,-0.0286));
#1878=CARTESIAN_POINT('',(-0.0307368300222913,-0.0114,-0.110618404078933));
#1879=CARTESIAN_POINT('',(0.0464906027565356,-0.0114,-0.0214));
#1880=CARTESIAN_POINT('',(0.0540981945391766,-0.0114,-0.0286));
#1881=CARTESIAN_POINT('',(0.0464906027565356,-0.0221538057954651,-0.0214));
#1882=CARTESIAN_POINT('',(0.0464906027565356,-0.0186,-0.0214));
#1883=CARTESIAN_POINT('',(-0.0307368300222913,-0.0186,-0.110618404078933));
#1884=CARTESIAN_POINT('',(0.0540981945391766,-0.0186,-0.0286));
#1885=CARTESIAN_POINT('',(0.0540981945391766,-0.0221538057954651,-0.0286));
#1886=CARTESIAN_POINT('',(-0.0307368300222913,-0.0221518057954651,-0.110618404078933));
#1887=CARTESIAN_POINT('',(0.059,-0.0221518057954651,-0.0339939867072466));
#1888=CARTESIAN_POINT('',(0.0292439998523502,0.0220842696470554,-0.009));
#1889=CARTESIAN_POINT('',(0.0315216501879292,0.0214402977799143,-0.0103443958161965));
#1890=CARTESIAN_POINT('',(0.0346686466711493,0.0200026192131738,-0.0123546628996249));
#1891=CARTESIAN_POINT('',(0.0384294339025543,0.01711497516546,-0.0149959558444536));
#1892=CARTESIAN_POINT('',(0.040914578392281,0.0144986148549833,-0.0168481193197828));
#1893=CARTESIAN_POINT('',(0.0430174980463677,0.0114339440320322,-0.0184976657586932));
#1894=CARTESIAN_POINT('',(0.0446488292305857,0.00795020881991148,-0.0198328322928073));
#1895=CARTESIAN_POINT('',(0.0457034194459559,0.00407908247121908,-0.020723205729671));
#1896=CARTESIAN_POINT('',(0.0460699587841663,6.94575673594994E-5,-0.0210378817271283));
#1897=CARTESIAN_POINT('',(0.0457163359014886,-0.00402108464701149,-0.0207343440445938));
#1898=CARTESIAN_POINT('',(0.0443303661371176,-0.00915699795773065,-0.0195630616316182));
#1899=CARTESIAN_POINT('',(0.0417622498319443,-0.0135991655698783,-0.0174806276665307));
#1900=CARTESIAN_POINT('',(0.0384771956561666,-0.0170709101515681,-0.0150307342791077));
#1901=CARTESIAN_POINT('',(0.0346992207204245,-0.0199900494258186,-0.0123740851538509));
#1902=CARTESIAN_POINT('',(0.0315236526438684,-0.0214397316151831,-0.0103455777769851));
#1903=CARTESIAN_POINT('',(0.0292439998523502,-0.0220842696470554,-0.009));
#1904=CARTESIAN_POINT('',(-0.0307368300222913,0.022151805795465,-0.110618404078933));
#1905=CARTESIAN_POINT('',(0.059,0.022151805795465,-0.0339939867072466));
#1906=CARTESIAN_POINT('',(0.059,-0.0221538057954651,-0.0339939867072466));
#1907=CARTESIAN_POINT('',(0.06825,-3.46944695195361E-18,-0.064));
#1908=CARTESIAN_POINT('',(0.0775,0.02,-0.064));
#1909=CARTESIAN_POINT('',(0.0625,0.02,-0.064));
#1910=CARTESIAN_POINT('',(0.0769,0.02,-0.064));
#1911=CARTESIAN_POINT('',(0.0769,-3.46944695195361E-18,-0.064));
#1912=CARTESIAN_POINT('',(0.0769,-0.02,-0.064));
#1913=CARTESIAN_POINT('',(0.0625,-0.02,-0.064));
#1914=CARTESIAN_POINT('',(0.0625,-0.02,-0.064));
#1915=CARTESIAN_POINT('',(0.0625,-0.032,-0.064));
#1916=CARTESIAN_POINT('',(0.0625,-0.018,-0.064));
#1917=CARTESIAN_POINT('',(0.069,-0.018,-0.064));
#1918=CARTESIAN_POINT('',(0.0755,-0.018,-0.064));
#1919=CARTESIAN_POINT('',(0.0755,0.,-0.064));
#1920=CARTESIAN_POINT('',(0.0755,0.018,-0.064));
#1921=CARTESIAN_POINT('',(0.069,0.018,-0.064));
#1922=CARTESIAN_POINT('',(0.0625,0.018,-0.064));
#1923=CARTESIAN_POINT('',(0.0625,-0.032,-0.064));
#1924=CARTESIAN_POINT('',(0.0625,-0.032,-0.047));
#1925=CARTESIAN_POINT('',(0.0625,-0.032,-0.047));
#1926=CARTESIAN_POINT('',(0.0625,-0.027,-0.047));
#1927=CARTESIAN_POINT('',(0.0625,-0.0221518057954651,-0.047));
#1928=CARTESIAN_POINT('',(0.0625,-0.027,-0.047));
#1929=CARTESIAN_POINT('',(0.059,-0.027,-0.047));
#1930=CARTESIAN_POINT('',(0.059,-0.032,-0.047));
#1931=CARTESIAN_POINT('',(0.059,-0.0221518057954651,-0.047));
#1932=CARTESIAN_POINT('',(0.0625,-0.0221518057954651,-0.047));
#1933=CARTESIAN_POINT('',(0.0625,-0.032,-0.047));
#1934=CARTESIAN_POINT('',(0.0625,-0.032,-0.047));
#1935=CARTESIAN_POINT('',(0.0625,0.022151805795465,-0.047));
#1936=CARTESIAN_POINT('',(0.0625,0.027,-0.047));
#1937=CARTESIAN_POINT('',(0.0625,0.022151805795465,-0.047));
#1938=CARTESIAN_POINT('',(0.059,0.022151805795465,-0.047));
#1939=CARTESIAN_POINT('',(0.059,-0.032,-0.047));
#1940=CARTESIAN_POINT('',(0.059,0.027,-0.047));
#1941=CARTESIAN_POINT('',(0.0625,0.027,-0.047));
#1942=CARTESIAN_POINT('',(0.017,-0.032,-0.000758230657911169));
#1943=CARTESIAN_POINT('',(0.017,0.022151805795465,-0.000758230657911169));
#1944=CARTESIAN_POINT('',(0.017,0.022151805795465,-0.00270549910727144));
#1945=CARTESIAN_POINT('',(0.017,-0.0221538057954651,-0.00270549910727143));
#1946=CARTESIAN_POINT('',(0.017,0.01995,0.000200000000000003));
#1947=CARTESIAN_POINT('',(0.017,0.01995,0.01));
#1948=CARTESIAN_POINT('',(0.017,-0.032,0.01));
#1949=CARTESIAN_POINT('',(0.017,0.032,0.01));
#1950=CARTESIAN_POINT('',(0.017,0.032,-0.000758230657911169));
#1951=CARTESIAN_POINT('',(0.017,0.032,-0.0115164613158223));
#1952=CARTESIAN_POINT('',(0.017,-0.032,-0.0115164613158223));
#1953=CARTESIAN_POINT('',(0.017,0.022151805795465,-0.0115164613158223));
#1954=CARTESIAN_POINT('',(0.017,0.022151805795465,-0.015));
#1955=CARTESIAN_POINT('',(-0.0307368300222913,-0.032,-0.110618404078933));
#1956=CARTESIAN_POINT('',(-0.0307368300222913,0.032,-0.110618404078933));
#1957=CARTESIAN_POINT('',(0.054,0.032,-0.040478047380572));
#1958=CARTESIAN_POINT('',(-0.0307368300222913,0.116736830022291,-0.110618404078933));
#1959=CARTESIAN_POINT('',(-0.0307368300222913,0.022151805795465,-0.110618404078933));
#1960=CARTESIAN_POINT('',(0.029,0.022151805795465,-0.0182522244519295));
#1961=CARTESIAN_POINT('',(0.029,0.0221518057954651,-0.0182522244519295));
#1962=CARTESIAN_POINT('',(0.0271049774400402,0.0226650883451923,-0.0170266390589874));
#1963=CARTESIAN_POINT('',(0.0231028678079188,0.0232133320122624,-0.0146106696285607));
#1964=CARTESIAN_POINT('',(0.0190517237384117,0.022707532156744,-0.0125047647195949));
#1965=CARTESIAN_POINT('',(0.017,0.0221518057954651,-0.0115164613158223));
#1966=CARTESIAN_POINT('',(0.023,0.,-0.015));
#1967=CARTESIAN_POINT('',(0.029,0.022151805795465,-0.015));
#1968=CARTESIAN_POINT('',(0.023,0.,-0.015));
#1969=CARTESIAN_POINT('',(0.017,-0.032,-0.000758230657911169));
#1970=CARTESIAN_POINT('',(0.017,-0.0221538057954651,-0.00270549910727143));
#1971=CARTESIAN_POINT('',(0.017,-0.0221518057954651,-0.00270549910727144));
#1972=CARTESIAN_POINT('',(0.017,-0.0221518057954651,-0.000758230657911169));
#1973=CARTESIAN_POINT('',(0.017,-0.022151805795465,-0.015));
#1974=CARTESIAN_POINT('',(0.017,-0.0221518057954651,-0.0115164613158223));
#1975=CARTESIAN_POINT('',(0.017,-0.032,-0.0115164613158223));
#1976=CARTESIAN_POINT('',(0.017,-0.032,-0.0115164613158223));
#1977=CARTESIAN_POINT('',(0.017,-0.032,-0.000758230657911169));
#1978=CARTESIAN_POINT('',(0.017,-0.032,0.01));
#1979=CARTESIAN_POINT('',(0.017,-0.032,0.01));
#1980=CARTESIAN_POINT('',(0.017,-0.01995,0.01));
#1981=CARTESIAN_POINT('',(0.017,-0.01995,0.000200000000000003));
#1982=CARTESIAN_POINT('',(0.038,-0.032,0.01));
#1983=CARTESIAN_POINT('',(0.041,-0.0225,0.01));
#1984=CARTESIAN_POINT('',(0.038,-0.0225,0.01));
#1985=CARTESIAN_POINT('',(0.041,0.0225,0.01));
#1986=CARTESIAN_POINT('',(0.038,0.0225,0.01));
#1987=CARTESIAN_POINT('',(0.069,0.0085,0.01));
#1988=CARTESIAN_POINT('',(0.0712,0.0085,0.01));
#1989=CARTESIAN_POINT('',(0.069,-0.0085,0.01));
#1990=CARTESIAN_POINT('',(0.0712,-0.0085,0.01));
#1991=CARTESIAN_POINT('',(0.0625,-0.027,0.01));
#1992=CARTESIAN_POINT('',(0.0769,-0.027,0.01));
#1993=CARTESIAN_POINT('',(0.059,-0.027,0.01));
#1994=CARTESIAN_POINT('',(0.0769,-0.032,0.01));
#1995=CARTESIAN_POINT('',(0.0769,0.027,0.01));
#1996=CARTESIAN_POINT('',(0.0625,0.027,0.01));
#1997=CARTESIAN_POINT('',(0.059,0.027,0.01));
#1998=CARTESIAN_POINT('',(0.078,0.008,0.01));
#1999=CARTESIAN_POINT('',(0.054,0.032,0.01));
#2000=CARTESIAN_POINT('',(0.038,0.032,0.01));
#2001=CARTESIAN_POINT('',(0.0115,0.01995,0.01));
#2002=CARTESIAN_POINT('',(0.023,0.01995,0.01));
#2003=CARTESIAN_POINT('',(0.023,0.,0.01));
#2004=CARTESIAN_POINT('',(0.023,-0.01995,0.01));
#2005=CARTESIAN_POINT('',(0.0115,-0.01995,0.01));
#2006=CARTESIAN_POINT('',(0.038,-0.032,0.01));
#2007=CARTESIAN_POINT('',(0.054,-0.032,0.01));
#2008=CARTESIAN_POINT('',(0.046,-0.04,0.01));
#2009=CARTESIAN_POINT('',(0.023,0.,-0.015));
#2010=CARTESIAN_POINT('',(0.023,-0.01995,0.000200000000000003));
#2011=CARTESIAN_POINT('',(0.023,0.01995,0.000200000000000003));
#2012=CARTESIAN_POINT('',(-0.0307368300222913,-0.032,-0.110618404078933));
#2013=CARTESIAN_POINT('',(-0.0307368300222913,-0.116736830022291,-0.110618404078933));
#2014=CARTESIAN_POINT('',(0.054,-0.032,-0.040478047380572));
#2015=CARTESIAN_POINT('',(-0.0307368300222913,-0.032,-0.110618404078933));
#2016=CARTESIAN_POINT('',(0.017,-0.0221518057954651,-0.0115164613158223));
#2017=CARTESIAN_POINT('',(0.0190471228185717,-0.0227062859595132,-0.0125025484832405));
#2018=CARTESIAN_POINT('',(0.0231098301827502,-0.0232145969934227,-0.0146141817613845));
#2019=CARTESIAN_POINT('',(0.0271099292449829,-0.0226637471078264,-0.017029841585403));
#2020=CARTESIAN_POINT('',(0.029,-0.0221518057954651,-0.0182522244519295));
#2021=CARTESIAN_POINT('',(0.029,-0.0221518057954651,-0.0182522244519295));
#2022=CARTESIAN_POINT('',(-0.0307368300222913,-0.0221518057954651,-0.110618404078933));
#2023=CARTESIAN_POINT('',(0.0295,-0.032,-0.0185));
#2024=CARTESIAN_POINT('',(0.054,-0.032,-0.0185));
#2025=CARTESIAN_POINT('',(0.0295,0.032,-0.0185));
#2026=CARTESIAN_POINT('',(0.054,0.032,-0.047));
#2027=CARTESIAN_POINT('',(0.023,0.,-0.015));
#2028=CARTESIAN_POINT('',(0.029,-0.0221518057954651,-0.015));
#2029=CARTESIAN_POINT('',(0.0115,0.01995,0.000200000000000003));
#2030=CARTESIAN_POINT('',(0.0115,-0.01995,0.000200000000000003));
#2031=CARTESIAN_POINT('',(0.017,0.022151805795465,-0.0115164613158223));
#2032=CARTESIAN_POINT('',(0.0625,0.022151805795465,-0.0185));
#2033=CARTESIAN_POINT('',(0.0625,0.022151805795465,-0.0339939867072466));
#2034=CARTESIAN_POINT('',(0.0625,0.022151805795465,-0.0339939867072466));
#2035=CARTESIAN_POINT('',(0.017,-0.0221518057954651,-0.0115164613158223));
#2036=CARTESIAN_POINT('',(0.0625,-0.0221518057954651,-0.0339939867072466));
#2037=CARTESIAN_POINT('',(0.0625,-0.0221518057954651,-0.0339939867072466));
#2038=CARTESIAN_POINT('',(0.0625,-0.0221518057954651,-0.0185));
#2039=CARTESIAN_POINT('',(-0.0307368300222913,-0.0221538057954651,-0.110618404078933));
#2040=CARTESIAN_POINT('',(-0.0307368300222913,0.022151805795465,-0.110618404078933));
#2041=CARTESIAN_POINT('',(0.017,0.022151805795465,-0.0115164613158223));
#2042=CARTESIAN_POINT('',(0.017,-0.0221518057954651,-0.0115164613158223));
#2043=CARTESIAN_POINT('',(-0.0307368300222913,-0.0221518057954651,-0.110618404078933));
#2044=CARTESIAN_POINT('',(-0.0307368300222913,-0.0221538057954651,-0.110618404078933));
#2045=CARTESIAN_POINT('',(0.059,-0.027,-0.0185));
#2046=CARTESIAN_POINT('',(0.059,-0.027,-0.0185));
#2047=CARTESIAN_POINT('',(0.054,0.032,-0.0185));
#2048=CARTESIAN_POINT('',(0.059,0.027,0.01));
#2049=CARTESIAN_POINT('',(0.0625,-0.027,-0.0185));
#2050=CARTESIAN_POINT('',(0.0775,-0.027,-0.051));
#2051=CARTESIAN_POINT('',(0.0625,-0.027,-0.051));
#2052=CARTESIAN_POINT('',(0.0769,-0.027,-0.051));
#2053=CARTESIAN_POINT('',(0.0769,-0.027,0.01));
#2054=CARTESIAN_POINT('',(0.0625,-0.027,-0.064));
#2055=CARTESIAN_POINT('',(0.0625,-0.0221538057954651,-0.0339939867072466));
#2056=CARTESIAN_POINT('',(0.0625,-0.0221538057954651,-0.0339939867072466));
#2057=CARTESIAN_POINT('',(0.0625,0.027,0.01));
#2058=CARTESIAN_POINT('',(0.0769,0.027,-0.051));
#2059=CARTESIAN_POINT('',(0.0769,0.027,-0.051));
#2060=CARTESIAN_POINT('',(0.0625,0.027,-0.051));
#2061=CARTESIAN_POINT('',(0.0625,0.027,-0.051));
#2062=CARTESIAN_POINT('',(0.0625,0.027,-0.064));
#2063=CARTESIAN_POINT('',(0.0775,-3.46944695195361E-18,-0.0185));
#2064=CARTESIAN_POINT('',(0.0775,0.033969423762065,-0.0367912281795735));
#2065=CARTESIAN_POINT('',(0.0775,0.0196416235510662,-0.0634));
#2066=CARTESIAN_POINT('',(0.0775,0.0264,-0.05084872945198));
#2067=CARTESIAN_POINT('',(0.0775,0.0264,0.01));
#2068=CARTESIAN_POINT('',(0.0775,0.0264,0.0094));
#2069=CARTESIAN_POINT('',(0.0775,-3.46944695195361E-18,0.0094));
#2070=CARTESIAN_POINT('',(0.0775,-0.0264,0.0094));
#2071=CARTESIAN_POINT('',(0.0775,-0.0264,-0.051));
#2072=CARTESIAN_POINT('',(0.0775,-0.0264,-0.05084872945198));
#2073=CARTESIAN_POINT('',(0.0775,-0.033969423762065,-0.0367912281795735));
#2074=CARTESIAN_POINT('',(0.0775,-0.0196416235510662,-0.0634));
#2075=CARTESIAN_POINT('',(0.0775,-3.46944695195361E-18,-0.0634));
#2076=CARTESIAN_POINT('',(0.0775,-2.90748213350795E-18,-0.005));
#2077=CARTESIAN_POINT('',(0.0775,-2.90748213350795E-18,-0.0029));
#2078=CARTESIAN_POINT('',(0.0775,-0.015,-0.025));
#2079=CARTESIAN_POINT('',(0.0775,-0.015,-0.0229));
#2080=CARTESIAN_POINT('',(0.0775,0.015,-0.025));
#2081=CARTESIAN_POINT('',(0.0775,0.015,-0.0229));
#2082=CARTESIAN_POINT('',(0.0775,6.34437640503502E-18,-0.045));
#2083=CARTESIAN_POINT('',(0.0775,6.34437640503502E-18,-0.0429));
#2084=CARTESIAN_POINT('',(0.0625,-3.46944695195361E-18,-0.0185));
#2085=CARTESIAN_POINT('',(0.0625,-3.46944695195361E-18,-0.0486));
#2086=CARTESIAN_POINT('',(0.0625,-0.0036,-0.0486));
#2087=CARTESIAN_POINT('',(0.0625,0.0036,-0.0486));
#2088=CARTESIAN_POINT('',(0.0625,0.0036,-0.0185));
#2089=CARTESIAN_POINT('',(0.0625,0.0036,-0.0414));
#2090=CARTESIAN_POINT('',(0.0625,-3.46944695195361E-18,-0.0414));
#2091=CARTESIAN_POINT('',(0.0625,-0.0036,-0.0414));
#2092=CARTESIAN_POINT('',(0.0625,-0.0036,-0.0185));
#2093=CARTESIAN_POINT('',(0.0625,-0.032,-0.0558));
#2094=CARTESIAN_POINT('',(0.0625,-0.018,-0.0558));
#2095=CARTESIAN_POINT('',(0.0625,0.018,-0.0558));
#2096=CARTESIAN_POINT('',(0.0625,-0.018,-0.0558));
#2097=CARTESIAN_POINT('',(0.0625,-0.02,-0.064));
#2098=CARTESIAN_POINT('',(0.0625,0.027,-0.051));
#2099=CARTESIAN_POINT('',(0.0625,0.018,-0.0558));
#2100=CARTESIAN_POINT('',(0.0625,0.027,-0.051));
#2101=CARTESIAN_POINT('',(0.0769,0.027,-0.051));
#2102=CARTESIAN_POINT('',(0.06825,-0.02,-0.064));
#2103=CARTESIAN_POINT('',(0.0769,-0.02,-0.064));
#2104=CARTESIAN_POINT('',(0.069,-0.018,-0.0558));
#2105=CARTESIAN_POINT('',(0.069,-0.018,-0.0558));
#2106=CARTESIAN_POINT('',(0.0755,-0.018,-0.0558));
#2107=CARTESIAN_POINT('',(0.0755,-0.018,-0.0558));
#2108=CARTESIAN_POINT('',(0.069,0.018,-0.0558));
#2109=CARTESIAN_POINT('',(0.0755,0.018,-0.0558));
#2110=CARTESIAN_POINT('',(0.0755,0.018,-0.0558));
#2111=CARTESIAN_POINT('',(0.069,0.018,-0.0558));
#2112=CARTESIAN_POINT('',(0.0755,0.,-0.0558));
#2113=CARTESIAN_POINT('',(0.0755,0.,-0.0558));
#2114=CARTESIAN_POINT('',(0.07,0.,-0.0558));
#2115=CARTESIAN_POINT('',(0.069,0.0085,-0.0558));
#2116=CARTESIAN_POINT('',(0.0712,0.0085,-0.0558));
#2117=CARTESIAN_POINT('',(0.069,-0.0085,-0.0558));
#2118=CARTESIAN_POINT('',(0.0712,-0.0085,-0.0558));
#2119=CARTESIAN_POINT('',(0.069,-0.0085,-0.064));
#2120=CARTESIAN_POINT('',(0.069,0.0085,-0.064));
#2121=CARTESIAN_POINT('',(0.041,0.0225,-0.005));
#2122=CARTESIAN_POINT('',(0.041,0.0225,-0.00680258185708269));
#2123=CARTESIAN_POINT('',(0.041,0.0225,-0.005));
#2124=CARTESIAN_POINT('',(0.038,0.0225,-0.005));
#2125=CARTESIAN_POINT('',(0.041,0.0225,0.01));
#2126=CARTESIAN_POINT('',(0.041,-0.0225,-0.005));
#2127=CARTESIAN_POINT('',(0.041,-0.0225,-0.00680258185708269));
#2128=CARTESIAN_POINT('',(0.041,-0.0225,-0.005));
#2129=CARTESIAN_POINT('',(0.038,-0.0225,-0.005));
#2130=CARTESIAN_POINT('',(0.041,-0.0225,0.01));
#2131=CARTESIAN_POINT('',(0.0775,6.34437640503502E-18,-0.045));
#2132=CARTESIAN_POINT('',(0.068,6.34437640503502E-18,-0.045));
#2133=CARTESIAN_POINT('',(0.068,6.34437640503502E-18,-0.0471));
#2134=CARTESIAN_POINT('',(0.0775,0.015,-0.025));
#2135=CARTESIAN_POINT('',(0.068,0.015,-0.025));
#2136=CARTESIAN_POINT('',(0.068,0.015,-0.0271));
#2137=CARTESIAN_POINT('',(0.0775,-0.015,-0.025));
#2138=CARTESIAN_POINT('',(0.068,-0.015,-0.025));
#2139=CARTESIAN_POINT('',(0.068,-0.015,-0.0271));
#2140=CARTESIAN_POINT('',(0.0775,-2.90748213350795E-18,-0.005));
#2141=CARTESIAN_POINT('',(0.068,-2.90748213350795E-18,-0.005));
#2142=CARTESIAN_POINT('',(0.068,-2.90748213350795E-18,-0.0071));
#2143=CARTESIAN_POINT('',(0.068,-1.45283091113058E-17,-0.0086));
#2144=CARTESIAN_POINT('',(0.068,-0.0036,-0.0086));
#2145=CARTESIAN_POINT('',(0.068,-0.0036,-0.0086));
#2146=CARTESIAN_POINT('',(0.068,-1.45283091113058E-17,-0.0086));
#2147=CARTESIAN_POINT('',(0.068,0.0036,-0.0086));
#2148=CARTESIAN_POINT('',(0.068,0.0036,-0.0086));
#2149=CARTESIAN_POINT('',(0.068,0.0036,-0.005));
#2150=CARTESIAN_POINT('',(0.068,0.0036,-0.005));
#2151=CARTESIAN_POINT('',(0.068,0.0036,-0.0014));
#2152=CARTESIAN_POINT('',(0.068,0.0036,-0.0014));
#2153=CARTESIAN_POINT('',(0.068,-1.56125112837912E-17,-0.0014));
#2154=CARTESIAN_POINT('',(0.068,-1.56125112837912E-17,-0.0014));
#2155=CARTESIAN_POINT('',(0.068,-0.0036,-0.0014));
#2156=CARTESIAN_POINT('',(0.068,-0.0036,-0.0014));
#2157=CARTESIAN_POINT('',(0.068,-0.0036,-0.005));
#2158=CARTESIAN_POINT('',(0.068,-0.0036,-0.005));
#2159=CARTESIAN_POINT('',(0.068,0.,-0.025));
#2160=CARTESIAN_POINT('',(0.068,-0.0114,-0.025));
#2161=CARTESIAN_POINT('',(0.068,-0.0114,-0.0286));
#2162=CARTESIAN_POINT('',(0.068,-0.0114,-0.0286));
#2163=CARTESIAN_POINT('',(0.068,-0.0114,-0.025));
#2164=CARTESIAN_POINT('',(0.068,-0.0114,-0.0214));
#2165=CARTESIAN_POINT('',(0.068,-0.0114,-0.0214));
#2166=CARTESIAN_POINT('',(0.068,-0.015,-0.0214));
#2167=CARTESIAN_POINT('',(0.068,-0.015,-0.0214));
#2168=CARTESIAN_POINT('',(0.068,-0.0186,-0.0214));
#2169=CARTESIAN_POINT('',(0.068,-0.0186,-0.0214));
#2170=CARTESIAN_POINT('',(0.068,-0.0186,-0.025));
#2171=CARTESIAN_POINT('',(0.068,-0.0186,-0.025));
#2172=CARTESIAN_POINT('',(0.068,-0.0186,-0.0286));
#2173=CARTESIAN_POINT('',(0.068,-0.0186,-0.0286));
#2174=CARTESIAN_POINT('',(0.068,-0.015,-0.0286));
#2175=CARTESIAN_POINT('',(0.068,-0.015,-0.0286));
#2176=CARTESIAN_POINT('',(0.068,0.,-0.025));
#2177=CARTESIAN_POINT('',(0.068,0.0186,-0.025));
#2178=CARTESIAN_POINT('',(0.068,0.0186,-0.0286));
#2179=CARTESIAN_POINT('',(0.068,0.0186,-0.0286));
#2180=CARTESIAN_POINT('',(0.068,0.0186,-0.025));
#2181=CARTESIAN_POINT('',(0.068,0.0186,-0.0214));
#2182=CARTESIAN_POINT('',(0.068,0.0186,-0.0214));
#2183=CARTESIAN_POINT('',(0.068,0.015,-0.0214));
#2184=CARTESIAN_POINT('',(0.068,0.015,-0.0214));
#2185=CARTESIAN_POINT('',(0.068,0.0114,-0.0214));
#2186=CARTESIAN_POINT('',(0.068,0.0114,-0.0214));
#2187=CARTESIAN_POINT('',(0.068,0.0114,-0.025));
#2188=CARTESIAN_POINT('',(0.068,0.0114,-0.025));
#2189=CARTESIAN_POINT('',(0.068,0.0114,-0.0286));
#2190=CARTESIAN_POINT('',(0.068,0.0114,-0.0286));
#2191=CARTESIAN_POINT('',(0.068,0.015,-0.0286));
#2192=CARTESIAN_POINT('',(0.068,0.015,-0.0286));
#2193=CARTESIAN_POINT('',(0.068,0.,-0.025));
#2194=CARTESIAN_POINT('',(0.068,0.0036,-0.045));
#2195=CARTESIAN_POINT('',(0.068,0.0036,-0.0486));
#2196=CARTESIAN_POINT('',(0.068,0.0036,-0.0486));
#2197=CARTESIAN_POINT('',(0.068,0.0036,-0.045));
#2198=CARTESIAN_POINT('',(0.068,0.0036,-0.0414));
#2199=CARTESIAN_POINT('',(0.068,0.0036,-0.0414));
#2200=CARTESIAN_POINT('',(0.068,-1.43114686768087E-17,-0.0414));
#2201=CARTESIAN_POINT('',(0.068,-1.43114686768087E-17,-0.0414));
#2202=CARTESIAN_POINT('',(0.068,-0.0036,-0.0414));
#2203=CARTESIAN_POINT('',(0.068,-0.0036,-0.0414));
#2204=CARTESIAN_POINT('',(0.068,-0.0036,-0.045));
#2205=CARTESIAN_POINT('',(0.068,-0.0036,-0.045));
#2206=CARTESIAN_POINT('',(0.068,-0.0036,-0.0486));
#2207=CARTESIAN_POINT('',(0.068,-0.0036,-0.0486));
#2208=CARTESIAN_POINT('',(0.068,-1.56125112837912E-17,-0.0486));
#2209=CARTESIAN_POINT('',(0.068,-1.56125112837912E-17,-0.0486));
#2210=CARTESIAN_POINT('',(0.068,0.,-0.025));
#2211=CARTESIAN_POINT('',(0.0775,-0.033969423762065,-0.0367912281795735));
#2212=CARTESIAN_POINT('',(0.0755493544296162,-0.0283506455703838,-0.0513405214926879));
#2213=CARTESIAN_POINT('',(0.0824779461653914,-0.0166683257681715,-0.0584220538346086));
#2214=CARTESIAN_POINT('',(0.0775,-3.46944695195361E-18,-0.0634));
#2215=CARTESIAN_POINT('',(0.0851591845876154,0.0150668379273355,-0.0557408154123846));
#2216=CARTESIAN_POINT('',(0.0775,-0.0264,-0.0185));
#2217=CARTESIAN_POINT('',(0.0868,-0.0171,0.000100000000000041));
#2218=CARTESIAN_POINT('',(0.0775,0.033969423762065,-0.0367912281795735));
#2219=CARTESIAN_POINT('',(0.0755493544296161,0.0283506455703839,-0.0513405214926879));
#2220=CARTESIAN_POINT('',(0.0769,-0.032,0.01));
#2221=CARTESIAN_POINT('',(0.0965666666666667,0.00733333333333326,-0.00966666666666663));
#2222=CARTESIAN_POINT('',(0.0775,0.0264,-0.0185));
#2223=MECHANICAL_DESIGN_GEOMETRIC_PRESENTATION_REPRESENTATION('',(#1314),
#2224);
#2224=(
GEOMETRIC_REPRESENTATION_CONTEXT(3)
GLOBAL_UNCERTAINTY_ASSIGNED_CONTEXT((#2225))
GLOBAL_UNIT_ASSIGNED_CONTEXT((#2228,#2227,#2226))
REPRESENTATION_CONTEXT('Head Attachment','TOP_LEVEL_ASSEMBLY_PART')
);
#2225=UNCERTAINTY_MEASURE_WITH_UNIT(LENGTH_MEASURE(2.E-5),#2228,
'DISTANCE_ACCURACY_VALUE','Maximum Tolerance applied to model');
#2226=(
NAMED_UNIT(*)
SI_UNIT($,.STERADIAN.)
SOLID_ANGLE_UNIT()
);
#2227=(
NAMED_UNIT(*)
PLANE_ANGLE_UNIT()
SI_UNIT($,.RADIAN.)
);
#2228=(
LENGTH_UNIT()
NAMED_UNIT(*)
SI_UNIT($,.METRE.)
);
#2229=PRODUCT_DEFINITION_SHAPE('','',#2230);
#2230=PRODUCT_DEFINITION('','',#2232,#2231);
#2231=PRODUCT_DEFINITION_CONTEXT('',#2238,'design');
#2232=PRODUCT_DEFINITION_FORMATION_WITH_SPECIFIED_SOURCE('','',#2234,
 .NOT_KNOWN.);
#2233=PRODUCT_RELATED_PRODUCT_CATEGORY('','',(#2234));
#2234=PRODUCT('Head Attachment','Head Attachment','Head Attachment',(#2236));
#2235=PRODUCT_CATEGORY('','');
#2236=PRODUCT_CONTEXT('',#2238,'mechanical');
#2237=APPLICATION_PROTOCOL_DEFINITION('international standard',
'ap242_managed_model_based_3d_engineering',2011,#2238);
#2238=APPLICATION_CONTEXT('managed model based 3d engineering');
ENDSEC;
END-ISO-10303-21;
