ISO-10303-21;
HEADER;
/* Generated by software containing ST-Developer
 * from STEP Tools, Inc. (www.steptools.com) 
 */
/* OPTION: using custom renumber hook */

FILE_DESCRIPTION(
/* description */ ('STEP AP242',
'CAx-IF Rec.Pracs.---Representation and Presentation of Product Manufa
cturing Information (PMI)---4.0---2014-10-13',
'CAx-IF Rec.Pracs.---3D Tessellated Geometry---0.4---2014-09-14','2;1',
'CAx-IF Rec.Pracs.---User Defined Attributes---1.5---2016-08-15'),
/* implementation_level */ '2;1');

FILE_NAME(
/* name */ '69065e80ee2a6d5daf039006',
/* time_stamp */ '2025-11-01T19:24:49Z',
/* author */ (''),
/* organization */ (''),
/* preprocessor_version */ 'ST-DEVELOPER v20',
/* originating_system */ 'ONSHAPE BY PTC INC, 1.206',
/* authorisation */ '  ');

FILE_SCHEMA (('AP242_MANAGED_MODEL_BASED_3D_ENGINEERING_MIM_LF { 1 0 10303 442 1 1 4 }'));
ENDSEC;

DATA;
#10=SHAPE_REPRESENTATION_RELATIONSHIP('','',#686,#11);
#11=ADVANCED_BREP_SHAPE_REPRESENTATION('',(#684),#1576);
#12=CONICAL_SURFACE('',#737,0.0199,0.78539816339745);
#13=CONICAL_SURFACE('',#738,0.0207,0.785398163397449);
#14=B_SPLINE_CURVE_WITH_KNOTS('',3,(#979,#980,#981,#982,#983,#984,#985,
#986,#987),.UNSPECIFIED.,.F.,.F.,(4,1,1,1,1,1,4),(0.,0.25,0.375,0.5,0.625,
0.75,1.),.UNSPECIFIED.);
#15=B_SPLINE_CURVE_WITH_KNOTS('',3,(#991,#992,#993,#994,#995,#996,#997,
#998,#999),.UNSPECIFIED.,.F.,.F.,(4,1,1,1,1,1,4),(0.,0.25,0.375,0.5,0.625,
0.75,1.),.UNSPECIFIED.);
#16=B_SPLINE_CURVE_WITH_KNOTS('',3,(#1018,#1019,#1020,#1021,#1022,#1023,
#1024,#1025,#1026),.UNSPECIFIED.,.F.,.F.,(4,1,1,1,1,1,4),(0.,0.25,0.375,
0.5,0.625,0.75,1.),.UNSPECIFIED.);
#17=B_SPLINE_CURVE_WITH_KNOTS('',3,(#1030,#1031,#1032,#1033,#1034,#1035,
#1036,#1037,#1038),.UNSPECIFIED.,.F.,.F.,(4,1,1,1,1,1,4),(0.,0.25,0.375,
0.5,0.625,0.75,1.),.UNSPECIFIED.);
#18=B_SPLINE_CURVE_WITH_KNOTS('',3,(#1070,#1071,#1072,#1073,#1074,#1075,
#1076,#1077,#1078,#1079,#1080,#1081,#1082,#1083,#1084,#1085,#1086,#1087,
#1088,#1089,#1090,#1091,#1092,#1093,#1094,#1095,#1096,#1097,#1098,#1099,
#1100,#1101,#1102,#1103,#1104,#1105,#1106,#1107,#1108,#1109,#1110,#1111,
#1112,#1113,#1114,#1115,#1116,#1117,#1118,#1119,#1120),.UNSPECIFIED.,.F.,
 .F.,(4,1,1,1,1,1,1,1,1,1,1,1,1,1,1,1,1,1,1,1,1,1,1,1,1,1,1,1,1,1,1,1,1,
1,1,1,1,1,1,1,1,1,1,1,1,1,1,1,4),(0.,0.0625,0.09375,0.109375,0.125,0.140625,
0.15625,0.1875,0.21875,0.234375,0.25,0.265625,0.28125,0.296875,0.3046875,
0.3125,0.3203125,0.328125,0.34375,0.359375,0.3671875,0.37109375,0.375,0.37890625,
0.3828125,0.390625,0.40625,0.421875,0.4375,0.46875,0.484375,0.4921875,0.5,
0.5078125,0.515625,0.53125,0.5625,0.59375,0.609375,0.625,0.640625,0.65625,
0.6875,0.71875,0.75,0.78125,0.8125,0.875,1.),.UNSPECIFIED.);
#19=B_SPLINE_CURVE_WITH_KNOTS('',3,(#1123,#1124,#1125,#1126,#1127,#1128,
#1129,#1130,#1131,#1132,#1133,#1134,#1135,#1136,#1137,#1138,#1139,#1140,
#1141,#1142,#1143,#1144,#1145,#1146,#1147,#1148,#1149,#1150,#1151,#1152,
#1153,#1154,#1155,#1156,#1157,#1158,#1159,#1160,#1161,#1162,#1163,#1164,
#1165,#1166,#1167,#1168,#1169),.UNSPECIFIED.,.F.,.F.,(4,1,1,1,1,1,1,1,1,
1,1,1,1,1,1,1,1,1,1,1,1,1,1,1,1,1,1,1,1,1,1,1,1,1,1,1,1,1,1,1,1,1,1,1,4),
(0.,0.125,0.1875,0.21875,0.25,0.28125,0.3125,0.34375,0.359375,0.375,0.390625,
0.40625,0.4375,0.46875,0.484375,0.4921875,0.5,0.5078125,0.515625,0.53125,
0.5625,0.578125,0.59375,0.609375,0.6171875,0.62109375,0.625,0.62890625,
0.6328125,0.640625,0.65625,0.671875,0.6875,0.703125,0.71875,0.75,0.78125,
0.8125,0.84375,0.859375,0.875,0.890625,0.90625,0.9375,1.),.UNSPECIFIED.);
#20=B_SPLINE_CURVE_WITH_KNOTS('',3,(#1188,#1189,#1190,#1191,#1192,#1193,
#1194,#1195,#1196,#1197,#1198,#1199,#1200,#1201,#1202,#1203,#1204,#1205,
#1206,#1207,#1208,#1209,#1210,#1211,#1212,#1213,#1214,#1215,#1216,#1217,
#1218,#1219,#1220,#1221,#1222,#1223,#1224,#1225,#1226,#1227,#1228,#1229,
#1230,#1231,#1232,#1233,#1234,#1235,#1236,#1237,#1238,#1239,#1240,#1241,
#1242,#1243,#1244),.UNSPECIFIED.,.F.,.F.,(4,1,1,1,1,1,1,1,1,1,1,1,1,1,1,
1,1,1,1,1,1,1,1,1,1,1,1,1,1,1,1,1,1,1,1,1,1,1,1,1,1,1,1,1,1,1,1,1,1,1,1,
1,1,1,4),(0.,0.0625,0.09375,0.109375,0.125,0.140625,0.15625,0.1875,0.25,
0.28125,0.296875,0.3125,0.328125,0.34375,0.359375,0.3671875,0.375,0.3828125,
0.390625,0.40625,0.421875,0.4296875,0.43359375,0.435546875,0.4375,0.439453125,
0.44140625,0.4453125,0.453125,0.4609375,0.46875,0.484375,0.4921875,0.49609375,
0.5,0.50390625,0.5078125,0.515625,0.53125,0.546875,0.5625,0.59375,0.609375,
0.6171875,0.625,0.6328125,0.640625,0.65625,0.6875,0.71875,0.75,0.78125,
0.8125,0.875,1.),.UNSPECIFIED.);
#21=B_SPLINE_CURVE_WITH_KNOTS('',3,(#1246,#1247,#1248,#1249,#1250,#1251,
#1252,#1253,#1254,#1255,#1256,#1257,#1258,#1259,#1260,#1261,#1262,#1263,
#1264,#1265,#1266,#1267,#1268,#1269,#1270,#1271,#1272,#1273,#1274,#1275,
#1276,#1277,#1278,#1279,#1280,#1281,#1282,#1283,#1284,#1285,#1286,#1287,
#1288,#1289,#1290,#1291,#1292,#1293,#1294,#1295,#1296,#1297,#1298,#1299,
#1300,#1301,#1302,#1303,#1304),.UNSPECIFIED.,.F.,.F.,(4,1,1,1,1,1,1,1,1,
1,1,1,1,1,1,1,1,1,1,1,1,1,1,1,1,1,1,1,1,1,1,1,1,1,1,1,1,1,1,1,1,1,1,1,1,
1,1,1,1,1,1,1,1,1,1,1,4),(0.,0.125,0.1875,0.21875,0.25,0.28125,0.3125,0.34375,
0.359375,0.3671875,0.375,0.3828125,0.390625,0.40625,0.4375,0.453125,0.46875,
0.484375,0.4921875,0.49609375,0.5,0.50390625,0.5078125,0.515625,0.53125,
0.5390625,0.546875,0.5546875,0.55859375,0.560546875,0.5625,0.564453125,
0.56640625,0.5703125,0.578125,0.5859375,0.59375,0.609375,0.6171875,0.625,
0.6328125,0.640625,0.65625,0.6875,0.71875,0.734375,0.75,0.765625,0.78125,
0.8125,0.84375,0.859375,0.875,0.890625,0.90625,0.9375,1.),.UNSPECIFIED.);
#22=B_SPLINE_CURVE_WITH_KNOTS('',3,(#1331,#1332,#1333,#1334),
 .UNSPECIFIED.,.F.,.F.,(4,4),(0.,1.),.UNSPECIFIED.);
#23=B_SPLINE_CURVE_WITH_KNOTS('',3,(#1336,#1337,#1338,#1339),
 .UNSPECIFIED.,.F.,.F.,(4,4),(0.,1.),.UNSPECIFIED.);
#24=B_SPLINE_CURVE_WITH_KNOTS('',3,(#1388,#1389,#1390,#1391),
 .UNSPECIFIED.,.F.,.F.,(4,4),(0.,1.),.UNSPECIFIED.);
#25=B_SPLINE_CURVE_WITH_KNOTS('',3,(#1470,#1471,#1472,#1473),
 .UNSPECIFIED.,.F.,.F.,(4,4),(0.,1.),.UNSPECIFIED.);
#26=B_SPLINE_CURVE_WITH_KNOTS('',3,(#1475,#1476,#1477,#1478),
 .UNSPECIFIED.,.F.,.F.,(4,4),(0.,1.),.UNSPECIFIED.);
#27=B_SPLINE_CURVE_WITH_KNOTS('',3,(#1519,#1520,#1521,#1522),
 .UNSPECIFIED.,.F.,.F.,(4,4),(0.,1.),.UNSPECIFIED.);
#28=B_SPLINE_SURFACE_WITH_KNOTS('',3,1,((#961,#962),(#963,#964),(#965,#966),
(#967,#968),(#969,#970),(#971,#972),(#973,#974),(#975,#976),(#977,#978)),
 .SURF_OF_LINEAR_EXTRUSION.,.F.,.F.,.F.,(4,1,1,1,1,1,4),(2,2),(0.,0.25,
0.375,0.5,0.625,0.75,1.),(0.,1.),.UNSPECIFIED.);
#29=B_SPLINE_SURFACE_WITH_KNOTS('',3,1,((#1000,#1001),(#1002,#1003),(#1004,
#1005),(#1006,#1007),(#1008,#1009),(#1010,#1011),(#1012,#1013),(#1014,#1015),
(#1016,#1017)),.SURF_OF_LINEAR_EXTRUSION.,.F.,.F.,.F.,(4,1,1,1,1,1,4),(2,
2),(0.,0.25,0.375,0.5,0.625,0.75,1.),(0.,1.),.UNSPECIFIED.);
#30=B_SPLINE_SURFACE_WITH_KNOTS('',1,3,((#1340,#1341,#1342,#1343,#1344,
#1345,#1346,#1347,#1348,#1349,#1350,#1351,#1352,#1353,#1354,#1355,#1356,
#1357,#1358,#1359,#1360,#1361,#1362,#1363),(#1364,#1365,#1366,#1367,#1368,
#1369,#1370,#1371,#1372,#1373,#1374,#1375,#1376,#1377,#1378,#1379,#1380,
#1381,#1382,#1383,#1384,#1385,#1386,#1387)),.RULED_SURF.,.F.,.F.,.F.,(2,
2),(4,2,2,2,2,2,2,2,2,2,2,4),(0.,1.),(0.,0.00232560695775317,0.00465121391550635,
0.00697682087325952,0.00930242783101269,0.0116280347887659,0.013953641746519,
0.0162792487042722,0.0186048556620254,0.0232560695775317,0.027907283493038,
0.0372097113240507),.UNSPECIFIED.);
#31=B_SPLINE_SURFACE_WITH_KNOTS('',1,3,((#1392,#1393,#1394,#1395,#1396,
#1397,#1398,#1399,#1400,#1401,#1402,#1403,#1404,#1405,#1406,#1407,#1408,
#1409,#1410,#1411,#1412,#1413,#1414,#1415),(#1416,#1417,#1418,#1419,#1420,
#1421,#1422,#1423,#1424,#1425,#1426,#1427,#1428,#1429,#1430,#1431,#1432,
#1433,#1434,#1435,#1436,#1437,#1438,#1439)),.RULED_SURF.,.F.,.F.,.F.,(2,
2),(4,2,2,2,2,2,2,2,2,2,2,4),(0.,1.),(0.,0.00468957702073487,0.0070343655311023,
0.00937915404146973,0.0117239425518372,0.0140687310622046,0.0164135195725721,
0.0187583080829395,0.0234478851036743,0.0281374621244092,0.032827039145144,
0.0375166161658789),.UNSPECIFIED.);
#32=B_SPLINE_SURFACE_WITH_KNOTS('',1,3,((#1479,#1480,#1481,#1482,#1483,
#1484,#1485,#1486,#1487,#1488,#1489,#1490,#1491,#1492,#1493,#1494,#1495,
#1496,#1497,#1498),(#1499,#1500,#1501,#1502,#1503,#1504,#1505,#1506,#1507,
#1508,#1509,#1510,#1511,#1512,#1513,#1514,#1515,#1516,#1517,#1518)),
 .RULED_SURF.,.F.,.F.,.F.,(2,2),(4,2,2,2,2,2,2,2,2,4),(0.,1.),(0.,0.00509611131171306,
0.00764416696756959,0.0101922226234261,0.0152883339351392,0.0203844452468523,
0.0254805565585653,0.0305766678702783,0.0356727791819915,0.0407688904937045),
 .UNSPECIFIED.);
#33=B_SPLINE_SURFACE_WITH_KNOTS('',1,3,((#1523,#1524,#1525,#1526,#1527,
#1528,#1529,#1530,#1531,#1532,#1533,#1534,#1535,#1536,#1537,#1538,#1539,
#1540,#1541,#1542,#1543,#1544,#1545,#1546,#1547,#1548),(#1549,#1550,#1551,
#1552,#1553,#1554,#1555,#1556,#1557,#1558,#1559,#1560,#1561,#1562,#1563,
#1564,#1565,#1566,#1567,#1568,#1569,#1570,#1571,#1572,#1573,#1574)),
 .RULED_SURF.,.F.,.F.,.F.,(2,2),(4,2,2,2,2,2,2,2,2,2,2,2,4),(0.,1.),(0.,
0.00254595283562318,0.00509190567124637,0.00763785850686956,0.0101838113424927,
0.0127297641781159,0.0152757170137391,0.0178216698493623,0.0203676226849855,
0.0254595283562318,0.0305514340274782,0.0356433396987246,0.040735245369971),
 .UNSPECIFIED.);
#34=LINE('',#935,#83);
#35=LINE('',#938,#84);
#36=LINE('',#940,#85);
#37=LINE('',#942,#86);
#38=LINE('',#944,#87);
#39=LINE('',#946,#88);
#40=LINE('',#948,#89);
#41=LINE('',#950,#90);
#42=LINE('',#952,#91);
#43=LINE('',#954,#92);
#44=LINE('',#956,#93);
#45=LINE('',#958,#94);
#46=LINE('',#960,#95);
#47=LINE('',#989,#96);
#48=LINE('',#1028,#97);
#49=LINE('',#1040,#98);
#50=LINE('',#1042,#99);
#51=LINE('',#1044,#100);
#52=LINE('',#1046,#101);
#53=LINE('',#1048,#102);
#54=LINE('',#1050,#103);
#55=LINE('',#1057,#104);
#56=LINE('',#1058,#105);
#57=LINE('',#1171,#106);
#58=LINE('',#1173,#107);
#59=LINE('',#1175,#108);
#60=LINE('',#1177,#109);
#61=LINE('',#1179,#110);
#62=LINE('',#1181,#111);
#63=LINE('',#1183,#112);
#64=LINE('',#1185,#113);
#65=LINE('',#1306,#114);
#66=LINE('',#1308,#115);
#67=LINE('',#1310,#116);
#68=LINE('',#1312,#117);
#69=LINE('',#1314,#118);
#70=LINE('',#1316,#119);
#71=LINE('',#1320,#120);
#72=LINE('',#1321,#121);
#73=LINE('',#1323,#122);
#74=LINE('',#1325,#123);
#75=LINE('',#1327,#124);
#76=LINE('',#1329,#125);
#77=LINE('',#1459,#126);
#78=LINE('',#1460,#127);
#79=LINE('',#1462,#128);
#80=LINE('',#1464,#129);
#81=LINE('',#1466,#130);
#82=LINE('',#1468,#131);
#83=VECTOR('',#774,1.);
#84=VECTOR('',#775,1.);
#85=VECTOR('',#776,1.);
#86=VECTOR('',#777,1.);
#87=VECTOR('',#780,1.);
#88=VECTOR('',#781,1.);
#89=VECTOR('',#782,1.);
#90=VECTOR('',#785,1.);
#91=VECTOR('',#786,1.);
#92=VECTOR('',#787,1.);
#93=VECTOR('',#790,1.);
#94=VECTOR('',#791,1.);
#95=VECTOR('',#792,1.);
#96=VECTOR('',#793,1.);
#97=VECTOR('',#794,1.);
#98=VECTOR('',#797,1.);
#99=VECTOR('',#798,1.);
#100=VECTOR('',#799,1.);
#101=VECTOR('',#802,1.);
#102=VECTOR('',#803,1.);
#103=VECTOR('',#804,1.);
#104=VECTOR('',#813,1.);
#105=VECTOR('',#814,1.);
#106=VECTOR('',#827,1.);
#107=VECTOR('',#828,1.);
#108=VECTOR('',#829,1.);
#109=VECTOR('',#830,1.);
#110=VECTOR('',#831,1.);
#111=VECTOR('',#832,1.);
#112=VECTOR('',#833,1.);
#113=VECTOR('',#836,1.);
#114=VECTOR('',#837,1.);
#115=VECTOR('',#838,1.);
#116=VECTOR('',#839,1.);
#117=VECTOR('',#840,1.);
#118=VECTOR('',#841,1.);
#119=VECTOR('',#842,1.);
#120=VECTOR('',#847,1.);
#121=VECTOR('',#848,1.);
#122=VECTOR('',#851,1.);
#123=VECTOR('',#854,1.);
#124=VECTOR('',#857,1.);
#125=VECTOR('',#860,1.);
#126=VECTOR('',#895,1.);
#127=VECTOR('',#896,1.);
#128=VECTOR('',#899,1.);
#129=VECTOR('',#902,1.);
#130=VECTOR('',#905,1.);
#131=VECTOR('',#908,1.);
#132=PLANE('',#700);
#133=PLANE('',#701);
#134=PLANE('',#702);
#135=PLANE('',#703);
#136=PLANE('',#704);
#137=PLANE('',#705);
#138=PLANE('',#709);
#139=PLANE('',#710);
#140=PLANE('',#716);
#141=PLANE('',#718);
#142=PLANE('',#719);
#143=PLANE('',#720);
#144=PLANE('',#721);
#145=PLANE('',#722);
#146=PLANE('',#723);
#147=PLANE('',#724);
#148=PLANE('',#727);
#149=PLANE('',#730);
#150=PLANE('',#733);
#151=PLANE('',#736);
#152=PLANE('',#739);
#153=PLANE('',#740);
#154=PLANE('',#741);
#155=PLANE('',#742);
#156=PLANE('',#743);
#157=PLANE('',#744);
#158=PLANE('',#745);
#159=ORIENTED_EDGE('',*,*,#325,.F.);
#160=ORIENTED_EDGE('',*,*,#326,.T.);
#161=ORIENTED_EDGE('',*,*,#327,.F.);
#162=ORIENTED_EDGE('',*,*,#328,.T.);
#163=ORIENTED_EDGE('',*,*,#329,.F.);
#164=ORIENTED_EDGE('',*,*,#330,.T.);
#165=ORIENTED_EDGE('',*,*,#331,.F.);
#166=ORIENTED_EDGE('',*,*,#332,.T.);
#167=ORIENTED_EDGE('',*,*,#333,.T.);
#168=ORIENTED_EDGE('',*,*,#334,.T.);
#169=ORIENTED_EDGE('',*,*,#335,.F.);
#170=ORIENTED_EDGE('',*,*,#336,.T.);
#171=ORIENTED_EDGE('',*,*,#335,.T.);
#172=ORIENTED_EDGE('',*,*,#337,.T.);
#173=ORIENTED_EDGE('',*,*,#338,.F.);
#174=ORIENTED_EDGE('',*,*,#339,.T.);
#175=ORIENTED_EDGE('',*,*,#338,.T.);
#176=ORIENTED_EDGE('',*,*,#340,.T.);
#177=ORIENTED_EDGE('',*,*,#341,.F.);
#178=ORIENTED_EDGE('',*,*,#342,.T.);
#179=ORIENTED_EDGE('',*,*,#341,.T.);
#180=ORIENTED_EDGE('',*,*,#343,.T.);
#181=ORIENTED_EDGE('',*,*,#344,.F.);
#182=ORIENTED_EDGE('',*,*,#345,.T.);
#183=ORIENTED_EDGE('',*,*,#344,.T.);
#184=ORIENTED_EDGE('',*,*,#346,.T.);
#185=ORIENTED_EDGE('',*,*,#347,.F.);
#186=ORIENTED_EDGE('',*,*,#348,.T.);
#187=ORIENTED_EDGE('',*,*,#347,.T.);
#188=ORIENTED_EDGE('',*,*,#349,.T.);
#189=ORIENTED_EDGE('',*,*,#350,.F.);
#190=ORIENTED_EDGE('',*,*,#351,.T.);
#191=ORIENTED_EDGE('',*,*,#350,.T.);
#192=ORIENTED_EDGE('',*,*,#352,.T.);
#193=ORIENTED_EDGE('',*,*,#353,.F.);
#194=ORIENTED_EDGE('',*,*,#354,.T.);
#195=ORIENTED_EDGE('',*,*,#353,.T.);
#196=ORIENTED_EDGE('',*,*,#355,.T.);
#197=ORIENTED_EDGE('',*,*,#356,.F.);
#198=ORIENTED_EDGE('',*,*,#357,.T.);
#199=ORIENTED_EDGE('',*,*,#358,.T.);
#200=ORIENTED_EDGE('',*,*,#359,.T.);
#201=ORIENTED_EDGE('',*,*,#356,.T.);
#202=ORIENTED_EDGE('',*,*,#360,.T.);
#203=ORIENTED_EDGE('',*,*,#333,.F.);
#204=ORIENTED_EDGE('',*,*,#361,.T.);
#205=ORIENTED_EDGE('',*,*,#362,.T.);
#206=ORIENTED_EDGE('',*,*,#363,.F.);
#207=ORIENTED_EDGE('',*,*,#364,.F.);
#208=ORIENTED_EDGE('',*,*,#365,.F.);
#209=ORIENTED_EDGE('',*,*,#366,.F.);
#210=ORIENTED_EDGE('',*,*,#367,.T.);
#211=ORIENTED_EDGE('',*,*,#368,.T.);
#212=ORIENTED_EDGE('',*,*,#369,.T.);
#213=ORIENTED_EDGE('',*,*,#370,.T.);
#214=ORIENTED_EDGE('',*,*,#371,.T.);
#215=ORIENTED_EDGE('',*,*,#372,.T.);
#216=ORIENTED_EDGE('',*,*,#373,.T.);
#217=ORIENTED_EDGE('',*,*,#374,.T.);
#218=ORIENTED_EDGE('',*,*,#375,.T.);
#219=ORIENTED_EDGE('',*,*,#376,.T.);
#220=ORIENTED_EDGE('',*,*,#377,.T.);
#221=ORIENTED_EDGE('',*,*,#378,.T.);
#222=ORIENTED_EDGE('',*,*,#379,.T.);
#223=ORIENTED_EDGE('',*,*,#380,.T.);
#224=ORIENTED_EDGE('',*,*,#381,.T.);
#225=ORIENTED_EDGE('',*,*,#382,.T.);
#226=ORIENTED_EDGE('',*,*,#383,.T.);
#227=ORIENTED_EDGE('',*,*,#384,.T.);
#228=ORIENTED_EDGE('',*,*,#385,.T.);
#229=ORIENTED_EDGE('',*,*,#331,.T.);
#230=ORIENTED_EDGE('',*,*,#329,.T.);
#231=ORIENTED_EDGE('',*,*,#327,.T.);
#232=ORIENTED_EDGE('',*,*,#325,.T.);
#233=ORIENTED_EDGE('',*,*,#386,.F.);
#234=ORIENTED_EDGE('',*,*,#336,.F.);
#235=ORIENTED_EDGE('',*,*,#387,.F.);
#236=ORIENTED_EDGE('',*,*,#372,.F.);
#237=ORIENTED_EDGE('',*,*,#387,.T.);
#238=ORIENTED_EDGE('',*,*,#339,.F.);
#239=ORIENTED_EDGE('',*,*,#388,.F.);
#240=ORIENTED_EDGE('',*,*,#373,.F.);
#241=ORIENTED_EDGE('',*,*,#386,.T.);
#242=ORIENTED_EDGE('',*,*,#371,.F.);
#243=ORIENTED_EDGE('',*,*,#389,.F.);
#244=ORIENTED_EDGE('',*,*,#361,.F.);
#245=ORIENTED_EDGE('',*,*,#388,.T.);
#246=ORIENTED_EDGE('',*,*,#342,.F.);
#247=ORIENTED_EDGE('',*,*,#390,.F.);
#248=ORIENTED_EDGE('',*,*,#374,.F.);
#249=ORIENTED_EDGE('',*,*,#389,.T.);
#250=ORIENTED_EDGE('',*,*,#370,.F.);
#251=ORIENTED_EDGE('',*,*,#391,.F.);
#252=ORIENTED_EDGE('',*,*,#357,.F.);
#253=ORIENTED_EDGE('',*,*,#390,.T.);
#254=ORIENTED_EDGE('',*,*,#345,.F.);
#255=ORIENTED_EDGE('',*,*,#392,.F.);
#256=ORIENTED_EDGE('',*,*,#375,.F.);
#257=ORIENTED_EDGE('',*,*,#391,.T.);
#258=ORIENTED_EDGE('',*,*,#369,.F.);
#259=ORIENTED_EDGE('',*,*,#393,.F.);
#260=ORIENTED_EDGE('',*,*,#354,.F.);
#261=ORIENTED_EDGE('',*,*,#392,.T.);
#262=ORIENTED_EDGE('',*,*,#348,.F.);
#263=ORIENTED_EDGE('',*,*,#394,.F.);
#264=ORIENTED_EDGE('',*,*,#367,.F.);
#265=ORIENTED_EDGE('',*,*,#393,.T.);
#266=ORIENTED_EDGE('',*,*,#368,.F.);
#267=ORIENTED_EDGE('',*,*,#394,.T.);
#268=ORIENTED_EDGE('',*,*,#351,.F.);
#269=ORIENTED_EDGE('',*,*,#395,.F.);
#270=ORIENTED_EDGE('',*,*,#366,.T.);
#271=ORIENTED_EDGE('',*,*,#332,.F.);
#272=ORIENTED_EDGE('',*,*,#395,.T.);
#273=ORIENTED_EDGE('',*,*,#396,.F.);
#274=ORIENTED_EDGE('',*,*,#365,.T.);
#275=ORIENTED_EDGE('',*,*,#330,.F.);
#276=ORIENTED_EDGE('',*,*,#396,.T.);
#277=ORIENTED_EDGE('',*,*,#397,.F.);
#278=ORIENTED_EDGE('',*,*,#364,.T.);
#279=ORIENTED_EDGE('',*,*,#328,.F.);
#280=ORIENTED_EDGE('',*,*,#397,.T.);
#281=ORIENTED_EDGE('',*,*,#398,.F.);
#282=ORIENTED_EDGE('',*,*,#363,.T.);
#283=ORIENTED_EDGE('',*,*,#326,.F.);
#284=ORIENTED_EDGE('',*,*,#398,.T.);
#285=ORIENTED_EDGE('',*,*,#362,.F.);
#286=ORIENTED_EDGE('',*,*,#358,.F.);
#287=ORIENTED_EDGE('',*,*,#359,.F.);
#288=ORIENTED_EDGE('',*,*,#385,.F.);
#289=ORIENTED_EDGE('',*,*,#399,.F.);
#290=ORIENTED_EDGE('',*,*,#382,.F.);
#291=ORIENTED_EDGE('',*,*,#400,.F.);
#292=ORIENTED_EDGE('',*,*,#334,.F.);
#293=ORIENTED_EDGE('',*,*,#400,.T.);
#294=ORIENTED_EDGE('',*,*,#381,.F.);
#295=ORIENTED_EDGE('',*,*,#401,.F.);
#296=ORIENTED_EDGE('',*,*,#337,.F.);
#297=ORIENTED_EDGE('',*,*,#399,.T.);
#298=ORIENTED_EDGE('',*,*,#360,.F.);
#299=ORIENTED_EDGE('',*,*,#402,.F.);
#300=ORIENTED_EDGE('',*,*,#383,.F.);
#301=ORIENTED_EDGE('',*,*,#401,.T.);
#302=ORIENTED_EDGE('',*,*,#380,.F.);
#303=ORIENTED_EDGE('',*,*,#403,.F.);
#304=ORIENTED_EDGE('',*,*,#340,.F.);
#305=ORIENTED_EDGE('',*,*,#402,.T.);
#306=ORIENTED_EDGE('',*,*,#355,.F.);
#307=ORIENTED_EDGE('',*,*,#404,.F.);
#308=ORIENTED_EDGE('',*,*,#384,.F.);
#309=ORIENTED_EDGE('',*,*,#403,.T.);
#310=ORIENTED_EDGE('',*,*,#379,.F.);
#311=ORIENTED_EDGE('',*,*,#405,.F.);
#312=ORIENTED_EDGE('',*,*,#343,.F.);
#313=ORIENTED_EDGE('',*,*,#404,.T.);
#314=ORIENTED_EDGE('',*,*,#352,.F.);
#315=ORIENTED_EDGE('',*,*,#406,.F.);
#316=ORIENTED_EDGE('',*,*,#376,.F.);
#317=ORIENTED_EDGE('',*,*,#405,.T.);
#318=ORIENTED_EDGE('',*,*,#378,.F.);
#319=ORIENTED_EDGE('',*,*,#407,.F.);
#320=ORIENTED_EDGE('',*,*,#346,.F.);
#321=ORIENTED_EDGE('',*,*,#406,.T.);
#322=ORIENTED_EDGE('',*,*,#349,.F.);
#323=ORIENTED_EDGE('',*,*,#407,.T.);
#324=ORIENTED_EDGE('',*,*,#377,.F.);
#325=EDGE_CURVE('',#408,#408,#464,.T.);
#326=EDGE_CURVE('',#409,#409,#465,.T.);
#327=EDGE_CURVE('',#410,#410,#466,.T.);
#328=EDGE_CURVE('',#411,#411,#467,.T.);
#329=EDGE_CURVE('',#412,#412,#468,.T.);
#330=EDGE_CURVE('',#413,#413,#469,.T.);
#331=EDGE_CURVE('',#414,#414,#470,.T.);
#332=EDGE_CURVE('',#415,#415,#471,.T.);
#333=EDGE_CURVE('',#416,#417,#34,.T.);
#334=EDGE_CURVE('',#417,#418,#35,.T.);
#335=EDGE_CURVE('',#419,#418,#36,.T.);
#336=EDGE_CURVE('',#419,#416,#37,.T.);
#337=EDGE_CURVE('',#418,#420,#38,.T.);
#338=EDGE_CURVE('',#421,#420,#39,.T.);
#339=EDGE_CURVE('',#421,#419,#40,.T.);
#340=EDGE_CURVE('',#420,#422,#41,.T.);
#341=EDGE_CURVE('',#423,#422,#42,.T.);
#342=EDGE_CURVE('',#423,#421,#43,.T.);
#343=EDGE_CURVE('',#422,#424,#44,.T.);
#344=EDGE_CURVE('',#425,#424,#45,.T.);
#345=EDGE_CURVE('',#425,#423,#46,.T.);
#346=EDGE_CURVE('',#424,#426,#14,.T.);
#347=EDGE_CURVE('',#427,#426,#47,.T.);
#348=EDGE_CURVE('',#427,#425,#15,.T.);
#349=EDGE_CURVE('',#426,#428,#16,.T.);
#350=EDGE_CURVE('',#429,#428,#48,.T.);
#351=EDGE_CURVE('',#429,#427,#17,.T.);
#352=EDGE_CURVE('',#428,#430,#49,.T.);
#353=EDGE_CURVE('',#431,#430,#50,.T.);
#354=EDGE_CURVE('',#431,#429,#51,.T.);
#355=EDGE_CURVE('',#430,#432,#52,.T.);
#356=EDGE_CURVE('',#433,#432,#53,.T.);
#357=EDGE_CURVE('',#433,#431,#54,.T.);
#358=EDGE_CURVE('',#434,#434,#472,.T.);
#359=EDGE_CURVE('',#435,#435,#473,.F.);
#360=EDGE_CURVE('',#432,#417,#55,.T.);
#361=EDGE_CURVE('',#416,#433,#56,.T.);
#362=EDGE_CURVE('',#436,#436,#474,.F.);
#363=EDGE_CURVE('',#437,#437,#475,.T.);
#364=EDGE_CURVE('',#438,#438,#476,.T.);
#365=EDGE_CURVE('',#439,#439,#477,.T.);
#366=EDGE_CURVE('',#440,#440,#478,.T.);
#367=EDGE_CURVE('',#441,#442,#18,.T.);
#368=EDGE_CURVE('',#442,#443,#19,.T.);
#369=EDGE_CURVE('',#443,#444,#57,.T.);
#370=EDGE_CURVE('',#444,#445,#58,.T.);
#371=EDGE_CURVE('',#445,#446,#59,.T.);
#372=EDGE_CURVE('',#446,#447,#60,.T.);
#373=EDGE_CURVE('',#447,#448,#61,.T.);
#374=EDGE_CURVE('',#448,#449,#62,.T.);
#375=EDGE_CURVE('',#449,#441,#63,.T.);
#376=EDGE_CURVE('',#450,#451,#64,.T.);
#377=EDGE_CURVE('',#451,#452,#20,.T.);
#378=EDGE_CURVE('',#452,#453,#21,.T.);
#379=EDGE_CURVE('',#453,#454,#65,.T.);
#380=EDGE_CURVE('',#454,#455,#66,.T.);
#381=EDGE_CURVE('',#455,#456,#67,.T.);
#382=EDGE_CURVE('',#456,#457,#68,.T.);
#383=EDGE_CURVE('',#457,#458,#69,.T.);
#384=EDGE_CURVE('',#458,#450,#70,.T.);
#385=EDGE_CURVE('',#459,#459,#479,.T.);
#386=EDGE_CURVE('',#416,#446,#71,.T.);
#387=EDGE_CURVE('',#447,#419,#72,.T.);
#388=EDGE_CURVE('',#448,#421,#73,.F.);
#389=EDGE_CURVE('',#433,#445,#74,.T.);
#390=EDGE_CURVE('',#449,#423,#75,.F.);
#391=EDGE_CURVE('',#431,#444,#76,.T.);
#392=EDGE_CURVE('',#441,#425,#22,.F.);
#393=EDGE_CURVE('',#429,#443,#23,.F.);
#394=EDGE_CURVE('',#442,#427,#24,.F.);
#395=EDGE_CURVE('',#460,#460,#480,.T.);
#396=EDGE_CURVE('',#461,#461,#481,.T.);
#397=EDGE_CURVE('',#462,#462,#482,.T.);
#398=EDGE_CURVE('',#463,#463,#483,.T.);
#399=EDGE_CURVE('',#457,#417,#77,.T.);
#400=EDGE_CURVE('',#418,#456,#78,.T.);
#401=EDGE_CURVE('',#420,#455,#79,.F.);
#402=EDGE_CURVE('',#458,#432,#80,.T.);
#403=EDGE_CURVE('',#422,#454,#81,.F.);
#404=EDGE_CURVE('',#450,#430,#82,.T.);
#405=EDGE_CURVE('',#424,#453,#25,.F.);
#406=EDGE_CURVE('',#451,#428,#26,.F.);
#407=EDGE_CURVE('',#426,#452,#27,.F.);
#408=VERTEX_POINT('',#916);
#409=VERTEX_POINT('',#918);
#410=VERTEX_POINT('',#921);
#411=VERTEX_POINT('',#923);
#412=VERTEX_POINT('',#926);
#413=VERTEX_POINT('',#928);
#414=VERTEX_POINT('',#931);
#415=VERTEX_POINT('',#933);
#416=VERTEX_POINT('',#936);
#417=VERTEX_POINT('',#937);
#418=VERTEX_POINT('',#939);
#419=VERTEX_POINT('',#941);
#420=VERTEX_POINT('',#945);
#421=VERTEX_POINT('',#947);
#422=VERTEX_POINT('',#951);
#423=VERTEX_POINT('',#953);
#424=VERTEX_POINT('',#957);
#425=VERTEX_POINT('',#959);
#426=VERTEX_POINT('',#988);
#427=VERTEX_POINT('',#990);
#428=VERTEX_POINT('',#1027);
#429=VERTEX_POINT('',#1029);
#430=VERTEX_POINT('',#1041);
#431=VERTEX_POINT('',#1043);
#432=VERTEX_POINT('',#1047);
#433=VERTEX_POINT('',#1049);
#434=VERTEX_POINT('',#1053);
#435=VERTEX_POINT('',#1055);
#436=VERTEX_POINT('',#1061);
#437=VERTEX_POINT('',#1063);
#438=VERTEX_POINT('',#1065);
#439=VERTEX_POINT('',#1067);
#440=VERTEX_POINT('',#1069);
#441=VERTEX_POINT('',#1121);
#442=VERTEX_POINT('',#1122);
#443=VERTEX_POINT('',#1170);
#444=VERTEX_POINT('',#1172);
#445=VERTEX_POINT('',#1174);
#446=VERTEX_POINT('',#1176);
#447=VERTEX_POINT('',#1178);
#448=VERTEX_POINT('',#1180);
#449=VERTEX_POINT('',#1182);
#450=VERTEX_POINT('',#1186);
#451=VERTEX_POINT('',#1187);
#452=VERTEX_POINT('',#1245);
#453=VERTEX_POINT('',#1305);
#454=VERTEX_POINT('',#1307);
#455=VERTEX_POINT('',#1309);
#456=VERTEX_POINT('',#1311);
#457=VERTEX_POINT('',#1313);
#458=VERTEX_POINT('',#1315);
#459=VERTEX_POINT('',#1318);
#460=VERTEX_POINT('',#1442);
#461=VERTEX_POINT('',#1446);
#462=VERTEX_POINT('',#1450);
#463=VERTEX_POINT('',#1454);
#464=CIRCLE('',#689,0.0021);
#465=CIRCLE('',#690,0.0021);
#466=CIRCLE('',#692,0.0021);
#467=CIRCLE('',#693,0.0021);
#468=CIRCLE('',#695,0.0021);
#469=CIRCLE('',#696,0.0021);
#470=CIRCLE('',#698,0.0021);
#471=CIRCLE('',#699,0.0021);
#472=CIRCLE('',#707,0.0199);
#473=CIRCLE('',#708,0.0199);
#474=CIRCLE('',#711,0.0207);
#475=CIRCLE('',#712,0.0036);
#476=CIRCLE('',#713,0.0036);
#477=CIRCLE('',#714,0.0036);
#478=CIRCLE('',#715,0.0036);
#479=CIRCLE('',#717,0.0207);
#480=CIRCLE('',#726,0.0036);
#481=CIRCLE('',#729,0.0036);
#482=CIRCLE('',#732,0.0036);
#483=CIRCLE('',#735,0.0036);
#484=EDGE_LOOP('',(#159));
#485=EDGE_LOOP('',(#160));
#486=EDGE_LOOP('',(#161));
#487=EDGE_LOOP('',(#162));
#488=EDGE_LOOP('',(#163));
#489=EDGE_LOOP('',(#164));
#490=EDGE_LOOP('',(#165));
#491=EDGE_LOOP('',(#166));
#492=EDGE_LOOP('',(#167,#168,#169,#170));
#493=EDGE_LOOP('',(#171,#172,#173,#174));
#494=EDGE_LOOP('',(#175,#176,#177,#178));
#495=EDGE_LOOP('',(#179,#180,#181,#182));
#496=EDGE_LOOP('',(#183,#184,#185,#186));
#497=EDGE_LOOP('',(#187,#188,#189,#190));
#498=EDGE_LOOP('',(#191,#192,#193,#194));
#499=EDGE_LOOP('',(#195,#196,#197,#198));
#500=EDGE_LOOP('',(#199));
#501=EDGE_LOOP('',(#200));
#502=EDGE_LOOP('',(#201,#202,#203,#204));
#503=EDGE_LOOP('',(#205));
#504=EDGE_LOOP('',(#206));
#505=EDGE_LOOP('',(#207));
#506=EDGE_LOOP('',(#208));
#507=EDGE_LOOP('',(#209));
#508=EDGE_LOOP('',(#210,#211,#212,#213,#214,#215,#216,#217,#218));
#509=EDGE_LOOP('',(#219,#220,#221,#222,#223,#224,#225,#226,#227));
#510=EDGE_LOOP('',(#228));
#511=EDGE_LOOP('',(#229));
#512=EDGE_LOOP('',(#230));
#513=EDGE_LOOP('',(#231));
#514=EDGE_LOOP('',(#232));
#515=EDGE_LOOP('',(#233,#234,#235,#236));
#516=EDGE_LOOP('',(#237,#238,#239,#240));
#517=EDGE_LOOP('',(#241,#242,#243,#244));
#518=EDGE_LOOP('',(#245,#246,#247,#248));
#519=EDGE_LOOP('',(#249,#250,#251,#252));
#520=EDGE_LOOP('',(#253,#254,#255,#256));
#521=EDGE_LOOP('',(#257,#258,#259,#260));
#522=EDGE_LOOP('',(#261,#262,#263,#264));
#523=EDGE_LOOP('',(#265,#266,#267,#268));
#524=EDGE_LOOP('',(#269));
#525=EDGE_LOOP('',(#270));
#526=EDGE_LOOP('',(#271));
#527=EDGE_LOOP('',(#272));
#528=EDGE_LOOP('',(#273));
#529=EDGE_LOOP('',(#274));
#530=EDGE_LOOP('',(#275));
#531=EDGE_LOOP('',(#276));
#532=EDGE_LOOP('',(#277));
#533=EDGE_LOOP('',(#278));
#534=EDGE_LOOP('',(#279));
#535=EDGE_LOOP('',(#280));
#536=EDGE_LOOP('',(#281));
#537=EDGE_LOOP('',(#282));
#538=EDGE_LOOP('',(#283));
#539=EDGE_LOOP('',(#284));
#540=EDGE_LOOP('',(#285));
#541=EDGE_LOOP('',(#286));
#542=EDGE_LOOP('',(#287));
#543=EDGE_LOOP('',(#288));
#544=EDGE_LOOP('',(#289,#290,#291,#292));
#545=EDGE_LOOP('',(#293,#294,#295,#296));
#546=EDGE_LOOP('',(#297,#298,#299,#300));
#547=EDGE_LOOP('',(#301,#302,#303,#304));
#548=EDGE_LOOP('',(#305,#306,#307,#308));
#549=EDGE_LOOP('',(#309,#310,#311,#312));
#550=EDGE_LOOP('',(#313,#314,#315,#316));
#551=EDGE_LOOP('',(#317,#318,#319,#320));
#552=EDGE_LOOP('',(#321,#322,#323,#324));
#553=FACE_BOUND('',#484,.T.);
#554=FACE_BOUND('',#485,.T.);
#555=FACE_BOUND('',#486,.T.);
#556=FACE_BOUND('',#487,.T.);
#557=FACE_BOUND('',#488,.T.);
#558=FACE_BOUND('',#489,.T.);
#559=FACE_BOUND('',#490,.T.);
#560=FACE_BOUND('',#491,.T.);
#561=FACE_BOUND('',#492,.T.);
#562=FACE_BOUND('',#493,.T.);
#563=FACE_BOUND('',#494,.T.);
#564=FACE_BOUND('',#495,.T.);
#565=FACE_BOUND('',#496,.T.);
#566=FACE_BOUND('',#497,.T.);
#567=FACE_BOUND('',#498,.T.);
#568=FACE_BOUND('',#499,.T.);
#569=FACE_BOUND('',#500,.T.);
#570=FACE_BOUND('',#501,.T.);
#571=FACE_BOUND('',#502,.T.);
#572=FACE_BOUND('',#503,.T.);
#573=FACE_BOUND('',#504,.T.);
#574=FACE_BOUND('',#505,.T.);
#575=FACE_BOUND('',#506,.T.);
#576=FACE_BOUND('',#507,.T.);
#577=FACE_BOUND('',#508,.T.);
#578=FACE_BOUND('',#509,.T.);
#579=FACE_BOUND('',#510,.T.);
#580=FACE_BOUND('',#511,.T.);
#581=FACE_BOUND('',#512,.T.);
#582=FACE_BOUND('',#513,.T.);
#583=FACE_BOUND('',#514,.T.);
#584=FACE_BOUND('',#515,.T.);
#585=FACE_BOUND('',#516,.T.);
#586=FACE_BOUND('',#517,.T.);
#587=FACE_BOUND('',#518,.T.);
#588=FACE_BOUND('',#519,.T.);
#589=FACE_BOUND('',#520,.T.);
#590=FACE_BOUND('',#521,.T.);
#591=FACE_BOUND('',#522,.T.);
#592=FACE_BOUND('',#523,.T.);
#593=FACE_BOUND('',#524,.T.);
#594=FACE_BOUND('',#525,.T.);
#595=FACE_BOUND('',#526,.T.);
#596=FACE_BOUND('',#527,.T.);
#597=FACE_BOUND('',#528,.T.);
#598=FACE_BOUND('',#529,.T.);
#599=FACE_BOUND('',#530,.T.);
#600=FACE_BOUND('',#531,.T.);
#601=FACE_BOUND('',#532,.T.);
#602=FACE_BOUND('',#533,.T.);
#603=FACE_BOUND('',#534,.T.);
#604=FACE_BOUND('',#535,.T.);
#605=FACE_BOUND('',#536,.T.);
#606=FACE_BOUND('',#537,.T.);
#607=FACE_BOUND('',#538,.T.);
#608=FACE_BOUND('',#539,.T.);
#609=FACE_BOUND('',#540,.T.);
#610=FACE_BOUND('',#541,.T.);
#611=FACE_BOUND('',#542,.T.);
#612=FACE_BOUND('',#543,.T.);
#613=FACE_BOUND('',#544,.T.);
#614=FACE_BOUND('',#545,.T.);
#615=FACE_BOUND('',#546,.T.);
#616=FACE_BOUND('',#547,.T.);
#617=FACE_BOUND('',#548,.T.);
#618=FACE_BOUND('',#549,.T.);
#619=FACE_BOUND('',#550,.T.);
#620=FACE_BOUND('',#551,.T.);
#621=FACE_BOUND('',#552,.T.);
#622=CYLINDRICAL_SURFACE('',#688,0.0021);
#623=CYLINDRICAL_SURFACE('',#691,0.0021);
#624=CYLINDRICAL_SURFACE('',#694,0.0021);
#625=CYLINDRICAL_SURFACE('',#697,0.0021);
#626=CYLINDRICAL_SURFACE('',#706,0.0199);
#627=CYLINDRICAL_SURFACE('',#725,0.0036);
#628=CYLINDRICAL_SURFACE('',#728,0.0036);
#629=CYLINDRICAL_SURFACE('',#731,0.0036);
#630=CYLINDRICAL_SURFACE('',#734,0.0036);
#631=ADVANCED_FACE('',(#553,#554),#622,.F.);
#632=ADVANCED_FACE('',(#555,#556),#623,.F.);
#633=ADVANCED_FACE('',(#557,#558),#624,.F.);
#634=ADVANCED_FACE('',(#559,#560),#625,.F.);
#635=ADVANCED_FACE('',(#561),#132,.T.);
#636=ADVANCED_FACE('',(#562),#133,.F.);
#637=ADVANCED_FACE('',(#563),#134,.F.);
#638=ADVANCED_FACE('',(#564),#135,.F.);
#639=ADVANCED_FACE('',(#565),#28,.F.);
#640=ADVANCED_FACE('',(#566),#29,.T.);
#641=ADVANCED_FACE('',(#567),#136,.T.);
#642=ADVANCED_FACE('',(#568),#137,.T.);
#643=ADVANCED_FACE('',(#569,#570),#626,.F.);
#644=ADVANCED_FACE('',(#571),#138,.T.);
#645=ADVANCED_FACE('',(#572,#573,#574,#575,#576,#577),#139,.T.);
#646=ADVANCED_FACE('',(#578,#579,#580,#581,#582,#583),#140,.F.);
#647=ADVANCED_FACE('',(#584),#141,.F.);
#648=ADVANCED_FACE('',(#585),#142,.T.);
#649=ADVANCED_FACE('',(#586),#143,.F.);
#650=ADVANCED_FACE('',(#587),#144,.T.);
#651=ADVANCED_FACE('',(#588),#145,.F.);
#652=ADVANCED_FACE('',(#589),#146,.T.);
#653=ADVANCED_FACE('',(#590),#147,.F.);
#654=ADVANCED_FACE('',(#591),#30,.T.);
#655=ADVANCED_FACE('',(#592),#31,.T.);
#656=ADVANCED_FACE('',(#593,#594),#627,.F.);
#657=ADVANCED_FACE('',(#595,#596),#148,.T.);
#658=ADVANCED_FACE('',(#597,#598),#628,.F.);
#659=ADVANCED_FACE('',(#599,#600),#149,.T.);
#660=ADVANCED_FACE('',(#601,#602),#629,.F.);
#661=ADVANCED_FACE('',(#603,#604),#150,.T.);
#662=ADVANCED_FACE('',(#605,#606),#630,.F.);
#663=ADVANCED_FACE('',(#607,#608),#151,.T.);
#664=ADVANCED_FACE('',(#609,#610),#12,.F.);
#665=ADVANCED_FACE('',(#611,#612),#13,.F.);
#666=ADVANCED_FACE('',(#613),#152,.T.);
#667=ADVANCED_FACE('',(#614),#153,.F.);
#668=ADVANCED_FACE('',(#615),#154,.T.);
#669=ADVANCED_FACE('',(#616),#155,.F.);
#670=ADVANCED_FACE('',(#617),#156,.T.);
#671=ADVANCED_FACE('',(#618),#157,.F.);
#672=ADVANCED_FACE('',(#619),#158,.T.);
#673=ADVANCED_FACE('',(#620),#32,.T.);
#674=ADVANCED_FACE('',(#621),#33,.T.);
#675=CLOSED_SHELL('',(#631,#632,#633,#634,#635,#636,#637,#638,#639,#640,
#641,#642,#643,#644,#645,#646,#647,#648,#649,#650,#651,#652,#653,#654,#655,
#656,#657,#658,#659,#660,#661,#662,#663,#664,#665,#666,#667,#668,#669,#670,
#671,#672,#673,#674));
#676=STYLED_ITEM('',(#677),#684);
#677=PRESENTATION_STYLE_ASSIGNMENT((#678));
#678=SURFACE_STYLE_USAGE(.BOTH.,#679);
#679=SURFACE_SIDE_STYLE('',(#680));
#680=SURFACE_STYLE_FILL_AREA(#681);
#681=FILL_AREA_STYLE('',(#682));
#682=FILL_AREA_STYLE_COLOUR('',#683);
#683=COLOUR_RGB('',0.301960784313725,0.301960784313725,0.301960784313725);
#684=MANIFOLD_SOLID_BREP('Bracket Top',#675);
#685=SHAPE_DEFINITION_REPRESENTATION(#1581,#686);
#686=SHAPE_REPRESENTATION('Bracket Top',(#687),#1576);
#687=AXIS2_PLACEMENT_3D('',#913,#746,#747);
#688=AXIS2_PLACEMENT_3D('',#914,#748,#749);
#689=AXIS2_PLACEMENT_3D('',#915,#750,#751);
#690=AXIS2_PLACEMENT_3D('',#917,#752,#753);
#691=AXIS2_PLACEMENT_3D('',#919,#754,#755);
#692=AXIS2_PLACEMENT_3D('',#920,#756,#757);
#693=AXIS2_PLACEMENT_3D('',#922,#758,#759);
#694=AXIS2_PLACEMENT_3D('',#924,#760,#761);
#695=AXIS2_PLACEMENT_3D('',#925,#762,#763);
#696=AXIS2_PLACEMENT_3D('',#927,#764,#765);
#697=AXIS2_PLACEMENT_3D('',#929,#766,#767);
#698=AXIS2_PLACEMENT_3D('',#930,#768,#769);
#699=AXIS2_PLACEMENT_3D('',#932,#770,#771);
#700=AXIS2_PLACEMENT_3D('',#934,#772,#773);
#701=AXIS2_PLACEMENT_3D('',#943,#778,#779);
#702=AXIS2_PLACEMENT_3D('',#949,#783,#784);
#703=AXIS2_PLACEMENT_3D('',#955,#788,#789);
#704=AXIS2_PLACEMENT_3D('',#1039,#795,#796);
#705=AXIS2_PLACEMENT_3D('',#1045,#800,#801);
#706=AXIS2_PLACEMENT_3D('',#1051,#805,#806);
#707=AXIS2_PLACEMENT_3D('',#1052,#807,#808);
#708=AXIS2_PLACEMENT_3D('',#1054,#809,#810);
#709=AXIS2_PLACEMENT_3D('',#1056,#811,#812);
#710=AXIS2_PLACEMENT_3D('',#1059,#815,#816);
#711=AXIS2_PLACEMENT_3D('',#1060,#817,#818);
#712=AXIS2_PLACEMENT_3D('',#1062,#819,#820);
#713=AXIS2_PLACEMENT_3D('',#1064,#821,#822);
#714=AXIS2_PLACEMENT_3D('',#1066,#823,#824);
#715=AXIS2_PLACEMENT_3D('',#1068,#825,#826);
#716=AXIS2_PLACEMENT_3D('',#1184,#834,#835);
#717=AXIS2_PLACEMENT_3D('',#1317,#843,#844);
#718=AXIS2_PLACEMENT_3D('',#1319,#845,#846);
#719=AXIS2_PLACEMENT_3D('',#1322,#849,#850);
#720=AXIS2_PLACEMENT_3D('',#1324,#852,#853);
#721=AXIS2_PLACEMENT_3D('',#1326,#855,#856);
#722=AXIS2_PLACEMENT_3D('',#1328,#858,#859);
#723=AXIS2_PLACEMENT_3D('',#1330,#861,#862);
#724=AXIS2_PLACEMENT_3D('',#1335,#863,#864);
#725=AXIS2_PLACEMENT_3D('',#1440,#865,#866);
#726=AXIS2_PLACEMENT_3D('',#1441,#867,#868);
#727=AXIS2_PLACEMENT_3D('',#1443,#869,#870);
#728=AXIS2_PLACEMENT_3D('',#1444,#871,#872);
#729=AXIS2_PLACEMENT_3D('',#1445,#873,#874);
#730=AXIS2_PLACEMENT_3D('',#1447,#875,#876);
#731=AXIS2_PLACEMENT_3D('',#1448,#877,#878);
#732=AXIS2_PLACEMENT_3D('',#1449,#879,#880);
#733=AXIS2_PLACEMENT_3D('',#1451,#881,#882);
#734=AXIS2_PLACEMENT_3D('',#1452,#883,#884);
#735=AXIS2_PLACEMENT_3D('',#1453,#885,#886);
#736=AXIS2_PLACEMENT_3D('',#1455,#887,#888);
#737=AXIS2_PLACEMENT_3D('',#1456,#889,#890);
#738=AXIS2_PLACEMENT_3D('',#1457,#891,#892);
#739=AXIS2_PLACEMENT_3D('',#1458,#893,#894);
#740=AXIS2_PLACEMENT_3D('',#1461,#897,#898);
#741=AXIS2_PLACEMENT_3D('',#1463,#900,#901);
#742=AXIS2_PLACEMENT_3D('',#1465,#903,#904);
#743=AXIS2_PLACEMENT_3D('',#1467,#906,#907);
#744=AXIS2_PLACEMENT_3D('',#1469,#909,#910);
#745=AXIS2_PLACEMENT_3D('',#1474,#911,#912);
#746=DIRECTION('',(0.,0.,1.));
#747=DIRECTION('',(1.,0.,0.));
#748=DIRECTION('',(0.,0.,-1.));
#749=DIRECTION('',(-1.,0.,0.));
#750=DIRECTION('',(0.,0.,1.));
#751=DIRECTION('',(1.,0.,0.));
#752=DIRECTION('',(0.,0.,1.));
#753=DIRECTION('',(1.,0.,0.));
#754=DIRECTION('',(0.,0.,-1.));
#755=DIRECTION('',(-1.,0.,0.));
#756=DIRECTION('',(0.,0.,1.));
#757=DIRECTION('',(1.,0.,0.));
#758=DIRECTION('',(0.,0.,1.));
#759=DIRECTION('',(1.,0.,0.));
#760=DIRECTION('',(0.,0.,-1.));
#761=DIRECTION('',(-1.,0.,0.));
#762=DIRECTION('',(0.,0.,1.));
#763=DIRECTION('',(1.,0.,0.));
#764=DIRECTION('',(0.,0.,1.));
#765=DIRECTION('',(1.,0.,0.));
#766=DIRECTION('',(0.,0.,-1.));
#767=DIRECTION('',(-1.,0.,0.));
#768=DIRECTION('',(0.,0.,1.));
#769=DIRECTION('',(1.,0.,0.));
#770=DIRECTION('',(0.,0.,1.));
#771=DIRECTION('',(1.,0.,0.));
#772=DIRECTION('',(1.,0.,0.));
#773=DIRECTION('',(0.,0.,-1.));
#774=DIRECTION('',(0.,0.,-1.));
#775=DIRECTION('',(0.,1.,0.));
#776=DIRECTION('',(0.,0.,-1.));
#777=DIRECTION('',(0.,-1.,0.));
#778=DIRECTION('',(0.,-1.,0.));
#779=DIRECTION('',(0.,0.,-1.));
#780=DIRECTION('',(-1.,0.,0.));
#781=DIRECTION('',(0.,0.,-1.));
#782=DIRECTION('',(1.,0.,0.));
#783=DIRECTION('',(-0.707106781186548,-0.707106781186547,0.));
#784=DIRECTION('',(0.707106781186547,-0.707106781186548,0.));
#785=DIRECTION('',(-0.707106781186547,0.707106781186548,0.));
#786=DIRECTION('',(0.,0.,-1.));
#787=DIRECTION('',(0.707106781186547,-0.707106781186548,0.));
#788=DIRECTION('',(0.,-1.,0.));
#789=DIRECTION('',(0.,0.,-1.));
#790=DIRECTION('',(-1.,0.,0.));
#791=DIRECTION('',(0.,0.,-1.));
#792=DIRECTION('',(1.,0.,0.));
#793=DIRECTION('',(0.,0.,-1.));
#794=DIRECTION('',(0.,0.,-1.));
#795=DIRECTION('',(0.,-1.,0.));
#796=DIRECTION('',(0.,0.,-1.));
#797=DIRECTION('',(1.,0.,0.));
#798=DIRECTION('',(0.,0.,-1.));
#799=DIRECTION('',(-1.,0.,0.));
#800=DIRECTION('',(0.707106781186548,-0.707106781186548,0.));
#801=DIRECTION('',(0.707106781186548,0.707106781186548,0.));
#802=DIRECTION('',(0.707106781186548,0.707106781186548,0.));
#803=DIRECTION('',(0.,0.,-1.));
#804=DIRECTION('',(-0.707106781186548,-0.707106781186548,0.));
#805=DIRECTION('',(0.,0.,-1.));
#806=DIRECTION('',(-1.,0.,0.));
#807=DIRECTION('',(0.,0.,1.));
#808=DIRECTION('',(1.,0.,0.));
#809=DIRECTION('',(0.,0.,1.));
#810=DIRECTION('',(1.,0.,0.));
#811=DIRECTION('',(0.,-1.,0.));
#812=DIRECTION('',(0.,0.,-1.));
#813=DIRECTION('',(1.,0.,0.));
#814=DIRECTION('',(-1.,0.,0.));
#815=DIRECTION('',(0.,0.,1.));
#816=DIRECTION('',(1.,0.,0.));
#817=DIRECTION('',(0.,0.,1.));
#818=DIRECTION('',(1.,0.,0.));
#819=DIRECTION('',(0.,0.,1.));
#820=DIRECTION('',(1.,0.,0.));
#821=DIRECTION('',(0.,0.,1.));
#822=DIRECTION('',(1.,0.,0.));
#823=DIRECTION('',(0.,0.,1.));
#824=DIRECTION('',(1.,0.,0.));
#825=DIRECTION('',(0.,0.,1.));
#826=DIRECTION('',(1.,0.,0.));
#827=DIRECTION('',(1.,0.,0.));
#828=DIRECTION('',(0.707106781186548,0.707106781186548,0.));
#829=DIRECTION('',(1.,0.,0.));
#830=DIRECTION('',(0.,1.,0.));
#831=DIRECTION('',(-1.,0.,0.));
#832=DIRECTION('',(-0.707106781186547,0.707106781186548,0.));
#833=DIRECTION('',(-1.,0.,0.));
#834=DIRECTION('',(0.,0.,1.));
#835=DIRECTION('',(1.,0.,0.));
#836=DIRECTION('',(-1.,0.,0.));
#837=DIRECTION('',(1.,0.,0.));
#838=DIRECTION('',(0.707106781186547,-0.707106781186548,0.));
#839=DIRECTION('',(1.,0.,0.));
#840=DIRECTION('',(0.,-1.,0.));
#841=DIRECTION('',(-1.,0.,0.));
#842=DIRECTION('',(-0.707106781186548,-0.707106781186548,0.));
#843=DIRECTION('',(0.,0.,1.));
#844=DIRECTION('',(1.,0.,0.));
#845=DIRECTION('',(-0.707106781186547,0.,-0.707106781186548));
#846=DIRECTION('',(0.,-1.,0.));
#847=DIRECTION('',(-0.577350269189626,0.577350269189626,0.577350269189626));
#848=DIRECTION('',(0.577350269189626,0.577350269189626,-0.577350269189626));
#849=DIRECTION('',(0.,0.707106781186548,0.707106781186548));
#850=DIRECTION('',(1.,0.,0.));
#851=DIRECTION('',(-0.281084637714824,-0.678598344545846,0.678598344545846));
#852=DIRECTION('',(0.,0.707106781186548,-0.707106781186548));
#853=DIRECTION('',(-1.,0.,0.));
#854=DIRECTION('',(-0.281084637714821,0.678598344545847,0.678598344545847));
#855=DIRECTION('',(0.5,0.5,0.707106781186549));
#856=DIRECTION('',(0.707106781186547,-0.707106781186548,0.));
#857=DIRECTION('',(-0.281084637714824,-0.678598344545846,0.678598344545846));
#858=DIRECTION('',(-0.5,0.5,-0.707106781186548));
#859=DIRECTION('',(-0.707106781186548,-0.707106781186548,0.));
#860=DIRECTION('',(-0.281084637714821,0.678598344545847,0.678598344545847));
#861=DIRECTION('',(0.,0.707106781186548,0.707106781186548));
#862=DIRECTION('',(1.,0.,0.));
#863=DIRECTION('',(0.,0.707106781186548,-0.707106781186548));
#864=DIRECTION('',(-1.,0.,0.));
#865=DIRECTION('',(0.,0.,1.));
#866=DIRECTION('',(1.,0.,0.));
#867=DIRECTION('',(0.,0.,1.));
#868=DIRECTION('',(1.,0.,0.));
#869=DIRECTION('',(0.,0.,1.));
#870=DIRECTION('',(1.,0.,0.));
#871=DIRECTION('',(0.,0.,1.));
#872=DIRECTION('',(1.,0.,0.));
#873=DIRECTION('',(0.,0.,1.));
#874=DIRECTION('',(1.,0.,0.));
#875=DIRECTION('',(0.,0.,1.));
#876=DIRECTION('',(1.,0.,0.));
#877=DIRECTION('',(0.,0.,1.));
#878=DIRECTION('',(1.,0.,0.));
#879=DIRECTION('',(0.,0.,1.));
#880=DIRECTION('',(1.,0.,0.));
#881=DIRECTION('',(0.,0.,1.));
#882=DIRECTION('',(1.,0.,0.));
#883=DIRECTION('',(0.,0.,1.));
#884=DIRECTION('',(1.,0.,0.));
#885=DIRECTION('',(0.,0.,1.));
#886=DIRECTION('',(1.,0.,0.));
#887=DIRECTION('',(0.,0.,1.));
#888=DIRECTION('',(1.,0.,0.));
#889=DIRECTION('',(0.,0.,1.));
#890=DIRECTION('',(1.,0.,0.));
#891=DIRECTION('',(0.,0.,-1.));
#892=DIRECTION('',(-1.,0.,0.));
#893=DIRECTION('',(0.707106781186551,0.,-0.707106781186545));
#894=DIRECTION('',(0.,1.,0.));
#895=DIRECTION('',(0.577350269189623,-0.577350269189626,0.577350269189628));
#896=DIRECTION('',(-0.577350269189623,-0.577350269189626,-0.577350269189628));
#897=DIRECTION('',(0.,-0.707106781186549,0.707106781186546));
#898=DIRECTION('',(-1.,0.,0.));
#899=DIRECTION('',(0.281084637714823,0.678598344545845,0.678598344545848));
#900=DIRECTION('',(0.,-0.707106781186549,-0.707106781186546));
#901=DIRECTION('',(1.,0.,0.));
#902=DIRECTION('',(0.28108463771482,-0.678598344545846,0.678598344545849));
#903=DIRECTION('',(-0.5,-0.5,0.707106781186547));
#904=DIRECTION('',(-0.707106781186547,0.707106781186548,0.));
#905=DIRECTION('',(0.281084637714823,0.678598344545845,0.678598344545848));
#906=DIRECTION('',(0.5,-0.5,-0.707106781186546));
#907=DIRECTION('',(0.707106781186548,0.707106781186548,0.));
#908=DIRECTION('',(0.28108463771482,-0.678598344545846,0.678598344545849));
#909=DIRECTION('',(0.,-0.707106781186549,0.707106781186546));
#910=DIRECTION('',(-1.,0.,0.));
#911=DIRECTION('',(0.,-0.707106781186549,-0.707106781186546));
#912=DIRECTION('',(1.,0.,0.));
#913=CARTESIAN_POINT('',(0.,0.,0.));
#914=CARTESIAN_POINT('',(0.041,0.0225,0.025));
#915=CARTESIAN_POINT('',(0.041,0.0225,0.01));
#916=CARTESIAN_POINT('',(0.0431,0.0225,0.01));
#917=CARTESIAN_POINT('',(0.041,0.0225,0.014));
#918=CARTESIAN_POINT('',(0.0431,0.0225,0.014));
#919=CARTESIAN_POINT('',(0.069,0.0085,0.025));
#920=CARTESIAN_POINT('',(0.069,0.0085,0.01));
#921=CARTESIAN_POINT('',(0.0711,0.0085,0.01));
#922=CARTESIAN_POINT('',(0.069,0.0085,0.014));
#923=CARTESIAN_POINT('',(0.0711,0.0085,0.014));
#924=CARTESIAN_POINT('',(0.069,-0.0085,0.025));
#925=CARTESIAN_POINT('',(0.069,-0.0085,0.01));
#926=CARTESIAN_POINT('',(0.0711,-0.0085,0.01));
#927=CARTESIAN_POINT('',(0.069,-0.0085,0.014));
#928=CARTESIAN_POINT('',(0.0711,-0.0085,0.014));
#929=CARTESIAN_POINT('',(0.041,-0.0225,0.025));
#930=CARTESIAN_POINT('',(0.041,-0.0225,0.01));
#931=CARTESIAN_POINT('',(0.0431,-0.0225,0.01));
#932=CARTESIAN_POINT('',(0.041,-0.0225,0.014));
#933=CARTESIAN_POINT('',(0.0431,-0.0225,0.014));
#934=CARTESIAN_POINT('',(0.0769,0.,0.025));
#935=CARTESIAN_POINT('',(0.0769,-0.027,0.025));
#936=CARTESIAN_POINT('',(0.0769,-0.027,0.022));
#937=CARTESIAN_POINT('',(0.0769,-0.027,0.0108));
#938=CARTESIAN_POINT('',(0.0769,0.027,0.0108));
#939=CARTESIAN_POINT('',(0.0769,0.027,0.0108));
#940=CARTESIAN_POINT('',(0.0769,0.027,0.025));
#941=CARTESIAN_POINT('',(0.0769,0.027,0.022));
#942=CARTESIAN_POINT('',(0.0769,0.,0.022));
#943=CARTESIAN_POINT('',(0.06795,0.027,0.025));
#944=CARTESIAN_POINT('',(0.06795,0.027,0.0108));
#945=CARTESIAN_POINT('',(0.059,0.027,0.0108));
#946=CARTESIAN_POINT('',(0.059,0.027,0.025));
#947=CARTESIAN_POINT('',(0.059,0.027,0.022));
#948=CARTESIAN_POINT('',(0.0769,0.027,0.022));
#949=CARTESIAN_POINT('',(0.0565,0.0295,0.025));
#950=CARTESIAN_POINT('',(0.0565,0.0295,0.0108));
#951=CARTESIAN_POINT('',(0.054,0.032,0.0108));
#952=CARTESIAN_POINT('',(0.054,0.032,0.025));
#953=CARTESIAN_POINT('',(0.054,0.032,0.022));
#954=CARTESIAN_POINT('',(0.059,0.027,0.022));
#955=CARTESIAN_POINT('',(0.0355,0.032,0.025));
#956=CARTESIAN_POINT('',(0.0355,0.032,0.0108));
#957=CARTESIAN_POINT('',(0.017,0.032,0.0108));
#958=CARTESIAN_POINT('',(0.017,0.032,0.025));
#959=CARTESIAN_POINT('',(0.017,0.032,0.022));
#960=CARTESIAN_POINT('',(0.054,0.032,0.022));
#961=CARTESIAN_POINT('',(0.017,0.032,0.022));
#962=CARTESIAN_POINT('',(0.017,0.032,0.0108));
#963=CARTESIAN_POINT('',(0.0118281005658442,0.032,0.022));
#964=CARTESIAN_POINT('',(0.0118281005658442,0.032,0.0108));
#965=CARTESIAN_POINT('',(0.00694349664310582,0.0297268004068191,0.022));
#966=CARTESIAN_POINT('',(0.00694349664310582,0.0297268004068191,0.0108));
#967=CARTESIAN_POINT('',(0.00328569524360999,0.0246319553015333,0.022));
#968=CARTESIAN_POINT('',(0.00328569524360999,0.0246319553015333,0.0108));
#969=CARTESIAN_POINT('',(0.00122090194925593,0.0204289547889973,0.022));
#970=CARTESIAN_POINT('',(0.00122090194925593,0.0204289547889973,0.0108));
#971=CARTESIAN_POINT('',(-0.000796204007886288,0.0163607273514213,0.022));
#972=CARTESIAN_POINT('',(-0.000796204007886288,0.0163607273514213,0.0108));
#973=CARTESIAN_POINT('',(-0.00306187549221059,0.0104471460275321,0.022));
#974=CARTESIAN_POINT('',(-0.00306187549221059,0.0104471460275321,0.0108));
#975=CARTESIAN_POINT('',(-0.00399433262646216,0.00483915989505594,0.022));
#976=CARTESIAN_POINT('',(-0.00399433262646216,0.00483915989505594,0.0108));
#977=CARTESIAN_POINT('',(-0.00399433262646216,-2.77555756156291E-19,0.022));
#978=CARTESIAN_POINT('',(-0.00399433262646216,-2.77555756156291E-19,0.0108));
#979=CARTESIAN_POINT('',(0.017,0.032,0.0108));
#980=CARTESIAN_POINT('',(0.0118281005658442,0.032,0.0108));
#981=CARTESIAN_POINT('',(0.00694349664310582,0.0297268004068191,0.0108));
#982=CARTESIAN_POINT('',(0.00328569524360999,0.0246319553015333,0.0108));
#983=CARTESIAN_POINT('',(0.00122090194925593,0.0204289547889973,0.0108));
#984=CARTESIAN_POINT('',(-0.000796204007886288,0.0163607273514213,0.0108));
#985=CARTESIAN_POINT('',(-0.00306187549221059,0.0104471460275321,0.0108));
#986=CARTESIAN_POINT('',(-0.00399433262646216,0.00483915989505594,0.0108));
#987=CARTESIAN_POINT('',(-0.00399433262646216,-2.77555756156291E-19,0.0108));
#988=CARTESIAN_POINT('',(-0.00399433262646216,2.77555756156287E-19,0.0108000000000042));
#989=CARTESIAN_POINT('',(-0.00399433262646216,2.77555756156287E-19,0.025));
#990=CARTESIAN_POINT('',(-0.00399433262646216,2.77555756156287E-19,0.022));
#991=CARTESIAN_POINT('',(-0.00399433262646216,-2.77555756156291E-19,0.022));
#992=CARTESIAN_POINT('',(-0.00399433262646216,0.00483915989505594,0.022));
#993=CARTESIAN_POINT('',(-0.00306187549221059,0.0104471460275321,0.022));
#994=CARTESIAN_POINT('',(-0.000796204007886288,0.0163607273514213,0.022));
#995=CARTESIAN_POINT('',(0.00122090194925593,0.0204289547889973,0.022));
#996=CARTESIAN_POINT('',(0.00328569524360999,0.0246319553015333,0.022));
#997=CARTESIAN_POINT('',(0.00694349664310582,0.0297268004068191,0.022));
#998=CARTESIAN_POINT('',(0.0118281005658442,0.032,0.022));
#999=CARTESIAN_POINT('',(0.017,0.032,0.022));
#1000=CARTESIAN_POINT('',(0.017,-0.032,0.022));
#1001=CARTESIAN_POINT('',(0.017,-0.032,0.0108));
#1002=CARTESIAN_POINT('',(0.0118281005658442,-0.032,0.022));
#1003=CARTESIAN_POINT('',(0.0118281005658442,-0.032,0.0108));
#1004=CARTESIAN_POINT('',(0.00694349664310582,-0.0297268004068191,0.022));
#1005=CARTESIAN_POINT('',(0.00694349664310582,-0.0297268004068191,0.0108));
#1006=CARTESIAN_POINT('',(0.00328569524360999,-0.0246319553015333,0.022));
#1007=CARTESIAN_POINT('',(0.00328569524360999,-0.0246319553015333,0.0108));
#1008=CARTESIAN_POINT('',(0.00122090194925593,-0.0204289547889973,0.022));
#1009=CARTESIAN_POINT('',(0.00122090194925593,-0.0204289547889973,0.0108));
#1010=CARTESIAN_POINT('',(-0.000796204007886288,-0.0163607273514213,0.022));
#1011=CARTESIAN_POINT('',(-0.000796204007886288,-0.0163607273514213,0.0108));
#1012=CARTESIAN_POINT('',(-0.00306187549221059,-0.0104471460275321,0.022));
#1013=CARTESIAN_POINT('',(-0.00306187549221059,-0.0104471460275321,0.0108));
#1014=CARTESIAN_POINT('',(-0.00399433262646216,-0.00483915989505594,0.022));
#1015=CARTESIAN_POINT('',(-0.00399433262646216,-0.00483915989505594,0.0108));
#1016=CARTESIAN_POINT('',(-0.00399433262646216,2.77555756156287E-19,0.022));
#1017=CARTESIAN_POINT('',(-0.00399433262646216,2.77555756156287E-19,0.0108));
#1018=CARTESIAN_POINT('',(-0.00399433262646216,2.77555756156287E-19,0.0108));
#1019=CARTESIAN_POINT('',(-0.00399433262646216,-0.00483915989505594,0.0108));
#1020=CARTESIAN_POINT('',(-0.00306187549221059,-0.0104471460275321,0.0108));
#1021=CARTESIAN_POINT('',(-0.000796204007886288,-0.0163607273514213,0.0108));
#1022=CARTESIAN_POINT('',(0.00122090194925593,-0.0204289547889973,0.0108));
#1023=CARTESIAN_POINT('',(0.00328569524360999,-0.0246319553015333,0.0108));
#1024=CARTESIAN_POINT('',(0.00694349664310582,-0.0297268004068191,0.0108));
#1025=CARTESIAN_POINT('',(0.0118281005658442,-0.032,0.0108));
#1026=CARTESIAN_POINT('',(0.017,-0.032,0.0108));
#1027=CARTESIAN_POINT('',(0.017,-0.032,0.0108));
#1028=CARTESIAN_POINT('',(0.017,-0.032,0.025));
#1029=CARTESIAN_POINT('',(0.017,-0.032,0.022));
#1030=CARTESIAN_POINT('',(0.017,-0.032,0.022));
#1031=CARTESIAN_POINT('',(0.0118281005658442,-0.032,0.022));
#1032=CARTESIAN_POINT('',(0.00694349664310582,-0.0297268004068191,0.022));
#1033=CARTESIAN_POINT('',(0.00328569524360999,-0.0246319553015333,0.022));
#1034=CARTESIAN_POINT('',(0.00122090194925593,-0.0204289547889973,0.022));
#1035=CARTESIAN_POINT('',(-0.000796204007886288,-0.0163607273514213,0.022));
#1036=CARTESIAN_POINT('',(-0.00306187549221059,-0.0104471460275321,0.022));
#1037=CARTESIAN_POINT('',(-0.00399433262646216,-0.00483915989505594,0.022));
#1038=CARTESIAN_POINT('',(-0.00399433262646216,2.77555756156287E-19,0.022));
#1039=CARTESIAN_POINT('',(0.0355,-0.032,0.025));
#1040=CARTESIAN_POINT('',(0.054,-0.032,0.0108));
#1041=CARTESIAN_POINT('',(0.054,-0.032,0.0108));
#1042=CARTESIAN_POINT('',(0.054,-0.032,0.025));
#1043=CARTESIAN_POINT('',(0.054,-0.032,0.022));
#1044=CARTESIAN_POINT('',(0.0355,-0.032,0.022));
#1045=CARTESIAN_POINT('',(0.0565,-0.0295,0.025));
#1046=CARTESIAN_POINT('',(0.059,-0.027,0.0108));
#1047=CARTESIAN_POINT('',(0.059,-0.027,0.0108));
#1048=CARTESIAN_POINT('',(0.059,-0.027,0.025));
#1049=CARTESIAN_POINT('',(0.059,-0.027,0.022));
#1050=CARTESIAN_POINT('',(0.0565,-0.0295,0.022));
#1051=CARTESIAN_POINT('',(0.023,1.21852356515162E-18,0.025));
#1052=CARTESIAN_POINT('',(0.023,1.21852356515162E-18,0.0242));
#1053=CARTESIAN_POINT('',(0.0429,1.21852356515162E-18,0.0242));
#1054=CARTESIAN_POINT('',(0.023,1.21852356515162E-18,0.0108));
#1055=CARTESIAN_POINT('',(0.0429,1.21852356515162E-18,0.0108));
#1056=CARTESIAN_POINT('',(0.06795,-0.027,0.025));
#1057=CARTESIAN_POINT('',(0.0769,-0.027,0.0108));
#1058=CARTESIAN_POINT('',(0.06795,-0.027,0.022));
#1059=CARTESIAN_POINT('',(0.0364528336867689,0.,0.025));
#1060=CARTESIAN_POINT('',(0.023,1.21852356515162E-18,0.025));
#1061=CARTESIAN_POINT('',(0.0437,1.21852356515162E-18,0.025));
#1062=CARTESIAN_POINT('',(0.041,0.0225,0.025));
#1063=CARTESIAN_POINT('',(0.0446,0.0225,0.025));
#1064=CARTESIAN_POINT('',(0.069,0.0085,0.025));
#1065=CARTESIAN_POINT('',(0.0726,0.0085,0.025));
#1066=CARTESIAN_POINT('',(0.069,-0.0085,0.025));
#1067=CARTESIAN_POINT('',(0.0726,-0.0085,0.025));
#1068=CARTESIAN_POINT('',(0.041,-0.0225,0.025));
#1069=CARTESIAN_POINT('',(0.0446,-0.0225,0.025));
#1070=CARTESIAN_POINT('',(0.017,0.029,0.025));
#1071=CARTESIAN_POINT('',(0.0161139910652094,0.0289998443327371,0.025));
#1072=CARTESIAN_POINT('',(0.0148624575879482,0.028923412747603,0.025));
#1073=CARTESIAN_POINT('',(0.013551932968072,0.0287055173029524,0.025));
#1074=CARTESIAN_POINT('',(0.0128297949463389,0.0285389453906676,0.025));
#1075=CARTESIAN_POINT('',(0.0123455828585892,0.0284075106958344,0.025));
#1076=CARTESIAN_POINT('',(0.0117386606068261,0.0282101524277694,0.025));
#1077=CARTESIAN_POINT('',(0.0110102766912665,0.0279237095752613,0.025));
#1078=CARTESIAN_POINT('',(0.0101524388387064,0.0275017782317155,0.025));
#1079=CARTESIAN_POINT('',(0.00933518540955711,0.0269610556945213,0.025));
#1080=CARTESIAN_POINT('',(0.00872582072219382,0.0264703690175414,0.025));
#1081=CARTESIAN_POINT('',(0.00826953856409948,0.0260523403809147,0.025));
#1082=CARTESIAN_POINT('',(0.00789367606787653,0.025666344392298,0.025));
#1083=CARTESIAN_POINT('',(0.00750624126716661,0.0252290802958219,0.025));
#1084=CARTESIAN_POINT('',(0.00719163857165081,0.0248366597249414,0.025));
#1085=CARTESIAN_POINT('',(0.00694794044030698,0.0245122983133236,0.025));
#1086=CARTESIAN_POINT('',(0.00675277473730268,0.0242396172741377,0.025));
#1087=CARTESIAN_POINT('',(0.0066141959422533,0.024038118541297,0.025));
#1088=CARTESIAN_POINT('',(0.00640785621886958,0.0237292978963502,0.025));
#1089=CARTESIAN_POINT('',(0.00615348594477282,0.0233289335523861,0.025));
#1090=CARTESIAN_POINT('',(0.00589511982109467,0.0228985676637154,0.025));
#1091=CARTESIAN_POINT('',(0.0057084499251432,0.0225740665655485,0.025));
#1092=CARTESIAN_POINT('',(0.00560792485808924,0.0223962212762772,0.025));
#1093=CARTESIAN_POINT('',(0.00551325100556472,0.0222260944599304,0.025));
#1094=CARTESIAN_POINT('',(0.00549095180703087,0.0221853920582555,0.025));
#1095=CARTESIAN_POINT('',(0.0054328199338754,0.022079172384677,0.025));
#1096=CARTESIAN_POINT('',(0.00533659489412582,0.021900824632689,0.025));
#1097=CARTESIAN_POINT('',(0.00517405376648553,0.021594216337186,0.025));
#1098=CARTESIAN_POINT('',(0.00495177519822031,0.0211665635398836,0.025));
#1099=CARTESIAN_POINT('',(0.00461409985975023,0.0205076478485122,0.025));
#1100=CARTESIAN_POINT('',(0.00421867113177184,0.0197237563917825,0.025));
#1101=CARTESIAN_POINT('',(0.00381510616737601,0.0189144250500371,0.025));
#1102=CARTESIAN_POINT('',(0.00357704363317902,0.0184347658947618,0.025));
#1103=CARTESIAN_POINT('',(0.00336979915584419,0.018016208520028,0.025));
#1104=CARTESIAN_POINT('',(0.00323606756376442,0.0177444085772577,0.025));
#1105=CARTESIAN_POINT('',(0.00303817011343306,0.0173381507776515,0.025));
#1106=CARTESIAN_POINT('',(0.00271592977560038,0.0166659146936396,0.025));
#1107=CARTESIAN_POINT('',(0.00228484439622989,0.0157350404344985,0.025));
#1108=CARTESIAN_POINT('',(0.00190712972514282,0.0148750236934488,0.025));
#1109=CARTESIAN_POINT('',(0.00162647759842867,0.0142033438658394,0.025));
#1110=CARTESIAN_POINT('',(0.0014491690067176,0.0137655402973137,0.025));
#1111=CARTESIAN_POINT('',(0.00121488643580471,0.0131607257432658,0.025));
#1112=CARTESIAN_POINT('',(0.000942277731770159,0.0124173708728625,0.025));
#1113=CARTESIAN_POINT('',(0.000622563621905201,0.0114736374129257,0.025));
#1114=CARTESIAN_POINT('',(0.000290476808690113,0.0103654518558468,0.025));
#1115=CARTESIAN_POINT('',(1.43029036816882E-6,0.00924881839722446,0.025));
#1116=CARTESIAN_POINT('',(-0.000228351924479529,0.00820714863267604,0.025));
#1117=CARTESIAN_POINT('',(-0.000502567122724497,0.00674665532266089,0.025));
#1118=CARTESIAN_POINT('',(-0.000867953657269342,0.0041129203920067,0.025));
#1119=CARTESIAN_POINT('',(-0.000994245033694455,0.00168762869525539,0.025));
#1120=CARTESIAN_POINT('',(-0.000994332626462202,-7.97972798949333E-19,0.025));
#1121=CARTESIAN_POINT('',(0.017,0.029,0.025));
#1122=CARTESIAN_POINT('',(-0.000994332626462167,-7.97972798949333E-19,0.025));
#1123=CARTESIAN_POINT('',(-0.000994332626462202,7.9797279894933E-19,0.025));
#1124=CARTESIAN_POINT('',(-0.000994217670784353,-0.00171284669006661,0.025));
#1125=CARTESIAN_POINT('',(-0.000865522278727227,-0.00416691186630691,0.025));
#1126=CARTESIAN_POINT('',(-0.000493629233562841,-0.00681635579843957,0.025));
#1127=CARTESIAN_POINT('',(-0.000214143080186254,-0.00828302727635132,0.025));
#1128=CARTESIAN_POINT('',(1.90067929656093E-5,-0.00932159417401439,0.025));
#1129=CARTESIAN_POINT('',(0.000316407362995281,-0.0104533135527502,0.025));
#1130=CARTESIAN_POINT('',(0.000652869123450072,-0.0115649202050808,0.025));
#1131=CARTESIAN_POINT('',(0.000974987185500575,-0.0125085696076531,0.025));
#1132=CARTESIAN_POINT('',(0.00124827889820882,-0.0132487373345052,0.025));
#1133=CARTESIAN_POINT('',(0.0014828817012527,-0.0138502850272116,0.025));
#1134=CARTESIAN_POINT('',(0.00165879364185782,-0.0142818895788038,0.025));
#1135=CARTESIAN_POINT('',(0.00193799609788877,-0.0149466007126405,0.025));
#1136=CARTESIAN_POINT('',(0.00231342688266475,-0.0157979396311265,0.025));
#1137=CARTESIAN_POINT('',(0.00274192987894917,-0.0167208106831342,0.025));
#1138=CARTESIAN_POINT('',(0.00306215063283925,-0.0173877040336912,0.025));
#1139=CARTESIAN_POINT('',(0.00325884586090002,-0.0177909898677131,0.025));
#1140=CARTESIAN_POINT('',(0.00339163035278633,-0.0180606077585141,0.025));
#1141=CARTESIAN_POINT('',(0.00359796654853001,-0.0184769976420938,0.025));
#1142=CARTESIAN_POINT('',(0.00383478015771892,-0.0189537624656104,0.025));
#1143=CARTESIAN_POINT('',(0.00423611784071937,-0.019758033081286,0.025));
#1144=CARTESIAN_POINT('',(0.00462888003752249,-0.0205361406680599,0.025));
#1145=CARTESIAN_POINT('',(0.00496377925742569,-0.0211892847077565,0.025));
#1146=CARTESIAN_POINT('',(0.0051839051636666,-0.0216125889402833,0.025));
#1147=CARTESIAN_POINT('',(0.00534464419914283,-0.0219156436752569,0.025));
#1148=CARTESIAN_POINT('',(0.00543950410119447,-0.0220913699525387,0.025));
#1149=CARTESIAN_POINT('',(0.00549697103301562,-0.0221963023322651,0.025));
#1150=CARTESIAN_POINT('',(0.00551842320928269,-0.0222354465094982,0.025));
#1151=CARTESIAN_POINT('',(0.00561356405251289,-0.0224062814653426,0.025));
#1152=CARTESIAN_POINT('',(0.00571421262201805,-0.0225842043722911,0.025));
#1153=CARTESIAN_POINT('',(0.0059015988061772,-0.0229095617174518,0.025));
#1154=CARTESIAN_POINT('',(0.00615826889200514,-0.0233372691435791,0.025));
#1155=CARTESIAN_POINT('',(0.00647290094798171,-0.023829971469861,0.025));
#1156=CARTESIAN_POINT('',(0.00675123037382002,-0.0242420816116913,0.025));
#1157=CARTESIAN_POINT('',(0.00714071240826889,-0.0247749865016714,0.025));
#1158=CARTESIAN_POINT('',(0.00763841011287549,-0.0253902442778425,0.025));
#1159=CARTESIAN_POINT('',(0.00826643260904521,-0.0260725913703316,0.025));
#1160=CARTESIAN_POINT('',(0.00917018855485998,-0.0268513870070591,0.025));
#1161=CARTESIAN_POINT('',(0.0101373220714656,-0.0274901222319263,0.025));
#1162=CARTESIAN_POINT('',(0.0110231846071045,-0.0279301035280891,0.025));
#1163=CARTESIAN_POINT('',(0.011758153177766,-0.0282181240143069,0.025));
#1164=CARTESIAN_POINT('',(0.0123699210011311,-0.0284147792941537,0.025));
#1165=CARTESIAN_POINT('',(0.0128512691618791,-0.0285431021408301,0.025));
#1166=CARTESIAN_POINT('',(0.0135715354626367,-0.0287071574520409,0.025));
#1167=CARTESIAN_POINT('',(0.0148760499156925,-0.0289218257820825,0.025));
#1168=CARTESIAN_POINT('',(0.0161201890771657,-0.0289984777443403,0.025));
#1169=CARTESIAN_POINT('',(0.017,-0.029,0.025));
#1170=CARTESIAN_POINT('',(0.017,-0.029,0.025));
#1171=CARTESIAN_POINT('',(0.0364528336867689,-0.029,0.025));
#1172=CARTESIAN_POINT('',(0.0527573593128807,-0.029,0.025));
#1173=CARTESIAN_POINT('',(0.0591050964998248,-0.0226522628130559,0.025));
#1174=CARTESIAN_POINT('',(0.0577573593128807,-0.024,0.025));
#1175=CARTESIAN_POINT('',(0.0364528336867689,-0.024,0.025));
#1176=CARTESIAN_POINT('',(0.0739,-0.024,0.025));
#1177=CARTESIAN_POINT('',(0.0739,0.,0.025));
#1178=CARTESIAN_POINT('',(0.0739,0.024,0.025));
#1179=CARTESIAN_POINT('',(0.059,0.024,0.025));
#1180=CARTESIAN_POINT('',(0.0577573593128807,0.024,0.025));
#1181=CARTESIAN_POINT('',(0.0518786796564403,0.0298786796564403,0.025));
#1182=CARTESIAN_POINT('',(0.0527573593128807,0.029,0.025));
#1183=CARTESIAN_POINT('',(0.017,0.029,0.025));
#1184=CARTESIAN_POINT('',(0.0364528336867689,0.,0.01));
#1185=CARTESIAN_POINT('',(0.017,-0.0312,0.01));
#1186=CARTESIAN_POINT('',(0.0536686291501015,-0.0312,0.01));
#1187=CARTESIAN_POINT('',(0.017,-0.0312,0.01));
#1188=CARTESIAN_POINT('',(0.017,-0.0312,0.01));
#1189=CARTESIAN_POINT('',(0.0160464537937573,-0.031199876291297,0.01));
#1190=CARTESIAN_POINT('',(0.0146891842737683,-0.031118889369371,0.01));
#1191=CARTESIAN_POINT('',(0.0132478280841675,-0.030887479694865,0.01));
#1192=CARTESIAN_POINT('',(0.0124484741971001,-0.030711007105055,0.01));
#1193=CARTESIAN_POINT('',(0.0119060023616136,-0.0305706053900587,0.01));
#1194=CARTESIAN_POINT('',(0.0112368740047661,-0.0303645892425754,0.01));
#1195=CARTESIAN_POINT('',(0.0104234465747569,-0.0300653009963557,0.01));
#1196=CARTESIAN_POINT('',(0.00904966061656217,-0.029438425642726,0.01));
#1197=CARTESIAN_POINT('',(0.00764517413790658,-0.0284896455027165,0.01));
#1198=CARTESIAN_POINT('',(0.00658179035713914,-0.027485897674104,0.01));
#1199=CARTESIAN_POINT('',(0.00599977696006773,-0.0268529705077556,0.01));
#1200=CARTESIAN_POINT('',(0.00555442951988293,-0.0263169544309852,0.01));
#1201=CARTESIAN_POINT('',(0.00520852355898272,-0.0258632451871321,0.01));
#1202=CARTESIAN_POINT('',(0.00483963998995258,-0.0253457479983602,0.01));
#1203=CARTESIAN_POINT('',(0.00453732379461558,-0.0248886379023782,0.01));
#1204=CARTESIAN_POINT('',(0.00430156896385475,-0.0245149737142828,0.01));
#1205=CARTESIAN_POINT('',(0.00410851958996646,-0.0241977164179073,0.01));
#1206=CARTESIAN_POINT('',(0.0039807629519421,-0.0239815138301116,0.01));
#1207=CARTESIAN_POINT('',(0.00378177727382221,-0.0236380491324625,0.01));
#1208=CARTESIAN_POINT('',(0.00353296657770921,-0.0231933665569,0.01));
#1209=CARTESIAN_POINT('',(0.0032686016785993,-0.0227024097346146,0.01));
#1210=CARTESIAN_POINT('',(0.00308009401931895,-0.0223429900690601,0.01));
#1211=CARTESIAN_POINT('',(0.00298153735965016,-0.0221526750607833,0.01));
#1212=CARTESIAN_POINT('',(0.00292921325182598,-0.0220511033411332,0.01));
#1213=CARTESIAN_POINT('',(0.00287727986455346,-0.0219497901748432,0.01));
#1214=CARTESIAN_POINT('',(0.00287281888707939,-0.0219410078007759,0.01));
#1215=CARTESIAN_POINT('',(0.00284799883601183,-0.0218923542041324,0.01));
#1216=CARTESIAN_POINT('',(0.00280769101219768,-0.0218129899934183,0.01));
#1217=CARTESIAN_POINT('',(0.00273219610958108,-0.0216637434410358,0.01));
#1218=CARTESIAN_POINT('',(0.00262142926852703,-0.0214438185199226,0.01));
#1219=CARTESIAN_POINT('',(0.00244353513659022,-0.0210896782735672,0.01));
#1220=CARTESIAN_POINT('',(0.00222320645362306,-0.0206498641123896,0.01));
#1221=CARTESIAN_POINT('',(0.0019883746802993,-0.0201802579487238,0.01));
#1222=CARTESIAN_POINT('',(0.00184847415210894,-0.0199002761201349,0.01));
#1223=CARTESIAN_POINT('',(0.00172319223352054,-0.0196495205947171,0.01));
#1224=CARTESIAN_POINT('',(0.00164919056017576,-0.0195010626423096,0.01));
#1225=CARTESIAN_POINT('',(0.00153450225581287,-0.0192700265751623,0.01));
#1226=CARTESIAN_POINT('',(0.00134583596164747,-0.0188874747516568,0.01));
#1227=CARTESIAN_POINT('',(0.00108316197453497,-0.0183478324625289,0.01));
#1228=CARTESIAN_POINT('',(0.000787498889951888,-0.0177284564240204,0.01));
#1229=CARTESIAN_POINT('',(0.000416538365976067,-0.0169347067208611,0.01));
#1230=CARTESIAN_POINT('',(8.01136209580389E-5,-0.0161876957123538,0.01));
#1231=CARTESIAN_POINT('',(-0.000180284838813807,-0.0155843287846306,0.01));
#1232=CARTESIAN_POINT('',(-0.000324653339203749,-0.015240869452901,0.01));
#1233=CARTESIAN_POINT('',(-0.000415959065816624,-0.0150203796058983,0.01));
#1234=CARTESIAN_POINT('',(-0.000550716607928776,-0.0146877650418859,0.01));
#1235=CARTESIAN_POINT('',(-0.000709907612468695,-0.0142842663870096,0.01));
#1236=CARTESIAN_POINT('',(-0.000984935292639525,-0.0135618617906614,0.01));
#1237=CARTESIAN_POINT('',(-0.00134247709142401,-0.012543353848848,0.01));
#1238=CARTESIAN_POINT('',(-0.0017211019761317,-0.0113317938712724,0.01));
#1239=CARTESIAN_POINT('',(-0.00205365170512647,-0.0101070073019628,0.01));
#1240=CARTESIAN_POINT('',(-0.00231658326028075,-0.00897544696469398,0.01));
#1241=CARTESIAN_POINT('',(-0.00263090410406528,-0.00738241477029684,0.01));
#1242=CARTESIAN_POINT('',(-0.00304949848183381,-0.00450720324607107,0.01));
#1243=CARTESIAN_POINT('',(-0.00319423542705345,-0.00185118142281574,0.01));
#1244=CARTESIAN_POINT('',(-0.0031943326264622,4.16333634234432E-19,0.01));
#1245=CARTESIAN_POINT('',(-0.00319433262646217,-4.16333634234436E-19,0.01));
#1246=CARTESIAN_POINT('',(-0.0031943326264622,-4.16333634234436E-19,0.01));
#1247=CARTESIAN_POINT('',(-0.00319428822183195,0.00186350656179022,0.01));
#1248=CARTESIAN_POINT('',(-0.00304783936819485,0.00453572161003364,0.01));
#1249=CARTESIAN_POINT('',(-0.00262331299659734,0.00742876016956054,0.01));
#1250=CARTESIAN_POINT('',(-0.00230539289860461,0.00902830318334104,0.01));
#1251=CARTESIAN_POINT('',(-0.00203714177264242,0.0101721809322291,0.01));
#1252=CARTESIAN_POINT('',(-0.00170694244534544,0.011378786967318,0.01));
#1253=CARTESIAN_POINT('',(-0.00132943447689336,0.0125814750948347,0.01));
#1254=CARTESIAN_POINT('',(-0.000973744350325013,0.0135915282120466,0.01));
#1255=CARTESIAN_POINT('',(-0.000700299072878908,0.0143085612733763,0.01));
#1256=CARTESIAN_POINT('',(-0.000541965552354472,0.0147093958053876,0.01));
#1257=CARTESIAN_POINT('',(-0.000408269686078711,0.0150391522017846,0.01));
#1258=CARTESIAN_POINT('',(-0.000316614827130816,0.0152603629483888,0.01));
#1259=CARTESIAN_POINT('',(-0.000172196503372459,0.0156036721174019,0.01));
#1260=CARTESIAN_POINT('',(8.86760290418286E-5,0.0162076421094551,0.01));
#1261=CARTESIAN_POINT('',(0.0004258824466603,0.0169556933667166,0.01));
#1262=CARTESIAN_POINT('',(0.000798108586255996,0.0177513948763724,0.01));
#1263=CARTESIAN_POINT('',(0.00109467489767369,0.018372103260833,0.01));
#1264=CARTESIAN_POINT('',(0.00135896750242042,0.0189145556059756,0.01));
#1265=CARTESIAN_POINT('',(0.00154744849875652,0.0192964241323287,0.01));
#1266=CARTESIAN_POINT('',(0.00166423684958072,0.0195314725219939,0.01));
#1267=CARTESIAN_POINT('',(0.00173367528819668,0.0196706732584429,0.01));
#1268=CARTESIAN_POINT('',(0.0018779126565326,0.0199591591018015,0.01));
#1269=CARTESIAN_POINT('',(0.00203182424619108,0.0202670186796396,0.01));
#1270=CARTESIAN_POINT('',(0.00228894088405628,0.0207810903107021,0.01));
#1271=CARTESIAN_POINT('',(0.00251839869599967,0.0212394274288523,0.01));
#1272=CARTESIAN_POINT('',(0.00269154338602504,0.0215847029409005,0.01));
#1273=CARTESIAN_POINT('',(0.00279127300581831,0.021783227432265,0.01));
#1274=CARTESIAN_POINT('',(0.00285190890571542,0.0219034416096683,0.01));
#1275=CARTESIAN_POINT('',(0.00287788494559952,0.0219547681857647,0.01));
#1276=CARTESIAN_POINT('',(0.00289477050302204,0.0219878343393676,0.01));
#1277=CARTESIAN_POINT('',(0.00288954767985234,0.0219777526169842,0.01));
#1278=CARTESIAN_POINT('',(0.00294387435036279,0.0220832949759053,0.01));
#1279=CARTESIAN_POINT('',(0.00299522535452512,0.0221825446409164,0.01));
#1280=CARTESIAN_POINT('',(0.00309414322151456,0.022372750545246,0.01));
#1281=CARTESIAN_POINT('',(0.00322853845127691,0.022627832610688,0.01));
#1282=CARTESIAN_POINT('',(0.00338890644122705,0.0229271287675524,0.01));
#1283=CARTESIAN_POINT('',(0.00359847959211495,0.0233110009374822,0.01));
#1284=CARTESIAN_POINT('',(0.0037996125609792,0.0236691612578264,0.01));
#1285=CARTESIAN_POINT('',(0.00400243587682868,0.024018009610154,0.01));
#1286=CARTESIAN_POINT('',(0.00413110417891369,0.0242354540818444,0.01));
#1287=CARTESIAN_POINT('',(0.00433484516280125,0.0245690953436372,0.01));
#1288=CARTESIAN_POINT('',(0.00458375610946542,0.0249600988995816,0.01));
#1289=CARTESIAN_POINT('',(0.00503824246814948,0.0256367014747379,0.01));
#1290=CARTESIAN_POINT('',(0.00570265959098401,0.02651423965824,0.01));
#1291=CARTESIAN_POINT('',(0.00639288156504834,0.0272870604565159,0.01));
#1292=CARTESIAN_POINT('',(0.00696892165044191,0.0278475135928969,0.01));
#1293=CARTESIAN_POINT('',(0.00738731743482891,0.028218828308632,0.01));
#1294=CARTESIAN_POINT('',(0.00789727651778153,0.028624967938753,0.01));
#1295=CARTESIAN_POINT('',(0.00858012111845112,0.0291067540290683,0.01));
#1296=CARTESIAN_POINT('',(0.00949188482164518,0.0296453669773941,0.01));
#1297=CARTESIAN_POINT('',(0.0104760526437618,0.0300885673521852,0.01));
#1298=CARTESIAN_POINT('',(0.0112901385535688,0.0303833671581969,0.01));
#1299=CARTESIAN_POINT('',(0.0119623214827897,0.0305862612368205,0.01));
#1300=CARTESIAN_POINT('',(0.0124981985481977,0.0307220354649158,0.01));
#1301=CARTESIAN_POINT('',(0.0132910955056273,0.0308939448274149,0.01));
#1302=CARTESIAN_POINT('',(0.0147175297791346,0.0311192676165522,0.01));
#1303=CARTESIAN_POINT('',(0.0160588398240678,0.0311990150253182,0.01));
#1304=CARTESIAN_POINT('',(0.017,0.0312,0.01));
#1305=CARTESIAN_POINT('',(0.017,0.0312,0.01));
#1306=CARTESIAN_POINT('',(0.0364528336867689,0.0312,0.01));
#1307=CARTESIAN_POINT('',(0.0536686291501015,0.0312,0.01));
#1308=CARTESIAN_POINT('',(0.0606607314184352,0.0242078977316663,0.01));
#1309=CARTESIAN_POINT('',(0.0586686291501015,0.0262,0.01));
#1310=CARTESIAN_POINT('',(0.0364528336867689,0.0262,0.01));
#1311=CARTESIAN_POINT('',(0.0761,0.0262,0.01));
#1312=CARTESIAN_POINT('',(0.0761,-0.027,0.01));
#1313=CARTESIAN_POINT('',(0.0761,-0.0262,0.01));
#1314=CARTESIAN_POINT('',(0.059,-0.0262,0.01));
#1315=CARTESIAN_POINT('',(0.0586686291501015,-0.0262,0.01));
#1316=CARTESIAN_POINT('',(0.0534343145750508,-0.0314343145750507,0.01));
#1317=CARTESIAN_POINT('',(0.023,1.21852356515162E-18,0.01));
#1318=CARTESIAN_POINT('',(0.0437,1.21852356515162E-18,0.01));
#1319=CARTESIAN_POINT('',(0.0769,0.,0.022));
#1320=CARTESIAN_POINT('',(0.0739166666666667,-0.0240166666666667,0.0249833333333334));
#1321=CARTESIAN_POINT('',(0.0679,0.018,0.031));
#1322=CARTESIAN_POINT('',(0.0364528336867689,0.024,0.025));
#1323=CARTESIAN_POINT('',(0.0576067699033228,0.0236364450050956,0.0253635549949043));
#1324=CARTESIAN_POINT('',(0.06795,-0.027,0.022));
#1325=CARTESIAN_POINT('',(0.0597071267333555,-0.0287071549499834,0.0202928450500166));
#1326=CARTESIAN_POINT('',(0.0591050964998248,0.0226522628130559,0.025));
#1327=CARTESIAN_POINT('',(0.0520480949219665,0.0272876842881466,0.0267123157118534));
#1328=CARTESIAN_POINT('',(0.0565,-0.0295,0.022));
#1329=CARTESIAN_POINT('',(0.0525383413891535,-0.0284712439581349,0.0255287560418651));
#1330=CARTESIAN_POINT('',(0.0364528336867689,0.029,0.025));
#1331=CARTESIAN_POINT('',(0.017,0.032,0.022));
#1332=CARTESIAN_POINT('',(0.017,0.031,0.023));
#1333=CARTESIAN_POINT('',(0.017,0.03,0.024));
#1334=CARTESIAN_POINT('',(0.017,0.029,0.025));
#1335=CARTESIAN_POINT('',(0.0355,-0.032,0.022));
#1336=CARTESIAN_POINT('',(0.017,-0.029,0.025));
#1337=CARTESIAN_POINT('',(0.017,-0.03,0.024));
#1338=CARTESIAN_POINT('',(0.017,-0.031,0.023));
#1339=CARTESIAN_POINT('',(0.017,-0.032,0.022));
#1340=CARTESIAN_POINT('',(0.017,0.029,0.025));
#1341=CARTESIAN_POINT('',(0.0162093862422738,0.0289998610931844,0.025));
#1342=CARTESIAN_POINT('',(0.0154217054040835,0.0289603694002761,0.025));
#1343=CARTESIAN_POINT('',(0.0138620640481524,0.0287728455583026,0.025));
#1344=CARTESIAN_POINT('',(0.013079516864341,0.0286221270172206,0.025));
#1345=CARTESIAN_POINT('',(0.011570745464833,0.0281709198500377,0.025));
#1346=CARTESIAN_POINT('',(0.0108493735936081,0.0278731326285109,0.025));
#1347=CARTESIAN_POINT('',(0.00947173785316894,0.0270829073574607,0.025));
#1348=CARTESIAN_POINT('',(0.00884469683790117,0.0266021449559368,0.025));
#1349=CARTESIAN_POINT('',(0.00772118684425496,0.0255132133552293,0.025));
#1350=CARTESIAN_POINT('',(0.00721384049763037,0.0248946319408275,0.025));
#1351=CARTESIAN_POINT('',(0.00631057127962665,0.0236083300428963,0.025));
#1352=CARTESIAN_POINT('',(0.00590597916115075,0.0229348657575309,0.025));
#1353=CARTESIAN_POINT('',(0.00514464773464227,0.0215604646338872,0.025));
#1354=CARTESIAN_POINT('',(0.00478718736487183,0.0208587961811734,0.025));
#1355=CARTESIAN_POINT('',(0.00408188232816733,0.0194509095296555,0.025));
#1356=CARTESIAN_POINT('',(0.00373078801601393,0.0187461759557391,0.025));
#1357=CARTESIAN_POINT('',(0.00268457787813236,0.0166296523645876,0.025));
#1358=CARTESIAN_POINT('',(0.00202021362405363,0.0152050334560856,0.025));
#1359=CARTESIAN_POINT('',(0.000859133062980956,0.0122703768100344,0.025));
#1360=CARTESIAN_POINT('',(0.000373353379112255,0.0107733704742374,0.025));
#1361=CARTESIAN_POINT('',(-0.000712783735382756,0.00623719609023562,0.025));
#1362=CARTESIAN_POINT('',(-0.000994169561055019,0.00314174180581422,0.025));
#1363=CARTESIAN_POINT('',(-0.000994332626462167,-7.97972798949333E-19,0.025));
#1364=CARTESIAN_POINT('',(0.017,0.032,0.022));
#1365=CARTESIAN_POINT('',(0.0161081932751738,0.0319997443309463,0.022));
#1366=CARTESIAN_POINT('',(0.0152033126392634,0.0319557441698151,0.022));
#1367=CARTESIAN_POINT('',(0.0133630457862493,0.0317344265061361,0.022));
#1368=CARTESIAN_POINT('',(0.0124129803820116,0.0315538740229142,0.022));
#1369=CARTESIAN_POINT('',(0.0105184840583515,0.0309877147305461,0.022));
#1370=CARTESIAN_POINT('',(0.00957866648707932,0.0306024731655862,0.022));
#1371=CARTESIAN_POINT('',(0.0077557339402837,0.0295573690155607,0.022));
#1372=CARTESIAN_POINT('',(0.00691935181087828,0.0289144826389082,0.022));
#1373=CARTESIAN_POINT('',(0.00547038543541724,0.0275089844158075,0.022));
#1374=CARTESIAN_POINT('',(0.00484275261099438,0.0267384764271722,0.022));
#1375=CARTESIAN_POINT('',(0.00377277836046176,0.0252145419668788,0.022));
#1376=CARTESIAN_POINT('',(0.00331616487575938,0.0244506589089697,0.022));
#1377=CARTESIAN_POINT('',(0.00248577480399678,0.022951780442947,0.022));
#1378=CARTESIAN_POINT('',(0.00211014049229801,0.0222127744539944,0.022));
#1379=CARTESIAN_POINT('',(0.00139572885596832,0.0207869279225999,0.022));
#1380=CARTESIAN_POINT('',(0.00104663061087969,0.0200858830519697,0.022));
#1381=CARTESIAN_POINT('',(-2.39161843314456E-5,0.0179207744625227,0.022));
#1382=CARTESIAN_POINT('',(-0.000724662325362485,0.0164211995319509,0.022));
#1383=CARTESIAN_POINT('',(-0.00197568171866425,0.0132603502006825,0.022));
#1384=CARTESIAN_POINT('',(-0.00250908222221454,0.0116202087593984,0.022));
#1385=CARTESIAN_POINT('',(-0.0036963374840849,0.0066565885842123,0.022));
#1386=CARTESIAN_POINT('',(-0.00399422134681406,0.00331428034612487,0.022));
#1387=CARTESIAN_POINT('',(-0.00399433262646216,-2.77555756156291E-19,0.022));
#1388=CARTESIAN_POINT('',(-0.00399433262646216,-2.77555756156291E-19,0.022));
#1389=CARTESIAN_POINT('',(-0.00299433262646217,-4.51028103753972E-19,0.023));
#1390=CARTESIAN_POINT('',(-0.00199433262646217,-6.24500451351652E-19,0.024));
#1391=CARTESIAN_POINT('',(-0.000994332626462167,-7.97972798949333E-19,0.025));
#1392=CARTESIAN_POINT('',(0.017,-0.032,0.022));
#1393=CARTESIAN_POINT('',(0.0152199273125685,-0.0319948031649452,0.022));
#1394=CARTESIAN_POINT('',(0.0134009810620047,-0.0318361069059143,0.022));
#1395=CARTESIAN_POINT('',(0.0105415218146094,-0.0310010703346903,0.022));
#1396=CARTESIAN_POINT('',(0.00958676364148415,-0.0306040437755562,0.022));
#1397=CARTESIAN_POINT('',(0.0077912036676469,-0.0295807445119594,0.022));
#1398=CARTESIAN_POINT('',(0.00693454329526504,-0.0289289225828702,0.022));
#1399=CARTESIAN_POINT('',(0.00547715683993873,-0.0275158102275065,0.022));
#1400=CARTESIAN_POINT('',(0.00485754599020986,-0.0267577565520269,0.022));
#1401=CARTESIAN_POINT('',(0.00377588644658502,-0.0252207108280371,0.022));
#1402=CARTESIAN_POINT('',(0.00332058998447566,-0.0244579891920409,0.022));
#1403=CARTESIAN_POINT('',(0.00249311157546315,-0.0229656774084384,0.022));
#1404=CARTESIAN_POINT('',(0.00212049668614223,-0.0222331608737115,0.022));
#1405=CARTESIAN_POINT('',(0.00141147910975601,-0.0208185814266487,0.022));
#1406=CARTESIAN_POINT('',(0.00106586822274566,-0.0201244188959326,0.022));
#1407=CARTESIAN_POINT('',(4.5460339678019E-6,-0.017979804038237,0.022));
#1408=CARTESIAN_POINT('',(-0.000692158157979409,-0.0164924938744401,0.022));
#1409=CARTESIAN_POINT('',(-0.0019362218721964,-0.0133704507557361,0.022));
#1410=CARTESIAN_POINT('',(-0.00247572359157896,-0.0117262322904013,0.022));
#1411=CARTESIAN_POINT('',(-0.00329369535427276,-0.00837086116873559,0.022));
#1412=CARTESIAN_POINT('',(-0.0035722706185418,-0.0066904885964453,0.022));
#1413=CARTESIAN_POINT('',(-0.00392130893515926,-0.00333690015680541,0.022));
#1414=CARTESIAN_POINT('',(-0.00399417988813227,-0.00166518106319177,0.022));
#1415=CARTESIAN_POINT('',(-0.00399433262646216,2.77555756156287E-19,0.022));
#1416=CARTESIAN_POINT('',(0.017,-0.029,0.025));
#1417=CARTESIAN_POINT('',(0.015421831253782,-0.0289972694402358,0.025));
#1418=CARTESIAN_POINT('',(0.0138689658598544,-0.028850692546287,0.025));
#1419=CARTESIAN_POINT('',(0.0115877936561152,-0.0281797395597944,0.025));
#1420=CARTESIAN_POINT('',(0.0108556516785068,-0.0278744137051734,0.025));
#1421=CARTESIAN_POINT('',(0.00949841130207513,-0.0271004941082459,0.025));
#1422=CARTESIAN_POINT('',(0.00885638635875735,-0.0266132527010311,0.025));
#1423=CARTESIAN_POINT('',(0.00772652184280346,-0.0255185897482123,0.025));
#1424=CARTESIAN_POINT('',(0.00722602297547199,-0.0249104843930129,0.025));
#1425=CARTESIAN_POINT('',(0.0063134886417049,-0.0236139437464197,0.025));
#1426=CARTESIAN_POINT('',(0.00590988943739177,-0.0229413363409102,0.025));
#1427=CARTESIAN_POINT('',(0.00515151987016137,-0.0215734536042899,0.025));
#1428=CARTESIAN_POINT('',(0.00479699519931189,-0.0208780918913035,0.025));
#1429=CARTESIAN_POINT('',(0.00409776328251601,-0.0194828211942062,0.025));
#1430=CARTESIAN_POINT('',(0.00374986476207061,-0.0187843939131103,0.025));
#1431=CARTESIAN_POINT('',(0.00271193738614653,-0.0166864214457112,0.025));
#1432=CARTESIAN_POINT('',(0.00205086753060832,-0.0152724125115825,0.025));
#1433=CARTESIAN_POINT('',(0.000895332251084207,-0.0123715098291359,0.025));
#1434=CARTESIAN_POINT('',(0.000403849026381596,-0.0108714263203834,0.025));
#1435=CARTESIAN_POINT('',(-0.000344418541491066,-0.00780281285466965,0.025));
#1436=CARTESIAN_POINT('',(-0.00060081209715813,-0.00626000087286738,0.025));
#1437=CARTESIAN_POINT('',(-0.000925078498477649,-0.0031455450547548,0.025));
#1438=CARTESIAN_POINT('',(-0.000994226789242283,-0.00157698110404898,0.025));
#1439=CARTESIAN_POINT('',(-0.000994332626462167,7.9797279894933E-19,0.025));
#1440=CARTESIAN_POINT('',(0.041,-0.0225,0.014));
#1441=CARTESIAN_POINT('',(0.041,-0.0225,0.014));
#1442=CARTESIAN_POINT('',(0.0446,-0.0225,0.014));
#1443=CARTESIAN_POINT('',(0.0364278336867689,0.,0.014));
#1444=CARTESIAN_POINT('',(0.069,-0.0085,0.014));
#1445=CARTESIAN_POINT('',(0.069,-0.0085,0.014));
#1446=CARTESIAN_POINT('',(0.0726,-0.0085,0.014));
#1447=CARTESIAN_POINT('',(0.0364278336867689,0.,0.014));
#1448=CARTESIAN_POINT('',(0.069,0.0085,0.014));
#1449=CARTESIAN_POINT('',(0.069,0.0085,0.014));
#1450=CARTESIAN_POINT('',(0.0726,0.0085,0.014));
#1451=CARTESIAN_POINT('',(0.0364278336867689,0.,0.014));
#1452=CARTESIAN_POINT('',(0.041,0.0225,0.014));
#1453=CARTESIAN_POINT('',(0.041,0.0225,0.014));
#1454=CARTESIAN_POINT('',(0.0446,0.0225,0.014));
#1455=CARTESIAN_POINT('',(0.0364278336867689,0.,0.014));
#1456=CARTESIAN_POINT('',(0.023,1.21852356515162E-18,0.0242));
#1457=CARTESIAN_POINT('',(0.023,1.21852356515162E-18,0.01));
#1458=CARTESIAN_POINT('',(0.0761,0.,0.01));
#1459=CARTESIAN_POINT('',(0.0628842778955898,-0.0129842778955897,-0.00321572210441036));
#1460=CARTESIAN_POINT('',(0.0673666666666667,0.0174666666666667,0.00126666666666663));
#1461=CARTESIAN_POINT('',(0.06795,0.027,0.0108));
#1462=CARTESIAN_POINT('',(0.0592793374906782,0.0276743803584746,0.0114743803584745));
#1463=CARTESIAN_POINT('',(0.0364528336867689,-0.0262,0.01));
#1464=CARTESIAN_POINT('',(0.0569133908400591,-0.0219624798666987,0.00576247986669869));
#1465=CARTESIAN_POINT('',(0.0565,0.0295,0.0108));
#1466=CARTESIAN_POINT('',(0.0537206625093218,0.0313256196415254,0.0101256196415255));
#1467=CARTESIAN_POINT('',(0.0606607314184352,-0.0242078977316663,0.01));
#1468=CARTESIAN_POINT('',(0.0523084337078554,-0.0279161977158514,0.00671619771585142));
#1469=CARTESIAN_POINT('',(0.0355,0.032,0.0108));
#1470=CARTESIAN_POINT('',(0.017,0.0312,0.01));
#1471=CARTESIAN_POINT('',(0.017,0.0314666666666667,0.0102666666666667));
#1472=CARTESIAN_POINT('',(0.017,0.0317333333333333,0.0105333333333333));
#1473=CARTESIAN_POINT('',(0.017,0.032,0.0108));
#1474=CARTESIAN_POINT('',(0.0364528336867689,-0.0312,0.01));
#1475=CARTESIAN_POINT('',(0.017,-0.032,0.0108));
#1476=CARTESIAN_POINT('',(0.017,-0.0317333333333333,0.0105333333333333));
#1477=CARTESIAN_POINT('',(0.017,-0.0314666666666667,0.0102666666666667));
#1478=CARTESIAN_POINT('',(0.017,-0.0312,0.01));
#1479=CARTESIAN_POINT('',(0.017,0.032,0.0108));
#1480=CARTESIAN_POINT('',(0.0152273424626759,0.0319978331854543,0.0108));
#1481=CARTESIAN_POINT('',(0.0134695752670301,0.0318302309232621,0.0108));
#1482=CARTESIAN_POINT('',(0.0108516847842727,0.0311032273934455,0.0108));
#1483=CARTESIAN_POINT('',(0.00998446721174742,0.0307720266201957,0.0108));
#1484=CARTESIAN_POINT('',(0.00836417012969956,0.0299388917440144,0.0108));
#1485=CARTESIAN_POINT('',(0.00759636427638294,0.0294321229442834,0.0108));
#1486=CARTESIAN_POINT('',(0.00547326648188345,0.0276489560112539,0.0108));
#1487=CARTESIAN_POINT('',(0.00437473702207934,0.0261916353882569,0.0108));
#1488=CARTESIAN_POINT('',(0.00254212970395113,0.023143896927796,0.0108));
#1489=CARTESIAN_POINT('',(0.00179821819576784,0.0215886924889871,0.0108));
#1490=CARTESIAN_POINT('',(0.000261272306457608,0.0185145281326689,0.0108));
#1491=CARTESIAN_POINT('',(-0.000495091637166367,0.0169369149259078,0.0108));
#1492=CARTESIAN_POINT('',(-0.00181616987182812,0.0137114273842416,0.0108));
#1493=CARTESIAN_POINT('',(-0.0023742012650497,0.0120631333906089,0.0108));
#1494=CARTESIAN_POINT('',(-0.00323002735923036,0.00869667150106305,0.0108));
#1495=CARTESIAN_POINT('',(-0.00353159111267649,0.0069826029129352,0.0108));
#1496=CARTESIAN_POINT('',(-0.00391348333831327,0.00349829021544739,0.0108));
#1497=CARTESIAN_POINT('',(-0.00399428002118067,0.00174581206708802,0.0108));
#1498=CARTESIAN_POINT('',(-0.00399433262646216,-2.77555756156291E-19,0.0108));
#1499=CARTESIAN_POINT('',(0.017,0.0312,0.01));
#1500=CARTESIAN_POINT('',(0.0152808125408956,0.0311982007779719,0.01));
#1501=CARTESIAN_POINT('',(0.0135925656797351,0.0310345803626698,0.01));
#1502=CARTESIAN_POINT('',(0.0111131229183638,0.0303453217112638,0.01));
#1503=CARTESIAN_POINT('',(0.0102982018508797,0.0300338260385296,0.01));
#1504=CARTESIAN_POINT('',(0.00878150166990808,0.0292538768671416,0.01));
#1505=CARTESIAN_POINT('',(0.00806514818475505,0.0287808701326723,0.01));
#1506=CARTESIAN_POINT('',(0.00607743758425943,0.0271121571177444,0.01));
#1507=CARTESIAN_POINT('',(0.00503200775964824,0.0257317275786342,0.01));
#1508=CARTESIAN_POINT('',(0.00325522482544669,0.0227779128484221,0.01));
#1509=CARTESIAN_POINT('',(0.00251344940611825,0.0212306911697413,0.01));
#1510=CARTESIAN_POINT('',(0.000978834146848511,0.0181604170494477,0.01));
#1511=CARTESIAN_POINT('',(0.000233259775443352,0.0166046580870676,0.01));
#1512=CARTESIAN_POINT('',(-0.00106381281671002,0.0134374644332373,0.01));
#1513=CARTESIAN_POINT('',(-0.00160865227072177,0.0118274170654788,0.01));
#1514=CARTESIAN_POINT('',(-0.00244498187411812,0.00853785422771299,0.01));
#1515=CARTESIAN_POINT('',(-0.00274001792856952,0.0068618204011731,0.01));
#1516=CARTESIAN_POINT('',(-0.00311460177564477,0.00344456284651675,0.01));
#1517=CARTESIAN_POINT('',(-0.00319429161366205,0.00172116334976996,0.01));
#1518=CARTESIAN_POINT('',(-0.00319433262646217,-4.16333634234436E-19,0.01));
#1519=CARTESIAN_POINT('',(-0.00319433262646217,-4.16333634234436E-19,0.01));
#1520=CARTESIAN_POINT('',(-0.00346099929312884,-3.70074341541721E-19,0.0102666666666667));
#1521=CARTESIAN_POINT('',(-0.0037276659597955,-3.23815048849006E-19,0.0105333333333333));
#1522=CARTESIAN_POINT('',(-0.00399433262646216,-2.77555756156291E-19,0.0108));
#1523=CARTESIAN_POINT('',(0.017,-0.0312,0.01));
#1524=CARTESIAN_POINT('',(0.0161357798061076,-0.0311998878800433,0.01));
#1525=CARTESIAN_POINT('',(0.0152745915849774,-0.0311565503433472,0.01));
#1526=CARTESIAN_POINT('',(0.0135661620351232,-0.0309550116501087,0.01));
#1527=CARTESIAN_POINT('',(0.012709822472098,-0.0307938833252164,0.01));
#1528=CARTESIAN_POINT('',(0.0110599634106755,-0.0303254559774054,0.01));
#1529=CARTESIAN_POINT('',(0.0102626207557342,-0.030019129123693,0.01));
#1530=CARTESIAN_POINT('',(0.00872461527279806,-0.0292208160338028,0.01));
#1531=CARTESIAN_POINT('',(0.00800793163311485,-0.0287373289134708,0.01));
#1532=CARTESIAN_POINT('',(0.0067063005561753,-0.0276353318649257,0.01));
#1533=CARTESIAN_POINT('',(0.00610839714336176,-0.0270050600769093,0.01));
#1534=CARTESIAN_POINT('',(0.00503360905616569,-0.0256562843960335,0.01));
#1535=CARTESIAN_POINT('',(0.00455905426388661,-0.0249470279314606,0.01));
#1536=CARTESIAN_POINT('',(0.0036797491613343,-0.0234820898072139,0.01));
#1537=CARTESIAN_POINT('',(0.00327559393098137,-0.0227278470526643,0.01));
#1538=CARTESIAN_POINT('',(0.00249478993472505,-0.0212025768944296,0.01));
#1539=CARTESIAN_POINT('',(0.00211474062891102,-0.0204334783772323,0.01));
#1540=CARTESIAN_POINT('',(0.00096573556536147,-0.0181327538161921,0.01));
#1541=CARTESIAN_POINT('',(0.000224823319229459,-0.0165851828108386,0.01));
#1542=CARTESIAN_POINT('',(-0.00107122538936245,-0.0134182014952881,0.01));
#1543=CARTESIAN_POINT('',(-0.00162484030726159,-0.0117774247564279,0.01));
#1544=CARTESIAN_POINT('',(-0.00245925704504452,-0.00846766525817798,0.01));
#1545=CARTESIAN_POINT('',(-0.00274933155484785,-0.0067944813779172,0.01));
#1546=CARTESIAN_POINT('',(-0.0031155633750593,-0.00341775072999137,0.01));
#1547=CARTESIAN_POINT('',(-0.00319424260465643,-0.00171448259380693,0.01));
#1548=CARTESIAN_POINT('',(-0.00319433262646217,4.16333634234432E-19,0.01));
#1549=CARTESIAN_POINT('',(0.017,-0.032,0.0108));
#1550=CARTESIAN_POINT('',(0.0161088240128509,-0.0319998661270161,0.0108));
#1551=CARTESIAN_POINT('',(0.0152167322862941,-0.0319552714885674,0.0108));
#1552=CARTESIAN_POINT('',(0.0134362287420892,-0.0317452316436649,0.0108));
#1553=CARTESIAN_POINT('',(0.0125379353712827,-0.0315766753440496,0.0108));
#1554=CARTESIAN_POINT('',(0.0107951251276507,-0.0310819075842241,0.0108));
#1555=CARTESIAN_POINT('',(0.00994656325578196,-0.0307563844519353,0.0108));
#1556=CARTESIAN_POINT('',(0.00830329163764423,-0.029903514599738,0.0108));
#1557=CARTESIAN_POINT('',(0.00753493045275412,-0.0293851216411171,0.0108));
#1558=CARTESIAN_POINT('',(0.00614532440142327,-0.0282085595590879,0.0108));
#1559=CARTESIAN_POINT('',(0.00551059897050942,-0.0275386284125012,0.0108));
#1560=CARTESIAN_POINT('',(0.00438039382149497,-0.0261201956112082,0.0108));
#1561=CARTESIAN_POINT('',(0.00388667956549403,-0.0253813134530754,0.0108));
#1562=CARTESIAN_POINT('',(0.00298025409599345,-0.0238711956575201,0.0108));
#1563=CARTESIAN_POINT('',(0.00256829974688473,-0.0231018010433218,0.0108));
#1564=CARTESIAN_POINT('',(0.0017782632855487,-0.0215585093570907,0.0108));
#1565=CARTESIAN_POINT('',(0.00139919990399601,-0.0207911167443696,0.0108));
#1566=CARTESIAN_POINT('',(0.00024748125123804,-0.018485351500466,0.0108));
#1567=CARTESIAN_POINT('',(-0.000503663711319765,-0.0169171261234293,0.0108));
#1568=CARTESIAN_POINT('',(-0.00182373791497946,-0.0136917664936523,0.0108));
#1569=CARTESIAN_POINT('',(-0.00239077057239571,-0.0120119681853876,0.0108));
#1570=CARTESIAN_POINT('',(-0.00324463256317942,-0.00862484924311231,0.0108));
#1571=CARTESIAN_POINT('',(-0.00354109481419515,-0.0069138553399018,0.0108));
#1572=CARTESIAN_POINT('',(-0.00391445643930618,-0.00347103961928004,0.0108));
#1573=CARTESIAN_POINT('',(-0.00399423133656216,-0.00173904010365856,0.0108));
#1574=CARTESIAN_POINT('',(-0.00399433262646216,2.77555756156287E-19,0.0108));
#1575=MECHANICAL_DESIGN_GEOMETRIC_PRESENTATION_REPRESENTATION('',(#676),
#1576);
#1576=(
GEOMETRIC_REPRESENTATION_CONTEXT(3)
GLOBAL_UNCERTAINTY_ASSIGNED_CONTEXT((#1577))
GLOBAL_UNIT_ASSIGNED_CONTEXT((#1580,#1579,#1578))
REPRESENTATION_CONTEXT('Bracket Top','TOP_LEVEL_ASSEMBLY_PART')
);
#1577=UNCERTAINTY_MEASURE_WITH_UNIT(LENGTH_MEASURE(2.E-5),#1580,
'DISTANCE_ACCURACY_VALUE','Maximum Tolerance applied to model');
#1578=(
NAMED_UNIT(*)
SI_UNIT($,.STERADIAN.)
SOLID_ANGLE_UNIT()
);
#1579=(
NAMED_UNIT(*)
PLANE_ANGLE_UNIT()
SI_UNIT($,.RADIAN.)
);
#1580=(
LENGTH_UNIT()
NAMED_UNIT(*)
SI_UNIT($,.METRE.)
);
#1581=PRODUCT_DEFINITION_SHAPE('','',#1582);
#1582=PRODUCT_DEFINITION('','',#1584,#1583);
#1583=PRODUCT_DEFINITION_CONTEXT('',#1590,'design');
#1584=PRODUCT_DEFINITION_FORMATION_WITH_SPECIFIED_SOURCE('','',#1586,
 .NOT_KNOWN.);
#1585=PRODUCT_RELATED_PRODUCT_CATEGORY('','',(#1586));
#1586=PRODUCT('Bracket Top','Bracket Top','Bracket Top',(#1588));
#1587=PRODUCT_CATEGORY('','');
#1588=PRODUCT_CONTEXT('',#1590,'mechanical');
#1589=APPLICATION_PROTOCOL_DEFINITION('international standard',
'ap242_managed_model_based_3d_engineering',2011,#1590);
#1590=APPLICATION_CONTEXT('managed model based 3d engineering');
ENDSEC;
END-ISO-10303-21;
