ISO-10303-21;
HEADER;
/* Generated by software containing ST-Developer
 * from STEP Tools, Inc. (www.steptools.com) 
 */
/* OPTION: using custom renumber hook */

FILE_DESCRIPTION(
/* description */ ('STEP AP242',
'CAx-IF Rec.Pracs.---Representation and Presentation of Product Manufa
cturing Information (PMI)---4.0---2014-10-13',
'CAx-IF Rec.Pracs.---3D Tessellated Geometry---0.4---2014-09-14','2;1',
'CAx-IF Rec.Pracs.---User Defined Attributes---1.5---2016-08-15'),
/* implementation_level */ '2;1');

FILE_NAME(
/* name */ '69065e20ee2a6d5daf038f61',
/* time_stamp */ '2025-11-01T19:23:13Z',
/* author */ (''),
/* organization */ (''),
/* preprocessor_version */ 'ST-DEVELOPER v20',
/* originating_system */ 'ONSHAPE BY PTC INC, 1.206',
/* authorisation */ '  ');

FILE_SCHEMA (('AP242_MANAGED_MODEL_BASED_3D_ENGINEERING_MIM_LF { 1 0 10303 442 1 1 4 }'));
ENDSEC;

DATA;
#10=SHAPE_REPRESENTATION_RELATIONSHIP('','',#738,#11);
#11=ADVANCED_BREP_SHAPE_REPRESENTATION('',(#736),#1229);
#12=B_SPLINE_CURVE_WITH_KNOTS('',3,(#1039,#1040,#1041,#1042,#1043,#1044,
#1045),.UNSPECIFIED.,.F.,.F.,(4,1,1,1,4),(0.,0.00197323391090917,0.00394646782181834,
0.0059197017327275,0.00789293564363667),.UNSPECIFIED.);
#13=B_SPLINE_CURVE_WITH_KNOTS('',3,(#1049,#1050,#1051,#1052,#1053,#1054,
#1055),.UNSPECIFIED.,.F.,.F.,(4,1,1,1,4),(0.,0.00197323391090917,0.00394646782181834,
0.00591970173272751,0.00789293564363669),.UNSPECIFIED.);
#14=CIRCLE('',#742,0.110075);
#15=CIRCLE('',#743,0.110075);
#16=CIRCLE('',#745,0.00425);
#17=CIRCLE('',#746,0.00425);
#18=CIRCLE('',#747,0.002525);
#19=CIRCLE('',#748,0.002525);
#20=CIRCLE('',#750,0.00425);
#21=CIRCLE('',#751,0.00425);
#22=CIRCLE('',#752,0.00425);
#23=CIRCLE('',#755,0.005625);
#24=CIRCLE('',#756,0.005);
#25=CIRCLE('',#757,0.005);
#26=CIRCLE('',#758,0.003);
#27=CIRCLE('',#759,0.005);
#28=CIRCLE('',#760,0.005);
#29=CIRCLE('',#761,0.00305);
#30=CIRCLE('',#762,0.00305);
#31=CIRCLE('',#766,0.0033);
#32=CIRCLE('',#780,0.0033);
#33=CIRCLE('',#782,0.005625);
#34=CIRCLE('',#785,0.005);
#35=CIRCLE('',#788,0.005);
#36=CIRCLE('',#791,0.00305);
#37=CIRCLE('',#794,0.003);
#38=CIRCLE('',#799,0.00305);
#39=CIRCLE('',#800,0.005);
#40=CIRCLE('',#801,0.005);
#41=CYLINDRICAL_SURFACE('',#741,0.110075);
#42=CYLINDRICAL_SURFACE('',#771,0.00425);
#43=CYLINDRICAL_SURFACE('',#773,0.00425);
#44=CYLINDRICAL_SURFACE('',#775,0.002525);
#45=CYLINDRICAL_SURFACE('',#777,0.002525);
#46=CYLINDRICAL_SURFACE('',#779,0.0033);
#47=CYLINDRICAL_SURFACE('',#783,0.005625);
#48=CYLINDRICAL_SURFACE('',#784,0.005);
#49=CYLINDRICAL_SURFACE('',#787,0.005);
#50=CYLINDRICAL_SURFACE('',#790,0.00305);
#51=CYLINDRICAL_SURFACE('',#795,0.003);
#52=CYLINDRICAL_SURFACE('',#802,0.005);
#53=CYLINDRICAL_SURFACE('',#803,0.005);
#54=CYLINDRICAL_SURFACE('',#805,0.00305);
#55=ORIENTED_EDGE('',*,*,#253,.F.);
#56=ORIENTED_EDGE('',*,*,#254,.T.);
#57=ORIENTED_EDGE('',*,*,#255,.F.);
#58=ORIENTED_EDGE('',*,*,#256,.T.);
#59=ORIENTED_EDGE('',*,*,#257,.T.);
#60=ORIENTED_EDGE('',*,*,#258,.T.);
#61=ORIENTED_EDGE('',*,*,#259,.F.);
#62=ORIENTED_EDGE('',*,*,#260,.F.);
#63=ORIENTED_EDGE('',*,*,#261,.F.);
#64=ORIENTED_EDGE('',*,*,#262,.F.);
#65=ORIENTED_EDGE('',*,*,#263,.T.);
#66=ORIENTED_EDGE('',*,*,#264,.T.);
#67=ORIENTED_EDGE('',*,*,#259,.T.);
#68=ORIENTED_EDGE('',*,*,#265,.F.);
#69=ORIENTED_EDGE('',*,*,#266,.T.);
#70=ORIENTED_EDGE('',*,*,#267,.F.);
#71=ORIENTED_EDGE('',*,*,#268,.F.);
#72=ORIENTED_EDGE('',*,*,#269,.F.);
#73=ORIENTED_EDGE('',*,*,#270,.T.);
#74=ORIENTED_EDGE('',*,*,#271,.T.);
#75=ORIENTED_EDGE('',*,*,#272,.T.);
#76=ORIENTED_EDGE('',*,*,#273,.F.);
#77=ORIENTED_EDGE('',*,*,#274,.T.);
#78=ORIENTED_EDGE('',*,*,#275,.F.);
#79=ORIENTED_EDGE('',*,*,#276,.F.);
#80=ORIENTED_EDGE('',*,*,#277,.F.);
#81=ORIENTED_EDGE('',*,*,#278,.T.);
#82=ORIENTED_EDGE('',*,*,#279,.F.);
#83=ORIENTED_EDGE('',*,*,#280,.F.);
#84=ORIENTED_EDGE('',*,*,#281,.F.);
#85=ORIENTED_EDGE('',*,*,#282,.T.);
#86=ORIENTED_EDGE('',*,*,#283,.F.);
#87=ORIENTED_EDGE('',*,*,#284,.F.);
#88=ORIENTED_EDGE('',*,*,#285,.T.);
#89=ORIENTED_EDGE('',*,*,#286,.F.);
#90=ORIENTED_EDGE('',*,*,#287,.F.);
#91=ORIENTED_EDGE('',*,*,#288,.T.);
#92=ORIENTED_EDGE('',*,*,#289,.T.);
#93=ORIENTED_EDGE('',*,*,#261,.T.);
#94=ORIENTED_EDGE('',*,*,#290,.T.);
#95=ORIENTED_EDGE('',*,*,#291,.T.);
#96=ORIENTED_EDGE('',*,*,#292,.F.);
#97=ORIENTED_EDGE('',*,*,#293,.T.);
#98=ORIENTED_EDGE('',*,*,#263,.F.);
#99=ORIENTED_EDGE('',*,*,#294,.F.);
#100=ORIENTED_EDGE('',*,*,#295,.F.);
#101=ORIENTED_EDGE('',*,*,#296,.F.);
#102=ORIENTED_EDGE('',*,*,#297,.F.);
#103=ORIENTED_EDGE('',*,*,#298,.F.);
#104=ORIENTED_EDGE('',*,*,#287,.T.);
#105=ORIENTED_EDGE('',*,*,#299,.T.);
#106=ORIENTED_EDGE('',*,*,#255,.T.);
#107=ORIENTED_EDGE('',*,*,#300,.T.);
#108=ORIENTED_EDGE('',*,*,#301,.T.);
#109=ORIENTED_EDGE('',*,*,#302,.T.);
#110=ORIENTED_EDGE('',*,*,#303,.T.);
#111=ORIENTED_EDGE('',*,*,#304,.T.);
#112=ORIENTED_EDGE('',*,*,#305,.T.);
#113=ORIENTED_EDGE('',*,*,#306,.F.);
#114=ORIENTED_EDGE('',*,*,#307,.T.);
#115=ORIENTED_EDGE('',*,*,#258,.F.);
#116=ORIENTED_EDGE('',*,*,#308,.T.);
#117=ORIENTED_EDGE('',*,*,#285,.F.);
#118=ORIENTED_EDGE('',*,*,#309,.T.);
#119=ORIENTED_EDGE('',*,*,#290,.F.);
#120=ORIENTED_EDGE('',*,*,#260,.T.);
#121=ORIENTED_EDGE('',*,*,#310,.F.);
#122=ORIENTED_EDGE('',*,*,#311,.T.);
#123=ORIENTED_EDGE('',*,*,#284,.T.);
#124=ORIENTED_EDGE('',*,*,#312,.F.);
#125=ORIENTED_EDGE('',*,*,#313,.F.);
#126=ORIENTED_EDGE('',*,*,#283,.T.);
#127=ORIENTED_EDGE('',*,*,#277,.T.);
#128=ORIENTED_EDGE('',*,*,#314,.F.);
#129=ORIENTED_EDGE('',*,*,#315,.F.);
#130=ORIENTED_EDGE('',*,*,#312,.T.);
#131=ORIENTED_EDGE('',*,*,#286,.T.);
#132=ORIENTED_EDGE('',*,*,#316,.T.);
#133=ORIENTED_EDGE('',*,*,#317,.F.);
#134=ORIENTED_EDGE('',*,*,#314,.T.);
#135=ORIENTED_EDGE('',*,*,#317,.T.);
#136=ORIENTED_EDGE('',*,*,#318,.T.);
#137=ORIENTED_EDGE('',*,*,#256,.F.);
#138=ORIENTED_EDGE('',*,*,#299,.F.);
#139=ORIENTED_EDGE('',*,*,#292,.T.);
#140=ORIENTED_EDGE('',*,*,#319,.T.);
#141=ORIENTED_EDGE('',*,*,#310,.T.);
#142=ORIENTED_EDGE('',*,*,#315,.T.);
#143=ORIENTED_EDGE('',*,*,#316,.F.);
#144=ORIENTED_EDGE('',*,*,#308,.F.);
#145=ORIENTED_EDGE('',*,*,#257,.F.);
#146=ORIENTED_EDGE('',*,*,#318,.F.);
#147=ORIENTED_EDGE('',*,*,#291,.F.);
#148=ORIENTED_EDGE('',*,*,#309,.F.);
#149=ORIENTED_EDGE('',*,*,#311,.F.);
#150=ORIENTED_EDGE('',*,*,#319,.F.);
#151=ORIENTED_EDGE('',*,*,#282,.F.);
#152=ORIENTED_EDGE('',*,*,#320,.F.);
#153=ORIENTED_EDGE('',*,*,#269,.T.);
#154=ORIENTED_EDGE('',*,*,#321,.T.);
#155=ORIENTED_EDGE('',*,*,#278,.F.);
#156=ORIENTED_EDGE('',*,*,#281,.T.);
#157=ORIENTED_EDGE('',*,*,#322,.F.);
#158=ORIENTED_EDGE('',*,*,#270,.F.);
#159=ORIENTED_EDGE('',*,*,#320,.T.);
#160=ORIENTED_EDGE('',*,*,#280,.T.);
#161=ORIENTED_EDGE('',*,*,#323,.F.);
#162=ORIENTED_EDGE('',*,*,#271,.F.);
#163=ORIENTED_EDGE('',*,*,#322,.T.);
#164=ORIENTED_EDGE('',*,*,#279,.T.);
#165=ORIENTED_EDGE('',*,*,#321,.F.);
#166=ORIENTED_EDGE('',*,*,#272,.F.);
#167=ORIENTED_EDGE('',*,*,#323,.T.);
#168=ORIENTED_EDGE('',*,*,#324,.T.);
#169=ORIENTED_EDGE('',*,*,#274,.F.);
#170=ORIENTED_EDGE('',*,*,#325,.F.);
#171=ORIENTED_EDGE('',*,*,#266,.F.);
#172=ORIENTED_EDGE('',*,*,#267,.T.);
#173=ORIENTED_EDGE('',*,*,#325,.T.);
#174=ORIENTED_EDGE('',*,*,#273,.T.);
#175=ORIENTED_EDGE('',*,*,#326,.F.);
#176=ORIENTED_EDGE('',*,*,#268,.T.);
#177=ORIENTED_EDGE('',*,*,#326,.T.);
#178=ORIENTED_EDGE('',*,*,#276,.T.);
#179=ORIENTED_EDGE('',*,*,#327,.F.);
#180=ORIENTED_EDGE('',*,*,#265,.T.);
#181=ORIENTED_EDGE('',*,*,#327,.T.);
#182=ORIENTED_EDGE('',*,*,#275,.T.);
#183=ORIENTED_EDGE('',*,*,#324,.F.);
#184=ORIENTED_EDGE('',*,*,#328,.F.);
#185=ORIENTED_EDGE('',*,*,#313,.T.);
#186=ORIENTED_EDGE('',*,*,#328,.T.);
#187=ORIENTED_EDGE('',*,*,#329,.F.);
#188=ORIENTED_EDGE('',*,*,#329,.T.);
#189=ORIENTED_EDGE('',*,*,#293,.F.);
#190=ORIENTED_EDGE('',*,*,#302,.F.);
#191=ORIENTED_EDGE('',*,*,#330,.T.);
#192=ORIENTED_EDGE('',*,*,#331,.T.);
#193=ORIENTED_EDGE('',*,*,#332,.F.);
#194=ORIENTED_EDGE('',*,*,#303,.F.);
#195=ORIENTED_EDGE('',*,*,#332,.T.);
#196=ORIENTED_EDGE('',*,*,#333,.T.);
#197=ORIENTED_EDGE('',*,*,#334,.F.);
#198=ORIENTED_EDGE('',*,*,#304,.F.);
#199=ORIENTED_EDGE('',*,*,#334,.T.);
#200=ORIENTED_EDGE('',*,*,#335,.T.);
#201=ORIENTED_EDGE('',*,*,#336,.F.);
#202=ORIENTED_EDGE('',*,*,#305,.F.);
#203=ORIENTED_EDGE('',*,*,#336,.T.);
#204=ORIENTED_EDGE('',*,*,#337,.T.);
#205=ORIENTED_EDGE('',*,*,#264,.F.);
#206=ORIENTED_EDGE('',*,*,#338,.F.);
#207=ORIENTED_EDGE('',*,*,#306,.T.);
#208=ORIENTED_EDGE('',*,*,#301,.F.);
#209=ORIENTED_EDGE('',*,*,#339,.T.);
#210=ORIENTED_EDGE('',*,*,#340,.T.);
#211=ORIENTED_EDGE('',*,*,#330,.F.);
#212=ORIENTED_EDGE('',*,*,#338,.T.);
#213=ORIENTED_EDGE('',*,*,#331,.F.);
#214=ORIENTED_EDGE('',*,*,#340,.F.);
#215=ORIENTED_EDGE('',*,*,#341,.T.);
#216=ORIENTED_EDGE('',*,*,#253,.T.);
#217=ORIENTED_EDGE('',*,*,#337,.F.);
#218=ORIENTED_EDGE('',*,*,#335,.F.);
#219=ORIENTED_EDGE('',*,*,#333,.F.);
#220=ORIENTED_EDGE('',*,*,#300,.F.);
#221=ORIENTED_EDGE('',*,*,#254,.F.);
#222=ORIENTED_EDGE('',*,*,#341,.F.);
#223=ORIENTED_EDGE('',*,*,#339,.F.);
#224=ORIENTED_EDGE('',*,*,#288,.F.);
#225=ORIENTED_EDGE('',*,*,#298,.T.);
#226=ORIENTED_EDGE('',*,*,#342,.T.);
#227=ORIENTED_EDGE('',*,*,#343,.F.);
#228=ORIENTED_EDGE('',*,*,#344,.F.);
#229=ORIENTED_EDGE('',*,*,#294,.T.);
#230=ORIENTED_EDGE('',*,*,#262,.T.);
#231=ORIENTED_EDGE('',*,*,#345,.F.);
#232=ORIENTED_EDGE('',*,*,#346,.F.);
#233=ORIENTED_EDGE('',*,*,#347,.T.);
#234=ORIENTED_EDGE('',*,*,#348,.T.);
#235=ORIENTED_EDGE('',*,*,#349,.T.);
#236=ORIENTED_EDGE('',*,*,#345,.T.);
#237=ORIENTED_EDGE('',*,*,#289,.F.);
#238=ORIENTED_EDGE('',*,*,#343,.T.);
#239=ORIENTED_EDGE('',*,*,#350,.F.);
#240=ORIENTED_EDGE('',*,*,#295,.T.);
#241=ORIENTED_EDGE('',*,*,#344,.T.);
#242=ORIENTED_EDGE('',*,*,#349,.F.);
#243=ORIENTED_EDGE('',*,*,#342,.F.);
#244=ORIENTED_EDGE('',*,*,#297,.T.);
#245=ORIENTED_EDGE('',*,*,#351,.T.);
#246=ORIENTED_EDGE('',*,*,#347,.F.);
#247=ORIENTED_EDGE('',*,*,#351,.F.);
#248=ORIENTED_EDGE('',*,*,#296,.T.);
#249=ORIENTED_EDGE('',*,*,#350,.T.);
#250=ORIENTED_EDGE('',*,*,#348,.F.);
#251=ORIENTED_EDGE('',*,*,#346,.T.);
#252=ORIENTED_EDGE('',*,*,#307,.F.);
#253=EDGE_CURVE('',#352,#353,#419,.T.);
#254=EDGE_CURVE('',#352,#354,#420,.F.);
#255=EDGE_CURVE('',#355,#354,#421,.T.);
#256=EDGE_CURVE('',#355,#356,#422,.T.);
#257=EDGE_CURVE('',#356,#357,#423,.T.);
#258=EDGE_CURVE('',#357,#358,#424,.T.);
#259=EDGE_CURVE('',#353,#358,#425,.T.);
#260=EDGE_CURVE('',#359,#358,#14,.T.);
#261=EDGE_CURVE('',#360,#359,#426,.T.);
#262=EDGE_CURVE('',#361,#360,#427,.T.);
#263=EDGE_CURVE('',#361,#362,#15,.T.);
#264=EDGE_CURVE('',#362,#353,#428,.T.);
#265=EDGE_CURVE('',#363,#364,#429,.T.);
#266=EDGE_CURVE('',#363,#365,#12,.T.);
#267=EDGE_CURVE('',#366,#365,#430,.F.);
#268=EDGE_CURVE('',#364,#366,#13,.T.);
#269=EDGE_CURVE('',#367,#368,#16,.T.);
#270=EDGE_CURVE('',#367,#369,#431,.T.);
#271=EDGE_CURVE('',#369,#370,#17,.T.);
#272=EDGE_CURVE('',#370,#368,#432,.T.);
#273=EDGE_CURVE('',#371,#372,#433,.T.);
#274=EDGE_CURVE('',#371,#373,#18,.F.);
#275=EDGE_CURVE('',#374,#373,#434,.T.);
#276=EDGE_CURVE('',#372,#374,#19,.T.);
#277=EDGE_CURVE('',#375,#376,#435,.T.);
#278=EDGE_CURVE('',#375,#377,#20,.T.);
#279=EDGE_CURVE('',#378,#377,#436,.T.);
#280=EDGE_CURVE('',#379,#378,#21,.T.);
#281=EDGE_CURVE('',#380,#379,#437,.T.);
#282=EDGE_CURVE('',#380,#375,#22,.T.);
#283=EDGE_CURVE('',#381,#375,#438,.T.);
#284=EDGE_CURVE('',#382,#381,#439,.T.);
#285=EDGE_CURVE('',#382,#383,#440,.T.);
#286=EDGE_CURVE('',#376,#383,#441,.T.);
#287=EDGE_CURVE('',#384,#385,#442,.T.);
#288=EDGE_CURVE('',#384,#386,#443,.T.);
#289=EDGE_CURVE('',#386,#360,#444,.T.);
#290=EDGE_CURVE('',#359,#387,#445,.T.);
#291=EDGE_CURVE('',#387,#388,#446,.T.);
#292=EDGE_CURVE('',#385,#388,#447,.T.);
#293=EDGE_CURVE('',#389,#389,#23,.T.);
#294=EDGE_CURVE('',#390,#361,#448,.T.);
#295=EDGE_CURVE('',#391,#390,#24,.F.);
#296=EDGE_CURVE('',#392,#391,#449,.T.);
#297=EDGE_CURVE('',#393,#392,#25,.F.);
#298=EDGE_CURVE('',#384,#393,#450,.T.);
#299=EDGE_CURVE('',#385,#355,#451,.T.);
#300=EDGE_CURVE('',#354,#394,#26,.F.);
#301=EDGE_CURVE('',#394,#395,#452,.T.);
#302=EDGE_CURVE('',#395,#396,#27,.T.);
#303=EDGE_CURVE('',#396,#397,#453,.T.);
#304=EDGE_CURVE('',#397,#398,#28,.T.);
#305=EDGE_CURVE('',#398,#362,#454,.T.);
#306=EDGE_CURVE('',#399,#399,#29,.T.);
#307=EDGE_CURVE('',#400,#400,#30,.F.);
#308=EDGE_CURVE('',#357,#383,#455,.T.);
#309=EDGE_CURVE('',#382,#387,#456,.T.);
#310=EDGE_CURVE('',#401,#402,#457,.T.);
#311=EDGE_CURVE('',#401,#382,#458,.T.);
#312=EDGE_CURVE('',#402,#381,#459,.T.);
#313=EDGE_CURVE('',#403,#403,#31,.F.);
#314=EDGE_CURVE('',#404,#376,#460,.T.);
#315=EDGE_CURVE('',#402,#404,#461,.T.);
#316=EDGE_CURVE('',#383,#405,#462,.T.);
#317=EDGE_CURVE('',#404,#405,#463,.T.);
#318=EDGE_CURVE('',#405,#356,#464,.T.);
#319=EDGE_CURVE('',#388,#401,#465,.T.);
#320=EDGE_CURVE('',#367,#380,#466,.T.);
#321=EDGE_CURVE('',#368,#377,#467,.T.);
#322=EDGE_CURVE('',#369,#379,#468,.T.);
#323=EDGE_CURVE('',#370,#378,#469,.T.);
#324=EDGE_CURVE('',#363,#373,#470,.T.);
#325=EDGE_CURVE('',#365,#371,#471,.T.);
#326=EDGE_CURVE('',#366,#372,#472,.T.);
#327=EDGE_CURVE('',#364,#374,#473,.T.);
#328=EDGE_CURVE('',#406,#406,#32,.T.);
#329=EDGE_CURVE('',#407,#407,#33,.T.);
#330=EDGE_CURVE('',#395,#408,#474,.T.);
#331=EDGE_CURVE('',#408,#409,#34,.T.);
#332=EDGE_CURVE('',#396,#409,#475,.T.);
#333=EDGE_CURVE('',#409,#410,#476,.T.);
#334=EDGE_CURVE('',#397,#410,#477,.T.);
#335=EDGE_CURVE('',#410,#411,#35,.T.);
#336=EDGE_CURVE('',#398,#411,#478,.T.);
#337=EDGE_CURVE('',#411,#353,#479,.T.);
#338=EDGE_CURVE('',#412,#412,#36,.T.);
#339=EDGE_CURVE('',#394,#413,#480,.T.);
#340=EDGE_CURVE('',#413,#408,#481,.T.);
#341=EDGE_CURVE('',#413,#352,#37,.T.);
#342=EDGE_CURVE('',#393,#414,#482,.T.);
#343=EDGE_CURVE('',#386,#414,#483,.T.);
#344=EDGE_CURVE('',#390,#415,#484,.T.);
#345=EDGE_CURVE('',#415,#360,#485,.T.);
#346=EDGE_CURVE('',#416,#416,#38,.T.);
#347=EDGE_CURVE('',#414,#417,#39,.T.);
#348=EDGE_CURVE('',#417,#418,#486,.T.);
#349=EDGE_CURVE('',#418,#415,#40,.T.);
#350=EDGE_CURVE('',#391,#418,#487,.T.);
#351=EDGE_CURVE('',#392,#417,#488,.T.);
#352=VERTEX_POINT('',#1013);
#353=VERTEX_POINT('',#1014);
#354=VERTEX_POINT('',#1016);
#355=VERTEX_POINT('',#1018);
#356=VERTEX_POINT('',#1020);
#357=VERTEX_POINT('',#1022);
#358=VERTEX_POINT('',#1024);
#359=VERTEX_POINT('',#1028);
#360=VERTEX_POINT('',#1030);
#361=VERTEX_POINT('',#1032);
#362=VERTEX_POINT('',#1034);
#363=VERTEX_POINT('',#1037);
#364=VERTEX_POINT('',#1038);
#365=VERTEX_POINT('',#1046);
#366=VERTEX_POINT('',#1048);
#367=VERTEX_POINT('',#1058);
#368=VERTEX_POINT('',#1059);
#369=VERTEX_POINT('',#1061);
#370=VERTEX_POINT('',#1063);
#371=VERTEX_POINT('',#1066);
#372=VERTEX_POINT('',#1067);
#373=VERTEX_POINT('',#1069);
#374=VERTEX_POINT('',#1071);
#375=VERTEX_POINT('',#1075);
#376=VERTEX_POINT('',#1076);
#377=VERTEX_POINT('',#1078);
#378=VERTEX_POINT('',#1080);
#379=VERTEX_POINT('',#1082);
#380=VERTEX_POINT('',#1084);
#381=VERTEX_POINT('',#1087);
#382=VERTEX_POINT('',#1089);
#383=VERTEX_POINT('',#1091);
#384=VERTEX_POINT('',#1095);
#385=VERTEX_POINT('',#1096);
#386=VERTEX_POINT('',#1098);
#387=VERTEX_POINT('',#1101);
#388=VERTEX_POINT('',#1103);
#389=VERTEX_POINT('',#1107);
#390=VERTEX_POINT('',#1109);
#391=VERTEX_POINT('',#1111);
#392=VERTEX_POINT('',#1113);
#393=VERTEX_POINT('',#1115);
#394=VERTEX_POINT('',#1119);
#395=VERTEX_POINT('',#1121);
#396=VERTEX_POINT('',#1123);
#397=VERTEX_POINT('',#1125);
#398=VERTEX_POINT('',#1127);
#399=VERTEX_POINT('',#1130);
#400=VERTEX_POINT('',#1132);
#401=VERTEX_POINT('',#1138);
#402=VERTEX_POINT('',#1139);
#403=VERTEX_POINT('',#1144);
#404=VERTEX_POINT('',#1146);
#405=VERTEX_POINT('',#1150);
#406=VERTEX_POINT('',#1175);
#407=VERTEX_POINT('',#1178);
#408=VERTEX_POINT('',#1182);
#409=VERTEX_POINT('',#1184);
#410=VERTEX_POINT('',#1188);
#411=VERTEX_POINT('',#1192);
#412=VERTEX_POINT('',#1198);
#413=VERTEX_POINT('',#1201);
#414=VERTEX_POINT('',#1208);
#415=VERTEX_POINT('',#1212);
#416=VERTEX_POINT('',#1216);
#417=VERTEX_POINT('',#1218);
#418=VERTEX_POINT('',#1220);
#419=LINE('',#1012,#489);
#420=LINE('',#1015,#490);
#421=LINE('',#1017,#491);
#422=LINE('',#1019,#492);
#423=LINE('',#1021,#493);
#424=LINE('',#1023,#494);
#425=LINE('',#1025,#495);
#426=LINE('',#1029,#496);
#427=LINE('',#1031,#497);
#428=LINE('',#1035,#498);
#429=LINE('',#1036,#499);
#430=LINE('',#1047,#500);
#431=LINE('',#1060,#501);
#432=LINE('',#1064,#502);
#433=LINE('',#1065,#503);
#434=LINE('',#1070,#504);
#435=LINE('',#1074,#505);
#436=LINE('',#1079,#506);
#437=LINE('',#1083,#507);
#438=LINE('',#1086,#508);
#439=LINE('',#1088,#509);
#440=LINE('',#1090,#510);
#441=LINE('',#1092,#511);
#442=LINE('',#1094,#512);
#443=LINE('',#1097,#513);
#444=LINE('',#1099,#514);
#445=LINE('',#1100,#515);
#446=LINE('',#1102,#516);
#447=LINE('',#1104,#517);
#448=LINE('',#1108,#518);
#449=LINE('',#1112,#519);
#450=LINE('',#1116,#520);
#451=LINE('',#1117,#521);
#452=LINE('',#1120,#522);
#453=LINE('',#1124,#523);
#454=LINE('',#1128,#524);
#455=LINE('',#1134,#525);
#456=LINE('',#1135,#526);
#457=LINE('',#1137,#527);
#458=LINE('',#1140,#528);
#459=LINE('',#1141,#529);
#460=LINE('',#1145,#530);
#461=LINE('',#1147,#531);
#462=LINE('',#1149,#532);
#463=LINE('',#1151,#533);
#464=LINE('',#1153,#534);
#465=LINE('',#1154,#535);
#466=LINE('',#1158,#536);
#467=LINE('',#1159,#537);
#468=LINE('',#1161,#538);
#469=LINE('',#1163,#539);
#470=LINE('',#1166,#540);
#471=LINE('',#1167,#541);
#472=LINE('',#1169,#542);
#473=LINE('',#1171,#543);
#474=LINE('',#1181,#544);
#475=LINE('',#1185,#545);
#476=LINE('',#1187,#546);
#477=LINE('',#1189,#547);
#478=LINE('',#1193,#548);
#479=LINE('',#1195,#549);
#480=LINE('',#1200,#550);
#481=LINE('',#1202,#551);
#482=LINE('',#1207,#552);
#483=LINE('',#1209,#553);
#484=LINE('',#1211,#554);
#485=LINE('',#1213,#555);
#486=LINE('',#1219,#556);
#487=LINE('',#1223,#557);
#488=LINE('',#1225,#558);
#489=VECTOR('',#810,1.);
#490=VECTOR('',#811,1.);
#491=VECTOR('',#812,1.);
#492=VECTOR('',#813,1.);
#493=VECTOR('',#814,1.);
#494=VECTOR('',#815,1.);
#495=VECTOR('',#816,1.);
#496=VECTOR('',#821,1.);
#497=VECTOR('',#822,1.);
#498=VECTOR('',#825,1.);
#499=VECTOR('',#826,1.);
#500=VECTOR('',#827,1.);
#501=VECTOR('',#832,1.);
#502=VECTOR('',#835,1.);
#503=VECTOR('',#836,1.);
#504=VECTOR('',#839,1.);
#505=VECTOR('',#844,1.);
#506=VECTOR('',#847,1.);
#507=VECTOR('',#850,1.);
#508=VECTOR('',#853,1.);
#509=VECTOR('',#854,1.);
#510=VECTOR('',#855,1.);
#511=VECTOR('',#856,1.);
#512=VECTOR('',#859,1.);
#513=VECTOR('',#860,1.);
#514=VECTOR('',#861,1.);
#515=VECTOR('',#862,1.);
#516=VECTOR('',#863,1.);
#517=VECTOR('',#864,1.);
#518=VECTOR('',#869,1.);
#519=VECTOR('',#872,1.);
#520=VECTOR('',#875,1.);
#521=VECTOR('',#876,1.);
#522=VECTOR('',#879,1.);
#523=VECTOR('',#882,1.);
#524=VECTOR('',#885,1.);
#525=VECTOR('',#892,1.);
#526=VECTOR('',#893,1.);
#527=VECTOR('',#896,1.);
#528=VECTOR('',#897,1.);
#529=VECTOR('',#898,1.);
#530=VECTOR('',#903,1.);
#531=VECTOR('',#904,1.);
#532=VECTOR('',#907,1.);
#533=VECTOR('',#908,1.);
#534=VECTOR('',#911,1.);
#535=VECTOR('',#912,1.);
#536=VECTOR('',#919,1.);
#537=VECTOR('',#920,1.);
#538=VECTOR('',#923,1.);
#539=VECTOR('',#926,1.);
#540=VECTOR('',#931,1.);
#541=VECTOR('',#932,1.);
#542=VECTOR('',#935,1.);
#543=VECTOR('',#938,1.);
#544=VECTOR('',#953,1.);
#545=VECTOR('',#956,1.);
#546=VECTOR('',#959,1.);
#547=VECTOR('',#960,1.);
#548=VECTOR('',#965,1.);
#549=VECTOR('',#968,1.);
#550=VECTOR('',#975,1.);
#551=VECTOR('',#976,1.);
#552=VECTOR('',#985,1.);
#553=VECTOR('',#986,1.);
#554=VECTOR('',#989,1.);
#555=VECTOR('',#990,1.);
#556=VECTOR('',#997,1.);
#557=VECTOR('',#1002,1.);
#558=VECTOR('',#1005,1.);
#559=EDGE_LOOP('',(#55,#56,#57,#58,#59,#60,#61));
#560=EDGE_LOOP('',(#62,#63,#64,#65,#66,#67));
#561=EDGE_LOOP('',(#68,#69,#70,#71));
#562=EDGE_LOOP('',(#72,#73,#74,#75));
#563=EDGE_LOOP('',(#76,#77,#78,#79));
#564=EDGE_LOOP('',(#80,#81,#82,#83,#84,#85,#86,#87,#88,#89));
#565=EDGE_LOOP('',(#90,#91,#92,#93,#94,#95,#96));
#566=EDGE_LOOP('',(#97));
#567=EDGE_LOOP('',(#98,#99,#100,#101,#102,#103,#104,#105,#106,#107,#108,
#109,#110,#111,#112));
#568=EDGE_LOOP('',(#113));
#569=EDGE_LOOP('',(#114));
#570=EDGE_LOOP('',(#115,#116,#117,#118,#119,#120));
#571=EDGE_LOOP('',(#121,#122,#123,#124));
#572=EDGE_LOOP('',(#125));
#573=EDGE_LOOP('',(#126,#127,#128,#129,#130));
#574=EDGE_LOOP('',(#131,#132,#133,#134));
#575=EDGE_LOOP('',(#135,#136,#137,#138,#139,#140,#141,#142));
#576=EDGE_LOOP('',(#143,#144,#145,#146));
#577=EDGE_LOOP('',(#147,#148,#149,#150));
#578=EDGE_LOOP('',(#151,#152,#153,#154,#155));
#579=EDGE_LOOP('',(#156,#157,#158,#159));
#580=EDGE_LOOP('',(#160,#161,#162,#163));
#581=EDGE_LOOP('',(#164,#165,#166,#167));
#582=EDGE_LOOP('',(#168,#169,#170,#171));
#583=EDGE_LOOP('',(#172,#173,#174,#175));
#584=EDGE_LOOP('',(#176,#177,#178,#179));
#585=EDGE_LOOP('',(#180,#181,#182,#183));
#586=EDGE_LOOP('',(#184));
#587=EDGE_LOOP('',(#185));
#588=EDGE_LOOP('',(#186));
#589=EDGE_LOOP('',(#187));
#590=EDGE_LOOP('',(#188));
#591=EDGE_LOOP('',(#189));
#592=EDGE_LOOP('',(#190,#191,#192,#193));
#593=EDGE_LOOP('',(#194,#195,#196,#197));
#594=EDGE_LOOP('',(#198,#199,#200,#201));
#595=EDGE_LOOP('',(#202,#203,#204,#205));
#596=EDGE_LOOP('',(#206));
#597=EDGE_LOOP('',(#207));
#598=EDGE_LOOP('',(#208,#209,#210,#211));
#599=EDGE_LOOP('',(#212));
#600=EDGE_LOOP('',(#213,#214,#215,#216,#217,#218,#219));
#601=EDGE_LOOP('',(#220,#221,#222,#223));
#602=EDGE_LOOP('',(#224,#225,#226,#227));
#603=EDGE_LOOP('',(#228,#229,#230,#231));
#604=EDGE_LOOP('',(#232));
#605=EDGE_LOOP('',(#233,#234,#235,#236,#237,#238));
#606=EDGE_LOOP('',(#239,#240,#241,#242));
#607=EDGE_LOOP('',(#243,#244,#245,#246));
#608=EDGE_LOOP('',(#247,#248,#249,#250));
#609=EDGE_LOOP('',(#251));
#610=EDGE_LOOP('',(#252));
#611=FACE_BOUND('',#559,.T.);
#612=FACE_BOUND('',#560,.T.);
#613=FACE_BOUND('',#561,.T.);
#614=FACE_BOUND('',#562,.T.);
#615=FACE_BOUND('',#563,.T.);
#616=FACE_BOUND('',#564,.T.);
#617=FACE_BOUND('',#565,.T.);
#618=FACE_BOUND('',#566,.T.);
#619=FACE_BOUND('',#567,.T.);
#620=FACE_BOUND('',#568,.T.);
#621=FACE_BOUND('',#569,.T.);
#622=FACE_BOUND('',#570,.T.);
#623=FACE_BOUND('',#571,.T.);
#624=FACE_BOUND('',#572,.T.);
#625=FACE_BOUND('',#573,.T.);
#626=FACE_BOUND('',#574,.T.);
#627=FACE_BOUND('',#575,.T.);
#628=FACE_BOUND('',#576,.T.);
#629=FACE_BOUND('',#577,.T.);
#630=FACE_BOUND('',#578,.T.);
#631=FACE_BOUND('',#579,.T.);
#632=FACE_BOUND('',#580,.T.);
#633=FACE_BOUND('',#581,.T.);
#634=FACE_BOUND('',#582,.T.);
#635=FACE_BOUND('',#583,.T.);
#636=FACE_BOUND('',#584,.T.);
#637=FACE_BOUND('',#585,.T.);
#638=FACE_BOUND('',#586,.T.);
#639=FACE_BOUND('',#587,.T.);
#640=FACE_BOUND('',#588,.T.);
#641=FACE_BOUND('',#589,.T.);
#642=FACE_BOUND('',#590,.T.);
#643=FACE_BOUND('',#591,.T.);
#644=FACE_BOUND('',#592,.T.);
#645=FACE_BOUND('',#593,.T.);
#646=FACE_BOUND('',#594,.T.);
#647=FACE_BOUND('',#595,.T.);
#648=FACE_BOUND('',#596,.T.);
#649=FACE_BOUND('',#597,.T.);
#650=FACE_BOUND('',#598,.T.);
#651=FACE_BOUND('',#599,.T.);
#652=FACE_BOUND('',#600,.T.);
#653=FACE_BOUND('',#601,.T.);
#654=FACE_BOUND('',#602,.T.);
#655=FACE_BOUND('',#603,.T.);
#656=FACE_BOUND('',#604,.T.);
#657=FACE_BOUND('',#605,.T.);
#658=FACE_BOUND('',#606,.T.);
#659=FACE_BOUND('',#607,.T.);
#660=FACE_BOUND('',#608,.T.);
#661=FACE_BOUND('',#609,.T.);
#662=FACE_BOUND('',#610,.T.);
#663=PLANE('',#740);
#664=PLANE('',#744);
#665=PLANE('',#749);
#666=PLANE('',#753);
#667=PLANE('',#754);
#668=PLANE('',#763);
#669=PLANE('',#764);
#670=PLANE('',#765);
#671=PLANE('',#767);
#672=PLANE('',#768);
#673=PLANE('',#769);
#674=PLANE('',#770);
#675=PLANE('',#772);
#676=PLANE('',#774);
#677=PLANE('',#776);
#678=PLANE('',#778);
#679=PLANE('',#781);
#680=PLANE('',#786);
#681=PLANE('',#789);
#682=PLANE('',#792);
#683=PLANE('',#793);
#684=PLANE('',#796);
#685=PLANE('',#797);
#686=PLANE('',#798);
#687=PLANE('',#804);
#688=ADVANCED_FACE('',(#611),#663,.F.);
#689=ADVANCED_FACE('',(#612,#613),#41,.F.);
#690=ADVANCED_FACE('',(#614,#615),#664,.T.);
#691=ADVANCED_FACE('',(#616),#665,.F.);
#692=ADVANCED_FACE('',(#617),#666,.F.);
#693=ADVANCED_FACE('',(#618,#619,#620,#621),#667,.T.);
#694=ADVANCED_FACE('',(#622),#668,.F.);
#695=ADVANCED_FACE('',(#623),#669,.F.);
#696=ADVANCED_FACE('',(#624,#625),#670,.F.);
#697=ADVANCED_FACE('',(#626),#671,.F.);
#698=ADVANCED_FACE('',(#627),#672,.T.);
#699=ADVANCED_FACE('',(#628),#673,.T.);
#700=ADVANCED_FACE('',(#629),#674,.T.);
#701=ADVANCED_FACE('',(#630),#42,.F.);
#702=ADVANCED_FACE('',(#631),#675,.F.);
#703=ADVANCED_FACE('',(#632),#43,.F.);
#704=ADVANCED_FACE('',(#633),#676,.F.);
#705=ADVANCED_FACE('',(#634),#44,.F.);
#706=ADVANCED_FACE('',(#635),#677,.F.);
#707=ADVANCED_FACE('',(#636),#45,.F.);
#708=ADVANCED_FACE('',(#637),#678,.F.);
#709=ADVANCED_FACE('',(#638,#639),#46,.F.);
#710=ADVANCED_FACE('',(#640,#641),#679,.T.);
#711=ADVANCED_FACE('',(#642,#643),#47,.F.);
#712=ADVANCED_FACE('',(#644),#48,.T.);
#713=ADVANCED_FACE('',(#645),#680,.F.);
#714=ADVANCED_FACE('',(#646),#49,.T.);
#715=ADVANCED_FACE('',(#647),#681,.F.);
#716=ADVANCED_FACE('',(#648,#649),#50,.F.);
#717=ADVANCED_FACE('',(#650),#682,.F.);
#718=ADVANCED_FACE('',(#651,#652),#683,.F.);
#719=ADVANCED_FACE('',(#653),#51,.F.);
#720=ADVANCED_FACE('',(#654),#684,.T.);
#721=ADVANCED_FACE('',(#655),#685,.T.);
#722=ADVANCED_FACE('',(#656,#657),#686,.F.);
#723=ADVANCED_FACE('',(#658),#52,.T.);
#724=ADVANCED_FACE('',(#659),#53,.T.);
#725=ADVANCED_FACE('',(#660),#687,.T.);
#726=ADVANCED_FACE('',(#661,#662),#54,.F.);
#727=CLOSED_SHELL('',(#688,#689,#690,#691,#692,#693,#694,#695,#696,#697,
#698,#699,#700,#701,#702,#703,#704,#705,#706,#707,#708,#709,#710,#711,#712,
#713,#714,#715,#716,#717,#718,#719,#720,#721,#722,#723,#724,#725,#726));
#728=STYLED_ITEM('',(#729),#736);
#729=PRESENTATION_STYLE_ASSIGNMENT((#730));
#730=SURFACE_STYLE_USAGE(.BOTH.,#731);
#731=SURFACE_SIDE_STYLE('',(#732));
#732=SURFACE_STYLE_FILL_AREA(#733);
#733=FILL_AREA_STYLE('',(#734));
#734=FILL_AREA_STYLE_COLOUR('',#735);
#735=COLOUR_RGB('',0.301960784313725,0.301960784313725,0.301960784313725);
#736=MANIFOLD_SOLID_BREP('Body Adapter',#727);
#737=SHAPE_DEFINITION_REPRESENTATION(#1234,#738);
#738=SHAPE_REPRESENTATION('Body Adapter',(#739),#1229);
#739=AXIS2_PLACEMENT_3D('',#1010,#806,#807);
#740=AXIS2_PLACEMENT_3D('',#1011,#808,#809);
#741=AXIS2_PLACEMENT_3D('',#1026,#817,#818);
#742=AXIS2_PLACEMENT_3D('',#1027,#819,#820);
#743=AXIS2_PLACEMENT_3D('',#1033,#823,#824);
#744=AXIS2_PLACEMENT_3D('',#1056,#828,#829);
#745=AXIS2_PLACEMENT_3D('',#1057,#830,#831);
#746=AXIS2_PLACEMENT_3D('',#1062,#833,#834);
#747=AXIS2_PLACEMENT_3D('',#1068,#837,#838);
#748=AXIS2_PLACEMENT_3D('',#1072,#840,#841);
#749=AXIS2_PLACEMENT_3D('',#1073,#842,#843);
#750=AXIS2_PLACEMENT_3D('',#1077,#845,#846);
#751=AXIS2_PLACEMENT_3D('',#1081,#848,#849);
#752=AXIS2_PLACEMENT_3D('',#1085,#851,#852);
#753=AXIS2_PLACEMENT_3D('',#1093,#857,#858);
#754=AXIS2_PLACEMENT_3D('',#1105,#865,#866);
#755=AXIS2_PLACEMENT_3D('',#1106,#867,#868);
#756=AXIS2_PLACEMENT_3D('',#1110,#870,#871);
#757=AXIS2_PLACEMENT_3D('',#1114,#873,#874);
#758=AXIS2_PLACEMENT_3D('',#1118,#877,#878);
#759=AXIS2_PLACEMENT_3D('',#1122,#880,#881);
#760=AXIS2_PLACEMENT_3D('',#1126,#883,#884);
#761=AXIS2_PLACEMENT_3D('',#1129,#886,#887);
#762=AXIS2_PLACEMENT_3D('',#1131,#888,#889);
#763=AXIS2_PLACEMENT_3D('',#1133,#890,#891);
#764=AXIS2_PLACEMENT_3D('',#1136,#894,#895);
#765=AXIS2_PLACEMENT_3D('',#1142,#899,#900);
#766=AXIS2_PLACEMENT_3D('',#1143,#901,#902);
#767=AXIS2_PLACEMENT_3D('',#1148,#905,#906);
#768=AXIS2_PLACEMENT_3D('',#1152,#909,#910);
#769=AXIS2_PLACEMENT_3D('',#1155,#913,#914);
#770=AXIS2_PLACEMENT_3D('',#1156,#915,#916);
#771=AXIS2_PLACEMENT_3D('',#1157,#917,#918);
#772=AXIS2_PLACEMENT_3D('',#1160,#921,#922);
#773=AXIS2_PLACEMENT_3D('',#1162,#924,#925);
#774=AXIS2_PLACEMENT_3D('',#1164,#927,#928);
#775=AXIS2_PLACEMENT_3D('',#1165,#929,#930);
#776=AXIS2_PLACEMENT_3D('',#1168,#933,#934);
#777=AXIS2_PLACEMENT_3D('',#1170,#936,#937);
#778=AXIS2_PLACEMENT_3D('',#1172,#939,#940);
#779=AXIS2_PLACEMENT_3D('',#1173,#941,#942);
#780=AXIS2_PLACEMENT_3D('',#1174,#943,#944);
#781=AXIS2_PLACEMENT_3D('',#1176,#945,#946);
#782=AXIS2_PLACEMENT_3D('',#1177,#947,#948);
#783=AXIS2_PLACEMENT_3D('',#1179,#949,#950);
#784=AXIS2_PLACEMENT_3D('',#1180,#951,#952);
#785=AXIS2_PLACEMENT_3D('',#1183,#954,#955);
#786=AXIS2_PLACEMENT_3D('',#1186,#957,#958);
#787=AXIS2_PLACEMENT_3D('',#1190,#961,#962);
#788=AXIS2_PLACEMENT_3D('',#1191,#963,#964);
#789=AXIS2_PLACEMENT_3D('',#1194,#966,#967);
#790=AXIS2_PLACEMENT_3D('',#1196,#969,#970);
#791=AXIS2_PLACEMENT_3D('',#1197,#971,#972);
#792=AXIS2_PLACEMENT_3D('',#1199,#973,#974);
#793=AXIS2_PLACEMENT_3D('',#1203,#977,#978);
#794=AXIS2_PLACEMENT_3D('',#1204,#979,#980);
#795=AXIS2_PLACEMENT_3D('',#1205,#981,#982);
#796=AXIS2_PLACEMENT_3D('',#1206,#983,#984);
#797=AXIS2_PLACEMENT_3D('',#1210,#987,#988);
#798=AXIS2_PLACEMENT_3D('',#1214,#991,#992);
#799=AXIS2_PLACEMENT_3D('',#1215,#993,#994);
#800=AXIS2_PLACEMENT_3D('',#1217,#995,#996);
#801=AXIS2_PLACEMENT_3D('',#1221,#998,#999);
#802=AXIS2_PLACEMENT_3D('',#1222,#1000,#1001);
#803=AXIS2_PLACEMENT_3D('',#1224,#1003,#1004);
#804=AXIS2_PLACEMENT_3D('',#1226,#1006,#1007);
#805=AXIS2_PLACEMENT_3D('',#1227,#1008,#1009);
#806=DIRECTION('',(0.,0.,1.));
#807=DIRECTION('',(1.,0.,0.));
#808=DIRECTION('',(-1.,0.,0.));
#809=DIRECTION('',(0.,0.,1.));
#810=DIRECTION('',(0.,1.,0.));
#811=DIRECTION('',(0.,0.,-1.));
#812=DIRECTION('',(0.,1.,0.));
#813=DIRECTION('',(0.,0.,-1.));
#814=DIRECTION('',(0.,0.707106781186548,-0.707106781186548));
#815=DIRECTION('',(0.,1.,0.));
#816=DIRECTION('',(0.,0.,-1.));
#817=DIRECTION('',(0.,0.,-1.));
#818=DIRECTION('',(-1.,0.,0.));
#819=DIRECTION('',(0.,0.,1.));
#820=DIRECTION('',(1.,0.,0.));
#821=DIRECTION('',(0.,0.,-1.));
#822=DIRECTION('',(0.,0.,-1.));
#823=DIRECTION('',(0.,0.,1.));
#824=DIRECTION('',(1.,0.,0.));
#825=DIRECTION('',(0.,0.,-1.));
#826=DIRECTION('',(0.,0.,-1.));
#827=DIRECTION('',(0.,0.,-1.));
#828=DIRECTION('',(0.,-1.,0.));
#829=DIRECTION('',(1.,0.,0.));
#830=DIRECTION('',(0.,1.,0.));
#831=DIRECTION('',(0.,0.,-1.));
#832=DIRECTION('',(-1.23908819712629E-16,0.,-1.));
#833=DIRECTION('',(0.,-1.,0.));
#834=DIRECTION('',(0.,0.,-1.));
#835=DIRECTION('',(0.,0.,1.));
#836=DIRECTION('',(-2.47817639425258E-16,0.,-1.));
#837=DIRECTION('',(0.,-1.,0.));
#838=DIRECTION('',(0.,0.,-1.));
#839=DIRECTION('',(0.,0.,1.));
#840=DIRECTION('',(0.,-1.,0.));
#841=DIRECTION('',(0.,0.,-1.));
#842=DIRECTION('',(0.,1.,0.));
#843=DIRECTION('',(0.,0.,1.));
#844=DIRECTION('',(1.,0.,0.));
#845=DIRECTION('',(0.,1.,0.));
#846=DIRECTION('',(0.,0.,-1.));
#847=DIRECTION('',(0.,0.,1.));
#848=DIRECTION('',(0.,-1.,0.));
#849=DIRECTION('',(0.,0.,-1.));
#850=DIRECTION('',(-1.23908819712629E-16,0.,-1.));
#851=DIRECTION('',(0.,1.,0.));
#852=DIRECTION('',(0.,0.,-1.));
#853=DIRECTION('',(1.,0.,0.));
#854=DIRECTION('',(0.,0.,1.));
#855=DIRECTION('',(1.,0.,0.));
#856=DIRECTION('',(0.,0.,-1.));
#857=DIRECTION('',(1.,3.01691039300315E-16,0.));
#858=DIRECTION('',(-3.01691039300315E-16,1.,0.));
#859=DIRECTION('',(3.01691039300315E-16,-1.,0.));
#860=DIRECTION('',(0.,0.,-1.));
#861=DIRECTION('',(0.,1.,0.));
#862=DIRECTION('',(3.01691039300315E-16,-1.,0.));
#863=DIRECTION('',(2.13327779712469E-16,-0.707106781186548,0.707106781186548));
#864=DIRECTION('',(0.,0.,-1.));
#865=DIRECTION('',(0.,0.,1.));
#866=DIRECTION('',(1.,0.,0.));
#867=DIRECTION('',(0.,0.,-1.));
#868=DIRECTION('',(-1.,0.,0.));
#869=DIRECTION('',(1.,0.,0.));
#870=DIRECTION('',(0.,0.,1.));
#871=DIRECTION('',(1.,0.,0.));
#872=DIRECTION('',(0.,1.,0.));
#873=DIRECTION('',(0.,0.,1.));
#874=DIRECTION('',(1.,0.,0.));
#875=DIRECTION('',(-1.,0.,0.));
#876=DIRECTION('',(1.,0.,0.));
#877=DIRECTION('',(0.,0.,1.));
#878=DIRECTION('',(1.,0.,0.));
#879=DIRECTION('',(1.,0.,0.));
#880=DIRECTION('',(0.,0.,1.));
#881=DIRECTION('',(1.,0.,0.));
#882=DIRECTION('',(0.,1.,0.));
#883=DIRECTION('',(0.,0.,1.));
#884=DIRECTION('',(1.,0.,0.));
#885=DIRECTION('',(-1.,0.,0.));
#886=DIRECTION('',(0.,0.,1.));
#887=DIRECTION('',(1.,0.,0.));
#888=DIRECTION('',(0.,0.,1.));
#889=DIRECTION('',(1.,0.,0.));
#890=DIRECTION('',(0.,0.,1.));
#891=DIRECTION('',(1.,0.,0.));
#892=DIRECTION('',(-1.,0.,0.));
#893=DIRECTION('',(-1.,0.,0.));
#894=DIRECTION('',(-1.,0.,0.));
#895=DIRECTION('',(0.,0.,1.));
#896=DIRECTION('',(0.,0.,1.));
#897=DIRECTION('',(0.,0.707106781186548,-0.707106781186548));
#898=DIRECTION('',(0.,1.,0.));
#899=DIRECTION('',(0.,0.,1.));
#900=DIRECTION('',(1.,0.,0.));
#901=DIRECTION('',(0.,0.,1.));
#902=DIRECTION('',(1.,0.,0.));
#903=DIRECTION('',(0.,1.,0.));
#904=DIRECTION('',(1.,0.,0.));
#905=DIRECTION('',(1.,0.,0.));
#906=DIRECTION('',(0.,0.,-1.));
#907=DIRECTION('',(0.,-0.707106781186548,0.707106781186548));
#908=DIRECTION('',(0.,0.,-1.));
#909=DIRECTION('',(0.,-1.,0.));
#910=DIRECTION('',(1.,0.,0.));
#911=DIRECTION('',(1.,0.,0.));
#912=DIRECTION('',(1.,0.,0.));
#913=DIRECTION('',(0.,-0.707106781186548,-0.707106781186548));
#914=DIRECTION('',(-1.,0.,0.));
#915=DIRECTION('',(0.,-0.707106781186548,-0.707106781186548));
#916=DIRECTION('',(-1.,0.,0.));
#917=DIRECTION('',(0.,-1.,0.));
#918=DIRECTION('',(0.,0.,-1.));
#919=DIRECTION('',(0.,-1.,0.));
#920=DIRECTION('',(0.,-1.,0.));
#921=DIRECTION('',(-1.,0.,1.23908819712629E-16));
#922=DIRECTION('',(1.23908819712629E-16,0.,1.));
#923=DIRECTION('',(0.,-1.,0.));
#924=DIRECTION('',(0.,-1.,0.));
#925=DIRECTION('',(0.,0.,-1.));
#926=DIRECTION('',(0.,-1.,0.));
#927=DIRECTION('',(1.,0.,0.));
#928=DIRECTION('',(0.,0.,-1.));
#929=DIRECTION('',(0.,-1.,0.));
#930=DIRECTION('',(0.,0.,-1.));
#931=DIRECTION('',(0.,-1.,0.));
#932=DIRECTION('',(0.,-1.,0.));
#933=DIRECTION('',(-1.,0.,2.47817639425258E-16));
#934=DIRECTION('',(2.47817639425258E-16,0.,1.));
#935=DIRECTION('',(0.,-1.,0.));
#936=DIRECTION('',(0.,-1.,0.));
#937=DIRECTION('',(0.,0.,-1.));
#938=DIRECTION('',(0.,-1.,0.));
#939=DIRECTION('',(1.,0.,0.));
#940=DIRECTION('',(0.,0.,-1.));
#941=DIRECTION('',(0.,0.,-1.));
#942=DIRECTION('',(-1.,0.,0.));
#943=DIRECTION('',(0.,0.,-1.));
#944=DIRECTION('',(-1.,0.,0.));
#945=DIRECTION('',(0.,0.,1.));
#946=DIRECTION('',(1.,0.,0.));
#947=DIRECTION('',(0.,0.,-1.));
#948=DIRECTION('',(-1.,0.,0.));
#949=DIRECTION('',(0.,0.,-1.));
#950=DIRECTION('',(-1.,0.,0.));
#951=DIRECTION('',(0.,0.,-1.));
#952=DIRECTION('',(-1.,0.,0.));
#953=DIRECTION('',(0.,0.,-1.));
#954=DIRECTION('',(0.,0.,1.));
#955=DIRECTION('',(1.,0.,0.));
#956=DIRECTION('',(0.,0.,-1.));
#957=DIRECTION('',(-1.,0.,0.));
#958=DIRECTION('',(0.,0.,1.));
#959=DIRECTION('',(0.,1.,0.));
#960=DIRECTION('',(0.,0.,-1.));
#961=DIRECTION('',(0.,0.,-1.));
#962=DIRECTION('',(-1.,0.,0.));
#963=DIRECTION('',(0.,0.,1.));
#964=DIRECTION('',(1.,0.,0.));
#965=DIRECTION('',(0.,0.,-1.));
#966=DIRECTION('',(0.,-1.,0.));
#967=DIRECTION('',(0.,0.,-1.));
#968=DIRECTION('',(-1.,0.,0.));
#969=DIRECTION('',(0.,0.,-1.));
#970=DIRECTION('',(-1.,0.,0.));
#971=DIRECTION('',(0.,0.,1.));
#972=DIRECTION('',(1.,0.,0.));
#973=DIRECTION('',(0.,1.,0.));
#974=DIRECTION('',(0.,0.,1.));
#975=DIRECTION('',(0.,0.,-1.));
#976=DIRECTION('',(1.,0.,0.));
#977=DIRECTION('',(0.,0.,1.));
#978=DIRECTION('',(1.,0.,0.));
#979=DIRECTION('',(0.,0.,1.));
#980=DIRECTION('',(1.,0.,0.));
#981=DIRECTION('',(0.,0.,1.));
#982=DIRECTION('',(1.,0.,0.));
#983=DIRECTION('',(0.,-1.,0.));
#984=DIRECTION('',(0.,0.,-1.));
#985=DIRECTION('',(0.,0.,-1.));
#986=DIRECTION('',(-1.,0.,0.));
#987=DIRECTION('',(0.,1.,0.));
#988=DIRECTION('',(0.,0.,1.));
#989=DIRECTION('',(0.,0.,-1.));
#990=DIRECTION('',(1.,0.,0.));
#991=DIRECTION('',(0.,0.,1.));
#992=DIRECTION('',(-1.,0.,0.));
#993=DIRECTION('',(0.,0.,-1.));
#994=DIRECTION('',(-1.,0.,0.));
#995=DIRECTION('',(0.,0.,-1.));
#996=DIRECTION('',(-1.,0.,0.));
#997=DIRECTION('',(0.,1.,0.));
#998=DIRECTION('',(0.,0.,-1.));
#999=DIRECTION('',(-1.,0.,0.));
#1000=DIRECTION('',(0.,0.,-1.));
#1001=DIRECTION('',(-1.,0.,0.));
#1002=DIRECTION('',(0.,0.,-1.));
#1003=DIRECTION('',(0.,0.,-1.));
#1004=DIRECTION('',(-1.,0.,0.));
#1005=DIRECTION('',(0.,0.,-1.));
#1006=DIRECTION('',(-1.,0.,0.));
#1007=DIRECTION('',(0.,0.,1.));
#1008=DIRECTION('',(0.,0.,-1.));
#1009=DIRECTION('',(-1.,0.,0.));
#1010=CARTESIAN_POINT('',(0.,0.,0.));
#1011=CARTESIAN_POINT('',(0.0175,-0.00575,0.035));
#1012=CARTESIAN_POINT('',(0.0175,-0.00575,0.02));
#1013=CARTESIAN_POINT('',(0.0175,-0.0145,0.02));
#1014=CARTESIAN_POINT('',(0.0175,0.,0.02));
#1015=CARTESIAN_POINT('',(0.0175,-0.0145,0.035));
#1016=CARTESIAN_POINT('',(0.0175,-0.0145,0.035));
#1017=CARTESIAN_POINT('',(0.0175,-0.00575,0.035));
#1018=CARTESIAN_POINT('',(0.0175,-0.0315,0.035));
#1019=CARTESIAN_POINT('',(0.0175,-0.0315,0.035));
#1020=CARTESIAN_POINT('',(0.0175,-0.0315,0.02));
#1021=CARTESIAN_POINT('',(0.0175,-0.0315,0.02));
#1022=CARTESIAN_POINT('',(0.0175,-0.0115,0.));
#1023=CARTESIAN_POINT('',(0.0175,-0.00575,0.));
#1024=CARTESIAN_POINT('',(0.0175,0.,0.));
#1025=CARTESIAN_POINT('',(0.0175,0.,0.035));
#1026=CARTESIAN_POINT('',(0.,0.108675,0.035));
#1027=CARTESIAN_POINT('',(0.,0.108675,0.));
#1028=CARTESIAN_POINT('',(-0.0175,-1.38777878078145E-17,0.));
#1029=CARTESIAN_POINT('',(-0.0175,-1.38777878078145E-17,0.035));
#1030=CARTESIAN_POINT('',(-0.0175,-1.38777878078145E-17,0.02));
#1031=CARTESIAN_POINT('',(-0.0175,-1.38777878078145E-17,0.035));
#1032=CARTESIAN_POINT('',(-0.0175,0.,0.035));
#1033=CARTESIAN_POINT('',(0.,0.108675,0.035));
#1034=CARTESIAN_POINT('',(0.0175,0.,0.035));
#1035=CARTESIAN_POINT('',(0.0175,0.,0.035));
#1036=CARTESIAN_POINT('',(0.002525,-0.00137103582137796,0.035));
#1037=CARTESIAN_POINT('',(0.002525,-0.00137103582137796,0.02275));
#1038=CARTESIAN_POINT('',(0.002525,-0.00137103582137796,0.00875));
#1039=CARTESIAN_POINT('',(0.002525,-0.00137103582137796,0.02275));
#1040=CARTESIAN_POINT('',(0.002525,-0.00137103582137796,0.0234172164737779));
#1041=CARTESIAN_POINT('',(0.00197789233940463,-0.00138552378634668,0.0247250255505997));
#1042=CARTESIAN_POINT('',(2.35704908976564E-6,-0.00140722923828085,0.0255494410918989));
#1043=CARTESIAN_POINT('',(-0.00197705658217063,-0.00138555918077474,0.0247272066049482));
#1044=CARTESIAN_POINT('',(-0.002525,-0.00137103582137797,0.023417216372085));
#1045=CARTESIAN_POINT('',(-0.002525,-0.00137103582137797,0.02275));
#1046=CARTESIAN_POINT('',(-0.002525,-0.00137103582137796,0.02275));
#1047=CARTESIAN_POINT('',(-0.002525,-0.00137103582137796,0.035));
#1048=CARTESIAN_POINT('',(-0.002525,-0.00137103582137796,0.00875));
#1049=CARTESIAN_POINT('',(0.002525,-0.00137103582137796,0.00875));
#1050=CARTESIAN_POINT('',(0.002525,-0.00137103582137796,0.00808278352622207));
#1051=CARTESIAN_POINT('',(0.00197789233940463,-0.00138552378634668,0.00677497444940027));
#1052=CARTESIAN_POINT('',(2.35704908976415E-6,-0.00140722923828085,0.00595055890810114));
#1053=CARTESIAN_POINT('',(-0.00197705658217063,-0.00138555918077474,0.00677279339505179));
#1054=CARTESIAN_POINT('',(-0.002525,-0.00137103582137797,0.00808278362791504));
#1055=CARTESIAN_POINT('',(-0.002525,-0.00137103582137797,0.00875));
#1056=CARTESIAN_POINT('',(-3.46944695195361E-18,-0.0065,0.0135));
#1057=CARTESIAN_POINT('',(-2.60208521396521E-18,-0.0065,0.02275));
#1058=CARTESIAN_POINT('',(-0.00425,-0.0065,0.02275));
#1059=CARTESIAN_POINT('',(0.00425,-0.0065,0.02275));
#1060=CARTESIAN_POINT('',(-0.00425,-0.0065,0.01575));
#1061=CARTESIAN_POINT('',(-0.00425,-0.0065,0.00875));
#1062=CARTESIAN_POINT('',(0.,-0.0065,0.00875));
#1063=CARTESIAN_POINT('',(0.00425,-0.0065,0.00875));
#1064=CARTESIAN_POINT('',(0.00425,-0.0065,0.01575));
#1065=CARTESIAN_POINT('',(-0.002525,-0.0065,0.0135));
#1066=CARTESIAN_POINT('',(-0.002525,-0.0065,0.02275));
#1067=CARTESIAN_POINT('',(-0.002525,-0.0065,0.00875));
#1068=CARTESIAN_POINT('',(0.,-0.0065,0.02275));
#1069=CARTESIAN_POINT('',(0.002525,-0.0065,0.02275));
#1070=CARTESIAN_POINT('',(0.002525,-0.0065,0.0135));
#1071=CARTESIAN_POINT('',(0.002525,-0.0065,0.00875));
#1072=CARTESIAN_POINT('',(0.,-0.0065,0.00875));
#1073=CARTESIAN_POINT('',(0.,-0.0115,0.035));
#1074=CARTESIAN_POINT('',(-1.7347234759768E-18,-0.0115,0.027));
#1075=CARTESIAN_POINT('',(-2.60208521396521E-18,-0.0115,0.027));
#1076=CARTESIAN_POINT('',(0.01,-0.0115,0.027));
#1077=CARTESIAN_POINT('',(-2.60208521396521E-18,-0.0115,0.02275));
#1078=CARTESIAN_POINT('',(0.00425,-0.0115,0.02275));
#1079=CARTESIAN_POINT('',(0.00425,-0.0115,0.01575));
#1080=CARTESIAN_POINT('',(0.00425,-0.0115,0.00875));
#1081=CARTESIAN_POINT('',(0.,-0.0115,0.00875));
#1082=CARTESIAN_POINT('',(-0.00425,-0.0115,0.00875));
#1083=CARTESIAN_POINT('',(-0.00425,-0.0115,0.01575));
#1084=CARTESIAN_POINT('',(-0.00425,-0.0115,0.02275));
#1085=CARTESIAN_POINT('',(-2.60208521396521E-18,-0.0115,0.02275));
#1086=CARTESIAN_POINT('',(-1.7347234759768E-18,-0.0115,0.027));
#1087=CARTESIAN_POINT('',(-0.01,-0.0115,0.027));
#1088=CARTESIAN_POINT('',(-0.01,-0.0115,0.0135));
#1089=CARTESIAN_POINT('',(-0.01,-0.0115,0.));
#1090=CARTESIAN_POINT('',(0.,-0.0115,0.));
#1091=CARTESIAN_POINT('',(0.01,-0.0115,0.));
#1092=CARTESIAN_POINT('',(0.01,-0.0115,0.0135));
#1093=CARTESIAN_POINT('',(-0.0175,-0.00575,0.035));
#1094=CARTESIAN_POINT('',(-0.0175,-0.00575,0.035));
#1095=CARTESIAN_POINT('',(-0.0175,-0.0115,0.035));
#1096=CARTESIAN_POINT('',(-0.0175,-0.0315,0.035));
#1097=CARTESIAN_POINT('',(-0.0175,-0.0115,0.035002));
#1098=CARTESIAN_POINT('',(-0.0175,-0.0115,0.02));
#1099=CARTESIAN_POINT('',(-0.0175,-0.00575,0.02));
#1100=CARTESIAN_POINT('',(-0.0175,-0.00575,0.));
#1101=CARTESIAN_POINT('',(-0.0175,-0.0115,0.));
#1102=CARTESIAN_POINT('',(-0.0175,-0.0315,0.02));
#1103=CARTESIAN_POINT('',(-0.0175,-0.0315,0.02));
#1104=CARTESIAN_POINT('',(-0.0175,-0.0315,0.035));
#1105=CARTESIAN_POINT('',(6.93889390390723E-18,-0.00575,0.035));
#1106=CARTESIAN_POINT('',(2.34804084265016E-18,-0.0215,0.035));
#1107=CARTESIAN_POINT('',(-0.005625,-0.0215,0.035));
#1108=CARTESIAN_POINT('',(-0.0215,0.,0.035));
#1109=CARTESIAN_POINT('',(-0.0255,0.,0.035));
#1110=CARTESIAN_POINT('',(-0.0255,-0.005,0.035));
#1111=CARTESIAN_POINT('',(-0.0305,-0.005,0.035));
#1112=CARTESIAN_POINT('',(-0.0305,-0.00575,0.035));
#1113=CARTESIAN_POINT('',(-0.0305,-0.0065,0.035));
#1114=CARTESIAN_POINT('',(-0.0255,-0.0065,0.035));
#1115=CARTESIAN_POINT('',(-0.0255,-0.0115,0.035));
#1116=CARTESIAN_POINT('',(-0.0215,-0.0115,0.035));
#1117=CARTESIAN_POINT('',(0.,-0.0315,0.035));
#1118=CARTESIAN_POINT('',(0.0205,-0.0145,0.035));
#1119=CARTESIAN_POINT('',(0.0205,-0.0115,0.035));
#1120=CARTESIAN_POINT('',(0.0215,-0.0115,0.035));
#1121=CARTESIAN_POINT('',(0.0255,-0.0115,0.035));
#1122=CARTESIAN_POINT('',(0.0255,-0.0065,0.035));
#1123=CARTESIAN_POINT('',(0.0305,-0.0065,0.035));
#1124=CARTESIAN_POINT('',(0.0305,-0.00575,0.035));
#1125=CARTESIAN_POINT('',(0.0305,-0.005,0.035));
#1126=CARTESIAN_POINT('',(0.0255,-0.005,0.035));
#1127=CARTESIAN_POINT('',(0.0255,0.,0.035));
#1128=CARTESIAN_POINT('',(0.0215,0.,0.035));
#1129=CARTESIAN_POINT('',(0.0255,-0.00575,0.035));
#1130=CARTESIAN_POINT('',(0.02855,-0.00575,0.035));
#1131=CARTESIAN_POINT('',(-0.0255,-0.00575,0.035));
#1132=CARTESIAN_POINT('',(-0.02245,-0.00575,0.035));
#1133=CARTESIAN_POINT('',(6.93889390390723E-18,-0.00575,0.));
#1134=CARTESIAN_POINT('',(0.01,-0.0115,0.));
#1135=CARTESIAN_POINT('',(-0.0175,-0.0115,0.));
#1136=CARTESIAN_POINT('',(-0.01,-0.0315,0.0135));
#1137=CARTESIAN_POINT('',(-0.01,-0.0315,0.0135));
#1138=CARTESIAN_POINT('',(-0.01,-0.0315,0.02));
#1139=CARTESIAN_POINT('',(-0.01,-0.0315,0.027));
#1140=CARTESIAN_POINT('',(-0.01,-0.0315,0.02));
#1141=CARTESIAN_POINT('',(-0.01,-0.0315,0.027));
#1142=CARTESIAN_POINT('',(-1.7347234759768E-18,-0.0315,0.027));
#1143=CARTESIAN_POINT('',(2.34804084265016E-18,-0.0215,0.027));
#1144=CARTESIAN_POINT('',(0.0033,-0.0215,0.027));
#1145=CARTESIAN_POINT('',(0.01,-0.0315,0.027));
#1146=CARTESIAN_POINT('',(0.01,-0.0315,0.027));
#1147=CARTESIAN_POINT('',(-1.7347234759768E-18,-0.0315,0.027));
#1148=CARTESIAN_POINT('',(0.01,-0.0315,0.0135));
#1149=CARTESIAN_POINT('',(0.01,-0.0315,0.02));
#1150=CARTESIAN_POINT('',(0.01,-0.0315,0.02));
#1151=CARTESIAN_POINT('',(0.01,-0.0315,0.0135));
#1152=CARTESIAN_POINT('',(0.,-0.0315,0.0175));
#1153=CARTESIAN_POINT('',(0.0175,-0.0315,0.02));
#1154=CARTESIAN_POINT('',(-0.01,-0.0315,0.02));
#1155=CARTESIAN_POINT('',(0.,-0.0315,0.02));
#1156=CARTESIAN_POINT('',(0.,-0.0315,0.02));
#1157=CARTESIAN_POINT('',(-2.60208521396521E-18,-0.0065,0.02275));
#1158=CARTESIAN_POINT('',(-0.00425,-0.0065,0.02275));
#1159=CARTESIAN_POINT('',(0.00425,-0.0065,0.02275));
#1160=CARTESIAN_POINT('',(-0.00425,-0.0065,0.01575));
#1161=CARTESIAN_POINT('',(-0.00425,-0.0065,0.00875));
#1162=CARTESIAN_POINT('',(0.,-0.0065,0.00875));
#1163=CARTESIAN_POINT('',(0.00425,-0.0065,0.00875));
#1164=CARTESIAN_POINT('',(0.00425,-0.0065,0.01575));
#1165=CARTESIAN_POINT('',(0.,0.0135,0.02275));
#1166=CARTESIAN_POINT('',(0.002525,0.0135,0.02275));
#1167=CARTESIAN_POINT('',(-0.002525,0.0135,0.02275));
#1168=CARTESIAN_POINT('',(-0.002525,0.0135,0.01575));
#1169=CARTESIAN_POINT('',(-0.002525,0.0135,0.00875));
#1170=CARTESIAN_POINT('',(0.,0.0135,0.00875));
#1171=CARTESIAN_POINT('',(0.002525,0.0135,0.00875));
#1172=CARTESIAN_POINT('',(0.002525,0.0135,0.01575));
#1173=CARTESIAN_POINT('',(2.34804084265016E-18,-0.0215,0.035));
#1174=CARTESIAN_POINT('',(2.34804084265016E-18,-0.0215,0.031));
#1175=CARTESIAN_POINT('',(-0.0033,-0.0215,0.031));
#1176=CARTESIAN_POINT('',(0.005625,-0.0215,0.031));
#1177=CARTESIAN_POINT('',(2.34804084265016E-18,-0.0215,0.031));
#1178=CARTESIAN_POINT('',(-0.005625,-0.0215,0.031));
#1179=CARTESIAN_POINT('',(2.34804084265016E-18,-0.0215,0.035));
#1180=CARTESIAN_POINT('',(0.0255,-0.0065,0.035002));
#1181=CARTESIAN_POINT('',(0.0255,-0.0115,0.035002));
#1182=CARTESIAN_POINT('',(0.0255,-0.0115,0.02));
#1183=CARTESIAN_POINT('',(0.0255,-0.0065,0.02));
#1184=CARTESIAN_POINT('',(0.0305,-0.0065,0.02));
#1185=CARTESIAN_POINT('',(0.0305,-0.0065,0.035002));
#1186=CARTESIAN_POINT('',(0.0305,-0.00575,0.035002));
#1187=CARTESIAN_POINT('',(0.0305,-0.00575,0.02));
#1188=CARTESIAN_POINT('',(0.0305,-0.005,0.02));
#1189=CARTESIAN_POINT('',(0.0305,-0.005,0.035002));
#1190=CARTESIAN_POINT('',(0.0255,-0.005,0.035002));
#1191=CARTESIAN_POINT('',(0.0255,-0.005,0.02));
#1192=CARTESIAN_POINT('',(0.0255,0.,0.02));
#1193=CARTESIAN_POINT('',(0.0255,0.,0.035002));
#1194=CARTESIAN_POINT('',(0.0215,0.,0.035002));
#1195=CARTESIAN_POINT('',(0.0215,0.,0.02));
#1196=CARTESIAN_POINT('',(0.0255,-0.00575,0.035002));
#1197=CARTESIAN_POINT('',(0.0255,-0.00575,0.02));
#1198=CARTESIAN_POINT('',(0.02855,-0.00575,0.02));
#1199=CARTESIAN_POINT('',(0.0215,-0.0115,0.035002));
#1200=CARTESIAN_POINT('',(0.0205,-0.0115,0.02));
#1201=CARTESIAN_POINT('',(0.0205,-0.0115,0.02));
#1202=CARTESIAN_POINT('',(0.0215,-0.0115,0.02));
#1203=CARTESIAN_POINT('',(0.024,-0.00575,0.02));
#1204=CARTESIAN_POINT('',(0.0205,-0.0145,0.02));
#1205=CARTESIAN_POINT('',(0.0205,-0.0145,0.035002));
#1206=CARTESIAN_POINT('',(-0.0215,-0.0115,0.035002));
#1207=CARTESIAN_POINT('',(-0.0255,-0.0115,0.035002));
#1208=CARTESIAN_POINT('',(-0.0255,-0.0115,0.02));
#1209=CARTESIAN_POINT('',(-0.0215,-0.0115,0.02));
#1210=CARTESIAN_POINT('',(-0.0215,0.,0.035002));
#1211=CARTESIAN_POINT('',(-0.0255,0.,0.035002));
#1212=CARTESIAN_POINT('',(-0.0255,0.,0.02));
#1213=CARTESIAN_POINT('',(-0.0215,0.,0.02));
#1214=CARTESIAN_POINT('',(-0.024,-0.00575,0.02));
#1215=CARTESIAN_POINT('',(-0.0255,-0.00575,0.02));
#1216=CARTESIAN_POINT('',(-0.02855,-0.00575,0.02));
#1217=CARTESIAN_POINT('',(-0.0255,-0.0065,0.02));
#1218=CARTESIAN_POINT('',(-0.0305,-0.0065,0.02));
#1219=CARTESIAN_POINT('',(-0.0305,-0.00575,0.02));
#1220=CARTESIAN_POINT('',(-0.0305,-0.005,0.02));
#1221=CARTESIAN_POINT('',(-0.0255,-0.005,0.02));
#1222=CARTESIAN_POINT('',(-0.0255,-0.005,0.035002));
#1223=CARTESIAN_POINT('',(-0.0305,-0.005,0.035002));
#1224=CARTESIAN_POINT('',(-0.0255,-0.0065,0.035002));
#1225=CARTESIAN_POINT('',(-0.0305,-0.0065,0.035002));
#1226=CARTESIAN_POINT('',(-0.0305,-0.00575,0.035002));
#1227=CARTESIAN_POINT('',(-0.0255,-0.00575,0.035002));
#1228=MECHANICAL_DESIGN_GEOMETRIC_PRESENTATION_REPRESENTATION('',(#728),
#1229);
#1229=(
GEOMETRIC_REPRESENTATION_CONTEXT(3)
GLOBAL_UNCERTAINTY_ASSIGNED_CONTEXT((#1230))
GLOBAL_UNIT_ASSIGNED_CONTEXT((#1233,#1232,#1231))
REPRESENTATION_CONTEXT('Body Adapter','TOP_LEVEL_ASSEMBLY_PART')
);
#1230=UNCERTAINTY_MEASURE_WITH_UNIT(LENGTH_MEASURE(2.E-5),#1233,
'DISTANCE_ACCURACY_VALUE','Maximum Tolerance applied to model');
#1231=(
NAMED_UNIT(*)
SI_UNIT($,.STERADIAN.)
SOLID_ANGLE_UNIT()
);
#1232=(
NAMED_UNIT(*)
PLANE_ANGLE_UNIT()
SI_UNIT($,.RADIAN.)
);
#1233=(
LENGTH_UNIT()
NAMED_UNIT(*)
SI_UNIT($,.METRE.)
);
#1234=PRODUCT_DEFINITION_SHAPE('','',#1235);
#1235=PRODUCT_DEFINITION('','',#1237,#1236);
#1236=PRODUCT_DEFINITION_CONTEXT('',#1243,'design');
#1237=PRODUCT_DEFINITION_FORMATION_WITH_SPECIFIED_SOURCE('','',#1239,
 .NOT_KNOWN.);
#1238=PRODUCT_RELATED_PRODUCT_CATEGORY('','',(#1239));
#1239=PRODUCT('Body Adapter','Body Adapter','Body Adapter',(#1241));
#1240=PRODUCT_CATEGORY('','');
#1241=PRODUCT_CONTEXT('',#1243,'mechanical');
#1242=APPLICATION_PROTOCOL_DEFINITION('international standard',
'ap242_managed_model_based_3d_engineering',2011,#1243);
#1243=APPLICATION_CONTEXT('managed model based 3d engineering');
ENDSEC;
END-ISO-10303-21;
