ISO-10303-21;
HEADER;
/* Generated by software containing ST-Developer
 * from STEP Tools, Inc. (www.steptools.com) 
 */
/* OPTION: using custom renumber hook */

FILE_DESCRIPTION(
/* description */ ('STEP AP242',
'CAx-IF Rec.Pracs.---Representation and Presentation of Product Manufa
cturing Information (PMI)---4.0---2014-10-13',
'CAx-IF Rec.Pracs.---3D Tessellated Geometry---0.4---2014-09-14','2;1',
'CAx-IF Rec.Pracs.---User Defined Attributes---1.5---2016-08-15'),
/* implementation_level */ '2;1');

FILE_NAME(
/* name */ '69065e87ee2a6d5daf03900e',
/* time_stamp */ '2025-11-01T19:24:56Z',
/* author */ (''),
/* organization */ (''),
/* preprocessor_version */ 'ST-DEVELOPER v20',
/* originating_system */ 'ONSHAPE BY PTC INC, 1.206',
/* authorisation */ '  ');

FILE_SCHEMA (('AP242_MANAGED_MODEL_BASED_3D_ENGINEERING_MIM_LF { 1 0 10303 442 1 1 4 }'));
ENDSEC;

DATA;
#10=SHAPE_REPRESENTATION_RELATIONSHIP('','',#377,#11);
#11=ADVANCED_BREP_SHAPE_REPRESENTATION('',(#375),#595);
#12=CYLINDRICAL_SURFACE('',#384,0.0021);
#13=CYLINDRICAL_SURFACE('',#387,0.0021);
#14=CIRCLE('',#380,0.0021);
#15=CIRCLE('',#385,0.0021);
#16=CIRCLE('',#388,0.0021);
#17=CIRCLE('',#389,0.0021);
#18=ORIENTED_EDGE('',*,*,#110,.F.);
#19=ORIENTED_EDGE('',*,*,#111,.T.);
#20=ORIENTED_EDGE('',*,*,#112,.T.);
#21=ORIENTED_EDGE('',*,*,#113,.F.);
#22=ORIENTED_EDGE('',*,*,#114,.T.);
#23=ORIENTED_EDGE('',*,*,#115,.T.);
#24=ORIENTED_EDGE('',*,*,#116,.F.);
#25=ORIENTED_EDGE('',*,*,#117,.F.);
#26=ORIENTED_EDGE('',*,*,#118,.T.);
#27=ORIENTED_EDGE('',*,*,#119,.F.);
#28=ORIENTED_EDGE('',*,*,#118,.F.);
#29=ORIENTED_EDGE('',*,*,#120,.T.);
#30=ORIENTED_EDGE('',*,*,#121,.F.);
#31=ORIENTED_EDGE('',*,*,#122,.F.);
#32=ORIENTED_EDGE('',*,*,#123,.T.);
#33=ORIENTED_EDGE('',*,*,#124,.F.);
#34=ORIENTED_EDGE('',*,*,#123,.F.);
#35=ORIENTED_EDGE('',*,*,#125,.T.);
#36=ORIENTED_EDGE('',*,*,#126,.T.);
#37=ORIENTED_EDGE('',*,*,#114,.F.);
#38=ORIENTED_EDGE('',*,*,#127,.T.);
#39=ORIENTED_EDGE('',*,*,#128,.T.);
#40=ORIENTED_EDGE('',*,*,#126,.F.);
#41=ORIENTED_EDGE('',*,*,#129,.T.);
#42=ORIENTED_EDGE('',*,*,#130,.T.);
#43=ORIENTED_EDGE('',*,*,#131,.F.);
#44=ORIENTED_EDGE('',*,*,#116,.T.);
#45=ORIENTED_EDGE('',*,*,#132,.F.);
#46=ORIENTED_EDGE('',*,*,#133,.T.);
#47=ORIENTED_EDGE('',*,*,#134,.F.);
#48=ORIENTED_EDGE('',*,*,#135,.T.);
#49=ORIENTED_EDGE('',*,*,#136,.T.);
#50=ORIENTED_EDGE('',*,*,#137,.F.);
#51=ORIENTED_EDGE('',*,*,#132,.T.);
#52=ORIENTED_EDGE('',*,*,#115,.F.);
#53=ORIENTED_EDGE('',*,*,#119,.T.);
#54=ORIENTED_EDGE('',*,*,#124,.T.);
#55=ORIENTED_EDGE('',*,*,#128,.F.);
#56=ORIENTED_EDGE('',*,*,#127,.F.);
#57=ORIENTED_EDGE('',*,*,#133,.F.);
#58=ORIENTED_EDGE('',*,*,#120,.F.);
#59=ORIENTED_EDGE('',*,*,#117,.T.);
#60=ORIENTED_EDGE('',*,*,#131,.T.);
#61=ORIENTED_EDGE('',*,*,#138,.F.);
#62=ORIENTED_EDGE('',*,*,#135,.F.);
#63=ORIENTED_EDGE('',*,*,#139,.F.);
#64=ORIENTED_EDGE('',*,*,#140,.T.);
#65=ORIENTED_EDGE('',*,*,#141,.T.);
#66=ORIENTED_EDGE('',*,*,#134,.T.);
#67=ORIENTED_EDGE('',*,*,#142,.F.);
#68=ORIENTED_EDGE('',*,*,#143,.F.);
#69=ORIENTED_EDGE('',*,*,#139,.T.);
#70=ORIENTED_EDGE('',*,*,#137,.T.);
#71=ORIENTED_EDGE('',*,*,#144,.F.);
#72=ORIENTED_EDGE('',*,*,#145,.F.);
#73=ORIENTED_EDGE('',*,*,#142,.T.);
#74=ORIENTED_EDGE('',*,*,#111,.F.);
#75=ORIENTED_EDGE('',*,*,#146,.F.);
#76=ORIENTED_EDGE('',*,*,#147,.T.);
#77=ORIENTED_EDGE('',*,*,#148,.T.);
#78=ORIENTED_EDGE('',*,*,#110,.T.);
#79=ORIENTED_EDGE('',*,*,#149,.F.);
#80=ORIENTED_EDGE('',*,*,#150,.F.);
#81=ORIENTED_EDGE('',*,*,#146,.T.);
#82=ORIENTED_EDGE('',*,*,#113,.T.);
#83=ORIENTED_EDGE('',*,*,#151,.F.);
#84=ORIENTED_EDGE('',*,*,#152,.F.);
#85=ORIENTED_EDGE('',*,*,#149,.T.);
#86=ORIENTED_EDGE('',*,*,#112,.F.);
#87=ORIENTED_EDGE('',*,*,#148,.F.);
#88=ORIENTED_EDGE('',*,*,#153,.T.);
#89=ORIENTED_EDGE('',*,*,#151,.T.);
#90=ORIENTED_EDGE('',*,*,#138,.T.);
#91=ORIENTED_EDGE('',*,*,#130,.F.);
#92=ORIENTED_EDGE('',*,*,#154,.F.);
#93=ORIENTED_EDGE('',*,*,#121,.T.);
#94=ORIENTED_EDGE('',*,*,#136,.F.);
#95=ORIENTED_EDGE('',*,*,#141,.F.);
#96=ORIENTED_EDGE('',*,*,#155,.T.);
#97=ORIENTED_EDGE('',*,*,#144,.T.);
#98=ORIENTED_EDGE('',*,*,#129,.F.);
#99=ORIENTED_EDGE('',*,*,#125,.F.);
#100=ORIENTED_EDGE('',*,*,#122,.T.);
#101=ORIENTED_EDGE('',*,*,#154,.T.);
#102=ORIENTED_EDGE('',*,*,#147,.F.);
#103=ORIENTED_EDGE('',*,*,#150,.T.);
#104=ORIENTED_EDGE('',*,*,#152,.T.);
#105=ORIENTED_EDGE('',*,*,#153,.F.);
#106=ORIENTED_EDGE('',*,*,#140,.F.);
#107=ORIENTED_EDGE('',*,*,#143,.T.);
#108=ORIENTED_EDGE('',*,*,#145,.T.);
#109=ORIENTED_EDGE('',*,*,#155,.F.);
#110=EDGE_CURVE('',#156,#157,#188,.T.);
#111=EDGE_CURVE('',#156,#158,#189,.T.);
#112=EDGE_CURVE('',#158,#159,#190,.T.);
#113=EDGE_CURVE('',#157,#159,#191,.T.);
#114=EDGE_CURVE('',#160,#160,#14,.T.);
#115=EDGE_CURVE('',#161,#162,#192,.T.);
#116=EDGE_CURVE('',#163,#162,#193,.T.);
#117=EDGE_CURVE('',#164,#163,#194,.T.);
#118=EDGE_CURVE('',#164,#161,#195,.T.);
#119=EDGE_CURVE('',#161,#165,#196,.T.);
#120=EDGE_CURVE('',#164,#166,#197,.T.);
#121=EDGE_CURVE('',#167,#166,#198,.T.);
#122=EDGE_CURVE('',#168,#167,#199,.T.);
#123=EDGE_CURVE('',#168,#165,#200,.T.);
#124=EDGE_CURVE('',#165,#169,#201,.T.);
#125=EDGE_CURVE('',#168,#170,#202,.T.);
#126=EDGE_CURVE('',#170,#169,#203,.T.);
#127=EDGE_CURVE('',#171,#171,#15,.T.);
#128=EDGE_CURVE('',#162,#169,#204,.T.);
#129=EDGE_CURVE('',#170,#172,#205,.T.);
#130=EDGE_CURVE('',#172,#173,#206,.T.);
#131=EDGE_CURVE('',#163,#173,#207,.T.);
#132=EDGE_CURVE('',#174,#174,#16,.T.);
#133=EDGE_CURVE('',#175,#175,#17,.T.);
#134=EDGE_CURVE('',#176,#177,#208,.T.);
#135=EDGE_CURVE('',#176,#178,#209,.T.);
#136=EDGE_CURVE('',#178,#179,#210,.T.);
#137=EDGE_CURVE('',#177,#179,#211,.T.);
#138=EDGE_CURVE('',#166,#173,#212,.T.);
#139=EDGE_CURVE('',#180,#176,#213,.T.);
#140=EDGE_CURVE('',#180,#181,#214,.T.);
#141=EDGE_CURVE('',#181,#178,#215,.T.);
#142=EDGE_CURVE('',#182,#177,#216,.T.);
#143=EDGE_CURVE('',#180,#182,#217,.T.);
#144=EDGE_CURVE('',#183,#179,#218,.T.);
#145=EDGE_CURVE('',#182,#183,#219,.T.);
#146=EDGE_CURVE('',#184,#156,#220,.T.);
#147=EDGE_CURVE('',#184,#185,#221,.T.);
#148=EDGE_CURVE('',#185,#158,#222,.T.);
#149=EDGE_CURVE('',#186,#157,#223,.T.);
#150=EDGE_CURVE('',#184,#186,#224,.T.);
#151=EDGE_CURVE('',#187,#159,#225,.T.);
#152=EDGE_CURVE('',#186,#187,#226,.T.);
#153=EDGE_CURVE('',#185,#187,#227,.T.);
#154=EDGE_CURVE('',#167,#172,#228,.T.);
#155=EDGE_CURVE('',#181,#183,#229,.T.);
#156=VERTEX_POINT('',#498);
#157=VERTEX_POINT('',#499);
#158=VERTEX_POINT('',#501);
#159=VERTEX_POINT('',#503);
#160=VERTEX_POINT('',#506);
#161=VERTEX_POINT('',#509);
#162=VERTEX_POINT('',#510);
#163=VERTEX_POINT('',#512);
#164=VERTEX_POINT('',#514);
#165=VERTEX_POINT('',#518);
#166=VERTEX_POINT('',#520);
#167=VERTEX_POINT('',#522);
#168=VERTEX_POINT('',#524);
#169=VERTEX_POINT('',#528);
#170=VERTEX_POINT('',#530);
#171=VERTEX_POINT('',#534);
#172=VERTEX_POINT('',#538);
#173=VERTEX_POINT('',#540);
#174=VERTEX_POINT('',#544);
#175=VERTEX_POINT('',#546);
#176=VERTEX_POINT('',#549);
#177=VERTEX_POINT('',#550);
#178=VERTEX_POINT('',#552);
#179=VERTEX_POINT('',#554);
#180=VERTEX_POINT('',#561);
#181=VERTEX_POINT('',#563);
#182=VERTEX_POINT('',#567);
#183=VERTEX_POINT('',#571);
#184=VERTEX_POINT('',#575);
#185=VERTEX_POINT('',#577);
#186=VERTEX_POINT('',#581);
#187=VERTEX_POINT('',#585);
#188=LINE('',#497,#230);
#189=LINE('',#500,#231);
#190=LINE('',#502,#232);
#191=LINE('',#504,#233);
#192=LINE('',#508,#234);
#193=LINE('',#511,#235);
#194=LINE('',#513,#236);
#195=LINE('',#515,#237);
#196=LINE('',#517,#238);
#197=LINE('',#519,#239);
#198=LINE('',#521,#240);
#199=LINE('',#523,#241);
#200=LINE('',#525,#242);
#201=LINE('',#527,#243);
#202=LINE('',#529,#244);
#203=LINE('',#531,#245);
#204=LINE('',#536,#246);
#205=LINE('',#537,#247);
#206=LINE('',#539,#248);
#207=LINE('',#541,#249);
#208=LINE('',#548,#250);
#209=LINE('',#551,#251);
#210=LINE('',#553,#252);
#211=LINE('',#555,#253);
#212=LINE('',#558,#254);
#213=LINE('',#560,#255);
#214=LINE('',#562,#256);
#215=LINE('',#564,#257);
#216=LINE('',#566,#258);
#217=LINE('',#568,#259);
#218=LINE('',#570,#260);
#219=LINE('',#572,#261);
#220=LINE('',#574,#262);
#221=LINE('',#576,#263);
#222=LINE('',#578,#264);
#223=LINE('',#580,#265);
#224=LINE('',#582,#266);
#225=LINE('',#584,#267);
#226=LINE('',#586,#268);
#227=LINE('',#588,#269);
#228=LINE('',#590,#270);
#229=LINE('',#592,#271);
#230=VECTOR('',#407,1.);
#231=VECTOR('',#408,1.);
#232=VECTOR('',#409,1.);
#233=VECTOR('',#410,1.);
#234=VECTOR('',#415,1.);
#235=VECTOR('',#416,1.);
#236=VECTOR('',#417,1.);
#237=VECTOR('',#418,1.);
#238=VECTOR('',#421,1.);
#239=VECTOR('',#422,1.);
#240=VECTOR('',#423,1.);
#241=VECTOR('',#424,1.);
#242=VECTOR('',#425,1.);
#243=VECTOR('',#428,1.);
#244=VECTOR('',#429,1.);
#245=VECTOR('',#430,1.);
#246=VECTOR('',#437,1.);
#247=VECTOR('',#438,1.);
#248=VECTOR('',#439,1.);
#249=VECTOR('',#440,1.);
#250=VECTOR('',#449,1.);
#251=VECTOR('',#450,1.);
#252=VECTOR('',#451,1.);
#253=VECTOR('',#452,1.);
#254=VECTOR('',#457,1.);
#255=VECTOR('',#460,1.);
#256=VECTOR('',#461,1.);
#257=VECTOR('',#462,1.);
#258=VECTOR('',#465,1.);
#259=VECTOR('',#466,1.);
#260=VECTOR('',#469,1.);
#261=VECTOR('',#470,1.);
#262=VECTOR('',#473,1.);
#263=VECTOR('',#474,1.);
#264=VECTOR('',#475,1.);
#265=VECTOR('',#478,1.);
#266=VECTOR('',#479,1.);
#267=VECTOR('',#482,1.);
#268=VECTOR('',#483,1.);
#269=VECTOR('',#486,1.);
#270=VECTOR('',#489,1.);
#271=VECTOR('',#492,1.);
#272=EDGE_LOOP('',(#18,#19,#20,#21));
#273=EDGE_LOOP('',(#22));
#274=EDGE_LOOP('',(#23,#24,#25,#26));
#275=EDGE_LOOP('',(#27,#28,#29,#30,#31,#32));
#276=EDGE_LOOP('',(#33,#34,#35,#36));
#277=EDGE_LOOP('',(#37));
#278=EDGE_LOOP('',(#38));
#279=EDGE_LOOP('',(#39,#40,#41,#42,#43,#44));
#280=EDGE_LOOP('',(#45));
#281=EDGE_LOOP('',(#46));
#282=EDGE_LOOP('',(#47,#48,#49,#50));
#283=EDGE_LOOP('',(#51));
#284=EDGE_LOOP('',(#52,#53,#54,#55));
#285=EDGE_LOOP('',(#56));
#286=EDGE_LOOP('',(#57));
#287=EDGE_LOOP('',(#58,#59,#60,#61));
#288=EDGE_LOOP('',(#62,#63,#64,#65));
#289=EDGE_LOOP('',(#66,#67,#68,#69));
#290=EDGE_LOOP('',(#70,#71,#72,#73));
#291=EDGE_LOOP('',(#74,#75,#76,#77));
#292=EDGE_LOOP('',(#78,#79,#80,#81));
#293=EDGE_LOOP('',(#82,#83,#84,#85));
#294=EDGE_LOOP('',(#86,#87,#88,#89));
#295=EDGE_LOOP('',(#90,#91,#92,#93));
#296=EDGE_LOOP('',(#94,#95,#96,#97));
#297=EDGE_LOOP('',(#98,#99,#100,#101));
#298=EDGE_LOOP('',(#102,#103,#104,#105));
#299=EDGE_LOOP('',(#106,#107,#108,#109));
#300=FACE_BOUND('',#272,.T.);
#301=FACE_BOUND('',#273,.T.);
#302=FACE_BOUND('',#274,.T.);
#303=FACE_BOUND('',#275,.T.);
#304=FACE_BOUND('',#276,.T.);
#305=FACE_BOUND('',#277,.T.);
#306=FACE_BOUND('',#278,.T.);
#307=FACE_BOUND('',#279,.T.);
#308=FACE_BOUND('',#280,.T.);
#309=FACE_BOUND('',#281,.T.);
#310=FACE_BOUND('',#282,.T.);
#311=FACE_BOUND('',#283,.T.);
#312=FACE_BOUND('',#284,.T.);
#313=FACE_BOUND('',#285,.T.);
#314=FACE_BOUND('',#286,.T.);
#315=FACE_BOUND('',#287,.T.);
#316=FACE_BOUND('',#288,.T.);
#317=FACE_BOUND('',#289,.T.);
#318=FACE_BOUND('',#290,.T.);
#319=FACE_BOUND('',#291,.T.);
#320=FACE_BOUND('',#292,.T.);
#321=FACE_BOUND('',#293,.T.);
#322=FACE_BOUND('',#294,.T.);
#323=FACE_BOUND('',#295,.T.);
#324=FACE_BOUND('',#296,.T.);
#325=FACE_BOUND('',#297,.T.);
#326=FACE_BOUND('',#298,.T.);
#327=FACE_BOUND('',#299,.T.);
#328=PLANE('',#379);
#329=PLANE('',#381);
#330=PLANE('',#382);
#331=PLANE('',#383);
#332=PLANE('',#386);
#333=PLANE('',#390);
#334=PLANE('',#391);
#335=PLANE('',#392);
#336=PLANE('',#393);
#337=PLANE('',#394);
#338=PLANE('',#395);
#339=PLANE('',#396);
#340=PLANE('',#397);
#341=PLANE('',#398);
#342=PLANE('',#399);
#343=PLANE('',#400);
#344=PLANE('',#401);
#345=PLANE('',#402);
#346=ADVANCED_FACE('',(#300,#301),#328,.F.);
#347=ADVANCED_FACE('',(#302),#329,.F.);
#348=ADVANCED_FACE('',(#303),#330,.T.);
#349=ADVANCED_FACE('',(#304),#331,.T.);
#350=ADVANCED_FACE('',(#305,#306),#12,.F.);
#351=ADVANCED_FACE('',(#307),#332,.F.);
#352=ADVANCED_FACE('',(#308,#309),#13,.F.);
#353=ADVANCED_FACE('',(#310,#311),#333,.F.);
#354=ADVANCED_FACE('',(#312,#313,#314),#334,.T.);
#355=ADVANCED_FACE('',(#315),#335,.F.);
#356=ADVANCED_FACE('',(#316),#336,.T.);
#357=ADVANCED_FACE('',(#317),#337,.F.);
#358=ADVANCED_FACE('',(#318),#338,.F.);
#359=ADVANCED_FACE('',(#319),#339,.T.);
#360=ADVANCED_FACE('',(#320),#340,.F.);
#361=ADVANCED_FACE('',(#321),#341,.F.);
#362=ADVANCED_FACE('',(#322),#342,.T.);
#363=ADVANCED_FACE('',(#323),#343,.F.);
#364=ADVANCED_FACE('',(#324),#344,.T.);
#365=ADVANCED_FACE('',(#325,#326,#327),#345,.T.);
#366=CLOSED_SHELL('',(#346,#347,#348,#349,#350,#351,#352,#353,#354,#355,
#356,#357,#358,#359,#360,#361,#362,#363,#364,#365));
#367=STYLED_ITEM('',(#368),#375);
#368=PRESENTATION_STYLE_ASSIGNMENT((#369));
#369=SURFACE_STYLE_USAGE(.BOTH.,#370);
#370=SURFACE_SIDE_STYLE('',(#371));
#371=SURFACE_STYLE_FILL_AREA(#372);
#372=FILL_AREA_STYLE('',(#373));
#373=FILL_AREA_STYLE_COLOUR('',#374);
#374=COLOUR_RGB('',0.231372549019608,0.380392156862745,0.705882352941177);
#375=MANIFOLD_SOLID_BREP('Retainer',#366);
#376=SHAPE_DEFINITION_REPRESENTATION(#600,#377);
#377=SHAPE_REPRESENTATION('Retainer',(#378),#595);
#378=AXIS2_PLACEMENT_3D('',#495,#403,#404);
#379=AXIS2_PLACEMENT_3D('',#496,#405,#406);
#380=AXIS2_PLACEMENT_3D('',#505,#411,#412);
#381=AXIS2_PLACEMENT_3D('',#507,#413,#414);
#382=AXIS2_PLACEMENT_3D('',#516,#419,#420);
#383=AXIS2_PLACEMENT_3D('',#526,#426,#427);
#384=AXIS2_PLACEMENT_3D('',#532,#431,#432);
#385=AXIS2_PLACEMENT_3D('',#533,#433,#434);
#386=AXIS2_PLACEMENT_3D('',#535,#435,#436);
#387=AXIS2_PLACEMENT_3D('',#542,#441,#442);
#388=AXIS2_PLACEMENT_3D('',#543,#443,#444);
#389=AXIS2_PLACEMENT_3D('',#545,#445,#446);
#390=AXIS2_PLACEMENT_3D('',#547,#447,#448);
#391=AXIS2_PLACEMENT_3D('',#556,#453,#454);
#392=AXIS2_PLACEMENT_3D('',#557,#455,#456);
#393=AXIS2_PLACEMENT_3D('',#559,#458,#459);
#394=AXIS2_PLACEMENT_3D('',#565,#463,#464);
#395=AXIS2_PLACEMENT_3D('',#569,#467,#468);
#396=AXIS2_PLACEMENT_3D('',#573,#471,#472);
#397=AXIS2_PLACEMENT_3D('',#579,#476,#477);
#398=AXIS2_PLACEMENT_3D('',#583,#480,#481);
#399=AXIS2_PLACEMENT_3D('',#587,#484,#485);
#400=AXIS2_PLACEMENT_3D('',#589,#487,#488);
#401=AXIS2_PLACEMENT_3D('',#591,#490,#491);
#402=AXIS2_PLACEMENT_3D('',#593,#493,#494);
#403=DIRECTION('',(0.,0.,1.));
#404=DIRECTION('',(1.,0.,0.));
#405=DIRECTION('',(0.,0.,1.));
#406=DIRECTION('',(1.,0.,0.));
#407=DIRECTION('',(1.,0.,0.));
#408=DIRECTION('',(0.,1.,0.));
#409=DIRECTION('',(1.,0.,0.));
#410=DIRECTION('',(0.,1.,0.));
#411=DIRECTION('',(0.,0.,1.));
#412=DIRECTION('',(1.,0.,0.));
#413=DIRECTION('',(1.,0.,0.));
#414=DIRECTION('',(0.,0.,-1.));
#415=DIRECTION('',(0.,1.,0.));
#416=DIRECTION('',(0.,0.,1.));
#417=DIRECTION('',(0.,1.,0.));
#418=DIRECTION('',(0.,0.,1.));
#419=DIRECTION('',(0.,-1.,0.));
#420=DIRECTION('',(0.,0.,-1.));
#421=DIRECTION('',(1.,0.,0.));
#422=DIRECTION('',(-1.,0.,0.));
#423=DIRECTION('',(0.,0.,1.));
#424=DIRECTION('',(-1.,0.,0.));
#425=DIRECTION('',(0.,0.,1.));
#426=DIRECTION('',(1.,0.,0.));
#427=DIRECTION('',(0.,0.,-1.));
#428=DIRECTION('',(0.,1.,0.));
#429=DIRECTION('',(0.,1.,0.));
#430=DIRECTION('',(0.,0.,1.));
#431=DIRECTION('',(0.,0.,1.));
#432=DIRECTION('',(1.,0.,0.));
#433=DIRECTION('',(0.,0.,1.));
#434=DIRECTION('',(1.,0.,0.));
#435=DIRECTION('',(0.,-1.,0.));
#436=DIRECTION('',(0.,0.,-1.));
#437=DIRECTION('',(1.,0.,0.));
#438=DIRECTION('',(-1.,0.,0.));
#439=DIRECTION('',(0.,0.,1.));
#440=DIRECTION('',(-1.,0.,0.));
#441=DIRECTION('',(0.,0.,1.));
#442=DIRECTION('',(1.,0.,0.));
#443=DIRECTION('',(0.,0.,1.));
#444=DIRECTION('',(1.,0.,0.));
#445=DIRECTION('',(0.,0.,1.));
#446=DIRECTION('',(1.,0.,0.));
#447=DIRECTION('',(0.,0.,1.));
#448=DIRECTION('',(1.,0.,0.));
#449=DIRECTION('',(1.,0.,0.));
#450=DIRECTION('',(0.,1.,0.));
#451=DIRECTION('',(1.,0.,0.));
#452=DIRECTION('',(0.,1.,0.));
#453=DIRECTION('',(0.,0.,1.));
#454=DIRECTION('',(1.,0.,0.));
#455=DIRECTION('',(0.,0.,-1.));
#456=DIRECTION('',(1.,0.,0.));
#457=DIRECTION('',(3.85494105772624E-16,1.,0.));
#458=DIRECTION('',(1.,0.,0.));
#459=DIRECTION('',(0.,0.,-1.));
#460=DIRECTION('',(0.,0.,1.));
#461=DIRECTION('',(0.,1.,0.));
#462=DIRECTION('',(0.,0.,1.));
#463=DIRECTION('',(0.,-1.,0.));
#464=DIRECTION('',(0.,0.,-1.));
#465=DIRECTION('',(0.,0.,1.));
#466=DIRECTION('',(1.,0.,0.));
#467=DIRECTION('',(1.,0.,0.));
#468=DIRECTION('',(0.,0.,-1.));
#469=DIRECTION('',(0.,0.,1.));
#470=DIRECTION('',(0.,1.,0.));
#471=DIRECTION('',(1.,0.,0.));
#472=DIRECTION('',(0.,0.,-1.));
#473=DIRECTION('',(0.,0.,1.));
#474=DIRECTION('',(0.,1.,0.));
#475=DIRECTION('',(0.,0.,1.));
#476=DIRECTION('',(0.,-1.,0.));
#477=DIRECTION('',(0.,0.,-1.));
#478=DIRECTION('',(0.,0.,1.));
#479=DIRECTION('',(1.,0.,0.));
#480=DIRECTION('',(1.,0.,0.));
#481=DIRECTION('',(0.,0.,-1.));
#482=DIRECTION('',(0.,0.,1.));
#483=DIRECTION('',(0.,1.,0.));
#484=DIRECTION('',(0.,-1.,0.));
#485=DIRECTION('',(0.,0.,-1.));
#486=DIRECTION('',(1.,0.,0.));
#487=DIRECTION('',(1.,-3.85494105772624E-16,0.));
#488=DIRECTION('',(3.85494105772624E-16,1.,0.));
#489=DIRECTION('',(3.85494105772624E-16,1.,0.));
#490=DIRECTION('',(0.,-1.,0.));
#491=DIRECTION('',(0.,0.,-1.));
#492=DIRECTION('',(1.,0.,0.));
#493=DIRECTION('',(0.,0.,-1.));
#494=DIRECTION('',(1.,0.,0.));
#495=CARTESIAN_POINT('',(0.,0.,0.));
#496=CARTESIAN_POINT('',(0.069,0.,-0.0598));
#497=CARTESIAN_POINT('',(0.069,-0.0121,-0.0598));
#498=CARTESIAN_POINT('',(0.0654,-0.0121,-0.0598));
#499=CARTESIAN_POINT('',(0.0726,-0.0121,-0.0598));
#500=CARTESIAN_POINT('',(0.0654,-0.0085,-0.0598));
#501=CARTESIAN_POINT('',(0.0654,-0.0049,-0.0598));
#502=CARTESIAN_POINT('',(0.069,-0.0049,-0.0598));
#503=CARTESIAN_POINT('',(0.0726,-0.0049,-0.0598));
#504=CARTESIAN_POINT('',(0.0726,-0.0085,-0.0598));
#505=CARTESIAN_POINT('',(0.069,-0.0085,-0.0598));
#506=CARTESIAN_POINT('',(0.0711,-0.0085,-0.0598));
#507=CARTESIAN_POINT('',(0.0625,0.,-0.0598));
#508=CARTESIAN_POINT('',(0.0625,0.,-0.0558));
#509=CARTESIAN_POINT('',(0.0625,-0.018,-0.0558));
#510=CARTESIAN_POINT('',(0.0625,0.018,-0.0558));
#511=CARTESIAN_POINT('',(0.0625,0.018,-0.0598));
#512=CARTESIAN_POINT('',(0.0625,0.018,-0.0598));
#513=CARTESIAN_POINT('',(0.0625,0.,-0.0598));
#514=CARTESIAN_POINT('',(0.0625,-0.018,-0.0598));
#515=CARTESIAN_POINT('',(0.0625,-0.018,-0.0598));
#516=CARTESIAN_POINT('',(0.069,-0.018,-0.0598));
#517=CARTESIAN_POINT('',(0.069,-0.018,-0.0558));
#518=CARTESIAN_POINT('',(0.0755,-0.018,-0.0558));
#519=CARTESIAN_POINT('',(0.06725,-0.018,-0.0598));
#520=CARTESIAN_POINT('',(0.059,-0.018,-0.0598));
#521=CARTESIAN_POINT('',(0.059,-0.018,-0.0638));
#522=CARTESIAN_POINT('',(0.059,-0.018,-0.0638));
#523=CARTESIAN_POINT('',(0.06725,-0.018,-0.0638));
#524=CARTESIAN_POINT('',(0.0755,-0.018,-0.0638));
#525=CARTESIAN_POINT('',(0.0755,-0.018,-0.0598));
#526=CARTESIAN_POINT('',(0.0755,0.,-0.0598));
#527=CARTESIAN_POINT('',(0.0755,0.,-0.0558));
#528=CARTESIAN_POINT('',(0.0755,0.018,-0.0558));
#529=CARTESIAN_POINT('',(0.0755,0.,-0.0638));
#530=CARTESIAN_POINT('',(0.0755,0.018,-0.0638));
#531=CARTESIAN_POINT('',(0.0755,0.018,-0.0598));
#532=CARTESIAN_POINT('',(0.069,-0.0085,-0.0598));
#533=CARTESIAN_POINT('',(0.069,-0.0085,-0.0558));
#534=CARTESIAN_POINT('',(0.0711,-0.0085,-0.0558));
#535=CARTESIAN_POINT('',(0.069,0.018,-0.0598));
#536=CARTESIAN_POINT('',(0.069,0.018,-0.0558));
#537=CARTESIAN_POINT('',(0.06725,0.018,-0.0638));
#538=CARTESIAN_POINT('',(0.059,0.018,-0.0638));
#539=CARTESIAN_POINT('',(0.059,0.018,-0.0638));
#540=CARTESIAN_POINT('',(0.059,0.018,-0.0598));
#541=CARTESIAN_POINT('',(0.06725,0.018,-0.0598));
#542=CARTESIAN_POINT('',(0.069,0.0085,-0.0598));
#543=CARTESIAN_POINT('',(0.069,0.0085,-0.0598));
#544=CARTESIAN_POINT('',(0.0711,0.0085,-0.0598));
#545=CARTESIAN_POINT('',(0.069,0.0085,-0.0558));
#546=CARTESIAN_POINT('',(0.0711,0.0085,-0.0558));
#547=CARTESIAN_POINT('',(0.069,0.,-0.0598));
#548=CARTESIAN_POINT('',(0.069,0.0049,-0.0598));
#549=CARTESIAN_POINT('',(0.0654,0.0049,-0.0598));
#550=CARTESIAN_POINT('',(0.0726,0.0049,-0.0598));
#551=CARTESIAN_POINT('',(0.0654,0.0085,-0.0598));
#552=CARTESIAN_POINT('',(0.0654,0.0121,-0.0598));
#553=CARTESIAN_POINT('',(0.069,0.0121,-0.0598));
#554=CARTESIAN_POINT('',(0.0726,0.0121,-0.0598));
#555=CARTESIAN_POINT('',(0.0726,0.0085,-0.0598));
#556=CARTESIAN_POINT('',(0.069,0.,-0.0558));
#557=CARTESIAN_POINT('',(0.06725,0.,-0.0598));
#558=CARTESIAN_POINT('',(0.059,3.46944695195361E-18,-0.0598));
#559=CARTESIAN_POINT('',(0.0654,0.0085,-0.0638));
#560=CARTESIAN_POINT('',(0.0654,0.0049,-0.0638));
#561=CARTESIAN_POINT('',(0.0654,0.0049,-0.0638));
#562=CARTESIAN_POINT('',(0.0654,0.0085,-0.0638));
#563=CARTESIAN_POINT('',(0.0654,0.0121,-0.0638));
#564=CARTESIAN_POINT('',(0.0654,0.0121,-0.0638));
#565=CARTESIAN_POINT('',(0.069,0.0049,-0.0638));
#566=CARTESIAN_POINT('',(0.0726,0.0049,-0.0638));
#567=CARTESIAN_POINT('',(0.0726,0.0049,-0.0638));
#568=CARTESIAN_POINT('',(0.069,0.0049,-0.0638));
#569=CARTESIAN_POINT('',(0.0726,0.0085,-0.0638));
#570=CARTESIAN_POINT('',(0.0726,0.0121,-0.0638));
#571=CARTESIAN_POINT('',(0.0726,0.0121,-0.0638));
#572=CARTESIAN_POINT('',(0.0726,0.0085,-0.0638));
#573=CARTESIAN_POINT('',(0.0654,-0.0085,-0.0638));
#574=CARTESIAN_POINT('',(0.0654,-0.0121,-0.0638));
#575=CARTESIAN_POINT('',(0.0654,-0.0121,-0.0638));
#576=CARTESIAN_POINT('',(0.0654,-0.0085,-0.0638));
#577=CARTESIAN_POINT('',(0.0654,-0.0049,-0.0638));
#578=CARTESIAN_POINT('',(0.0654,-0.0049,-0.0638));
#579=CARTESIAN_POINT('',(0.069,-0.0121,-0.0638));
#580=CARTESIAN_POINT('',(0.0726,-0.0121,-0.0638));
#581=CARTESIAN_POINT('',(0.0726,-0.0121,-0.0638));
#582=CARTESIAN_POINT('',(0.069,-0.0121,-0.0638));
#583=CARTESIAN_POINT('',(0.0726,-0.0085,-0.0638));
#584=CARTESIAN_POINT('',(0.0726,-0.0049,-0.0638));
#585=CARTESIAN_POINT('',(0.0726,-0.0049,-0.0638));
#586=CARTESIAN_POINT('',(0.0726,-0.0085,-0.0638));
#587=CARTESIAN_POINT('',(0.069,-0.0049,-0.0638));
#588=CARTESIAN_POINT('',(0.069,-0.0049,-0.0638));
#589=CARTESIAN_POINT('',(0.059,3.46944695195361E-18,-0.0638));
#590=CARTESIAN_POINT('',(0.059,3.46944695195361E-18,-0.0638));
#591=CARTESIAN_POINT('',(0.069,0.0121,-0.0638));
#592=CARTESIAN_POINT('',(0.069,0.0121,-0.0638));
#593=CARTESIAN_POINT('',(0.06725,0.,-0.0638));
#594=MECHANICAL_DESIGN_GEOMETRIC_PRESENTATION_REPRESENTATION('',(#367),
#595);
#595=(
GEOMETRIC_REPRESENTATION_CONTEXT(3)
GLOBAL_UNCERTAINTY_ASSIGNED_CONTEXT((#596))
GLOBAL_UNIT_ASSIGNED_CONTEXT((#599,#598,#597))
REPRESENTATION_CONTEXT('Retainer','TOP_LEVEL_ASSEMBLY_PART')
);
#596=UNCERTAINTY_MEASURE_WITH_UNIT(LENGTH_MEASURE(1.E-8),#599,
'DISTANCE_ACCURACY_VALUE','Maximum Tolerance applied to model');
#597=(
NAMED_UNIT(*)
SI_UNIT($,.STERADIAN.)
SOLID_ANGLE_UNIT()
);
#598=(
NAMED_UNIT(*)
PLANE_ANGLE_UNIT()
SI_UNIT($,.RADIAN.)
);
#599=(
LENGTH_UNIT()
NAMED_UNIT(*)
SI_UNIT($,.METRE.)
);
#600=PRODUCT_DEFINITION_SHAPE('','',#601);
#601=PRODUCT_DEFINITION('','',#603,#602);
#602=PRODUCT_DEFINITION_CONTEXT('',#609,'design');
#603=PRODUCT_DEFINITION_FORMATION_WITH_SPECIFIED_SOURCE('','',#605,
 .NOT_KNOWN.);
#604=PRODUCT_RELATED_PRODUCT_CATEGORY('','',(#605));
#605=PRODUCT('Retainer','Retainer','Retainer',(#607));
#606=PRODUCT_CATEGORY('','');
#607=PRODUCT_CONTEXT('',#609,'mechanical');
#608=APPLICATION_PROTOCOL_DEFINITION('international standard',
'ap242_managed_model_based_3d_engineering',2011,#609);
#609=APPLICATION_CONTEXT('managed model based 3d engineering');
ENDSEC;
END-ISO-10303-21;
