ISO-10303-21;
HEADER;
/* Generated by software containing ST-Developer
 * from STEP Tools, Inc. (www.steptools.com) 
 */
/* OPTION: using custom renumber hook */

FILE_DESCRIPTION(
/* description */ ('STEP AP242',
'CAx-IF Rec.Pracs.---Representation and Presentation of Product Manufa
cturing Information (PMI)---4.0---2014-10-13',
'CAx-IF Rec.Pracs.---3D Tessellated Geometry---0.4---2014-09-14','2;1',
'CAx-IF Rec.Pracs.---User Defined Attributes---1.5---2016-08-15'),
/* implementation_level */ '2;1');

FILE_NAME(
/* name */ '69065f0aee2a6d5daf0390e9',
/* time_stamp */ '2025-11-01T19:27:07Z',
/* author */ (''),
/* organization */ (''),
/* preprocessor_version */ 'ST-DEVELOPER v20',
/* originating_system */ 'ONSHAPE BY PTC INC, 1.206',
/* authorisation */ '  ');

FILE_SCHEMA (('AP242_MANAGED_MODEL_BASED_3D_ENGINEERING_MIM_LF { 1 0 10303 442 1 1 4 }'));
ENDSEC;

DATA;
#10=SHAPE_REPRESENTATION_RELATIONSHIP('','',#1251,#12);
#11=SHAPE_REPRESENTATION_RELATIONSHIP('','',#1252,#13);
#12=ADVANCED_BREP_SHAPE_REPRESENTATION('',(#1247),#2023);
#13=ADVANCED_BREP_SHAPE_REPRESENTATION('',(#1248),#2024);
#14=CONICAL_SURFACE('',#1296,0.0016,0.12786991856);
#15=CONICAL_SURFACE('',#1297,0.0016,0.12786991856);
#16=CONICAL_SURFACE('',#1298,0.0016,0.12786991856);
#17=CONICAL_SURFACE('',#1299,0.0016,0.12786991856);
#18=CIRCLE('',#1259,0.004);
#19=CIRCLE('',#1260,0.004);
#20=CIRCLE('',#1263,0.004);
#21=CIRCLE('',#1264,0.004);
#22=CIRCLE('',#1267,0.004);
#23=CIRCLE('',#1268,0.004);
#24=CIRCLE('',#1271,0.004);
#25=CIRCLE('',#1272,0.004);
#26=CIRCLE('',#1276,0.00185714285714285);
#27=CIRCLE('',#1278,0.00185714285714285);
#28=CIRCLE('',#1280,0.00185714285714285);
#29=CIRCLE('',#1286,0.0025);
#30=CIRCLE('',#1287,0.0025);
#31=CIRCLE('',#1288,0.0025);
#32=CIRCLE('',#1289,0.0025);
#33=CIRCLE('',#1291,0.00185714285714285);
#34=CIRCLE('',#1309,0.004);
#35=CIRCLE('',#1310,0.004);
#36=CIRCLE('',#1313,0.004);
#37=CIRCLE('',#1314,0.004);
#38=CIRCLE('',#1317,0.004);
#39=CIRCLE('',#1318,0.004);
#40=CIRCLE('',#1321,0.004);
#41=CIRCLE('',#1322,0.004);
#42=CIRCLE('',#1327,0.0016);
#43=CIRCLE('',#1329,0.0016);
#44=CIRCLE('',#1331,0.0016);
#45=CIRCLE('',#1337,0.0016);
#46=CIRCLE('',#1339,0.0016);
#47=CIRCLE('',#1340,0.0016);
#48=CIRCLE('',#1342,0.0016);
#49=CIRCLE('',#1344,0.0016);
#50=CYLINDRICAL_SURFACE('',#1258,0.004);
#51=CYLINDRICAL_SURFACE('',#1262,0.004);
#52=CYLINDRICAL_SURFACE('',#1266,0.004);
#53=CYLINDRICAL_SURFACE('',#1270,0.004);
#54=CYLINDRICAL_SURFACE('',#1308,0.004);
#55=CYLINDRICAL_SURFACE('',#1312,0.004);
#56=CYLINDRICAL_SURFACE('',#1316,0.004);
#57=CYLINDRICAL_SURFACE('',#1320,0.004);
#58=CYLINDRICAL_SURFACE('',#1336,0.0016);
#59=CYLINDRICAL_SURFACE('',#1338,0.0016);
#60=CYLINDRICAL_SURFACE('',#1341,0.0016);
#61=CYLINDRICAL_SURFACE('',#1343,0.0016);
#62=ORIENTED_EDGE('',*,*,#390,.T.);
#63=ORIENTED_EDGE('',*,*,#391,.T.);
#64=ORIENTED_EDGE('',*,*,#392,.F.);
#65=ORIENTED_EDGE('',*,*,#393,.F.);
#66=ORIENTED_EDGE('',*,*,#394,.F.);
#67=ORIENTED_EDGE('',*,*,#395,.T.);
#68=ORIENTED_EDGE('',*,*,#396,.T.);
#69=ORIENTED_EDGE('',*,*,#397,.F.);
#70=ORIENTED_EDGE('',*,*,#398,.F.);
#71=ORIENTED_EDGE('',*,*,#399,.F.);
#72=ORIENTED_EDGE('',*,*,#400,.T.);
#73=ORIENTED_EDGE('',*,*,#401,.T.);
#74=ORIENTED_EDGE('',*,*,#402,.F.);
#75=ORIENTED_EDGE('',*,*,#403,.F.);
#76=ORIENTED_EDGE('',*,*,#404,.F.);
#77=ORIENTED_EDGE('',*,*,#405,.T.);
#78=ORIENTED_EDGE('',*,*,#406,.F.);
#79=ORIENTED_EDGE('',*,*,#407,.T.);
#80=ORIENTED_EDGE('',*,*,#408,.T.);
#81=ORIENTED_EDGE('',*,*,#409,.F.);
#82=ORIENTED_EDGE('',*,*,#410,.T.);
#83=ORIENTED_EDGE('',*,*,#411,.T.);
#84=ORIENTED_EDGE('',*,*,#390,.F.);
#85=ORIENTED_EDGE('',*,*,#412,.T.);
#86=ORIENTED_EDGE('',*,*,#413,.T.);
#87=ORIENTED_EDGE('',*,*,#414,.T.);
#88=ORIENTED_EDGE('',*,*,#410,.F.);
#89=ORIENTED_EDGE('',*,*,#415,.T.);
#90=ORIENTED_EDGE('',*,*,#416,.T.);
#91=ORIENTED_EDGE('',*,*,#401,.F.);
#92=ORIENTED_EDGE('',*,*,#417,.F.);
#93=ORIENTED_EDGE('',*,*,#418,.T.);
#94=ORIENTED_EDGE('',*,*,#419,.T.);
#95=ORIENTED_EDGE('',*,*,#420,.F.);
#96=ORIENTED_EDGE('',*,*,#421,.F.);
#97=ORIENTED_EDGE('',*,*,#422,.T.);
#98=ORIENTED_EDGE('',*,*,#423,.T.);
#99=ORIENTED_EDGE('',*,*,#418,.F.);
#100=ORIENTED_EDGE('',*,*,#424,.F.);
#101=ORIENTED_EDGE('',*,*,#425,.T.);
#102=ORIENTED_EDGE('',*,*,#426,.T.);
#103=ORIENTED_EDGE('',*,*,#425,.F.);
#104=ORIENTED_EDGE('',*,*,#427,.F.);
#105=ORIENTED_EDGE('',*,*,#428,.T.);
#106=ORIENTED_EDGE('',*,*,#429,.T.);
#107=ORIENTED_EDGE('',*,*,#430,.F.);
#108=ORIENTED_EDGE('',*,*,#431,.F.);
#109=ORIENTED_EDGE('',*,*,#432,.T.);
#110=ORIENTED_EDGE('',*,*,#433,.T.);
#111=ORIENTED_EDGE('',*,*,#428,.F.);
#112=ORIENTED_EDGE('',*,*,#434,.F.);
#113=ORIENTED_EDGE('',*,*,#435,.T.);
#114=ORIENTED_EDGE('',*,*,#436,.T.);
#115=ORIENTED_EDGE('',*,*,#435,.F.);
#116=ORIENTED_EDGE('',*,*,#437,.F.);
#117=ORIENTED_EDGE('',*,*,#438,.T.);
#118=ORIENTED_EDGE('',*,*,#439,.F.);
#119=ORIENTED_EDGE('',*,*,#438,.F.);
#120=ORIENTED_EDGE('',*,*,#440,.T.);
#121=ORIENTED_EDGE('',*,*,#441,.T.);
#122=ORIENTED_EDGE('',*,*,#442,.F.);
#123=ORIENTED_EDGE('',*,*,#443,.F.);
#124=ORIENTED_EDGE('',*,*,#444,.F.);
#125=ORIENTED_EDGE('',*,*,#445,.T.);
#126=ORIENTED_EDGE('',*,*,#446,.T.);
#127=ORIENTED_EDGE('',*,*,#441,.F.);
#128=ORIENTED_EDGE('',*,*,#447,.F.);
#129=ORIENTED_EDGE('',*,*,#399,.T.);
#130=ORIENTED_EDGE('',*,*,#392,.T.);
#131=ORIENTED_EDGE('',*,*,#448,.T.);
#132=ORIENTED_EDGE('',*,*,#413,.F.);
#133=ORIENTED_EDGE('',*,*,#449,.F.);
#134=ORIENTED_EDGE('',*,*,#417,.T.);
#135=ORIENTED_EDGE('',*,*,#400,.F.);
#136=ORIENTED_EDGE('',*,*,#447,.T.);
#137=ORIENTED_EDGE('',*,*,#440,.F.);
#138=ORIENTED_EDGE('',*,*,#437,.T.);
#139=ORIENTED_EDGE('',*,*,#434,.T.);
#140=ORIENTED_EDGE('',*,*,#427,.T.);
#141=ORIENTED_EDGE('',*,*,#424,.T.);
#142=ORIENTED_EDGE('',*,*,#393,.T.);
#143=ORIENTED_EDGE('',*,*,#449,.T.);
#144=ORIENTED_EDGE('',*,*,#415,.F.);
#145=ORIENTED_EDGE('',*,*,#412,.F.);
#146=ORIENTED_EDGE('',*,*,#450,.T.);
#147=ORIENTED_EDGE('',*,*,#419,.F.);
#148=ORIENTED_EDGE('',*,*,#426,.F.);
#149=ORIENTED_EDGE('',*,*,#433,.F.);
#150=ORIENTED_EDGE('',*,*,#451,.F.);
#151=ORIENTED_EDGE('',*,*,#452,.T.);
#152=ORIENTED_EDGE('',*,*,#453,.F.);
#153=ORIENTED_EDGE('',*,*,#442,.T.);
#154=ORIENTED_EDGE('',*,*,#446,.F.);
#155=ORIENTED_EDGE('',*,*,#398,.T.);
#156=ORIENTED_EDGE('',*,*,#454,.T.);
#157=ORIENTED_EDGE('',*,*,#429,.F.);
#158=ORIENTED_EDGE('',*,*,#436,.F.);
#159=ORIENTED_EDGE('',*,*,#439,.T.);
#160=ORIENTED_EDGE('',*,*,#455,.F.);
#161=ORIENTED_EDGE('',*,*,#455,.T.);
#162=ORIENTED_EDGE('',*,*,#445,.F.);
#163=ORIENTED_EDGE('',*,*,#456,.F.);
#164=ORIENTED_EDGE('',*,*,#430,.T.);
#165=ORIENTED_EDGE('',*,*,#453,.T.);
#166=ORIENTED_EDGE('',*,*,#405,.F.);
#167=ORIENTED_EDGE('',*,*,#457,.F.);
#168=ORIENTED_EDGE('',*,*,#443,.T.);
#169=ORIENTED_EDGE('',*,*,#458,.T.);
#170=ORIENTED_EDGE('',*,*,#422,.F.);
#171=ORIENTED_EDGE('',*,*,#459,.F.);
#172=ORIENTED_EDGE('',*,*,#403,.T.);
#173=ORIENTED_EDGE('',*,*,#451,.T.);
#174=ORIENTED_EDGE('',*,*,#432,.F.);
#175=ORIENTED_EDGE('',*,*,#460,.F.);
#176=ORIENTED_EDGE('',*,*,#420,.T.);
#177=ORIENTED_EDGE('',*,*,#461,.T.);
#178=ORIENTED_EDGE('',*,*,#462,.T.);
#179=ORIENTED_EDGE('',*,*,#463,.T.);
#180=ORIENTED_EDGE('',*,*,#464,.T.);
#181=ORIENTED_EDGE('',*,*,#465,.T.);
#182=ORIENTED_EDGE('',*,*,#466,.T.);
#183=ORIENTED_EDGE('',*,*,#467,.T.);
#184=ORIENTED_EDGE('',*,*,#468,.T.);
#185=ORIENTED_EDGE('',*,*,#456,.T.);
#186=ORIENTED_EDGE('',*,*,#444,.T.);
#187=ORIENTED_EDGE('',*,*,#457,.T.);
#188=ORIENTED_EDGE('',*,*,#404,.T.);
#189=ORIENTED_EDGE('',*,*,#459,.T.);
#190=ORIENTED_EDGE('',*,*,#421,.T.);
#191=ORIENTED_EDGE('',*,*,#460,.T.);
#192=ORIENTED_EDGE('',*,*,#431,.T.);
#193=ORIENTED_EDGE('',*,*,#469,.T.);
#194=ORIENTED_EDGE('',*,*,#423,.F.);
#195=ORIENTED_EDGE('',*,*,#458,.F.);
#196=ORIENTED_EDGE('',*,*,#402,.T.);
#197=ORIENTED_EDGE('',*,*,#416,.F.);
#198=ORIENTED_EDGE('',*,*,#470,.F.);
#199=ORIENTED_EDGE('',*,*,#468,.F.);
#200=ORIENTED_EDGE('',*,*,#471,.F.);
#201=ORIENTED_EDGE('',*,*,#411,.F.);
#202=ORIENTED_EDGE('',*,*,#471,.T.);
#203=ORIENTED_EDGE('',*,*,#467,.F.);
#204=ORIENTED_EDGE('',*,*,#472,.F.);
#205=ORIENTED_EDGE('',*,*,#391,.F.);
#206=ORIENTED_EDGE('',*,*,#470,.T.);
#207=ORIENTED_EDGE('',*,*,#414,.F.);
#208=ORIENTED_EDGE('',*,*,#473,.F.);
#209=ORIENTED_EDGE('',*,*,#465,.F.);
#210=ORIENTED_EDGE('',*,*,#472,.T.);
#211=ORIENTED_EDGE('',*,*,#466,.F.);
#212=ORIENTED_EDGE('',*,*,#473,.T.);
#213=ORIENTED_EDGE('',*,*,#448,.F.);
#214=ORIENTED_EDGE('',*,*,#461,.F.);
#215=ORIENTED_EDGE('',*,*,#454,.F.);
#216=ORIENTED_EDGE('',*,*,#462,.F.);
#217=ORIENTED_EDGE('',*,*,#450,.F.);
#218=ORIENTED_EDGE('',*,*,#463,.F.);
#219=ORIENTED_EDGE('',*,*,#469,.F.);
#220=ORIENTED_EDGE('',*,*,#464,.F.);
#221=ORIENTED_EDGE('',*,*,#452,.F.);
#222=ORIENTED_EDGE('',*,*,#394,.T.);
#223=ORIENTED_EDGE('',*,*,#474,.T.);
#224=ORIENTED_EDGE('',*,*,#407,.F.);
#225=ORIENTED_EDGE('',*,*,#475,.F.);
#226=ORIENTED_EDGE('',*,*,#475,.T.);
#227=ORIENTED_EDGE('',*,*,#406,.T.);
#228=ORIENTED_EDGE('',*,*,#476,.F.);
#229=ORIENTED_EDGE('',*,*,#395,.F.);
#230=ORIENTED_EDGE('',*,*,#476,.T.);
#231=ORIENTED_EDGE('',*,*,#409,.T.);
#232=ORIENTED_EDGE('',*,*,#477,.F.);
#233=ORIENTED_EDGE('',*,*,#396,.F.);
#234=ORIENTED_EDGE('',*,*,#397,.T.);
#235=ORIENTED_EDGE('',*,*,#477,.T.);
#236=ORIENTED_EDGE('',*,*,#408,.F.);
#237=ORIENTED_EDGE('',*,*,#474,.F.);
#238=ORIENTED_EDGE('',*,*,#478,.T.);
#239=ORIENTED_EDGE('',*,*,#479,.T.);
#240=ORIENTED_EDGE('',*,*,#480,.F.);
#241=ORIENTED_EDGE('',*,*,#481,.F.);
#242=ORIENTED_EDGE('',*,*,#482,.T.);
#243=ORIENTED_EDGE('',*,*,#483,.T.);
#244=ORIENTED_EDGE('',*,*,#478,.F.);
#245=ORIENTED_EDGE('',*,*,#484,.T.);
#246=ORIENTED_EDGE('',*,*,#485,.T.);
#247=ORIENTED_EDGE('',*,*,#486,.T.);
#248=ORIENTED_EDGE('',*,*,#482,.F.);
#249=ORIENTED_EDGE('',*,*,#487,.T.);
#250=ORIENTED_EDGE('',*,*,#488,.T.);
#251=ORIENTED_EDGE('',*,*,#489,.F.);
#252=ORIENTED_EDGE('',*,*,#490,.F.);
#253=ORIENTED_EDGE('',*,*,#491,.T.);
#254=ORIENTED_EDGE('',*,*,#492,.T.);
#255=ORIENTED_EDGE('',*,*,#493,.F.);
#256=ORIENTED_EDGE('',*,*,#494,.F.);
#257=ORIENTED_EDGE('',*,*,#495,.T.);
#258=ORIENTED_EDGE('',*,*,#496,.T.);
#259=ORIENTED_EDGE('',*,*,#491,.F.);
#260=ORIENTED_EDGE('',*,*,#497,.F.);
#261=ORIENTED_EDGE('',*,*,#498,.T.);
#262=ORIENTED_EDGE('',*,*,#499,.T.);
#263=ORIENTED_EDGE('',*,*,#498,.F.);
#264=ORIENTED_EDGE('',*,*,#500,.F.);
#265=ORIENTED_EDGE('',*,*,#501,.T.);
#266=ORIENTED_EDGE('',*,*,#502,.T.);
#267=ORIENTED_EDGE('',*,*,#503,.F.);
#268=ORIENTED_EDGE('',*,*,#504,.F.);
#269=ORIENTED_EDGE('',*,*,#505,.T.);
#270=ORIENTED_EDGE('',*,*,#506,.T.);
#271=ORIENTED_EDGE('',*,*,#501,.F.);
#272=ORIENTED_EDGE('',*,*,#507,.F.);
#273=ORIENTED_EDGE('',*,*,#508,.T.);
#274=ORIENTED_EDGE('',*,*,#509,.T.);
#275=ORIENTED_EDGE('',*,*,#508,.F.);
#276=ORIENTED_EDGE('',*,*,#510,.F.);
#277=ORIENTED_EDGE('',*,*,#511,.T.);
#278=ORIENTED_EDGE('',*,*,#512,.F.);
#279=ORIENTED_EDGE('',*,*,#511,.F.);
#280=ORIENTED_EDGE('',*,*,#513,.T.);
#281=ORIENTED_EDGE('',*,*,#514,.T.);
#282=ORIENTED_EDGE('',*,*,#515,.F.);
#283=ORIENTED_EDGE('',*,*,#516,.F.);
#284=ORIENTED_EDGE('',*,*,#517,.F.);
#285=ORIENTED_EDGE('',*,*,#518,.T.);
#286=ORIENTED_EDGE('',*,*,#519,.T.);
#287=ORIENTED_EDGE('',*,*,#514,.F.);
#288=ORIENTED_EDGE('',*,*,#520,.F.);
#289=ORIENTED_EDGE('',*,*,#521,.T.);
#290=ORIENTED_EDGE('',*,*,#522,.F.);
#291=ORIENTED_EDGE('',*,*,#521,.F.);
#292=ORIENTED_EDGE('',*,*,#523,.T.);
#293=ORIENTED_EDGE('',*,*,#489,.T.);
#294=ORIENTED_EDGE('',*,*,#524,.F.);
#295=ORIENTED_EDGE('',*,*,#525,.F.);
#296=ORIENTED_EDGE('',*,*,#526,.F.);
#297=ORIENTED_EDGE('',*,*,#527,.T.);
#298=ORIENTED_EDGE('',*,*,#480,.T.);
#299=ORIENTED_EDGE('',*,*,#528,.T.);
#300=ORIENTED_EDGE('',*,*,#485,.F.);
#301=ORIENTED_EDGE('',*,*,#529,.F.);
#302=ORIENTED_EDGE('',*,*,#490,.T.);
#303=ORIENTED_EDGE('',*,*,#523,.F.);
#304=ORIENTED_EDGE('',*,*,#520,.T.);
#305=ORIENTED_EDGE('',*,*,#513,.F.);
#306=ORIENTED_EDGE('',*,*,#510,.T.);
#307=ORIENTED_EDGE('',*,*,#507,.T.);
#308=ORIENTED_EDGE('',*,*,#500,.T.);
#309=ORIENTED_EDGE('',*,*,#497,.T.);
#310=ORIENTED_EDGE('',*,*,#481,.T.);
#311=ORIENTED_EDGE('',*,*,#529,.T.);
#312=ORIENTED_EDGE('',*,*,#487,.F.);
#313=ORIENTED_EDGE('',*,*,#484,.F.);
#314=ORIENTED_EDGE('',*,*,#492,.F.);
#315=ORIENTED_EDGE('',*,*,#499,.F.);
#316=ORIENTED_EDGE('',*,*,#506,.F.);
#317=ORIENTED_EDGE('',*,*,#530,.F.);
#318=ORIENTED_EDGE('',*,*,#531,.T.);
#319=ORIENTED_EDGE('',*,*,#532,.T.);
#320=ORIENTED_EDGE('',*,*,#533,.F.);
#321=ORIENTED_EDGE('',*,*,#515,.T.);
#322=ORIENTED_EDGE('',*,*,#519,.F.);
#323=ORIENTED_EDGE('',*,*,#522,.T.);
#324=ORIENTED_EDGE('',*,*,#502,.F.);
#325=ORIENTED_EDGE('',*,*,#509,.F.);
#326=ORIENTED_EDGE('',*,*,#512,.T.);
#327=ORIENTED_EDGE('',*,*,#534,.F.);
#328=ORIENTED_EDGE('',*,*,#535,.T.);
#329=ORIENTED_EDGE('',*,*,#534,.T.);
#330=ORIENTED_EDGE('',*,*,#518,.F.);
#331=ORIENTED_EDGE('',*,*,#536,.F.);
#332=ORIENTED_EDGE('',*,*,#503,.T.);
#333=ORIENTED_EDGE('',*,*,#533,.T.);
#334=ORIENTED_EDGE('',*,*,#527,.F.);
#335=ORIENTED_EDGE('',*,*,#537,.F.);
#336=ORIENTED_EDGE('',*,*,#516,.T.);
#337=ORIENTED_EDGE('',*,*,#538,.T.);
#338=ORIENTED_EDGE('',*,*,#495,.F.);
#339=ORIENTED_EDGE('',*,*,#539,.F.);
#340=ORIENTED_EDGE('',*,*,#525,.T.);
#341=ORIENTED_EDGE('',*,*,#530,.T.);
#342=ORIENTED_EDGE('',*,*,#505,.F.);
#343=ORIENTED_EDGE('',*,*,#540,.F.);
#344=ORIENTED_EDGE('',*,*,#493,.T.);
#345=ORIENTED_EDGE('',*,*,#541,.T.);
#346=ORIENTED_EDGE('',*,*,#532,.F.);
#347=ORIENTED_EDGE('',*,*,#542,.T.);
#348=ORIENTED_EDGE('',*,*,#543,.F.);
#349=ORIENTED_EDGE('',*,*,#544,.T.);
#350=ORIENTED_EDGE('',*,*,#531,.F.);
#351=ORIENTED_EDGE('',*,*,#545,.T.);
#352=ORIENTED_EDGE('',*,*,#535,.F.);
#353=ORIENTED_EDGE('',*,*,#546,.T.);
#354=ORIENTED_EDGE('',*,*,#547,.T.);
#355=ORIENTED_EDGE('',*,*,#548,.T.);
#356=ORIENTED_EDGE('',*,*,#549,.T.);
#357=ORIENTED_EDGE('',*,*,#536,.T.);
#358=ORIENTED_EDGE('',*,*,#517,.T.);
#359=ORIENTED_EDGE('',*,*,#537,.T.);
#360=ORIENTED_EDGE('',*,*,#526,.T.);
#361=ORIENTED_EDGE('',*,*,#539,.T.);
#362=ORIENTED_EDGE('',*,*,#494,.T.);
#363=ORIENTED_EDGE('',*,*,#540,.T.);
#364=ORIENTED_EDGE('',*,*,#504,.T.);
#365=ORIENTED_EDGE('',*,*,#545,.F.);
#366=ORIENTED_EDGE('',*,*,#544,.F.);
#367=ORIENTED_EDGE('',*,*,#542,.F.);
#368=ORIENTED_EDGE('',*,*,#541,.F.);
#369=ORIENTED_EDGE('',*,*,#496,.F.);
#370=ORIENTED_EDGE('',*,*,#538,.F.);
#371=ORIENTED_EDGE('',*,*,#524,.T.);
#372=ORIENTED_EDGE('',*,*,#488,.F.);
#373=ORIENTED_EDGE('',*,*,#543,.T.);
#374=ORIENTED_EDGE('',*,*,#550,.F.);
#375=ORIENTED_EDGE('',*,*,#549,.F.);
#376=ORIENTED_EDGE('',*,*,#551,.F.);
#377=ORIENTED_EDGE('',*,*,#483,.F.);
#378=ORIENTED_EDGE('',*,*,#551,.T.);
#379=ORIENTED_EDGE('',*,*,#548,.F.);
#380=ORIENTED_EDGE('',*,*,#552,.F.);
#381=ORIENTED_EDGE('',*,*,#479,.F.);
#382=ORIENTED_EDGE('',*,*,#550,.T.);
#383=ORIENTED_EDGE('',*,*,#486,.F.);
#384=ORIENTED_EDGE('',*,*,#553,.F.);
#385=ORIENTED_EDGE('',*,*,#546,.F.);
#386=ORIENTED_EDGE('',*,*,#552,.T.);
#387=ORIENTED_EDGE('',*,*,#547,.F.);
#388=ORIENTED_EDGE('',*,*,#553,.T.);
#389=ORIENTED_EDGE('',*,*,#528,.F.);
#390=EDGE_CURVE('',#554,#555,#666,.T.);
#391=EDGE_CURVE('',#555,#556,#667,.T.);
#392=EDGE_CURVE('',#557,#556,#668,.T.);
#393=EDGE_CURVE('',#554,#557,#669,.T.);
#394=EDGE_CURVE('',#558,#559,#670,.T.);
#395=EDGE_CURVE('',#558,#560,#671,.T.);
#396=EDGE_CURVE('',#560,#561,#672,.T.);
#397=EDGE_CURVE('',#559,#561,#673,.T.);
#398=EDGE_CURVE('',#562,#563,#674,.T.);
#399=EDGE_CURVE('',#564,#562,#675,.T.);
#400=EDGE_CURVE('',#564,#565,#676,.T.);
#401=EDGE_CURVE('',#565,#566,#677,.T.);
#402=EDGE_CURVE('',#567,#566,#678,.T.);
#403=EDGE_CURVE('',#568,#567,#679,.T.);
#404=EDGE_CURVE('',#569,#568,#680,.T.);
#405=EDGE_CURVE('',#569,#563,#681,.T.);
#406=EDGE_CURVE('',#570,#571,#682,.T.);
#407=EDGE_CURVE('',#570,#572,#683,.T.);
#408=EDGE_CURVE('',#572,#573,#684,.T.);
#409=EDGE_CURVE('',#571,#573,#685,.T.);
#410=EDGE_CURVE('',#574,#575,#686,.T.);
#411=EDGE_CURVE('',#575,#555,#687,.T.);
#412=EDGE_CURVE('',#554,#574,#688,.T.);
#413=EDGE_CURVE('',#576,#577,#689,.T.);
#414=EDGE_CURVE('',#577,#575,#690,.T.);
#415=EDGE_CURVE('',#574,#576,#691,.T.);
#416=EDGE_CURVE('',#578,#566,#18,.T.);
#417=EDGE_CURVE('',#579,#565,#19,.T.);
#418=EDGE_CURVE('',#579,#578,#692,.T.);
#419=EDGE_CURVE('',#580,#581,#693,.T.);
#420=EDGE_CURVE('',#582,#581,#694,.T.);
#421=EDGE_CURVE('',#583,#582,#695,.T.);
#422=EDGE_CURVE('',#583,#584,#696,.T.);
#423=EDGE_CURVE('',#584,#578,#697,.T.);
#424=EDGE_CURVE('',#585,#579,#698,.T.);
#425=EDGE_CURVE('',#585,#580,#699,.T.);
#426=EDGE_CURVE('',#586,#580,#20,.T.);
#427=EDGE_CURVE('',#587,#585,#21,.T.);
#428=EDGE_CURVE('',#587,#586,#700,.T.);
#429=EDGE_CURVE('',#588,#589,#701,.T.);
#430=EDGE_CURVE('',#590,#589,#702,.T.);
#431=EDGE_CURVE('',#591,#590,#703,.T.);
#432=EDGE_CURVE('',#591,#592,#704,.T.);
#433=EDGE_CURVE('',#592,#586,#705,.T.);
#434=EDGE_CURVE('',#593,#587,#706,.T.);
#435=EDGE_CURVE('',#593,#588,#707,.T.);
#436=EDGE_CURVE('',#594,#588,#22,.T.);
#437=EDGE_CURVE('',#595,#593,#23,.T.);
#438=EDGE_CURVE('',#595,#594,#708,.T.);
#439=EDGE_CURVE('',#594,#596,#709,.T.);
#440=EDGE_CURVE('',#595,#597,#710,.T.);
#441=EDGE_CURVE('',#597,#598,#711,.T.);
#442=EDGE_CURVE('',#599,#598,#712,.T.);
#443=EDGE_CURVE('',#600,#599,#713,.T.);
#444=EDGE_CURVE('',#601,#600,#714,.T.);
#445=EDGE_CURVE('',#601,#596,#715,.T.);
#446=EDGE_CURVE('',#562,#598,#24,.T.);
#447=EDGE_CURVE('',#564,#597,#25,.T.);
#448=EDGE_CURVE('',#556,#577,#716,.T.);
#449=EDGE_CURVE('',#557,#576,#717,.T.);
#450=EDGE_CURVE('',#602,#602,#26,.T.);
#451=EDGE_CURVE('',#581,#592,#718,.T.);
#452=EDGE_CURVE('',#603,#603,#27,.T.);
#453=EDGE_CURVE('',#599,#563,#719,.T.);
#454=EDGE_CURVE('',#604,#604,#28,.T.);
#455=EDGE_CURVE('',#589,#596,#720,.T.);
#456=EDGE_CURVE('',#590,#601,#721,.T.);
#457=EDGE_CURVE('',#600,#569,#722,.T.);
#458=EDGE_CURVE('',#567,#584,#723,.T.);
#459=EDGE_CURVE('',#568,#583,#724,.T.);
#460=EDGE_CURVE('',#582,#591,#725,.T.);
#461=EDGE_CURVE('',#605,#605,#29,.F.);
#462=EDGE_CURVE('',#606,#606,#30,.F.);
#463=EDGE_CURVE('',#607,#607,#31,.F.);
#464=EDGE_CURVE('',#608,#608,#32,.F.);
#465=EDGE_CURVE('',#609,#610,#726,.T.);
#466=EDGE_CURVE('',#610,#611,#727,.T.);
#467=EDGE_CURVE('',#611,#612,#728,.T.);
#468=EDGE_CURVE('',#612,#609,#729,.T.);
#469=EDGE_CURVE('',#613,#613,#33,.T.);
#470=EDGE_CURVE('',#609,#575,#730,.T.);
#471=EDGE_CURVE('',#555,#612,#731,.T.);
#472=EDGE_CURVE('',#556,#611,#732,.F.);
#473=EDGE_CURVE('',#610,#577,#733,.T.);
#474=EDGE_CURVE('',#559,#572,#734,.T.);
#475=EDGE_CURVE('',#558,#570,#735,.T.);
#476=EDGE_CURVE('',#560,#571,#736,.T.);
#477=EDGE_CURVE('',#561,#573,#737,.T.);
#478=EDGE_CURVE('',#614,#615,#738,.T.);
#479=EDGE_CURVE('',#615,#616,#739,.T.);
#480=EDGE_CURVE('',#617,#616,#740,.T.);
#481=EDGE_CURVE('',#614,#617,#741,.T.);
#482=EDGE_CURVE('',#618,#619,#742,.T.);
#483=EDGE_CURVE('',#619,#615,#743,.T.);
#484=EDGE_CURVE('',#614,#618,#744,.T.);
#485=EDGE_CURVE('',#620,#621,#745,.T.);
#486=EDGE_CURVE('',#621,#619,#746,.T.);
#487=EDGE_CURVE('',#618,#620,#747,.T.);
#488=EDGE_CURVE('',#622,#623,#34,.T.);
#489=EDGE_CURVE('',#624,#623,#748,.T.);
#490=EDGE_CURVE('',#625,#624,#35,.T.);
#491=EDGE_CURVE('',#625,#622,#749,.T.);
#492=EDGE_CURVE('',#626,#627,#750,.T.);
#493=EDGE_CURVE('',#628,#627,#751,.T.);
#494=EDGE_CURVE('',#629,#628,#752,.T.);
#495=EDGE_CURVE('',#629,#630,#753,.T.);
#496=EDGE_CURVE('',#630,#622,#754,.T.);
#497=EDGE_CURVE('',#631,#625,#755,.T.);
#498=EDGE_CURVE('',#631,#626,#756,.T.);
#499=EDGE_CURVE('',#632,#626,#36,.T.);
#500=EDGE_CURVE('',#633,#631,#37,.T.);
#501=EDGE_CURVE('',#633,#632,#757,.T.);
#502=EDGE_CURVE('',#634,#635,#758,.T.);
#503=EDGE_CURVE('',#636,#635,#759,.T.);
#504=EDGE_CURVE('',#637,#636,#760,.T.);
#505=EDGE_CURVE('',#637,#638,#761,.T.);
#506=EDGE_CURVE('',#638,#632,#762,.T.);
#507=EDGE_CURVE('',#639,#633,#763,.T.);
#508=EDGE_CURVE('',#639,#634,#764,.T.);
#509=EDGE_CURVE('',#640,#634,#38,.T.);
#510=EDGE_CURVE('',#641,#639,#39,.T.);
#511=EDGE_CURVE('',#641,#640,#765,.T.);
#512=EDGE_CURVE('',#640,#642,#766,.T.);
#513=EDGE_CURVE('',#641,#643,#767,.T.);
#514=EDGE_CURVE('',#643,#644,#768,.T.);
#515=EDGE_CURVE('',#645,#644,#769,.T.);
#516=EDGE_CURVE('',#646,#645,#770,.T.);
#517=EDGE_CURVE('',#647,#646,#771,.T.);
#518=EDGE_CURVE('',#647,#642,#772,.T.);
#519=EDGE_CURVE('',#648,#644,#40,.T.);
#520=EDGE_CURVE('',#649,#643,#41,.T.);
#521=EDGE_CURVE('',#649,#648,#773,.T.);
#522=EDGE_CURVE('',#648,#650,#774,.T.);
#523=EDGE_CURVE('',#649,#624,#775,.T.);
#524=EDGE_CURVE('',#651,#623,#776,.T.);
#525=EDGE_CURVE('',#652,#651,#777,.T.);
#526=EDGE_CURVE('',#653,#652,#778,.T.);
#527=EDGE_CURVE('',#653,#650,#779,.T.);
#528=EDGE_CURVE('',#616,#621,#780,.T.);
#529=EDGE_CURVE('',#617,#620,#781,.T.);
#530=EDGE_CURVE('',#627,#638,#782,.T.);
#531=EDGE_CURVE('',#654,#654,#42,.T.);
#532=EDGE_CURVE('',#655,#655,#43,.T.);
#533=EDGE_CURVE('',#645,#650,#783,.T.);
#534=EDGE_CURVE('',#635,#642,#784,.T.);
#535=EDGE_CURVE('',#656,#656,#44,.T.);
#536=EDGE_CURVE('',#636,#647,#785,.T.);
#537=EDGE_CURVE('',#646,#653,#786,.T.);
#538=EDGE_CURVE('',#651,#630,#787,.T.);
#539=EDGE_CURVE('',#652,#629,#788,.T.);
#540=EDGE_CURVE('',#628,#637,#789,.T.);
#541=EDGE_CURVE('',#657,#657,#45,.T.);
#542=EDGE_CURVE('',#658,#658,#46,.T.);
#543=EDGE_CURVE('',#659,#659,#47,.T.);
#544=EDGE_CURVE('',#660,#660,#48,.T.);
#545=EDGE_CURVE('',#661,#661,#49,.T.);
#546=EDGE_CURVE('',#662,#663,#790,.T.);
#547=EDGE_CURVE('',#663,#664,#791,.T.);
#548=EDGE_CURVE('',#664,#665,#792,.T.);
#549=EDGE_CURVE('',#665,#662,#793,.T.);
#550=EDGE_CURVE('',#662,#619,#794,.T.);
#551=EDGE_CURVE('',#615,#665,#795,.T.);
#552=EDGE_CURVE('',#616,#664,#796,.F.);
#553=EDGE_CURVE('',#663,#621,#797,.T.);
#554=VERTEX_POINT('',#1682);
#555=VERTEX_POINT('',#1683);
#556=VERTEX_POINT('',#1685);
#557=VERTEX_POINT('',#1687);
#558=VERTEX_POINT('',#1690);
#559=VERTEX_POINT('',#1691);
#560=VERTEX_POINT('',#1693);
#561=VERTEX_POINT('',#1695);
#562=VERTEX_POINT('',#1699);
#563=VERTEX_POINT('',#1700);
#564=VERTEX_POINT('',#1702);
#565=VERTEX_POINT('',#1704);
#566=VERTEX_POINT('',#1706);
#567=VERTEX_POINT('',#1708);
#568=VERTEX_POINT('',#1710);
#569=VERTEX_POINT('',#1712);
#570=VERTEX_POINT('',#1715);
#571=VERTEX_POINT('',#1716);
#572=VERTEX_POINT('',#1718);
#573=VERTEX_POINT('',#1720);
#574=VERTEX_POINT('',#1724);
#575=VERTEX_POINT('',#1725);
#576=VERTEX_POINT('',#1730);
#577=VERTEX_POINT('',#1731);
#578=VERTEX_POINT('',#1736);
#579=VERTEX_POINT('',#1738);
#580=VERTEX_POINT('',#1742);
#581=VERTEX_POINT('',#1743);
#582=VERTEX_POINT('',#1745);
#583=VERTEX_POINT('',#1747);
#584=VERTEX_POINT('',#1749);
#585=VERTEX_POINT('',#1752);
#586=VERTEX_POINT('',#1756);
#587=VERTEX_POINT('',#1758);
#588=VERTEX_POINT('',#1762);
#589=VERTEX_POINT('',#1763);
#590=VERTEX_POINT('',#1765);
#591=VERTEX_POINT('',#1767);
#592=VERTEX_POINT('',#1769);
#593=VERTEX_POINT('',#1772);
#594=VERTEX_POINT('',#1776);
#595=VERTEX_POINT('',#1778);
#596=VERTEX_POINT('',#1782);
#597=VERTEX_POINT('',#1784);
#598=VERTEX_POINT('',#1786);
#599=VERTEX_POINT('',#1788);
#600=VERTEX_POINT('',#1790);
#601=VERTEX_POINT('',#1792);
#602=VERTEX_POINT('',#1803);
#603=VERTEX_POINT('',#1807);
#604=VERTEX_POINT('',#1811);
#605=VERTEX_POINT('',#1824);
#606=VERTEX_POINT('',#1826);
#607=VERTEX_POINT('',#1828);
#608=VERTEX_POINT('',#1830);
#609=VERTEX_POINT('',#1832);
#610=VERTEX_POINT('',#1833);
#611=VERTEX_POINT('',#1835);
#612=VERTEX_POINT('',#1837);
#613=VERTEX_POINT('',#1841);
#614=VERTEX_POINT('',#1865);
#615=VERTEX_POINT('',#1866);
#616=VERTEX_POINT('',#1868);
#617=VERTEX_POINT('',#1870);
#618=VERTEX_POINT('',#1874);
#619=VERTEX_POINT('',#1875);
#620=VERTEX_POINT('',#1880);
#621=VERTEX_POINT('',#1881);
#622=VERTEX_POINT('',#1886);
#623=VERTEX_POINT('',#1887);
#624=VERTEX_POINT('',#1889);
#625=VERTEX_POINT('',#1891);
#626=VERTEX_POINT('',#1895);
#627=VERTEX_POINT('',#1896);
#628=VERTEX_POINT('',#1898);
#629=VERTEX_POINT('',#1900);
#630=VERTEX_POINT('',#1902);
#631=VERTEX_POINT('',#1905);
#632=VERTEX_POINT('',#1909);
#633=VERTEX_POINT('',#1911);
#634=VERTEX_POINT('',#1915);
#635=VERTEX_POINT('',#1916);
#636=VERTEX_POINT('',#1918);
#637=VERTEX_POINT('',#1920);
#638=VERTEX_POINT('',#1922);
#639=VERTEX_POINT('',#1925);
#640=VERTEX_POINT('',#1929);
#641=VERTEX_POINT('',#1931);
#642=VERTEX_POINT('',#1935);
#643=VERTEX_POINT('',#1937);
#644=VERTEX_POINT('',#1939);
#645=VERTEX_POINT('',#1941);
#646=VERTEX_POINT('',#1943);
#647=VERTEX_POINT('',#1945);
#648=VERTEX_POINT('',#1949);
#649=VERTEX_POINT('',#1951);
#650=VERTEX_POINT('',#1955);
#651=VERTEX_POINT('',#1958);
#652=VERTEX_POINT('',#1960);
#653=VERTEX_POINT('',#1962);
#654=VERTEX_POINT('',#1971);
#655=VERTEX_POINT('',#1974);
#656=VERTEX_POINT('',#1979);
#657=VERTEX_POINT('',#1991);
#658=VERTEX_POINT('',#1994);
#659=VERTEX_POINT('',#1996);
#660=VERTEX_POINT('',#1999);
#661=VERTEX_POINT('',#2002);
#662=VERTEX_POINT('',#2005);
#663=VERTEX_POINT('',#2006);
#664=VERTEX_POINT('',#2008);
#665=VERTEX_POINT('',#2010);
#666=LINE('',#1681,#798);
#667=LINE('',#1684,#799);
#668=LINE('',#1686,#800);
#669=LINE('',#1688,#801);
#670=LINE('',#1689,#802);
#671=LINE('',#1692,#803);
#672=LINE('',#1694,#804);
#673=LINE('',#1696,#805);
#674=LINE('',#1698,#806);
#675=LINE('',#1701,#807);
#676=LINE('',#1703,#808);
#677=LINE('',#1705,#809);
#678=LINE('',#1707,#810);
#679=LINE('',#1709,#811);
#680=LINE('',#1711,#812);
#681=LINE('',#1713,#813);
#682=LINE('',#1714,#814);
#683=LINE('',#1717,#815);
#684=LINE('',#1719,#816);
#685=LINE('',#1721,#817);
#686=LINE('',#1723,#818);
#687=LINE('',#1726,#819);
#688=LINE('',#1727,#820);
#689=LINE('',#1729,#821);
#690=LINE('',#1732,#822);
#691=LINE('',#1733,#823);
#692=LINE('',#1739,#824);
#693=LINE('',#1741,#825);
#694=LINE('',#1744,#826);
#695=LINE('',#1746,#827);
#696=LINE('',#1748,#828);
#697=LINE('',#1750,#829);
#698=LINE('',#1751,#830);
#699=LINE('',#1753,#831);
#700=LINE('',#1759,#832);
#701=LINE('',#1761,#833);
#702=LINE('',#1764,#834);
#703=LINE('',#1766,#835);
#704=LINE('',#1768,#836);
#705=LINE('',#1770,#837);
#706=LINE('',#1771,#838);
#707=LINE('',#1773,#839);
#708=LINE('',#1779,#840);
#709=LINE('',#1781,#841);
#710=LINE('',#1783,#842);
#711=LINE('',#1785,#843);
#712=LINE('',#1787,#844);
#713=LINE('',#1789,#845);
#714=LINE('',#1791,#846);
#715=LINE('',#1793,#847);
#716=LINE('',#1798,#848);
#717=LINE('',#1799,#849);
#718=LINE('',#1804,#850);
#719=LINE('',#1808,#851);
#720=LINE('',#1812,#852);
#721=LINE('',#1814,#853);
#722=LINE('',#1816,#854);
#723=LINE('',#1818,#855);
#724=LINE('',#1819,#856);
#725=LINE('',#1821,#857);
#726=LINE('',#1831,#858);
#727=LINE('',#1834,#859);
#728=LINE('',#1836,#860);
#729=LINE('',#1838,#861);
#730=LINE('',#1843,#862);
#731=LINE('',#1844,#863);
#732=LINE('',#1846,#864);
#733=LINE('',#1848,#865);
#734=LINE('',#1855,#866);
#735=LINE('',#1856,#867);
#736=LINE('',#1858,#868);
#737=LINE('',#1860,#869);
#738=LINE('',#1864,#870);
#739=LINE('',#1867,#871);
#740=LINE('',#1869,#872);
#741=LINE('',#1871,#873);
#742=LINE('',#1873,#874);
#743=LINE('',#1876,#875);
#744=LINE('',#1877,#876);
#745=LINE('',#1879,#877);
#746=LINE('',#1882,#878);
#747=LINE('',#1883,#879);
#748=LINE('',#1888,#880);
#749=LINE('',#1892,#881);
#750=LINE('',#1894,#882);
#751=LINE('',#1897,#883);
#752=LINE('',#1899,#884);
#753=LINE('',#1901,#885);
#754=LINE('',#1903,#886);
#755=LINE('',#1904,#887);
#756=LINE('',#1906,#888);
#757=LINE('',#1912,#889);
#758=LINE('',#1914,#890);
#759=LINE('',#1917,#891);
#760=LINE('',#1919,#892);
#761=LINE('',#1921,#893);
#762=LINE('',#1923,#894);
#763=LINE('',#1924,#895);
#764=LINE('',#1926,#896);
#765=LINE('',#1932,#897);
#766=LINE('',#1934,#898);
#767=LINE('',#1936,#899);
#768=LINE('',#1938,#900);
#769=LINE('',#1940,#901);
#770=LINE('',#1942,#902);
#771=LINE('',#1944,#903);
#772=LINE('',#1946,#904);
#773=LINE('',#1952,#905);
#774=LINE('',#1954,#906);
#775=LINE('',#1956,#907);
#776=LINE('',#1957,#908);
#777=LINE('',#1959,#909);
#778=LINE('',#1961,#910);
#779=LINE('',#1963,#911);
#780=LINE('',#1965,#912);
#781=LINE('',#1966,#913);
#782=LINE('',#1969,#914);
#783=LINE('',#1975,#915);
#784=LINE('',#1977,#916);
#785=LINE('',#1981,#917);
#786=LINE('',#1983,#918);
#787=LINE('',#1985,#919);
#788=LINE('',#1986,#920);
#789=LINE('',#1988,#921);
#790=LINE('',#2004,#922);
#791=LINE('',#2007,#923);
#792=LINE('',#2009,#924);
#793=LINE('',#2011,#925);
#794=LINE('',#2014,#926);
#795=LINE('',#2015,#927);
#796=LINE('',#2017,#928);
#797=LINE('',#2019,#929);
#798=VECTOR('',#1355,1.);
#799=VECTOR('',#1356,1.);
#800=VECTOR('',#1357,1.);
#801=VECTOR('',#1358,1.);
#802=VECTOR('',#1359,1.);
#803=VECTOR('',#1360,1.);
#804=VECTOR('',#1361,1.);
#805=VECTOR('',#1362,1.);
#806=VECTOR('',#1365,1.);
#807=VECTOR('',#1366,1.);
#808=VECTOR('',#1367,1.);
#809=VECTOR('',#1368,1.);
#810=VECTOR('',#1369,1.);
#811=VECTOR('',#1370,1.);
#812=VECTOR('',#1371,1.);
#813=VECTOR('',#1372,1.);
#814=VECTOR('',#1373,1.);
#815=VECTOR('',#1374,1.);
#816=VECTOR('',#1375,1.);
#817=VECTOR('',#1376,1.);
#818=VECTOR('',#1379,1.);
#819=VECTOR('',#1380,1.);
#820=VECTOR('',#1381,1.);
#821=VECTOR('',#1384,1.);
#822=VECTOR('',#1385,1.);
#823=VECTOR('',#1386,1.);
#824=VECTOR('',#1393,1.);
#825=VECTOR('',#1396,1.);
#826=VECTOR('',#1397,1.);
#827=VECTOR('',#1398,1.);
#828=VECTOR('',#1399,1.);
#829=VECTOR('',#1400,1.);
#830=VECTOR('',#1401,1.);
#831=VECTOR('',#1402,1.);
#832=VECTOR('',#1409,1.);
#833=VECTOR('',#1412,1.);
#834=VECTOR('',#1413,1.);
#835=VECTOR('',#1414,1.);
#836=VECTOR('',#1415,1.);
#837=VECTOR('',#1416,1.);
#838=VECTOR('',#1417,1.);
#839=VECTOR('',#1418,1.);
#840=VECTOR('',#1425,1.);
#841=VECTOR('',#1428,1.);
#842=VECTOR('',#1429,1.);
#843=VECTOR('',#1430,1.);
#844=VECTOR('',#1431,1.);
#845=VECTOR('',#1432,1.);
#846=VECTOR('',#1433,1.);
#847=VECTOR('',#1434,1.);
#848=VECTOR('',#1443,1.);
#849=VECTOR('',#1444,1.);
#850=VECTOR('',#1451,1.);
#851=VECTOR('',#1456,1.);
#852=VECTOR('',#1461,1.);
#853=VECTOR('',#1464,1.);
#854=VECTOR('',#1467,1.);
#855=VECTOR('',#1470,1.);
#856=VECTOR('',#1471,1.);
#857=VECTOR('',#1474,1.);
#858=VECTOR('',#1485,1.);
#859=VECTOR('',#1486,1.);
#860=VECTOR('',#1487,1.);
#861=VECTOR('',#1488,1.);
#862=VECTOR('',#1495,1.);
#863=VECTOR('',#1496,1.);
#864=VECTOR('',#1499,1.);
#865=VECTOR('',#1502,1.);
#866=VECTOR('',#1515,1.);
#867=VECTOR('',#1516,1.);
#868=VECTOR('',#1519,1.);
#869=VECTOR('',#1522,1.);
#870=VECTOR('',#1529,1.);
#871=VECTOR('',#1530,1.);
#872=VECTOR('',#1531,1.);
#873=VECTOR('',#1532,1.);
#874=VECTOR('',#1535,1.);
#875=VECTOR('',#1536,1.);
#876=VECTOR('',#1537,1.);
#877=VECTOR('',#1540,1.);
#878=VECTOR('',#1541,1.);
#879=VECTOR('',#1542,1.);
#880=VECTOR('',#1547,1.);
#881=VECTOR('',#1550,1.);
#882=VECTOR('',#1553,1.);
#883=VECTOR('',#1554,1.);
#884=VECTOR('',#1555,1.);
#885=VECTOR('',#1556,1.);
#886=VECTOR('',#1557,1.);
#887=VECTOR('',#1558,1.);
#888=VECTOR('',#1559,1.);
#889=VECTOR('',#1566,1.);
#890=VECTOR('',#1569,1.);
#891=VECTOR('',#1570,1.);
#892=VECTOR('',#1571,1.);
#893=VECTOR('',#1572,1.);
#894=VECTOR('',#1573,1.);
#895=VECTOR('',#1574,1.);
#896=VECTOR('',#1575,1.);
#897=VECTOR('',#1582,1.);
#898=VECTOR('',#1585,1.);
#899=VECTOR('',#1586,1.);
#900=VECTOR('',#1587,1.);
#901=VECTOR('',#1588,1.);
#902=VECTOR('',#1589,1.);
#903=VECTOR('',#1590,1.);
#904=VECTOR('',#1591,1.);
#905=VECTOR('',#1598,1.);
#906=VECTOR('',#1601,1.);
#907=VECTOR('',#1602,1.);
#908=VECTOR('',#1603,1.);
#909=VECTOR('',#1604,1.);
#910=VECTOR('',#1605,1.);
#911=VECTOR('',#1606,1.);
#912=VECTOR('',#1609,1.);
#913=VECTOR('',#1610,1.);
#914=VECTOR('',#1615,1.);
#915=VECTOR('',#1622,1.);
#916=VECTOR('',#1625,1.);
#917=VECTOR('',#1630,1.);
#918=VECTOR('',#1633,1.);
#919=VECTOR('',#1636,1.);
#920=VECTOR('',#1637,1.);
#921=VECTOR('',#1640,1.);
#922=VECTOR('',#1661,1.);
#923=VECTOR('',#1662,1.);
#924=VECTOR('',#1663,1.);
#925=VECTOR('',#1664,1.);
#926=VECTOR('',#1669,1.);
#927=VECTOR('',#1670,1.);
#928=VECTOR('',#1673,1.);
#929=VECTOR('',#1676,1.);
#930=EDGE_LOOP('',(#62,#63,#64,#65));
#931=EDGE_LOOP('',(#66,#67,#68,#69));
#932=EDGE_LOOP('',(#70,#71,#72,#73,#74,#75,#76,#77));
#933=EDGE_LOOP('',(#78,#79,#80,#81));
#934=EDGE_LOOP('',(#82,#83,#84,#85));
#935=EDGE_LOOP('',(#86,#87,#88,#89));
#936=EDGE_LOOP('',(#90,#91,#92,#93));
#937=EDGE_LOOP('',(#94,#95,#96,#97,#98,#99,#100,#101));
#938=EDGE_LOOP('',(#102,#103,#104,#105));
#939=EDGE_LOOP('',(#106,#107,#108,#109,#110,#111,#112,#113));
#940=EDGE_LOOP('',(#114,#115,#116,#117));
#941=EDGE_LOOP('',(#118,#119,#120,#121,#122,#123,#124,#125));
#942=EDGE_LOOP('',(#126,#127,#128,#129));
#943=EDGE_LOOP('',(#130,#131,#132,#133));
#944=EDGE_LOOP('',(#134,#135,#136,#137,#138,#139,#140,#141));
#945=EDGE_LOOP('',(#142,#143,#144,#145));
#946=EDGE_LOOP('',(#146));
#947=EDGE_LOOP('',(#147,#148,#149,#150));
#948=EDGE_LOOP('',(#151));
#949=EDGE_LOOP('',(#152,#153,#154,#155));
#950=EDGE_LOOP('',(#156));
#951=EDGE_LOOP('',(#157,#158,#159,#160));
#952=EDGE_LOOP('',(#161,#162,#163,#164));
#953=EDGE_LOOP('',(#165,#166,#167,#168));
#954=EDGE_LOOP('',(#169,#170,#171,#172));
#955=EDGE_LOOP('',(#173,#174,#175,#176));
#956=EDGE_LOOP('',(#177));
#957=EDGE_LOOP('',(#178));
#958=EDGE_LOOP('',(#179));
#959=EDGE_LOOP('',(#180));
#960=EDGE_LOOP('',(#181,#182,#183,#184));
#961=EDGE_LOOP('',(#185,#186,#187,#188,#189,#190,#191,#192));
#962=EDGE_LOOP('',(#193));
#963=EDGE_LOOP('',(#194,#195,#196,#197));
#964=EDGE_LOOP('',(#198,#199,#200,#201));
#965=EDGE_LOOP('',(#202,#203,#204,#205));
#966=EDGE_LOOP('',(#206,#207,#208,#209));
#967=EDGE_LOOP('',(#210,#211,#212,#213));
#968=EDGE_LOOP('',(#214));
#969=EDGE_LOOP('',(#215));
#970=EDGE_LOOP('',(#216));
#971=EDGE_LOOP('',(#217));
#972=EDGE_LOOP('',(#218));
#973=EDGE_LOOP('',(#219));
#974=EDGE_LOOP('',(#220));
#975=EDGE_LOOP('',(#221));
#976=EDGE_LOOP('',(#222,#223,#224,#225));
#977=EDGE_LOOP('',(#226,#227,#228,#229));
#978=EDGE_LOOP('',(#230,#231,#232,#233));
#979=EDGE_LOOP('',(#234,#235,#236,#237));
#980=EDGE_LOOP('',(#238,#239,#240,#241));
#981=EDGE_LOOP('',(#242,#243,#244,#245));
#982=EDGE_LOOP('',(#246,#247,#248,#249));
#983=EDGE_LOOP('',(#250,#251,#252,#253));
#984=EDGE_LOOP('',(#254,#255,#256,#257,#258,#259,#260,#261));
#985=EDGE_LOOP('',(#262,#263,#264,#265));
#986=EDGE_LOOP('',(#266,#267,#268,#269,#270,#271,#272,#273));
#987=EDGE_LOOP('',(#274,#275,#276,#277));
#988=EDGE_LOOP('',(#278,#279,#280,#281,#282,#283,#284,#285));
#989=EDGE_LOOP('',(#286,#287,#288,#289));
#990=EDGE_LOOP('',(#290,#291,#292,#293,#294,#295,#296,#297));
#991=EDGE_LOOP('',(#298,#299,#300,#301));
#992=EDGE_LOOP('',(#302,#303,#304,#305,#306,#307,#308,#309));
#993=EDGE_LOOP('',(#310,#311,#312,#313));
#994=EDGE_LOOP('',(#314,#315,#316,#317));
#995=EDGE_LOOP('',(#318));
#996=EDGE_LOOP('',(#319));
#997=EDGE_LOOP('',(#320,#321,#322,#323));
#998=EDGE_LOOP('',(#324,#325,#326,#327));
#999=EDGE_LOOP('',(#328));
#1000=EDGE_LOOP('',(#329,#330,#331,#332));
#1001=EDGE_LOOP('',(#333,#334,#335,#336));
#1002=EDGE_LOOP('',(#337,#338,#339,#340));
#1003=EDGE_LOOP('',(#341,#342,#343,#344));
#1004=EDGE_LOOP('',(#345));
#1005=EDGE_LOOP('',(#346));
#1006=EDGE_LOOP('',(#347));
#1007=EDGE_LOOP('',(#348));
#1008=EDGE_LOOP('',(#349));
#1009=EDGE_LOOP('',(#350));
#1010=EDGE_LOOP('',(#351));
#1011=EDGE_LOOP('',(#352));
#1012=EDGE_LOOP('',(#353,#354,#355,#356));
#1013=EDGE_LOOP('',(#357,#358,#359,#360,#361,#362,#363,#364));
#1014=EDGE_LOOP('',(#365));
#1015=EDGE_LOOP('',(#366));
#1016=EDGE_LOOP('',(#367));
#1017=EDGE_LOOP('',(#368));
#1018=EDGE_LOOP('',(#369,#370,#371,#372));
#1019=EDGE_LOOP('',(#373));
#1020=EDGE_LOOP('',(#374,#375,#376,#377));
#1021=EDGE_LOOP('',(#378,#379,#380,#381));
#1022=EDGE_LOOP('',(#382,#383,#384,#385));
#1023=EDGE_LOOP('',(#386,#387,#388,#389));
#1024=FACE_BOUND('',#930,.T.);
#1025=FACE_BOUND('',#931,.T.);
#1026=FACE_BOUND('',#932,.T.);
#1027=FACE_BOUND('',#933,.T.);
#1028=FACE_BOUND('',#934,.T.);
#1029=FACE_BOUND('',#935,.T.);
#1030=FACE_BOUND('',#936,.T.);
#1031=FACE_BOUND('',#937,.T.);
#1032=FACE_BOUND('',#938,.T.);
#1033=FACE_BOUND('',#939,.T.);
#1034=FACE_BOUND('',#940,.T.);
#1035=FACE_BOUND('',#941,.T.);
#1036=FACE_BOUND('',#942,.T.);
#1037=FACE_BOUND('',#943,.T.);
#1038=FACE_BOUND('',#944,.T.);
#1039=FACE_BOUND('',#945,.T.);
#1040=FACE_BOUND('',#946,.T.);
#1041=FACE_BOUND('',#947,.T.);
#1042=FACE_BOUND('',#948,.T.);
#1043=FACE_BOUND('',#949,.T.);
#1044=FACE_BOUND('',#950,.T.);
#1045=FACE_BOUND('',#951,.T.);
#1046=FACE_BOUND('',#952,.T.);
#1047=FACE_BOUND('',#953,.T.);
#1048=FACE_BOUND('',#954,.T.);
#1049=FACE_BOUND('',#955,.T.);
#1050=FACE_BOUND('',#956,.T.);
#1051=FACE_BOUND('',#957,.T.);
#1052=FACE_BOUND('',#958,.T.);
#1053=FACE_BOUND('',#959,.T.);
#1054=FACE_BOUND('',#960,.T.);
#1055=FACE_BOUND('',#961,.T.);
#1056=FACE_BOUND('',#962,.T.);
#1057=FACE_BOUND('',#963,.T.);
#1058=FACE_BOUND('',#964,.T.);
#1059=FACE_BOUND('',#965,.T.);
#1060=FACE_BOUND('',#966,.T.);
#1061=FACE_BOUND('',#967,.T.);
#1062=FACE_BOUND('',#968,.T.);
#1063=FACE_BOUND('',#969,.T.);
#1064=FACE_BOUND('',#970,.T.);
#1065=FACE_BOUND('',#971,.T.);
#1066=FACE_BOUND('',#972,.T.);
#1067=FACE_BOUND('',#973,.T.);
#1068=FACE_BOUND('',#974,.T.);
#1069=FACE_BOUND('',#975,.T.);
#1070=FACE_BOUND('',#976,.T.);
#1071=FACE_BOUND('',#977,.T.);
#1072=FACE_BOUND('',#978,.T.);
#1073=FACE_BOUND('',#979,.T.);
#1074=FACE_BOUND('',#980,.T.);
#1075=FACE_BOUND('',#981,.T.);
#1076=FACE_BOUND('',#982,.T.);
#1077=FACE_BOUND('',#983,.T.);
#1078=FACE_BOUND('',#984,.T.);
#1079=FACE_BOUND('',#985,.T.);
#1080=FACE_BOUND('',#986,.T.);
#1081=FACE_BOUND('',#987,.T.);
#1082=FACE_BOUND('',#988,.T.);
#1083=FACE_BOUND('',#989,.T.);
#1084=FACE_BOUND('',#990,.T.);
#1085=FACE_BOUND('',#991,.T.);
#1086=FACE_BOUND('',#992,.T.);
#1087=FACE_BOUND('',#993,.T.);
#1088=FACE_BOUND('',#994,.T.);
#1089=FACE_BOUND('',#995,.T.);
#1090=FACE_BOUND('',#996,.T.);
#1091=FACE_BOUND('',#997,.T.);
#1092=FACE_BOUND('',#998,.T.);
#1093=FACE_BOUND('',#999,.T.);
#1094=FACE_BOUND('',#1000,.T.);
#1095=FACE_BOUND('',#1001,.T.);
#1096=FACE_BOUND('',#1002,.T.);
#1097=FACE_BOUND('',#1003,.T.);
#1098=FACE_BOUND('',#1004,.T.);
#1099=FACE_BOUND('',#1005,.T.);
#1100=FACE_BOUND('',#1006,.T.);
#1101=FACE_BOUND('',#1007,.T.);
#1102=FACE_BOUND('',#1008,.T.);
#1103=FACE_BOUND('',#1009,.T.);
#1104=FACE_BOUND('',#1010,.T.);
#1105=FACE_BOUND('',#1011,.T.);
#1106=FACE_BOUND('',#1012,.T.);
#1107=FACE_BOUND('',#1013,.T.);
#1108=FACE_BOUND('',#1014,.T.);
#1109=FACE_BOUND('',#1015,.T.);
#1110=FACE_BOUND('',#1016,.T.);
#1111=FACE_BOUND('',#1017,.T.);
#1112=FACE_BOUND('',#1018,.T.);
#1113=FACE_BOUND('',#1019,.T.);
#1114=FACE_BOUND('',#1020,.T.);
#1115=FACE_BOUND('',#1021,.T.);
#1116=FACE_BOUND('',#1022,.T.);
#1117=FACE_BOUND('',#1023,.T.);
#1118=PLANE('',#1254);
#1119=PLANE('',#1255);
#1120=PLANE('',#1256);
#1121=PLANE('',#1257);
#1122=PLANE('',#1261);
#1123=PLANE('',#1265);
#1124=PLANE('',#1269);
#1125=PLANE('',#1273);
#1126=PLANE('',#1274);
#1127=PLANE('',#1275);
#1128=PLANE('',#1277);
#1129=PLANE('',#1279);
#1130=PLANE('',#1281);
#1131=PLANE('',#1282);
#1132=PLANE('',#1283);
#1133=PLANE('',#1284);
#1134=PLANE('',#1285);
#1135=PLANE('',#1290);
#1136=PLANE('',#1292);
#1137=PLANE('',#1293);
#1138=PLANE('',#1294);
#1139=PLANE('',#1295);
#1140=PLANE('',#1300);
#1141=PLANE('',#1301);
#1142=PLANE('',#1302);
#1143=PLANE('',#1303);
#1144=PLANE('',#1305);
#1145=PLANE('',#1306);
#1146=PLANE('',#1307);
#1147=PLANE('',#1311);
#1148=PLANE('',#1315);
#1149=PLANE('',#1319);
#1150=PLANE('',#1323);
#1151=PLANE('',#1324);
#1152=PLANE('',#1325);
#1153=PLANE('',#1326);
#1154=PLANE('',#1328);
#1155=PLANE('',#1330);
#1156=PLANE('',#1332);
#1157=PLANE('',#1333);
#1158=PLANE('',#1334);
#1159=PLANE('',#1335);
#1160=PLANE('',#1345);
#1161=PLANE('',#1346);
#1162=PLANE('',#1347);
#1163=PLANE('',#1348);
#1164=PLANE('',#1349);
#1165=PLANE('',#1350);
#1166=ADVANCED_FACE('',(#1024,#1025),#1118,.F.);
#1167=ADVANCED_FACE('',(#1026,#1027),#1119,.T.);
#1168=ADVANCED_FACE('',(#1028),#1120,.T.);
#1169=ADVANCED_FACE('',(#1029),#1121,.T.);
#1170=ADVANCED_FACE('',(#1030),#50,.F.);
#1171=ADVANCED_FACE('',(#1031),#1122,.F.);
#1172=ADVANCED_FACE('',(#1032),#51,.F.);
#1173=ADVANCED_FACE('',(#1033),#1123,.F.);
#1174=ADVANCED_FACE('',(#1034),#52,.F.);
#1175=ADVANCED_FACE('',(#1035),#1124,.T.);
#1176=ADVANCED_FACE('',(#1036),#53,.F.);
#1177=ADVANCED_FACE('',(#1037),#1125,.F.);
#1178=ADVANCED_FACE('',(#1038,#1039),#1126,.F.);
#1179=ADVANCED_FACE('',(#1040,#1041),#1127,.F.);
#1180=ADVANCED_FACE('',(#1042,#1043),#1128,.F.);
#1181=ADVANCED_FACE('',(#1044,#1045),#1129,.F.);
#1182=ADVANCED_FACE('',(#1046),#1130,.F.);
#1183=ADVANCED_FACE('',(#1047),#1131,.F.);
#1184=ADVANCED_FACE('',(#1048),#1132,.F.);
#1185=ADVANCED_FACE('',(#1049),#1133,.F.);
#1186=ADVANCED_FACE('',(#1050,#1051,#1052,#1053,#1054,#1055),#1134,.T.);
#1187=ADVANCED_FACE('',(#1056,#1057),#1135,.F.);
#1188=ADVANCED_FACE('',(#1058),#1136,.F.);
#1189=ADVANCED_FACE('',(#1059),#1137,.T.);
#1190=ADVANCED_FACE('',(#1060),#1138,.F.);
#1191=ADVANCED_FACE('',(#1061),#1139,.T.);
#1192=ADVANCED_FACE('',(#1062,#1063),#14,.F.);
#1193=ADVANCED_FACE('',(#1064,#1065),#15,.F.);
#1194=ADVANCED_FACE('',(#1066,#1067),#16,.F.);
#1195=ADVANCED_FACE('',(#1068,#1069),#17,.F.);
#1196=ADVANCED_FACE('',(#1070),#1140,.T.);
#1197=ADVANCED_FACE('',(#1071),#1141,.F.);
#1198=ADVANCED_FACE('',(#1072),#1142,.F.);
#1199=ADVANCED_FACE('',(#1073),#1143,.T.);
#1200=ADVANCED_FACE('',(#1074),#1144,.F.);
#1201=ADVANCED_FACE('',(#1075),#1145,.T.);
#1202=ADVANCED_FACE('',(#1076),#1146,.T.);
#1203=ADVANCED_FACE('',(#1077),#54,.F.);
#1204=ADVANCED_FACE('',(#1078),#1147,.F.);
#1205=ADVANCED_FACE('',(#1079),#55,.F.);
#1206=ADVANCED_FACE('',(#1080),#1148,.F.);
#1207=ADVANCED_FACE('',(#1081),#56,.F.);
#1208=ADVANCED_FACE('',(#1082),#1149,.T.);
#1209=ADVANCED_FACE('',(#1083),#57,.F.);
#1210=ADVANCED_FACE('',(#1084),#1150,.T.);
#1211=ADVANCED_FACE('',(#1085),#1151,.F.);
#1212=ADVANCED_FACE('',(#1086,#1087),#1152,.F.);
#1213=ADVANCED_FACE('',(#1088,#1089),#1153,.F.);
#1214=ADVANCED_FACE('',(#1090,#1091),#1154,.F.);
#1215=ADVANCED_FACE('',(#1092,#1093),#1155,.F.);
#1216=ADVANCED_FACE('',(#1094),#1156,.F.);
#1217=ADVANCED_FACE('',(#1095),#1157,.F.);
#1218=ADVANCED_FACE('',(#1096),#1158,.F.);
#1219=ADVANCED_FACE('',(#1097),#1159,.F.);
#1220=ADVANCED_FACE('',(#1098,#1099),#58,.F.);
#1221=ADVANCED_FACE('',(#1100,#1101),#59,.F.);
#1222=ADVANCED_FACE('',(#1102,#1103),#60,.F.);
#1223=ADVANCED_FACE('',(#1104,#1105),#61,.F.);
#1224=ADVANCED_FACE('',(#1106,#1107,#1108,#1109,#1110,#1111),#1160,.T.);
#1225=ADVANCED_FACE('',(#1112,#1113),#1161,.F.);
#1226=ADVANCED_FACE('',(#1114),#1162,.F.);
#1227=ADVANCED_FACE('',(#1115),#1163,.T.);
#1228=ADVANCED_FACE('',(#1116),#1164,.F.);
#1229=ADVANCED_FACE('',(#1117),#1165,.T.);
#1230=CLOSED_SHELL('',(#1166,#1167,#1168,#1169,#1170,#1171,#1172,#1173,
#1174,#1175,#1176,#1177,#1178,#1179,#1180,#1181,#1182,#1183,#1184,#1185,
#1186,#1187,#1188,#1189,#1190,#1191,#1192,#1193,#1194,#1195,#1196,#1197,
#1198,#1199));
#1231=CLOSED_SHELL('',(#1200,#1201,#1202,#1203,#1204,#1205,#1206,#1207,
#1208,#1209,#1210,#1211,#1212,#1213,#1214,#1215,#1216,#1217,#1218,#1219,
#1220,#1221,#1222,#1223,#1224,#1225,#1226,#1227,#1228,#1229));
#1232=STYLED_ITEM('',(#1234),#1247);
#1233=STYLED_ITEM('',(#1235),#1248);
#1234=PRESENTATION_STYLE_ASSIGNMENT((#1236));
#1235=PRESENTATION_STYLE_ASSIGNMENT((#1237));
#1236=SURFACE_STYLE_USAGE(.BOTH.,#1238);
#1237=SURFACE_STYLE_USAGE(.BOTH.,#1239);
#1238=SURFACE_SIDE_STYLE('',(#1240));
#1239=SURFACE_SIDE_STYLE('',(#1241));
#1240=SURFACE_STYLE_FILL_AREA(#1242);
#1241=SURFACE_STYLE_FILL_AREA(#1243);
#1242=FILL_AREA_STYLE('',(#1244));
#1243=FILL_AREA_STYLE('',(#1245));
#1244=FILL_AREA_STYLE_COLOUR('',#1246);
#1245=FILL_AREA_STYLE_COLOUR('',#1246);
#1246=COLOUR_RGB('',0.615686274509804,0.811764705882353,0.929411764705882);
#1247=MANIFOLD_SOLID_BREP('Inner',#1230);
#1248=MANIFOLD_SOLID_BREP('Outer',#1231);
#1249=SHAPE_DEFINITION_REPRESENTATION(#2033,#1251);
#1250=SHAPE_DEFINITION_REPRESENTATION(#2034,#1252);
#1251=SHAPE_REPRESENTATION('Inner',(#1253),#2023);
#1252=SHAPE_REPRESENTATION('Outer',(#1304),#2024);
#1253=AXIS2_PLACEMENT_3D('',#1679,#1351,#1352);
#1254=AXIS2_PLACEMENT_3D('',#1680,#1353,#1354);
#1255=AXIS2_PLACEMENT_3D('',#1697,#1363,#1364);
#1256=AXIS2_PLACEMENT_3D('',#1722,#1377,#1378);
#1257=AXIS2_PLACEMENT_3D('',#1728,#1382,#1383);
#1258=AXIS2_PLACEMENT_3D('',#1734,#1387,#1388);
#1259=AXIS2_PLACEMENT_3D('',#1735,#1389,#1390);
#1260=AXIS2_PLACEMENT_3D('',#1737,#1391,#1392);
#1261=AXIS2_PLACEMENT_3D('',#1740,#1394,#1395);
#1262=AXIS2_PLACEMENT_3D('',#1754,#1403,#1404);
#1263=AXIS2_PLACEMENT_3D('',#1755,#1405,#1406);
#1264=AXIS2_PLACEMENT_3D('',#1757,#1407,#1408);
#1265=AXIS2_PLACEMENT_3D('',#1760,#1410,#1411);
#1266=AXIS2_PLACEMENT_3D('',#1774,#1419,#1420);
#1267=AXIS2_PLACEMENT_3D('',#1775,#1421,#1422);
#1268=AXIS2_PLACEMENT_3D('',#1777,#1423,#1424);
#1269=AXIS2_PLACEMENT_3D('',#1780,#1426,#1427);
#1270=AXIS2_PLACEMENT_3D('',#1794,#1435,#1436);
#1271=AXIS2_PLACEMENT_3D('',#1795,#1437,#1438);
#1272=AXIS2_PLACEMENT_3D('',#1796,#1439,#1440);
#1273=AXIS2_PLACEMENT_3D('',#1797,#1441,#1442);
#1274=AXIS2_PLACEMENT_3D('',#1800,#1445,#1446);
#1275=AXIS2_PLACEMENT_3D('',#1801,#1447,#1448);
#1276=AXIS2_PLACEMENT_3D('',#1802,#1449,#1450);
#1277=AXIS2_PLACEMENT_3D('',#1805,#1452,#1453);
#1278=AXIS2_PLACEMENT_3D('',#1806,#1454,#1455);
#1279=AXIS2_PLACEMENT_3D('',#1809,#1457,#1458);
#1280=AXIS2_PLACEMENT_3D('',#1810,#1459,#1460);
#1281=AXIS2_PLACEMENT_3D('',#1813,#1462,#1463);
#1282=AXIS2_PLACEMENT_3D('',#1815,#1465,#1466);
#1283=AXIS2_PLACEMENT_3D('',#1817,#1468,#1469);
#1284=AXIS2_PLACEMENT_3D('',#1820,#1472,#1473);
#1285=AXIS2_PLACEMENT_3D('',#1822,#1475,#1476);
#1286=AXIS2_PLACEMENT_3D('',#1823,#1477,#1478);
#1287=AXIS2_PLACEMENT_3D('',#1825,#1479,#1480);
#1288=AXIS2_PLACEMENT_3D('',#1827,#1481,#1482);
#1289=AXIS2_PLACEMENT_3D('',#1829,#1483,#1484);
#1290=AXIS2_PLACEMENT_3D('',#1839,#1489,#1490);
#1291=AXIS2_PLACEMENT_3D('',#1840,#1491,#1492);
#1292=AXIS2_PLACEMENT_3D('',#1842,#1493,#1494);
#1293=AXIS2_PLACEMENT_3D('',#1845,#1497,#1498);
#1294=AXIS2_PLACEMENT_3D('',#1847,#1500,#1501);
#1295=AXIS2_PLACEMENT_3D('',#1849,#1503,#1504);
#1296=AXIS2_PLACEMENT_3D('',#1850,#1505,#1506);
#1297=AXIS2_PLACEMENT_3D('',#1851,#1507,#1508);
#1298=AXIS2_PLACEMENT_3D('',#1852,#1509,#1510);
#1299=AXIS2_PLACEMENT_3D('',#1853,#1511,#1512);
#1300=AXIS2_PLACEMENT_3D('',#1854,#1513,#1514);
#1301=AXIS2_PLACEMENT_3D('',#1857,#1517,#1518);
#1302=AXIS2_PLACEMENT_3D('',#1859,#1520,#1521);
#1303=AXIS2_PLACEMENT_3D('',#1861,#1523,#1524);
#1304=AXIS2_PLACEMENT_3D('',#1862,#1525,#1526);
#1305=AXIS2_PLACEMENT_3D('',#1863,#1527,#1528);
#1306=AXIS2_PLACEMENT_3D('',#1872,#1533,#1534);
#1307=AXIS2_PLACEMENT_3D('',#1878,#1538,#1539);
#1308=AXIS2_PLACEMENT_3D('',#1884,#1543,#1544);
#1309=AXIS2_PLACEMENT_3D('',#1885,#1545,#1546);
#1310=AXIS2_PLACEMENT_3D('',#1890,#1548,#1549);
#1311=AXIS2_PLACEMENT_3D('',#1893,#1551,#1552);
#1312=AXIS2_PLACEMENT_3D('',#1907,#1560,#1561);
#1313=AXIS2_PLACEMENT_3D('',#1908,#1562,#1563);
#1314=AXIS2_PLACEMENT_3D('',#1910,#1564,#1565);
#1315=AXIS2_PLACEMENT_3D('',#1913,#1567,#1568);
#1316=AXIS2_PLACEMENT_3D('',#1927,#1576,#1577);
#1317=AXIS2_PLACEMENT_3D('',#1928,#1578,#1579);
#1318=AXIS2_PLACEMENT_3D('',#1930,#1580,#1581);
#1319=AXIS2_PLACEMENT_3D('',#1933,#1583,#1584);
#1320=AXIS2_PLACEMENT_3D('',#1947,#1592,#1593);
#1321=AXIS2_PLACEMENT_3D('',#1948,#1594,#1595);
#1322=AXIS2_PLACEMENT_3D('',#1950,#1596,#1597);
#1323=AXIS2_PLACEMENT_3D('',#1953,#1599,#1600);
#1324=AXIS2_PLACEMENT_3D('',#1964,#1607,#1608);
#1325=AXIS2_PLACEMENT_3D('',#1967,#1611,#1612);
#1326=AXIS2_PLACEMENT_3D('',#1968,#1613,#1614);
#1327=AXIS2_PLACEMENT_3D('',#1970,#1616,#1617);
#1328=AXIS2_PLACEMENT_3D('',#1972,#1618,#1619);
#1329=AXIS2_PLACEMENT_3D('',#1973,#1620,#1621);
#1330=AXIS2_PLACEMENT_3D('',#1976,#1623,#1624);
#1331=AXIS2_PLACEMENT_3D('',#1978,#1626,#1627);
#1332=AXIS2_PLACEMENT_3D('',#1980,#1628,#1629);
#1333=AXIS2_PLACEMENT_3D('',#1982,#1631,#1632);
#1334=AXIS2_PLACEMENT_3D('',#1984,#1634,#1635);
#1335=AXIS2_PLACEMENT_3D('',#1987,#1638,#1639);
#1336=AXIS2_PLACEMENT_3D('',#1989,#1641,#1642);
#1337=AXIS2_PLACEMENT_3D('',#1990,#1643,#1644);
#1338=AXIS2_PLACEMENT_3D('',#1992,#1645,#1646);
#1339=AXIS2_PLACEMENT_3D('',#1993,#1647,#1648);
#1340=AXIS2_PLACEMENT_3D('',#1995,#1649,#1650);
#1341=AXIS2_PLACEMENT_3D('',#1997,#1651,#1652);
#1342=AXIS2_PLACEMENT_3D('',#1998,#1653,#1654);
#1343=AXIS2_PLACEMENT_3D('',#2000,#1655,#1656);
#1344=AXIS2_PLACEMENT_3D('',#2001,#1657,#1658);
#1345=AXIS2_PLACEMENT_3D('',#2003,#1659,#1660);
#1346=AXIS2_PLACEMENT_3D('',#2012,#1665,#1666);
#1347=AXIS2_PLACEMENT_3D('',#2013,#1667,#1668);
#1348=AXIS2_PLACEMENT_3D('',#2016,#1671,#1672);
#1349=AXIS2_PLACEMENT_3D('',#2018,#1674,#1675);
#1350=AXIS2_PLACEMENT_3D('',#2020,#1677,#1678);
#1351=DIRECTION('',(0.,0.,1.));
#1352=DIRECTION('',(1.,0.,0.));
#1353=DIRECTION('',(0.,-1.,0.));
#1354=DIRECTION('',(0.,0.,-1.));
#1355=DIRECTION('',(0.,0.,1.));
#1356=DIRECTION('',(1.,0.,0.));
#1357=DIRECTION('',(0.,0.,1.));
#1358=DIRECTION('',(1.,0.,0.));
#1359=DIRECTION('',(0.,0.,1.));
#1360=DIRECTION('',(1.,0.,0.));
#1361=DIRECTION('',(0.,0.,1.));
#1362=DIRECTION('',(1.,0.,0.));
#1363=DIRECTION('',(0.,-1.,0.));
#1364=DIRECTION('',(0.,0.,-1.));
#1365=DIRECTION('',(1.,0.,0.));
#1366=DIRECTION('',(0.,0.,1.));
#1367=DIRECTION('',(1.,0.,0.));
#1368=DIRECTION('',(0.,0.,1.));
#1369=DIRECTION('',(1.,0.,0.));
#1370=DIRECTION('',(0.,0.,-1.));
#1371=DIRECTION('',(1.,0.,0.));
#1372=DIRECTION('',(0.,0.,-1.));
#1373=DIRECTION('',(1.,0.,0.));
#1374=DIRECTION('',(0.,0.,1.));
#1375=DIRECTION('',(1.,0.,0.));
#1376=DIRECTION('',(0.,0.,1.));
#1377=DIRECTION('',(-1.,-6.91124890827413E-17,0.));
#1378=DIRECTION('',(6.91124890827413E-17,-1.,0.));
#1379=DIRECTION('',(0.,0.,1.));
#1380=DIRECTION('',(-6.91124890827413E-17,1.,0.));
#1381=DIRECTION('',(6.91124890827413E-17,-1.,0.));
#1382=DIRECTION('',(6.91124890827413E-17,-1.,0.));
#1383=DIRECTION('',(1.,6.91124890827413E-17,0.));
#1384=DIRECTION('',(0.,0.,1.));
#1385=DIRECTION('',(-1.,-6.91124890827413E-17,0.));
#1386=DIRECTION('',(1.,6.91124890827413E-17,0.));
#1387=DIRECTION('',(0.,0.,1.));
#1388=DIRECTION('',(1.,0.,0.));
#1389=DIRECTION('',(0.,0.,1.));
#1390=DIRECTION('',(1.,0.,0.));
#1391=DIRECTION('',(0.,0.,1.));
#1392=DIRECTION('',(1.,0.,0.));
#1393=DIRECTION('',(0.,0.,1.));
#1394=DIRECTION('',(1.,0.,0.));
#1395=DIRECTION('',(0.,0.,-1.));
#1396=DIRECTION('',(0.,1.,0.));
#1397=DIRECTION('',(0.,0.,-1.));
#1398=DIRECTION('',(0.,-1.,0.));
#1399=DIRECTION('',(0.,0.,-1.));
#1400=DIRECTION('',(0.,1.,0.));
#1401=DIRECTION('',(0.,1.,0.));
#1402=DIRECTION('',(0.,0.,1.));
#1403=DIRECTION('',(0.,0.,1.));
#1404=DIRECTION('',(1.,0.,0.));
#1405=DIRECTION('',(0.,0.,1.));
#1406=DIRECTION('',(1.,0.,0.));
#1407=DIRECTION('',(0.,0.,1.));
#1408=DIRECTION('',(1.,0.,0.));
#1409=DIRECTION('',(0.,0.,1.));
#1410=DIRECTION('',(0.,-1.,0.));
#1411=DIRECTION('',(0.,0.,-1.));
#1412=DIRECTION('',(1.,0.,0.));
#1413=DIRECTION('',(0.,0.,-1.));
#1414=DIRECTION('',(-1.,7.92794342013858E-17,0.));
#1415=DIRECTION('',(0.,0.,-1.));
#1416=DIRECTION('',(1.,0.,0.));
#1417=DIRECTION('',(1.,0.,0.));
#1418=DIRECTION('',(0.,0.,1.));
#1419=DIRECTION('',(0.,0.,1.));
#1420=DIRECTION('',(1.,0.,0.));
#1421=DIRECTION('',(0.,0.,1.));
#1422=DIRECTION('',(1.,0.,0.));
#1423=DIRECTION('',(0.,0.,1.));
#1424=DIRECTION('',(1.,0.,0.));
#1425=DIRECTION('',(0.,0.,1.));
#1426=DIRECTION('',(1.,0.,0.));
#1427=DIRECTION('',(0.,0.,-1.));
#1428=DIRECTION('',(0.,1.,0.));
#1429=DIRECTION('',(0.,1.,0.));
#1430=DIRECTION('',(0.,0.,1.));
#1431=DIRECTION('',(0.,1.,0.));
#1432=DIRECTION('',(0.,0.,-1.));
#1433=DIRECTION('',(0.,1.,0.));
#1434=DIRECTION('',(0.,0.,-1.));
#1435=DIRECTION('',(0.,0.,1.));
#1436=DIRECTION('',(1.,0.,0.));
#1437=DIRECTION('',(0.,0.,1.));
#1438=DIRECTION('',(1.,0.,0.));
#1439=DIRECTION('',(0.,0.,1.));
#1440=DIRECTION('',(1.,0.,0.));
#1441=DIRECTION('',(-1.,0.,0.));
#1442=DIRECTION('',(0.,0.,1.));
#1443=DIRECTION('',(0.,-1.,0.));
#1444=DIRECTION('',(0.,-1.,0.));
#1445=DIRECTION('',(0.,0.,1.));
#1446=DIRECTION('',(1.,0.,0.));
#1447=DIRECTION('',(0.,0.,1.));
#1448=DIRECTION('',(1.,0.,0.));
#1449=DIRECTION('',(0.,0.,1.));
#1450=DIRECTION('',(1.,0.,0.));
#1451=DIRECTION('',(-0.707106781186549,-0.707106781186546,0.));
#1452=DIRECTION('',(0.,0.,1.));
#1453=DIRECTION('',(1.,0.,0.));
#1454=DIRECTION('',(0.,0.,1.));
#1455=DIRECTION('',(1.,0.,0.));
#1456=DIRECTION('',(0.707106781186548,0.707106781186547,0.));
#1457=DIRECTION('',(0.,0.,1.));
#1458=DIRECTION('',(1.,0.,0.));
#1459=DIRECTION('',(0.,0.,1.));
#1460=DIRECTION('',(1.,0.,0.));
#1461=DIRECTION('',(-0.70710678118655,0.707106781186546,0.));
#1462=DIRECTION('',(-0.707106781186546,-0.70710678118655,0.));
#1463=DIRECTION('',(0.70710678118655,-0.707106781186546,0.));
#1464=DIRECTION('',(-0.70710678118655,0.707106781186546,0.));
#1465=DIRECTION('',(-0.707106781186547,0.707106781186548,0.));
#1466=DIRECTION('',(-0.707106781186548,-0.707106781186547,0.));
#1467=DIRECTION('',(0.707106781186548,0.707106781186547,0.));
#1468=DIRECTION('',(0.707106781186546,0.707106781186549,0.));
#1469=DIRECTION('',(-0.707106781186549,0.707106781186546,0.));
#1470=DIRECTION('',(0.707106781186549,-0.707106781186546,0.));
#1471=DIRECTION('',(0.707106781186549,-0.707106781186546,0.));
#1472=DIRECTION('',(0.707106781186546,-0.707106781186549,0.));
#1473=DIRECTION('',(0.707106781186549,0.707106781186546,0.));
#1474=DIRECTION('',(-0.707106781186549,-0.707106781186546,0.));
#1475=DIRECTION('',(0.,0.,1.));
#1476=DIRECTION('',(1.,0.,0.));
#1477=DIRECTION('',(0.,0.,1.));
#1478=DIRECTION('',(1.,0.,0.));
#1479=DIRECTION('',(0.,0.,1.));
#1480=DIRECTION('',(1.,0.,0.));
#1481=DIRECTION('',(0.,0.,1.));
#1482=DIRECTION('',(1.,0.,0.));
#1483=DIRECTION('',(0.,0.,1.));
#1484=DIRECTION('',(1.,0.,0.));
#1485=DIRECTION('',(1.,6.91124890827413E-17,0.));
#1486=DIRECTION('',(0.,1.,0.));
#1487=DIRECTION('',(-1.,0.,0.));
#1488=DIRECTION('',(6.91124890827413E-17,-1.,0.));
#1489=DIRECTION('',(0.,0.,1.));
#1490=DIRECTION('',(1.,0.,0.));
#1491=DIRECTION('',(0.,0.,1.));
#1492=DIRECTION('',(1.,0.,0.));
#1493=DIRECTION('',(0.707106781186548,4.88699096950876E-17,-0.707106781186547));
#1494=DIRECTION('',(6.91124890827413E-17,-1.,0.));
#1495=DIRECTION('',(-0.577350269189626,-0.577350269189626,-0.577350269189626));
#1496=DIRECTION('',(0.577350269189626,-0.577350269189625,0.577350269189626));
#1497=DIRECTION('',(0.,0.707106781186548,0.707106781186547));
#1498=DIRECTION('',(-1.,0.,0.));
#1499=DIRECTION('',(0.577350269189627,0.577350269189625,-0.577350269189626));
#1500=DIRECTION('',(-4.88699096950876E-17,0.707106781186548,-0.707106781186547));
#1501=DIRECTION('',(1.,6.91124890827413E-17,0.));
#1502=DIRECTION('',(0.577350269189626,-0.577350269189625,-0.577350269189626));
#1503=DIRECTION('',(0.707106781186547,0.,0.707106781186548));
#1504=DIRECTION('',(0.,1.,0.));
#1505=DIRECTION('',(0.,0.,1.));
#1506=DIRECTION('',(1.,0.,0.));
#1507=DIRECTION('',(0.,0.,1.));
#1508=DIRECTION('',(1.,0.,0.));
#1509=DIRECTION('',(0.,0.,1.));
#1510=DIRECTION('',(1.,0.,0.));
#1511=DIRECTION('',(0.,0.,1.));
#1512=DIRECTION('',(1.,0.,0.));
#1513=DIRECTION('',(1.,0.,0.));
#1514=DIRECTION('',(0.,0.,-1.));
#1515=DIRECTION('',(0.,-1.,0.));
#1516=DIRECTION('',(0.,-1.,0.));
#1517=DIRECTION('',(0.,0.,-1.));
#1518=DIRECTION('',(-1.,0.,0.));
#1519=DIRECTION('',(0.,-1.,0.));
#1520=DIRECTION('',(1.,0.,0.));
#1521=DIRECTION('',(0.,0.,-1.));
#1522=DIRECTION('',(0.,-1.,0.));
#1523=DIRECTION('',(0.,0.,-1.));
#1524=DIRECTION('',(-1.,0.,0.));
#1525=DIRECTION('',(0.,0.,1.));
#1526=DIRECTION('',(1.,0.,0.));
#1527=DIRECTION('',(0.,-1.,0.));
#1528=DIRECTION('',(0.,0.,-1.));
#1529=DIRECTION('',(0.,0.,1.));
#1530=DIRECTION('',(1.,0.,0.));
#1531=DIRECTION('',(0.,0.,1.));
#1532=DIRECTION('',(1.,0.,0.));
#1533=DIRECTION('',(-1.,-6.91124890827413E-17,0.));
#1534=DIRECTION('',(6.91124890827413E-17,-1.,0.));
#1535=DIRECTION('',(0.,0.,1.));
#1536=DIRECTION('',(-6.91124890827413E-17,1.,0.));
#1537=DIRECTION('',(6.91124890827413E-17,-1.,0.));
#1538=DIRECTION('',(6.91124890827413E-17,-1.,0.));
#1539=DIRECTION('',(1.,6.91124890827413E-17,0.));
#1540=DIRECTION('',(0.,0.,1.));
#1541=DIRECTION('',(-1.,-6.91124890827413E-17,0.));
#1542=DIRECTION('',(1.,6.91124890827413E-17,0.));
#1543=DIRECTION('',(0.,0.,1.));
#1544=DIRECTION('',(1.,0.,0.));
#1545=DIRECTION('',(0.,0.,1.));
#1546=DIRECTION('',(1.,0.,0.));
#1547=DIRECTION('',(0.,0.,1.));
#1548=DIRECTION('',(0.,0.,1.));
#1549=DIRECTION('',(1.,0.,0.));
#1550=DIRECTION('',(0.,0.,1.));
#1551=DIRECTION('',(1.,0.,0.));
#1552=DIRECTION('',(0.,0.,-1.));
#1553=DIRECTION('',(0.,1.,0.));
#1554=DIRECTION('',(0.,0.,-1.));
#1555=DIRECTION('',(0.,-1.,0.));
#1556=DIRECTION('',(0.,0.,-1.));
#1557=DIRECTION('',(0.,1.,0.));
#1558=DIRECTION('',(0.,1.,0.));
#1559=DIRECTION('',(0.,0.,1.));
#1560=DIRECTION('',(0.,0.,1.));
#1561=DIRECTION('',(1.,0.,0.));
#1562=DIRECTION('',(0.,0.,1.));
#1563=DIRECTION('',(1.,0.,0.));
#1564=DIRECTION('',(0.,0.,1.));
#1565=DIRECTION('',(1.,0.,0.));
#1566=DIRECTION('',(0.,0.,1.));
#1567=DIRECTION('',(0.,-1.,0.));
#1568=DIRECTION('',(0.,0.,-1.));
#1569=DIRECTION('',(1.,0.,0.));
#1570=DIRECTION('',(0.,0.,-1.));
#1571=DIRECTION('',(-1.,7.92794342013858E-17,0.));
#1572=DIRECTION('',(0.,0.,-1.));
#1573=DIRECTION('',(1.,0.,0.));
#1574=DIRECTION('',(1.,0.,0.));
#1575=DIRECTION('',(0.,0.,1.));
#1576=DIRECTION('',(0.,0.,1.));
#1577=DIRECTION('',(1.,0.,0.));
#1578=DIRECTION('',(0.,0.,1.));
#1579=DIRECTION('',(1.,0.,0.));
#1580=DIRECTION('',(0.,0.,1.));
#1581=DIRECTION('',(1.,0.,0.));
#1582=DIRECTION('',(0.,0.,1.));
#1583=DIRECTION('',(1.,0.,0.));
#1584=DIRECTION('',(0.,0.,-1.));
#1585=DIRECTION('',(0.,1.,0.));
#1586=DIRECTION('',(0.,1.,0.));
#1587=DIRECTION('',(0.,0.,1.));
#1588=DIRECTION('',(0.,1.,0.));
#1589=DIRECTION('',(0.,0.,-1.));
#1590=DIRECTION('',(0.,1.,0.));
#1591=DIRECTION('',(0.,0.,-1.));
#1592=DIRECTION('',(0.,0.,1.));
#1593=DIRECTION('',(1.,0.,0.));
#1594=DIRECTION('',(0.,0.,1.));
#1595=DIRECTION('',(1.,0.,0.));
#1596=DIRECTION('',(0.,0.,1.));
#1597=DIRECTION('',(1.,0.,0.));
#1598=DIRECTION('',(0.,0.,1.));
#1599=DIRECTION('',(0.,-1.,0.));
#1600=DIRECTION('',(0.,0.,-1.));
#1601=DIRECTION('',(1.,0.,0.));
#1602=DIRECTION('',(1.,0.,0.));
#1603=DIRECTION('',(1.,0.,0.));
#1604=DIRECTION('',(0.,0.,-1.));
#1605=DIRECTION('',(1.,0.,0.));
#1606=DIRECTION('',(0.,0.,-1.));
#1607=DIRECTION('',(-1.,0.,0.));
#1608=DIRECTION('',(0.,0.,1.));
#1609=DIRECTION('',(0.,-1.,0.));
#1610=DIRECTION('',(0.,-1.,0.));
#1611=DIRECTION('',(0.,0.,1.));
#1612=DIRECTION('',(1.,0.,0.));
#1613=DIRECTION('',(0.,0.,1.));
#1614=DIRECTION('',(1.,0.,0.));
#1615=DIRECTION('',(-0.707106781186549,-0.707106781186546,0.));
#1616=DIRECTION('',(0.,0.,1.));
#1617=DIRECTION('',(1.,0.,0.));
#1618=DIRECTION('',(0.,0.,1.));
#1619=DIRECTION('',(1.,0.,0.));
#1620=DIRECTION('',(0.,0.,1.));
#1621=DIRECTION('',(1.,0.,0.));
#1622=DIRECTION('',(0.707106781186548,0.707106781186547,0.));
#1623=DIRECTION('',(0.,0.,1.));
#1624=DIRECTION('',(1.,0.,0.));
#1625=DIRECTION('',(-0.70710678118655,0.707106781186546,0.));
#1626=DIRECTION('',(0.,0.,1.));
#1627=DIRECTION('',(1.,0.,0.));
#1628=DIRECTION('',(-0.707106781186546,-0.70710678118655,0.));
#1629=DIRECTION('',(0.70710678118655,-0.707106781186546,0.));
#1630=DIRECTION('',(-0.70710678118655,0.707106781186546,0.));
#1631=DIRECTION('',(-0.707106781186547,0.707106781186548,0.));
#1632=DIRECTION('',(-0.707106781186548,-0.707106781186547,0.));
#1633=DIRECTION('',(0.707106781186548,0.707106781186547,0.));
#1634=DIRECTION('',(0.707106781186546,0.707106781186549,0.));
#1635=DIRECTION('',(-0.707106781186549,0.707106781186546,0.));
#1636=DIRECTION('',(0.707106781186549,-0.707106781186546,0.));
#1637=DIRECTION('',(0.707106781186549,-0.707106781186546,0.));
#1638=DIRECTION('',(0.707106781186546,-0.707106781186549,0.));
#1639=DIRECTION('',(0.707106781186549,0.707106781186546,0.));
#1640=DIRECTION('',(-0.707106781186549,-0.707106781186546,0.));
#1641=DIRECTION('',(0.,0.,-1.));
#1642=DIRECTION('',(-1.,0.,0.));
#1643=DIRECTION('',(0.,0.,1.));
#1644=DIRECTION('',(1.,0.,0.));
#1645=DIRECTION('',(0.,0.,-1.));
#1646=DIRECTION('',(-1.,0.,0.));
#1647=DIRECTION('',(0.,0.,1.));
#1648=DIRECTION('',(1.,0.,0.));
#1649=DIRECTION('',(0.,0.,1.));
#1650=DIRECTION('',(1.,0.,0.));
#1651=DIRECTION('',(0.,0.,-1.));
#1652=DIRECTION('',(-1.,0.,0.));
#1653=DIRECTION('',(0.,0.,1.));
#1654=DIRECTION('',(1.,0.,0.));
#1655=DIRECTION('',(0.,0.,-1.));
#1656=DIRECTION('',(-1.,0.,0.));
#1657=DIRECTION('',(0.,0.,1.));
#1658=DIRECTION('',(1.,0.,0.));
#1659=DIRECTION('',(0.,0.,1.));
#1660=DIRECTION('',(1.,0.,0.));
#1661=DIRECTION('',(1.,6.91124890827413E-17,0.));
#1662=DIRECTION('',(0.,1.,0.));
#1663=DIRECTION('',(-1.,0.,0.));
#1664=DIRECTION('',(6.91124890827413E-17,-1.,0.));
#1665=DIRECTION('',(0.,0.,1.));
#1666=DIRECTION('',(1.,0.,0.));
#1667=DIRECTION('',(0.707106781186548,4.88699096950876E-17,-0.707106781186547));
#1668=DIRECTION('',(6.91124890827413E-17,-1.,0.));
#1669=DIRECTION('',(-0.577350269189626,-0.577350269189626,-0.577350269189626));
#1670=DIRECTION('',(0.577350269189626,-0.577350269189625,0.577350269189626));
#1671=DIRECTION('',(0.,0.707106781186548,0.707106781186547));
#1672=DIRECTION('',(-1.,0.,0.));
#1673=DIRECTION('',(0.577350269189627,0.577350269189625,-0.577350269189626));
#1674=DIRECTION('',(-4.88699096950876E-17,0.707106781186548,-0.707106781186547));
#1675=DIRECTION('',(1.,6.91124890827413E-17,0.));
#1676=DIRECTION('',(0.577350269189626,-0.577350269189625,-0.577350269189626));
#1677=DIRECTION('',(0.707106781186547,0.,0.707106781186548));
#1678=DIRECTION('',(0.,1.,0.));
#1679=CARTESIAN_POINT('',(0.,0.,0.));
#1680=CARTESIAN_POINT('',(0.0201,-0.0148,-0.00375));
#1681=CARTESIAN_POINT('',(-0.005,-0.0148,-0.00375));
#1682=CARTESIAN_POINT('',(-0.005,-0.0148,-0.00375));
#1683=CARTESIAN_POINT('',(-0.005,-0.0148,0.002));
#1684=CARTESIAN_POINT('',(0.0452,-0.0148,0.002));
#1685=CARTESIAN_POINT('',(0.0452,-0.0148,0.002));
#1686=CARTESIAN_POINT('',(0.0452,-0.0148,-0.00375));
#1687=CARTESIAN_POINT('',(0.0452,-0.0148,-0.00375));
#1688=CARTESIAN_POINT('',(0.0201,-0.0148,-0.00375));
#1689=CARTESIAN_POINT('',(0.0186,-0.0148,-0.00375));
#1690=CARTESIAN_POINT('',(0.0186,-0.0148,0.));
#1691=CARTESIAN_POINT('',(0.0186,-0.0148,0.0015));
#1692=CARTESIAN_POINT('',(0.0201,-0.0148,0.));
#1693=CARTESIAN_POINT('',(0.0216,-0.0148,0.));
#1694=CARTESIAN_POINT('',(0.0216,-0.0148,-0.00375));
#1695=CARTESIAN_POINT('',(0.0216,-0.0148,0.0015));
#1696=CARTESIAN_POINT('',(0.0201,-0.0148,0.0015));
#1697=CARTESIAN_POINT('',(0.0201,-0.0198,-0.00375));
#1698=CARTESIAN_POINT('',(0.0201,-0.0198,0.));
#1699=CARTESIAN_POINT('',(0.004,-0.0198,0.));
#1700=CARTESIAN_POINT('',(0.0122426406871193,-0.0198,0.));
#1701=CARTESIAN_POINT('',(0.004,-0.0198,-0.00375));
#1702=CARTESIAN_POINT('',(0.004,-0.0198,-0.00375));
#1703=CARTESIAN_POINT('',(0.0201,-0.0198,-0.00375));
#1704=CARTESIAN_POINT('',(0.0362,-0.0198,-0.00375));
#1705=CARTESIAN_POINT('',(0.0362,-0.0198,-0.00375));
#1706=CARTESIAN_POINT('',(0.0362,-0.0198,0.));
#1707=CARTESIAN_POINT('',(0.0201,-0.0198,0.));
#1708=CARTESIAN_POINT('',(0.0279573593128807,-0.0198,0.));
#1709=CARTESIAN_POINT('',(0.0279573593128807,-0.0198,0.005));
#1710=CARTESIAN_POINT('',(0.0279573593128807,-0.0198,0.005));
#1711=CARTESIAN_POINT('',(0.0201,-0.0198,0.005));
#1712=CARTESIAN_POINT('',(0.0122426406871193,-0.0198,0.005));
#1713=CARTESIAN_POINT('',(0.0122426406871193,-0.0198,0.005));
#1714=CARTESIAN_POINT('',(0.0201,-0.0198,0.));
#1715=CARTESIAN_POINT('',(0.0186,-0.0198,0.));
#1716=CARTESIAN_POINT('',(0.0216,-0.0198,0.));
#1717=CARTESIAN_POINT('',(0.0186,-0.0198,0.00075));
#1718=CARTESIAN_POINT('',(0.0186,-0.0198,0.0015));
#1719=CARTESIAN_POINT('',(0.0201,-0.0198,0.0015));
#1720=CARTESIAN_POINT('',(0.0216,-0.0198,0.0015));
#1721=CARTESIAN_POINT('',(0.0216,-0.0198,0.00075));
#1722=CARTESIAN_POINT('',(-0.005,-0.0399,-0.00375));
#1723=CARTESIAN_POINT('',(-0.005,-0.065,-0.00375));
#1724=CARTESIAN_POINT('',(-0.005,-0.065,-0.00375));
#1725=CARTESIAN_POINT('',(-0.005,-0.065,0.002));
#1726=CARTESIAN_POINT('',(-0.005,-0.0399,0.002));
#1727=CARTESIAN_POINT('',(-0.005,-0.0399,-0.00375));
#1728=CARTESIAN_POINT('',(0.0201,-0.065,-0.00375));
#1729=CARTESIAN_POINT('',(0.0452,-0.065,-0.00375));
#1730=CARTESIAN_POINT('',(0.0452,-0.065,-0.00375));
#1731=CARTESIAN_POINT('',(0.0452,-0.065,0.002));
#1732=CARTESIAN_POINT('',(0.0201,-0.065,0.002));
#1733=CARTESIAN_POINT('',(0.0201,-0.065,-0.00375));
#1734=CARTESIAN_POINT('',(0.0362,-0.0238,-0.00375));
#1735=CARTESIAN_POINT('',(0.0362,-0.0238,0.));
#1736=CARTESIAN_POINT('',(0.0402,-0.0238,0.));
#1737=CARTESIAN_POINT('',(0.0362,-0.0238,-0.00375));
#1738=CARTESIAN_POINT('',(0.0402,-0.0238,-0.00375));
#1739=CARTESIAN_POINT('',(0.0402,-0.0238,-0.00375));
#1740=CARTESIAN_POINT('',(0.0402,-0.0399,-0.00375));
#1741=CARTESIAN_POINT('',(0.0402,-0.0399,0.));
#1742=CARTESIAN_POINT('',(0.0402,-0.056,0.));
#1743=CARTESIAN_POINT('',(0.0402,-0.0477573593128808,0.));
#1744=CARTESIAN_POINT('',(0.0402,-0.0477573593128808,0.005));
#1745=CARTESIAN_POINT('',(0.0402,-0.0477573593128808,0.005));
#1746=CARTESIAN_POINT('',(0.0402,-0.0399,0.005));
#1747=CARTESIAN_POINT('',(0.0402,-0.0320426406871193,0.005));
#1748=CARTESIAN_POINT('',(0.0402,-0.0320426406871193,0.005));
#1749=CARTESIAN_POINT('',(0.0402,-0.0320426406871193,0.));
#1750=CARTESIAN_POINT('',(0.0402,-0.0399,0.));
#1751=CARTESIAN_POINT('',(0.0402,-0.0399,-0.00375));
#1752=CARTESIAN_POINT('',(0.0402,-0.056,-0.00375));
#1753=CARTESIAN_POINT('',(0.0402,-0.056,-0.00375));
#1754=CARTESIAN_POINT('',(0.0362,-0.056,-0.00375));
#1755=CARTESIAN_POINT('',(0.0362,-0.056,0.));
#1756=CARTESIAN_POINT('',(0.0362,-0.06,0.));
#1757=CARTESIAN_POINT('',(0.0362,-0.056,-0.00375));
#1758=CARTESIAN_POINT('',(0.0362,-0.06,-0.00375));
#1759=CARTESIAN_POINT('',(0.0362,-0.06,-0.00375));
#1760=CARTESIAN_POINT('',(0.0201,-0.06,-0.00375));
#1761=CARTESIAN_POINT('',(0.0201,-0.06,0.));
#1762=CARTESIAN_POINT('',(0.004,-0.06,0.));
#1763=CARTESIAN_POINT('',(0.0122426406871193,-0.06,0.));
#1764=CARTESIAN_POINT('',(0.0122426406871193,-0.06,0.005));
#1765=CARTESIAN_POINT('',(0.0122426406871193,-0.06,0.005));
#1766=CARTESIAN_POINT('',(0.0201,-0.06,0.005));
#1767=CARTESIAN_POINT('',(0.0279573593128807,-0.06,0.005));
#1768=CARTESIAN_POINT('',(0.0279573593128807,-0.06,0.005));
#1769=CARTESIAN_POINT('',(0.0279573593128808,-0.06,0.));
#1770=CARTESIAN_POINT('',(0.0201,-0.06,0.));
#1771=CARTESIAN_POINT('',(0.0201,-0.06,-0.00375));
#1772=CARTESIAN_POINT('',(0.004,-0.06,-0.00375));
#1773=CARTESIAN_POINT('',(0.004,-0.06,-0.00375));
#1774=CARTESIAN_POINT('',(0.004,-0.056,-0.00375));
#1775=CARTESIAN_POINT('',(0.004,-0.056,0.));
#1776=CARTESIAN_POINT('',(0.,-0.056,0.));
#1777=CARTESIAN_POINT('',(0.004,-0.056,-0.00375));
#1778=CARTESIAN_POINT('',(0.,-0.056,-0.00375));
#1779=CARTESIAN_POINT('',(0.,-0.056,-0.00375));
#1780=CARTESIAN_POINT('',(0.,-0.0399,-0.00375));
#1781=CARTESIAN_POINT('',(0.,-0.0399,0.));
#1782=CARTESIAN_POINT('',(-8.67361737988404E-19,-0.0477573593128808,0.));
#1783=CARTESIAN_POINT('',(0.,-0.0399,-0.00375));
#1784=CARTESIAN_POINT('',(0.,-0.0238,-0.00375));
#1785=CARTESIAN_POINT('',(0.,-0.0238,-0.00375));
#1786=CARTESIAN_POINT('',(0.,-0.0238,0.));
#1787=CARTESIAN_POINT('',(0.,-0.0399,0.));
#1788=CARTESIAN_POINT('',(4.33680868994202E-19,-0.0320426406871192,0.));
#1789=CARTESIAN_POINT('',(-1.21430643318376E-17,-0.0320426406871192,0.005));
#1790=CARTESIAN_POINT('',(-1.21430643318376E-17,-0.0320426406871192,0.005));
#1791=CARTESIAN_POINT('',(0.,-0.0399,0.005));
#1792=CARTESIAN_POINT('',(4.33680868994202E-18,-0.0477573593128808,0.005));
#1793=CARTESIAN_POINT('',(4.33680868994202E-18,-0.0477573593128808,0.005));
#1794=CARTESIAN_POINT('',(0.004,-0.0238,-0.00375));
#1795=CARTESIAN_POINT('',(0.004,-0.0238,0.));
#1796=CARTESIAN_POINT('',(0.004,-0.0238,-0.00375));
#1797=CARTESIAN_POINT('',(0.0452,-0.0399,-0.00375));
#1798=CARTESIAN_POINT('',(0.0452,-0.065,0.002));
#1799=CARTESIAN_POINT('',(0.0452,-0.0399,-0.00375));
#1800=CARTESIAN_POINT('',(0.0201,-0.0399,-0.00375));
#1801=CARTESIAN_POINT('',(0.0201,-0.0399,0.));
#1802=CARTESIAN_POINT('',(0.0368,-0.0566,0.));
#1803=CARTESIAN_POINT('',(0.0386571428571429,-0.0566,0.));
#1804=CARTESIAN_POINT('',(0.0340786796564404,-0.0538786796564404,0.));
#1805=CARTESIAN_POINT('',(0.0201,-0.0399,0.));
#1806=CARTESIAN_POINT('',(0.0034,-0.0232,0.));
#1807=CARTESIAN_POINT('',(0.00525714285714285,-0.0232,0.));
#1808=CARTESIAN_POINT('',(0.00612132034355964,-0.0259213203435597,0.));
#1809=CARTESIAN_POINT('',(0.0201,-0.0399,0.));
#1810=CARTESIAN_POINT('',(0.0034,-0.0566,0.));
#1811=CARTESIAN_POINT('',(0.00525714285714285,-0.0566,0.));
#1812=CARTESIAN_POINT('',(0.00612132034355965,-0.0538786796564404,0.));
#1813=CARTESIAN_POINT('',(0.00612132034355965,-0.0538786796564404,0.005));
#1814=CARTESIAN_POINT('',(0.00612132034355965,-0.0538786796564404,0.005));
#1815=CARTESIAN_POINT('',(0.00612132034355964,-0.0259213203435597,0.005));
#1816=CARTESIAN_POINT('',(0.00612132034355964,-0.0259213203435597,0.005));
#1817=CARTESIAN_POINT('',(0.0340786796564404,-0.0259213203435597,0.005));
#1818=CARTESIAN_POINT('',(0.0340786796564404,-0.0259213203435597,0.));
#1819=CARTESIAN_POINT('',(0.0340786796564404,-0.0259213203435597,0.005));
#1820=CARTESIAN_POINT('',(0.0340786796564404,-0.0538786796564404,0.005));
#1821=CARTESIAN_POINT('',(0.0340786796564404,-0.0538786796564404,0.005));
#1822=CARTESIAN_POINT('',(0.0201,-0.0399,0.005));
#1823=CARTESIAN_POINT('',(0.0034,-0.0566,0.005));
#1824=CARTESIAN_POINT('',(0.0059,-0.0566,0.005));
#1825=CARTESIAN_POINT('',(0.0368,-0.0566,0.005));
#1826=CARTESIAN_POINT('',(0.0393,-0.0566,0.005));
#1827=CARTESIAN_POINT('',(0.0368,-0.0232,0.005));
#1828=CARTESIAN_POINT('',(0.0393,-0.0232,0.005));
#1829=CARTESIAN_POINT('',(0.0034,-0.0232,0.005));
#1830=CARTESIAN_POINT('',(0.0059,-0.0232,0.005));
#1831=CARTESIAN_POINT('',(0.0201,-0.062,0.005));
#1832=CARTESIAN_POINT('',(-0.002,-0.062,0.005));
#1833=CARTESIAN_POINT('',(0.0422,-0.062,0.005));
#1834=CARTESIAN_POINT('',(0.0422,-0.0148,0.005));
#1835=CARTESIAN_POINT('',(0.0422,-0.0178,0.005));
#1836=CARTESIAN_POINT('',(-0.005,-0.0178,0.005));
#1837=CARTESIAN_POINT('',(-0.002,-0.0178,0.005));
#1838=CARTESIAN_POINT('',(-0.002,-0.0399,0.005));
#1839=CARTESIAN_POINT('',(0.0201,-0.0399,0.));
#1840=CARTESIAN_POINT('',(0.0368,-0.0232,0.));
#1841=CARTESIAN_POINT('',(0.0386571428571429,-0.0232,0.));
#1842=CARTESIAN_POINT('',(-0.002,-0.0399,0.005));
#1843=CARTESIAN_POINT('',(0.00536666666666667,-0.0546333333333333,0.0123666666666667));
#1844=CARTESIAN_POINT('',(0.00536666666666666,-0.0251666666666666,0.0123666666666667));
#1845=CARTESIAN_POINT('',(0.0201,-0.0148,0.002));
#1846=CARTESIAN_POINT('',(0.0368333333333333,-0.0231666666666667,0.0103666666666667));
#1847=CARTESIAN_POINT('',(0.0201,-0.062,0.005));
#1848=CARTESIAN_POINT('',(0.0348333333333333,-0.0546333333333333,0.0123666666666667));
#1849=CARTESIAN_POINT('',(0.0452,-0.0399,0.002));
#1850=CARTESIAN_POINT('',(0.0034,-0.0566,-0.002));
#1851=CARTESIAN_POINT('',(0.0368,-0.0566,-0.002));
#1852=CARTESIAN_POINT('',(0.0368,-0.0232,-0.002));
#1853=CARTESIAN_POINT('',(0.0034,-0.0232,-0.002));
#1854=CARTESIAN_POINT('',(0.0186,0.101621047685126,0.00075));
#1855=CARTESIAN_POINT('',(0.0186,0.101621047685126,0.0015));
#1856=CARTESIAN_POINT('',(0.0186,0.101621047685126,0.));
#1857=CARTESIAN_POINT('',(0.0201,0.101621047685126,0.));
#1858=CARTESIAN_POINT('',(0.0216,0.101621047685126,0.));
#1859=CARTESIAN_POINT('',(0.0216,0.101621047685126,0.00075));
#1860=CARTESIAN_POINT('',(0.0216,0.101621047685126,0.0015));
#1861=CARTESIAN_POINT('',(0.0201,0.101621047685126,0.0015));
#1862=CARTESIAN_POINT('',(0.,0.,0.));
#1863=CARTESIAN_POINT('',(0.0201,0.0452,-0.00375));
#1864=CARTESIAN_POINT('',(-0.005,0.0452,-0.00375));
#1865=CARTESIAN_POINT('',(-0.005,0.0452,-0.00375));
#1866=CARTESIAN_POINT('',(-0.005,0.0452,0.002));
#1867=CARTESIAN_POINT('',(0.0452,0.0452,0.002));
#1868=CARTESIAN_POINT('',(0.0452,0.0452,0.002));
#1869=CARTESIAN_POINT('',(0.0452,0.0452,-0.00375));
#1870=CARTESIAN_POINT('',(0.0452,0.0452,-0.00375));
#1871=CARTESIAN_POINT('',(0.0201,0.0452,-0.00375));
#1872=CARTESIAN_POINT('',(-0.005,0.0201,-0.00375));
#1873=CARTESIAN_POINT('',(-0.005,-0.005,-0.00375));
#1874=CARTESIAN_POINT('',(-0.005,-0.005,-0.00375));
#1875=CARTESIAN_POINT('',(-0.005,-0.005,0.002));
#1876=CARTESIAN_POINT('',(-0.005,0.0201,0.002));
#1877=CARTESIAN_POINT('',(-0.005,0.0201,-0.00375));
#1878=CARTESIAN_POINT('',(0.0201,-0.005,-0.00375));
#1879=CARTESIAN_POINT('',(0.0452,-0.005,-0.00375));
#1880=CARTESIAN_POINT('',(0.0452,-0.005,-0.00375));
#1881=CARTESIAN_POINT('',(0.0452,-0.005,0.002));
#1882=CARTESIAN_POINT('',(0.0201,-0.005,0.002));
#1883=CARTESIAN_POINT('',(0.0201,-0.005,-0.00375));
#1884=CARTESIAN_POINT('',(0.0362,0.0362,-0.00375));
#1885=CARTESIAN_POINT('',(0.0362,0.0362,0.));
#1886=CARTESIAN_POINT('',(0.0402,0.0362,0.));
#1887=CARTESIAN_POINT('',(0.0362,0.0402,0.));
#1888=CARTESIAN_POINT('',(0.0362,0.0402,-0.00375));
#1889=CARTESIAN_POINT('',(0.0362,0.0402,-0.00375));
#1890=CARTESIAN_POINT('',(0.0362,0.0362,-0.00375));
#1891=CARTESIAN_POINT('',(0.0402,0.0362,-0.00375));
#1892=CARTESIAN_POINT('',(0.0402,0.0362,-0.00375));
#1893=CARTESIAN_POINT('',(0.0402,0.0201,-0.00375));
#1894=CARTESIAN_POINT('',(0.0402,0.0201,0.));
#1895=CARTESIAN_POINT('',(0.0402,0.004,0.));
#1896=CARTESIAN_POINT('',(0.0402,0.0122426406871192,0.));
#1897=CARTESIAN_POINT('',(0.0402,0.0122426406871192,0.005));
#1898=CARTESIAN_POINT('',(0.0402,0.0122426406871192,0.005));
#1899=CARTESIAN_POINT('',(0.0402,0.0201,0.005));
#1900=CARTESIAN_POINT('',(0.0402,0.0279573593128807,0.005));
#1901=CARTESIAN_POINT('',(0.0402,0.0279573593128807,0.005));
#1902=CARTESIAN_POINT('',(0.0402,0.0279573593128807,0.));
#1903=CARTESIAN_POINT('',(0.0402,0.0201,0.));
#1904=CARTESIAN_POINT('',(0.0402,0.0201,-0.00375));
#1905=CARTESIAN_POINT('',(0.0402,0.004,-0.00375));
#1906=CARTESIAN_POINT('',(0.0402,0.004,-0.00375));
#1907=CARTESIAN_POINT('',(0.0362,0.004,-0.00375));
#1908=CARTESIAN_POINT('',(0.0362,0.004,0.));
#1909=CARTESIAN_POINT('',(0.0362,0.,0.));
#1910=CARTESIAN_POINT('',(0.0362,0.004,-0.00375));
#1911=CARTESIAN_POINT('',(0.0362,0.,-0.00375));
#1912=CARTESIAN_POINT('',(0.0362,0.,-0.00375));
#1913=CARTESIAN_POINT('',(0.0201,0.,-0.00375));
#1914=CARTESIAN_POINT('',(0.0201,0.,0.));
#1915=CARTESIAN_POINT('',(0.004,0.,0.));
#1916=CARTESIAN_POINT('',(0.0122426406871193,-1.3010426069826E-18,0.));
#1917=CARTESIAN_POINT('',(0.0122426406871193,-8.67361737988404E-19,0.005));
#1918=CARTESIAN_POINT('',(0.0122426406871193,-8.67361737988404E-19,0.005));
#1919=CARTESIAN_POINT('',(0.0201,-8.36931789034469E-19,0.005));
#1920=CARTESIAN_POINT('',(0.0279573593128807,-1.45985878967664E-18,0.005));
#1921=CARTESIAN_POINT('',(0.0279573593128807,-1.45985878967664E-18,0.005));
#1922=CARTESIAN_POINT('',(0.0279573593128808,-4.33680868994202E-19,0.));
#1923=CARTESIAN_POINT('',(0.0201,0.,0.));
#1924=CARTESIAN_POINT('',(0.0201,0.,-0.00375));
#1925=CARTESIAN_POINT('',(0.004,0.,-0.00375));
#1926=CARTESIAN_POINT('',(0.004,0.,-0.00375));
#1927=CARTESIAN_POINT('',(0.004,0.004,-0.00375));
#1928=CARTESIAN_POINT('',(0.004,0.004,0.));
#1929=CARTESIAN_POINT('',(0.,0.004,0.));
#1930=CARTESIAN_POINT('',(0.004,0.004,-0.00375));
#1931=CARTESIAN_POINT('',(0.,0.004,-0.00375));
#1932=CARTESIAN_POINT('',(0.,0.004,-0.00375));
#1933=CARTESIAN_POINT('',(0.,0.0201,-0.00375));
#1934=CARTESIAN_POINT('',(0.,0.0201,0.));
#1935=CARTESIAN_POINT('',(-8.67361737988404E-19,0.0122426406871192,0.));
#1936=CARTESIAN_POINT('',(0.,0.0201,-0.00375));
#1937=CARTESIAN_POINT('',(0.,0.0362,-0.00375));
#1938=CARTESIAN_POINT('',(0.,0.0362,-0.00375));
#1939=CARTESIAN_POINT('',(0.,0.0362,0.));
#1940=CARTESIAN_POINT('',(0.,0.0201,0.));
#1941=CARTESIAN_POINT('',(4.33680868994202E-19,0.0279573593128808,0.));
#1942=CARTESIAN_POINT('',(-1.21430643318376E-17,0.0279573593128808,0.005));
#1943=CARTESIAN_POINT('',(-1.21430643318376E-17,0.0279573593128808,0.005));
#1944=CARTESIAN_POINT('',(0.,0.0201,0.005));
#1945=CARTESIAN_POINT('',(4.33680868994202E-18,0.0122426406871192,0.005));
#1946=CARTESIAN_POINT('',(4.33680868994202E-18,0.0122426406871192,0.005));
#1947=CARTESIAN_POINT('',(0.004,0.0362,-0.00375));
#1948=CARTESIAN_POINT('',(0.004,0.0362,0.));
#1949=CARTESIAN_POINT('',(0.004,0.0402,0.));
#1950=CARTESIAN_POINT('',(0.004,0.0362,-0.00375));
#1951=CARTESIAN_POINT('',(0.004,0.0402,-0.00375));
#1952=CARTESIAN_POINT('',(0.004,0.0402,-0.00375));
#1953=CARTESIAN_POINT('',(0.0201,0.0402,-0.00375));
#1954=CARTESIAN_POINT('',(0.0201,0.0402,0.));
#1955=CARTESIAN_POINT('',(0.0122426406871193,0.0402,0.));
#1956=CARTESIAN_POINT('',(0.0201,0.0402,-0.00375));
#1957=CARTESIAN_POINT('',(0.0201,0.0402,0.));
#1958=CARTESIAN_POINT('',(0.0279573593128807,0.0402,0.));
#1959=CARTESIAN_POINT('',(0.0279573593128807,0.0402,0.005));
#1960=CARTESIAN_POINT('',(0.0279573593128807,0.0402,0.005));
#1961=CARTESIAN_POINT('',(0.0201,0.0402,0.005));
#1962=CARTESIAN_POINT('',(0.0122426406871193,0.0402,0.005));
#1963=CARTESIAN_POINT('',(0.0122426406871193,0.0402,0.005));
#1964=CARTESIAN_POINT('',(0.0452,0.0201,-0.00375));
#1965=CARTESIAN_POINT('',(0.0452,-0.005,0.002));
#1966=CARTESIAN_POINT('',(0.0452,0.0201,-0.00375));
#1967=CARTESIAN_POINT('',(0.0201,0.0201,-0.00375));
#1968=CARTESIAN_POINT('',(0.0201,0.0201,0.));
#1969=CARTESIAN_POINT('',(0.0340786796564404,0.00612132034355959,0.));
#1970=CARTESIAN_POINT('',(0.0368,0.0034,0.));
#1971=CARTESIAN_POINT('',(0.0384,0.0034,0.));
#1972=CARTESIAN_POINT('',(0.0201,0.0201,0.));
#1973=CARTESIAN_POINT('',(0.0034,0.0368,0.));
#1974=CARTESIAN_POINT('',(0.005,0.0368,0.));
#1975=CARTESIAN_POINT('',(0.00612132034355964,0.0340786796564404,0.));
#1976=CARTESIAN_POINT('',(0.0201,0.0201,0.));
#1977=CARTESIAN_POINT('',(0.00612132034355965,0.00612132034355961,0.));
#1978=CARTESIAN_POINT('',(0.0034,0.0034,0.));
#1979=CARTESIAN_POINT('',(0.005,0.0034,0.));
#1980=CARTESIAN_POINT('',(0.00612132034355965,0.00612132034355961,0.005));
#1981=CARTESIAN_POINT('',(0.00612132034355965,0.00612132034355961,0.005));
#1982=CARTESIAN_POINT('',(0.00612132034355964,0.0340786796564404,0.005));
#1983=CARTESIAN_POINT('',(0.00612132034355964,0.0340786796564404,0.005));
#1984=CARTESIAN_POINT('',(0.0340786796564404,0.0340786796564404,0.005));
#1985=CARTESIAN_POINT('',(0.0340786796564404,0.0340786796564404,0.));
#1986=CARTESIAN_POINT('',(0.0340786796564404,0.0340786796564404,0.005));
#1987=CARTESIAN_POINT('',(0.0340786796564404,0.00612132034355959,0.005));
#1988=CARTESIAN_POINT('',(0.0340786796564404,0.00612132034355959,0.005));
#1989=CARTESIAN_POINT('',(0.0034,0.0368,0.005));
#1990=CARTESIAN_POINT('',(0.0034,0.0368,0.005));
#1991=CARTESIAN_POINT('',(0.005,0.0368,0.005));
#1992=CARTESIAN_POINT('',(0.0368,0.0368,0.005));
#1993=CARTESIAN_POINT('',(0.0368,0.0368,0.005));
#1994=CARTESIAN_POINT('',(0.0384,0.0368,0.005));
#1995=CARTESIAN_POINT('',(0.0368,0.0368,0.));
#1996=CARTESIAN_POINT('',(0.0384,0.0368,0.));
#1997=CARTESIAN_POINT('',(0.0368,0.0034,0.005));
#1998=CARTESIAN_POINT('',(0.0368,0.0034,0.005));
#1999=CARTESIAN_POINT('',(0.0384,0.0034,0.005));
#2000=CARTESIAN_POINT('',(0.0034,0.0034,0.005));
#2001=CARTESIAN_POINT('',(0.0034,0.0034,0.005));
#2002=CARTESIAN_POINT('',(0.005,0.0034,0.005));
#2003=CARTESIAN_POINT('',(0.0201,0.0201,0.005));
#2004=CARTESIAN_POINT('',(0.0201,-0.002,0.005));
#2005=CARTESIAN_POINT('',(-0.002,-0.002,0.005));
#2006=CARTESIAN_POINT('',(0.0422,-0.002,0.005));
#2007=CARTESIAN_POINT('',(0.0422,0.0452,0.005));
#2008=CARTESIAN_POINT('',(0.0422,0.0422,0.005));
#2009=CARTESIAN_POINT('',(-0.005,0.0422,0.005));
#2010=CARTESIAN_POINT('',(-0.002,0.0422,0.005));
#2011=CARTESIAN_POINT('',(-0.002,0.0201,0.005));
#2012=CARTESIAN_POINT('',(0.0201,0.0201,0.));
#2013=CARTESIAN_POINT('',(-0.002,0.0201,0.005));
#2014=CARTESIAN_POINT('',(0.00536666666666667,0.00536666666666666,0.0123666666666667));
#2015=CARTESIAN_POINT('',(0.00536666666666666,0.0348333333333333,0.0123666666666667));
#2016=CARTESIAN_POINT('',(0.0201,0.0452,0.002));
#2017=CARTESIAN_POINT('',(0.0368333333333333,0.0368333333333333,0.0103666666666667));
#2018=CARTESIAN_POINT('',(0.0201,-0.002,0.005));
#2019=CARTESIAN_POINT('',(0.0348333333333333,0.00536666666666667,0.0123666666666667));
#2020=CARTESIAN_POINT('',(0.0452,0.0201,0.002));
#2021=MECHANICAL_DESIGN_GEOMETRIC_PRESENTATION_REPRESENTATION('',(#1232),
#2023);
#2022=MECHANICAL_DESIGN_GEOMETRIC_PRESENTATION_REPRESENTATION('',(#1233),
#2024);
#2023=(
GEOMETRIC_REPRESENTATION_CONTEXT(3)
GLOBAL_UNCERTAINTY_ASSIGNED_CONTEXT((#2025))
GLOBAL_UNIT_ASSIGNED_CONTEXT((#2031,#2029,#2027))
REPRESENTATION_CONTEXT('Inner','TOP_LEVEL_ASSEMBLY_PART')
);
#2024=(
GEOMETRIC_REPRESENTATION_CONTEXT(3)
GLOBAL_UNCERTAINTY_ASSIGNED_CONTEXT((#2026))
GLOBAL_UNIT_ASSIGNED_CONTEXT((#2032,#2030,#2028))
REPRESENTATION_CONTEXT('Outer','TOP_LEVEL_ASSEMBLY_PART')
);
#2025=UNCERTAINTY_MEASURE_WITH_UNIT(LENGTH_MEASURE(1.E-8),#2031,
'DISTANCE_ACCURACY_VALUE','Maximum Tolerance applied to model');
#2026=UNCERTAINTY_MEASURE_WITH_UNIT(LENGTH_MEASURE(1.E-8),#2032,
'DISTANCE_ACCURACY_VALUE','Maximum Tolerance applied to model');
#2027=(
NAMED_UNIT(*)
SI_UNIT($,.STERADIAN.)
SOLID_ANGLE_UNIT()
);
#2028=(
NAMED_UNIT(*)
SI_UNIT($,.STERADIAN.)
SOLID_ANGLE_UNIT()
);
#2029=(
NAMED_UNIT(*)
PLANE_ANGLE_UNIT()
SI_UNIT($,.RADIAN.)
);
#2030=(
NAMED_UNIT(*)
PLANE_ANGLE_UNIT()
SI_UNIT($,.RADIAN.)
);
#2031=(
LENGTH_UNIT()
NAMED_UNIT(*)
SI_UNIT($,.METRE.)
);
#2032=(
LENGTH_UNIT()
NAMED_UNIT(*)
SI_UNIT($,.METRE.)
);
#2033=PRODUCT_DEFINITION_SHAPE('','',#2035);
#2034=PRODUCT_DEFINITION_SHAPE('','',#2036);
#2035=PRODUCT_DEFINITION('','',#2039,#2037);
#2036=PRODUCT_DEFINITION('','',#2040,#2038);
#2037=PRODUCT_DEFINITION_CONTEXT('',#2051,'design');
#2038=PRODUCT_DEFINITION_CONTEXT('',#2052,'design');
#2039=PRODUCT_DEFINITION_FORMATION_WITH_SPECIFIED_SOURCE('','',#2043,
 .NOT_KNOWN.);
#2040=PRODUCT_DEFINITION_FORMATION_WITH_SPECIFIED_SOURCE('','',#2044,
 .NOT_KNOWN.);
#2041=PRODUCT_RELATED_PRODUCT_CATEGORY('','',(#2043));
#2042=PRODUCT_RELATED_PRODUCT_CATEGORY('','',(#2044));
#2043=PRODUCT('Inner','Inner','Inner',(#2047));
#2044=PRODUCT('Outer','Outer','Outer',(#2048));
#2045=PRODUCT_CATEGORY('','');
#2046=PRODUCT_CATEGORY('','');
#2047=PRODUCT_CONTEXT('',#2051,'mechanical');
#2048=PRODUCT_CONTEXT('',#2052,'mechanical');
#2049=APPLICATION_PROTOCOL_DEFINITION('international standard',
'ap242_managed_model_based_3d_engineering',2011,#2051);
#2050=APPLICATION_PROTOCOL_DEFINITION('international standard',
'ap242_managed_model_based_3d_engineering',2011,#2052);
#2051=APPLICATION_CONTEXT('managed model based 3d engineering');
#2052=APPLICATION_CONTEXT('managed model based 3d engineering');
ENDSEC;
END-ISO-10303-21;
