ISO-10303-21;
HEADER;
/* Generated by software containing ST-Developer
 * from STEP Tools, Inc. (www.steptools.com) 
 */
/* OPTION: using custom renumber hook */

FILE_DESCRIPTION(
/* description */ ('STEP AP242',
'CAx-IF Rec.Pracs.---Representation and Presentation of Product Manufa
cturing Information (PMI)---4.0---2014-10-13',
'CAx-IF Rec.Pracs.---3D Tessellated Geometry---0.4---2014-09-14','2;1'),

/* implementation_level */ '2;1');

FILE_NAME(
/* name */ '68b6bdd5bc76afd7bab9cb2e',
/* time_stamp */ '2025-09-02T09:50:14Z',
/* author */ (''),
/* organization */ (''),
/* preprocessor_version */ 'ST-DEVELOPER v20',
/* originating_system */ 'ONSHAPE BY PTC INC, 1.203',
/* authorisation */ '  ');

FILE_SCHEMA (('AP242_MANAGED_MODEL_BASED_3D_ENGINEERING_MIM_LF { 1 0 10303 442 1 1 4 }'));
ENDSEC;

DATA;
#10=SHAPE_REPRESENTATION_RELATIONSHIP('','',#928,#15);
#11=SHAPE_REPRESENTATION_RELATIONSHIP('','',#929,#16);
#12=SHAPE_REPRESENTATION_RELATIONSHIP('','',#930,#17);
#13=SHAPE_REPRESENTATION_RELATIONSHIP('','',#931,#18);
#14=SHAPE_REPRESENTATION_RELATIONSHIP('','',#932,#19);
#15=ADVANCED_BREP_SHAPE_REPRESENTATION('',(#918),#1466);
#16=ADVANCED_BREP_SHAPE_REPRESENTATION('',(#919),#1467);
#17=ADVANCED_BREP_SHAPE_REPRESENTATION('',(#920),#1468);
#18=ADVANCED_BREP_SHAPE_REPRESENTATION('',(#921),#1469);
#19=ADVANCED_BREP_SHAPE_REPRESENTATION('',(#922),#1470);
#20=ORIENTED_EDGE('',*,*,#252,.F.);
#21=ORIENTED_EDGE('',*,*,#253,.F.);
#22=ORIENTED_EDGE('',*,*,#254,.T.);
#23=ORIENTED_EDGE('',*,*,#255,.T.);
#24=ORIENTED_EDGE('',*,*,#256,.T.);
#25=ORIENTED_EDGE('',*,*,#257,.F.);
#26=ORIENTED_EDGE('',*,*,#258,.F.);
#27=ORIENTED_EDGE('',*,*,#253,.T.);
#28=ORIENTED_EDGE('',*,*,#259,.T.);
#29=ORIENTED_EDGE('',*,*,#260,.F.);
#30=ORIENTED_EDGE('',*,*,#261,.F.);
#31=ORIENTED_EDGE('',*,*,#257,.T.);
#32=ORIENTED_EDGE('',*,*,#262,.F.);
#33=ORIENTED_EDGE('',*,*,#255,.F.);
#34=ORIENTED_EDGE('',*,*,#263,.T.);
#35=ORIENTED_EDGE('',*,*,#260,.T.);
#36=ORIENTED_EDGE('',*,*,#254,.F.);
#37=ORIENTED_EDGE('',*,*,#258,.T.);
#38=ORIENTED_EDGE('',*,*,#261,.T.);
#39=ORIENTED_EDGE('',*,*,#263,.F.);
#40=ORIENTED_EDGE('',*,*,#252,.T.);
#41=ORIENTED_EDGE('',*,*,#264,.F.);
#42=ORIENTED_EDGE('',*,*,#265,.F.);
#43=ORIENTED_EDGE('',*,*,#266,.T.);
#44=ORIENTED_EDGE('',*,*,#256,.F.);
#45=ORIENTED_EDGE('',*,*,#266,.F.);
#46=ORIENTED_EDGE('',*,*,#267,.T.);
#47=ORIENTED_EDGE('',*,*,#268,.T.);
#48=ORIENTED_EDGE('',*,*,#259,.F.);
#49=ORIENTED_EDGE('',*,*,#268,.F.);
#50=ORIENTED_EDGE('',*,*,#269,.T.);
#51=ORIENTED_EDGE('',*,*,#270,.T.);
#52=ORIENTED_EDGE('',*,*,#262,.T.);
#53=ORIENTED_EDGE('',*,*,#270,.F.);
#54=ORIENTED_EDGE('',*,*,#271,.F.);
#55=ORIENTED_EDGE('',*,*,#264,.T.);
#56=ORIENTED_EDGE('',*,*,#265,.T.);
#57=ORIENTED_EDGE('',*,*,#271,.T.);
#58=ORIENTED_EDGE('',*,*,#269,.F.);
#59=ORIENTED_EDGE('',*,*,#267,.F.);
#60=ORIENTED_EDGE('',*,*,#272,.F.);
#61=ORIENTED_EDGE('',*,*,#273,.F.);
#62=ORIENTED_EDGE('',*,*,#274,.T.);
#63=ORIENTED_EDGE('',*,*,#275,.T.);
#64=ORIENTED_EDGE('',*,*,#276,.F.);
#65=ORIENTED_EDGE('',*,*,#277,.F.);
#66=ORIENTED_EDGE('',*,*,#278,.T.);
#67=ORIENTED_EDGE('',*,*,#273,.T.);
#68=ORIENTED_EDGE('',*,*,#279,.F.);
#69=ORIENTED_EDGE('',*,*,#280,.F.);
#70=ORIENTED_EDGE('',*,*,#281,.T.);
#71=ORIENTED_EDGE('',*,*,#277,.T.);
#72=ORIENTED_EDGE('',*,*,#282,.F.);
#73=ORIENTED_EDGE('',*,*,#283,.F.);
#74=ORIENTED_EDGE('',*,*,#284,.T.);
#75=ORIENTED_EDGE('',*,*,#280,.T.);
#76=ORIENTED_EDGE('',*,*,#285,.F.);
#77=ORIENTED_EDGE('',*,*,#286,.F.);
#78=ORIENTED_EDGE('',*,*,#287,.T.);
#79=ORIENTED_EDGE('',*,*,#283,.T.);
#80=ORIENTED_EDGE('',*,*,#288,.F.);
#81=ORIENTED_EDGE('',*,*,#289,.F.);
#82=ORIENTED_EDGE('',*,*,#290,.T.);
#83=ORIENTED_EDGE('',*,*,#286,.T.);
#84=ORIENTED_EDGE('',*,*,#291,.F.);
#85=ORIENTED_EDGE('',*,*,#292,.F.);
#86=ORIENTED_EDGE('',*,*,#293,.T.);
#87=ORIENTED_EDGE('',*,*,#289,.T.);
#88=ORIENTED_EDGE('',*,*,#294,.F.);
#89=ORIENTED_EDGE('',*,*,#275,.F.);
#90=ORIENTED_EDGE('',*,*,#295,.T.);
#91=ORIENTED_EDGE('',*,*,#292,.T.);
#92=ORIENTED_EDGE('',*,*,#274,.F.);
#93=ORIENTED_EDGE('',*,*,#278,.F.);
#94=ORIENTED_EDGE('',*,*,#281,.F.);
#95=ORIENTED_EDGE('',*,*,#284,.F.);
#96=ORIENTED_EDGE('',*,*,#287,.F.);
#97=ORIENTED_EDGE('',*,*,#290,.F.);
#98=ORIENTED_EDGE('',*,*,#293,.F.);
#99=ORIENTED_EDGE('',*,*,#295,.F.);
#100=ORIENTED_EDGE('',*,*,#272,.T.);
#101=ORIENTED_EDGE('',*,*,#294,.T.);
#102=ORIENTED_EDGE('',*,*,#291,.T.);
#103=ORIENTED_EDGE('',*,*,#288,.T.);
#104=ORIENTED_EDGE('',*,*,#285,.T.);
#105=ORIENTED_EDGE('',*,*,#282,.T.);
#106=ORIENTED_EDGE('',*,*,#279,.T.);
#107=ORIENTED_EDGE('',*,*,#276,.T.);
#108=ORIENTED_EDGE('',*,*,#296,.F.);
#109=ORIENTED_EDGE('',*,*,#297,.F.);
#110=ORIENTED_EDGE('',*,*,#298,.T.);
#111=ORIENTED_EDGE('',*,*,#299,.T.);
#112=ORIENTED_EDGE('',*,*,#300,.F.);
#113=ORIENTED_EDGE('',*,*,#301,.F.);
#114=ORIENTED_EDGE('',*,*,#302,.T.);
#115=ORIENTED_EDGE('',*,*,#297,.T.);
#116=ORIENTED_EDGE('',*,*,#303,.F.);
#117=ORIENTED_EDGE('',*,*,#304,.F.);
#118=ORIENTED_EDGE('',*,*,#305,.T.);
#119=ORIENTED_EDGE('',*,*,#301,.T.);
#120=ORIENTED_EDGE('',*,*,#306,.F.);
#121=ORIENTED_EDGE('',*,*,#307,.F.);
#122=ORIENTED_EDGE('',*,*,#308,.T.);
#123=ORIENTED_EDGE('',*,*,#304,.T.);
#124=ORIENTED_EDGE('',*,*,#309,.F.);
#125=ORIENTED_EDGE('',*,*,#310,.F.);
#126=ORIENTED_EDGE('',*,*,#311,.T.);
#127=ORIENTED_EDGE('',*,*,#307,.T.);
#128=ORIENTED_EDGE('',*,*,#312,.F.);
#129=ORIENTED_EDGE('',*,*,#313,.F.);
#130=ORIENTED_EDGE('',*,*,#314,.T.);
#131=ORIENTED_EDGE('',*,*,#310,.T.);
#132=ORIENTED_EDGE('',*,*,#315,.F.);
#133=ORIENTED_EDGE('',*,*,#316,.F.);
#134=ORIENTED_EDGE('',*,*,#317,.T.);
#135=ORIENTED_EDGE('',*,*,#313,.T.);
#136=ORIENTED_EDGE('',*,*,#318,.F.);
#137=ORIENTED_EDGE('',*,*,#299,.F.);
#138=ORIENTED_EDGE('',*,*,#319,.T.);
#139=ORIENTED_EDGE('',*,*,#316,.T.);
#140=ORIENTED_EDGE('',*,*,#298,.F.);
#141=ORIENTED_EDGE('',*,*,#302,.F.);
#142=ORIENTED_EDGE('',*,*,#305,.F.);
#143=ORIENTED_EDGE('',*,*,#308,.F.);
#144=ORIENTED_EDGE('',*,*,#311,.F.);
#145=ORIENTED_EDGE('',*,*,#314,.F.);
#146=ORIENTED_EDGE('',*,*,#317,.F.);
#147=ORIENTED_EDGE('',*,*,#319,.F.);
#148=ORIENTED_EDGE('',*,*,#296,.T.);
#149=ORIENTED_EDGE('',*,*,#318,.T.);
#150=ORIENTED_EDGE('',*,*,#315,.T.);
#151=ORIENTED_EDGE('',*,*,#312,.T.);
#152=ORIENTED_EDGE('',*,*,#309,.T.);
#153=ORIENTED_EDGE('',*,*,#306,.T.);
#154=ORIENTED_EDGE('',*,*,#303,.T.);
#155=ORIENTED_EDGE('',*,*,#300,.T.);
#156=ORIENTED_EDGE('',*,*,#320,.F.);
#157=ORIENTED_EDGE('',*,*,#321,.F.);
#158=ORIENTED_EDGE('',*,*,#322,.T.);
#159=ORIENTED_EDGE('',*,*,#323,.T.);
#160=ORIENTED_EDGE('',*,*,#324,.F.);
#161=ORIENTED_EDGE('',*,*,#325,.F.);
#162=ORIENTED_EDGE('',*,*,#326,.T.);
#163=ORIENTED_EDGE('',*,*,#321,.T.);
#164=ORIENTED_EDGE('',*,*,#327,.F.);
#165=ORIENTED_EDGE('',*,*,#328,.F.);
#166=ORIENTED_EDGE('',*,*,#329,.T.);
#167=ORIENTED_EDGE('',*,*,#325,.T.);
#168=ORIENTED_EDGE('',*,*,#330,.F.);
#169=ORIENTED_EDGE('',*,*,#331,.F.);
#170=ORIENTED_EDGE('',*,*,#332,.T.);
#171=ORIENTED_EDGE('',*,*,#328,.T.);
#172=ORIENTED_EDGE('',*,*,#333,.F.);
#173=ORIENTED_EDGE('',*,*,#334,.F.);
#174=ORIENTED_EDGE('',*,*,#335,.T.);
#175=ORIENTED_EDGE('',*,*,#331,.T.);
#176=ORIENTED_EDGE('',*,*,#336,.F.);
#177=ORIENTED_EDGE('',*,*,#337,.F.);
#178=ORIENTED_EDGE('',*,*,#338,.T.);
#179=ORIENTED_EDGE('',*,*,#334,.T.);
#180=ORIENTED_EDGE('',*,*,#339,.F.);
#181=ORIENTED_EDGE('',*,*,#340,.F.);
#182=ORIENTED_EDGE('',*,*,#341,.T.);
#183=ORIENTED_EDGE('',*,*,#337,.T.);
#184=ORIENTED_EDGE('',*,*,#342,.F.);
#185=ORIENTED_EDGE('',*,*,#323,.F.);
#186=ORIENTED_EDGE('',*,*,#343,.T.);
#187=ORIENTED_EDGE('',*,*,#340,.T.);
#188=ORIENTED_EDGE('',*,*,#322,.F.);
#189=ORIENTED_EDGE('',*,*,#326,.F.);
#190=ORIENTED_EDGE('',*,*,#329,.F.);
#191=ORIENTED_EDGE('',*,*,#332,.F.);
#192=ORIENTED_EDGE('',*,*,#335,.F.);
#193=ORIENTED_EDGE('',*,*,#338,.F.);
#194=ORIENTED_EDGE('',*,*,#341,.F.);
#195=ORIENTED_EDGE('',*,*,#343,.F.);
#196=ORIENTED_EDGE('',*,*,#320,.T.);
#197=ORIENTED_EDGE('',*,*,#342,.T.);
#198=ORIENTED_EDGE('',*,*,#339,.T.);
#199=ORIENTED_EDGE('',*,*,#336,.T.);
#200=ORIENTED_EDGE('',*,*,#333,.T.);
#201=ORIENTED_EDGE('',*,*,#330,.T.);
#202=ORIENTED_EDGE('',*,*,#327,.T.);
#203=ORIENTED_EDGE('',*,*,#324,.T.);
#204=ORIENTED_EDGE('',*,*,#344,.F.);
#205=ORIENTED_EDGE('',*,*,#345,.F.);
#206=ORIENTED_EDGE('',*,*,#346,.T.);
#207=ORIENTED_EDGE('',*,*,#347,.T.);
#208=ORIENTED_EDGE('',*,*,#348,.F.);
#209=ORIENTED_EDGE('',*,*,#349,.F.);
#210=ORIENTED_EDGE('',*,*,#350,.T.);
#211=ORIENTED_EDGE('',*,*,#345,.T.);
#212=ORIENTED_EDGE('',*,*,#351,.F.);
#213=ORIENTED_EDGE('',*,*,#352,.F.);
#214=ORIENTED_EDGE('',*,*,#353,.T.);
#215=ORIENTED_EDGE('',*,*,#349,.T.);
#216=ORIENTED_EDGE('',*,*,#354,.F.);
#217=ORIENTED_EDGE('',*,*,#355,.F.);
#218=ORIENTED_EDGE('',*,*,#356,.T.);
#219=ORIENTED_EDGE('',*,*,#352,.T.);
#220=ORIENTED_EDGE('',*,*,#357,.F.);
#221=ORIENTED_EDGE('',*,*,#358,.F.);
#222=ORIENTED_EDGE('',*,*,#359,.T.);
#223=ORIENTED_EDGE('',*,*,#355,.T.);
#224=ORIENTED_EDGE('',*,*,#360,.F.);
#225=ORIENTED_EDGE('',*,*,#361,.F.);
#226=ORIENTED_EDGE('',*,*,#362,.T.);
#227=ORIENTED_EDGE('',*,*,#358,.T.);
#228=ORIENTED_EDGE('',*,*,#363,.F.);
#229=ORIENTED_EDGE('',*,*,#364,.F.);
#230=ORIENTED_EDGE('',*,*,#365,.T.);
#231=ORIENTED_EDGE('',*,*,#361,.T.);
#232=ORIENTED_EDGE('',*,*,#366,.F.);
#233=ORIENTED_EDGE('',*,*,#347,.F.);
#234=ORIENTED_EDGE('',*,*,#367,.T.);
#235=ORIENTED_EDGE('',*,*,#364,.T.);
#236=ORIENTED_EDGE('',*,*,#346,.F.);
#237=ORIENTED_EDGE('',*,*,#350,.F.);
#238=ORIENTED_EDGE('',*,*,#353,.F.);
#239=ORIENTED_EDGE('',*,*,#356,.F.);
#240=ORIENTED_EDGE('',*,*,#359,.F.);
#241=ORIENTED_EDGE('',*,*,#362,.F.);
#242=ORIENTED_EDGE('',*,*,#365,.F.);
#243=ORIENTED_EDGE('',*,*,#367,.F.);
#244=ORIENTED_EDGE('',*,*,#344,.T.);
#245=ORIENTED_EDGE('',*,*,#366,.T.);
#246=ORIENTED_EDGE('',*,*,#363,.T.);
#247=ORIENTED_EDGE('',*,*,#360,.T.);
#248=ORIENTED_EDGE('',*,*,#357,.T.);
#249=ORIENTED_EDGE('',*,*,#354,.T.);
#250=ORIENTED_EDGE('',*,*,#351,.T.);
#251=ORIENTED_EDGE('',*,*,#348,.T.);
#252=EDGE_CURVE('',#368,#369,#444,.T.);
#253=EDGE_CURVE('',#370,#368,#445,.F.);
#254=EDGE_CURVE('',#370,#371,#446,.T.);
#255=EDGE_CURVE('',#371,#369,#447,.T.);
#256=EDGE_CURVE('',#368,#372,#448,.F.);
#257=EDGE_CURVE('',#373,#372,#449,.T.);
#258=EDGE_CURVE('',#370,#373,#450,.F.);
#259=EDGE_CURVE('',#372,#374,#451,.F.);
#260=EDGE_CURVE('',#375,#374,#452,.F.);
#261=EDGE_CURVE('',#373,#375,#453,.F.);
#262=EDGE_CURVE('',#369,#374,#454,.T.);
#263=EDGE_CURVE('',#371,#375,#455,.T.);
#264=EDGE_CURVE('',#376,#369,#456,.T.);
#265=EDGE_CURVE('',#377,#376,#457,.F.);
#266=EDGE_CURVE('',#377,#368,#458,.F.);
#267=EDGE_CURVE('',#377,#378,#459,.T.);
#268=EDGE_CURVE('',#378,#372,#460,.T.);
#269=EDGE_CURVE('',#378,#379,#461,.T.);
#270=EDGE_CURVE('',#379,#374,#462,.F.);
#271=EDGE_CURVE('',#376,#379,#463,.F.);
#272=EDGE_CURVE('',#380,#381,#464,.T.);
#273=EDGE_CURVE('',#382,#380,#465,.T.);
#274=EDGE_CURVE('',#382,#383,#466,.T.);
#275=EDGE_CURVE('',#383,#381,#467,.T.);
#276=EDGE_CURVE('',#384,#380,#468,.T.);
#277=EDGE_CURVE('',#385,#384,#469,.T.);
#278=EDGE_CURVE('',#385,#382,#470,.T.);
#279=EDGE_CURVE('',#386,#384,#471,.T.);
#280=EDGE_CURVE('',#387,#386,#472,.T.);
#281=EDGE_CURVE('',#387,#385,#473,.T.);
#282=EDGE_CURVE('',#388,#386,#474,.T.);
#283=EDGE_CURVE('',#389,#388,#475,.T.);
#284=EDGE_CURVE('',#389,#387,#476,.T.);
#285=EDGE_CURVE('',#390,#388,#477,.T.);
#286=EDGE_CURVE('',#391,#390,#478,.T.);
#287=EDGE_CURVE('',#391,#389,#479,.T.);
#288=EDGE_CURVE('',#392,#390,#480,.T.);
#289=EDGE_CURVE('',#393,#392,#481,.T.);
#290=EDGE_CURVE('',#393,#391,#482,.T.);
#291=EDGE_CURVE('',#394,#392,#483,.T.);
#292=EDGE_CURVE('',#395,#394,#484,.T.);
#293=EDGE_CURVE('',#395,#393,#485,.T.);
#294=EDGE_CURVE('',#381,#394,#486,.T.);
#295=EDGE_CURVE('',#383,#395,#487,.T.);
#296=EDGE_CURVE('',#396,#397,#488,.T.);
#297=EDGE_CURVE('',#398,#396,#489,.T.);
#298=EDGE_CURVE('',#398,#399,#490,.T.);
#299=EDGE_CURVE('',#399,#397,#491,.T.);
#300=EDGE_CURVE('',#400,#396,#492,.T.);
#301=EDGE_CURVE('',#401,#400,#493,.T.);
#302=EDGE_CURVE('',#401,#398,#494,.T.);
#303=EDGE_CURVE('',#402,#400,#495,.T.);
#304=EDGE_CURVE('',#403,#402,#496,.T.);
#305=EDGE_CURVE('',#403,#401,#497,.T.);
#306=EDGE_CURVE('',#404,#402,#498,.T.);
#307=EDGE_CURVE('',#405,#404,#499,.T.);
#308=EDGE_CURVE('',#405,#403,#500,.T.);
#309=EDGE_CURVE('',#406,#404,#501,.T.);
#310=EDGE_CURVE('',#407,#406,#502,.T.);
#311=EDGE_CURVE('',#407,#405,#503,.T.);
#312=EDGE_CURVE('',#408,#406,#504,.T.);
#313=EDGE_CURVE('',#409,#408,#505,.T.);
#314=EDGE_CURVE('',#409,#407,#506,.T.);
#315=EDGE_CURVE('',#410,#408,#507,.T.);
#316=EDGE_CURVE('',#411,#410,#508,.T.);
#317=EDGE_CURVE('',#411,#409,#509,.T.);
#318=EDGE_CURVE('',#397,#410,#510,.T.);
#319=EDGE_CURVE('',#399,#411,#511,.T.);
#320=EDGE_CURVE('',#412,#413,#512,.T.);
#321=EDGE_CURVE('',#414,#412,#513,.T.);
#322=EDGE_CURVE('',#414,#415,#514,.T.);
#323=EDGE_CURVE('',#415,#413,#515,.T.);
#324=EDGE_CURVE('',#416,#412,#516,.T.);
#325=EDGE_CURVE('',#417,#416,#517,.T.);
#326=EDGE_CURVE('',#417,#414,#518,.T.);
#327=EDGE_CURVE('',#418,#416,#519,.T.);
#328=EDGE_CURVE('',#419,#418,#520,.T.);
#329=EDGE_CURVE('',#419,#417,#521,.T.);
#330=EDGE_CURVE('',#420,#418,#522,.T.);
#331=EDGE_CURVE('',#421,#420,#523,.T.);
#332=EDGE_CURVE('',#421,#419,#524,.T.);
#333=EDGE_CURVE('',#422,#420,#525,.T.);
#334=EDGE_CURVE('',#423,#422,#526,.T.);
#335=EDGE_CURVE('',#423,#421,#527,.T.);
#336=EDGE_CURVE('',#424,#422,#528,.T.);
#337=EDGE_CURVE('',#425,#424,#529,.T.);
#338=EDGE_CURVE('',#425,#423,#530,.T.);
#339=EDGE_CURVE('',#426,#424,#531,.T.);
#340=EDGE_CURVE('',#427,#426,#532,.T.);
#341=EDGE_CURVE('',#427,#425,#533,.T.);
#342=EDGE_CURVE('',#413,#426,#534,.T.);
#343=EDGE_CURVE('',#415,#427,#535,.T.);
#344=EDGE_CURVE('',#428,#429,#536,.T.);
#345=EDGE_CURVE('',#430,#428,#537,.T.);
#346=EDGE_CURVE('',#430,#431,#538,.T.);
#347=EDGE_CURVE('',#431,#429,#539,.T.);
#348=EDGE_CURVE('',#432,#428,#540,.T.);
#349=EDGE_CURVE('',#433,#432,#541,.T.);
#350=EDGE_CURVE('',#433,#430,#542,.T.);
#351=EDGE_CURVE('',#434,#432,#543,.T.);
#352=EDGE_CURVE('',#435,#434,#544,.T.);
#353=EDGE_CURVE('',#435,#433,#545,.T.);
#354=EDGE_CURVE('',#436,#434,#546,.T.);
#355=EDGE_CURVE('',#437,#436,#547,.T.);
#356=EDGE_CURVE('',#437,#435,#548,.T.);
#357=EDGE_CURVE('',#438,#436,#549,.T.);
#358=EDGE_CURVE('',#439,#438,#550,.T.);
#359=EDGE_CURVE('',#439,#437,#551,.T.);
#360=EDGE_CURVE('',#440,#438,#552,.T.);
#361=EDGE_CURVE('',#441,#440,#553,.T.);
#362=EDGE_CURVE('',#441,#439,#554,.T.);
#363=EDGE_CURVE('',#442,#440,#555,.T.);
#364=EDGE_CURVE('',#443,#442,#556,.T.);
#365=EDGE_CURVE('',#443,#441,#557,.T.);
#366=EDGE_CURVE('',#429,#442,#558,.T.);
#367=EDGE_CURVE('',#431,#443,#559,.T.);
#368=VERTEX_POINT('',#1217);
#369=VERTEX_POINT('',#1218);
#370=VERTEX_POINT('',#1220);
#371=VERTEX_POINT('',#1222);
#372=VERTEX_POINT('',#1226);
#373=VERTEX_POINT('',#1228);
#374=VERTEX_POINT('',#1232);
#375=VERTEX_POINT('',#1234);
#376=VERTEX_POINT('',#1242);
#377=VERTEX_POINT('',#1244);
#378=VERTEX_POINT('',#1248);
#379=VERTEX_POINT('',#1252);
#380=VERTEX_POINT('',#1260);
#381=VERTEX_POINT('',#1261);
#382=VERTEX_POINT('',#1263);
#383=VERTEX_POINT('',#1265);
#384=VERTEX_POINT('',#1269);
#385=VERTEX_POINT('',#1271);
#386=VERTEX_POINT('',#1275);
#387=VERTEX_POINT('',#1277);
#388=VERTEX_POINT('',#1281);
#389=VERTEX_POINT('',#1283);
#390=VERTEX_POINT('',#1287);
#391=VERTEX_POINT('',#1289);
#392=VERTEX_POINT('',#1293);
#393=VERTEX_POINT('',#1295);
#394=VERTEX_POINT('',#1299);
#395=VERTEX_POINT('',#1301);
#396=VERTEX_POINT('',#1311);
#397=VERTEX_POINT('',#1312);
#398=VERTEX_POINT('',#1314);
#399=VERTEX_POINT('',#1316);
#400=VERTEX_POINT('',#1320);
#401=VERTEX_POINT('',#1322);
#402=VERTEX_POINT('',#1326);
#403=VERTEX_POINT('',#1328);
#404=VERTEX_POINT('',#1332);
#405=VERTEX_POINT('',#1334);
#406=VERTEX_POINT('',#1338);
#407=VERTEX_POINT('',#1340);
#408=VERTEX_POINT('',#1344);
#409=VERTEX_POINT('',#1346);
#410=VERTEX_POINT('',#1350);
#411=VERTEX_POINT('',#1352);
#412=VERTEX_POINT('',#1362);
#413=VERTEX_POINT('',#1363);
#414=VERTEX_POINT('',#1365);
#415=VERTEX_POINT('',#1367);
#416=VERTEX_POINT('',#1371);
#417=VERTEX_POINT('',#1373);
#418=VERTEX_POINT('',#1377);
#419=VERTEX_POINT('',#1379);
#420=VERTEX_POINT('',#1383);
#421=VERTEX_POINT('',#1385);
#422=VERTEX_POINT('',#1389);
#423=VERTEX_POINT('',#1391);
#424=VERTEX_POINT('',#1395);
#425=VERTEX_POINT('',#1397);
#426=VERTEX_POINT('',#1401);
#427=VERTEX_POINT('',#1403);
#428=VERTEX_POINT('',#1413);
#429=VERTEX_POINT('',#1414);
#430=VERTEX_POINT('',#1416);
#431=VERTEX_POINT('',#1418);
#432=VERTEX_POINT('',#1422);
#433=VERTEX_POINT('',#1424);
#434=VERTEX_POINT('',#1428);
#435=VERTEX_POINT('',#1430);
#436=VERTEX_POINT('',#1434);
#437=VERTEX_POINT('',#1436);
#438=VERTEX_POINT('',#1440);
#439=VERTEX_POINT('',#1442);
#440=VERTEX_POINT('',#1446);
#441=VERTEX_POINT('',#1448);
#442=VERTEX_POINT('',#1452);
#443=VERTEX_POINT('',#1454);
#444=LINE('',#1216,#560);
#445=LINE('',#1219,#561);
#446=LINE('',#1221,#562);
#447=LINE('',#1223,#563);
#448=LINE('',#1225,#564);
#449=LINE('',#1227,#565);
#450=LINE('',#1229,#566);
#451=LINE('',#1231,#567);
#452=LINE('',#1233,#568);
#453=LINE('',#1235,#569);
#454=LINE('',#1237,#570);
#455=LINE('',#1238,#571);
#456=LINE('',#1241,#572);
#457=LINE('',#1243,#573);
#458=LINE('',#1245,#574);
#459=LINE('',#1247,#575);
#460=LINE('',#1249,#576);
#461=LINE('',#1251,#577);
#462=LINE('',#1253,#578);
#463=LINE('',#1255,#579);
#464=LINE('',#1259,#580);
#465=LINE('',#1262,#581);
#466=LINE('',#1264,#582);
#467=LINE('',#1266,#583);
#468=LINE('',#1268,#584);
#469=LINE('',#1270,#585);
#470=LINE('',#1272,#586);
#471=LINE('',#1274,#587);
#472=LINE('',#1276,#588);
#473=LINE('',#1278,#589);
#474=LINE('',#1280,#590);
#475=LINE('',#1282,#591);
#476=LINE('',#1284,#592);
#477=LINE('',#1286,#593);
#478=LINE('',#1288,#594);
#479=LINE('',#1290,#595);
#480=LINE('',#1292,#596);
#481=LINE('',#1294,#597);
#482=LINE('',#1296,#598);
#483=LINE('',#1298,#599);
#484=LINE('',#1300,#600);
#485=LINE('',#1302,#601);
#486=LINE('',#1304,#602);
#487=LINE('',#1305,#603);
#488=LINE('',#1310,#604);
#489=LINE('',#1313,#605);
#490=LINE('',#1315,#606);
#491=LINE('',#1317,#607);
#492=LINE('',#1319,#608);
#493=LINE('',#1321,#609);
#494=LINE('',#1323,#610);
#495=LINE('',#1325,#611);
#496=LINE('',#1327,#612);
#497=LINE('',#1329,#613);
#498=LINE('',#1331,#614);
#499=LINE('',#1333,#615);
#500=LINE('',#1335,#616);
#501=LINE('',#1337,#617);
#502=LINE('',#1339,#618);
#503=LINE('',#1341,#619);
#504=LINE('',#1343,#620);
#505=LINE('',#1345,#621);
#506=LINE('',#1347,#622);
#507=LINE('',#1349,#623);
#508=LINE('',#1351,#624);
#509=LINE('',#1353,#625);
#510=LINE('',#1355,#626);
#511=LINE('',#1356,#627);
#512=LINE('',#1361,#628);
#513=LINE('',#1364,#629);
#514=LINE('',#1366,#630);
#515=LINE('',#1368,#631);
#516=LINE('',#1370,#632);
#517=LINE('',#1372,#633);
#518=LINE('',#1374,#634);
#519=LINE('',#1376,#635);
#520=LINE('',#1378,#636);
#521=LINE('',#1380,#637);
#522=LINE('',#1382,#638);
#523=LINE('',#1384,#639);
#524=LINE('',#1386,#640);
#525=LINE('',#1388,#641);
#526=LINE('',#1390,#642);
#527=LINE('',#1392,#643);
#528=LINE('',#1394,#644);
#529=LINE('',#1396,#645);
#530=LINE('',#1398,#646);
#531=LINE('',#1400,#647);
#532=LINE('',#1402,#648);
#533=LINE('',#1404,#649);
#534=LINE('',#1406,#650);
#535=LINE('',#1407,#651);
#536=LINE('',#1412,#652);
#537=LINE('',#1415,#653);
#538=LINE('',#1417,#654);
#539=LINE('',#1419,#655);
#540=LINE('',#1421,#656);
#541=LINE('',#1423,#657);
#542=LINE('',#1425,#658);
#543=LINE('',#1427,#659);
#544=LINE('',#1429,#660);
#545=LINE('',#1431,#661);
#546=LINE('',#1433,#662);
#547=LINE('',#1435,#663);
#548=LINE('',#1437,#664);
#549=LINE('',#1439,#665);
#550=LINE('',#1441,#666);
#551=LINE('',#1443,#667);
#552=LINE('',#1445,#668);
#553=LINE('',#1447,#669);
#554=LINE('',#1449,#670);
#555=LINE('',#1451,#671);
#556=LINE('',#1453,#672);
#557=LINE('',#1455,#673);
#558=LINE('',#1457,#674);
#559=LINE('',#1458,#675);
#560=VECTOR('',#992,1.);
#561=VECTOR('',#993,1.);
#562=VECTOR('',#994,1.);
#563=VECTOR('',#995,1.);
#564=VECTOR('',#998,1.);
#565=VECTOR('',#999,1.);
#566=VECTOR('',#1000,1.);
#567=VECTOR('',#1003,1.);
#568=VECTOR('',#1004,1.);
#569=VECTOR('',#1005,1.);
#570=VECTOR('',#1008,1.);
#571=VECTOR('',#1009,1.);
#572=VECTOR('',#1014,1.);
#573=VECTOR('',#1015,1.);
#574=VECTOR('',#1016,1.);
#575=VECTOR('',#1019,1.);
#576=VECTOR('',#1020,1.);
#577=VECTOR('',#1023,1.);
#578=VECTOR('',#1024,1.);
#579=VECTOR('',#1027,1.);
#580=VECTOR('',#1034,1.);
#581=VECTOR('',#1035,1.);
#582=VECTOR('',#1036,1.);
#583=VECTOR('',#1037,1.);
#584=VECTOR('',#1040,1.);
#585=VECTOR('',#1041,1.);
#586=VECTOR('',#1042,1.);
#587=VECTOR('',#1045,1.);
#588=VECTOR('',#1046,1.);
#589=VECTOR('',#1047,1.);
#590=VECTOR('',#1050,1.);
#591=VECTOR('',#1051,1.);
#592=VECTOR('',#1052,1.);
#593=VECTOR('',#1055,1.);
#594=VECTOR('',#1056,1.);
#595=VECTOR('',#1057,1.);
#596=VECTOR('',#1060,1.);
#597=VECTOR('',#1061,1.);
#598=VECTOR('',#1062,1.);
#599=VECTOR('',#1065,1.);
#600=VECTOR('',#1066,1.);
#601=VECTOR('',#1067,1.);
#602=VECTOR('',#1070,1.);
#603=VECTOR('',#1071,1.);
#604=VECTOR('',#1080,1.);
#605=VECTOR('',#1081,1.);
#606=VECTOR('',#1082,1.);
#607=VECTOR('',#1083,1.);
#608=VECTOR('',#1086,1.);
#609=VECTOR('',#1087,1.);
#610=VECTOR('',#1088,1.);
#611=VECTOR('',#1091,1.);
#612=VECTOR('',#1092,1.);
#613=VECTOR('',#1093,1.);
#614=VECTOR('',#1096,1.);
#615=VECTOR('',#1097,1.);
#616=VECTOR('',#1098,1.);
#617=VECTOR('',#1101,1.);
#618=VECTOR('',#1102,1.);
#619=VECTOR('',#1103,1.);
#620=VECTOR('',#1106,1.);
#621=VECTOR('',#1107,1.);
#622=VECTOR('',#1108,1.);
#623=VECTOR('',#1111,1.);
#624=VECTOR('',#1112,1.);
#625=VECTOR('',#1113,1.);
#626=VECTOR('',#1116,1.);
#627=VECTOR('',#1117,1.);
#628=VECTOR('',#1126,1.);
#629=VECTOR('',#1127,1.);
#630=VECTOR('',#1128,1.);
#631=VECTOR('',#1129,1.);
#632=VECTOR('',#1132,1.);
#633=VECTOR('',#1133,1.);
#634=VECTOR('',#1134,1.);
#635=VECTOR('',#1137,1.);
#636=VECTOR('',#1138,1.);
#637=VECTOR('',#1139,1.);
#638=VECTOR('',#1142,1.);
#639=VECTOR('',#1143,1.);
#640=VECTOR('',#1144,1.);
#641=VECTOR('',#1147,1.);
#642=VECTOR('',#1148,1.);
#643=VECTOR('',#1149,1.);
#644=VECTOR('',#1152,1.);
#645=VECTOR('',#1153,1.);
#646=VECTOR('',#1154,1.);
#647=VECTOR('',#1157,1.);
#648=VECTOR('',#1158,1.);
#649=VECTOR('',#1159,1.);
#650=VECTOR('',#1162,1.);
#651=VECTOR('',#1163,1.);
#652=VECTOR('',#1172,1.);
#653=VECTOR('',#1173,1.);
#654=VECTOR('',#1174,1.);
#655=VECTOR('',#1175,1.);
#656=VECTOR('',#1178,1.);
#657=VECTOR('',#1179,1.);
#658=VECTOR('',#1180,1.);
#659=VECTOR('',#1183,1.);
#660=VECTOR('',#1184,1.);
#661=VECTOR('',#1185,1.);
#662=VECTOR('',#1188,1.);
#663=VECTOR('',#1189,1.);
#664=VECTOR('',#1190,1.);
#665=VECTOR('',#1193,1.);
#666=VECTOR('',#1194,1.);
#667=VECTOR('',#1195,1.);
#668=VECTOR('',#1198,1.);
#669=VECTOR('',#1199,1.);
#670=VECTOR('',#1200,1.);
#671=VECTOR('',#1203,1.);
#672=VECTOR('',#1204,1.);
#673=VECTOR('',#1205,1.);
#674=VECTOR('',#1208,1.);
#675=VECTOR('',#1209,1.);
#676=EDGE_LOOP('',(#20,#21,#22,#23));
#677=EDGE_LOOP('',(#24,#25,#26,#27));
#678=EDGE_LOOP('',(#28,#29,#30,#31));
#679=EDGE_LOOP('',(#32,#33,#34,#35));
#680=EDGE_LOOP('',(#36,#37,#38,#39));
#681=EDGE_LOOP('',(#40,#41,#42,#43));
#682=EDGE_LOOP('',(#44,#45,#46,#47));
#683=EDGE_LOOP('',(#48,#49,#50,#51));
#684=EDGE_LOOP('',(#52,#53,#54,#55));
#685=EDGE_LOOP('',(#56,#57,#58,#59));
#686=EDGE_LOOP('',(#60,#61,#62,#63));
#687=EDGE_LOOP('',(#64,#65,#66,#67));
#688=EDGE_LOOP('',(#68,#69,#70,#71));
#689=EDGE_LOOP('',(#72,#73,#74,#75));
#690=EDGE_LOOP('',(#76,#77,#78,#79));
#691=EDGE_LOOP('',(#80,#81,#82,#83));
#692=EDGE_LOOP('',(#84,#85,#86,#87));
#693=EDGE_LOOP('',(#88,#89,#90,#91));
#694=EDGE_LOOP('',(#92,#93,#94,#95,#96,#97,#98,#99));
#695=EDGE_LOOP('',(#100,#101,#102,#103,#104,#105,#106,#107));
#696=EDGE_LOOP('',(#108,#109,#110,#111));
#697=EDGE_LOOP('',(#112,#113,#114,#115));
#698=EDGE_LOOP('',(#116,#117,#118,#119));
#699=EDGE_LOOP('',(#120,#121,#122,#123));
#700=EDGE_LOOP('',(#124,#125,#126,#127));
#701=EDGE_LOOP('',(#128,#129,#130,#131));
#702=EDGE_LOOP('',(#132,#133,#134,#135));
#703=EDGE_LOOP('',(#136,#137,#138,#139));
#704=EDGE_LOOP('',(#140,#141,#142,#143,#144,#145,#146,#147));
#705=EDGE_LOOP('',(#148,#149,#150,#151,#152,#153,#154,#155));
#706=EDGE_LOOP('',(#156,#157,#158,#159));
#707=EDGE_LOOP('',(#160,#161,#162,#163));
#708=EDGE_LOOP('',(#164,#165,#166,#167));
#709=EDGE_LOOP('',(#168,#169,#170,#171));
#710=EDGE_LOOP('',(#172,#173,#174,#175));
#711=EDGE_LOOP('',(#176,#177,#178,#179));
#712=EDGE_LOOP('',(#180,#181,#182,#183));
#713=EDGE_LOOP('',(#184,#185,#186,#187));
#714=EDGE_LOOP('',(#188,#189,#190,#191,#192,#193,#194,#195));
#715=EDGE_LOOP('',(#196,#197,#198,#199,#200,#201,#202,#203));
#716=EDGE_LOOP('',(#204,#205,#206,#207));
#717=EDGE_LOOP('',(#208,#209,#210,#211));
#718=EDGE_LOOP('',(#212,#213,#214,#215));
#719=EDGE_LOOP('',(#216,#217,#218,#219));
#720=EDGE_LOOP('',(#220,#221,#222,#223));
#721=EDGE_LOOP('',(#224,#225,#226,#227));
#722=EDGE_LOOP('',(#228,#229,#230,#231));
#723=EDGE_LOOP('',(#232,#233,#234,#235));
#724=EDGE_LOOP('',(#236,#237,#238,#239,#240,#241,#242,#243));
#725=EDGE_LOOP('',(#244,#245,#246,#247,#248,#249,#250,#251));
#726=FACE_BOUND('',#676,.T.);
#727=FACE_BOUND('',#677,.T.);
#728=FACE_BOUND('',#678,.T.);
#729=FACE_BOUND('',#679,.T.);
#730=FACE_BOUND('',#680,.T.);
#731=FACE_BOUND('',#681,.T.);
#732=FACE_BOUND('',#682,.T.);
#733=FACE_BOUND('',#683,.T.);
#734=FACE_BOUND('',#684,.T.);
#735=FACE_BOUND('',#685,.T.);
#736=FACE_BOUND('',#686,.T.);
#737=FACE_BOUND('',#687,.T.);
#738=FACE_BOUND('',#688,.T.);
#739=FACE_BOUND('',#689,.T.);
#740=FACE_BOUND('',#690,.T.);
#741=FACE_BOUND('',#691,.T.);
#742=FACE_BOUND('',#692,.T.);
#743=FACE_BOUND('',#693,.T.);
#744=FACE_BOUND('',#694,.T.);
#745=FACE_BOUND('',#695,.T.);
#746=FACE_BOUND('',#696,.T.);
#747=FACE_BOUND('',#697,.T.);
#748=FACE_BOUND('',#698,.T.);
#749=FACE_BOUND('',#699,.T.);
#750=FACE_BOUND('',#700,.T.);
#751=FACE_BOUND('',#701,.T.);
#752=FACE_BOUND('',#702,.T.);
#753=FACE_BOUND('',#703,.T.);
#754=FACE_BOUND('',#704,.T.);
#755=FACE_BOUND('',#705,.T.);
#756=FACE_BOUND('',#706,.T.);
#757=FACE_BOUND('',#707,.T.);
#758=FACE_BOUND('',#708,.T.);
#759=FACE_BOUND('',#709,.T.);
#760=FACE_BOUND('',#710,.T.);
#761=FACE_BOUND('',#711,.T.);
#762=FACE_BOUND('',#712,.T.);
#763=FACE_BOUND('',#713,.T.);
#764=FACE_BOUND('',#714,.T.);
#765=FACE_BOUND('',#715,.T.);
#766=FACE_BOUND('',#716,.T.);
#767=FACE_BOUND('',#717,.T.);
#768=FACE_BOUND('',#718,.T.);
#769=FACE_BOUND('',#719,.T.);
#770=FACE_BOUND('',#720,.T.);
#771=FACE_BOUND('',#721,.T.);
#772=FACE_BOUND('',#722,.T.);
#773=FACE_BOUND('',#723,.T.);
#774=FACE_BOUND('',#724,.T.);
#775=FACE_BOUND('',#725,.T.);
#776=PLANE('',#934);
#777=PLANE('',#935);
#778=PLANE('',#936);
#779=PLANE('',#937);
#780=PLANE('',#938);
#781=PLANE('',#939);
#782=PLANE('',#940);
#783=PLANE('',#941);
#784=PLANE('',#942);
#785=PLANE('',#943);
#786=PLANE('',#945);
#787=PLANE('',#946);
#788=PLANE('',#947);
#789=PLANE('',#948);
#790=PLANE('',#949);
#791=PLANE('',#950);
#792=PLANE('',#951);
#793=PLANE('',#952);
#794=PLANE('',#953);
#795=PLANE('',#954);
#796=PLANE('',#956);
#797=PLANE('',#957);
#798=PLANE('',#958);
#799=PLANE('',#959);
#800=PLANE('',#960);
#801=PLANE('',#961);
#802=PLANE('',#962);
#803=PLANE('',#963);
#804=PLANE('',#964);
#805=PLANE('',#965);
#806=PLANE('',#967);
#807=PLANE('',#968);
#808=PLANE('',#969);
#809=PLANE('',#970);
#810=PLANE('',#971);
#811=PLANE('',#972);
#812=PLANE('',#973);
#813=PLANE('',#974);
#814=PLANE('',#975);
#815=PLANE('',#976);
#816=PLANE('',#978);
#817=PLANE('',#979);
#818=PLANE('',#980);
#819=PLANE('',#981);
#820=PLANE('',#982);
#821=PLANE('',#983);
#822=PLANE('',#984);
#823=PLANE('',#985);
#824=PLANE('',#986);
#825=PLANE('',#987);
#826=ADVANCED_FACE('',(#726),#776,.T.);
#827=ADVANCED_FACE('',(#727),#777,.T.);
#828=ADVANCED_FACE('',(#728),#778,.T.);
#829=ADVANCED_FACE('',(#729),#779,.T.);
#830=ADVANCED_FACE('',(#730),#780,.T.);
#831=ADVANCED_FACE('',(#731),#781,.T.);
#832=ADVANCED_FACE('',(#732),#782,.T.);
#833=ADVANCED_FACE('',(#733),#783,.T.);
#834=ADVANCED_FACE('',(#734),#784,.T.);
#835=ADVANCED_FACE('',(#735),#785,.F.);
#836=ADVANCED_FACE('',(#736),#786,.T.);
#837=ADVANCED_FACE('',(#737),#787,.T.);
#838=ADVANCED_FACE('',(#738),#788,.T.);
#839=ADVANCED_FACE('',(#739),#789,.T.);
#840=ADVANCED_FACE('',(#740),#790,.T.);
#841=ADVANCED_FACE('',(#741),#791,.T.);
#842=ADVANCED_FACE('',(#742),#792,.T.);
#843=ADVANCED_FACE('',(#743),#793,.T.);
#844=ADVANCED_FACE('',(#744),#794,.T.);
#845=ADVANCED_FACE('',(#745),#795,.F.);
#846=ADVANCED_FACE('',(#746),#796,.T.);
#847=ADVANCED_FACE('',(#747),#797,.T.);
#848=ADVANCED_FACE('',(#748),#798,.T.);
#849=ADVANCED_FACE('',(#749),#799,.T.);
#850=ADVANCED_FACE('',(#750),#800,.T.);
#851=ADVANCED_FACE('',(#751),#801,.T.);
#852=ADVANCED_FACE('',(#752),#802,.T.);
#853=ADVANCED_FACE('',(#753),#803,.T.);
#854=ADVANCED_FACE('',(#754),#804,.T.);
#855=ADVANCED_FACE('',(#755),#805,.F.);
#856=ADVANCED_FACE('',(#756),#806,.T.);
#857=ADVANCED_FACE('',(#757),#807,.T.);
#858=ADVANCED_FACE('',(#758),#808,.T.);
#859=ADVANCED_FACE('',(#759),#809,.T.);
#860=ADVANCED_FACE('',(#760),#810,.T.);
#861=ADVANCED_FACE('',(#761),#811,.T.);
#862=ADVANCED_FACE('',(#762),#812,.T.);
#863=ADVANCED_FACE('',(#763),#813,.T.);
#864=ADVANCED_FACE('',(#764),#814,.T.);
#865=ADVANCED_FACE('',(#765),#815,.F.);
#866=ADVANCED_FACE('',(#766),#816,.T.);
#867=ADVANCED_FACE('',(#767),#817,.T.);
#868=ADVANCED_FACE('',(#768),#818,.T.);
#869=ADVANCED_FACE('',(#769),#819,.T.);
#870=ADVANCED_FACE('',(#770),#820,.T.);
#871=ADVANCED_FACE('',(#771),#821,.T.);
#872=ADVANCED_FACE('',(#772),#822,.T.);
#873=ADVANCED_FACE('',(#773),#823,.T.);
#874=ADVANCED_FACE('',(#774),#824,.T.);
#875=ADVANCED_FACE('',(#775),#825,.F.);
#876=CLOSED_SHELL('',(#826,#827,#828,#829,#830,#831,#832,#833,#834,#835));
#877=CLOSED_SHELL('',(#836,#837,#838,#839,#840,#841,#842,#843,#844,#845));
#878=CLOSED_SHELL('',(#846,#847,#848,#849,#850,#851,#852,#853,#854,#855));
#879=CLOSED_SHELL('',(#856,#857,#858,#859,#860,#861,#862,#863,#864,#865));
#880=CLOSED_SHELL('',(#866,#867,#868,#869,#870,#871,#872,#873,#874,#875));
#881=STYLED_ITEM('',(#886),#918);
#882=STYLED_ITEM('',(#887),#919);
#883=STYLED_ITEM('',(#888),#920);
#884=STYLED_ITEM('',(#889),#921);
#885=STYLED_ITEM('',(#890),#922);
#886=PRESENTATION_STYLE_ASSIGNMENT((#891));
#887=PRESENTATION_STYLE_ASSIGNMENT((#892));
#888=PRESENTATION_STYLE_ASSIGNMENT((#893));
#889=PRESENTATION_STYLE_ASSIGNMENT((#894));
#890=PRESENTATION_STYLE_ASSIGNMENT((#895));
#891=SURFACE_STYLE_USAGE(.BOTH.,#896);
#892=SURFACE_STYLE_USAGE(.BOTH.,#897);
#893=SURFACE_STYLE_USAGE(.BOTH.,#898);
#894=SURFACE_STYLE_USAGE(.BOTH.,#899);
#895=SURFACE_STYLE_USAGE(.BOTH.,#900);
#896=SURFACE_SIDE_STYLE('',(#901));
#897=SURFACE_SIDE_STYLE('',(#902));
#898=SURFACE_SIDE_STYLE('',(#903));
#899=SURFACE_SIDE_STYLE('',(#904));
#900=SURFACE_SIDE_STYLE('',(#905));
#901=SURFACE_STYLE_FILL_AREA(#906);
#902=SURFACE_STYLE_FILL_AREA(#907);
#903=SURFACE_STYLE_FILL_AREA(#908);
#904=SURFACE_STYLE_FILL_AREA(#909);
#905=SURFACE_STYLE_FILL_AREA(#910);
#906=FILL_AREA_STYLE('',(#911));
#907=FILL_AREA_STYLE('',(#912));
#908=FILL_AREA_STYLE('',(#913));
#909=FILL_AREA_STYLE('',(#914));
#910=FILL_AREA_STYLE('',(#915));
#911=FILL_AREA_STYLE_COLOUR('',#916);
#912=FILL_AREA_STYLE_COLOUR('',#917);
#913=FILL_AREA_STYLE_COLOUR('',#917);
#914=FILL_AREA_STYLE_COLOUR('',#917);
#915=FILL_AREA_STYLE_COLOUR('',#917);
#916=COLOUR_RGB('',0.133333333333333,0.133333333333333,0.133333333333333);
#917=COLOUR_RGB('',0.8,0.8,0.8);
#918=MANIFOLD_SOLID_BREP('Part 1',#876);
#919=MANIFOLD_SOLID_BREP('Part 3',#877);
#920=MANIFOLD_SOLID_BREP('Part 5',#878);
#921=MANIFOLD_SOLID_BREP('Part 4',#879);
#922=MANIFOLD_SOLID_BREP('Part 2',#880);
#923=SHAPE_DEFINITION_REPRESENTATION(#1491,#928);
#924=SHAPE_DEFINITION_REPRESENTATION(#1492,#929);
#925=SHAPE_DEFINITION_REPRESENTATION(#1493,#930);
#926=SHAPE_DEFINITION_REPRESENTATION(#1494,#931);
#927=SHAPE_DEFINITION_REPRESENTATION(#1495,#932);
#928=SHAPE_REPRESENTATION('Part 1',(#933),#1466);
#929=SHAPE_REPRESENTATION('Part 3',(#944),#1467);
#930=SHAPE_REPRESENTATION('Part 5',(#955),#1468);
#931=SHAPE_REPRESENTATION('Part 4',(#966),#1469);
#932=SHAPE_REPRESENTATION('Part 2',(#977),#1470);
#933=AXIS2_PLACEMENT_3D('',#1214,#988,#989);
#934=AXIS2_PLACEMENT_3D('',#1215,#990,#991);
#935=AXIS2_PLACEMENT_3D('',#1224,#996,#997);
#936=AXIS2_PLACEMENT_3D('',#1230,#1001,#1002);
#937=AXIS2_PLACEMENT_3D('',#1236,#1006,#1007);
#938=AXIS2_PLACEMENT_3D('',#1239,#1010,#1011);
#939=AXIS2_PLACEMENT_3D('',#1240,#1012,#1013);
#940=AXIS2_PLACEMENT_3D('',#1246,#1017,#1018);
#941=AXIS2_PLACEMENT_3D('',#1250,#1021,#1022);
#942=AXIS2_PLACEMENT_3D('',#1254,#1025,#1026);
#943=AXIS2_PLACEMENT_3D('',#1256,#1028,#1029);
#944=AXIS2_PLACEMENT_3D('',#1257,#1030,#1031);
#945=AXIS2_PLACEMENT_3D('',#1258,#1032,#1033);
#946=AXIS2_PLACEMENT_3D('',#1267,#1038,#1039);
#947=AXIS2_PLACEMENT_3D('',#1273,#1043,#1044);
#948=AXIS2_PLACEMENT_3D('',#1279,#1048,#1049);
#949=AXIS2_PLACEMENT_3D('',#1285,#1053,#1054);
#950=AXIS2_PLACEMENT_3D('',#1291,#1058,#1059);
#951=AXIS2_PLACEMENT_3D('',#1297,#1063,#1064);
#952=AXIS2_PLACEMENT_3D('',#1303,#1068,#1069);
#953=AXIS2_PLACEMENT_3D('',#1306,#1072,#1073);
#954=AXIS2_PLACEMENT_3D('',#1307,#1074,#1075);
#955=AXIS2_PLACEMENT_3D('',#1308,#1076,#1077);
#956=AXIS2_PLACEMENT_3D('',#1309,#1078,#1079);
#957=AXIS2_PLACEMENT_3D('',#1318,#1084,#1085);
#958=AXIS2_PLACEMENT_3D('',#1324,#1089,#1090);
#959=AXIS2_PLACEMENT_3D('',#1330,#1094,#1095);
#960=AXIS2_PLACEMENT_3D('',#1336,#1099,#1100);
#961=AXIS2_PLACEMENT_3D('',#1342,#1104,#1105);
#962=AXIS2_PLACEMENT_3D('',#1348,#1109,#1110);
#963=AXIS2_PLACEMENT_3D('',#1354,#1114,#1115);
#964=AXIS2_PLACEMENT_3D('',#1357,#1118,#1119);
#965=AXIS2_PLACEMENT_3D('',#1358,#1120,#1121);
#966=AXIS2_PLACEMENT_3D('',#1359,#1122,#1123);
#967=AXIS2_PLACEMENT_3D('',#1360,#1124,#1125);
#968=AXIS2_PLACEMENT_3D('',#1369,#1130,#1131);
#969=AXIS2_PLACEMENT_3D('',#1375,#1135,#1136);
#970=AXIS2_PLACEMENT_3D('',#1381,#1140,#1141);
#971=AXIS2_PLACEMENT_3D('',#1387,#1145,#1146);
#972=AXIS2_PLACEMENT_3D('',#1393,#1150,#1151);
#973=AXIS2_PLACEMENT_3D('',#1399,#1155,#1156);
#974=AXIS2_PLACEMENT_3D('',#1405,#1160,#1161);
#975=AXIS2_PLACEMENT_3D('',#1408,#1164,#1165);
#976=AXIS2_PLACEMENT_3D('',#1409,#1166,#1167);
#977=AXIS2_PLACEMENT_3D('',#1410,#1168,#1169);
#978=AXIS2_PLACEMENT_3D('',#1411,#1170,#1171);
#979=AXIS2_PLACEMENT_3D('',#1420,#1176,#1177);
#980=AXIS2_PLACEMENT_3D('',#1426,#1181,#1182);
#981=AXIS2_PLACEMENT_3D('',#1432,#1186,#1187);
#982=AXIS2_PLACEMENT_3D('',#1438,#1191,#1192);
#983=AXIS2_PLACEMENT_3D('',#1444,#1196,#1197);
#984=AXIS2_PLACEMENT_3D('',#1450,#1201,#1202);
#985=AXIS2_PLACEMENT_3D('',#1456,#1206,#1207);
#986=AXIS2_PLACEMENT_3D('',#1459,#1210,#1211);
#987=AXIS2_PLACEMENT_3D('',#1460,#1212,#1213);
#988=DIRECTION('',(0.,0.,1.));
#989=DIRECTION('',(1.,0.,0.));
#990=DIRECTION('',(3.25050504936921E-16,0.974370064785235,0.224951054343865));
#991=DIRECTION('',(-7.50438220992379E-17,-0.224951054343865,0.974370064785235));
#992=DIRECTION('',(1.,-3.33600668457078E-16,0.));
#993=DIRECTION('',(0.219466743499904,-0.219466743499904,0.950614904677543));
#994=DIRECTION('',(1.,-3.33600668457078E-16,0.));
#995=DIRECTION('',(0.219466743499904,0.219466743499904,-0.950614904677543));
#996=DIRECTION('',(-0.974370064785235,2.41466089381713E-16,0.224951054343865));
#997=DIRECTION('',(0.224951054343865,-5.57468392737196E-17,0.974370064785235));
#998=DIRECTION('',(2.47817639425258E-16,1.,0.));
#999=DIRECTION('',(-0.219466743499904,-0.219466743499904,-0.950614904677543));
#1000=DIRECTION('',(2.47817639425258E-16,1.,0.));
#1001=DIRECTION('',(-3.25050504936921E-16,-0.974370064785235,0.224951054343865));
#1002=DIRECTION('',(7.50438220992379E-17,0.224951054343865,0.974370064785235));
#1003=DIRECTION('',(-1.,3.33600668457078E-16,0.));
#1004=DIRECTION('',(-0.219466743499904,0.219466743499904,0.950614904677543));
#1005=DIRECTION('',(-1.,3.33600668457078E-16,0.));
#1006=DIRECTION('',(0.974370064785235,-2.41466089381713E-16,0.224951054343865));
#1007=DIRECTION('',(-0.224951054343865,5.57468392737196E-17,0.974370064785235));
#1008=DIRECTION('',(-2.47817639425258E-16,-1.,0.));
#1009=DIRECTION('',(-2.47817639425258E-16,-1.,0.));
#1010=DIRECTION('',(0.,0.,1.));
#1011=DIRECTION('',(1.,0.,0.));
#1012=DIRECTION('',(3.25050504936921E-16,0.974370064785235,-0.224951054343865));
#1013=DIRECTION('',(-7.50438220992379E-17,-0.224951054343865,-0.974370064785235));
#1014=DIRECTION('',(0.219466743499904,0.219466743499904,0.950614904677543));
#1015=DIRECTION('',(-1.,3.33600668457078E-16,0.));
#1016=DIRECTION('',(0.219466743499904,-0.219466743499904,-0.950614904677543));
#1017=DIRECTION('',(-0.974370064785235,2.41466089381713E-16,-0.224951054343865));
#1018=DIRECTION('',(0.224951054343865,-5.57468392737196E-17,-0.974370064785235));
#1019=DIRECTION('',(-2.47817639425258E-16,-1.,0.));
#1020=DIRECTION('',(-0.219466743499904,-0.219466743499904,0.950614904677543));
#1021=DIRECTION('',(-3.25050504936921E-16,-0.974370064785235,-0.224951054343865));
#1022=DIRECTION('',(7.50438220992379E-17,0.224951054343865,-0.974370064785235));
#1023=DIRECTION('',(1.,-3.33600668457078E-16,0.));
#1024=DIRECTION('',(-0.219466743499904,0.219466743499904,-0.950614904677543));
#1025=DIRECTION('',(0.974370064785235,-2.41466089381713E-16,-0.224951054343865));
#1026=DIRECTION('',(-0.224951054343865,5.57468392737196E-17,-0.974370064785235));
#1027=DIRECTION('',(2.47817639425258E-16,1.,0.));
#1028=DIRECTION('',(0.,0.,1.));
#1029=DIRECTION('',(1.,0.,0.));
#1030=DIRECTION('',(0.,0.,1.));
#1031=DIRECTION('',(1.,0.,0.));
#1032=DIRECTION('',(0.,0.,-1.));
#1033=DIRECTION('',(-1.,0.,0.));
#1034=DIRECTION('',(0.,-1.,0.));
#1035=DIRECTION('',(-1.,0.,0.));
#1036=DIRECTION('',(0.,-1.,0.));
#1037=DIRECTION('',(-1.,0.,0.));
#1038=DIRECTION('',(0.,1.,0.));
#1039=DIRECTION('',(0.,0.,1.));
#1040=DIRECTION('',(0.,0.,-1.));
#1041=DIRECTION('',(-1.,0.,0.));
#1042=DIRECTION('',(0.,0.,-1.));
#1043=DIRECTION('',(0.,0.,1.));
#1044=DIRECTION('',(1.,0.,0.));
#1045=DIRECTION('',(0.,1.,0.));
#1046=DIRECTION('',(-1.,0.,0.));
#1047=DIRECTION('',(0.,1.,0.));
#1048=DIRECTION('',(0.,-0.554700196225229,0.832050294337843));
#1049=DIRECTION('',(0.,-0.832050294337844,-0.554700196225229));
#1050=DIRECTION('',(0.,0.832050294337844,0.554700196225229));
#1051=DIRECTION('',(-1.,0.,0.));
#1052=DIRECTION('',(0.,0.832050294337844,0.554700196225229));
#1053=DIRECTION('',(0.,0.,1.));
#1054=DIRECTION('',(1.,0.,0.));
#1055=DIRECTION('',(0.,1.,0.));
#1056=DIRECTION('',(-1.,0.,0.));
#1057=DIRECTION('',(0.,1.,0.));
#1058=DIRECTION('',(0.,-1.,0.));
#1059=DIRECTION('',(0.,0.,-1.));
#1060=DIRECTION('',(0.,0.,1.));
#1061=DIRECTION('',(-1.,0.,0.));
#1062=DIRECTION('',(0.,0.,1.));
#1063=DIRECTION('',(0.,0.,-1.));
#1064=DIRECTION('',(-1.,0.,0.));
#1065=DIRECTION('',(0.,-1.,0.));
#1066=DIRECTION('',(-1.,0.,0.));
#1067=DIRECTION('',(0.,-1.,0.));
#1068=DIRECTION('',(0.,0.554700196225229,-0.832050294337844));
#1069=DIRECTION('',(0.,0.832050294337844,0.554700196225229));
#1070=DIRECTION('',(0.,-0.832050294337844,-0.554700196225229));
#1071=DIRECTION('',(0.,-0.832050294337844,-0.554700196225229));
#1072=DIRECTION('',(1.,0.,0.));
#1073=DIRECTION('',(0.,1.,0.));
#1074=DIRECTION('',(1.,0.,0.));
#1075=DIRECTION('',(0.,1.,0.));
#1076=DIRECTION('',(0.,0.,1.));
#1077=DIRECTION('',(1.,0.,0.));
#1078=DIRECTION('',(0.,0.,-1.));
#1079=DIRECTION('',(1.,1.22464679914735E-16,0.));
#1080=DIRECTION('',(-1.22464679914735E-16,1.,0.));
#1081=DIRECTION('',(1.,1.22464679914735E-16,0.));
#1082=DIRECTION('',(-1.22464679914735E-16,1.,0.));
#1083=DIRECTION('',(1.,1.22464679914735E-16,0.));
#1084=DIRECTION('',(1.22464679914735E-16,-1.,0.));
#1085=DIRECTION('',(0.,0.,1.));
#1086=DIRECTION('',(0.,0.,-1.));
#1087=DIRECTION('',(1.,1.22464679914735E-16,0.));
#1088=DIRECTION('',(0.,0.,-1.));
#1089=DIRECTION('',(0.,0.,1.));
#1090=DIRECTION('',(-1.,-1.22464679914735E-16,0.));
#1091=DIRECTION('',(1.22464679914735E-16,-1.,0.));
#1092=DIRECTION('',(1.,1.22464679914735E-16,0.));
#1093=DIRECTION('',(1.22464679914735E-16,-1.,0.));
#1094=DIRECTION('',(-6.79311819793636E-17,0.554700196225229,0.832050294337843));
#1095=DIRECTION('',(-1.01896772969045E-16,0.832050294337844,-0.554700196225229));
#1096=DIRECTION('',(1.01896772969045E-16,-0.832050294337844,0.554700196225229));
#1097=DIRECTION('',(1.,1.22464679914735E-16,0.));
#1098=DIRECTION('',(1.01896772969045E-16,-0.832050294337844,0.554700196225229));
#1099=DIRECTION('',(0.,0.,1.));
#1100=DIRECTION('',(-1.,-1.22464679914735E-16,0.));
#1101=DIRECTION('',(1.22464679914735E-16,-1.,0.));
#1102=DIRECTION('',(1.,1.22464679914735E-16,0.));
#1103=DIRECTION('',(1.22464679914735E-16,-1.,0.));
#1104=DIRECTION('',(-1.22464679914735E-16,1.,0.));
#1105=DIRECTION('',(0.,0.,-1.));
#1106=DIRECTION('',(0.,0.,1.));
#1107=DIRECTION('',(1.,1.22464679914735E-16,0.));
#1108=DIRECTION('',(0.,0.,1.));
#1109=DIRECTION('',(0.,0.,-1.));
#1110=DIRECTION('',(1.,1.22464679914735E-16,0.));
#1111=DIRECTION('',(-1.22464679914735E-16,1.,0.));
#1112=DIRECTION('',(1.,1.22464679914735E-16,0.));
#1113=DIRECTION('',(-1.22464679914735E-16,1.,0.));
#1114=DIRECTION('',(6.79311819793636E-17,-0.554700196225229,-0.832050294337844));
#1115=DIRECTION('',(1.01896772969045E-16,-0.832050294337844,0.554700196225229));
#1116=DIRECTION('',(-1.01896772969045E-16,0.832050294337844,-0.554700196225229));
#1117=DIRECTION('',(-1.01896772969045E-16,0.832050294337844,-0.554700196225229));
#1118=DIRECTION('',(-1.,-1.22464679914735E-16,0.));
#1119=DIRECTION('',(1.22464679914735E-16,-1.,0.));
#1120=DIRECTION('',(-1.,-1.22464679914735E-16,0.));
#1121=DIRECTION('',(1.22464679914735E-16,-1.,0.));
#1122=DIRECTION('',(0.,0.,1.));
#1123=DIRECTION('',(1.,0.,0.));
#1124=DIRECTION('',(0.,0.,-1.));
#1125=DIRECTION('',(-1.,0.,0.));
#1126=DIRECTION('',(0.,-1.,0.));
#1127=DIRECTION('',(-1.,0.,0.));
#1128=DIRECTION('',(0.,-1.,0.));
#1129=DIRECTION('',(-1.,0.,0.));
#1130=DIRECTION('',(0.,1.,0.));
#1131=DIRECTION('',(0.,0.,1.));
#1132=DIRECTION('',(0.,0.,-1.));
#1133=DIRECTION('',(-1.,0.,0.));
#1134=DIRECTION('',(0.,0.,-1.));
#1135=DIRECTION('',(0.,0.,1.));
#1136=DIRECTION('',(1.,0.,0.));
#1137=DIRECTION('',(0.,1.,0.));
#1138=DIRECTION('',(-1.,0.,0.));
#1139=DIRECTION('',(0.,1.,0.));
#1140=DIRECTION('',(0.,-0.554700196225229,0.832050294337843));
#1141=DIRECTION('',(0.,-0.832050294337844,-0.554700196225229));
#1142=DIRECTION('',(0.,0.832050294337844,0.554700196225229));
#1143=DIRECTION('',(-1.,0.,0.));
#1144=DIRECTION('',(0.,0.832050294337844,0.554700196225229));
#1145=DIRECTION('',(0.,0.,1.));
#1146=DIRECTION('',(1.,0.,0.));
#1147=DIRECTION('',(0.,1.,0.));
#1148=DIRECTION('',(-1.,0.,0.));
#1149=DIRECTION('',(0.,1.,0.));
#1150=DIRECTION('',(0.,-1.,0.));
#1151=DIRECTION('',(0.,0.,-1.));
#1152=DIRECTION('',(0.,0.,1.));
#1153=DIRECTION('',(-1.,0.,0.));
#1154=DIRECTION('',(0.,0.,1.));
#1155=DIRECTION('',(0.,0.,-1.));
#1156=DIRECTION('',(-1.,0.,0.));
#1157=DIRECTION('',(0.,-1.,0.));
#1158=DIRECTION('',(-1.,0.,0.));
#1159=DIRECTION('',(0.,-1.,0.));
#1160=DIRECTION('',(0.,0.554700196225229,-0.832050294337844));
#1161=DIRECTION('',(0.,0.832050294337844,0.554700196225229));
#1162=DIRECTION('',(0.,-0.832050294337844,-0.554700196225229));
#1163=DIRECTION('',(0.,-0.832050294337844,-0.554700196225229));
#1164=DIRECTION('',(1.,0.,0.));
#1165=DIRECTION('',(0.,1.,0.));
#1166=DIRECTION('',(1.,0.,0.));
#1167=DIRECTION('',(0.,1.,0.));
#1168=DIRECTION('',(0.,0.,1.));
#1169=DIRECTION('',(1.,0.,0.));
#1170=DIRECTION('',(0.,0.,-1.));
#1171=DIRECTION('',(-1.,0.,0.));
#1172=DIRECTION('',(0.,-1.,0.));
#1173=DIRECTION('',(-1.,0.,0.));
#1174=DIRECTION('',(0.,-1.,0.));
#1175=DIRECTION('',(-1.,0.,0.));
#1176=DIRECTION('',(0.,1.,0.));
#1177=DIRECTION('',(0.,0.,1.));
#1178=DIRECTION('',(0.,0.,-1.));
#1179=DIRECTION('',(-1.,0.,0.));
#1180=DIRECTION('',(0.,0.,-1.));
#1181=DIRECTION('',(0.,0.,1.));
#1182=DIRECTION('',(1.,0.,0.));
#1183=DIRECTION('',(0.,1.,0.));
#1184=DIRECTION('',(-1.,0.,0.));
#1185=DIRECTION('',(0.,1.,0.));
#1186=DIRECTION('',(0.,-0.554700196225229,0.832050294337843));
#1187=DIRECTION('',(0.,-0.832050294337844,-0.554700196225229));
#1188=DIRECTION('',(0.,0.832050294337844,0.554700196225229));
#1189=DIRECTION('',(-1.,0.,0.));
#1190=DIRECTION('',(0.,0.832050294337844,0.554700196225229));
#1191=DIRECTION('',(0.,0.,1.));
#1192=DIRECTION('',(1.,0.,0.));
#1193=DIRECTION('',(0.,1.,0.));
#1194=DIRECTION('',(-1.,0.,0.));
#1195=DIRECTION('',(0.,1.,0.));
#1196=DIRECTION('',(0.,-1.,0.));
#1197=DIRECTION('',(0.,0.,-1.));
#1198=DIRECTION('',(0.,0.,1.));
#1199=DIRECTION('',(-1.,0.,0.));
#1200=DIRECTION('',(0.,0.,1.));
#1201=DIRECTION('',(0.,0.,-1.));
#1202=DIRECTION('',(-1.,0.,0.));
#1203=DIRECTION('',(0.,-1.,0.));
#1204=DIRECTION('',(-1.,0.,0.));
#1205=DIRECTION('',(0.,-1.,0.));
#1206=DIRECTION('',(0.,0.554700196225229,-0.832050294337844));
#1207=DIRECTION('',(0.,0.832050294337844,0.554700196225229));
#1208=DIRECTION('',(0.,-0.832050294337844,-0.554700196225229));
#1209=DIRECTION('',(0.,-0.832050294337844,-0.554700196225229));
#1210=DIRECTION('',(1.,0.,0.));
#1211=DIRECTION('',(0.,1.,0.));
#1212=DIRECTION('',(1.,0.,0.));
#1213=DIRECTION('',(0.,1.,0.));
#1214=CARTESIAN_POINT('',(0.,0.,0.));
#1215=CARTESIAN_POINT('',(4.82640863017642E-50,0.00175,0.));
#1216=CARTESIAN_POINT('',(4.82640863017642E-50,0.00175,0.));
#1217=CARTESIAN_POINT('',(-0.00325,0.00175,0.));
#1218=CARTESIAN_POINT('',(0.00325,0.00175,0.));
#1219=CARTESIAN_POINT('',(-0.00309346163261703,0.00159346163261703,0.000678042161719169));
#1220=CARTESIAN_POINT('',(-0.00297295817064933,0.00147295817064933,0.0012));
#1221=CARTESIAN_POINT('',(-9.24213394619572E-20,0.00147295817064932,0.0012));
#1222=CARTESIAN_POINT('',(0.00297295817064933,0.00147295817064932,0.0012));
#1223=CARTESIAN_POINT('',(0.00309346163261703,0.00159346163261703,0.000678042161719169));
#1224=CARTESIAN_POINT('',(-0.00325,0.00175,0.));
#1225=CARTESIAN_POINT('',(-0.00325,0.00175,0.));
#1226=CARTESIAN_POINT('',(-0.00325,-0.00175,0.));
#1227=CARTESIAN_POINT('',(-0.00309346163261703,-0.00159346163261703,0.000678042161719169));
#1228=CARTESIAN_POINT('',(-0.00297295817064933,-0.00147295817064932,0.0012));
#1229=CARTESIAN_POINT('',(-0.00297295817064933,0.00175,0.0012));
#1230=CARTESIAN_POINT('',(-1.16760233959977E-18,-0.00175,0.));
#1231=CARTESIAN_POINT('',(-1.16760233959977E-18,-0.00175,0.));
#1232=CARTESIAN_POINT('',(0.00325,-0.00175,0.));
#1233=CARTESIAN_POINT('',(0.00309346163261703,-0.00159346163261703,0.00067804216171917));
#1234=CARTESIAN_POINT('',(0.00297295817064933,-0.00147295817064932,0.0012));
#1235=CARTESIAN_POINT('',(-1.07518100013782E-18,-0.00147295817064932,0.0012));
#1236=CARTESIAN_POINT('',(0.00325,0.00175,0.));
#1237=CARTESIAN_POINT('',(0.00325,0.00175,0.));
#1238=CARTESIAN_POINT('',(0.00297295817064933,0.00175,0.0012));
#1239=CARTESIAN_POINT('',(0.,0.,0.0012));
#1240=CARTESIAN_POINT('',(4.82640863017642E-50,0.00175,0.));
#1241=CARTESIAN_POINT('',(0.00325,0.00175,4.52390636783194E-20));
#1242=CARTESIAN_POINT('',(0.00311147908532467,0.00161147908532466,-0.0006));
#1243=CARTESIAN_POINT('',(5.37590500068908E-19,0.00161147908532466,-0.0006));
#1244=CARTESIAN_POINT('',(-0.00311147908532466,0.00161147908532466,-0.0006));
#1245=CARTESIAN_POINT('',(-0.00325,0.00175,-4.52390636783194E-20));
#1246=CARTESIAN_POINT('',(-0.00325,0.00175,0.));
#1247=CARTESIAN_POINT('',(-0.00311147908532466,7.71079402046219E-19,-0.0006));
#1248=CARTESIAN_POINT('',(-0.00311147908532467,-0.00161147908532466,-0.0006));
#1249=CARTESIAN_POINT('',(-0.00308142021974142,-0.00158142021974141,-0.000730199251082182));
#1250=CARTESIAN_POINT('',(-1.16760233959977E-18,-0.00175,0.));
#1251=CARTESIAN_POINT('',(-5.37590500068908E-19,-0.00161147908532466,-0.0006));
#1252=CARTESIAN_POINT('',(0.00311147908532466,-0.00161147908532466,-0.0006));
#1253=CARTESIAN_POINT('',(0.00308142021974142,-0.00158142021974141,-0.000730199251082182));
#1254=CARTESIAN_POINT('',(0.00325,0.00175,0.));
#1255=CARTESIAN_POINT('',(0.00311147908532466,-7.71079402046219E-19,-0.0006));
#1256=CARTESIAN_POINT('',(0.,0.,-0.0006));
#1257=CARTESIAN_POINT('',(0.,0.,0.));
#1258=CARTESIAN_POINT('',(0.002675,-0.0011045836543402,0.));
#1259=CARTESIAN_POINT('',(0.001925,-0.0011045836543402,0.));
#1260=CARTESIAN_POINT('',(0.001925,-7.6728153745128E-19,-1.35525271560688E-20));
#1261=CARTESIAN_POINT('',(0.001925,-0.0022091673086804,5.42101086242752E-20));
#1262=CARTESIAN_POINT('',(0.002675,-7.6728153745128E-19,-1.35525271560688E-20));
#1263=CARTESIAN_POINT('',(0.002675,-7.6728153745128E-19,-1.35525271560688E-20));
#1264=CARTESIAN_POINT('',(0.002675,-0.0011045836543402,0.));
#1265=CARTESIAN_POINT('',(0.002675,-0.0022091673086804,5.42101086242752E-20));
#1266=CARTESIAN_POINT('',(0.002675,-0.0022091673086804,5.42101086242752E-20));
#1267=CARTESIAN_POINT('',(0.002675,-7.6728153745128E-19,0.00015));
#1268=CARTESIAN_POINT('',(0.001925,-7.6728153745128E-19,0.00015));
#1269=CARTESIAN_POINT('',(0.001925,-7.6728153745128E-19,0.0003));
#1270=CARTESIAN_POINT('',(0.002675,-7.6728153745128E-19,0.0003));
#1271=CARTESIAN_POINT('',(0.002675,-7.6728153745128E-19,0.0003));
#1272=CARTESIAN_POINT('',(0.002675,-7.6728153745128E-19,0.00015));
#1273=CARTESIAN_POINT('',(0.002675,-0.00115,0.0003));
#1274=CARTESIAN_POINT('',(0.001925,-0.00115,0.0003));
#1275=CARTESIAN_POINT('',(0.001925,-0.0023,0.0003));
#1276=CARTESIAN_POINT('',(0.002675,-0.0023,0.0003));
#1277=CARTESIAN_POINT('',(0.002675,-0.0023,0.0003));
#1278=CARTESIAN_POINT('',(0.002675,-0.00115,0.0003));
#1279=CARTESIAN_POINT('',(0.002675,-0.00275,-4.33680868994202E-19));
#1280=CARTESIAN_POINT('',(0.001925,-0.00275,-4.33680868994202E-19));
#1281=CARTESIAN_POINT('',(0.001925,-0.0032,-0.0003));
#1282=CARTESIAN_POINT('',(0.002675,-0.0032,-0.0003));
#1283=CARTESIAN_POINT('',(0.002675,-0.0032,-0.0003));
#1284=CARTESIAN_POINT('',(0.002675,-0.00275,-4.33680868994202E-19));
#1285=CARTESIAN_POINT('',(0.002675,-0.00335,-0.0003));
#1286=CARTESIAN_POINT('',(0.001925,-0.00335,-0.0003));
#1287=CARTESIAN_POINT('',(0.001925,-0.0035,-0.0003));
#1288=CARTESIAN_POINT('',(0.002675,-0.0035,-0.0003));
#1289=CARTESIAN_POINT('',(0.002675,-0.0035,-0.0003));
#1290=CARTESIAN_POINT('',(0.002675,-0.00335,-0.0003));
#1291=CARTESIAN_POINT('',(0.002675,-0.0035,-0.00045));
#1292=CARTESIAN_POINT('',(0.001925,-0.0035,-0.00045));
#1293=CARTESIAN_POINT('',(0.001925,-0.0035,-0.0006));
#1294=CARTESIAN_POINT('',(0.002675,-0.0035,-0.0006));
#1295=CARTESIAN_POINT('',(0.002675,-0.0035,-0.0006));
#1296=CARTESIAN_POINT('',(0.002675,-0.0035,-0.00045));
#1297=CARTESIAN_POINT('',(0.002675,-0.0033045836543402,-0.0006));
#1298=CARTESIAN_POINT('',(0.001925,-0.0033045836543402,-0.0006));
#1299=CARTESIAN_POINT('',(0.001925,-0.0031091673086804,-0.0006));
#1300=CARTESIAN_POINT('',(0.002675,-0.0031091673086804,-0.0006));
#1301=CARTESIAN_POINT('',(0.002675,-0.0031091673086804,-0.0006));
#1302=CARTESIAN_POINT('',(0.002675,-0.0033045836543402,-0.0006));
#1303=CARTESIAN_POINT('',(0.002675,-0.0026591673086804,-0.0003));
#1304=CARTESIAN_POINT('',(0.001925,-0.0026591673086804,-0.0003));
#1305=CARTESIAN_POINT('',(0.002675,-0.0026591673086804,-0.0003));
#1306=CARTESIAN_POINT('',(0.002675,-0.00175,0.0022));
#1307=CARTESIAN_POINT('',(0.001925,-0.00175,0.0022));
#1308=CARTESIAN_POINT('',(0.,0.,0.));
#1309=CARTESIAN_POINT('',(-0.0015,0.0011045836543402,0.));
#1310=CARTESIAN_POINT('',(0.0015,0.0011045836543402,0.));
#1311=CARTESIAN_POINT('',(0.0015,1.83697019872103E-19,-1.35525271560688E-20));
#1312=CARTESIAN_POINT('',(0.0015,0.0022091673086804,5.42101086242752E-20));
#1313=CARTESIAN_POINT('',(-0.0015,-1.83697019872103E-19,-1.35525271560688E-20));
#1314=CARTESIAN_POINT('',(-0.0015,-1.83697019872103E-19,-1.35525271560688E-20));
#1315=CARTESIAN_POINT('',(-0.0015,0.0011045836543402,0.));
#1316=CARTESIAN_POINT('',(-0.0015,0.0022091673086804,5.42101086242752E-20));
#1317=CARTESIAN_POINT('',(-0.0015,0.0022091673086804,5.42101086242752E-20));
#1318=CARTESIAN_POINT('',(-0.0015,-1.83697019872103E-19,0.00015));
#1319=CARTESIAN_POINT('',(0.0015,1.83697019872103E-19,0.00015));
#1320=CARTESIAN_POINT('',(0.0015,1.83697019872103E-19,0.0003));
#1321=CARTESIAN_POINT('',(-0.0015,-1.83697019872103E-19,0.0003));
#1322=CARTESIAN_POINT('',(-0.0015,-1.83697019872103E-19,0.0003));
#1323=CARTESIAN_POINT('',(-0.0015,-1.83697019872103E-19,0.00015));
#1324=CARTESIAN_POINT('',(-0.0015,0.00115,0.0003));
#1325=CARTESIAN_POINT('',(0.0015,0.00115,0.0003));
#1326=CARTESIAN_POINT('',(0.0015,0.0023,0.0003));
#1327=CARTESIAN_POINT('',(-0.0015,0.0023,0.0003));
#1328=CARTESIAN_POINT('',(-0.0015,0.0023,0.0003));
#1329=CARTESIAN_POINT('',(-0.0015,0.00115,0.0003));
#1330=CARTESIAN_POINT('',(-0.0015,0.00275,-4.33680868994202E-19));
#1331=CARTESIAN_POINT('',(0.0015,0.00275,-4.33680868994202E-19));
#1332=CARTESIAN_POINT('',(0.0015,0.0032,-0.0003));
#1333=CARTESIAN_POINT('',(-0.0015,0.0032,-0.0003));
#1334=CARTESIAN_POINT('',(-0.0015,0.0032,-0.0003));
#1335=CARTESIAN_POINT('',(-0.0015,0.00275,-4.33680868994202E-19));
#1336=CARTESIAN_POINT('',(-0.0015,0.00335,-0.0003));
#1337=CARTESIAN_POINT('',(0.0015,0.00335,-0.0003));
#1338=CARTESIAN_POINT('',(0.0015,0.0035,-0.0003));
#1339=CARTESIAN_POINT('',(-0.0015,0.0035,-0.0003));
#1340=CARTESIAN_POINT('',(-0.0015,0.0035,-0.0003));
#1341=CARTESIAN_POINT('',(-0.0015,0.00335,-0.0003));
#1342=CARTESIAN_POINT('',(-0.0015,0.0035,-0.00045));
#1343=CARTESIAN_POINT('',(0.0015,0.0035,-0.00045));
#1344=CARTESIAN_POINT('',(0.0015,0.0035,-0.0006));
#1345=CARTESIAN_POINT('',(-0.0015,0.0035,-0.0006));
#1346=CARTESIAN_POINT('',(-0.0015,0.0035,-0.0006));
#1347=CARTESIAN_POINT('',(-0.0015,0.0035,-0.00045));
#1348=CARTESIAN_POINT('',(-0.0015,0.0033045836543402,-0.0006));
#1349=CARTESIAN_POINT('',(0.0015,0.0033045836543402,-0.0006));
#1350=CARTESIAN_POINT('',(0.0015,0.0031091673086804,-0.0006));
#1351=CARTESIAN_POINT('',(-0.0015,0.0031091673086804,-0.0006));
#1352=CARTESIAN_POINT('',(-0.0015,0.0031091673086804,-0.0006));
#1353=CARTESIAN_POINT('',(-0.0015,0.0033045836543402,-0.0006));
#1354=CARTESIAN_POINT('',(-0.0015,0.0026591673086804,-0.0003));
#1355=CARTESIAN_POINT('',(0.0015,0.0026591673086804,-0.0003));
#1356=CARTESIAN_POINT('',(-0.0015,0.0026591673086804,-0.0003));
#1357=CARTESIAN_POINT('',(-0.0015,0.00175,0.0022));
#1358=CARTESIAN_POINT('',(0.0015,0.00175,0.0022));
#1359=CARTESIAN_POINT('',(0.,0.,0.));
#1360=CARTESIAN_POINT('',(-0.001925,-0.0011045836543402,0.));
#1361=CARTESIAN_POINT('',(-0.002675,-0.0011045836543402,0.));
#1362=CARTESIAN_POINT('',(-0.002675,7.6728153745128E-19,-1.35525271560688E-20));
#1363=CARTESIAN_POINT('',(-0.002675,-0.0022091673086804,5.42101086242752E-20));
#1364=CARTESIAN_POINT('',(-0.001925,7.6728153745128E-19,-1.35525271560688E-20));
#1365=CARTESIAN_POINT('',(-0.001925,7.6728153745128E-19,-1.35525271560688E-20));
#1366=CARTESIAN_POINT('',(-0.001925,-0.0011045836543402,0.));
#1367=CARTESIAN_POINT('',(-0.001925,-0.0022091673086804,5.42101086242752E-20));
#1368=CARTESIAN_POINT('',(-0.001925,-0.0022091673086804,5.42101086242752E-20));
#1369=CARTESIAN_POINT('',(-0.001925,7.6728153745128E-19,0.00015));
#1370=CARTESIAN_POINT('',(-0.002675,7.6728153745128E-19,0.00015));
#1371=CARTESIAN_POINT('',(-0.002675,7.6728153745128E-19,0.0003));
#1372=CARTESIAN_POINT('',(-0.001925,7.6728153745128E-19,0.0003));
#1373=CARTESIAN_POINT('',(-0.001925,7.6728153745128E-19,0.0003));
#1374=CARTESIAN_POINT('',(-0.001925,7.6728153745128E-19,0.00015));
#1375=CARTESIAN_POINT('',(-0.001925,-0.00115,0.0003));
#1376=CARTESIAN_POINT('',(-0.002675,-0.00115,0.0003));
#1377=CARTESIAN_POINT('',(-0.002675,-0.0023,0.0003));
#1378=CARTESIAN_POINT('',(-0.001925,-0.0023,0.0003));
#1379=CARTESIAN_POINT('',(-0.001925,-0.0023,0.0003));
#1380=CARTESIAN_POINT('',(-0.001925,-0.00115,0.0003));
#1381=CARTESIAN_POINT('',(-0.001925,-0.00275,-4.33680868994202E-19));
#1382=CARTESIAN_POINT('',(-0.002675,-0.00275,-4.33680868994202E-19));
#1383=CARTESIAN_POINT('',(-0.002675,-0.0032,-0.0003));
#1384=CARTESIAN_POINT('',(-0.001925,-0.0032,-0.0003));
#1385=CARTESIAN_POINT('',(-0.001925,-0.0032,-0.0003));
#1386=CARTESIAN_POINT('',(-0.001925,-0.00275,-4.33680868994202E-19));
#1387=CARTESIAN_POINT('',(-0.001925,-0.00335,-0.0003));
#1388=CARTESIAN_POINT('',(-0.002675,-0.00335,-0.0003));
#1389=CARTESIAN_POINT('',(-0.002675,-0.0035,-0.0003));
#1390=CARTESIAN_POINT('',(-0.001925,-0.0035,-0.0003));
#1391=CARTESIAN_POINT('',(-0.001925,-0.0035,-0.0003));
#1392=CARTESIAN_POINT('',(-0.001925,-0.00335,-0.0003));
#1393=CARTESIAN_POINT('',(-0.001925,-0.0035,-0.00045));
#1394=CARTESIAN_POINT('',(-0.002675,-0.0035,-0.00045));
#1395=CARTESIAN_POINT('',(-0.002675,-0.0035,-0.0006));
#1396=CARTESIAN_POINT('',(-0.001925,-0.0035,-0.0006));
#1397=CARTESIAN_POINT('',(-0.001925,-0.0035,-0.0006));
#1398=CARTESIAN_POINT('',(-0.001925,-0.0035,-0.00045));
#1399=CARTESIAN_POINT('',(-0.001925,-0.0033045836543402,-0.0006));
#1400=CARTESIAN_POINT('',(-0.002675,-0.0033045836543402,-0.0006));
#1401=CARTESIAN_POINT('',(-0.002675,-0.0031091673086804,-0.0006));
#1402=CARTESIAN_POINT('',(-0.001925,-0.0031091673086804,-0.0006));
#1403=CARTESIAN_POINT('',(-0.001925,-0.0031091673086804,-0.0006));
#1404=CARTESIAN_POINT('',(-0.001925,-0.0033045836543402,-0.0006));
#1405=CARTESIAN_POINT('',(-0.001925,-0.0026591673086804,-0.0003));
#1406=CARTESIAN_POINT('',(-0.002675,-0.0026591673086804,-0.0003));
#1407=CARTESIAN_POINT('',(-0.001925,-0.0026591673086804,-0.0003));
#1408=CARTESIAN_POINT('',(-0.001925,-0.00175,0.0022));
#1409=CARTESIAN_POINT('',(-0.002675,-0.00175,0.0022));
#1410=CARTESIAN_POINT('',(0.,0.,0.));
#1411=CARTESIAN_POINT('',(0.000375,-0.0011045836543402,0.));
#1412=CARTESIAN_POINT('',(-0.000375,-0.0011045836543402,0.));
#1413=CARTESIAN_POINT('',(-0.000375,0.,-1.35525271560688E-20));
#1414=CARTESIAN_POINT('',(-0.000375,-0.0022091673086804,5.42101086242752E-20));
#1415=CARTESIAN_POINT('',(0.000375,0.,-1.35525271560688E-20));
#1416=CARTESIAN_POINT('',(0.000375,0.,-1.35525271560688E-20));
#1417=CARTESIAN_POINT('',(0.000375,-0.0011045836543402,0.));
#1418=CARTESIAN_POINT('',(0.000375,-0.0022091673086804,5.42101086242752E-20));
#1419=CARTESIAN_POINT('',(0.000375,-0.0022091673086804,5.42101086242752E-20));
#1420=CARTESIAN_POINT('',(0.000375,0.,0.00015));
#1421=CARTESIAN_POINT('',(-0.000375,0.,0.00015));
#1422=CARTESIAN_POINT('',(-0.000375,0.,0.0003));
#1423=CARTESIAN_POINT('',(0.000375,0.,0.0003));
#1424=CARTESIAN_POINT('',(0.000375,0.,0.0003));
#1425=CARTESIAN_POINT('',(0.000375,0.,0.00015));
#1426=CARTESIAN_POINT('',(0.000375,-0.00115,0.0003));
#1427=CARTESIAN_POINT('',(-0.000375,-0.00115,0.0003));
#1428=CARTESIAN_POINT('',(-0.000375,-0.0023,0.0003));
#1429=CARTESIAN_POINT('',(0.000375,-0.0023,0.0003));
#1430=CARTESIAN_POINT('',(0.000375,-0.0023,0.0003));
#1431=CARTESIAN_POINT('',(0.000375,-0.00115,0.0003));
#1432=CARTESIAN_POINT('',(0.000375,-0.00275,-4.33680868994202E-19));
#1433=CARTESIAN_POINT('',(-0.000375,-0.00275,-4.33680868994202E-19));
#1434=CARTESIAN_POINT('',(-0.000375,-0.0032,-0.0003));
#1435=CARTESIAN_POINT('',(0.000375,-0.0032,-0.0003));
#1436=CARTESIAN_POINT('',(0.000375,-0.0032,-0.0003));
#1437=CARTESIAN_POINT('',(0.000375,-0.00275,-4.33680868994202E-19));
#1438=CARTESIAN_POINT('',(0.000375,-0.00335,-0.0003));
#1439=CARTESIAN_POINT('',(-0.000375,-0.00335,-0.0003));
#1440=CARTESIAN_POINT('',(-0.000375,-0.0035,-0.0003));
#1441=CARTESIAN_POINT('',(0.000375,-0.0035,-0.0003));
#1442=CARTESIAN_POINT('',(0.000375,-0.0035,-0.0003));
#1443=CARTESIAN_POINT('',(0.000375,-0.00335,-0.0003));
#1444=CARTESIAN_POINT('',(0.000375,-0.0035,-0.00045));
#1445=CARTESIAN_POINT('',(-0.000375,-0.0035,-0.00045));
#1446=CARTESIAN_POINT('',(-0.000375,-0.0035,-0.0006));
#1447=CARTESIAN_POINT('',(0.000375,-0.0035,-0.0006));
#1448=CARTESIAN_POINT('',(0.000375,-0.0035,-0.0006));
#1449=CARTESIAN_POINT('',(0.000375,-0.0035,-0.00045));
#1450=CARTESIAN_POINT('',(0.000375,-0.0033045836543402,-0.0006));
#1451=CARTESIAN_POINT('',(-0.000375,-0.0033045836543402,-0.0006));
#1452=CARTESIAN_POINT('',(-0.000375,-0.0031091673086804,-0.0006));
#1453=CARTESIAN_POINT('',(0.000375,-0.0031091673086804,-0.0006));
#1454=CARTESIAN_POINT('',(0.000375,-0.0031091673086804,-0.0006));
#1455=CARTESIAN_POINT('',(0.000375,-0.0033045836543402,-0.0006));
#1456=CARTESIAN_POINT('',(0.000375,-0.0026591673086804,-0.0003));
#1457=CARTESIAN_POINT('',(-0.000375,-0.0026591673086804,-0.0003));
#1458=CARTESIAN_POINT('',(0.000375,-0.0026591673086804,-0.0003));
#1459=CARTESIAN_POINT('',(0.000375,-0.00175,0.0022));
#1460=CARTESIAN_POINT('',(-0.000375,-0.00175,0.0022));
#1461=MECHANICAL_DESIGN_GEOMETRIC_PRESENTATION_REPRESENTATION('',(#881),
#1466);
#1462=MECHANICAL_DESIGN_GEOMETRIC_PRESENTATION_REPRESENTATION('',(#882),
#1467);
#1463=MECHANICAL_DESIGN_GEOMETRIC_PRESENTATION_REPRESENTATION('',(#883),
#1468);
#1464=MECHANICAL_DESIGN_GEOMETRIC_PRESENTATION_REPRESENTATION('',(#884),
#1469);
#1465=MECHANICAL_DESIGN_GEOMETRIC_PRESENTATION_REPRESENTATION('',(#885),
#1470);
#1466=(
GEOMETRIC_REPRESENTATION_CONTEXT(3)
GLOBAL_UNCERTAINTY_ASSIGNED_CONTEXT((#1471))
GLOBAL_UNIT_ASSIGNED_CONTEXT((#1486,#1481,#1476))
REPRESENTATION_CONTEXT('Part 1','TOP_LEVEL_ASSEMBLY_PART')
);
#1467=(
GEOMETRIC_REPRESENTATION_CONTEXT(3)
GLOBAL_UNCERTAINTY_ASSIGNED_CONTEXT((#1472))
GLOBAL_UNIT_ASSIGNED_CONTEXT((#1487,#1482,#1477))
REPRESENTATION_CONTEXT('Part 3','TOP_LEVEL_ASSEMBLY_PART')
);
#1468=(
GEOMETRIC_REPRESENTATION_CONTEXT(3)
GLOBAL_UNCERTAINTY_ASSIGNED_CONTEXT((#1473))
GLOBAL_UNIT_ASSIGNED_CONTEXT((#1488,#1483,#1478))
REPRESENTATION_CONTEXT('Part 5','TOP_LEVEL_ASSEMBLY_PART')
);
#1469=(
GEOMETRIC_REPRESENTATION_CONTEXT(3)
GLOBAL_UNCERTAINTY_ASSIGNED_CONTEXT((#1474))
GLOBAL_UNIT_ASSIGNED_CONTEXT((#1489,#1484,#1479))
REPRESENTATION_CONTEXT('Part 4','TOP_LEVEL_ASSEMBLY_PART')
);
#1470=(
GEOMETRIC_REPRESENTATION_CONTEXT(3)
GLOBAL_UNCERTAINTY_ASSIGNED_CONTEXT((#1475))
GLOBAL_UNIT_ASSIGNED_CONTEXT((#1490,#1485,#1480))
REPRESENTATION_CONTEXT('Part 2','TOP_LEVEL_ASSEMBLY_PART')
);
#1471=UNCERTAINTY_MEASURE_WITH_UNIT(LENGTH_MEASURE(1.E-8),#1486,
'DISTANCE_ACCURACY_VALUE','Maximum Tolerance applied to model');
#1472=UNCERTAINTY_MEASURE_WITH_UNIT(LENGTH_MEASURE(1.E-8),#1487,
'DISTANCE_ACCURACY_VALUE','Maximum Tolerance applied to model');
#1473=UNCERTAINTY_MEASURE_WITH_UNIT(LENGTH_MEASURE(1.E-8),#1488,
'DISTANCE_ACCURACY_VALUE','Maximum Tolerance applied to model');
#1474=UNCERTAINTY_MEASURE_WITH_UNIT(LENGTH_MEASURE(1.E-8),#1489,
'DISTANCE_ACCURACY_VALUE','Maximum Tolerance applied to model');
#1475=UNCERTAINTY_MEASURE_WITH_UNIT(LENGTH_MEASURE(1.E-8),#1490,
'DISTANCE_ACCURACY_VALUE','Maximum Tolerance applied to model');
#1476=(
NAMED_UNIT(*)
SI_UNIT($,.STERADIAN.)
SOLID_ANGLE_UNIT()
);
#1477=(
NAMED_UNIT(*)
SI_UNIT($,.STERADIAN.)
SOLID_ANGLE_UNIT()
);
#1478=(
NAMED_UNIT(*)
SI_UNIT($,.STERADIAN.)
SOLID_ANGLE_UNIT()
);
#1479=(
NAMED_UNIT(*)
SI_UNIT($,.STERADIAN.)
SOLID_ANGLE_UNIT()
);
#1480=(
NAMED_UNIT(*)
SI_UNIT($,.STERADIAN.)
SOLID_ANGLE_UNIT()
);
#1481=(
NAMED_UNIT(*)
PLANE_ANGLE_UNIT()
SI_UNIT($,.RADIAN.)
);
#1482=(
NAMED_UNIT(*)
PLANE_ANGLE_UNIT()
SI_UNIT($,.RADIAN.)
);
#1483=(
NAMED_UNIT(*)
PLANE_ANGLE_UNIT()
SI_UNIT($,.RADIAN.)
);
#1484=(
NAMED_UNIT(*)
PLANE_ANGLE_UNIT()
SI_UNIT($,.RADIAN.)
);
#1485=(
NAMED_UNIT(*)
PLANE_ANGLE_UNIT()
SI_UNIT($,.RADIAN.)
);
#1486=(
LENGTH_UNIT()
NAMED_UNIT(*)
SI_UNIT($,.METRE.)
);
#1487=(
LENGTH_UNIT()
NAMED_UNIT(*)
SI_UNIT($,.METRE.)
);
#1488=(
LENGTH_UNIT()
NAMED_UNIT(*)
SI_UNIT($,.METRE.)
);
#1489=(
LENGTH_UNIT()
NAMED_UNIT(*)
SI_UNIT($,.METRE.)
);
#1490=(
LENGTH_UNIT()
NAMED_UNIT(*)
SI_UNIT($,.METRE.)
);
#1491=PRODUCT_DEFINITION_SHAPE('','',#1496);
#1492=PRODUCT_DEFINITION_SHAPE('','',#1497);
#1493=PRODUCT_DEFINITION_SHAPE('','',#1498);
#1494=PRODUCT_DEFINITION_SHAPE('','',#1499);
#1495=PRODUCT_DEFINITION_SHAPE('','',#1500);
#1496=PRODUCT_DEFINITION('','',#1506,#1501);
#1497=PRODUCT_DEFINITION('','',#1507,#1502);
#1498=PRODUCT_DEFINITION('','',#1508,#1503);
#1499=PRODUCT_DEFINITION('','',#1509,#1504);
#1500=PRODUCT_DEFINITION('','',#1510,#1505);
#1501=PRODUCT_DEFINITION_CONTEXT('',#1536,'design');
#1502=PRODUCT_DEFINITION_CONTEXT('',#1537,'design');
#1503=PRODUCT_DEFINITION_CONTEXT('',#1538,'design');
#1504=PRODUCT_DEFINITION_CONTEXT('',#1539,'design');
#1505=PRODUCT_DEFINITION_CONTEXT('',#1540,'design');
#1506=PRODUCT_DEFINITION_FORMATION_WITH_SPECIFIED_SOURCE('','',#1516,
 .NOT_KNOWN.);
#1507=PRODUCT_DEFINITION_FORMATION_WITH_SPECIFIED_SOURCE('','',#1517,
 .NOT_KNOWN.);
#1508=PRODUCT_DEFINITION_FORMATION_WITH_SPECIFIED_SOURCE('','',#1518,
 .NOT_KNOWN.);
#1509=PRODUCT_DEFINITION_FORMATION_WITH_SPECIFIED_SOURCE('','',#1519,
 .NOT_KNOWN.);
#1510=PRODUCT_DEFINITION_FORMATION_WITH_SPECIFIED_SOURCE('','',#1520,
 .NOT_KNOWN.);
#1511=PRODUCT_RELATED_PRODUCT_CATEGORY('','',(#1516));
#1512=PRODUCT_RELATED_PRODUCT_CATEGORY('','',(#1517));
#1513=PRODUCT_RELATED_PRODUCT_CATEGORY('','',(#1518));
#1514=PRODUCT_RELATED_PRODUCT_CATEGORY('','',(#1519));
#1515=PRODUCT_RELATED_PRODUCT_CATEGORY('','',(#1520));
#1516=PRODUCT('Part 1','Part 1','Part 1',(#1526));
#1517=PRODUCT('Part 3','Part 3','Part 3',(#1527));
#1518=PRODUCT('Part 5','Part 5','Part 5',(#1528));
#1519=PRODUCT('Part 4','Part 4','Part 4',(#1529));
#1520=PRODUCT('Part 2','Part 2','Part 2',(#1530));
#1521=PRODUCT_CATEGORY('','');
#1522=PRODUCT_CATEGORY('','');
#1523=PRODUCT_CATEGORY('','');
#1524=PRODUCT_CATEGORY('','');
#1525=PRODUCT_CATEGORY('','');
#1526=PRODUCT_CONTEXT('',#1536,'mechanical');
#1527=PRODUCT_CONTEXT('',#1537,'mechanical');
#1528=PRODUCT_CONTEXT('',#1538,'mechanical');
#1529=PRODUCT_CONTEXT('',#1539,'mechanical');
#1530=PRODUCT_CONTEXT('',#1540,'mechanical');
#1531=APPLICATION_PROTOCOL_DEFINITION('international standard',
'ap242_managed_model_based_3d_engineering',2011,#1536);
#1532=APPLICATION_PROTOCOL_DEFINITION('international standard',
'ap242_managed_model_based_3d_engineering',2011,#1537);
#1533=APPLICATION_PROTOCOL_DEFINITION('international standard',
'ap242_managed_model_based_3d_engineering',2011,#1538);
#1534=APPLICATION_PROTOCOL_DEFINITION('international standard',
'ap242_managed_model_based_3d_engineering',2011,#1539);
#1535=APPLICATION_PROTOCOL_DEFINITION('international standard',
'ap242_managed_model_based_3d_engineering',2011,#1540);
#1536=APPLICATION_CONTEXT('managed model based 3d engineering');
#1537=APPLICATION_CONTEXT('managed model based 3d engineering');
#1538=APPLICATION_CONTEXT('managed model based 3d engineering');
#1539=APPLICATION_CONTEXT('managed model based 3d engineering');
#1540=APPLICATION_CONTEXT('managed model based 3d engineering');
ENDSEC;
END-ISO-10303-21;
