ISO-10303-21;
HEADER;
/* Generated by software containing ST-Developer
 * from STEP Tools, Inc. (www.steptools.com) 
 */
/* OPTION: using custom renumber hook */

FILE_DESCRIPTION(
/* description */ ('STEP AP242',
'CAx-IF Rec.Pracs.---Representation and Presentation of Product Manufa
cturing Information (PMI)---4.0---2014-10-13',
'CAx-IF Rec.Pracs.---3D Tessellated Geometry---0.4---2014-09-14','2;1'),

/* implementation_level */ '2;1');

FILE_NAME(
/* name */ '68b703da45aca2f402f91385',
/* time_stamp */ '2025-09-02T14:49:00Z',
/* author */ (''),
/* organization */ (''),
/* preprocessor_version */ 'ST-DEVELOPER v20',
/* originating_system */ 'ONSHAPE BY PTC INC, 1.203',
/* authorisation */ '  ');

FILE_SCHEMA (('AP242_MANAGED_MODEL_BASED_3D_ENGINEERING_MIM_LF { 1 0 10303 442 1 1 4 }'));
ENDSEC;

DATA;
#10=SHAPE_REPRESENTATION_RELATIONSHIP('','',#1186,#11);
#11=ADVANCED_BREP_SHAPE_REPRESENTATION('',(#1184),#1828);
#12=CYLINDRICAL_SURFACE('',#1207,0.002);
#13=CYLINDRICAL_SURFACE('',#1216,0.0006);
#14=CYLINDRICAL_SURFACE('',#1239,0.002);
#15=B_SPLINE_CURVE_WITH_KNOTS('',3,(#1550,#1551,#1552,#1553),
 .UNSPECIFIED.,.F.,.F.,(4,4),(0.00394131538018708,0.00484684271727031),
 .UNSPECIFIED.);
#16=B_SPLINE_CURVE_WITH_KNOTS('',3,(#1555,#1556,#1557,#1558),
 .UNSPECIFIED.,.F.,.F.,(4,4),(0.00267651796935857,0.00358375729018954),
 .UNSPECIFIED.);
#17=B_SPLINE_CURVE_WITH_KNOTS('',3,(#1562,#1563,#1564,#1565),
 .UNSPECIFIED.,.F.,.F.,(4,4),(0.00194943937328352,0.00253680620879207),
 .UNSPECIFIED.);
#18=B_SPLINE_CURVE_WITH_KNOTS('',3,(#1569,#1570,#1571,#1572),
 .UNSPECIFIED.,.F.,.F.,(4,4),(0.00267651796935857,0.00358375729018982),
 .UNSPECIFIED.);
#19=B_SPLINE_CURVE_WITH_KNOTS('',3,(#1576,#1577,#1578,#1579),
 .UNSPECIFIED.,.F.,.F.,(4,4),(0.00394131538018708,0.00484684271727031),
 .UNSPECIFIED.);
#20=B_SPLINE_CURVE_WITH_KNOTS('',3,(#1583,#1584,#1585,#1586),
 .UNSPECIFIED.,.F.,.F.,(4,4),(0.00194943937328353,0.00253680620879209),
 .UNSPECIFIED.);
#21=B_SPLINE_CURVE_WITH_KNOTS('',3,(#1597,#1598,#1599,#1600),
 .UNSPECIFIED.,.F.,.F.,(4,4),(0.00394131538018707,0.0048468427172703),
 .UNSPECIFIED.);
#22=B_SPLINE_CURVE_WITH_KNOTS('',3,(#1602,#1603,#1604,#1605),
 .UNSPECIFIED.,.F.,.F.,(4,4),(0.00267651796935857,0.00358375729018954),
 .UNSPECIFIED.);
#23=B_SPLINE_CURVE_WITH_KNOTS('',3,(#1609,#1610,#1611,#1612),
 .UNSPECIFIED.,.F.,.F.,(4,4),(0.00194943937328353,0.00253680620879209),
 .UNSPECIFIED.);
#24=B_SPLINE_CURVE_WITH_KNOTS('',3,(#1616,#1617,#1618,#1619),
 .UNSPECIFIED.,.F.,.F.,(4,4),(0.00267651796935857,0.00358375729018981),
 .UNSPECIFIED.);
#25=B_SPLINE_CURVE_WITH_KNOTS('',3,(#1623,#1624,#1625,#1626),
 .UNSPECIFIED.,.F.,.F.,(4,4),(0.00394131538018707,0.0048468427172703),
 .UNSPECIFIED.);
#26=B_SPLINE_CURVE_WITH_KNOTS('',3,(#1630,#1631,#1632,#1633),
 .UNSPECIFIED.,.F.,.F.,(4,4),(0.00194943937328353,0.00253680620880166),
 .UNSPECIFIED.);
#27=TOROIDAL_SURFACE('',#1191,0.0013,0.0007);
#28=TOROIDAL_SURFACE('',#1200,0.0013,0.0007);
#29=CIRCLE('',#1190,0.0013);
#30=CIRCLE('',#1192,0.002);
#31=CIRCLE('',#1193,0.00197082039324994);
#32=CIRCLE('',#1194,0.00197082039324994);
#33=CIRCLE('',#1195,0.0013);
#34=CIRCLE('',#1196,0.00197082039324994);
#35=CIRCLE('',#1197,0.00197082039324994);
#36=CIRCLE('',#1199,0.0013);
#37=CIRCLE('',#1201,0.002);
#38=CIRCLE('',#1202,0.00197082039324994);
#39=CIRCLE('',#1203,0.00197082039324994);
#40=CIRCLE('',#1204,0.0013);
#41=CIRCLE('',#1205,0.00197082039324994);
#42=CIRCLE('',#1206,0.00197082039324994);
#43=CIRCLE('',#1208,0.002);
#44=CIRCLE('',#1214,0.002);
#45=CIRCLE('',#1217,0.0006);
#46=CIRCLE('',#1218,0.0006);
#47=ORIENTED_EDGE('',*,*,#309,.F.);
#48=ORIENTED_EDGE('',*,*,#310,.F.);
#49=ORIENTED_EDGE('',*,*,#311,.T.);
#50=ORIENTED_EDGE('',*,*,#312,.T.);
#51=ORIENTED_EDGE('',*,*,#313,.F.);
#52=ORIENTED_EDGE('',*,*,#314,.F.);
#53=ORIENTED_EDGE('',*,*,#315,.T.);
#54=ORIENTED_EDGE('',*,*,#316,.T.);
#55=ORIENTED_EDGE('',*,*,#317,.T.);
#56=ORIENTED_EDGE('',*,*,#318,.T.);
#57=ORIENTED_EDGE('',*,*,#319,.F.);
#58=ORIENTED_EDGE('',*,*,#320,.F.);
#59=ORIENTED_EDGE('',*,*,#321,.F.);
#60=ORIENTED_EDGE('',*,*,#322,.T.);
#61=ORIENTED_EDGE('',*,*,#323,.T.);
#62=ORIENTED_EDGE('',*,*,#324,.F.);
#63=ORIENTED_EDGE('',*,*,#322,.F.);
#64=ORIENTED_EDGE('',*,*,#325,.F.);
#65=ORIENTED_EDGE('',*,*,#326,.F.);
#66=ORIENTED_EDGE('',*,*,#327,.F.);
#67=ORIENTED_EDGE('',*,*,#328,.F.);
#68=ORIENTED_EDGE('',*,*,#329,.T.);
#69=ORIENTED_EDGE('',*,*,#330,.F.);
#70=ORIENTED_EDGE('',*,*,#331,.T.);
#71=ORIENTED_EDGE('',*,*,#332,.F.);
#72=ORIENTED_EDGE('',*,*,#333,.T.);
#73=ORIENTED_EDGE('',*,*,#334,.F.);
#74=ORIENTED_EDGE('',*,*,#335,.F.);
#75=ORIENTED_EDGE('',*,*,#336,.F.);
#76=ORIENTED_EDGE('',*,*,#337,.F.);
#77=ORIENTED_EDGE('',*,*,#338,.F.);
#78=ORIENTED_EDGE('',*,*,#336,.T.);
#79=ORIENTED_EDGE('',*,*,#339,.F.);
#80=ORIENTED_EDGE('',*,*,#340,.T.);
#81=ORIENTED_EDGE('',*,*,#341,.F.);
#82=ORIENTED_EDGE('',*,*,#342,.T.);
#83=ORIENTED_EDGE('',*,*,#343,.T.);
#84=ORIENTED_EDGE('',*,*,#344,.T.);
#85=ORIENTED_EDGE('',*,*,#345,.T.);
#86=ORIENTED_EDGE('',*,*,#346,.T.);
#87=ORIENTED_EDGE('',*,*,#347,.T.);
#88=ORIENTED_EDGE('',*,*,#348,.T.);
#89=ORIENTED_EDGE('',*,*,#349,.T.);
#90=ORIENTED_EDGE('',*,*,#323,.F.);
#91=ORIENTED_EDGE('',*,*,#330,.T.);
#92=ORIENTED_EDGE('',*,*,#350,.T.);
#93=ORIENTED_EDGE('',*,*,#351,.F.);
#94=ORIENTED_EDGE('',*,*,#316,.F.);
#95=ORIENTED_EDGE('',*,*,#352,.T.);
#96=ORIENTED_EDGE('',*,*,#353,.T.);
#97=ORIENTED_EDGE('',*,*,#354,.T.);
#98=ORIENTED_EDGE('',*,*,#355,.T.);
#99=ORIENTED_EDGE('',*,*,#356,.T.);
#100=ORIENTED_EDGE('',*,*,#357,.T.);
#101=ORIENTED_EDGE('',*,*,#358,.T.);
#102=ORIENTED_EDGE('',*,*,#359,.T.);
#103=ORIENTED_EDGE('',*,*,#360,.T.);
#104=ORIENTED_EDGE('',*,*,#361,.T.);
#105=ORIENTED_EDGE('',*,*,#362,.F.);
#106=ORIENTED_EDGE('',*,*,#363,.F.);
#107=ORIENTED_EDGE('',*,*,#364,.T.);
#108=ORIENTED_EDGE('',*,*,#314,.T.);
#109=ORIENTED_EDGE('',*,*,#365,.F.);
#110=ORIENTED_EDGE('',*,*,#366,.F.);
#111=ORIENTED_EDGE('',*,*,#367,.T.);
#112=ORIENTED_EDGE('',*,*,#363,.T.);
#113=ORIENTED_EDGE('',*,*,#349,.F.);
#114=ORIENTED_EDGE('',*,*,#368,.T.);
#115=ORIENTED_EDGE('',*,*,#369,.F.);
#116=ORIENTED_EDGE('',*,*,#370,.F.);
#117=ORIENTED_EDGE('',*,*,#371,.T.);
#118=ORIENTED_EDGE('',*,*,#366,.T.);
#119=ORIENTED_EDGE('',*,*,#372,.F.);
#120=ORIENTED_EDGE('',*,*,#373,.F.);
#121=ORIENTED_EDGE('',*,*,#374,.T.);
#122=ORIENTED_EDGE('',*,*,#370,.T.);
#123=ORIENTED_EDGE('',*,*,#375,.T.);
#124=ORIENTED_EDGE('',*,*,#353,.F.);
#125=ORIENTED_EDGE('',*,*,#376,.F.);
#126=ORIENTED_EDGE('',*,*,#373,.T.);
#127=ORIENTED_EDGE('',*,*,#315,.F.);
#128=ORIENTED_EDGE('',*,*,#364,.F.);
#129=ORIENTED_EDGE('',*,*,#367,.F.);
#130=ORIENTED_EDGE('',*,*,#371,.F.);
#131=ORIENTED_EDGE('',*,*,#374,.F.);
#132=ORIENTED_EDGE('',*,*,#376,.T.);
#133=ORIENTED_EDGE('',*,*,#352,.F.);
#134=ORIENTED_EDGE('',*,*,#313,.T.);
#135=ORIENTED_EDGE('',*,*,#351,.T.);
#136=ORIENTED_EDGE('',*,*,#375,.F.);
#137=ORIENTED_EDGE('',*,*,#372,.T.);
#138=ORIENTED_EDGE('',*,*,#369,.T.);
#139=ORIENTED_EDGE('',*,*,#365,.T.);
#140=ORIENTED_EDGE('',*,*,#362,.T.);
#141=ORIENTED_EDGE('',*,*,#377,.T.);
#142=ORIENTED_EDGE('',*,*,#378,.T.);
#143=ORIENTED_EDGE('',*,*,#379,.F.);
#144=ORIENTED_EDGE('',*,*,#380,.T.);
#145=ORIENTED_EDGE('',*,*,#379,.T.);
#146=ORIENTED_EDGE('',*,*,#381,.T.);
#147=ORIENTED_EDGE('',*,*,#382,.F.);
#148=ORIENTED_EDGE('',*,*,#383,.F.);
#149=ORIENTED_EDGE('',*,*,#382,.T.);
#150=ORIENTED_EDGE('',*,*,#384,.T.);
#151=ORIENTED_EDGE('',*,*,#385,.F.);
#152=ORIENTED_EDGE('',*,*,#386,.F.);
#153=ORIENTED_EDGE('',*,*,#385,.T.);
#154=ORIENTED_EDGE('',*,*,#387,.T.);
#155=ORIENTED_EDGE('',*,*,#377,.F.);
#156=ORIENTED_EDGE('',*,*,#388,.T.);
#157=ORIENTED_EDGE('',*,*,#380,.F.);
#158=ORIENTED_EDGE('',*,*,#383,.T.);
#159=ORIENTED_EDGE('',*,*,#386,.T.);
#160=ORIENTED_EDGE('',*,*,#388,.F.);
#161=ORIENTED_EDGE('',*,*,#389,.T.);
#162=ORIENTED_EDGE('',*,*,#390,.T.);
#163=ORIENTED_EDGE('',*,*,#391,.F.);
#164=ORIENTED_EDGE('',*,*,#392,.T.);
#165=ORIENTED_EDGE('',*,*,#391,.T.);
#166=ORIENTED_EDGE('',*,*,#393,.T.);
#167=ORIENTED_EDGE('',*,*,#394,.F.);
#168=ORIENTED_EDGE('',*,*,#395,.F.);
#169=ORIENTED_EDGE('',*,*,#394,.T.);
#170=ORIENTED_EDGE('',*,*,#396,.T.);
#171=ORIENTED_EDGE('',*,*,#397,.F.);
#172=ORIENTED_EDGE('',*,*,#398,.F.);
#173=ORIENTED_EDGE('',*,*,#397,.T.);
#174=ORIENTED_EDGE('',*,*,#399,.T.);
#175=ORIENTED_EDGE('',*,*,#389,.F.);
#176=ORIENTED_EDGE('',*,*,#400,.T.);
#177=ORIENTED_EDGE('',*,*,#392,.F.);
#178=ORIENTED_EDGE('',*,*,#395,.T.);
#179=ORIENTED_EDGE('',*,*,#398,.T.);
#180=ORIENTED_EDGE('',*,*,#400,.F.);
#181=ORIENTED_EDGE('',*,*,#381,.F.);
#182=ORIENTED_EDGE('',*,*,#401,.T.);
#183=ORIENTED_EDGE('',*,*,#357,.F.);
#184=ORIENTED_EDGE('',*,*,#402,.F.);
#185=ORIENTED_EDGE('',*,*,#402,.T.);
#186=ORIENTED_EDGE('',*,*,#356,.F.);
#187=ORIENTED_EDGE('',*,*,#403,.F.);
#188=ORIENTED_EDGE('',*,*,#384,.F.);
#189=ORIENTED_EDGE('',*,*,#355,.F.);
#190=ORIENTED_EDGE('',*,*,#404,.T.);
#191=ORIENTED_EDGE('',*,*,#387,.F.);
#192=ORIENTED_EDGE('',*,*,#403,.T.);
#193=ORIENTED_EDGE('',*,*,#393,.F.);
#194=ORIENTED_EDGE('',*,*,#405,.T.);
#195=ORIENTED_EDGE('',*,*,#361,.F.);
#196=ORIENTED_EDGE('',*,*,#406,.F.);
#197=ORIENTED_EDGE('',*,*,#406,.T.);
#198=ORIENTED_EDGE('',*,*,#360,.F.);
#199=ORIENTED_EDGE('',*,*,#407,.F.);
#200=ORIENTED_EDGE('',*,*,#396,.F.);
#201=ORIENTED_EDGE('',*,*,#359,.F.);
#202=ORIENTED_EDGE('',*,*,#408,.T.);
#203=ORIENTED_EDGE('',*,*,#399,.F.);
#204=ORIENTED_EDGE('',*,*,#407,.T.);
#205=ORIENTED_EDGE('',*,*,#401,.F.);
#206=ORIENTED_EDGE('',*,*,#378,.F.);
#207=ORIENTED_EDGE('',*,*,#404,.F.);
#208=ORIENTED_EDGE('',*,*,#354,.F.);
#209=ORIENTED_EDGE('',*,*,#405,.F.);
#210=ORIENTED_EDGE('',*,*,#390,.F.);
#211=ORIENTED_EDGE('',*,*,#408,.F.);
#212=ORIENTED_EDGE('',*,*,#358,.F.);
#213=ORIENTED_EDGE('',*,*,#368,.F.);
#214=ORIENTED_EDGE('',*,*,#337,.T.);
#215=ORIENTED_EDGE('',*,*,#344,.F.);
#216=ORIENTED_EDGE('',*,*,#409,.T.);
#217=ORIENTED_EDGE('',*,*,#410,.F.);
#218=ORIENTED_EDGE('',*,*,#347,.F.);
#219=ORIENTED_EDGE('',*,*,#410,.T.);
#220=ORIENTED_EDGE('',*,*,#346,.F.);
#221=ORIENTED_EDGE('',*,*,#411,.T.);
#222=ORIENTED_EDGE('',*,*,#342,.F.);
#223=ORIENTED_EDGE('',*,*,#412,.F.);
#224=ORIENTED_EDGE('',*,*,#340,.F.);
#225=ORIENTED_EDGE('',*,*,#413,.F.);
#226=ORIENTED_EDGE('',*,*,#348,.F.);
#227=ORIENTED_EDGE('',*,*,#341,.T.);
#228=ORIENTED_EDGE('',*,*,#412,.T.);
#229=ORIENTED_EDGE('',*,*,#338,.T.);
#230=ORIENTED_EDGE('',*,*,#413,.T.);
#231=ORIENTED_EDGE('',*,*,#339,.T.);
#232=ORIENTED_EDGE('',*,*,#335,.T.);
#233=ORIENTED_EDGE('',*,*,#409,.F.);
#234=ORIENTED_EDGE('',*,*,#343,.F.);
#235=ORIENTED_EDGE('',*,*,#411,.F.);
#236=ORIENTED_EDGE('',*,*,#345,.F.);
#237=ORIENTED_EDGE('',*,*,#326,.T.);
#238=ORIENTED_EDGE('',*,*,#414,.T.);
#239=ORIENTED_EDGE('',*,*,#334,.T.);
#240=ORIENTED_EDGE('',*,*,#415,.T.);
#241=ORIENTED_EDGE('',*,*,#332,.T.);
#242=ORIENTED_EDGE('',*,*,#416,.F.);
#243=ORIENTED_EDGE('',*,*,#328,.T.);
#244=ORIENTED_EDGE('',*,*,#417,.F.);
#245=ORIENTED_EDGE('',*,*,#327,.T.);
#246=ORIENTED_EDGE('',*,*,#417,.T.);
#247=ORIENTED_EDGE('',*,*,#415,.F.);
#248=ORIENTED_EDGE('',*,*,#333,.F.);
#249=ORIENTED_EDGE('',*,*,#324,.T.);
#250=ORIENTED_EDGE('',*,*,#414,.F.);
#251=ORIENTED_EDGE('',*,*,#325,.T.);
#252=ORIENTED_EDGE('',*,*,#321,.T.);
#253=ORIENTED_EDGE('',*,*,#350,.F.);
#254=ORIENTED_EDGE('',*,*,#329,.F.);
#255=ORIENTED_EDGE('',*,*,#416,.T.);
#256=ORIENTED_EDGE('',*,*,#331,.F.);
#257=ORIENTED_EDGE('',*,*,#418,.T.);
#258=ORIENTED_EDGE('',*,*,#419,.F.);
#259=ORIENTED_EDGE('',*,*,#420,.F.);
#260=ORIENTED_EDGE('',*,*,#421,.T.);
#261=ORIENTED_EDGE('',*,*,#422,.T.);
#262=ORIENTED_EDGE('',*,*,#423,.F.);
#263=ORIENTED_EDGE('',*,*,#424,.F.);
#264=ORIENTED_EDGE('',*,*,#419,.T.);
#265=ORIENTED_EDGE('',*,*,#425,.T.);
#266=ORIENTED_EDGE('',*,*,#317,.F.);
#267=ORIENTED_EDGE('',*,*,#426,.F.);
#268=ORIENTED_EDGE('',*,*,#423,.T.);
#269=ORIENTED_EDGE('',*,*,#427,.T.);
#270=ORIENTED_EDGE('',*,*,#421,.F.);
#271=ORIENTED_EDGE('',*,*,#428,.F.);
#272=ORIENTED_EDGE('',*,*,#319,.T.);
#273=ORIENTED_EDGE('',*,*,#420,.T.);
#274=ORIENTED_EDGE('',*,*,#424,.T.);
#275=ORIENTED_EDGE('',*,*,#426,.T.);
#276=ORIENTED_EDGE('',*,*,#320,.T.);
#277=ORIENTED_EDGE('',*,*,#428,.T.);
#278=ORIENTED_EDGE('',*,*,#418,.F.);
#279=ORIENTED_EDGE('',*,*,#427,.F.);
#280=ORIENTED_EDGE('',*,*,#318,.F.);
#281=ORIENTED_EDGE('',*,*,#425,.F.);
#282=ORIENTED_EDGE('',*,*,#422,.F.);
#283=ORIENTED_EDGE('',*,*,#429,.F.);
#284=ORIENTED_EDGE('',*,*,#430,.F.);
#285=ORIENTED_EDGE('',*,*,#431,.T.);
#286=ORIENTED_EDGE('',*,*,#310,.T.);
#287=ORIENTED_EDGE('',*,*,#432,.F.);
#288=ORIENTED_EDGE('',*,*,#433,.F.);
#289=ORIENTED_EDGE('',*,*,#434,.T.);
#290=ORIENTED_EDGE('',*,*,#430,.T.);
#291=ORIENTED_EDGE('',*,*,#435,.F.);
#292=ORIENTED_EDGE('',*,*,#436,.F.);
#293=ORIENTED_EDGE('',*,*,#437,.T.);
#294=ORIENTED_EDGE('',*,*,#433,.T.);
#295=ORIENTED_EDGE('',*,*,#438,.F.);
#296=ORIENTED_EDGE('',*,*,#312,.F.);
#297=ORIENTED_EDGE('',*,*,#439,.T.);
#298=ORIENTED_EDGE('',*,*,#436,.T.);
#299=ORIENTED_EDGE('',*,*,#311,.F.);
#300=ORIENTED_EDGE('',*,*,#431,.F.);
#301=ORIENTED_EDGE('',*,*,#434,.F.);
#302=ORIENTED_EDGE('',*,*,#437,.F.);
#303=ORIENTED_EDGE('',*,*,#439,.F.);
#304=ORIENTED_EDGE('',*,*,#309,.T.);
#305=ORIENTED_EDGE('',*,*,#438,.T.);
#306=ORIENTED_EDGE('',*,*,#435,.T.);
#307=ORIENTED_EDGE('',*,*,#432,.T.);
#308=ORIENTED_EDGE('',*,*,#429,.T.);
#309=EDGE_CURVE('',#440,#441,#526,.T.);
#310=EDGE_CURVE('',#442,#440,#527,.T.);
#311=EDGE_CURVE('',#442,#443,#528,.T.);
#312=EDGE_CURVE('',#443,#441,#529,.T.);
#313=EDGE_CURVE('',#444,#445,#530,.T.);
#314=EDGE_CURVE('',#446,#444,#531,.T.);
#315=EDGE_CURVE('',#446,#447,#532,.T.);
#316=EDGE_CURVE('',#447,#445,#533,.T.);
#317=EDGE_CURVE('',#448,#449,#534,.T.);
#318=EDGE_CURVE('',#449,#450,#535,.T.);
#319=EDGE_CURVE('',#451,#450,#536,.T.);
#320=EDGE_CURVE('',#448,#451,#537,.T.);
#321=EDGE_CURVE('',#452,#453,#538,.T.);
#322=EDGE_CURVE('',#452,#453,#29,.T.);
#323=EDGE_CURVE('',#454,#454,#30,.T.);
#324=EDGE_CURVE('',#453,#455,#15,.T.);
#325=EDGE_CURVE('',#456,#452,#16,.T.);
#326=EDGE_CURVE('',#457,#456,#31,.T.);
#327=EDGE_CURVE('',#458,#457,#17,.T.);
#328=EDGE_CURVE('',#459,#458,#32,.T.);
#329=EDGE_CURVE('',#459,#460,#18,.T.);
#330=EDGE_CURVE('',#461,#460,#33,.T.);
#331=EDGE_CURVE('',#461,#462,#19,.T.);
#332=EDGE_CURVE('',#463,#462,#34,.T.);
#333=EDGE_CURVE('',#463,#464,#20,.T.);
#334=EDGE_CURVE('',#455,#464,#35,.T.);
#335=EDGE_CURVE('',#465,#466,#539,.T.);
#336=EDGE_CURVE('',#466,#465,#36,.T.);
#337=EDGE_CURVE('',#467,#467,#37,.T.);
#338=EDGE_CURVE('',#466,#468,#21,.T.);
#339=EDGE_CURVE('',#469,#465,#22,.T.);
#340=EDGE_CURVE('',#469,#470,#38,.T.);
#341=EDGE_CURVE('',#471,#470,#23,.T.);
#342=EDGE_CURVE('',#471,#472,#39,.T.);
#343=EDGE_CURVE('',#472,#473,#24,.T.);
#344=EDGE_CURVE('',#473,#474,#40,.T.);
#345=EDGE_CURVE('',#474,#475,#25,.T.);
#346=EDGE_CURVE('',#475,#476,#41,.T.);
#347=EDGE_CURVE('',#476,#477,#26,.T.);
#348=EDGE_CURVE('',#477,#468,#42,.T.);
#349=EDGE_CURVE('',#478,#478,#43,.F.);
#350=EDGE_CURVE('',#460,#461,#540,.T.);
#351=EDGE_CURVE('',#445,#479,#541,.T.);
#352=EDGE_CURVE('',#447,#480,#542,.T.);
#353=EDGE_CURVE('',#480,#479,#543,.T.);
#354=EDGE_CURVE('',#481,#482,#544,.T.);
#355=EDGE_CURVE('',#482,#483,#545,.T.);
#356=EDGE_CURVE('',#483,#484,#546,.T.);
#357=EDGE_CURVE('',#484,#481,#547,.T.);
#358=EDGE_CURVE('',#485,#486,#548,.T.);
#359=EDGE_CURVE('',#486,#487,#549,.T.);
#360=EDGE_CURVE('',#487,#488,#550,.T.);
#361=EDGE_CURVE('',#488,#485,#551,.T.);
#362=EDGE_CURVE('',#489,#444,#552,.T.);
#363=EDGE_CURVE('',#490,#489,#553,.T.);
#364=EDGE_CURVE('',#490,#446,#554,.T.);
#365=EDGE_CURVE('',#491,#489,#555,.T.);
#366=EDGE_CURVE('',#492,#491,#556,.T.);
#367=EDGE_CURVE('',#492,#490,#557,.T.);
#368=EDGE_CURVE('',#493,#493,#44,.F.);
#369=EDGE_CURVE('',#494,#491,#558,.T.);
#370=EDGE_CURVE('',#495,#494,#559,.T.);
#371=EDGE_CURVE('',#495,#492,#560,.T.);
#372=EDGE_CURVE('',#496,#494,#561,.T.);
#373=EDGE_CURVE('',#497,#496,#562,.T.);
#374=EDGE_CURVE('',#497,#495,#563,.T.);
#375=EDGE_CURVE('',#496,#479,#45,.T.);
#376=EDGE_CURVE('',#497,#480,#46,.T.);
#377=EDGE_CURVE('',#498,#499,#564,.T.);
#378=EDGE_CURVE('',#499,#500,#565,.T.);
#379=EDGE_CURVE('',#501,#500,#566,.T.);
#380=EDGE_CURVE('',#501,#498,#567,.T.);
#381=EDGE_CURVE('',#500,#502,#568,.T.);
#382=EDGE_CURVE('',#503,#502,#569,.T.);
#383=EDGE_CURVE('',#501,#503,#570,.T.);
#384=EDGE_CURVE('',#502,#504,#571,.T.);
#385=EDGE_CURVE('',#505,#504,#572,.T.);
#386=EDGE_CURVE('',#503,#505,#573,.T.);
#387=EDGE_CURVE('',#504,#499,#574,.T.);
#388=EDGE_CURVE('',#498,#505,#575,.T.);
#389=EDGE_CURVE('',#506,#507,#576,.T.);
#390=EDGE_CURVE('',#507,#508,#577,.T.);
#391=EDGE_CURVE('',#509,#508,#578,.T.);
#392=EDGE_CURVE('',#509,#506,#579,.T.);
#393=EDGE_CURVE('',#508,#510,#580,.T.);
#394=EDGE_CURVE('',#511,#510,#581,.T.);
#395=EDGE_CURVE('',#509,#511,#582,.T.);
#396=EDGE_CURVE('',#510,#512,#583,.T.);
#397=EDGE_CURVE('',#513,#512,#584,.T.);
#398=EDGE_CURVE('',#511,#513,#585,.T.);
#399=EDGE_CURVE('',#512,#507,#586,.T.);
#400=EDGE_CURVE('',#506,#513,#587,.T.);
#401=EDGE_CURVE('',#500,#481,#588,.F.);
#402=EDGE_CURVE('',#502,#484,#589,.F.);
#403=EDGE_CURVE('',#504,#483,#590,.T.);
#404=EDGE_CURVE('',#482,#499,#591,.T.);
#405=EDGE_CURVE('',#508,#485,#592,.F.);
#406=EDGE_CURVE('',#510,#488,#593,.F.);
#407=EDGE_CURVE('',#512,#487,#594,.T.);
#408=EDGE_CURVE('',#486,#507,#595,.T.);
#409=EDGE_CURVE('',#473,#474,#596,.T.);
#410=EDGE_CURVE('',#477,#476,#597,.T.);
#411=EDGE_CURVE('',#475,#472,#598,.T.);
#412=EDGE_CURVE('',#470,#471,#599,.T.);
#413=EDGE_CURVE('',#468,#469,#600,.T.);
#414=EDGE_CURVE('',#456,#455,#601,.T.);
#415=EDGE_CURVE('',#464,#463,#602,.T.);
#416=EDGE_CURVE('',#459,#462,#603,.T.);
#417=EDGE_CURVE('',#457,#458,#604,.T.);
#418=EDGE_CURVE('',#514,#515,#605,.T.);
#419=EDGE_CURVE('',#516,#515,#606,.T.);
#420=EDGE_CURVE('',#517,#516,#607,.T.);
#421=EDGE_CURVE('',#517,#514,#608,.T.);
#422=EDGE_CURVE('',#515,#518,#609,.T.);
#423=EDGE_CURVE('',#519,#518,#610,.T.);
#424=EDGE_CURVE('',#516,#519,#611,.T.);
#425=EDGE_CURVE('',#518,#449,#612,.T.);
#426=EDGE_CURVE('',#519,#448,#613,.T.);
#427=EDGE_CURVE('',#450,#514,#614,.T.);
#428=EDGE_CURVE('',#451,#517,#615,.T.);
#429=EDGE_CURVE('',#520,#440,#616,.T.);
#430=EDGE_CURVE('',#521,#520,#617,.T.);
#431=EDGE_CURVE('',#521,#442,#618,.T.);
#432=EDGE_CURVE('',#522,#520,#619,.T.);
#433=EDGE_CURVE('',#523,#522,#620,.T.);
#434=EDGE_CURVE('',#523,#521,#621,.T.);
#435=EDGE_CURVE('',#524,#522,#622,.T.);
#436=EDGE_CURVE('',#525,#524,#623,.T.);
#437=EDGE_CURVE('',#525,#523,#624,.T.);
#438=EDGE_CURVE('',#441,#524,#625,.T.);
#439=EDGE_CURVE('',#443,#525,#626,.T.);
#440=VERTEX_POINT('',#1519);
#441=VERTEX_POINT('',#1520);
#442=VERTEX_POINT('',#1522);
#443=VERTEX_POINT('',#1524);
#444=VERTEX_POINT('',#1527);
#445=VERTEX_POINT('',#1528);
#446=VERTEX_POINT('',#1530);
#447=VERTEX_POINT('',#1532);
#448=VERTEX_POINT('',#1535);
#449=VERTEX_POINT('',#1536);
#450=VERTEX_POINT('',#1538);
#451=VERTEX_POINT('',#1540);
#452=VERTEX_POINT('',#1544);
#453=VERTEX_POINT('',#1545);
#454=VERTEX_POINT('',#1549);
#455=VERTEX_POINT('',#1554);
#456=VERTEX_POINT('',#1559);
#457=VERTEX_POINT('',#1561);
#458=VERTEX_POINT('',#1566);
#459=VERTEX_POINT('',#1568);
#460=VERTEX_POINT('',#1573);
#461=VERTEX_POINT('',#1575);
#462=VERTEX_POINT('',#1580);
#463=VERTEX_POINT('',#1582);
#464=VERTEX_POINT('',#1587);
#465=VERTEX_POINT('',#1591);
#466=VERTEX_POINT('',#1592);
#467=VERTEX_POINT('',#1596);
#468=VERTEX_POINT('',#1601);
#469=VERTEX_POINT('',#1606);
#470=VERTEX_POINT('',#1608);
#471=VERTEX_POINT('',#1613);
#472=VERTEX_POINT('',#1615);
#473=VERTEX_POINT('',#1620);
#474=VERTEX_POINT('',#1622);
#475=VERTEX_POINT('',#1627);
#476=VERTEX_POINT('',#1629);
#477=VERTEX_POINT('',#1634);
#478=VERTEX_POINT('',#1638);
#479=VERTEX_POINT('',#1643);
#480=VERTEX_POINT('',#1645);
#481=VERTEX_POINT('',#1648);
#482=VERTEX_POINT('',#1649);
#483=VERTEX_POINT('',#1651);
#484=VERTEX_POINT('',#1653);
#485=VERTEX_POINT('',#1656);
#486=VERTEX_POINT('',#1657);
#487=VERTEX_POINT('',#1659);
#488=VERTEX_POINT('',#1661);
#489=VERTEX_POINT('',#1665);
#490=VERTEX_POINT('',#1667);
#491=VERTEX_POINT('',#1671);
#492=VERTEX_POINT('',#1673);
#493=VERTEX_POINT('',#1677);
#494=VERTEX_POINT('',#1679);
#495=VERTEX_POINT('',#1681);
#496=VERTEX_POINT('',#1685);
#497=VERTEX_POINT('',#1687);
#498=VERTEX_POINT('',#1696);
#499=VERTEX_POINT('',#1697);
#500=VERTEX_POINT('',#1699);
#501=VERTEX_POINT('',#1701);
#502=VERTEX_POINT('',#1705);
#503=VERTEX_POINT('',#1707);
#504=VERTEX_POINT('',#1711);
#505=VERTEX_POINT('',#1713);
#506=VERTEX_POINT('',#1721);
#507=VERTEX_POINT('',#1722);
#508=VERTEX_POINT('',#1724);
#509=VERTEX_POINT('',#1726);
#510=VERTEX_POINT('',#1730);
#511=VERTEX_POINT('',#1732);
#512=VERTEX_POINT('',#1736);
#513=VERTEX_POINT('',#1738);
#514=VERTEX_POINT('',#1783);
#515=VERTEX_POINT('',#1784);
#516=VERTEX_POINT('',#1786);
#517=VERTEX_POINT('',#1788);
#518=VERTEX_POINT('',#1792);
#519=VERTEX_POINT('',#1794);
#520=VERTEX_POINT('',#1806);
#521=VERTEX_POINT('',#1808);
#522=VERTEX_POINT('',#1812);
#523=VERTEX_POINT('',#1814);
#524=VERTEX_POINT('',#1818);
#525=VERTEX_POINT('',#1820);
#526=LINE('',#1518,#627);
#527=LINE('',#1521,#628);
#528=LINE('',#1523,#629);
#529=LINE('',#1525,#630);
#530=LINE('',#1526,#631);
#531=LINE('',#1529,#632);
#532=LINE('',#1531,#633);
#533=LINE('',#1533,#634);
#534=LINE('',#1534,#635);
#535=LINE('',#1537,#636);
#536=LINE('',#1539,#637);
#537=LINE('',#1541,#638);
#538=LINE('',#1543,#639);
#539=LINE('',#1590,#640);
#540=LINE('',#1640,#641);
#541=LINE('',#1642,#642);
#542=LINE('',#1644,#643);
#543=LINE('',#1646,#644);
#544=LINE('',#1647,#645);
#545=LINE('',#1650,#646);
#546=LINE('',#1652,#647);
#547=LINE('',#1654,#648);
#548=LINE('',#1655,#649);
#549=LINE('',#1658,#650);
#550=LINE('',#1660,#651);
#551=LINE('',#1662,#652);
#552=LINE('',#1664,#653);
#553=LINE('',#1666,#654);
#554=LINE('',#1668,#655);
#555=LINE('',#1670,#656);
#556=LINE('',#1672,#657);
#557=LINE('',#1674,#658);
#558=LINE('',#1678,#659);
#559=LINE('',#1680,#660);
#560=LINE('',#1682,#661);
#561=LINE('',#1684,#662);
#562=LINE('',#1686,#663);
#563=LINE('',#1688,#664);
#564=LINE('',#1695,#665);
#565=LINE('',#1698,#666);
#566=LINE('',#1700,#667);
#567=LINE('',#1702,#668);
#568=LINE('',#1704,#669);
#569=LINE('',#1706,#670);
#570=LINE('',#1708,#671);
#571=LINE('',#1710,#672);
#572=LINE('',#1712,#673);
#573=LINE('',#1714,#674);
#574=LINE('',#1716,#675);
#575=LINE('',#1717,#676);
#576=LINE('',#1720,#677);
#577=LINE('',#1723,#678);
#578=LINE('',#1725,#679);
#579=LINE('',#1727,#680);
#580=LINE('',#1729,#681);
#581=LINE('',#1731,#682);
#582=LINE('',#1733,#683);
#583=LINE('',#1735,#684);
#584=LINE('',#1737,#685);
#585=LINE('',#1739,#686);
#586=LINE('',#1741,#687);
#587=LINE('',#1742,#688);
#588=LINE('',#1745,#689);
#589=LINE('',#1746,#690);
#590=LINE('',#1748,#691);
#591=LINE('',#1750,#692);
#592=LINE('',#1752,#693);
#593=LINE('',#1753,#694);
#594=LINE('',#1755,#695);
#595=LINE('',#1757,#696);
#596=LINE('',#1762,#697);
#597=LINE('',#1764,#698);
#598=LINE('',#1766,#699);
#599=LINE('',#1767,#700);
#600=LINE('',#1768,#701);
#601=LINE('',#1773,#702);
#602=LINE('',#1774,#703);
#603=LINE('',#1775,#704);
#604=LINE('',#1776,#705);
#605=LINE('',#1782,#706);
#606=LINE('',#1785,#707);
#607=LINE('',#1787,#708);
#608=LINE('',#1789,#709);
#609=LINE('',#1791,#710);
#610=LINE('',#1793,#711);
#611=LINE('',#1795,#712);
#612=LINE('',#1797,#713);
#613=LINE('',#1798,#714);
#614=LINE('',#1800,#715);
#615=LINE('',#1801,#716);
#616=LINE('',#1805,#717);
#617=LINE('',#1807,#718);
#618=LINE('',#1809,#719);
#619=LINE('',#1811,#720);
#620=LINE('',#1813,#721);
#621=LINE('',#1815,#722);
#622=LINE('',#1817,#723);
#623=LINE('',#1819,#724);
#624=LINE('',#1821,#725);
#625=LINE('',#1823,#726);
#626=LINE('',#1824,#727);
#627=VECTOR('',#1267,1.);
#628=VECTOR('',#1268,1.);
#629=VECTOR('',#1269,1.);
#630=VECTOR('',#1270,1.);
#631=VECTOR('',#1271,1.);
#632=VECTOR('',#1272,1.);
#633=VECTOR('',#1273,1.);
#634=VECTOR('',#1274,1.);
#635=VECTOR('',#1275,1.);
#636=VECTOR('',#1276,1.);
#637=VECTOR('',#1277,1.);
#638=VECTOR('',#1278,1.);
#639=VECTOR('',#1281,1.);
#640=VECTOR('',#1300,1.);
#641=VECTOR('',#1323,1.);
#642=VECTOR('',#1326,1.);
#643=VECTOR('',#1327,1.);
#644=VECTOR('',#1328,1.);
#645=VECTOR('',#1329,1.);
#646=VECTOR('',#1330,1.);
#647=VECTOR('',#1331,1.);
#648=VECTOR('',#1332,1.);
#649=VECTOR('',#1333,1.);
#650=VECTOR('',#1334,1.);
#651=VECTOR('',#1335,1.);
#652=VECTOR('',#1336,1.);
#653=VECTOR('',#1339,1.);
#654=VECTOR('',#1340,1.);
#655=VECTOR('',#1341,1.);
#656=VECTOR('',#1344,1.);
#657=VECTOR('',#1345,1.);
#658=VECTOR('',#1346,1.);
#659=VECTOR('',#1351,1.);
#660=VECTOR('',#1352,1.);
#661=VECTOR('',#1353,1.);
#662=VECTOR('',#1356,1.);
#663=VECTOR('',#1357,1.);
#664=VECTOR('',#1358,1.);
#665=VECTOR('',#1371,1.);
#666=VECTOR('',#1372,1.);
#667=VECTOR('',#1373,1.);
#668=VECTOR('',#1374,1.);
#669=VECTOR('',#1377,1.);
#670=VECTOR('',#1378,1.);
#671=VECTOR('',#1379,1.);
#672=VECTOR('',#1382,1.);
#673=VECTOR('',#1383,1.);
#674=VECTOR('',#1384,1.);
#675=VECTOR('',#1387,1.);
#676=VECTOR('',#1388,1.);
#677=VECTOR('',#1393,1.);
#678=VECTOR('',#1394,1.);
#679=VECTOR('',#1395,1.);
#680=VECTOR('',#1396,1.);
#681=VECTOR('',#1399,1.);
#682=VECTOR('',#1400,1.);
#683=VECTOR('',#1401,1.);
#684=VECTOR('',#1404,1.);
#685=VECTOR('',#1405,1.);
#686=VECTOR('',#1406,1.);
#687=VECTOR('',#1409,1.);
#688=VECTOR('',#1410,1.);
#689=VECTOR('',#1415,1.);
#690=VECTOR('',#1416,1.);
#691=VECTOR('',#1419,1.);
#692=VECTOR('',#1422,1.);
#693=VECTOR('',#1425,1.);
#694=VECTOR('',#1426,1.);
#695=VECTOR('',#1429,1.);
#696=VECTOR('',#1432,1.);
#697=VECTOR('',#1441,1.);
#698=VECTOR('',#1444,1.);
#699=VECTOR('',#1447,1.);
#700=VECTOR('',#1448,1.);
#701=VECTOR('',#1449,1.);
#702=VECTOR('',#1458,1.);
#703=VECTOR('',#1459,1.);
#704=VECTOR('',#1460,1.);
#705=VECTOR('',#1461,1.);
#706=VECTOR('',#1472,1.);
#707=VECTOR('',#1473,1.);
#708=VECTOR('',#1474,1.);
#709=VECTOR('',#1475,1.);
#710=VECTOR('',#1478,1.);
#711=VECTOR('',#1479,1.);
#712=VECTOR('',#1480,1.);
#713=VECTOR('',#1483,1.);
#714=VECTOR('',#1484,1.);
#715=VECTOR('',#1487,1.);
#716=VECTOR('',#1488,1.);
#717=VECTOR('',#1495,1.);
#718=VECTOR('',#1496,1.);
#719=VECTOR('',#1497,1.);
#720=VECTOR('',#1500,1.);
#721=VECTOR('',#1501,1.);
#722=VECTOR('',#1502,1.);
#723=VECTOR('',#1505,1.);
#724=VECTOR('',#1506,1.);
#725=VECTOR('',#1507,1.);
#726=VECTOR('',#1510,1.);
#727=VECTOR('',#1511,1.);
#728=EDGE_LOOP('',(#47,#48,#49,#50));
#729=EDGE_LOOP('',(#51,#52,#53,#54));
#730=EDGE_LOOP('',(#55,#56,#57,#58));
#731=EDGE_LOOP('',(#59,#60));
#732=EDGE_LOOP('',(#61));
#733=EDGE_LOOP('',(#62,#63,#64,#65,#66,#67,#68,#69,#70,#71,#72,#73));
#734=EDGE_LOOP('',(#74,#75));
#735=EDGE_LOOP('',(#76));
#736=EDGE_LOOP('',(#77,#78,#79,#80,#81,#82,#83,#84,#85,#86,#87,#88));
#737=EDGE_LOOP('',(#89));
#738=EDGE_LOOP('',(#90));
#739=EDGE_LOOP('',(#91,#92));
#740=EDGE_LOOP('',(#93,#94,#95,#96));
#741=EDGE_LOOP('',(#97,#98,#99,#100));
#742=EDGE_LOOP('',(#101,#102,#103,#104));
#743=EDGE_LOOP('',(#105,#106,#107,#108));
#744=EDGE_LOOP('',(#109,#110,#111,#112));
#745=EDGE_LOOP('',(#113));
#746=EDGE_LOOP('',(#114));
#747=EDGE_LOOP('',(#115,#116,#117,#118));
#748=EDGE_LOOP('',(#119,#120,#121,#122));
#749=EDGE_LOOP('',(#123,#124,#125,#126));
#750=EDGE_LOOP('',(#127,#128,#129,#130,#131,#132,#133));
#751=EDGE_LOOP('',(#134,#135,#136,#137,#138,#139,#140));
#752=EDGE_LOOP('',(#141,#142,#143,#144));
#753=EDGE_LOOP('',(#145,#146,#147,#148));
#754=EDGE_LOOP('',(#149,#150,#151,#152));
#755=EDGE_LOOP('',(#153,#154,#155,#156));
#756=EDGE_LOOP('',(#157,#158,#159,#160));
#757=EDGE_LOOP('',(#161,#162,#163,#164));
#758=EDGE_LOOP('',(#165,#166,#167,#168));
#759=EDGE_LOOP('',(#169,#170,#171,#172));
#760=EDGE_LOOP('',(#173,#174,#175,#176));
#761=EDGE_LOOP('',(#177,#178,#179,#180));
#762=EDGE_LOOP('',(#181,#182,#183,#184));
#763=EDGE_LOOP('',(#185,#186,#187,#188));
#764=EDGE_LOOP('',(#189,#190,#191,#192));
#765=EDGE_LOOP('',(#193,#194,#195,#196));
#766=EDGE_LOOP('',(#197,#198,#199,#200));
#767=EDGE_LOOP('',(#201,#202,#203,#204));
#768=EDGE_LOOP('',(#205,#206,#207,#208));
#769=EDGE_LOOP('',(#209,#210,#211,#212));
#770=EDGE_LOOP('',(#213));
#771=EDGE_LOOP('',(#214));
#772=EDGE_LOOP('',(#215,#216));
#773=EDGE_LOOP('',(#217,#218));
#774=EDGE_LOOP('',(#219,#220,#221,#222,#223,#224,#225,#226));
#775=EDGE_LOOP('',(#227,#228));
#776=EDGE_LOOP('',(#229,#230,#231,#232));
#777=EDGE_LOOP('',(#233,#234,#235,#236));
#778=EDGE_LOOP('',(#237,#238,#239,#240,#241,#242,#243,#244));
#779=EDGE_LOOP('',(#245,#246));
#780=EDGE_LOOP('',(#247,#248));
#781=EDGE_LOOP('',(#249,#250,#251,#252));
#782=EDGE_LOOP('',(#253,#254,#255,#256));
#783=EDGE_LOOP('',(#257,#258,#259,#260));
#784=EDGE_LOOP('',(#261,#262,#263,#264));
#785=EDGE_LOOP('',(#265,#266,#267,#268));
#786=EDGE_LOOP('',(#269,#270,#271,#272));
#787=EDGE_LOOP('',(#273,#274,#275,#276,#277));
#788=EDGE_LOOP('',(#278,#279,#280,#281,#282));
#789=EDGE_LOOP('',(#283,#284,#285,#286));
#790=EDGE_LOOP('',(#287,#288,#289,#290));
#791=EDGE_LOOP('',(#291,#292,#293,#294));
#792=EDGE_LOOP('',(#295,#296,#297,#298));
#793=EDGE_LOOP('',(#299,#300,#301,#302,#303));
#794=EDGE_LOOP('',(#304,#305,#306,#307,#308));
#795=FACE_BOUND('',#728,.T.);
#796=FACE_BOUND('',#729,.T.);
#797=FACE_BOUND('',#730,.T.);
#798=FACE_BOUND('',#731,.T.);
#799=FACE_BOUND('',#732,.T.);
#800=FACE_BOUND('',#733,.T.);
#801=FACE_BOUND('',#734,.T.);
#802=FACE_BOUND('',#735,.T.);
#803=FACE_BOUND('',#736,.T.);
#804=FACE_BOUND('',#737,.T.);
#805=FACE_BOUND('',#738,.T.);
#806=FACE_BOUND('',#739,.T.);
#807=FACE_BOUND('',#740,.T.);
#808=FACE_BOUND('',#741,.T.);
#809=FACE_BOUND('',#742,.T.);
#810=FACE_BOUND('',#743,.T.);
#811=FACE_BOUND('',#744,.T.);
#812=FACE_BOUND('',#745,.T.);
#813=FACE_BOUND('',#746,.T.);
#814=FACE_BOUND('',#747,.T.);
#815=FACE_BOUND('',#748,.T.);
#816=FACE_BOUND('',#749,.T.);
#817=FACE_BOUND('',#750,.T.);
#818=FACE_BOUND('',#751,.T.);
#819=FACE_BOUND('',#752,.T.);
#820=FACE_BOUND('',#753,.T.);
#821=FACE_BOUND('',#754,.T.);
#822=FACE_BOUND('',#755,.T.);
#823=FACE_BOUND('',#756,.T.);
#824=FACE_BOUND('',#757,.T.);
#825=FACE_BOUND('',#758,.T.);
#826=FACE_BOUND('',#759,.T.);
#827=FACE_BOUND('',#760,.T.);
#828=FACE_BOUND('',#761,.T.);
#829=FACE_BOUND('',#762,.T.);
#830=FACE_BOUND('',#763,.T.);
#831=FACE_BOUND('',#764,.T.);
#832=FACE_BOUND('',#765,.T.);
#833=FACE_BOUND('',#766,.T.);
#834=FACE_BOUND('',#767,.T.);
#835=FACE_BOUND('',#768,.T.);
#836=FACE_BOUND('',#769,.T.);
#837=FACE_BOUND('',#770,.T.);
#838=FACE_BOUND('',#771,.T.);
#839=FACE_BOUND('',#772,.T.);
#840=FACE_BOUND('',#773,.T.);
#841=FACE_BOUND('',#774,.T.);
#842=FACE_BOUND('',#775,.T.);
#843=FACE_BOUND('',#776,.T.);
#844=FACE_BOUND('',#777,.T.);
#845=FACE_BOUND('',#778,.T.);
#846=FACE_BOUND('',#779,.T.);
#847=FACE_BOUND('',#780,.T.);
#848=FACE_BOUND('',#781,.T.);
#849=FACE_BOUND('',#782,.T.);
#850=FACE_BOUND('',#783,.T.);
#851=FACE_BOUND('',#784,.T.);
#852=FACE_BOUND('',#785,.T.);
#853=FACE_BOUND('',#786,.T.);
#854=FACE_BOUND('',#787,.T.);
#855=FACE_BOUND('',#788,.T.);
#856=FACE_BOUND('',#789,.T.);
#857=FACE_BOUND('',#790,.T.);
#858=FACE_BOUND('',#791,.T.);
#859=FACE_BOUND('',#792,.T.);
#860=FACE_BOUND('',#793,.T.);
#861=FACE_BOUND('',#794,.T.);
#862=PLANE('',#1188);
#863=PLANE('',#1189);
#864=PLANE('',#1198);
#865=PLANE('',#1209);
#866=PLANE('',#1210);
#867=PLANE('',#1211);
#868=PLANE('',#1212);
#869=PLANE('',#1213);
#870=PLANE('',#1215);
#871=PLANE('',#1219);
#872=PLANE('',#1220);
#873=PLANE('',#1221);
#874=PLANE('',#1222);
#875=PLANE('',#1223);
#876=PLANE('',#1224);
#877=PLANE('',#1225);
#878=PLANE('',#1226);
#879=PLANE('',#1227);
#880=PLANE('',#1228);
#881=PLANE('',#1229);
#882=PLANE('',#1230);
#883=PLANE('',#1231);
#884=PLANE('',#1232);
#885=PLANE('',#1233);
#886=PLANE('',#1234);
#887=PLANE('',#1235);
#888=PLANE('',#1236);
#889=PLANE('',#1237);
#890=PLANE('',#1238);
#891=PLANE('',#1240);
#892=PLANE('',#1241);
#893=PLANE('',#1242);
#894=PLANE('',#1243);
#895=PLANE('',#1244);
#896=PLANE('',#1245);
#897=PLANE('',#1246);
#898=PLANE('',#1247);
#899=PLANE('',#1248);
#900=PLANE('',#1249);
#901=PLANE('',#1250);
#902=PLANE('',#1251);
#903=PLANE('',#1252);
#904=PLANE('',#1253);
#905=PLANE('',#1254);
#906=PLANE('',#1255);
#907=PLANE('',#1256);
#908=PLANE('',#1257);
#909=PLANE('',#1258);
#910=PLANE('',#1259);
#911=PLANE('',#1260);
#912=PLANE('',#1261);
#913=PLANE('',#1262);
#914=OVER_RIDING_STYLED_ITEM('',(#1003),#943,#1001);
#915=OVER_RIDING_STYLED_ITEM('',(#1004),#948,#1001);
#916=OVER_RIDING_STYLED_ITEM('',(#1005),#950,#1001);
#917=OVER_RIDING_STYLED_ITEM('',(#1006),#951,#1001);
#918=OVER_RIDING_STYLED_ITEM('',(#1007),#952,#1001);
#919=OVER_RIDING_STYLED_ITEM('',(#1008),#953,#1001);
#920=OVER_RIDING_STYLED_ITEM('',(#1009),#954,#1001);
#921=OVER_RIDING_STYLED_ITEM('',(#1010),#955,#1001);
#922=OVER_RIDING_STYLED_ITEM('',(#1011),#956,#1001);
#923=OVER_RIDING_STYLED_ITEM('',(#1012),#957,#1001);
#924=OVER_RIDING_STYLED_ITEM('',(#1013),#958,#1001);
#925=OVER_RIDING_STYLED_ITEM('',(#1014),#959,#1001);
#926=OVER_RIDING_STYLED_ITEM('',(#1015),#960,#1001);
#927=OVER_RIDING_STYLED_ITEM('',(#1016),#961,#1001);
#928=OVER_RIDING_STYLED_ITEM('',(#1017),#962,#1001);
#929=OVER_RIDING_STYLED_ITEM('',(#1018),#963,#1001);
#930=OVER_RIDING_STYLED_ITEM('',(#1019),#964,#1001);
#931=OVER_RIDING_STYLED_ITEM('',(#1020),#965,#1001);
#932=OVER_RIDING_STYLED_ITEM('',(#1021),#966,#1001);
#933=OVER_RIDING_STYLED_ITEM('',(#1022),#967,#1001);
#934=OVER_RIDING_STYLED_ITEM('',(#1023),#968,#1001);
#935=OVER_RIDING_STYLED_ITEM('',(#1024),#969,#1001);
#936=OVER_RIDING_STYLED_ITEM('',(#1025),#970,#1001);
#937=OVER_RIDING_STYLED_ITEM('',(#1026),#971,#1001);
#938=OVER_RIDING_STYLED_ITEM('',(#1027),#972,#1001);
#939=OVER_RIDING_STYLED_ITEM('',(#1028),#973,#1001);
#940=OVER_RIDING_STYLED_ITEM('',(#1029),#974,#1001);
#941=OVER_RIDING_STYLED_ITEM('',(#1030),#975,#1001);
#942=OVER_RIDING_STYLED_ITEM('',(#1031),#976,#1001);
#943=ADVANCED_FACE('',(#795,#796,#797),#862,.T.);
#944=ADVANCED_FACE('',(#798),#863,.F.);
#945=ADVANCED_FACE('',(#799,#800),#27,.T.);
#946=ADVANCED_FACE('',(#801),#864,.F.);
#947=ADVANCED_FACE('',(#802,#803),#28,.T.);
#948=ADVANCED_FACE('',(#804,#805),#12,.F.);
#949=ADVANCED_FACE('',(#806),#865,.F.);
#950=ADVANCED_FACE('',(#807,#808,#809),#866,.T.);
#951=ADVANCED_FACE('',(#810),#867,.T.);
#952=ADVANCED_FACE('',(#811),#868,.T.);
#953=ADVANCED_FACE('',(#812,#813,#814),#869,.T.);
#954=ADVANCED_FACE('',(#815),#870,.T.);
#955=ADVANCED_FACE('',(#816),#13,.T.);
#956=ADVANCED_FACE('',(#817),#871,.T.);
#957=ADVANCED_FACE('',(#818),#872,.F.);
#958=ADVANCED_FACE('',(#819),#873,.T.);
#959=ADVANCED_FACE('',(#820),#874,.F.);
#960=ADVANCED_FACE('',(#821),#875,.F.);
#961=ADVANCED_FACE('',(#822),#876,.T.);
#962=ADVANCED_FACE('',(#823),#877,.T.);
#963=ADVANCED_FACE('',(#824),#878,.T.);
#964=ADVANCED_FACE('',(#825),#879,.F.);
#965=ADVANCED_FACE('',(#826),#880,.F.);
#966=ADVANCED_FACE('',(#827),#881,.T.);
#967=ADVANCED_FACE('',(#828),#882,.T.);
#968=ADVANCED_FACE('',(#829),#883,.T.);
#969=ADVANCED_FACE('',(#830),#884,.T.);
#970=ADVANCED_FACE('',(#831),#885,.F.);
#971=ADVANCED_FACE('',(#832),#886,.T.);
#972=ADVANCED_FACE('',(#833),#887,.T.);
#973=ADVANCED_FACE('',(#834),#888,.F.);
#974=ADVANCED_FACE('',(#835),#889,.F.);
#975=ADVANCED_FACE('',(#836),#890,.F.);
#976=ADVANCED_FACE('',(#837,#838),#14,.F.);
#977=ADVANCED_FACE('',(#839),#891,.F.);
#978=ADVANCED_FACE('',(#840),#892,.F.);
#979=ADVANCED_FACE('',(#841),#893,.F.);
#980=ADVANCED_FACE('',(#842),#894,.T.);
#981=ADVANCED_FACE('',(#843),#895,.T.);
#982=ADVANCED_FACE('',(#844),#896,.F.);
#983=ADVANCED_FACE('',(#845),#897,.T.);
#984=ADVANCED_FACE('',(#846),#898,.T.);
#985=ADVANCED_FACE('',(#847),#899,.F.);
#986=ADVANCED_FACE('',(#848),#900,.T.);
#987=ADVANCED_FACE('',(#849),#901,.F.);
#988=ADVANCED_FACE('',(#850),#902,.F.);
#989=ADVANCED_FACE('',(#851),#903,.F.);
#990=ADVANCED_FACE('',(#852),#904,.F.);
#991=ADVANCED_FACE('',(#853),#905,.F.);
#992=ADVANCED_FACE('',(#854),#906,.T.);
#993=ADVANCED_FACE('',(#855),#907,.F.);
#994=ADVANCED_FACE('',(#856),#908,.T.);
#995=ADVANCED_FACE('',(#857),#909,.T.);
#996=ADVANCED_FACE('',(#858),#910,.T.);
#997=ADVANCED_FACE('',(#859),#911,.T.);
#998=ADVANCED_FACE('',(#860),#912,.T.);
#999=ADVANCED_FACE('',(#861),#913,.F.);
#1000=CLOSED_SHELL('',(#943,#944,#945,#946,#947,#948,#949,#950,#951,#952,
#953,#954,#955,#956,#957,#958,#959,#960,#961,#962,#963,#964,#965,#966,#967,
#968,#969,#970,#971,#972,#973,#974,#975,#976,#977,#978,#979,#980,#981,#982,
#983,#984,#985,#986,#987,#988,#989,#990,#991,#992,#993,#994,#995,#996,#997,
#998,#999));
#1001=STYLED_ITEM('',(#1002),#1184);
#1002=PRESENTATION_STYLE_ASSIGNMENT((#1032));
#1003=PRESENTATION_STYLE_ASSIGNMENT((#1033));
#1004=PRESENTATION_STYLE_ASSIGNMENT((#1034));
#1005=PRESENTATION_STYLE_ASSIGNMENT((#1035));
#1006=PRESENTATION_STYLE_ASSIGNMENT((#1036));
#1007=PRESENTATION_STYLE_ASSIGNMENT((#1037));
#1008=PRESENTATION_STYLE_ASSIGNMENT((#1038));
#1009=PRESENTATION_STYLE_ASSIGNMENT((#1039));
#1010=PRESENTATION_STYLE_ASSIGNMENT((#1040));
#1011=PRESENTATION_STYLE_ASSIGNMENT((#1041));
#1012=PRESENTATION_STYLE_ASSIGNMENT((#1042));
#1013=PRESENTATION_STYLE_ASSIGNMENT((#1043));
#1014=PRESENTATION_STYLE_ASSIGNMENT((#1044));
#1015=PRESENTATION_STYLE_ASSIGNMENT((#1045));
#1016=PRESENTATION_STYLE_ASSIGNMENT((#1046));
#1017=PRESENTATION_STYLE_ASSIGNMENT((#1047));
#1018=PRESENTATION_STYLE_ASSIGNMENT((#1048));
#1019=PRESENTATION_STYLE_ASSIGNMENT((#1049));
#1020=PRESENTATION_STYLE_ASSIGNMENT((#1050));
#1021=PRESENTATION_STYLE_ASSIGNMENT((#1051));
#1022=PRESENTATION_STYLE_ASSIGNMENT((#1052));
#1023=PRESENTATION_STYLE_ASSIGNMENT((#1053));
#1024=PRESENTATION_STYLE_ASSIGNMENT((#1054));
#1025=PRESENTATION_STYLE_ASSIGNMENT((#1055));
#1026=PRESENTATION_STYLE_ASSIGNMENT((#1056));
#1027=PRESENTATION_STYLE_ASSIGNMENT((#1057));
#1028=PRESENTATION_STYLE_ASSIGNMENT((#1058));
#1029=PRESENTATION_STYLE_ASSIGNMENT((#1059));
#1030=PRESENTATION_STYLE_ASSIGNMENT((#1060));
#1031=PRESENTATION_STYLE_ASSIGNMENT((#1061));
#1032=SURFACE_STYLE_USAGE(.BOTH.,#1062);
#1033=SURFACE_STYLE_USAGE(.BOTH.,#1063);
#1034=SURFACE_STYLE_USAGE(.BOTH.,#1064);
#1035=SURFACE_STYLE_USAGE(.BOTH.,#1065);
#1036=SURFACE_STYLE_USAGE(.BOTH.,#1066);
#1037=SURFACE_STYLE_USAGE(.BOTH.,#1067);
#1038=SURFACE_STYLE_USAGE(.BOTH.,#1068);
#1039=SURFACE_STYLE_USAGE(.BOTH.,#1069);
#1040=SURFACE_STYLE_USAGE(.BOTH.,#1070);
#1041=SURFACE_STYLE_USAGE(.BOTH.,#1071);
#1042=SURFACE_STYLE_USAGE(.BOTH.,#1072);
#1043=SURFACE_STYLE_USAGE(.BOTH.,#1073);
#1044=SURFACE_STYLE_USAGE(.BOTH.,#1074);
#1045=SURFACE_STYLE_USAGE(.BOTH.,#1075);
#1046=SURFACE_STYLE_USAGE(.BOTH.,#1076);
#1047=SURFACE_STYLE_USAGE(.BOTH.,#1077);
#1048=SURFACE_STYLE_USAGE(.BOTH.,#1078);
#1049=SURFACE_STYLE_USAGE(.BOTH.,#1079);
#1050=SURFACE_STYLE_USAGE(.BOTH.,#1080);
#1051=SURFACE_STYLE_USAGE(.BOTH.,#1081);
#1052=SURFACE_STYLE_USAGE(.BOTH.,#1082);
#1053=SURFACE_STYLE_USAGE(.BOTH.,#1083);
#1054=SURFACE_STYLE_USAGE(.BOTH.,#1084);
#1055=SURFACE_STYLE_USAGE(.BOTH.,#1085);
#1056=SURFACE_STYLE_USAGE(.BOTH.,#1086);
#1057=SURFACE_STYLE_USAGE(.BOTH.,#1087);
#1058=SURFACE_STYLE_USAGE(.BOTH.,#1088);
#1059=SURFACE_STYLE_USAGE(.BOTH.,#1089);
#1060=SURFACE_STYLE_USAGE(.BOTH.,#1090);
#1061=SURFACE_STYLE_USAGE(.BOTH.,#1091);
#1062=SURFACE_SIDE_STYLE('',(#1092));
#1063=SURFACE_SIDE_STYLE('',(#1093));
#1064=SURFACE_SIDE_STYLE('',(#1094));
#1065=SURFACE_SIDE_STYLE('',(#1095));
#1066=SURFACE_SIDE_STYLE('',(#1096));
#1067=SURFACE_SIDE_STYLE('',(#1097));
#1068=SURFACE_SIDE_STYLE('',(#1098));
#1069=SURFACE_SIDE_STYLE('',(#1099));
#1070=SURFACE_SIDE_STYLE('',(#1100));
#1071=SURFACE_SIDE_STYLE('',(#1101));
#1072=SURFACE_SIDE_STYLE('',(#1102));
#1073=SURFACE_SIDE_STYLE('',(#1103));
#1074=SURFACE_SIDE_STYLE('',(#1104));
#1075=SURFACE_SIDE_STYLE('',(#1105));
#1076=SURFACE_SIDE_STYLE('',(#1106));
#1077=SURFACE_SIDE_STYLE('',(#1107));
#1078=SURFACE_SIDE_STYLE('',(#1108));
#1079=SURFACE_SIDE_STYLE('',(#1109));
#1080=SURFACE_SIDE_STYLE('',(#1110));
#1081=SURFACE_SIDE_STYLE('',(#1111));
#1082=SURFACE_SIDE_STYLE('',(#1112));
#1083=SURFACE_SIDE_STYLE('',(#1113));
#1084=SURFACE_SIDE_STYLE('',(#1114));
#1085=SURFACE_SIDE_STYLE('',(#1115));
#1086=SURFACE_SIDE_STYLE('',(#1116));
#1087=SURFACE_SIDE_STYLE('',(#1117));
#1088=SURFACE_SIDE_STYLE('',(#1118));
#1089=SURFACE_SIDE_STYLE('',(#1119));
#1090=SURFACE_SIDE_STYLE('',(#1120));
#1091=SURFACE_SIDE_STYLE('',(#1121));
#1092=SURFACE_STYLE_FILL_AREA(#1122);
#1093=SURFACE_STYLE_FILL_AREA(#1123);
#1094=SURFACE_STYLE_FILL_AREA(#1124);
#1095=SURFACE_STYLE_FILL_AREA(#1125);
#1096=SURFACE_STYLE_FILL_AREA(#1126);
#1097=SURFACE_STYLE_FILL_AREA(#1127);
#1098=SURFACE_STYLE_FILL_AREA(#1128);
#1099=SURFACE_STYLE_FILL_AREA(#1129);
#1100=SURFACE_STYLE_FILL_AREA(#1130);
#1101=SURFACE_STYLE_FILL_AREA(#1131);
#1102=SURFACE_STYLE_FILL_AREA(#1132);
#1103=SURFACE_STYLE_FILL_AREA(#1133);
#1104=SURFACE_STYLE_FILL_AREA(#1134);
#1105=SURFACE_STYLE_FILL_AREA(#1135);
#1106=SURFACE_STYLE_FILL_AREA(#1136);
#1107=SURFACE_STYLE_FILL_AREA(#1137);
#1108=SURFACE_STYLE_FILL_AREA(#1138);
#1109=SURFACE_STYLE_FILL_AREA(#1139);
#1110=SURFACE_STYLE_FILL_AREA(#1140);
#1111=SURFACE_STYLE_FILL_AREA(#1141);
#1112=SURFACE_STYLE_FILL_AREA(#1142);
#1113=SURFACE_STYLE_FILL_AREA(#1143);
#1114=SURFACE_STYLE_FILL_AREA(#1144);
#1115=SURFACE_STYLE_FILL_AREA(#1145);
#1116=SURFACE_STYLE_FILL_AREA(#1146);
#1117=SURFACE_STYLE_FILL_AREA(#1147);
#1118=SURFACE_STYLE_FILL_AREA(#1148);
#1119=SURFACE_STYLE_FILL_AREA(#1149);
#1120=SURFACE_STYLE_FILL_AREA(#1150);
#1121=SURFACE_STYLE_FILL_AREA(#1151);
#1122=FILL_AREA_STYLE('',(#1152));
#1123=FILL_AREA_STYLE('',(#1153));
#1124=FILL_AREA_STYLE('',(#1154));
#1125=FILL_AREA_STYLE('',(#1155));
#1126=FILL_AREA_STYLE('',(#1156));
#1127=FILL_AREA_STYLE('',(#1157));
#1128=FILL_AREA_STYLE('',(#1158));
#1129=FILL_AREA_STYLE('',(#1159));
#1130=FILL_AREA_STYLE('',(#1160));
#1131=FILL_AREA_STYLE('',(#1161));
#1132=FILL_AREA_STYLE('',(#1162));
#1133=FILL_AREA_STYLE('',(#1163));
#1134=FILL_AREA_STYLE('',(#1164));
#1135=FILL_AREA_STYLE('',(#1165));
#1136=FILL_AREA_STYLE('',(#1166));
#1137=FILL_AREA_STYLE('',(#1167));
#1138=FILL_AREA_STYLE('',(#1168));
#1139=FILL_AREA_STYLE('',(#1169));
#1140=FILL_AREA_STYLE('',(#1170));
#1141=FILL_AREA_STYLE('',(#1171));
#1142=FILL_AREA_STYLE('',(#1172));
#1143=FILL_AREA_STYLE('',(#1173));
#1144=FILL_AREA_STYLE('',(#1174));
#1145=FILL_AREA_STYLE('',(#1175));
#1146=FILL_AREA_STYLE('',(#1176));
#1147=FILL_AREA_STYLE('',(#1177));
#1148=FILL_AREA_STYLE('',(#1178));
#1149=FILL_AREA_STYLE('',(#1179));
#1150=FILL_AREA_STYLE('',(#1180));
#1151=FILL_AREA_STYLE('',(#1181));
#1152=FILL_AREA_STYLE_COLOUR('',#1182);
#1153=FILL_AREA_STYLE_COLOUR('',#1183);
#1154=FILL_AREA_STYLE_COLOUR('',#1183);
#1155=FILL_AREA_STYLE_COLOUR('',#1183);
#1156=FILL_AREA_STYLE_COLOUR('',#1183);
#1157=FILL_AREA_STYLE_COLOUR('',#1183);
#1158=FILL_AREA_STYLE_COLOUR('',#1183);
#1159=FILL_AREA_STYLE_COLOUR('',#1183);
#1160=FILL_AREA_STYLE_COLOUR('',#1183);
#1161=FILL_AREA_STYLE_COLOUR('',#1183);
#1162=FILL_AREA_STYLE_COLOUR('',#1183);
#1163=FILL_AREA_STYLE_COLOUR('',#1183);
#1164=FILL_AREA_STYLE_COLOUR('',#1183);
#1165=FILL_AREA_STYLE_COLOUR('',#1183);
#1166=FILL_AREA_STYLE_COLOUR('',#1183);
#1167=FILL_AREA_STYLE_COLOUR('',#1183);
#1168=FILL_AREA_STYLE_COLOUR('',#1183);
#1169=FILL_AREA_STYLE_COLOUR('',#1183);
#1170=FILL_AREA_STYLE_COLOUR('',#1183);
#1171=FILL_AREA_STYLE_COLOUR('',#1183);
#1172=FILL_AREA_STYLE_COLOUR('',#1183);
#1173=FILL_AREA_STYLE_COLOUR('',#1183);
#1174=FILL_AREA_STYLE_COLOUR('',#1183);
#1175=FILL_AREA_STYLE_COLOUR('',#1183);
#1176=FILL_AREA_STYLE_COLOUR('',#1183);
#1177=FILL_AREA_STYLE_COLOUR('',#1183);
#1178=FILL_AREA_STYLE_COLOUR('',#1183);
#1179=FILL_AREA_STYLE_COLOUR('',#1183);
#1180=FILL_AREA_STYLE_COLOUR('',#1183);
#1181=FILL_AREA_STYLE_COLOUR('',#1183);
#1182=COLOUR_RGB('',0.901960784313726,0.901960784313726,0.901960784313726);
#1183=COLOUR_RGB('',0.654901960784314,0.823529411764706,0.576470588235294);
#1184=MANIFOLD_SOLID_BREP('5.0-2P',#1000);
#1185=SHAPE_DEFINITION_REPRESENTATION(#1833,#1186);
#1186=SHAPE_REPRESENTATION('5.0-2P',(#1187),#1828);
#1187=AXIS2_PLACEMENT_3D('',#1516,#1263,#1264);
#1188=AXIS2_PLACEMENT_3D('',#1517,#1265,#1266);
#1189=AXIS2_PLACEMENT_3D('',#1542,#1279,#1280);
#1190=AXIS2_PLACEMENT_3D('',#1546,#1282,#1283);
#1191=AXIS2_PLACEMENT_3D('',#1547,#1284,#1285);
#1192=AXIS2_PLACEMENT_3D('',#1548,#1286,#1287);
#1193=AXIS2_PLACEMENT_3D('',#1560,#1288,#1289);
#1194=AXIS2_PLACEMENT_3D('',#1567,#1290,#1291);
#1195=AXIS2_PLACEMENT_3D('',#1574,#1292,#1293);
#1196=AXIS2_PLACEMENT_3D('',#1581,#1294,#1295);
#1197=AXIS2_PLACEMENT_3D('',#1588,#1296,#1297);
#1198=AXIS2_PLACEMENT_3D('',#1589,#1298,#1299);
#1199=AXIS2_PLACEMENT_3D('',#1593,#1301,#1302);
#1200=AXIS2_PLACEMENT_3D('',#1594,#1303,#1304);
#1201=AXIS2_PLACEMENT_3D('',#1595,#1305,#1306);
#1202=AXIS2_PLACEMENT_3D('',#1607,#1307,#1308);
#1203=AXIS2_PLACEMENT_3D('',#1614,#1309,#1310);
#1204=AXIS2_PLACEMENT_3D('',#1621,#1311,#1312);
#1205=AXIS2_PLACEMENT_3D('',#1628,#1313,#1314);
#1206=AXIS2_PLACEMENT_3D('',#1635,#1315,#1316);
#1207=AXIS2_PLACEMENT_3D('',#1636,#1317,#1318);
#1208=AXIS2_PLACEMENT_3D('',#1637,#1319,#1320);
#1209=AXIS2_PLACEMENT_3D('',#1639,#1321,#1322);
#1210=AXIS2_PLACEMENT_3D('',#1641,#1324,#1325);
#1211=AXIS2_PLACEMENT_3D('',#1663,#1337,#1338);
#1212=AXIS2_PLACEMENT_3D('',#1669,#1342,#1343);
#1213=AXIS2_PLACEMENT_3D('',#1675,#1347,#1348);
#1214=AXIS2_PLACEMENT_3D('',#1676,#1349,#1350);
#1215=AXIS2_PLACEMENT_3D('',#1683,#1354,#1355);
#1216=AXIS2_PLACEMENT_3D('',#1689,#1359,#1360);
#1217=AXIS2_PLACEMENT_3D('',#1690,#1361,#1362);
#1218=AXIS2_PLACEMENT_3D('',#1691,#1363,#1364);
#1219=AXIS2_PLACEMENT_3D('',#1692,#1365,#1366);
#1220=AXIS2_PLACEMENT_3D('',#1693,#1367,#1368);
#1221=AXIS2_PLACEMENT_3D('',#1694,#1369,#1370);
#1222=AXIS2_PLACEMENT_3D('',#1703,#1375,#1376);
#1223=AXIS2_PLACEMENT_3D('',#1709,#1380,#1381);
#1224=AXIS2_PLACEMENT_3D('',#1715,#1385,#1386);
#1225=AXIS2_PLACEMENT_3D('',#1718,#1389,#1390);
#1226=AXIS2_PLACEMENT_3D('',#1719,#1391,#1392);
#1227=AXIS2_PLACEMENT_3D('',#1728,#1397,#1398);
#1228=AXIS2_PLACEMENT_3D('',#1734,#1402,#1403);
#1229=AXIS2_PLACEMENT_3D('',#1740,#1407,#1408);
#1230=AXIS2_PLACEMENT_3D('',#1743,#1411,#1412);
#1231=AXIS2_PLACEMENT_3D('',#1744,#1413,#1414);
#1232=AXIS2_PLACEMENT_3D('',#1747,#1417,#1418);
#1233=AXIS2_PLACEMENT_3D('',#1749,#1420,#1421);
#1234=AXIS2_PLACEMENT_3D('',#1751,#1423,#1424);
#1235=AXIS2_PLACEMENT_3D('',#1754,#1427,#1428);
#1236=AXIS2_PLACEMENT_3D('',#1756,#1430,#1431);
#1237=AXIS2_PLACEMENT_3D('',#1758,#1433,#1434);
#1238=AXIS2_PLACEMENT_3D('',#1759,#1435,#1436);
#1239=AXIS2_PLACEMENT_3D('',#1760,#1437,#1438);
#1240=AXIS2_PLACEMENT_3D('',#1761,#1439,#1440);
#1241=AXIS2_PLACEMENT_3D('',#1763,#1442,#1443);
#1242=AXIS2_PLACEMENT_3D('',#1765,#1445,#1446);
#1243=AXIS2_PLACEMENT_3D('',#1769,#1450,#1451);
#1244=AXIS2_PLACEMENT_3D('',#1770,#1452,#1453);
#1245=AXIS2_PLACEMENT_3D('',#1771,#1454,#1455);
#1246=AXIS2_PLACEMENT_3D('',#1772,#1456,#1457);
#1247=AXIS2_PLACEMENT_3D('',#1777,#1462,#1463);
#1248=AXIS2_PLACEMENT_3D('',#1778,#1464,#1465);
#1249=AXIS2_PLACEMENT_3D('',#1779,#1466,#1467);
#1250=AXIS2_PLACEMENT_3D('',#1780,#1468,#1469);
#1251=AXIS2_PLACEMENT_3D('',#1781,#1470,#1471);
#1252=AXIS2_PLACEMENT_3D('',#1790,#1476,#1477);
#1253=AXIS2_PLACEMENT_3D('',#1796,#1481,#1482);
#1254=AXIS2_PLACEMENT_3D('',#1799,#1485,#1486);
#1255=AXIS2_PLACEMENT_3D('',#1802,#1489,#1490);
#1256=AXIS2_PLACEMENT_3D('',#1803,#1491,#1492);
#1257=AXIS2_PLACEMENT_3D('',#1804,#1493,#1494);
#1258=AXIS2_PLACEMENT_3D('',#1810,#1498,#1499);
#1259=AXIS2_PLACEMENT_3D('',#1816,#1503,#1504);
#1260=AXIS2_PLACEMENT_3D('',#1822,#1508,#1509);
#1261=AXIS2_PLACEMENT_3D('',#1825,#1512,#1513);
#1262=AXIS2_PLACEMENT_3D('',#1826,#1514,#1515);
#1263=DIRECTION('',(0.,0.,1.));
#1264=DIRECTION('',(1.,0.,0.));
#1265=DIRECTION('',(0.,0.,-1.));
#1266=DIRECTION('',(-1.,0.,0.));
#1267=DIRECTION('',(1.,0.,0.));
#1268=DIRECTION('',(0.,1.,0.));
#1269=DIRECTION('',(1.,0.,0.));
#1270=DIRECTION('',(0.,1.,0.));
#1271=DIRECTION('',(0.,-1.,0.));
#1272=DIRECTION('',(-1.,0.,0.));
#1273=DIRECTION('',(0.,-1.,0.));
#1274=DIRECTION('',(-1.,0.,0.));
#1275=DIRECTION('',(0.,1.,0.));
#1276=DIRECTION('',(-1.,0.,0.));
#1277=DIRECTION('',(0.,1.,0.));
#1278=DIRECTION('',(-1.,0.,0.));
#1279=DIRECTION('',(-1.15648231731787E-16,0.,-1.));
#1280=DIRECTION('',(1.,0.,-1.15648231731787E-16));
#1281=DIRECTION('',(-1.,0.,1.15648231731787E-16));
#1282=DIRECTION('',(1.15648231731787E-16,0.,1.));
#1283=DIRECTION('',(1.,0.,-1.15648231731787E-16));
#1284=DIRECTION('',(-1.15648231731787E-16,0.,-1.));
#1285=DIRECTION('',(1.,0.,-1.15648231731787E-16));
#1286=DIRECTION('',(1.15648231731787E-16,0.,1.));
#1287=DIRECTION('',(1.,0.,-1.15648231731787E-16));
#1288=DIRECTION('',(0.,0.,1.));
#1289=DIRECTION('',(1.,0.,0.));
#1290=DIRECTION('',(0.,0.,1.));
#1291=DIRECTION('',(1.,0.,0.));
#1292=DIRECTION('',(1.15648231731787E-16,0.,1.));
#1293=DIRECTION('',(1.,0.,-1.15648231731787E-16));
#1294=DIRECTION('',(0.,0.,1.));
#1295=DIRECTION('',(1.,0.,0.));
#1296=DIRECTION('',(0.,0.,1.));
#1297=DIRECTION('',(1.,0.,0.));
#1298=DIRECTION('',(1.15648231731787E-16,0.,-1.));
#1299=DIRECTION('',(-1.,0.,-1.15648231731787E-16));
#1300=DIRECTION('',(-1.,0.,-1.15648231731787E-16));
#1301=DIRECTION('',(1.15648231731787E-16,0.,-1.));
#1302=DIRECTION('',(-1.,0.,-1.15648231731787E-16));
#1303=DIRECTION('',(1.15648231731787E-16,0.,-1.));
#1304=DIRECTION('',(-1.,0.,-1.15648231731787E-16));
#1305=DIRECTION('',(1.15648231731787E-16,0.,-1.));
#1306=DIRECTION('',(-1.,0.,-1.15648231731787E-16));
#1307=DIRECTION('',(0.,0.,-1.));
#1308=DIRECTION('',(-1.,0.,0.));
#1309=DIRECTION('',(0.,0.,-1.));
#1310=DIRECTION('',(-1.,0.,0.));
#1311=DIRECTION('',(1.15648231731787E-16,0.,-1.));
#1312=DIRECTION('',(-1.,0.,-1.15648231731787E-16));
#1313=DIRECTION('',(0.,0.,-1.));
#1314=DIRECTION('',(-1.,0.,0.));
#1315=DIRECTION('',(0.,0.,-1.));
#1316=DIRECTION('',(-1.,0.,0.));
#1317=DIRECTION('',(-1.15648231731787E-16,0.,-1.));
#1318=DIRECTION('',(1.,0.,-1.15648231731787E-16));
#1319=DIRECTION('',(0.,0.,-1.));
#1320=DIRECTION('',(-1.,0.,0.));
#1321=DIRECTION('',(-1.15648231731787E-16,0.,-1.));
#1322=DIRECTION('',(1.,0.,-1.15648231731787E-16));
#1323=DIRECTION('',(-1.,0.,1.15648231731787E-16));
#1324=DIRECTION('',(0.,-1.,0.));
#1325=DIRECTION('',(0.,0.,-1.));
#1326=DIRECTION('',(0.,0.,1.));
#1327=DIRECTION('',(0.,0.,1.));
#1328=DIRECTION('',(-1.,0.,0.));
#1329=DIRECTION('',(1.,0.,0.));
#1330=DIRECTION('',(0.,0.,-1.));
#1331=DIRECTION('',(-1.,0.,0.));
#1332=DIRECTION('',(0.,0.,1.));
#1333=DIRECTION('',(1.,0.,0.));
#1334=DIRECTION('',(0.,0.,-1.));
#1335=DIRECTION('',(-1.,0.,0.));
#1336=DIRECTION('',(0.,0.,1.));
#1337=DIRECTION('',(0.,1.,1.7347234759768E-16));
#1338=DIRECTION('',(0.,-1.7347234759768E-16,1.));
#1339=DIRECTION('',(0.,1.7347234759768E-16,-1.));
#1340=DIRECTION('',(-1.,0.,0.));
#1341=DIRECTION('',(0.,1.7347234759768E-16,-1.));
#1342=DIRECTION('',(0.,0.965925826289068,0.258819045102521));
#1343=DIRECTION('',(0.,-0.258819045102521,0.965925826289068));
#1344=DIRECTION('',(0.,0.258819045102521,-0.965925826289068));
#1345=DIRECTION('',(-1.,0.,0.));
#1346=DIRECTION('',(0.,0.258819045102521,-0.965925826289068));
#1347=DIRECTION('',(0.,0.,1.));
#1348=DIRECTION('',(1.,0.,0.));
#1349=DIRECTION('',(0.,0.,1.));
#1350=DIRECTION('',(1.,0.,0.));
#1351=DIRECTION('',(0.,1.,0.));
#1352=DIRECTION('',(-1.,0.,0.));
#1353=DIRECTION('',(0.,1.,0.));
#1354=DIRECTION('',(0.,-0.987688340595138,0.156434465040231));
#1355=DIRECTION('',(0.,-0.156434465040231,-0.987688340595138));
#1356=DIRECTION('',(0.,0.156434465040231,0.987688340595138));
#1357=DIRECTION('',(-1.,0.,0.));
#1358=DIRECTION('',(0.,0.156434465040231,0.987688340595138));
#1359=DIRECTION('',(-1.,0.,0.));
#1360=DIRECTION('',(0.,0.,1.));
#1361=DIRECTION('',(1.,0.,0.));
#1362=DIRECTION('',(0.,0.,-1.));
#1363=DIRECTION('',(1.,0.,0.));
#1364=DIRECTION('',(0.,0.,-1.));
#1365=DIRECTION('',(1.,0.,0.));
#1366=DIRECTION('',(0.,1.,0.));
#1367=DIRECTION('',(1.,0.,0.));
#1368=DIRECTION('',(0.,1.,0.));
#1369=DIRECTION('',(0.,0.,-1.));
#1370=DIRECTION('',(-1.,0.,0.));
#1371=DIRECTION('',(0.,-1.,0.));
#1372=DIRECTION('',(-1.,0.,0.));
#1373=DIRECTION('',(0.,-1.,0.));
#1374=DIRECTION('',(1.,0.,0.));
#1375=DIRECTION('',(-1.,0.,0.));
#1376=DIRECTION('',(0.,0.,1.));
#1377=DIRECTION('',(0.,0.,-1.));
#1378=DIRECTION('',(0.,-1.,0.));
#1379=DIRECTION('',(0.,0.,-1.));
#1380=DIRECTION('',(0.,0.,-1.));
#1381=DIRECTION('',(-1.,0.,0.));
#1382=DIRECTION('',(1.,0.,0.));
#1383=DIRECTION('',(0.,-1.,0.));
#1384=DIRECTION('',(1.,0.,0.));
#1385=DIRECTION('',(-1.,0.,0.));
#1386=DIRECTION('',(0.,0.,1.));
#1387=DIRECTION('',(0.,0.,1.));
#1388=DIRECTION('',(0.,0.,-1.));
#1389=DIRECTION('',(0.,-1.,0.));
#1390=DIRECTION('',(1.,0.,0.));
#1391=DIRECTION('',(0.,0.,-1.));
#1392=DIRECTION('',(-1.,0.,0.));
#1393=DIRECTION('',(0.,-1.,0.));
#1394=DIRECTION('',(-1.,0.,0.));
#1395=DIRECTION('',(0.,-1.,0.));
#1396=DIRECTION('',(1.,0.,0.));
#1397=DIRECTION('',(-1.,0.,0.));
#1398=DIRECTION('',(0.,0.,1.));
#1399=DIRECTION('',(0.,0.,-1.));
#1400=DIRECTION('',(0.,-1.,0.));
#1401=DIRECTION('',(0.,0.,-1.));
#1402=DIRECTION('',(0.,0.,-1.));
#1403=DIRECTION('',(-1.,0.,0.));
#1404=DIRECTION('',(1.,0.,0.));
#1405=DIRECTION('',(0.,-1.,0.));
#1406=DIRECTION('',(1.,0.,0.));
#1407=DIRECTION('',(-1.,0.,0.));
#1408=DIRECTION('',(0.,0.,1.));
#1409=DIRECTION('',(0.,0.,1.));
#1410=DIRECTION('',(0.,0.,-1.));
#1411=DIRECTION('',(0.,-1.,0.));
#1412=DIRECTION('',(1.,0.,0.));
#1413=DIRECTION('',(0.707106781186548,-0.707106781186547,0.));
#1414=DIRECTION('',(0.,0.,1.));
#1415=DIRECTION('',(0.337868689199743,0.337868689199743,-0.878458591919332));
#1416=DIRECTION('',(0.577350269189625,0.577350269189626,0.577350269189626));
#1417=DIRECTION('',(0.,-0.707106781186547,0.707106781186548));
#1418=DIRECTION('',(-1.,0.,0.));
#1419=DIRECTION('',(0.577350269189625,-0.577350269189626,-0.577350269189626));
#1420=DIRECTION('',(0.707106781186548,0.707106781186547,0.));
#1421=DIRECTION('',(0.,0.,-1.));
#1422=DIRECTION('',(-0.337868689199743,0.337868689199743,-0.878458591919332));
#1423=DIRECTION('',(0.707106781186549,-0.707106781186546,0.));
#1424=DIRECTION('',(0.,0.,1.));
#1425=DIRECTION('',(0.337868689199742,0.337868689199743,-0.878458591919332));
#1426=DIRECTION('',(0.577350269189625,0.577350269189627,0.577350269189626));
#1427=DIRECTION('',(0.,-0.707106781186547,0.707106781186548));
#1428=DIRECTION('',(-1.,0.,0.));
#1429=DIRECTION('',(0.577350269189625,-0.577350269189627,-0.577350269189626));
#1430=DIRECTION('',(0.707106781186548,0.707106781186547,0.));
#1431=DIRECTION('',(0.,0.,-1.));
#1432=DIRECTION('',(-0.337868689199743,0.337868689199743,-0.878458591919332));
#1433=DIRECTION('',(0.,0.933345606203059,0.358979079308869));
#1434=DIRECTION('',(1.,0.,0.));
#1435=DIRECTION('',(0.,0.933345606203059,0.358979079308869));
#1436=DIRECTION('',(1.,0.,0.));
#1437=DIRECTION('',(1.15648231731787E-16,0.,-1.));
#1438=DIRECTION('',(-1.,0.,-1.15648231731787E-16));
#1439=DIRECTION('',(1.15648231731787E-16,0.,-1.));
#1440=DIRECTION('',(-1.,0.,-1.15648231731787E-16));
#1441=DIRECTION('',(-1.,0.,-1.15648231731787E-16));
#1442=DIRECTION('',(-1.,0.,0.));
#1443=DIRECTION('',(0.,0.,1.));
#1444=DIRECTION('',(0.,-1.,0.));
#1445=DIRECTION('',(0.,0.,-1.));
#1446=DIRECTION('',(-1.,0.,0.));
#1447=DIRECTION('',(1.,0.,0.));
#1448=DIRECTION('',(0.,-1.,0.));
#1449=DIRECTION('',(1.,0.,0.));
#1450=DIRECTION('',(-1.,0.,-1.0842021724855E-16));
#1451=DIRECTION('',(-1.0842021724855E-16,0.,1.));
#1452=DIRECTION('',(0.,-1.,0.));
#1453=DIRECTION('',(1.,0.,0.));
#1454=DIRECTION('',(0.,-1.,0.));
#1455=DIRECTION('',(1.,0.,0.));
#1456=DIRECTION('',(0.,0.,1.));
#1457=DIRECTION('',(1.,0.,0.));
#1458=DIRECTION('',(-1.,0.,0.));
#1459=DIRECTION('',(0.,-1.,0.));
#1460=DIRECTION('',(-1.,0.,0.));
#1461=DIRECTION('',(0.,-1.,0.));
#1462=DIRECTION('',(-1.,0.,0.));
#1463=DIRECTION('',(0.,0.,1.));
#1464=DIRECTION('',(-1.,0.,1.0842021724855E-16));
#1465=DIRECTION('',(1.0842021724855E-16,0.,1.));
#1466=DIRECTION('',(0.,-1.,0.));
#1467=DIRECTION('',(1.,0.,0.));
#1468=DIRECTION('',(0.,-1.,0.));
#1469=DIRECTION('',(1.,0.,0.));
#1470=DIRECTION('',(0.911921505175107,0.,0.410364677328798));
#1471=DIRECTION('',(0.410364677328798,0.,-0.911921505175107));
#1472=DIRECTION('',(0.410364677328798,0.,-0.911921505175107));
#1473=DIRECTION('',(0.,1.,0.));
#1474=DIRECTION('',(0.410364677328798,0.,-0.911921505175107));
#1475=DIRECTION('',(0.,1.,0.));
#1476=DIRECTION('',(-0.911921505175107,0.,0.410364677328798));
#1477=DIRECTION('',(0.410364677328798,0.,0.911921505175107));
#1478=DIRECTION('',(0.410364677328798,0.,0.911921505175107));
#1479=DIRECTION('',(0.,1.,0.));
#1480=DIRECTION('',(0.410364677328798,0.,0.911921505175107));
#1481=DIRECTION('',(-1.,0.,-2.89120579329468E-16));
#1482=DIRECTION('',(-2.89120579329468E-16,0.,1.));
#1483=DIRECTION('',(-2.89120579329468E-16,0.,1.));
#1484=DIRECTION('',(-2.89120579329468E-16,0.,1.));
#1485=DIRECTION('',(1.,0.,-4.33680868994202E-16));
#1486=DIRECTION('',(-4.33680868994202E-16,0.,-1.));
#1487=DIRECTION('',(-4.33680868994202E-16,0.,-1.));
#1488=DIRECTION('',(-4.33680868994202E-16,0.,-1.));
#1489=DIRECTION('',(0.,-1.,0.));
#1490=DIRECTION('',(1.,0.,0.));
#1491=DIRECTION('',(0.,-1.,0.));
#1492=DIRECTION('',(1.,0.,0.));
#1493=DIRECTION('',(-1.,0.,0.));
#1494=DIRECTION('',(0.,0.,1.));
#1495=DIRECTION('',(0.,0.,1.));
#1496=DIRECTION('',(0.,1.,0.));
#1497=DIRECTION('',(0.,0.,1.));
#1498=DIRECTION('',(-0.911921505175106,0.,-0.410364677328798));
#1499=DIRECTION('',(-0.410364677328798,0.,0.911921505175106));
#1500=DIRECTION('',(-0.410364677328798,0.,0.911921505175106));
#1501=DIRECTION('',(0.,1.,0.));
#1502=DIRECTION('',(-0.410364677328798,0.,0.911921505175106));
#1503=DIRECTION('',(0.911921505175107,0.,-0.410364677328798));
#1504=DIRECTION('',(-0.410364677328798,0.,-0.911921505175107));
#1505=DIRECTION('',(-0.410364677328798,0.,-0.911921505175107));
#1506=DIRECTION('',(0.,1.,0.));
#1507=DIRECTION('',(-0.410364677328798,0.,-0.911921505175107));
#1508=DIRECTION('',(1.,0.,5.78241158658936E-16));
#1509=DIRECTION('',(5.78241158658936E-16,0.,-1.));
#1510=DIRECTION('',(5.78241158658936E-16,0.,-1.));
#1511=DIRECTION('',(5.78241158658936E-16,0.,-1.));
#1512=DIRECTION('',(0.,-1.,0.));
#1513=DIRECTION('',(1.,0.,0.));
#1514=DIRECTION('',(0.,-1.,0.));
#1515=DIRECTION('',(1.,0.,0.));
#1516=CARTESIAN_POINT('',(0.,0.,0.));
#1517=CARTESIAN_POINT('',(0.005,0.,0.));
#1518=CARTESIAN_POINT('',(-0.0025,0.0005,0.));
#1519=CARTESIAN_POINT('',(-0.00295,0.0005,0.));
#1520=CARTESIAN_POINT('',(-0.00205,0.0005,0.));
#1521=CARTESIAN_POINT('',(-0.00295,-0.0005,0.));
#1522=CARTESIAN_POINT('',(-0.00295,-0.0005,0.));
#1523=CARTESIAN_POINT('',(-0.0025,-0.0005,0.));
#1524=CARTESIAN_POINT('',(-0.00205,-0.0005,0.));
#1525=CARTESIAN_POINT('',(-0.00205,-0.0005,0.));
#1526=CARTESIAN_POINT('',(-0.005,0.,0.));
#1527=CARTESIAN_POINT('',(-0.005,0.00515,-8.67361737988404E-19));
#1528=CARTESIAN_POINT('',(-0.005,-0.00515,-8.67361737988404E-19));
#1529=CARTESIAN_POINT('',(0.005,0.00515,-8.67361737988404E-19));
#1530=CARTESIAN_POINT('',(0.005,0.00515,-8.67361737988404E-19));
#1531=CARTESIAN_POINT('',(0.005,0.,0.));
#1532=CARTESIAN_POINT('',(0.005,-0.00515,-8.67361737988404E-19));
#1533=CARTESIAN_POINT('',(0.005,-0.00515,-8.67361737988404E-19));
#1534=CARTESIAN_POINT('',(0.00295,-0.0005,0.));
#1535=CARTESIAN_POINT('',(0.00295,-0.0005,0.));
#1536=CARTESIAN_POINT('',(0.00295,0.0005,0.));
#1537=CARTESIAN_POINT('',(0.0025,0.0005,0.));
#1538=CARTESIAN_POINT('',(0.00205,0.0005,8.67361737988404E-19));
#1539=CARTESIAN_POINT('',(0.00205,-0.0005,8.67361737988404E-19));
#1540=CARTESIAN_POINT('',(0.00205,-0.0005,8.67361737988404E-19));
#1541=CARTESIAN_POINT('',(0.0025,-0.0005,0.));
#1542=CARTESIAN_POINT('',(0.00185,0.,0.0125));
#1543=CARTESIAN_POINT('',(0.00185,0.00035,0.0125));
#1544=CARTESIAN_POINT('',(0.00375199840255506,0.00035,0.0125000000000017));
#1545=CARTESIAN_POINT('',(0.00124800159744511,0.00035,0.0125));
#1546=CARTESIAN_POINT('',(0.0025,0.,0.0125));
#1547=CARTESIAN_POINT('',(0.0025,0.,0.0118));
#1548=CARTESIAN_POINT('',(0.0025,0.,0.0118));
#1549=CARTESIAN_POINT('',(0.0045,0.,0.0118));
#1550=CARTESIAN_POINT('',(0.00124800159744511,0.00035,0.0125));
#1551=CARTESIAN_POINT('',(0.000946152539471494,0.00035,0.0125));
#1552=CARTESIAN_POINT('',(0.000648008205058669,0.00035,0.0122888227272449));
#1553=CARTESIAN_POINT('',(0.000560507019231615,0.00035,0.012));
#1554=CARTESIAN_POINT('',(0.000560507019231615,0.00035,0.012));
#1555=CARTESIAN_POINT('',(0.00443949298076839,0.00035,0.012));
#1556=CARTESIAN_POINT('',(0.00435185906631366,0.00035,0.0122892608360986));
#1557=CARTESIAN_POINT('',(0.00405489388121338,0.00035,0.0124999999999999));
#1558=CARTESIAN_POINT('',(0.00375199840255517,0.00035,0.0125));
#1559=CARTESIAN_POINT('',(0.00443949298076838,0.00035,0.012));
#1560=CARTESIAN_POINT('',(0.0025,0.,0.012));
#1561=CARTESIAN_POINT('',(0.00445,0.000285714932133152,0.012));
#1562=CARTESIAN_POINT('',(0.00445,-0.000285714932145949,0.0120000000000039));
#1563=CARTESIAN_POINT('',(0.00445,-0.00010910169713877,0.0120858786873167));
#1564=CARTESIAN_POINT('',(0.00445,0.000109426369564774,0.0120857208144185));
#1565=CARTESIAN_POINT('',(0.00445,0.000285714932134979,0.0120000000000042));
#1566=CARTESIAN_POINT('',(0.00445,-0.000285714932143635,0.012));
#1567=CARTESIAN_POINT('',(0.0025,0.,0.012));
#1568=CARTESIAN_POINT('',(0.00443949298076838,-0.00035,0.012));
#1569=CARTESIAN_POINT('',(0.00443949298076838,-0.00035,0.012));
#1570=CARTESIAN_POINT('',(0.00435185906631363,-0.00035,0.0122892608360987));
#1571=CARTESIAN_POINT('',(0.00405489388121319,-0.00035,0.0125));
#1572=CARTESIAN_POINT('',(0.00375199840255489,-0.00035,0.0125));
#1573=CARTESIAN_POINT('',(0.00375199840255489,-0.00035,0.0125));
#1574=CARTESIAN_POINT('',(0.0025,0.,0.0125));
#1575=CARTESIAN_POINT('',(0.00124800159744511,-0.00035,0.0125));
#1576=CARTESIAN_POINT('',(0.00124800159744511,-0.00035,0.0125));
#1577=CARTESIAN_POINT('',(0.000946152539471494,-0.00035,0.0125));
#1578=CARTESIAN_POINT('',(0.000648008205058669,-0.00035,0.0122888227272449));
#1579=CARTESIAN_POINT('',(0.000560507019231615,-0.00035,0.012));
#1580=CARTESIAN_POINT('',(0.000560507019231615,-0.00035,0.012));
#1581=CARTESIAN_POINT('',(0.0025,0.,0.012));
#1582=CARTESIAN_POINT('',(0.00055,-0.00028571493214364,0.012));
#1583=CARTESIAN_POINT('',(0.00055,-0.000285714932145952,0.0120000000000039));
#1584=CARTESIAN_POINT('',(0.00055,-0.000109101697138767,0.0120858786873167));
#1585=CARTESIAN_POINT('',(0.00055,0.000109426369564777,0.0120857208144185));
#1586=CARTESIAN_POINT('',(0.00055,0.000285714932134981,0.0120000000000042));
#1587=CARTESIAN_POINT('',(0.00055,0.000285714932133155,0.012));
#1588=CARTESIAN_POINT('',(0.0025,0.,0.012));
#1589=CARTESIAN_POINT('',(-0.00185,0.,0.0125));
#1590=CARTESIAN_POINT('',(-0.00185,0.00035,0.0125));
#1591=CARTESIAN_POINT('',(-0.00124800159744494,0.00035,0.0125000000000017));
#1592=CARTESIAN_POINT('',(-0.00375199840255489,0.00035,0.0125));
#1593=CARTESIAN_POINT('',(-0.0025,0.,0.0125));
#1594=CARTESIAN_POINT('',(-0.0025,0.,0.0118));
#1595=CARTESIAN_POINT('',(-0.0025,0.,0.0118));
#1596=CARTESIAN_POINT('',(-0.0045,0.,0.0118));
#1597=CARTESIAN_POINT('',(-0.00375199840255489,0.00035,0.0125));
#1598=CARTESIAN_POINT('',(-0.0040538474605285,0.00035,0.0125));
#1599=CARTESIAN_POINT('',(-0.00435199179494133,0.00035,0.0122888227272449));
#1600=CARTESIAN_POINT('',(-0.00443949298076839,0.00035,0.012));
#1601=CARTESIAN_POINT('',(-0.00443949298076839,0.00035,0.012));
#1602=CARTESIAN_POINT('',(-0.000560507019231616,0.00035,0.012));
#1603=CARTESIAN_POINT('',(-0.000648140933686338,0.00035,0.0122892608360986));
#1604=CARTESIAN_POINT('',(-0.000945106118786615,0.00035,0.0124999999999999));
#1605=CARTESIAN_POINT('',(-0.00124800159744483,0.00035,0.0125));
#1606=CARTESIAN_POINT('',(-0.000560507019231619,0.00035,0.012));
#1607=CARTESIAN_POINT('',(-0.0025,0.,0.012));
#1608=CARTESIAN_POINT('',(-0.00055,0.000285714932133155,0.012));
#1609=CARTESIAN_POINT('',(-0.00055,-0.000285714932145952,0.0120000000000039));
#1610=CARTESIAN_POINT('',(-0.00055,-0.000109101697138767,0.0120858786873167));
#1611=CARTESIAN_POINT('',(-0.00055,0.000109426369564777,0.0120857208144185));
#1612=CARTESIAN_POINT('',(-0.00055,0.000285714932134981,0.0120000000000042));
#1613=CARTESIAN_POINT('',(-0.00055,-0.00028571493214364,0.012));
#1614=CARTESIAN_POINT('',(-0.0025,0.,0.012));
#1615=CARTESIAN_POINT('',(-0.000560507019231619,-0.00035,0.012));
#1616=CARTESIAN_POINT('',(-0.000560507019231615,-0.00035,0.012));
#1617=CARTESIAN_POINT('',(-0.000648140933686365,-0.00035,0.0122892608360987));
#1618=CARTESIAN_POINT('',(-0.000945106118786807,-0.00035,0.0125));
#1619=CARTESIAN_POINT('',(-0.00124800159744511,-0.00035,0.0125));
#1620=CARTESIAN_POINT('',(-0.00124800159744511,-0.00035,0.0125));
#1621=CARTESIAN_POINT('',(-0.0025,0.,0.0125));
#1622=CARTESIAN_POINT('',(-0.00375199840255489,-0.00035,0.0125));
#1623=CARTESIAN_POINT('',(-0.00375199840255489,-0.00035,0.0125));
#1624=CARTESIAN_POINT('',(-0.0040538474605285,-0.00035,0.0125));
#1625=CARTESIAN_POINT('',(-0.00435199179494133,-0.00035,0.0122888227272449));
#1626=CARTESIAN_POINT('',(-0.00443949298076839,-0.00035,0.012));
#1627=CARTESIAN_POINT('',(-0.00443949298076839,-0.00035,0.012));
#1628=CARTESIAN_POINT('',(-0.0025,0.,0.012));
#1629=CARTESIAN_POINT('',(-0.00445,-0.000285714932143616,0.012));
#1630=CARTESIAN_POINT('',(-0.00445,-0.000285714932145934,0.0120000000000039));
#1631=CARTESIAN_POINT('',(-0.00445,-0.000109101697135871,0.0120858786873181));
#1632=CARTESIAN_POINT('',(-0.00445,0.000109426369572153,0.0120857208144194));
#1633=CARTESIAN_POINT('',(-0.00445,0.000285714932143618,0.012));
#1634=CARTESIAN_POINT('',(-0.00445,0.000285714932143616,0.012));
#1635=CARTESIAN_POINT('',(-0.0025,0.,0.012));
#1636=CARTESIAN_POINT('',(0.0025,0.,0.0075));
#1637=CARTESIAN_POINT('',(0.0025,0.,0.014));
#1638=CARTESIAN_POINT('',(0.0005,0.,0.014));
#1639=CARTESIAN_POINT('',(0.00185,0.,0.0125));
#1640=CARTESIAN_POINT('',(0.00185,-0.00035,0.0125));
#1641=CARTESIAN_POINT('',(0.005,-0.00515,0.0035));
#1642=CARTESIAN_POINT('',(-0.005,-0.00515,0.0035));
#1643=CARTESIAN_POINT('',(-0.005,-0.00515,0.007));
#1644=CARTESIAN_POINT('',(0.005,-0.00515,0.0035));
#1645=CARTESIAN_POINT('',(0.005,-0.00515,0.007));
#1646=CARTESIAN_POINT('',(0.005,-0.00515,0.007));
#1647=CARTESIAN_POINT('',(0.005,-0.00515,0.00655));
#1648=CARTESIAN_POINT('',(0.0006,-0.00515,0.00655));
#1649=CARTESIAN_POINT('',(0.0044,-0.00515,0.00655));
#1650=CARTESIAN_POINT('',(0.0044,-0.00515,0.0035));
#1651=CARTESIAN_POINT('',(0.0044,-0.00515,0.0015));
#1652=CARTESIAN_POINT('',(0.0011,-0.00515,0.0015));
#1653=CARTESIAN_POINT('',(0.0006,-0.00515,0.0015));
#1654=CARTESIAN_POINT('',(0.0006,-0.00515,0.00525));
#1655=CARTESIAN_POINT('',(0.005,-0.00515,0.00655));
#1656=CARTESIAN_POINT('',(-0.0044,-0.00515,0.00655));
#1657=CARTESIAN_POINT('',(-0.0006,-0.00515,0.00655));
#1658=CARTESIAN_POINT('',(-0.0006,-0.00515,0.0035));
#1659=CARTESIAN_POINT('',(-0.0006,-0.00515,0.0015));
#1660=CARTESIAN_POINT('',(-0.0039,-0.00515,0.0015));
#1661=CARTESIAN_POINT('',(-0.0044,-0.00515,0.0015));
#1662=CARTESIAN_POINT('',(-0.0044,-0.00515,0.00525));
#1663=CARTESIAN_POINT('',(0.005,0.00515,0.0025));
#1664=CARTESIAN_POINT('',(-0.005,0.00515,0.0025));
#1665=CARTESIAN_POINT('',(-0.005,0.00515,0.005));
#1666=CARTESIAN_POINT('',(0.005,0.00515,0.005));
#1667=CARTESIAN_POINT('',(0.005,0.00515,0.005));
#1668=CARTESIAN_POINT('',(0.005,0.00515,0.0025));
#1669=CARTESIAN_POINT('',(0.005,0.00394422863405995,0.0095));
#1670=CARTESIAN_POINT('',(-0.005,0.00394422863405995,0.0095));
#1671=CARTESIAN_POINT('',(-0.005,0.00273845726811989,0.014));
#1672=CARTESIAN_POINT('',(0.005,0.00273845726811989,0.014));
#1673=CARTESIAN_POINT('',(0.005,0.00273845726811989,0.014));
#1674=CARTESIAN_POINT('',(0.005,0.00394422863405995,0.0095));
#1675=CARTESIAN_POINT('',(0.005,-0.000398941156901537,0.014));
#1676=CARTESIAN_POINT('',(-0.0025,0.,0.014));
#1677=CARTESIAN_POINT('',(-0.0005,0.,0.014));
#1678=CARTESIAN_POINT('',(-0.005,-0.000398941156901537,0.014));
#1679=CARTESIAN_POINT('',(-0.005,-0.00353633958192297,0.014));
#1680=CARTESIAN_POINT('',(0.005,-0.00353633958192297,0.014));
#1681=CARTESIAN_POINT('',(0.005,-0.00353633958192297,0.014));
#1682=CARTESIAN_POINT('',(0.005,-0.000398941156901537,0.014));
#1683=CARTESIAN_POINT('',(0.005,-0.00404316979096149,0.0108));
#1684=CARTESIAN_POINT('',(-0.005,-0.00404316979096149,0.0108));
#1685=CARTESIAN_POINT('',(-0.005,-0.00455,0.0076));
#1686=CARTESIAN_POINT('',(0.005,-0.00455,0.0076));
#1687=CARTESIAN_POINT('',(0.005,-0.00455,0.0076));
#1688=CARTESIAN_POINT('',(0.005,-0.00404316979096149,0.0108));
#1689=CARTESIAN_POINT('',(0.005,-0.00455,0.007));
#1690=CARTESIAN_POINT('',(-0.005,-0.00455,0.007));
#1691=CARTESIAN_POINT('',(0.005,-0.00455,0.007));
#1692=CARTESIAN_POINT('',(0.005,0.,0.007));
#1693=CARTESIAN_POINT('',(-0.005,0.,0.007));
#1694=CARTESIAN_POINT('',(0.0025,-0.00015,0.00525));
#1695=CARTESIAN_POINT('',(0.0039,-0.00015,0.00525));
#1696=CARTESIAN_POINT('',(0.0039,-0.00015,0.00525));
#1697=CARTESIAN_POINT('',(0.0039,-0.00465,0.00525));
#1698=CARTESIAN_POINT('',(0.0025,-0.00465,0.00525));
#1699=CARTESIAN_POINT('',(0.0011,-0.00465,0.00525));
#1700=CARTESIAN_POINT('',(0.0011,-0.00015,0.00525));
#1701=CARTESIAN_POINT('',(0.0011,-0.00015,0.00525));
#1702=CARTESIAN_POINT('',(0.0025,-0.00015,0.00525));
#1703=CARTESIAN_POINT('',(0.0011,-0.00015,0.003625));
#1704=CARTESIAN_POINT('',(0.0011,-0.00465,0.002));
#1705=CARTESIAN_POINT('',(0.0011,-0.00465,0.002));
#1706=CARTESIAN_POINT('',(0.0011,-0.00015,0.002));
#1707=CARTESIAN_POINT('',(0.0011,-0.00015,0.002));
#1708=CARTESIAN_POINT('',(0.0011,-0.00015,0.003625));
#1709=CARTESIAN_POINT('',(0.0025,-0.00015,0.002));
#1710=CARTESIAN_POINT('',(0.0039,-0.00465,0.002));
#1711=CARTESIAN_POINT('',(0.0039,-0.00465,0.002));
#1712=CARTESIAN_POINT('',(0.0039,-0.00015,0.002));
#1713=CARTESIAN_POINT('',(0.0039,-0.00015,0.002));
#1714=CARTESIAN_POINT('',(0.0025,-0.00015,0.002));
#1715=CARTESIAN_POINT('',(0.0039,-0.00015,0.003625));
#1716=CARTESIAN_POINT('',(0.0039,-0.00465,0.003625));
#1717=CARTESIAN_POINT('',(0.0039,-0.00015,0.003625));
#1718=CARTESIAN_POINT('',(0.,-0.00015,0.0035));
#1719=CARTESIAN_POINT('',(-0.0025,-0.00015,0.00525));
#1720=CARTESIAN_POINT('',(-0.0011,-0.00015,0.00525));
#1721=CARTESIAN_POINT('',(-0.0011,-0.00015,0.00525));
#1722=CARTESIAN_POINT('',(-0.0011,-0.00465,0.00525));
#1723=CARTESIAN_POINT('',(-0.0025,-0.00465,0.00525));
#1724=CARTESIAN_POINT('',(-0.0039,-0.00465,0.00525));
#1725=CARTESIAN_POINT('',(-0.0039,-0.00015,0.00525));
#1726=CARTESIAN_POINT('',(-0.0039,-0.00015,0.00525));
#1727=CARTESIAN_POINT('',(-0.0025,-0.00015,0.00525));
#1728=CARTESIAN_POINT('',(-0.0039,-0.00015,0.003625));
#1729=CARTESIAN_POINT('',(-0.0039,-0.00465,0.002));
#1730=CARTESIAN_POINT('',(-0.0039,-0.00465,0.002));
#1731=CARTESIAN_POINT('',(-0.0039,-0.00015,0.002));
#1732=CARTESIAN_POINT('',(-0.0039,-0.00015,0.002));
#1733=CARTESIAN_POINT('',(-0.0039,-0.00015,0.003625));
#1734=CARTESIAN_POINT('',(-0.0025,-0.00015,0.002));
#1735=CARTESIAN_POINT('',(-0.0011,-0.00465,0.002));
#1736=CARTESIAN_POINT('',(-0.0011,-0.00465,0.002));
#1737=CARTESIAN_POINT('',(-0.0011,-0.00015,0.002));
#1738=CARTESIAN_POINT('',(-0.0011,-0.00015,0.002));
#1739=CARTESIAN_POINT('',(-0.0025,-0.00015,0.002));
#1740=CARTESIAN_POINT('',(-0.0011,-0.00015,0.003625));
#1741=CARTESIAN_POINT('',(-0.0011,-0.00465,0.003625));
#1742=CARTESIAN_POINT('',(-0.0011,-0.00015,0.003625));
#1743=CARTESIAN_POINT('',(0.,-0.00015,0.0035));
#1744=CARTESIAN_POINT('',(0.0011,-0.00465,0.003625));
#1745=CARTESIAN_POINT('',(0.00110228310502283,-0.00464771689497717,0.00524406392694064));
#1746=CARTESIAN_POINT('',(0.00156666666666666,-0.00418333333333334,0.00246666666666667));
#1747=CARTESIAN_POINT('',(0.0025,-0.00465,0.002));
#1748=CARTESIAN_POINT('',(0.00373333333333334,-0.00448333333333334,0.00216666666666667));
#1749=CARTESIAN_POINT('',(0.0044,-0.00515,0.0035));
#1750=CARTESIAN_POINT('',(0.00446849315068493,-0.00521849315068493,0.00672808219178082));
#1751=CARTESIAN_POINT('',(-0.0039,-0.00465,0.003625));
#1752=CARTESIAN_POINT('',(-0.00332694063926941,-0.00407694063926941,0.00376004566210047));
#1753=CARTESIAN_POINT('',(-0.00343333333333334,-0.00418333333333334,0.00246666666666667));
#1754=CARTESIAN_POINT('',(-0.0025,-0.00465,0.002));
#1755=CARTESIAN_POINT('',(-0.00126666666666667,-0.00448333333333334,0.00216666666666667));
#1756=CARTESIAN_POINT('',(-0.0006,-0.00515,0.0035));
#1757=CARTESIAN_POINT('',(3.92694063926927E-5,-0.00578926940639269,0.008212100456621));
#1758=CARTESIAN_POINT('',(0.005,-0.00515,0.00655));
#1759=CARTESIAN_POINT('',(0.005,-0.00515,0.00655));
#1760=CARTESIAN_POINT('',(-0.0025,0.,0.0075));
#1761=CARTESIAN_POINT('',(-0.00185,0.,0.0125));
#1762=CARTESIAN_POINT('',(-0.00185,-0.00035,0.0125));
#1763=CARTESIAN_POINT('',(-0.00445,0.00035,0.0135));
#1764=CARTESIAN_POINT('',(-0.00445,0.00035,0.012));
#1765=CARTESIAN_POINT('',(-0.0025,0.00035,0.012));
#1766=CARTESIAN_POINT('',(-0.0025,-0.00035,0.012));
#1767=CARTESIAN_POINT('',(-0.00055,0.00035,0.012));
#1768=CARTESIAN_POINT('',(-0.0025,0.00035,0.012));
#1769=CARTESIAN_POINT('',(-0.00055,0.00035,0.0135));
#1770=CARTESIAN_POINT('',(-0.000275,0.00035,0.0075));
#1771=CARTESIAN_POINT('',(-0.000275,-0.00035,0.0075));
#1772=CARTESIAN_POINT('',(0.0025,0.00035,0.012));
#1773=CARTESIAN_POINT('',(0.0025,0.00035,0.012));
#1774=CARTESIAN_POINT('',(0.00055,0.00035,0.012));
#1775=CARTESIAN_POINT('',(0.0025,-0.00035,0.012));
#1776=CARTESIAN_POINT('',(0.00445,0.00035,0.012));
#1777=CARTESIAN_POINT('',(0.00445,0.00035,0.0135));
#1778=CARTESIAN_POINT('',(0.00055,0.00035,0.0135));
#1779=CARTESIAN_POINT('',(-0.000275,0.00035,0.0075));
#1780=CARTESIAN_POINT('',(-0.000275,-0.00035,0.0075));
#1781=CARTESIAN_POINT('',(0.002275,-0.0005,-0.0035));
#1782=CARTESIAN_POINT('',(0.002275,0.0005,-0.0035));
#1783=CARTESIAN_POINT('',(0.00205,0.0005,-0.003));
#1784=CARTESIAN_POINT('',(0.0025,0.0005,-0.004));
#1785=CARTESIAN_POINT('',(0.0025,-0.0005,-0.004));
#1786=CARTESIAN_POINT('',(0.0025,-0.0005,-0.004));
#1787=CARTESIAN_POINT('',(0.002275,-0.0005,-0.0035));
#1788=CARTESIAN_POINT('',(0.00205,-0.0005,-0.003));
#1789=CARTESIAN_POINT('',(0.00205,-0.0005,-0.003));
#1790=CARTESIAN_POINT('',(0.002725,-0.0005,-0.0035));
#1791=CARTESIAN_POINT('',(0.002725,0.0005,-0.0035));
#1792=CARTESIAN_POINT('',(0.00295,0.0005,-0.003));
#1793=CARTESIAN_POINT('',(0.00295,-0.0005,-0.003));
#1794=CARTESIAN_POINT('',(0.00295,-0.0005,-0.003));
#1795=CARTESIAN_POINT('',(0.002725,-0.0005,-0.0035));
#1796=CARTESIAN_POINT('',(0.00295,-0.0005,-0.0015));
#1797=CARTESIAN_POINT('',(0.00295,0.0005,-0.0015));
#1798=CARTESIAN_POINT('',(0.00295,-0.0005,-0.0015));
#1799=CARTESIAN_POINT('',(0.00205,-0.0005,-0.0015));
#1800=CARTESIAN_POINT('',(0.00205,0.0005,-0.0015));
#1801=CARTESIAN_POINT('',(0.00205,-0.0005,-0.0015));
#1802=CARTESIAN_POINT('',(0.,-0.0005,-0.0027783177793026));
#1803=CARTESIAN_POINT('',(0.,0.0005,-0.0027783177793026));
#1804=CARTESIAN_POINT('',(-0.00295,-0.0005,-0.0015));
#1805=CARTESIAN_POINT('',(-0.00295,0.0005,-0.0015));
#1806=CARTESIAN_POINT('',(-0.00295,0.0005,-0.003));
#1807=CARTESIAN_POINT('',(-0.00295,-0.0005,-0.003));
#1808=CARTESIAN_POINT('',(-0.00295,-0.0005,-0.003));
#1809=CARTESIAN_POINT('',(-0.00295,-0.0005,-0.0015));
#1810=CARTESIAN_POINT('',(-0.002725,-0.0005,-0.0035));
#1811=CARTESIAN_POINT('',(-0.002725,0.0005,-0.0035));
#1812=CARTESIAN_POINT('',(-0.0025,0.0005,-0.004));
#1813=CARTESIAN_POINT('',(-0.0025,-0.0005,-0.004));
#1814=CARTESIAN_POINT('',(-0.0025,-0.0005,-0.004));
#1815=CARTESIAN_POINT('',(-0.002725,-0.0005,-0.0035));
#1816=CARTESIAN_POINT('',(-0.002275,-0.0005,-0.0035));
#1817=CARTESIAN_POINT('',(-0.002275,0.0005,-0.0035));
#1818=CARTESIAN_POINT('',(-0.00205,0.0005,-0.003));
#1819=CARTESIAN_POINT('',(-0.00205,-0.0005,-0.003));
#1820=CARTESIAN_POINT('',(-0.00205,-0.0005,-0.003));
#1821=CARTESIAN_POINT('',(-0.002275,-0.0005,-0.0035));
#1822=CARTESIAN_POINT('',(-0.00205,-0.0005,-0.0015));
#1823=CARTESIAN_POINT('',(-0.00205,0.0005,-0.0015));
#1824=CARTESIAN_POINT('',(-0.00205,-0.0005,-0.0015));
#1825=CARTESIAN_POINT('',(0.,-0.0005,-0.0027783177793026));
#1826=CARTESIAN_POINT('',(0.,0.0005,-0.0027783177793026));
#1827=MECHANICAL_DESIGN_GEOMETRIC_PRESENTATION_REPRESENTATION('',(#1001,
#914,#915,#916,#917,#918,#919,#920,#921,#922,#923,#924,#925,#926,#927,#928,
#929,#930,#931,#932,#933,#934,#935,#936,#937,#938,#939,#940,#941,#942),
#1828);
#1828=(
GEOMETRIC_REPRESENTATION_CONTEXT(3)
GLOBAL_UNCERTAINTY_ASSIGNED_CONTEXT((#1829))
GLOBAL_UNIT_ASSIGNED_CONTEXT((#1832,#1831,#1830))
REPRESENTATION_CONTEXT('5.0-2P','TOP_LEVEL_ASSEMBLY_PART')
);
#1829=UNCERTAINTY_MEASURE_WITH_UNIT(LENGTH_MEASURE(2.E-5),#1832,
'DISTANCE_ACCURACY_VALUE','Maximum Tolerance applied to model');
#1830=(
NAMED_UNIT(*)
SI_UNIT($,.STERADIAN.)
SOLID_ANGLE_UNIT()
);
#1831=(
NAMED_UNIT(*)
PLANE_ANGLE_UNIT()
SI_UNIT($,.RADIAN.)
);
#1832=(
LENGTH_UNIT()
NAMED_UNIT(*)
SI_UNIT($,.METRE.)
);
#1833=PRODUCT_DEFINITION_SHAPE('','',#1834);
#1834=PRODUCT_DEFINITION('','',#1836,#1835);
#1835=PRODUCT_DEFINITION_CONTEXT('',#1842,'design');
#1836=PRODUCT_DEFINITION_FORMATION_WITH_SPECIFIED_SOURCE('','',#1838,
 .NOT_KNOWN.);
#1837=PRODUCT_RELATED_PRODUCT_CATEGORY('','',(#1838));
#1838=PRODUCT('5.0-2P','5.0-2P','5.0-2P',(#1840));
#1839=PRODUCT_CATEGORY('','');
#1840=PRODUCT_CONTEXT('',#1842,'mechanical');
#1841=APPLICATION_PROTOCOL_DEFINITION('international standard',
'ap242_managed_model_based_3d_engineering',2011,#1842);
#1842=APPLICATION_CONTEXT('managed model based 3d engineering');
ENDSEC;
END-ISO-10303-21;
