ISO-10303-21;
HEADER;
/* Generated by software containing ST-Developer
 * from STEP Tools, Inc. (www.steptools.com) 
 */
/* OPTION: using custom renumber hook */

FILE_DESCRIPTION(
/* description */ ('STEP AP242',
'CAx-IF Rec.Pracs.---Representation and Presentation of Product Manufa
cturing Information (PMI)---4.0---2014-10-13',
'CAx-IF Rec.Pracs.---3D Tessellated Geometry---0.4---2014-09-14','2;1'),

/* implementation_level */ '2;1');

FILE_NAME(
/* name */ '68b6b9deab4ce97cfb0a8762',
/* time_stamp */ '2025-09-02T09:33:19Z',
/* author */ (''),
/* organization */ (''),
/* preprocessor_version */ 'ST-DEVELOPER v20',
/* originating_system */ 'ONSHAPE BY PTC INC, 1.203',
/* authorisation */ '  ');

FILE_SCHEMA (('AP242_MANAGED_MODEL_BASED_3D_ENGINEERING_MIM_LF { 1 0 10303 442 1 1 4 }'));
ENDSEC;

DATA;
#10=SHAPE_REPRESENTATION_RELATIONSHIP('','',#568,#13);
#11=SHAPE_REPRESENTATION_RELATIONSHIP('','',#569,#14);
#12=SHAPE_REPRESENTATION_RELATIONSHIP('','',#570,#15);
#13=ADVANCED_BREP_SHAPE_REPRESENTATION('',(#562),#914);
#14=ADVANCED_BREP_SHAPE_REPRESENTATION('',(#563),#915);
#15=ADVANCED_BREP_SHAPE_REPRESENTATION('',(#564),#916);
#16=CYLINDRICAL_SURFACE('',#586,0.001);
#17=CYLINDRICAL_SURFACE('',#587,0.001);
#18=CYLINDRICAL_SURFACE('',#588,0.001);
#19=CYLINDRICAL_SURFACE('',#589,0.001);
#20=CIRCLE('',#573,0.001);
#21=CIRCLE('',#574,0.001);
#22=CIRCLE('',#575,0.001);
#23=CIRCLE('',#576,0.001);
#24=CIRCLE('',#582,0.001);
#25=CIRCLE('',#583,0.001);
#26=CIRCLE('',#584,0.001);
#27=CIRCLE('',#585,0.001);
#28=ORIENTED_EDGE('',*,*,#172,.F.);
#29=ORIENTED_EDGE('',*,*,#173,.T.);
#30=ORIENTED_EDGE('',*,*,#174,.T.);
#31=ORIENTED_EDGE('',*,*,#175,.T.);
#32=ORIENTED_EDGE('',*,*,#176,.T.);
#33=ORIENTED_EDGE('',*,*,#177,.F.);
#34=ORIENTED_EDGE('',*,*,#178,.F.);
#35=ORIENTED_EDGE('',*,*,#179,.T.);
#36=ORIENTED_EDGE('',*,*,#180,.T.);
#37=ORIENTED_EDGE('',*,*,#181,.F.);
#38=ORIENTED_EDGE('',*,*,#182,.T.);
#39=ORIENTED_EDGE('',*,*,#183,.F.);
#40=ORIENTED_EDGE('',*,*,#184,.T.);
#41=ORIENTED_EDGE('',*,*,#185,.T.);
#42=ORIENTED_EDGE('',*,*,#186,.T.);
#43=ORIENTED_EDGE('',*,*,#187,.F.);
#44=ORIENTED_EDGE('',*,*,#188,.F.);
#45=ORIENTED_EDGE('',*,*,#189,.F.);
#46=ORIENTED_EDGE('',*,*,#190,.T.);
#47=ORIENTED_EDGE('',*,*,#185,.F.);
#48=ORIENTED_EDGE('',*,*,#191,.T.);
#49=ORIENTED_EDGE('',*,*,#192,.T.);
#50=ORIENTED_EDGE('',*,*,#193,.T.);
#51=ORIENTED_EDGE('',*,*,#173,.F.);
#52=ORIENTED_EDGE('',*,*,#183,.T.);
#53=ORIENTED_EDGE('',*,*,#194,.T.);
#54=ORIENTED_EDGE('',*,*,#195,.F.);
#55=ORIENTED_EDGE('',*,*,#196,.T.);
#56=ORIENTED_EDGE('',*,*,#197,.T.);
#57=ORIENTED_EDGE('',*,*,#198,.T.);
#58=ORIENTED_EDGE('',*,*,#177,.T.);
#59=ORIENTED_EDGE('',*,*,#199,.T.);
#60=ORIENTED_EDGE('',*,*,#200,.F.);
#61=ORIENTED_EDGE('',*,*,#201,.T.);
#62=ORIENTED_EDGE('',*,*,#181,.T.);
#63=ORIENTED_EDGE('',*,*,#202,.F.);
#64=ORIENTED_EDGE('',*,*,#175,.F.);
#65=ORIENTED_EDGE('',*,*,#203,.T.);
#66=ORIENTED_EDGE('',*,*,#204,.T.);
#67=ORIENTED_EDGE('',*,*,#205,.T.);
#68=ORIENTED_EDGE('',*,*,#204,.F.);
#69=ORIENTED_EDGE('',*,*,#206,.T.);
#70=ORIENTED_EDGE('',*,*,#192,.F.);
#71=ORIENTED_EDGE('',*,*,#207,.T.);
#72=ORIENTED_EDGE('',*,*,#195,.T.);
#73=ORIENTED_EDGE('',*,*,#208,.T.);
#74=ORIENTED_EDGE('',*,*,#200,.T.);
#75=ORIENTED_EDGE('',*,*,#209,.T.);
#76=ORIENTED_EDGE('',*,*,#206,.F.);
#77=ORIENTED_EDGE('',*,*,#203,.F.);
#78=ORIENTED_EDGE('',*,*,#174,.F.);
#79=ORIENTED_EDGE('',*,*,#193,.F.);
#80=ORIENTED_EDGE('',*,*,#209,.F.);
#81=ORIENTED_EDGE('',*,*,#199,.F.);
#82=ORIENTED_EDGE('',*,*,#176,.F.);
#83=ORIENTED_EDGE('',*,*,#205,.F.);
#84=ORIENTED_EDGE('',*,*,#208,.F.);
#85=ORIENTED_EDGE('',*,*,#194,.F.);
#86=ORIENTED_EDGE('',*,*,#182,.F.);
#87=ORIENTED_EDGE('',*,*,#201,.F.);
#88=ORIENTED_EDGE('',*,*,#207,.F.);
#89=ORIENTED_EDGE('',*,*,#191,.F.);
#90=ORIENTED_EDGE('',*,*,#184,.F.);
#91=ORIENTED_EDGE('',*,*,#196,.F.);
#92=ORIENTED_EDGE('',*,*,#210,.F.);
#93=ORIENTED_EDGE('',*,*,#211,.T.);
#94=ORIENTED_EDGE('',*,*,#178,.T.);
#95=ORIENTED_EDGE('',*,*,#198,.F.);
#96=ORIENTED_EDGE('',*,*,#202,.T.);
#97=ORIENTED_EDGE('',*,*,#180,.F.);
#98=ORIENTED_EDGE('',*,*,#212,.F.);
#99=ORIENTED_EDGE('',*,*,#213,.T.);
#100=ORIENTED_EDGE('',*,*,#213,.F.);
#101=ORIENTED_EDGE('',*,*,#214,.F.);
#102=ORIENTED_EDGE('',*,*,#210,.T.);
#103=ORIENTED_EDGE('',*,*,#197,.F.);
#104=ORIENTED_EDGE('',*,*,#179,.F.);
#105=ORIENTED_EDGE('',*,*,#211,.F.);
#106=ORIENTED_EDGE('',*,*,#214,.T.);
#107=ORIENTED_EDGE('',*,*,#212,.T.);
#108=ORIENTED_EDGE('',*,*,#188,.T.);
#109=ORIENTED_EDGE('',*,*,#172,.T.);
#110=ORIENTED_EDGE('',*,*,#215,.F.);
#111=ORIENTED_EDGE('',*,*,#216,.F.);
#112=ORIENTED_EDGE('',*,*,#217,.T.);
#113=ORIENTED_EDGE('',*,*,#218,.T.);
#114=ORIENTED_EDGE('',*,*,#186,.F.);
#115=ORIENTED_EDGE('',*,*,#190,.F.);
#116=ORIENTED_EDGE('',*,*,#187,.T.);
#117=ORIENTED_EDGE('',*,*,#218,.F.);
#118=ORIENTED_EDGE('',*,*,#219,.F.);
#119=ORIENTED_EDGE('',*,*,#215,.T.);
#120=ORIENTED_EDGE('',*,*,#189,.T.);
#121=ORIENTED_EDGE('',*,*,#216,.T.);
#122=ORIENTED_EDGE('',*,*,#219,.T.);
#123=ORIENTED_EDGE('',*,*,#217,.F.);
#124=ORIENTED_EDGE('',*,*,#220,.F.);
#125=ORIENTED_EDGE('',*,*,#221,.F.);
#126=ORIENTED_EDGE('',*,*,#222,.T.);
#127=ORIENTED_EDGE('',*,*,#223,.T.);
#128=ORIENTED_EDGE('',*,*,#224,.T.);
#129=ORIENTED_EDGE('',*,*,#225,.F.);
#130=ORIENTED_EDGE('',*,*,#226,.F.);
#131=ORIENTED_EDGE('',*,*,#221,.T.);
#132=ORIENTED_EDGE('',*,*,#227,.T.);
#133=ORIENTED_EDGE('',*,*,#228,.F.);
#134=ORIENTED_EDGE('',*,*,#229,.F.);
#135=ORIENTED_EDGE('',*,*,#225,.T.);
#136=ORIENTED_EDGE('',*,*,#230,.F.);
#137=ORIENTED_EDGE('',*,*,#223,.F.);
#138=ORIENTED_EDGE('',*,*,#231,.T.);
#139=ORIENTED_EDGE('',*,*,#228,.T.);
#140=ORIENTED_EDGE('',*,*,#222,.F.);
#141=ORIENTED_EDGE('',*,*,#226,.T.);
#142=ORIENTED_EDGE('',*,*,#229,.T.);
#143=ORIENTED_EDGE('',*,*,#231,.F.);
#144=ORIENTED_EDGE('',*,*,#220,.T.);
#145=ORIENTED_EDGE('',*,*,#230,.T.);
#146=ORIENTED_EDGE('',*,*,#227,.F.);
#147=ORIENTED_EDGE('',*,*,#224,.F.);
#148=ORIENTED_EDGE('',*,*,#232,.F.);
#149=ORIENTED_EDGE('',*,*,#233,.F.);
#150=ORIENTED_EDGE('',*,*,#234,.T.);
#151=ORIENTED_EDGE('',*,*,#235,.T.);
#152=ORIENTED_EDGE('',*,*,#236,.T.);
#153=ORIENTED_EDGE('',*,*,#237,.F.);
#154=ORIENTED_EDGE('',*,*,#238,.F.);
#155=ORIENTED_EDGE('',*,*,#233,.T.);
#156=ORIENTED_EDGE('',*,*,#239,.T.);
#157=ORIENTED_EDGE('',*,*,#240,.F.);
#158=ORIENTED_EDGE('',*,*,#241,.F.);
#159=ORIENTED_EDGE('',*,*,#237,.T.);
#160=ORIENTED_EDGE('',*,*,#242,.F.);
#161=ORIENTED_EDGE('',*,*,#235,.F.);
#162=ORIENTED_EDGE('',*,*,#243,.T.);
#163=ORIENTED_EDGE('',*,*,#240,.T.);
#164=ORIENTED_EDGE('',*,*,#234,.F.);
#165=ORIENTED_EDGE('',*,*,#238,.T.);
#166=ORIENTED_EDGE('',*,*,#241,.T.);
#167=ORIENTED_EDGE('',*,*,#243,.F.);
#168=ORIENTED_EDGE('',*,*,#232,.T.);
#169=ORIENTED_EDGE('',*,*,#242,.T.);
#170=ORIENTED_EDGE('',*,*,#239,.F.);
#171=ORIENTED_EDGE('',*,*,#236,.F.);
#172=EDGE_CURVE('',#244,#245,#292,.T.);
#173=EDGE_CURVE('',#244,#246,#293,.T.);
#174=EDGE_CURVE('',#246,#247,#20,.F.);
#175=EDGE_CURVE('',#247,#248,#294,.T.);
#176=EDGE_CURVE('',#248,#249,#21,.F.);
#177=EDGE_CURVE('',#250,#249,#295,.T.);
#178=EDGE_CURVE('',#251,#250,#296,.T.);
#179=EDGE_CURVE('',#251,#252,#297,.T.);
#180=EDGE_CURVE('',#252,#253,#298,.T.);
#181=EDGE_CURVE('',#254,#253,#299,.T.);
#182=EDGE_CURVE('',#254,#255,#22,.F.);
#183=EDGE_CURVE('',#256,#255,#300,.T.);
#184=EDGE_CURVE('',#256,#257,#23,.F.);
#185=EDGE_CURVE('',#257,#258,#301,.T.);
#186=EDGE_CURVE('',#258,#259,#302,.T.);
#187=EDGE_CURVE('',#245,#259,#303,.T.);
#188=EDGE_CURVE('',#260,#244,#304,.T.);
#189=EDGE_CURVE('',#261,#260,#305,.T.);
#190=EDGE_CURVE('',#261,#258,#306,.T.);
#191=EDGE_CURVE('',#257,#262,#307,.F.);
#192=EDGE_CURVE('',#262,#263,#308,.T.);
#193=EDGE_CURVE('',#263,#246,#309,.T.);
#194=EDGE_CURVE('',#255,#264,#310,.F.);
#195=EDGE_CURVE('',#265,#264,#311,.T.);
#196=EDGE_CURVE('',#265,#256,#312,.T.);
#197=EDGE_CURVE('',#266,#267,#313,.T.);
#198=EDGE_CURVE('',#267,#250,#314,.T.);
#199=EDGE_CURVE('',#249,#268,#315,.F.);
#200=EDGE_CURVE('',#269,#268,#316,.T.);
#201=EDGE_CURVE('',#269,#254,#317,.T.);
#202=EDGE_CURVE('',#266,#253,#318,.T.);
#203=EDGE_CURVE('',#247,#270,#319,.F.);
#204=EDGE_CURVE('',#270,#271,#320,.T.);
#205=EDGE_CURVE('',#271,#248,#321,.T.);
#206=EDGE_CURVE('',#270,#263,#24,.T.);
#207=EDGE_CURVE('',#262,#265,#25,.T.);
#208=EDGE_CURVE('',#264,#269,#26,.T.);
#209=EDGE_CURVE('',#268,#271,#27,.T.);
#210=EDGE_CURVE('',#272,#267,#322,.T.);
#211=EDGE_CURVE('',#272,#251,#323,.T.);
#212=EDGE_CURVE('',#273,#252,#324,.T.);
#213=EDGE_CURVE('',#273,#266,#325,.T.);
#214=EDGE_CURVE('',#272,#273,#326,.T.);
#215=EDGE_CURVE('',#274,#245,#327,.T.);
#216=EDGE_CURVE('',#260,#274,#328,.T.);
#217=EDGE_CURVE('',#261,#275,#329,.T.);
#218=EDGE_CURVE('',#275,#259,#330,.T.);
#219=EDGE_CURVE('',#274,#275,#331,.T.);
#220=EDGE_CURVE('',#276,#277,#332,.T.);
#221=EDGE_CURVE('',#278,#276,#333,.T.);
#222=EDGE_CURVE('',#278,#279,#334,.T.);
#223=EDGE_CURVE('',#279,#277,#335,.T.);
#224=EDGE_CURVE('',#276,#280,#336,.T.);
#225=EDGE_CURVE('',#281,#280,#337,.T.);
#226=EDGE_CURVE('',#278,#281,#338,.T.);
#227=EDGE_CURVE('',#280,#282,#339,.T.);
#228=EDGE_CURVE('',#283,#282,#340,.T.);
#229=EDGE_CURVE('',#281,#283,#341,.T.);
#230=EDGE_CURVE('',#277,#282,#342,.T.);
#231=EDGE_CURVE('',#279,#283,#343,.T.);
#232=EDGE_CURVE('',#284,#285,#344,.T.);
#233=EDGE_CURVE('',#286,#284,#345,.T.);
#234=EDGE_CURVE('',#286,#287,#346,.T.);
#235=EDGE_CURVE('',#287,#285,#347,.T.);
#236=EDGE_CURVE('',#284,#288,#348,.T.);
#237=EDGE_CURVE('',#289,#288,#349,.T.);
#238=EDGE_CURVE('',#286,#289,#350,.T.);
#239=EDGE_CURVE('',#288,#290,#351,.T.);
#240=EDGE_CURVE('',#291,#290,#352,.T.);
#241=EDGE_CURVE('',#289,#291,#353,.T.);
#242=EDGE_CURVE('',#285,#290,#354,.T.);
#243=EDGE_CURVE('',#287,#291,#355,.T.);
#244=VERTEX_POINT('',#761);
#245=VERTEX_POINT('',#762);
#246=VERTEX_POINT('',#764);
#247=VERTEX_POINT('',#766);
#248=VERTEX_POINT('',#768);
#249=VERTEX_POINT('',#770);
#250=VERTEX_POINT('',#772);
#251=VERTEX_POINT('',#774);
#252=VERTEX_POINT('',#776);
#253=VERTEX_POINT('',#778);
#254=VERTEX_POINT('',#780);
#255=VERTEX_POINT('',#782);
#256=VERTEX_POINT('',#784);
#257=VERTEX_POINT('',#786);
#258=VERTEX_POINT('',#788);
#259=VERTEX_POINT('',#790);
#260=VERTEX_POINT('',#794);
#261=VERTEX_POINT('',#796);
#262=VERTEX_POINT('',#799);
#263=VERTEX_POINT('',#801);
#264=VERTEX_POINT('',#805);
#265=VERTEX_POINT('',#807);
#266=VERTEX_POINT('',#811);
#267=VERTEX_POINT('',#812);
#268=VERTEX_POINT('',#815);
#269=VERTEX_POINT('',#817);
#270=VERTEX_POINT('',#822);
#271=VERTEX_POINT('',#824);
#272=VERTEX_POINT('',#837);
#273=VERTEX_POINT('',#841);
#274=VERTEX_POINT('',#848);
#275=VERTEX_POINT('',#852);
#276=VERTEX_POINT('',#860);
#277=VERTEX_POINT('',#861);
#278=VERTEX_POINT('',#863);
#279=VERTEX_POINT('',#865);
#280=VERTEX_POINT('',#869);
#281=VERTEX_POINT('',#871);
#282=VERTEX_POINT('',#875);
#283=VERTEX_POINT('',#877);
#284=VERTEX_POINT('',#887);
#285=VERTEX_POINT('',#888);
#286=VERTEX_POINT('',#890);
#287=VERTEX_POINT('',#892);
#288=VERTEX_POINT('',#896);
#289=VERTEX_POINT('',#898);
#290=VERTEX_POINT('',#902);
#291=VERTEX_POINT('',#904);
#292=LINE('',#760,#356);
#293=LINE('',#763,#357);
#294=LINE('',#767,#358);
#295=LINE('',#771,#359);
#296=LINE('',#773,#360);
#297=LINE('',#775,#361);
#298=LINE('',#777,#362);
#299=LINE('',#779,#363);
#300=LINE('',#783,#364);
#301=LINE('',#787,#365);
#302=LINE('',#789,#366);
#303=LINE('',#791,#367);
#304=LINE('',#793,#368);
#305=LINE('',#795,#369);
#306=LINE('',#797,#370);
#307=LINE('',#798,#371);
#308=LINE('',#800,#372);
#309=LINE('',#802,#373);
#310=LINE('',#804,#374);
#311=LINE('',#806,#375);
#312=LINE('',#808,#376);
#313=LINE('',#810,#377);
#314=LINE('',#813,#378);
#315=LINE('',#814,#379);
#316=LINE('',#816,#380);
#317=LINE('',#818,#381);
#318=LINE('',#819,#382);
#319=LINE('',#821,#383);
#320=LINE('',#823,#384);
#321=LINE('',#825,#385);
#322=LINE('',#836,#386);
#323=LINE('',#838,#387);
#324=LINE('',#840,#388);
#325=LINE('',#842,#389);
#326=LINE('',#844,#390);
#327=LINE('',#847,#391);
#328=LINE('',#849,#392);
#329=LINE('',#851,#393);
#330=LINE('',#853,#394);
#331=LINE('',#855,#395);
#332=LINE('',#859,#396);
#333=LINE('',#862,#397);
#334=LINE('',#864,#398);
#335=LINE('',#866,#399);
#336=LINE('',#868,#400);
#337=LINE('',#870,#401);
#338=LINE('',#872,#402);
#339=LINE('',#874,#403);
#340=LINE('',#876,#404);
#341=LINE('',#878,#405);
#342=LINE('',#880,#406);
#343=LINE('',#881,#407);
#344=LINE('',#886,#408);
#345=LINE('',#889,#409);
#346=LINE('',#891,#410);
#347=LINE('',#893,#411);
#348=LINE('',#895,#412);
#349=LINE('',#897,#413);
#350=LINE('',#899,#414);
#351=LINE('',#901,#415);
#352=LINE('',#903,#416);
#353=LINE('',#905,#417);
#354=LINE('',#907,#418);
#355=LINE('',#908,#419);
#356=VECTOR('',#616,1.);
#357=VECTOR('',#617,1.);
#358=VECTOR('',#620,1.);
#359=VECTOR('',#623,1.);
#360=VECTOR('',#624,1.);
#361=VECTOR('',#625,1.);
#362=VECTOR('',#626,1.);
#363=VECTOR('',#627,1.);
#364=VECTOR('',#630,1.);
#365=VECTOR('',#633,1.);
#366=VECTOR('',#634,1.);
#367=VECTOR('',#635,1.);
#368=VECTOR('',#638,1.);
#369=VECTOR('',#639,1.);
#370=VECTOR('',#640,1.);
#371=VECTOR('',#641,1.);
#372=VECTOR('',#642,1.);
#373=VECTOR('',#643,1.);
#374=VECTOR('',#646,1.);
#375=VECTOR('',#647,1.);
#376=VECTOR('',#648,1.);
#377=VECTOR('',#651,1.);
#378=VECTOR('',#652,1.);
#379=VECTOR('',#653,1.);
#380=VECTOR('',#654,1.);
#381=VECTOR('',#655,1.);
#382=VECTOR('',#656,1.);
#383=VECTOR('',#659,1.);
#384=VECTOR('',#660,1.);
#385=VECTOR('',#661,1.);
#386=VECTOR('',#682,1.);
#387=VECTOR('',#683,1.);
#388=VECTOR('',#686,1.);
#389=VECTOR('',#687,1.);
#390=VECTOR('',#690,1.);
#391=VECTOR('',#695,1.);
#392=VECTOR('',#696,1.);
#393=VECTOR('',#699,1.);
#394=VECTOR('',#700,1.);
#395=VECTOR('',#703,1.);
#396=VECTOR('',#710,1.);
#397=VECTOR('',#711,1.);
#398=VECTOR('',#712,1.);
#399=VECTOR('',#713,1.);
#400=VECTOR('',#716,1.);
#401=VECTOR('',#717,1.);
#402=VECTOR('',#718,1.);
#403=VECTOR('',#721,1.);
#404=VECTOR('',#722,1.);
#405=VECTOR('',#723,1.);
#406=VECTOR('',#726,1.);
#407=VECTOR('',#727,1.);
#408=VECTOR('',#736,1.);
#409=VECTOR('',#737,1.);
#410=VECTOR('',#738,1.);
#411=VECTOR('',#739,1.);
#412=VECTOR('',#742,1.);
#413=VECTOR('',#743,1.);
#414=VECTOR('',#744,1.);
#415=VECTOR('',#747,1.);
#416=VECTOR('',#748,1.);
#417=VECTOR('',#749,1.);
#418=VECTOR('',#752,1.);
#419=VECTOR('',#753,1.);
#420=EDGE_LOOP('',(#28,#29,#30,#31,#32,#33,#34,#35,#36,#37,#38,#39,#40,
#41,#42,#43));
#421=EDGE_LOOP('',(#44,#45,#46,#47,#48,#49,#50,#51));
#422=EDGE_LOOP('',(#52,#53,#54,#55));
#423=EDGE_LOOP('',(#56,#57,#58,#59,#60,#61,#62,#63));
#424=EDGE_LOOP('',(#64,#65,#66,#67));
#425=EDGE_LOOP('',(#68,#69,#70,#71,#72,#73,#74,#75));
#426=EDGE_LOOP('',(#76,#77,#78,#79));
#427=EDGE_LOOP('',(#80,#81,#82,#83));
#428=EDGE_LOOP('',(#84,#85,#86,#87));
#429=EDGE_LOOP('',(#88,#89,#90,#91));
#430=EDGE_LOOP('',(#92,#93,#94,#95));
#431=EDGE_LOOP('',(#96,#97,#98,#99));
#432=EDGE_LOOP('',(#100,#101,#102,#103));
#433=EDGE_LOOP('',(#104,#105,#106,#107));
#434=EDGE_LOOP('',(#108,#109,#110,#111));
#435=EDGE_LOOP('',(#112,#113,#114,#115));
#436=EDGE_LOOP('',(#116,#117,#118,#119));
#437=EDGE_LOOP('',(#120,#121,#122,#123));
#438=EDGE_LOOP('',(#124,#125,#126,#127));
#439=EDGE_LOOP('',(#128,#129,#130,#131));
#440=EDGE_LOOP('',(#132,#133,#134,#135));
#441=EDGE_LOOP('',(#136,#137,#138,#139));
#442=EDGE_LOOP('',(#140,#141,#142,#143));
#443=EDGE_LOOP('',(#144,#145,#146,#147));
#444=EDGE_LOOP('',(#148,#149,#150,#151));
#445=EDGE_LOOP('',(#152,#153,#154,#155));
#446=EDGE_LOOP('',(#156,#157,#158,#159));
#447=EDGE_LOOP('',(#160,#161,#162,#163));
#448=EDGE_LOOP('',(#164,#165,#166,#167));
#449=EDGE_LOOP('',(#168,#169,#170,#171));
#450=FACE_BOUND('',#420,.T.);
#451=FACE_BOUND('',#421,.T.);
#452=FACE_BOUND('',#422,.T.);
#453=FACE_BOUND('',#423,.T.);
#454=FACE_BOUND('',#424,.T.);
#455=FACE_BOUND('',#425,.T.);
#456=FACE_BOUND('',#426,.T.);
#457=FACE_BOUND('',#427,.T.);
#458=FACE_BOUND('',#428,.T.);
#459=FACE_BOUND('',#429,.T.);
#460=FACE_BOUND('',#430,.T.);
#461=FACE_BOUND('',#431,.T.);
#462=FACE_BOUND('',#432,.T.);
#463=FACE_BOUND('',#433,.T.);
#464=FACE_BOUND('',#434,.T.);
#465=FACE_BOUND('',#435,.T.);
#466=FACE_BOUND('',#436,.T.);
#467=FACE_BOUND('',#437,.T.);
#468=FACE_BOUND('',#438,.T.);
#469=FACE_BOUND('',#439,.T.);
#470=FACE_BOUND('',#440,.T.);
#471=FACE_BOUND('',#441,.T.);
#472=FACE_BOUND('',#442,.T.);
#473=FACE_BOUND('',#443,.T.);
#474=FACE_BOUND('',#444,.T.);
#475=FACE_BOUND('',#445,.T.);
#476=FACE_BOUND('',#446,.T.);
#477=FACE_BOUND('',#447,.T.);
#478=FACE_BOUND('',#448,.T.);
#479=FACE_BOUND('',#449,.T.);
#480=PLANE('',#572);
#481=PLANE('',#577);
#482=PLANE('',#578);
#483=PLANE('',#579);
#484=PLANE('',#580);
#485=PLANE('',#581);
#486=PLANE('',#590);
#487=PLANE('',#591);
#488=PLANE('',#592);
#489=PLANE('',#593);
#490=PLANE('',#594);
#491=PLANE('',#595);
#492=PLANE('',#596);
#493=PLANE('',#597);
#494=PLANE('',#599);
#495=PLANE('',#600);
#496=PLANE('',#601);
#497=PLANE('',#602);
#498=PLANE('',#603);
#499=PLANE('',#604);
#500=PLANE('',#606);
#501=PLANE('',#607);
#502=PLANE('',#608);
#503=PLANE('',#609);
#504=PLANE('',#610);
#505=PLANE('',#611);
#506=ADVANCED_FACE('',(#450),#480,.F.);
#507=ADVANCED_FACE('',(#451),#481,.T.);
#508=ADVANCED_FACE('',(#452),#482,.F.);
#509=ADVANCED_FACE('',(#453),#483,.F.);
#510=ADVANCED_FACE('',(#454),#484,.T.);
#511=ADVANCED_FACE('',(#455),#485,.T.);
#512=ADVANCED_FACE('',(#456),#16,.T.);
#513=ADVANCED_FACE('',(#457),#17,.T.);
#514=ADVANCED_FACE('',(#458),#18,.T.);
#515=ADVANCED_FACE('',(#459),#19,.T.);
#516=ADVANCED_FACE('',(#460),#486,.F.);
#517=ADVANCED_FACE('',(#461),#487,.T.);
#518=ADVANCED_FACE('',(#462),#488,.F.);
#519=ADVANCED_FACE('',(#463),#489,.T.);
#520=ADVANCED_FACE('',(#464),#490,.F.);
#521=ADVANCED_FACE('',(#465),#491,.T.);
#522=ADVANCED_FACE('',(#466),#492,.F.);
#523=ADVANCED_FACE('',(#467),#493,.F.);
#524=ADVANCED_FACE('',(#468),#494,.T.);
#525=ADVANCED_FACE('',(#469),#495,.F.);
#526=ADVANCED_FACE('',(#470),#496,.F.);
#527=ADVANCED_FACE('',(#471),#497,.T.);
#528=ADVANCED_FACE('',(#472),#498,.T.);
#529=ADVANCED_FACE('',(#473),#499,.F.);
#530=ADVANCED_FACE('',(#474),#500,.T.);
#531=ADVANCED_FACE('',(#475),#501,.F.);
#532=ADVANCED_FACE('',(#476),#502,.F.);
#533=ADVANCED_FACE('',(#477),#503,.T.);
#534=ADVANCED_FACE('',(#478),#504,.T.);
#535=ADVANCED_FACE('',(#479),#505,.F.);
#536=CLOSED_SHELL('',(#506,#507,#508,#509,#510,#511,#512,#513,#514,#515,
#516,#517,#518,#519,#520,#521,#522,#523));
#537=CLOSED_SHELL('',(#524,#525,#526,#527,#528,#529));
#538=CLOSED_SHELL('',(#530,#531,#532,#533,#534,#535));
#539=STYLED_ITEM('',(#542),#562);
#540=STYLED_ITEM('',(#543),#563);
#541=STYLED_ITEM('',(#544),#564);
#542=PRESENTATION_STYLE_ASSIGNMENT((#545));
#543=PRESENTATION_STYLE_ASSIGNMENT((#546));
#544=PRESENTATION_STYLE_ASSIGNMENT((#547));
#545=SURFACE_STYLE_USAGE(.BOTH.,#548);
#546=SURFACE_STYLE_USAGE(.BOTH.,#549);
#547=SURFACE_STYLE_USAGE(.BOTH.,#550);
#548=SURFACE_SIDE_STYLE('',(#551));
#549=SURFACE_SIDE_STYLE('',(#552));
#550=SURFACE_SIDE_STYLE('',(#553));
#551=SURFACE_STYLE_FILL_AREA(#554);
#552=SURFACE_STYLE_FILL_AREA(#555);
#553=SURFACE_STYLE_FILL_AREA(#556);
#554=FILL_AREA_STYLE('',(#557));
#555=FILL_AREA_STYLE('',(#558));
#556=FILL_AREA_STYLE('',(#559));
#557=FILL_AREA_STYLE_COLOUR('',#560);
#558=FILL_AREA_STYLE_COLOUR('',#561);
#559=FILL_AREA_STYLE_COLOUR('',#561);
#560=COLOUR_RGB('',0.901960784313726,0.901960784313726,0.901960784313726);
#561=COLOUR_RGB('',0.6,0.6,0.6);
#562=MANIFOLD_SOLID_BREP('Part 1',#536);
#563=MANIFOLD_SOLID_BREP('Part 3',#537);
#564=MANIFOLD_SOLID_BREP('Part 2',#538);
#565=SHAPE_DEFINITION_REPRESENTATION(#929,#568);
#566=SHAPE_DEFINITION_REPRESENTATION(#930,#569);
#567=SHAPE_DEFINITION_REPRESENTATION(#931,#570);
#568=SHAPE_REPRESENTATION('Part 1',(#571),#914);
#569=SHAPE_REPRESENTATION('Part 3',(#598),#915);
#570=SHAPE_REPRESENTATION('Part 2',(#605),#916);
#571=AXIS2_PLACEMENT_3D('',#758,#612,#613);
#572=AXIS2_PLACEMENT_3D('',#759,#614,#615);
#573=AXIS2_PLACEMENT_3D('',#765,#618,#619);
#574=AXIS2_PLACEMENT_3D('',#769,#621,#622);
#575=AXIS2_PLACEMENT_3D('',#781,#628,#629);
#576=AXIS2_PLACEMENT_3D('',#785,#631,#632);
#577=AXIS2_PLACEMENT_3D('',#792,#636,#637);
#578=AXIS2_PLACEMENT_3D('',#803,#644,#645);
#579=AXIS2_PLACEMENT_3D('',#809,#649,#650);
#580=AXIS2_PLACEMENT_3D('',#820,#657,#658);
#581=AXIS2_PLACEMENT_3D('',#826,#662,#663);
#582=AXIS2_PLACEMENT_3D('',#827,#664,#665);
#583=AXIS2_PLACEMENT_3D('',#828,#666,#667);
#584=AXIS2_PLACEMENT_3D('',#829,#668,#669);
#585=AXIS2_PLACEMENT_3D('',#830,#670,#671);
#586=AXIS2_PLACEMENT_3D('',#831,#672,#673);
#587=AXIS2_PLACEMENT_3D('',#832,#674,#675);
#588=AXIS2_PLACEMENT_3D('',#833,#676,#677);
#589=AXIS2_PLACEMENT_3D('',#834,#678,#679);
#590=AXIS2_PLACEMENT_3D('',#835,#680,#681);
#591=AXIS2_PLACEMENT_3D('',#839,#684,#685);
#592=AXIS2_PLACEMENT_3D('',#843,#688,#689);
#593=AXIS2_PLACEMENT_3D('',#845,#691,#692);
#594=AXIS2_PLACEMENT_3D('',#846,#693,#694);
#595=AXIS2_PLACEMENT_3D('',#850,#697,#698);
#596=AXIS2_PLACEMENT_3D('',#854,#701,#702);
#597=AXIS2_PLACEMENT_3D('',#856,#704,#705);
#598=AXIS2_PLACEMENT_3D('',#857,#706,#707);
#599=AXIS2_PLACEMENT_3D('',#858,#708,#709);
#600=AXIS2_PLACEMENT_3D('',#867,#714,#715);
#601=AXIS2_PLACEMENT_3D('',#873,#719,#720);
#602=AXIS2_PLACEMENT_3D('',#879,#724,#725);
#603=AXIS2_PLACEMENT_3D('',#882,#728,#729);
#604=AXIS2_PLACEMENT_3D('',#883,#730,#731);
#605=AXIS2_PLACEMENT_3D('',#884,#732,#733);
#606=AXIS2_PLACEMENT_3D('',#885,#734,#735);
#607=AXIS2_PLACEMENT_3D('',#894,#740,#741);
#608=AXIS2_PLACEMENT_3D('',#900,#745,#746);
#609=AXIS2_PLACEMENT_3D('',#906,#750,#751);
#610=AXIS2_PLACEMENT_3D('',#909,#754,#755);
#611=AXIS2_PLACEMENT_3D('',#910,#756,#757);
#612=DIRECTION('',(0.,0.,1.));
#613=DIRECTION('',(1.,0.,0.));
#614=DIRECTION('',(0.,0.,1.));
#615=DIRECTION('',(1.,0.,0.));
#616=DIRECTION('',(1.,0.,0.));
#617=DIRECTION('',(1.37676466347366E-16,1.,0.));
#618=DIRECTION('',(0.,0.,1.));
#619=DIRECTION('',(1.,0.,0.));
#620=DIRECTION('',(1.,-3.1426149927116E-16,0.));
#621=DIRECTION('',(0.,0.,1.));
#622=DIRECTION('',(1.,0.,0.));
#623=DIRECTION('',(1.37676466347366E-16,1.,0.));
#624=DIRECTION('',(1.,0.,0.));
#625=DIRECTION('',(2.34422091348218E-16,-1.,0.));
#626=DIRECTION('',(1.,0.,0.));
#627=DIRECTION('',(1.37676466347366E-16,1.,0.));
#628=DIRECTION('',(0.,0.,1.));
#629=DIRECTION('',(1.,0.,0.));
#630=DIRECTION('',(1.,-2.51409199416929E-16,0.));
#631=DIRECTION('',(0.,0.,1.));
#632=DIRECTION('',(1.,0.,0.));
#633=DIRECTION('',(1.37676466347366E-16,1.,0.));
#634=DIRECTION('',(1.,0.,0.));
#635=DIRECTION('',(-2.34422091348218E-16,-1.,0.));
#636=DIRECTION('',(-1.,1.37676466347366E-16,0.));
#637=DIRECTION('',(-1.37676466347366E-16,-1.,0.));
#638=DIRECTION('',(0.,0.,-1.));
#639=DIRECTION('',(1.37676466347366E-16,1.,0.));
#640=DIRECTION('',(0.,0.,-1.));
#641=DIRECTION('',(0.,0.,-1.));
#642=DIRECTION('',(1.37676466347366E-16,1.,0.));
#643=DIRECTION('',(0.,0.,-1.));
#644=DIRECTION('',(2.51409199416929E-16,1.,0.));
#645=DIRECTION('',(-1.,2.51409199416929E-16,0.));
#646=DIRECTION('',(0.,0.,-1.));
#647=DIRECTION('',(1.,-2.51409199416929E-16,0.));
#648=DIRECTION('',(0.,0.,-1.));
#649=DIRECTION('',(-1.,1.37676466347366E-16,0.));
#650=DIRECTION('',(-1.37676466347366E-16,-1.,0.));
#651=DIRECTION('',(1.37676466347366E-16,1.,0.));
#652=DIRECTION('',(0.,0.,-1.));
#653=DIRECTION('',(0.,0.,-1.));
#654=DIRECTION('',(1.37676466347366E-16,1.,0.));
#655=DIRECTION('',(0.,0.,-1.));
#656=DIRECTION('',(0.,0.,-1.));
#657=DIRECTION('',(3.1426149927116E-16,1.,0.));
#658=DIRECTION('',(-1.,3.1426149927116E-16,0.));
#659=DIRECTION('',(0.,0.,-1.));
#660=DIRECTION('',(1.,-3.1426149927116E-16,0.));
#661=DIRECTION('',(0.,0.,-1.));
#662=DIRECTION('',(0.,0.,1.));
#663=DIRECTION('',(1.,0.,0.));
#664=DIRECTION('',(0.,0.,1.));
#665=DIRECTION('',(1.,0.,0.));
#666=DIRECTION('',(0.,0.,1.));
#667=DIRECTION('',(1.,0.,0.));
#668=DIRECTION('',(0.,0.,1.));
#669=DIRECTION('',(1.,0.,0.));
#670=DIRECTION('',(0.,0.,1.));
#671=DIRECTION('',(1.,0.,0.));
#672=DIRECTION('',(0.,0.,-1.));
#673=DIRECTION('',(-1.,0.,0.));
#674=DIRECTION('',(0.,0.,1.));
#675=DIRECTION('',(1.,0.,0.));
#676=DIRECTION('',(0.,0.,-1.));
#677=DIRECTION('',(-1.,0.,0.));
#678=DIRECTION('',(0.,0.,1.));
#679=DIRECTION('',(1.,0.,0.));
#680=DIRECTION('',(0.,1.,0.));
#681=DIRECTION('',(0.,0.,1.));
#682=DIRECTION('',(1.,0.,0.));
#683=DIRECTION('',(0.,0.,-1.));
#684=DIRECTION('',(0.,1.,0.));
#685=DIRECTION('',(0.,0.,1.));
#686=DIRECTION('',(0.,0.,-1.));
#687=DIRECTION('',(1.,0.,0.));
#688=DIRECTION('',(0.,0.,1.));
#689=DIRECTION('',(1.,0.,0.));
#690=DIRECTION('',(2.34422091348218E-16,-1.,0.));
#691=DIRECTION('',(1.,2.34422091348218E-16,0.));
#692=DIRECTION('',(-2.34422091348218E-16,1.,0.));
#693=DIRECTION('',(0.,1.,0.));
#694=DIRECTION('',(0.,0.,1.));
#695=DIRECTION('',(0.,0.,-1.));
#696=DIRECTION('',(1.,0.,0.));
#697=DIRECTION('',(0.,1.,0.));
#698=DIRECTION('',(0.,0.,1.));
#699=DIRECTION('',(1.,0.,0.));
#700=DIRECTION('',(0.,0.,-1.));
#701=DIRECTION('',(1.,-2.34422091348218E-16,0.));
#702=DIRECTION('',(2.34422091348218E-16,1.,0.));
#703=DIRECTION('',(-2.34422091348218E-16,-1.,0.));
#704=DIRECTION('',(0.,0.,1.));
#705=DIRECTION('',(1.,0.,0.));
#706=DIRECTION('',(0.,0.,1.));
#707=DIRECTION('',(1.,0.,0.));
#708=DIRECTION('',(0.,1.,0.));
#709=DIRECTION('',(0.,0.,1.));
#710=DIRECTION('',(1.,0.,0.));
#711=DIRECTION('',(0.,0.,-1.));
#712=DIRECTION('',(1.,0.,0.));
#713=DIRECTION('',(0.,0.,-1.));
#714=DIRECTION('',(1.,2.34422091348218E-16,0.));
#715=DIRECTION('',(-2.34422091348218E-16,1.,0.));
#716=DIRECTION('',(2.34422091348218E-16,-1.,0.));
#717=DIRECTION('',(0.,0.,-1.));
#718=DIRECTION('',(2.34422091348218E-16,-1.,0.));
#719=DIRECTION('',(0.,1.,0.));
#720=DIRECTION('',(0.,0.,1.));
#721=DIRECTION('',(1.,0.,0.));
#722=DIRECTION('',(0.,0.,-1.));
#723=DIRECTION('',(1.,0.,0.));
#724=DIRECTION('',(1.,2.34422091348218E-16,0.));
#725=DIRECTION('',(-2.34422091348218E-16,1.,0.));
#726=DIRECTION('',(2.34422091348218E-16,-1.,0.));
#727=DIRECTION('',(2.34422091348218E-16,-1.,0.));
#728=DIRECTION('',(0.,0.,1.));
#729=DIRECTION('',(1.,0.,0.));
#730=DIRECTION('',(0.,0.,1.));
#731=DIRECTION('',(1.,0.,0.));
#732=DIRECTION('',(0.,0.,1.));
#733=DIRECTION('',(1.,0.,0.));
#734=DIRECTION('',(0.,1.,0.));
#735=DIRECTION('',(0.,0.,1.));
#736=DIRECTION('',(1.,0.,0.));
#737=DIRECTION('',(0.,0.,-1.));
#738=DIRECTION('',(1.,0.,0.));
#739=DIRECTION('',(0.,0.,-1.));
#740=DIRECTION('',(1.,-2.34422091348218E-16,0.));
#741=DIRECTION('',(2.34422091348218E-16,1.,0.));
#742=DIRECTION('',(-2.34422091348218E-16,-1.,0.));
#743=DIRECTION('',(0.,0.,-1.));
#744=DIRECTION('',(-2.34422091348218E-16,-1.,0.));
#745=DIRECTION('',(0.,1.,0.));
#746=DIRECTION('',(0.,0.,1.));
#747=DIRECTION('',(1.,0.,0.));
#748=DIRECTION('',(0.,0.,-1.));
#749=DIRECTION('',(1.,0.,0.));
#750=DIRECTION('',(1.,-2.34422091348218E-16,0.));
#751=DIRECTION('',(2.34422091348218E-16,1.,0.));
#752=DIRECTION('',(-2.34422091348218E-16,-1.,0.));
#753=DIRECTION('',(-2.34422091348218E-16,-1.,0.));
#754=DIRECTION('',(0.,0.,1.));
#755=DIRECTION('',(1.,0.,0.));
#756=DIRECTION('',(0.,0.,1.));
#757=DIRECTION('',(1.,0.,0.));
#758=CARTESIAN_POINT('',(0.,0.,0.));
#759=CARTESIAN_POINT('',(0.,1.7347234759768E-18,0.));
#760=CARTESIAN_POINT('',(-0.00595,0.00185,0.));
#761=CARTESIAN_POINT('',(-0.0069,0.00185,0.));
#762=CARTESIAN_POINT('',(-0.0046,0.00185,0.));
#763=CARTESIAN_POINT('',(-0.0069,-8.67361737988404E-19,0.));
#764=CARTESIAN_POINT('',(-0.0069,0.0053,0.));
#765=CARTESIAN_POINT('',(-0.0059,0.0053,0.));
#766=CARTESIAN_POINT('',(-0.0059,0.0063,0.));
#767=CARTESIAN_POINT('',(0.,0.0063,0.));
#768=CARTESIAN_POINT('',(0.0059,0.0063,0.));
#769=CARTESIAN_POINT('',(0.0059,0.0053,0.));
#770=CARTESIAN_POINT('',(0.0069,0.0053,0.));
#771=CARTESIAN_POINT('',(0.0069,8.67361737988404E-19,0.));
#772=CARTESIAN_POINT('',(0.0069,0.00185,0.));
#773=CARTESIAN_POINT('',(0.00595,0.00185,0.));
#774=CARTESIAN_POINT('',(0.0046,0.00185,0.));
#775=CARTESIAN_POINT('',(0.0046,4.33680868994202E-19,0.));
#776=CARTESIAN_POINT('',(0.0046,-0.00185,0.));
#777=CARTESIAN_POINT('',(0.00595,-0.00185,0.));
#778=CARTESIAN_POINT('',(0.0069,-0.00185,0.));
#779=CARTESIAN_POINT('',(0.0069,8.67361737988404E-19,0.));
#780=CARTESIAN_POINT('',(0.0069,-0.0053,0.));
#781=CARTESIAN_POINT('',(0.0059,-0.0053,0.));
#782=CARTESIAN_POINT('',(0.0059,-0.0063,0.));
#783=CARTESIAN_POINT('',(0.,-0.0063,0.));
#784=CARTESIAN_POINT('',(-0.0059,-0.0063,0.));
#785=CARTESIAN_POINT('',(-0.0059,-0.0053,0.));
#786=CARTESIAN_POINT('',(-0.0069,-0.0053,0.));
#787=CARTESIAN_POINT('',(-0.0069,-8.67361737988404E-19,0.));
#788=CARTESIAN_POINT('',(-0.0069,-0.00185,0.));
#789=CARTESIAN_POINT('',(-0.00595,-0.00185,0.));
#790=CARTESIAN_POINT('',(-0.0046,-0.00185,0.));
#791=CARTESIAN_POINT('',(-0.0046,0.,0.));
#792=CARTESIAN_POINT('',(-0.0069,-8.67361737988404E-19,0.0065));
#793=CARTESIAN_POINT('',(-0.0069,0.00185,0.0065));
#794=CARTESIAN_POINT('',(-0.0069,0.00185,0.004));
#795=CARTESIAN_POINT('',(-0.0069,-8.67361737988404E-19,0.004));
#796=CARTESIAN_POINT('',(-0.0069,-0.00185,0.004));
#797=CARTESIAN_POINT('',(-0.0069,-0.00185,0.0065));
#798=CARTESIAN_POINT('',(-0.0069,-0.0053,0.0065));
#799=CARTESIAN_POINT('',(-0.0069,-0.0053,0.0065));
#800=CARTESIAN_POINT('',(-0.0069,-8.67361737988404E-19,0.0065));
#801=CARTESIAN_POINT('',(-0.0069,0.0053,0.0065));
#802=CARTESIAN_POINT('',(-0.0069,0.0053,0.0065));
#803=CARTESIAN_POINT('',(0.,-0.0063,0.0065));
#804=CARTESIAN_POINT('',(0.0059,-0.0063,0.0065));
#805=CARTESIAN_POINT('',(0.0059,-0.0063,0.0065));
#806=CARTESIAN_POINT('',(0.,-0.0063,0.0065));
#807=CARTESIAN_POINT('',(-0.0059,-0.0063,0.0065));
#808=CARTESIAN_POINT('',(-0.0059,-0.0063,0.));
#809=CARTESIAN_POINT('',(0.0069,8.67361737988404E-19,0.0065));
#810=CARTESIAN_POINT('',(0.0069,8.67361737988404E-19,0.004));
#811=CARTESIAN_POINT('',(0.0069,-0.00185,0.004));
#812=CARTESIAN_POINT('',(0.0069,0.00185,0.004));
#813=CARTESIAN_POINT('',(0.0069,0.00185,0.0065));
#814=CARTESIAN_POINT('',(0.0069,0.0053,0.0065));
#815=CARTESIAN_POINT('',(0.0069,0.0053,0.0065));
#816=CARTESIAN_POINT('',(0.0069,8.67361737988404E-19,0.0065));
#817=CARTESIAN_POINT('',(0.0069,-0.0053,0.0065));
#818=CARTESIAN_POINT('',(0.0069,-0.0053,0.0065));
#819=CARTESIAN_POINT('',(0.0069,-0.00185,0.0065));
#820=CARTESIAN_POINT('',(0.,0.0063,0.0065));
#821=CARTESIAN_POINT('',(-0.0059,0.0063,0.0065));
#822=CARTESIAN_POINT('',(-0.0059,0.0063,0.0065));
#823=CARTESIAN_POINT('',(0.,0.0063,0.0065));
#824=CARTESIAN_POINT('',(0.0059,0.0063,0.0065));
#825=CARTESIAN_POINT('',(0.0059,0.0063,0.));
#826=CARTESIAN_POINT('',(0.,1.7347234759768E-18,0.0065));
#827=CARTESIAN_POINT('',(-0.0059,0.0053,0.0065));
#828=CARTESIAN_POINT('',(-0.0059,-0.0053,0.0065));
#829=CARTESIAN_POINT('',(0.0059,-0.0053,0.0065));
#830=CARTESIAN_POINT('',(0.0059,0.0053,0.0065));
#831=CARTESIAN_POINT('',(-0.0059,0.0053,0.0065));
#832=CARTESIAN_POINT('',(0.0059,0.0053,0.0065));
#833=CARTESIAN_POINT('',(0.0059,-0.0053,0.0065));
#834=CARTESIAN_POINT('',(-0.0059,-0.0053,0.0065));
#835=CARTESIAN_POINT('',(0.00595,0.00185,0.004));
#836=CARTESIAN_POINT('',(0.00595,0.00185,0.004));
#837=CARTESIAN_POINT('',(0.0046,0.00185,0.004));
#838=CARTESIAN_POINT('',(0.0046,0.00185,0.004));
#839=CARTESIAN_POINT('',(0.00595,-0.00185,0.004));
#840=CARTESIAN_POINT('',(0.0046,-0.00185,0.004));
#841=CARTESIAN_POINT('',(0.0046,-0.00185,0.004));
#842=CARTESIAN_POINT('',(0.00595,-0.00185,0.004));
#843=CARTESIAN_POINT('',(0.,1.7347234759768E-18,0.004));
#844=CARTESIAN_POINT('',(0.0046,4.33680868994202E-19,0.004));
#845=CARTESIAN_POINT('',(0.0046,4.33680868994202E-19,0.004));
#846=CARTESIAN_POINT('',(-0.00595,0.00185,0.004));
#847=CARTESIAN_POINT('',(-0.0046,0.00185,0.004));
#848=CARTESIAN_POINT('',(-0.0046,0.00185,0.004));
#849=CARTESIAN_POINT('',(-0.00595,0.00185,0.004));
#850=CARTESIAN_POINT('',(-0.00595,-0.00185,0.004));
#851=CARTESIAN_POINT('',(-0.00595,-0.00185,0.004));
#852=CARTESIAN_POINT('',(-0.0046,-0.00185,0.004));
#853=CARTESIAN_POINT('',(-0.0046,-0.00185,0.004));
#854=CARTESIAN_POINT('',(-0.0046,0.,0.004));
#855=CARTESIAN_POINT('',(-0.0046,0.,0.004));
#856=CARTESIAN_POINT('',(0.,1.7347234759768E-18,0.004));
#857=CARTESIAN_POINT('',(0.,0.,0.));
#858=CARTESIAN_POINT('',(0.00595,0.00185,0.004));
#859=CARTESIAN_POINT('',(0.00595,0.00185,0.));
#860=CARTESIAN_POINT('',(0.0046,0.00185,0.));
#861=CARTESIAN_POINT('',(0.0073,0.00185,0.));
#862=CARTESIAN_POINT('',(0.0046,0.00185,0.004));
#863=CARTESIAN_POINT('',(0.0046,0.00185,0.004));
#864=CARTESIAN_POINT('',(0.00595,0.00185,0.004));
#865=CARTESIAN_POINT('',(0.0073,0.00185,0.004));
#866=CARTESIAN_POINT('',(0.0073,0.00185,0.004));
#867=CARTESIAN_POINT('',(0.0046,4.33680868994202E-19,0.004));
#868=CARTESIAN_POINT('',(0.0046,4.33680868994202E-19,0.));
#869=CARTESIAN_POINT('',(0.0046,-0.00185,0.));
#870=CARTESIAN_POINT('',(0.0046,-0.00185,0.004));
#871=CARTESIAN_POINT('',(0.0046,-0.00185,0.004));
#872=CARTESIAN_POINT('',(0.0046,4.33680868994202E-19,0.004));
#873=CARTESIAN_POINT('',(0.00595,-0.00185,0.004));
#874=CARTESIAN_POINT('',(0.00595,-0.00185,0.));
#875=CARTESIAN_POINT('',(0.0073,-0.00185,0.));
#876=CARTESIAN_POINT('',(0.0073,-0.00185,0.004));
#877=CARTESIAN_POINT('',(0.0073,-0.00185,0.004));
#878=CARTESIAN_POINT('',(0.00595,-0.00185,0.004));
#879=CARTESIAN_POINT('',(0.0073,8.67361737988404E-19,0.004));
#880=CARTESIAN_POINT('',(0.0073,8.67361737988404E-19,0.));
#881=CARTESIAN_POINT('',(0.0073,8.67361737988404E-19,0.004));
#882=CARTESIAN_POINT('',(0.,1.7347234759768E-18,0.004));
#883=CARTESIAN_POINT('',(0.,1.7347234759768E-18,0.));
#884=CARTESIAN_POINT('',(0.,0.,0.));
#885=CARTESIAN_POINT('',(-0.00595,0.00185,0.004));
#886=CARTESIAN_POINT('',(-0.00595,0.00185,0.));
#887=CARTESIAN_POINT('',(-0.0073,0.00185,0.));
#888=CARTESIAN_POINT('',(-0.0046,0.00185,0.));
#889=CARTESIAN_POINT('',(-0.0073,0.00185,0.004));
#890=CARTESIAN_POINT('',(-0.0073,0.00185,0.004));
#891=CARTESIAN_POINT('',(-0.00595,0.00185,0.004));
#892=CARTESIAN_POINT('',(-0.0046,0.00185,0.004));
#893=CARTESIAN_POINT('',(-0.0046,0.00185,0.004));
#894=CARTESIAN_POINT('',(-0.0073,0.,0.004));
#895=CARTESIAN_POINT('',(-0.0073,0.,0.));
#896=CARTESIAN_POINT('',(-0.0073,-0.00185,0.));
#897=CARTESIAN_POINT('',(-0.0073,-0.00185,0.004));
#898=CARTESIAN_POINT('',(-0.0073,-0.00185,0.004));
#899=CARTESIAN_POINT('',(-0.0073,0.,0.004));
#900=CARTESIAN_POINT('',(-0.00595,-0.00185,0.004));
#901=CARTESIAN_POINT('',(-0.00595,-0.00185,0.));
#902=CARTESIAN_POINT('',(-0.0046,-0.00185,0.));
#903=CARTESIAN_POINT('',(-0.0046,-0.00185,0.004));
#904=CARTESIAN_POINT('',(-0.0046,-0.00185,0.004));
#905=CARTESIAN_POINT('',(-0.00595,-0.00185,0.004));
#906=CARTESIAN_POINT('',(-0.0046,0.,0.004));
#907=CARTESIAN_POINT('',(-0.0046,0.,0.));
#908=CARTESIAN_POINT('',(-0.0046,0.,0.004));
#909=CARTESIAN_POINT('',(0.,1.7347234759768E-18,0.004));
#910=CARTESIAN_POINT('',(0.,1.7347234759768E-18,0.));
#911=MECHANICAL_DESIGN_GEOMETRIC_PRESENTATION_REPRESENTATION('',(#539),
#914);
#912=MECHANICAL_DESIGN_GEOMETRIC_PRESENTATION_REPRESENTATION('',(#540),
#915);
#913=MECHANICAL_DESIGN_GEOMETRIC_PRESENTATION_REPRESENTATION('',(#541),
#916);
#914=(
GEOMETRIC_REPRESENTATION_CONTEXT(3)
GLOBAL_UNCERTAINTY_ASSIGNED_CONTEXT((#917))
GLOBAL_UNIT_ASSIGNED_CONTEXT((#926,#923,#920))
REPRESENTATION_CONTEXT('Part 1','TOP_LEVEL_ASSEMBLY_PART')
);
#915=(
GEOMETRIC_REPRESENTATION_CONTEXT(3)
GLOBAL_UNCERTAINTY_ASSIGNED_CONTEXT((#918))
GLOBAL_UNIT_ASSIGNED_CONTEXT((#927,#924,#921))
REPRESENTATION_CONTEXT('Part 3','TOP_LEVEL_ASSEMBLY_PART')
);
#916=(
GEOMETRIC_REPRESENTATION_CONTEXT(3)
GLOBAL_UNCERTAINTY_ASSIGNED_CONTEXT((#919))
GLOBAL_UNIT_ASSIGNED_CONTEXT((#928,#925,#922))
REPRESENTATION_CONTEXT('Part 2','TOP_LEVEL_ASSEMBLY_PART')
);
#917=UNCERTAINTY_MEASURE_WITH_UNIT(LENGTH_MEASURE(1.E-8),#926,
'DISTANCE_ACCURACY_VALUE','Maximum Tolerance applied to model');
#918=UNCERTAINTY_MEASURE_WITH_UNIT(LENGTH_MEASURE(1.E-8),#927,
'DISTANCE_ACCURACY_VALUE','Maximum Tolerance applied to model');
#919=UNCERTAINTY_MEASURE_WITH_UNIT(LENGTH_MEASURE(1.E-8),#928,
'DISTANCE_ACCURACY_VALUE','Maximum Tolerance applied to model');
#920=(
NAMED_UNIT(*)
SI_UNIT($,.STERADIAN.)
SOLID_ANGLE_UNIT()
);
#921=(
NAMED_UNIT(*)
SI_UNIT($,.STERADIAN.)
SOLID_ANGLE_UNIT()
);
#922=(
NAMED_UNIT(*)
SI_UNIT($,.STERADIAN.)
SOLID_ANGLE_UNIT()
);
#923=(
NAMED_UNIT(*)
PLANE_ANGLE_UNIT()
SI_UNIT($,.RADIAN.)
);
#924=(
NAMED_UNIT(*)
PLANE_ANGLE_UNIT()
SI_UNIT($,.RADIAN.)
);
#925=(
NAMED_UNIT(*)
PLANE_ANGLE_UNIT()
SI_UNIT($,.RADIAN.)
);
#926=(
LENGTH_UNIT()
NAMED_UNIT(*)
SI_UNIT($,.METRE.)
);
#927=(
LENGTH_UNIT()
NAMED_UNIT(*)
SI_UNIT($,.METRE.)
);
#928=(
LENGTH_UNIT()
NAMED_UNIT(*)
SI_UNIT($,.METRE.)
);
#929=PRODUCT_DEFINITION_SHAPE('','',#932);
#930=PRODUCT_DEFINITION_SHAPE('','',#933);
#931=PRODUCT_DEFINITION_SHAPE('','',#934);
#932=PRODUCT_DEFINITION('','',#938,#935);
#933=PRODUCT_DEFINITION('','',#939,#936);
#934=PRODUCT_DEFINITION('','',#940,#937);
#935=PRODUCT_DEFINITION_CONTEXT('',#956,'design');
#936=PRODUCT_DEFINITION_CONTEXT('',#957,'design');
#937=PRODUCT_DEFINITION_CONTEXT('',#958,'design');
#938=PRODUCT_DEFINITION_FORMATION_WITH_SPECIFIED_SOURCE('','',#944,
 .NOT_KNOWN.);
#939=PRODUCT_DEFINITION_FORMATION_WITH_SPECIFIED_SOURCE('','',#945,
 .NOT_KNOWN.);
#940=PRODUCT_DEFINITION_FORMATION_WITH_SPECIFIED_SOURCE('','',#946,
 .NOT_KNOWN.);
#941=PRODUCT_RELATED_PRODUCT_CATEGORY('','',(#944));
#942=PRODUCT_RELATED_PRODUCT_CATEGORY('','',(#945));
#943=PRODUCT_RELATED_PRODUCT_CATEGORY('','',(#946));
#944=PRODUCT('Part 1','Part 1','Part 1',(#950));
#945=PRODUCT('Part 3','Part 3','Part 3',(#951));
#946=PRODUCT('Part 2','Part 2','Part 2',(#952));
#947=PRODUCT_CATEGORY('','');
#948=PRODUCT_CATEGORY('','');
#949=PRODUCT_CATEGORY('','');
#950=PRODUCT_CONTEXT('',#956,'mechanical');
#951=PRODUCT_CONTEXT('',#957,'mechanical');
#952=PRODUCT_CONTEXT('',#958,'mechanical');
#953=APPLICATION_PROTOCOL_DEFINITION('international standard',
'ap242_managed_model_based_3d_engineering',2011,#956);
#954=APPLICATION_PROTOCOL_DEFINITION('international standard',
'ap242_managed_model_based_3d_engineering',2011,#957);
#955=APPLICATION_PROTOCOL_DEFINITION('international standard',
'ap242_managed_model_based_3d_engineering',2011,#958);
#956=APPLICATION_CONTEXT('managed model based 3d engineering');
#957=APPLICATION_CONTEXT('managed model based 3d engineering');
#958=APPLICATION_CONTEXT('managed model based 3d engineering');
ENDSEC;
END-ISO-10303-21;
