ISO-10303-21;
HEADER;
/* Generated by software containing ST-Developer
 * from STEP Tools, Inc. (www.steptools.com) 
 */
/* OPTION: using custom renumber hook */

FILE_DESCRIPTION(
/* description */ ('STEP AP242',
'CAx-IF Rec.Pracs.---Representation and Presentation of Product Manufa
cturing Information (PMI)---4.0---2014-10-13',
'CAx-IF Rec.Pracs.---3D Tessellated Geometry---0.4---2014-09-14','2;1',
'CAx-IF Rec.Pracs.---User Defined Attributes---1.5---2016-08-15'),
/* implementation_level */ '2;1');

FILE_NAME(
/* name */ '69065cd2ee2a6d5daf038c63',
/* time_stamp */ '2025-11-01T19:17:39Z',
/* author */ (''),
/* organization */ (''),
/* preprocessor_version */ 'ST-DEVELOPER v20',
/* originating_system */ 'ONSHAPE BY PTC INC, 1.206',
/* authorisation */ '  ');

FILE_SCHEMA (('AP242_MANAGED_MODEL_BASED_3D_ENGINEERING_MIM_LF { 1 0 10303 442 1 1 4 }'));
ENDSEC;

DATA;
#10=SHAPE_REPRESENTATION_RELATIONSHIP('','',#813,#11);
#11=ADVANCED_BREP_SHAPE_REPRESENTATION('',(#811),#1345);
#12=PLANE('',#825);
#13=PLANE('',#830);
#14=PLANE('',#831);
#15=PLANE('',#832);
#16=PLANE('',#836);
#17=PLANE('',#837);
#18=PLANE('',#838);
#19=PLANE('',#841);
#20=PLANE('',#842);
#21=PLANE('',#845);
#22=PLANE('',#848);
#23=PLANE('',#849);
#24=PLANE('',#850);
#25=PLANE('',#851);
#26=PLANE('',#852);
#27=PLANE('',#853);
#28=PLANE('',#854);
#29=PLANE('',#855);
#30=PLANE('',#856);
#31=PLANE('',#857);
#32=PLANE('',#858);
#33=PLANE('',#859);
#34=PLANE('',#860);
#35=PLANE('',#861);
#36=PLANE('',#863);
#37=PLANE('',#864);
#38=PLANE('',#865);
#39=PLANE('',#867);
#40=PLANE('',#868);
#41=PLANE('',#869);
#42=PLANE('',#871);
#43=PLANE('',#872);
#44=PLANE('',#873);
#45=PLANE('',#875);
#46=PLANE('',#876);
#47=PLANE('',#877);
#48=PLANE('',#880);
#49=PLANE('',#883);
#50=PLANE('',#886);
#51=CIRCLE('',#816,0.0129126983722084);
#52=CIRCLE('',#817,0.0129126983722084);
#53=CIRCLE('',#818,0.0129126983722084);
#54=CIRCLE('',#819,0.0129126983722084);
#55=CIRCLE('',#821,0.0129126983722084);
#56=CIRCLE('',#822,0.0129126983722084);
#57=CIRCLE('',#823,0.0129126983722084);
#58=CIRCLE('',#824,0.0129126983722084);
#59=CIRCLE('',#826,0.0129126983722084);
#60=CIRCLE('',#827,0.0129126983722084);
#61=CIRCLE('',#828,0.0129126983722084);
#62=CIRCLE('',#829,0.0129126983722084);
#63=CIRCLE('',#834,0.0156);
#64=CIRCLE('',#835,0.0156);
#65=CIRCLE('',#839,0.0129126983722084);
#66=CIRCLE('',#840,0.0129126983722084);
#67=CIRCLE('',#844,0.0129126983722084);
#68=CIRCLE('',#847,0.0129126983722084);
#69=CIRCLE('',#862,0.00115);
#70=CIRCLE('',#866,0.00115);
#71=CIRCLE('',#870,0.00115);
#72=CIRCLE('',#874,0.00115);
#73=CIRCLE('',#878,0.00115);
#74=CIRCLE('',#881,0.00115);
#75=CIRCLE('',#884,0.00115);
#76=CIRCLE('',#887,0.00115);
#77=ORIENTED_EDGE('',*,*,#289,.F.);
#78=ORIENTED_EDGE('',*,*,#290,.F.);
#79=ORIENTED_EDGE('',*,*,#291,.T.);
#80=ORIENTED_EDGE('',*,*,#292,.F.);
#81=ORIENTED_EDGE('',*,*,#293,.T.);
#82=ORIENTED_EDGE('',*,*,#294,.T.);
#83=ORIENTED_EDGE('',*,*,#295,.F.);
#84=ORIENTED_EDGE('',*,*,#296,.F.);
#85=ORIENTED_EDGE('',*,*,#297,.F.);
#86=ORIENTED_EDGE('',*,*,#298,.F.);
#87=ORIENTED_EDGE('',*,*,#299,.T.);
#88=ORIENTED_EDGE('',*,*,#300,.T.);
#89=ORIENTED_EDGE('',*,*,#301,.F.);
#90=ORIENTED_EDGE('',*,*,#302,.F.);
#91=ORIENTED_EDGE('',*,*,#303,.F.);
#92=ORIENTED_EDGE('',*,*,#304,.F.);
#93=ORIENTED_EDGE('',*,*,#305,.F.);
#94=ORIENTED_EDGE('',*,*,#306,.T.);
#95=ORIENTED_EDGE('',*,*,#307,.T.);
#96=ORIENTED_EDGE('',*,*,#308,.T.);
#97=ORIENTED_EDGE('',*,*,#309,.T.);
#98=ORIENTED_EDGE('',*,*,#310,.T.);
#99=ORIENTED_EDGE('',*,*,#311,.F.);
#100=ORIENTED_EDGE('',*,*,#312,.T.);
#101=ORIENTED_EDGE('',*,*,#313,.F.);
#102=ORIENTED_EDGE('',*,*,#314,.T.);
#103=ORIENTED_EDGE('',*,*,#296,.T.);
#104=ORIENTED_EDGE('',*,*,#315,.T.);
#105=ORIENTED_EDGE('',*,*,#298,.T.);
#106=ORIENTED_EDGE('',*,*,#316,.T.);
#107=ORIENTED_EDGE('',*,*,#317,.T.);
#108=ORIENTED_EDGE('',*,*,#302,.T.);
#109=ORIENTED_EDGE('',*,*,#318,.T.);
#110=ORIENTED_EDGE('',*,*,#319,.T.);
#111=ORIENTED_EDGE('',*,*,#320,.T.);
#112=ORIENTED_EDGE('',*,*,#321,.F.);
#113=ORIENTED_EDGE('',*,*,#322,.T.);
#114=ORIENTED_EDGE('',*,*,#323,.T.);
#115=ORIENTED_EDGE('',*,*,#324,.T.);
#116=ORIENTED_EDGE('',*,*,#325,.F.);
#117=ORIENTED_EDGE('',*,*,#326,.F.);
#118=ORIENTED_EDGE('',*,*,#327,.T.);
#119=ORIENTED_EDGE('',*,*,#328,.T.);
#120=ORIENTED_EDGE('',*,*,#292,.T.);
#121=ORIENTED_EDGE('',*,*,#309,.F.);
#122=ORIENTED_EDGE('',*,*,#329,.T.);
#123=ORIENTED_EDGE('',*,*,#330,.T.);
#124=ORIENTED_EDGE('',*,*,#331,.T.);
#125=ORIENTED_EDGE('',*,*,#332,.T.);
#126=ORIENTED_EDGE('',*,*,#333,.T.);
#127=ORIENTED_EDGE('',*,*,#311,.T.);
#128=ORIENTED_EDGE('',*,*,#334,.T.);
#129=ORIENTED_EDGE('',*,*,#335,.T.);
#130=ORIENTED_EDGE('',*,*,#336,.T.);
#131=ORIENTED_EDGE('',*,*,#305,.T.);
#132=ORIENTED_EDGE('',*,*,#337,.T.);
#133=ORIENTED_EDGE('',*,*,#338,.F.);
#134=ORIENTED_EDGE('',*,*,#339,.T.);
#135=ORIENTED_EDGE('',*,*,#307,.F.);
#136=ORIENTED_EDGE('',*,*,#340,.T.);
#137=ORIENTED_EDGE('',*,*,#341,.T.);
#138=ORIENTED_EDGE('',*,*,#342,.T.);
#139=ORIENTED_EDGE('',*,*,#343,.T.);
#140=ORIENTED_EDGE('',*,*,#344,.T.);
#141=ORIENTED_EDGE('',*,*,#345,.T.);
#142=ORIENTED_EDGE('',*,*,#346,.T.);
#143=ORIENTED_EDGE('',*,*,#338,.T.);
#144=ORIENTED_EDGE('',*,*,#294,.F.);
#145=ORIENTED_EDGE('',*,*,#347,.F.);
#146=ORIENTED_EDGE('',*,*,#348,.F.);
#147=ORIENTED_EDGE('',*,*,#349,.F.);
#148=ORIENTED_EDGE('',*,*,#350,.F.);
#149=ORIENTED_EDGE('',*,*,#351,.F.);
#150=ORIENTED_EDGE('',*,*,#300,.F.);
#151=ORIENTED_EDGE('',*,*,#352,.F.);
#152=ORIENTED_EDGE('',*,*,#339,.F.);
#153=ORIENTED_EDGE('',*,*,#352,.T.);
#154=ORIENTED_EDGE('',*,*,#299,.F.);
#155=ORIENTED_EDGE('',*,*,#315,.F.);
#156=ORIENTED_EDGE('',*,*,#295,.T.);
#157=ORIENTED_EDGE('',*,*,#351,.T.);
#158=ORIENTED_EDGE('',*,*,#353,.F.);
#159=ORIENTED_EDGE('',*,*,#318,.F.);
#160=ORIENTED_EDGE('',*,*,#301,.T.);
#161=ORIENTED_EDGE('',*,*,#322,.F.);
#162=ORIENTED_EDGE('',*,*,#354,.T.);
#163=ORIENTED_EDGE('',*,*,#355,.F.);
#164=ORIENTED_EDGE('',*,*,#356,.F.);
#165=ORIENTED_EDGE('',*,*,#319,.F.);
#166=ORIENTED_EDGE('',*,*,#353,.T.);
#167=ORIENTED_EDGE('',*,*,#350,.T.);
#168=ORIENTED_EDGE('',*,*,#357,.F.);
#169=ORIENTED_EDGE('',*,*,#349,.T.);
#170=ORIENTED_EDGE('',*,*,#358,.F.);
#171=ORIENTED_EDGE('',*,*,#323,.F.);
#172=ORIENTED_EDGE('',*,*,#357,.T.);
#173=ORIENTED_EDGE('',*,*,#327,.F.);
#174=ORIENTED_EDGE('',*,*,#359,.T.);
#175=ORIENTED_EDGE('',*,*,#360,.F.);
#176=ORIENTED_EDGE('',*,*,#361,.T.);
#177=ORIENTED_EDGE('',*,*,#324,.F.);
#178=ORIENTED_EDGE('',*,*,#358,.T.);
#179=ORIENTED_EDGE('',*,*,#348,.T.);
#180=ORIENTED_EDGE('',*,*,#362,.F.);
#181=ORIENTED_EDGE('',*,*,#347,.T.);
#182=ORIENTED_EDGE('',*,*,#293,.F.);
#183=ORIENTED_EDGE('',*,*,#328,.F.);
#184=ORIENTED_EDGE('',*,*,#362,.T.);
#185=ORIENTED_EDGE('',*,*,#363,.F.);
#186=ORIENTED_EDGE('',*,*,#334,.F.);
#187=ORIENTED_EDGE('',*,*,#310,.F.);
#188=ORIENTED_EDGE('',*,*,#331,.F.);
#189=ORIENTED_EDGE('',*,*,#364,.F.);
#190=ORIENTED_EDGE('',*,*,#363,.T.);
#191=ORIENTED_EDGE('',*,*,#365,.F.);
#192=ORIENTED_EDGE('',*,*,#308,.F.);
#193=ORIENTED_EDGE('',*,*,#342,.F.);
#194=ORIENTED_EDGE('',*,*,#366,.F.);
#195=ORIENTED_EDGE('',*,*,#329,.F.);
#196=ORIENTED_EDGE('',*,*,#365,.T.);
#197=ORIENTED_EDGE('',*,*,#330,.F.);
#198=ORIENTED_EDGE('',*,*,#367,.F.);
#199=ORIENTED_EDGE('',*,*,#346,.F.);
#200=ORIENTED_EDGE('',*,*,#364,.T.);
#201=ORIENTED_EDGE('',*,*,#345,.F.);
#202=ORIENTED_EDGE('',*,*,#368,.F.);
#203=ORIENTED_EDGE('',*,*,#332,.F.);
#204=ORIENTED_EDGE('',*,*,#312,.F.);
#205=ORIENTED_EDGE('',*,*,#333,.F.);
#206=ORIENTED_EDGE('',*,*,#369,.F.);
#207=ORIENTED_EDGE('',*,*,#337,.F.);
#208=ORIENTED_EDGE('',*,*,#367,.T.);
#209=ORIENTED_EDGE('',*,*,#366,.T.);
#210=ORIENTED_EDGE('',*,*,#370,.F.);
#211=ORIENTED_EDGE('',*,*,#369,.T.);
#212=ORIENTED_EDGE('',*,*,#368,.T.);
#213=ORIENTED_EDGE('',*,*,#371,.F.);
#214=ORIENTED_EDGE('',*,*,#370,.T.);
#215=ORIENTED_EDGE('',*,*,#341,.F.);
#216=ORIENTED_EDGE('',*,*,#372,.F.);
#217=ORIENTED_EDGE('',*,*,#343,.F.);
#218=ORIENTED_EDGE('',*,*,#371,.T.);
#219=ORIENTED_EDGE('',*,*,#344,.F.);
#220=ORIENTED_EDGE('',*,*,#373,.F.);
#221=ORIENTED_EDGE('',*,*,#335,.F.);
#222=ORIENTED_EDGE('',*,*,#373,.T.);
#223=ORIENTED_EDGE('',*,*,#372,.T.);
#224=ORIENTED_EDGE('',*,*,#374,.F.);
#225=ORIENTED_EDGE('',*,*,#374,.T.);
#226=ORIENTED_EDGE('',*,*,#340,.F.);
#227=ORIENTED_EDGE('',*,*,#306,.F.);
#228=ORIENTED_EDGE('',*,*,#336,.F.);
#229=ORIENTED_EDGE('',*,*,#375,.F.);
#230=ORIENTED_EDGE('',*,*,#304,.T.);
#231=ORIENTED_EDGE('',*,*,#376,.F.);
#232=ORIENTED_EDGE('',*,*,#377,.F.);
#233=ORIENTED_EDGE('',*,*,#303,.T.);
#234=ORIENTED_EDGE('',*,*,#317,.F.);
#235=ORIENTED_EDGE('',*,*,#378,.F.);
#236=ORIENTED_EDGE('',*,*,#376,.T.);
#237=ORIENTED_EDGE('',*,*,#297,.T.);
#238=ORIENTED_EDGE('',*,*,#377,.T.);
#239=ORIENTED_EDGE('',*,*,#378,.T.);
#240=ORIENTED_EDGE('',*,*,#316,.F.);
#241=ORIENTED_EDGE('',*,*,#379,.F.);
#242=ORIENTED_EDGE('',*,*,#355,.T.);
#243=ORIENTED_EDGE('',*,*,#380,.T.);
#244=ORIENTED_EDGE('',*,*,#381,.F.);
#245=ORIENTED_EDGE('',*,*,#356,.T.);
#246=ORIENTED_EDGE('',*,*,#381,.T.);
#247=ORIENTED_EDGE('',*,*,#382,.T.);
#248=ORIENTED_EDGE('',*,*,#320,.F.);
#249=ORIENTED_EDGE('',*,*,#321,.T.);
#250=ORIENTED_EDGE('',*,*,#382,.F.);
#251=ORIENTED_EDGE('',*,*,#380,.F.);
#252=ORIENTED_EDGE('',*,*,#354,.F.);
#253=ORIENTED_EDGE('',*,*,#383,.F.);
#254=ORIENTED_EDGE('',*,*,#290,.T.);
#255=ORIENTED_EDGE('',*,*,#384,.F.);
#256=ORIENTED_EDGE('',*,*,#385,.T.);
#257=ORIENTED_EDGE('',*,*,#385,.F.);
#258=ORIENTED_EDGE('',*,*,#386,.T.);
#259=ORIENTED_EDGE('',*,*,#313,.T.);
#260=ORIENTED_EDGE('',*,*,#291,.F.);
#261=ORIENTED_EDGE('',*,*,#289,.T.);
#262=ORIENTED_EDGE('',*,*,#314,.F.);
#263=ORIENTED_EDGE('',*,*,#386,.F.);
#264=ORIENTED_EDGE('',*,*,#384,.T.);
#265=ORIENTED_EDGE('',*,*,#387,.F.);
#266=ORIENTED_EDGE('',*,*,#360,.T.);
#267=ORIENTED_EDGE('',*,*,#388,.T.);
#268=ORIENTED_EDGE('',*,*,#389,.T.);
#269=ORIENTED_EDGE('',*,*,#326,.T.);
#270=ORIENTED_EDGE('',*,*,#390,.F.);
#271=ORIENTED_EDGE('',*,*,#388,.F.);
#272=ORIENTED_EDGE('',*,*,#359,.F.);
#273=ORIENTED_EDGE('',*,*,#389,.F.);
#274=ORIENTED_EDGE('',*,*,#390,.T.);
#275=ORIENTED_EDGE('',*,*,#325,.T.);
#276=ORIENTED_EDGE('',*,*,#361,.F.);
#277=ORIENTED_EDGE('',*,*,#391,.T.);
#278=ORIENTED_EDGE('',*,*,#391,.F.);
#279=ORIENTED_EDGE('',*,*,#375,.T.);
#280=ORIENTED_EDGE('',*,*,#392,.T.);
#281=ORIENTED_EDGE('',*,*,#392,.F.);
#282=ORIENTED_EDGE('',*,*,#379,.T.);
#283=ORIENTED_EDGE('',*,*,#393,.T.);
#284=ORIENTED_EDGE('',*,*,#393,.F.);
#285=ORIENTED_EDGE('',*,*,#383,.T.);
#286=ORIENTED_EDGE('',*,*,#394,.T.);
#287=ORIENTED_EDGE('',*,*,#394,.F.);
#288=ORIENTED_EDGE('',*,*,#387,.T.);
#289=EDGE_CURVE('',#395,#396,#465,.F.);
#290=EDGE_CURVE('',#397,#395,#51,.T.);
#291=EDGE_CURVE('',#397,#398,#466,.F.);
#292=EDGE_CURVE('',#399,#398,#52,.T.);
#293=EDGE_CURVE('',#399,#400,#467,.T.);
#294=EDGE_CURVE('',#400,#401,#53,.T.);
#295=EDGE_CURVE('',#402,#401,#468,.T.);
#296=EDGE_CURVE('',#396,#402,#54,.T.);
#297=EDGE_CURVE('',#403,#404,#469,.T.);
#298=EDGE_CURVE('',#405,#403,#55,.T.);
#299=EDGE_CURVE('',#405,#406,#470,.T.);
#300=EDGE_CURVE('',#406,#407,#56,.T.);
#301=EDGE_CURVE('',#408,#407,#471,.T.);
#302=EDGE_CURVE('',#409,#408,#57,.T.);
#303=EDGE_CURVE('',#410,#409,#472,.F.);
#304=EDGE_CURVE('',#404,#410,#58,.T.);
#305=EDGE_CURVE('',#411,#412,#473,.T.);
#306=EDGE_CURVE('',#411,#413,#474,.T.);
#307=EDGE_CURVE('',#413,#414,#475,.T.);
#308=EDGE_CURVE('',#414,#415,#476,.F.);
#309=EDGE_CURVE('',#415,#416,#477,.T.);
#310=EDGE_CURVE('',#416,#417,#478,.T.);
#311=EDGE_CURVE('',#418,#417,#479,.T.);
#312=EDGE_CURVE('',#418,#412,#480,.F.);
#313=EDGE_CURVE('',#419,#398,#481,.T.);
#314=EDGE_CURVE('',#419,#396,#482,.T.);
#315=EDGE_CURVE('',#402,#405,#483,.T.);
#316=EDGE_CURVE('',#403,#420,#484,.T.);
#317=EDGE_CURVE('',#420,#409,#485,.T.);
#318=EDGE_CURVE('',#408,#421,#486,.T.);
#319=EDGE_CURVE('',#421,#422,#59,.T.);
#320=EDGE_CURVE('',#422,#423,#487,.T.);
#321=EDGE_CURVE('',#424,#423,#488,.T.);
#322=EDGE_CURVE('',#424,#425,#60,.T.);
#323=EDGE_CURVE('',#425,#426,#489,.T.);
#324=EDGE_CURVE('',#426,#427,#61,.T.);
#325=EDGE_CURVE('',#428,#427,#490,.T.);
#326=EDGE_CURVE('',#429,#428,#491,.T.);
#327=EDGE_CURVE('',#429,#430,#62,.T.);
#328=EDGE_CURVE('',#430,#399,#492,.T.);
#329=EDGE_CURVE('',#415,#431,#493,.T.);
#330=EDGE_CURVE('',#431,#432,#494,.T.);
#331=EDGE_CURVE('',#432,#416,#495,.T.);
#332=EDGE_CURVE('',#433,#434,#496,.T.);
#333=EDGE_CURVE('',#434,#418,#497,.T.);
#334=EDGE_CURVE('',#417,#433,#498,.T.);
#335=EDGE_CURVE('',#435,#436,#499,.T.);
#336=EDGE_CURVE('',#436,#411,#500,.T.);
#337=EDGE_CURVE('',#412,#435,#501,.T.);
#338=EDGE_CURVE('',#437,#437,#63,.T.);
#339=EDGE_CURVE('',#438,#438,#64,.T.);
#340=EDGE_CURVE('',#413,#439,#502,.T.);
#341=EDGE_CURVE('',#439,#440,#503,.T.);
#342=EDGE_CURVE('',#440,#414,#504,.T.);
#343=EDGE_CURVE('',#441,#442,#505,.T.);
#344=EDGE_CURVE('',#442,#443,#506,.T.);
#345=EDGE_CURVE('',#443,#444,#507,.T.);
#346=EDGE_CURVE('',#444,#441,#508,.T.);
#347=EDGE_CURVE('',#445,#400,#509,.T.);
#348=EDGE_CURVE('',#446,#445,#65,.T.);
#349=EDGE_CURVE('',#447,#446,#510,.T.);
#350=EDGE_CURVE('',#448,#447,#66,.T.);
#351=EDGE_CURVE('',#407,#448,#511,.T.);
#352=EDGE_CURVE('',#401,#406,#512,.T.);
#353=EDGE_CURVE('',#421,#448,#513,.T.);
#354=EDGE_CURVE('',#424,#449,#514,.T.);
#355=EDGE_CURVE('',#450,#449,#67,.T.);
#356=EDGE_CURVE('',#422,#450,#515,.T.);
#357=EDGE_CURVE('',#425,#447,#516,.T.);
#358=EDGE_CURVE('',#426,#446,#517,.T.);
#359=EDGE_CURVE('',#429,#451,#518,.T.);
#360=EDGE_CURVE('',#452,#451,#68,.T.);
#361=EDGE_CURVE('',#452,#427,#519,.F.);
#362=EDGE_CURVE('',#430,#445,#520,.T.);
#363=EDGE_CURVE('',#433,#432,#521,.T.);
#364=EDGE_CURVE('',#433,#444,#522,.F.);
#365=EDGE_CURVE('',#444,#432,#523,.T.);
#366=EDGE_CURVE('',#431,#440,#524,.F.);
#367=EDGE_CURVE('',#441,#431,#525,.F.);
#368=EDGE_CURVE('',#434,#443,#526,.T.);
#369=EDGE_CURVE('',#435,#434,#527,.F.);
#370=EDGE_CURVE('',#441,#440,#528,.T.);
#371=EDGE_CURVE('',#435,#443,#529,.F.);
#372=EDGE_CURVE('',#442,#439,#530,.F.);
#373=EDGE_CURVE('',#436,#442,#531,.T.);
#374=EDGE_CURVE('',#436,#439,#532,.F.);
#375=EDGE_CURVE('',#453,#453,#69,.T.);
#376=EDGE_CURVE('',#454,#410,#533,.T.);
#377=EDGE_CURVE('',#404,#454,#534,.T.);
#378=EDGE_CURVE('',#454,#420,#535,.T.);
#379=EDGE_CURVE('',#455,#455,#70,.T.);
#380=EDGE_CURVE('',#449,#456,#536,.T.);
#381=EDGE_CURVE('',#450,#456,#537,.T.);
#382=EDGE_CURVE('',#456,#423,#538,.T.);
#383=EDGE_CURVE('',#457,#457,#71,.T.);
#384=EDGE_CURVE('',#458,#395,#539,.T.);
#385=EDGE_CURVE('',#458,#397,#540,.T.);
#386=EDGE_CURVE('',#458,#419,#541,.T.);
#387=EDGE_CURVE('',#459,#459,#72,.T.);
#388=EDGE_CURVE('',#451,#460,#542,.T.);
#389=EDGE_CURVE('',#460,#452,#543,.T.);
#390=EDGE_CURVE('',#460,#428,#544,.T.);
#391=EDGE_CURVE('',#461,#461,#73,.T.);
#392=EDGE_CURVE('',#462,#462,#74,.T.);
#393=EDGE_CURVE('',#463,#463,#75,.T.);
#394=EDGE_CURVE('',#464,#464,#76,.T.);
#395=VERTEX_POINT('',#1122);
#396=VERTEX_POINT('',#1123);
#397=VERTEX_POINT('',#1125);
#398=VERTEX_POINT('',#1127);
#399=VERTEX_POINT('',#1129);
#400=VERTEX_POINT('',#1131);
#401=VERTEX_POINT('',#1133);
#402=VERTEX_POINT('',#1135);
#403=VERTEX_POINT('',#1139);
#404=VERTEX_POINT('',#1140);
#405=VERTEX_POINT('',#1142);
#406=VERTEX_POINT('',#1144);
#407=VERTEX_POINT('',#1146);
#408=VERTEX_POINT('',#1148);
#409=VERTEX_POINT('',#1150);
#410=VERTEX_POINT('',#1152);
#411=VERTEX_POINT('',#1156);
#412=VERTEX_POINT('',#1157);
#413=VERTEX_POINT('',#1159);
#414=VERTEX_POINT('',#1161);
#415=VERTEX_POINT('',#1163);
#416=VERTEX_POINT('',#1165);
#417=VERTEX_POINT('',#1167);
#418=VERTEX_POINT('',#1169);
#419=VERTEX_POINT('',#1172);
#420=VERTEX_POINT('',#1176);
#421=VERTEX_POINT('',#1179);
#422=VERTEX_POINT('',#1181);
#423=VERTEX_POINT('',#1183);
#424=VERTEX_POINT('',#1185);
#425=VERTEX_POINT('',#1187);
#426=VERTEX_POINT('',#1189);
#427=VERTEX_POINT('',#1191);
#428=VERTEX_POINT('',#1193);
#429=VERTEX_POINT('',#1195);
#430=VERTEX_POINT('',#1197);
#431=VERTEX_POINT('',#1201);
#432=VERTEX_POINT('',#1203);
#433=VERTEX_POINT('',#1207);
#434=VERTEX_POINT('',#1208);
#435=VERTEX_POINT('',#1213);
#436=VERTEX_POINT('',#1214);
#437=VERTEX_POINT('',#1219);
#438=VERTEX_POINT('',#1221);
#439=VERTEX_POINT('',#1224);
#440=VERTEX_POINT('',#1226);
#441=VERTEX_POINT('',#1230);
#442=VERTEX_POINT('',#1231);
#443=VERTEX_POINT('',#1233);
#444=VERTEX_POINT('',#1235);
#445=VERTEX_POINT('',#1239);
#446=VERTEX_POINT('',#1241);
#447=VERTEX_POINT('',#1243);
#448=VERTEX_POINT('',#1245);
#449=VERTEX_POINT('',#1253);
#450=VERTEX_POINT('',#1255);
#451=VERTEX_POINT('',#1262);
#452=VERTEX_POINT('',#1264);
#453=VERTEX_POINT('',#1294);
#454=VERTEX_POINT('',#1296);
#455=VERTEX_POINT('',#1303);
#456=VERTEX_POINT('',#1305);
#457=VERTEX_POINT('',#1312);
#458=VERTEX_POINT('',#1314);
#459=VERTEX_POINT('',#1321);
#460=VERTEX_POINT('',#1323);
#461=VERTEX_POINT('',#1330);
#462=VERTEX_POINT('',#1334);
#463=VERTEX_POINT('',#1338);
#464=VERTEX_POINT('',#1342);
#465=LINE('',#1121,#545);
#466=LINE('',#1126,#546);
#467=LINE('',#1130,#547);
#468=LINE('',#1134,#548);
#469=LINE('',#1138,#549);
#470=LINE('',#1143,#550);
#471=LINE('',#1147,#551);
#472=LINE('',#1151,#552);
#473=LINE('',#1155,#553);
#474=LINE('',#1158,#554);
#475=LINE('',#1160,#555);
#476=LINE('',#1162,#556);
#477=LINE('',#1164,#557);
#478=LINE('',#1166,#558);
#479=LINE('',#1168,#559);
#480=LINE('',#1170,#560);
#481=LINE('',#1171,#561);
#482=LINE('',#1173,#562);
#483=LINE('',#1174,#563);
#484=LINE('',#1175,#564);
#485=LINE('',#1177,#565);
#486=LINE('',#1178,#566);
#487=LINE('',#1182,#567);
#488=LINE('',#1184,#568);
#489=LINE('',#1188,#569);
#490=LINE('',#1192,#570);
#491=LINE('',#1194,#571);
#492=LINE('',#1198,#572);
#493=LINE('',#1200,#573);
#494=LINE('',#1202,#574);
#495=LINE('',#1204,#575);
#496=LINE('',#1206,#576);
#497=LINE('',#1209,#577);
#498=LINE('',#1210,#578);
#499=LINE('',#1212,#579);
#500=LINE('',#1215,#580);
#501=LINE('',#1216,#581);
#502=LINE('',#1223,#582);
#503=LINE('',#1225,#583);
#504=LINE('',#1227,#584);
#505=LINE('',#1229,#585);
#506=LINE('',#1232,#586);
#507=LINE('',#1234,#587);
#508=LINE('',#1236,#588);
#509=LINE('',#1238,#589);
#510=LINE('',#1242,#590);
#511=LINE('',#1246,#591);
#512=LINE('',#1247,#592);
#513=LINE('',#1250,#593);
#514=LINE('',#1252,#594);
#515=LINE('',#1256,#595);
#516=LINE('',#1257,#596);
#517=LINE('',#1259,#597);
#518=LINE('',#1261,#598);
#519=LINE('',#1265,#599);
#520=LINE('',#1266,#600);
#521=LINE('',#1269,#601);
#522=LINE('',#1271,#602);
#523=LINE('',#1272,#603);
#524=LINE('',#1274,#604);
#525=LINE('',#1276,#605);
#526=LINE('',#1278,#606);
#527=LINE('',#1280,#607);
#528=LINE('',#1282,#608);
#529=LINE('',#1284,#609);
#530=LINE('',#1286,#610);
#531=LINE('',#1288,#611);
#532=LINE('',#1290,#612);
#533=LINE('',#1295,#613);
#534=LINE('',#1297,#614);
#535=LINE('',#1299,#615);
#536=LINE('',#1304,#616);
#537=LINE('',#1306,#617);
#538=LINE('',#1308,#618);
#539=LINE('',#1313,#619);
#540=LINE('',#1315,#620);
#541=LINE('',#1317,#621);
#542=LINE('',#1322,#622);
#543=LINE('',#1324,#623);
#544=LINE('',#1326,#624);
#545=VECTOR('',#893,1.);
#546=VECTOR('',#896,1.);
#547=VECTOR('',#899,1.);
#548=VECTOR('',#902,1.);
#549=VECTOR('',#907,1.);
#550=VECTOR('',#910,1.);
#551=VECTOR('',#913,1.);
#552=VECTOR('',#916,1.);
#553=VECTOR('',#921,1.);
#554=VECTOR('',#922,1.);
#555=VECTOR('',#923,1.);
#556=VECTOR('',#924,1.);
#557=VECTOR('',#925,1.);
#558=VECTOR('',#926,1.);
#559=VECTOR('',#927,1.);
#560=VECTOR('',#928,1.);
#561=VECTOR('',#929,1.);
#562=VECTOR('',#930,1.);
#563=VECTOR('',#931,1.);
#564=VECTOR('',#932,1.);
#565=VECTOR('',#933,1.);
#566=VECTOR('',#934,1.);
#567=VECTOR('',#937,1.);
#568=VECTOR('',#938,1.);
#569=VECTOR('',#941,1.);
#570=VECTOR('',#944,1.);
#571=VECTOR('',#945,1.);
#572=VECTOR('',#948,1.);
#573=VECTOR('',#951,1.);
#574=VECTOR('',#952,1.);
#575=VECTOR('',#953,1.);
#576=VECTOR('',#956,1.);
#577=VECTOR('',#957,1.);
#578=VECTOR('',#958,1.);
#579=VECTOR('',#961,1.);
#580=VECTOR('',#962,1.);
#581=VECTOR('',#963,1.);
#582=VECTOR('',#972,1.);
#583=VECTOR('',#973,1.);
#584=VECTOR('',#974,1.);
#585=VECTOR('',#977,1.);
#586=VECTOR('',#978,1.);
#587=VECTOR('',#979,1.);
#588=VECTOR('',#980,1.);
#589=VECTOR('',#983,1.);
#590=VECTOR('',#986,1.);
#591=VECTOR('',#989,1.);
#592=VECTOR('',#990,1.);
#593=VECTOR('',#995,1.);
#594=VECTOR('',#998,1.);
#595=VECTOR('',#1001,1.);
#596=VECTOR('',#1002,1.);
#597=VECTOR('',#1005,1.);
#598=VECTOR('',#1008,1.);
#599=VECTOR('',#1011,1.);
#600=VECTOR('',#1012,1.);
#601=VECTOR('',#1017,1.);
#602=VECTOR('',#1020,1.);
#603=VECTOR('',#1021,1.);
#604=VECTOR('',#1024,1.);
#605=VECTOR('',#1027,1.);
#606=VECTOR('',#1030,1.);
#607=VECTOR('',#1033,1.);
#608=VECTOR('',#1036,1.);
#609=VECTOR('',#1039,1.);
#610=VECTOR('',#1042,1.);
#611=VECTOR('',#1045,1.);
#612=VECTOR('',#1048,1.);
#613=VECTOR('',#1055,1.);
#614=VECTOR('',#1056,1.);
#615=VECTOR('',#1059,1.);
#616=VECTOR('',#1066,1.);
#617=VECTOR('',#1067,1.);
#618=VECTOR('',#1070,1.);
#619=VECTOR('',#1077,1.);
#620=VECTOR('',#1078,1.);
#621=VECTOR('',#1081,1.);
#622=VECTOR('',#1088,1.);
#623=VECTOR('',#1089,1.);
#624=VECTOR('',#1092,1.);
#625=EDGE_LOOP('',(#77,#78,#79,#80,#81,#82,#83,#84));
#626=EDGE_LOOP('',(#85,#86,#87,#88,#89,#90,#91,#92));
#627=EDGE_LOOP('',(#93,#94,#95,#96,#97,#98,#99,#100));
#628=EDGE_LOOP('',(#101,#102,#103,#104,#105,#106,#107,#108,#109,#110,#111,
#112,#113,#114,#115,#116,#117,#118,#119,#120));
#629=EDGE_LOOP('',(#121,#122,#123,#124));
#630=EDGE_LOOP('',(#125,#126,#127,#128));
#631=EDGE_LOOP('',(#129,#130,#131,#132));
#632=EDGE_LOOP('',(#133));
#633=EDGE_LOOP('',(#134));
#634=EDGE_LOOP('',(#135,#136,#137,#138));
#635=EDGE_LOOP('',(#139,#140,#141,#142));
#636=EDGE_LOOP('',(#143));
#637=EDGE_LOOP('',(#144,#145,#146,#147,#148,#149,#150,#151));
#638=EDGE_LOOP('',(#152));
#639=EDGE_LOOP('',(#153,#154,#155,#156));
#640=EDGE_LOOP('',(#157,#158,#159,#160));
#641=EDGE_LOOP('',(#161,#162,#163,#164,#165,#166,#167,#168));
#642=EDGE_LOOP('',(#169,#170,#171,#172));
#643=EDGE_LOOP('',(#173,#174,#175,#176,#177,#178,#179,#180));
#644=EDGE_LOOP('',(#181,#182,#183,#184));
#645=EDGE_LOOP('',(#185,#186,#187,#188));
#646=EDGE_LOOP('',(#189,#190,#191));
#647=EDGE_LOOP('',(#192,#193,#194,#195));
#648=EDGE_LOOP('',(#196,#197,#198,#199));
#649=EDGE_LOOP('',(#200,#201,#202,#203));
#650=EDGE_LOOP('',(#204,#205,#206,#207));
#651=EDGE_LOOP('',(#208,#209,#210));
#652=EDGE_LOOP('',(#211,#212,#213));
#653=EDGE_LOOP('',(#214,#215,#216,#217));
#654=EDGE_LOOP('',(#218,#219,#220,#221));
#655=EDGE_LOOP('',(#222,#223,#224));
#656=EDGE_LOOP('',(#225,#226,#227,#228));
#657=EDGE_LOOP('',(#229));
#658=EDGE_LOOP('',(#230,#231,#232));
#659=EDGE_LOOP('',(#233,#234,#235,#236));
#660=EDGE_LOOP('',(#237,#238,#239,#240));
#661=EDGE_LOOP('',(#241));
#662=EDGE_LOOP('',(#242,#243,#244));
#663=EDGE_LOOP('',(#245,#246,#247,#248));
#664=EDGE_LOOP('',(#249,#250,#251,#252));
#665=EDGE_LOOP('',(#253));
#666=EDGE_LOOP('',(#254,#255,#256));
#667=EDGE_LOOP('',(#257,#258,#259,#260));
#668=EDGE_LOOP('',(#261,#262,#263,#264));
#669=EDGE_LOOP('',(#265));
#670=EDGE_LOOP('',(#266,#267,#268));
#671=EDGE_LOOP('',(#269,#270,#271,#272));
#672=EDGE_LOOP('',(#273,#274,#275,#276));
#673=EDGE_LOOP('',(#277));
#674=EDGE_LOOP('',(#278));
#675=EDGE_LOOP('',(#279));
#676=EDGE_LOOP('',(#280));
#677=EDGE_LOOP('',(#281));
#678=EDGE_LOOP('',(#282));
#679=EDGE_LOOP('',(#283));
#680=EDGE_LOOP('',(#284));
#681=EDGE_LOOP('',(#285));
#682=EDGE_LOOP('',(#286));
#683=EDGE_LOOP('',(#287));
#684=EDGE_LOOP('',(#288));
#685=FACE_BOUND('',#625,.T.);
#686=FACE_BOUND('',#626,.T.);
#687=FACE_BOUND('',#627,.T.);
#688=FACE_BOUND('',#628,.T.);
#689=FACE_BOUND('',#629,.T.);
#690=FACE_BOUND('',#630,.T.);
#691=FACE_BOUND('',#631,.T.);
#692=FACE_BOUND('',#632,.T.);
#693=FACE_BOUND('',#633,.T.);
#694=FACE_BOUND('',#634,.T.);
#695=FACE_BOUND('',#635,.T.);
#696=FACE_BOUND('',#636,.T.);
#697=FACE_BOUND('',#637,.T.);
#698=FACE_BOUND('',#638,.T.);
#699=FACE_BOUND('',#639,.T.);
#700=FACE_BOUND('',#640,.T.);
#701=FACE_BOUND('',#641,.T.);
#702=FACE_BOUND('',#642,.T.);
#703=FACE_BOUND('',#643,.T.);
#704=FACE_BOUND('',#644,.T.);
#705=FACE_BOUND('',#645,.T.);
#706=FACE_BOUND('',#646,.T.);
#707=FACE_BOUND('',#647,.T.);
#708=FACE_BOUND('',#648,.T.);
#709=FACE_BOUND('',#649,.T.);
#710=FACE_BOUND('',#650,.T.);
#711=FACE_BOUND('',#651,.T.);
#712=FACE_BOUND('',#652,.T.);
#713=FACE_BOUND('',#653,.T.);
#714=FACE_BOUND('',#654,.T.);
#715=FACE_BOUND('',#655,.T.);
#716=FACE_BOUND('',#656,.T.);
#717=FACE_BOUND('',#657,.T.);
#718=FACE_BOUND('',#658,.T.);
#719=FACE_BOUND('',#659,.T.);
#720=FACE_BOUND('',#660,.T.);
#721=FACE_BOUND('',#661,.T.);
#722=FACE_BOUND('',#662,.T.);
#723=FACE_BOUND('',#663,.T.);
#724=FACE_BOUND('',#664,.T.);
#725=FACE_BOUND('',#665,.T.);
#726=FACE_BOUND('',#666,.T.);
#727=FACE_BOUND('',#667,.T.);
#728=FACE_BOUND('',#668,.T.);
#729=FACE_BOUND('',#669,.T.);
#730=FACE_BOUND('',#670,.T.);
#731=FACE_BOUND('',#671,.T.);
#732=FACE_BOUND('',#672,.T.);
#733=FACE_BOUND('',#673,.T.);
#734=FACE_BOUND('',#674,.T.);
#735=FACE_BOUND('',#675,.T.);
#736=FACE_BOUND('',#676,.T.);
#737=FACE_BOUND('',#677,.T.);
#738=FACE_BOUND('',#678,.T.);
#739=FACE_BOUND('',#679,.T.);
#740=FACE_BOUND('',#680,.T.);
#741=FACE_BOUND('',#681,.T.);
#742=FACE_BOUND('',#682,.T.);
#743=FACE_BOUND('',#683,.T.);
#744=FACE_BOUND('',#684,.T.);
#745=CYLINDRICAL_SURFACE('',#815,0.0129126983722084);
#746=CYLINDRICAL_SURFACE('',#820,0.0129126983722084);
#747=CYLINDRICAL_SURFACE('',#833,0.0156);
#748=CYLINDRICAL_SURFACE('',#843,0.0129126983722084);
#749=CYLINDRICAL_SURFACE('',#846,0.0129126983722084);
#750=CYLINDRICAL_SURFACE('',#879,0.00115);
#751=CYLINDRICAL_SURFACE('',#882,0.00115);
#752=CYLINDRICAL_SURFACE('',#885,0.00115);
#753=CYLINDRICAL_SURFACE('',#888,0.00115);
#754=ADVANCED_FACE('',(#685),#745,.T.);
#755=ADVANCED_FACE('',(#686),#746,.T.);
#756=ADVANCED_FACE('',(#687,#688),#12,.T.);
#757=ADVANCED_FACE('',(#689),#13,.F.);
#758=ADVANCED_FACE('',(#690),#14,.T.);
#759=ADVANCED_FACE('',(#691),#15,.T.);
#760=ADVANCED_FACE('',(#692,#693),#747,.F.);
#761=ADVANCED_FACE('',(#694),#16,.F.);
#762=ADVANCED_FACE('',(#695,#696),#17,.F.);
#763=ADVANCED_FACE('',(#697,#698),#18,.T.);
#764=ADVANCED_FACE('',(#699),#19,.F.);
#765=ADVANCED_FACE('',(#700),#20,.F.);
#766=ADVANCED_FACE('',(#701),#748,.T.);
#767=ADVANCED_FACE('',(#702),#21,.F.);
#768=ADVANCED_FACE('',(#703),#749,.T.);
#769=ADVANCED_FACE('',(#704),#22,.F.);
#770=ADVANCED_FACE('',(#705),#23,.T.);
#771=ADVANCED_FACE('',(#706),#24,.T.);
#772=ADVANCED_FACE('',(#707),#25,.F.);
#773=ADVANCED_FACE('',(#708),#26,.F.);
#774=ADVANCED_FACE('',(#709),#27,.T.);
#775=ADVANCED_FACE('',(#710),#28,.F.);
#776=ADVANCED_FACE('',(#711),#29,.T.);
#777=ADVANCED_FACE('',(#712),#30,.T.);
#778=ADVANCED_FACE('',(#713),#31,.F.);
#779=ADVANCED_FACE('',(#714),#32,.T.);
#780=ADVANCED_FACE('',(#715),#33,.T.);
#781=ADVANCED_FACE('',(#716),#34,.T.);
#782=ADVANCED_FACE('',(#717,#718),#35,.T.);
#783=ADVANCED_FACE('',(#719),#36,.T.);
#784=ADVANCED_FACE('',(#720),#37,.T.);
#785=ADVANCED_FACE('',(#721,#722),#38,.T.);
#786=ADVANCED_FACE('',(#723),#39,.T.);
#787=ADVANCED_FACE('',(#724),#40,.F.);
#788=ADVANCED_FACE('',(#725,#726),#41,.T.);
#789=ADVANCED_FACE('',(#727),#42,.F.);
#790=ADVANCED_FACE('',(#728),#43,.T.);
#791=ADVANCED_FACE('',(#729,#730),#44,.T.);
#792=ADVANCED_FACE('',(#731),#45,.F.);
#793=ADVANCED_FACE('',(#732),#46,.F.);
#794=ADVANCED_FACE('',(#733),#47,.T.);
#795=ADVANCED_FACE('',(#734,#735),#750,.F.);
#796=ADVANCED_FACE('',(#736),#48,.T.);
#797=ADVANCED_FACE('',(#737,#738),#751,.F.);
#798=ADVANCED_FACE('',(#739),#49,.T.);
#799=ADVANCED_FACE('',(#740,#741),#752,.F.);
#800=ADVANCED_FACE('',(#742),#50,.T.);
#801=ADVANCED_FACE('',(#743,#744),#753,.F.);
#802=CLOSED_SHELL('',(#754,#755,#756,#757,#758,#759,#760,#761,#762,#763,
#764,#765,#766,#767,#768,#769,#770,#771,#772,#773,#774,#775,#776,#777,#778,
#779,#780,#781,#782,#783,#784,#785,#786,#787,#788,#789,#790,#791,#792,#793,
#794,#795,#796,#797,#798,#799,#800,#801));
#803=STYLED_ITEM('',(#804),#811);
#804=PRESENTATION_STYLE_ASSIGNMENT((#805));
#805=SURFACE_STYLE_USAGE(.BOTH.,#806);
#806=SURFACE_SIDE_STYLE('',(#807));
#807=SURFACE_STYLE_FILL_AREA(#808);
#808=FILL_AREA_STYLE('',(#809));
#809=FILL_AREA_STYLE_COLOUR('',#810);
#810=DRAUGHTING_PRE_DEFINED_COLOUR('white');
#811=MANIFOLD_SOLID_BREP('Base',#802);
#812=SHAPE_DEFINITION_REPRESENTATION(#1350,#813);
#813=SHAPE_REPRESENTATION('Base',(#814),#1345);
#814=AXIS2_PLACEMENT_3D('',#1119,#889,#890);
#815=AXIS2_PLACEMENT_3D('',#1120,#891,#892);
#816=AXIS2_PLACEMENT_3D('',#1124,#894,#895);
#817=AXIS2_PLACEMENT_3D('',#1128,#897,#898);
#818=AXIS2_PLACEMENT_3D('',#1132,#900,#901);
#819=AXIS2_PLACEMENT_3D('',#1136,#903,#904);
#820=AXIS2_PLACEMENT_3D('',#1137,#905,#906);
#821=AXIS2_PLACEMENT_3D('',#1141,#908,#909);
#822=AXIS2_PLACEMENT_3D('',#1145,#911,#912);
#823=AXIS2_PLACEMENT_3D('',#1149,#914,#915);
#824=AXIS2_PLACEMENT_3D('',#1153,#917,#918);
#825=AXIS2_PLACEMENT_3D('',#1154,#919,#920);
#826=AXIS2_PLACEMENT_3D('',#1180,#935,#936);
#827=AXIS2_PLACEMENT_3D('',#1186,#939,#940);
#828=AXIS2_PLACEMENT_3D('',#1190,#942,#943);
#829=AXIS2_PLACEMENT_3D('',#1196,#946,#947);
#830=AXIS2_PLACEMENT_3D('',#1199,#949,#950);
#831=AXIS2_PLACEMENT_3D('',#1205,#954,#955);
#832=AXIS2_PLACEMENT_3D('',#1211,#959,#960);
#833=AXIS2_PLACEMENT_3D('',#1217,#964,#965);
#834=AXIS2_PLACEMENT_3D('',#1218,#966,#967);
#835=AXIS2_PLACEMENT_3D('',#1220,#968,#969);
#836=AXIS2_PLACEMENT_3D('',#1222,#970,#971);
#837=AXIS2_PLACEMENT_3D('',#1228,#975,#976);
#838=AXIS2_PLACEMENT_3D('',#1237,#981,#982);
#839=AXIS2_PLACEMENT_3D('',#1240,#984,#985);
#840=AXIS2_PLACEMENT_3D('',#1244,#987,#988);
#841=AXIS2_PLACEMENT_3D('',#1248,#991,#992);
#842=AXIS2_PLACEMENT_3D('',#1249,#993,#994);
#843=AXIS2_PLACEMENT_3D('',#1251,#996,#997);
#844=AXIS2_PLACEMENT_3D('',#1254,#999,#1000);
#845=AXIS2_PLACEMENT_3D('',#1258,#1003,#1004);
#846=AXIS2_PLACEMENT_3D('',#1260,#1006,#1007);
#847=AXIS2_PLACEMENT_3D('',#1263,#1009,#1010);
#848=AXIS2_PLACEMENT_3D('',#1267,#1013,#1014);
#849=AXIS2_PLACEMENT_3D('',#1268,#1015,#1016);
#850=AXIS2_PLACEMENT_3D('',#1270,#1018,#1019);
#851=AXIS2_PLACEMENT_3D('',#1273,#1022,#1023);
#852=AXIS2_PLACEMENT_3D('',#1275,#1025,#1026);
#853=AXIS2_PLACEMENT_3D('',#1277,#1028,#1029);
#854=AXIS2_PLACEMENT_3D('',#1279,#1031,#1032);
#855=AXIS2_PLACEMENT_3D('',#1281,#1034,#1035);
#856=AXIS2_PLACEMENT_3D('',#1283,#1037,#1038);
#857=AXIS2_PLACEMENT_3D('',#1285,#1040,#1041);
#858=AXIS2_PLACEMENT_3D('',#1287,#1043,#1044);
#859=AXIS2_PLACEMENT_3D('',#1289,#1046,#1047);
#860=AXIS2_PLACEMENT_3D('',#1291,#1049,#1050);
#861=AXIS2_PLACEMENT_3D('',#1292,#1051,#1052);
#862=AXIS2_PLACEMENT_3D('',#1293,#1053,#1054);
#863=AXIS2_PLACEMENT_3D('',#1298,#1057,#1058);
#864=AXIS2_PLACEMENT_3D('',#1300,#1060,#1061);
#865=AXIS2_PLACEMENT_3D('',#1301,#1062,#1063);
#866=AXIS2_PLACEMENT_3D('',#1302,#1064,#1065);
#867=AXIS2_PLACEMENT_3D('',#1307,#1068,#1069);
#868=AXIS2_PLACEMENT_3D('',#1309,#1071,#1072);
#869=AXIS2_PLACEMENT_3D('',#1310,#1073,#1074);
#870=AXIS2_PLACEMENT_3D('',#1311,#1075,#1076);
#871=AXIS2_PLACEMENT_3D('',#1316,#1079,#1080);
#872=AXIS2_PLACEMENT_3D('',#1318,#1082,#1083);
#873=AXIS2_PLACEMENT_3D('',#1319,#1084,#1085);
#874=AXIS2_PLACEMENT_3D('',#1320,#1086,#1087);
#875=AXIS2_PLACEMENT_3D('',#1325,#1090,#1091);
#876=AXIS2_PLACEMENT_3D('',#1327,#1093,#1094);
#877=AXIS2_PLACEMENT_3D('',#1328,#1095,#1096);
#878=AXIS2_PLACEMENT_3D('',#1329,#1097,#1098);
#879=AXIS2_PLACEMENT_3D('',#1331,#1099,#1100);
#880=AXIS2_PLACEMENT_3D('',#1332,#1101,#1102);
#881=AXIS2_PLACEMENT_3D('',#1333,#1103,#1104);
#882=AXIS2_PLACEMENT_3D('',#1335,#1105,#1106);
#883=AXIS2_PLACEMENT_3D('',#1336,#1107,#1108);
#884=AXIS2_PLACEMENT_3D('',#1337,#1109,#1110);
#885=AXIS2_PLACEMENT_3D('',#1339,#1111,#1112);
#886=AXIS2_PLACEMENT_3D('',#1340,#1113,#1114);
#887=AXIS2_PLACEMENT_3D('',#1341,#1115,#1116);
#888=AXIS2_PLACEMENT_3D('',#1343,#1117,#1118);
#889=DIRECTION('',(0.,0.,1.));
#890=DIRECTION('',(1.,0.,0.));
#891=DIRECTION('',(0.,0.,-1.));
#892=DIRECTION('',(-1.,0.,0.));
#893=DIRECTION('',(0.,0.,-1.));
#894=DIRECTION('',(0.,0.,1.));
#895=DIRECTION('',(1.,0.,0.));
#896=DIRECTION('',(0.,0.,-1.));
#897=DIRECTION('',(0.,0.,1.));
#898=DIRECTION('',(1.,0.,0.));
#899=DIRECTION('',(0.,0.,-1.));
#900=DIRECTION('',(0.,0.,1.));
#901=DIRECTION('',(1.,0.,0.));
#902=DIRECTION('',(0.,0.,-1.));
#903=DIRECTION('',(0.,0.,1.));
#904=DIRECTION('',(1.,0.,0.));
#905=DIRECTION('',(0.,0.,-1.));
#906=DIRECTION('',(-1.,0.,0.));
#907=DIRECTION('',(0.,0.,-1.));
#908=DIRECTION('',(0.,0.,1.));
#909=DIRECTION('',(1.,0.,0.));
#910=DIRECTION('',(0.,0.,-1.));
#911=DIRECTION('',(0.,0.,1.));
#912=DIRECTION('',(1.,0.,0.));
#913=DIRECTION('',(0.,0.,-1.));
#914=DIRECTION('',(0.,0.,1.));
#915=DIRECTION('',(1.,0.,0.));
#916=DIRECTION('',(0.,0.,-1.));
#917=DIRECTION('',(0.,0.,1.));
#918=DIRECTION('',(1.,0.,0.));
#919=DIRECTION('',(0.,0.,1.));
#920=DIRECTION('',(1.,0.,0.));
#921=DIRECTION('',(-1.,0.,0.));
#922=DIRECTION('',(0.707106781186547,0.707106781186548,0.));
#923=DIRECTION('',(0.,1.,0.));
#924=DIRECTION('',(0.707106781186546,-0.707106781186549,0.));
#925=DIRECTION('',(-1.,0.,0.));
#926=DIRECTION('',(-0.707106781186547,-0.707106781186548,0.));
#927=DIRECTION('',(0.,1.,0.));
#928=DIRECTION('',(-0.707106781186549,0.707106781186547,0.));
#929=DIRECTION('',(-1.,0.,0.));
#930=DIRECTION('',(1.79764090774798E-16,-1.,0.));
#931=DIRECTION('',(0.,-1.,0.));
#932=DIRECTION('',(1.79764090774798E-16,-1.,0.));
#933=DIRECTION('',(-1.,0.,0.));
#934=DIRECTION('',(-1.,0.,0.));
#935=DIRECTION('',(0.,0.,1.));
#936=DIRECTION('',(1.,0.,0.));
#937=DIRECTION('',(-1.,0.,0.));
#938=DIRECTION('',(1.79764090774798E-16,-1.,0.));
#939=DIRECTION('',(0.,0.,1.));
#940=DIRECTION('',(1.,0.,0.));
#941=DIRECTION('',(0.,1.,0.));
#942=DIRECTION('',(0.,0.,1.));
#943=DIRECTION('',(1.,0.,0.));
#944=DIRECTION('',(1.79764090774798E-16,-1.,0.));
#945=DIRECTION('',(-1.,0.,0.));
#946=DIRECTION('',(0.,0.,1.));
#947=DIRECTION('',(1.,0.,0.));
#948=DIRECTION('',(1.,0.,0.));
#949=DIRECTION('',(-6.80283716069336E-17,-1.,0.));
#950=DIRECTION('',(1.,-6.80283716069336E-17,0.));
#951=DIRECTION('',(0.,0.,-1.));
#952=DIRECTION('',(-1.,6.80283716069336E-17,0.));
#953=DIRECTION('',(0.,0.,1.));
#954=DIRECTION('',(-1.,2.72113486427734E-16,0.));
#955=DIRECTION('',(-2.72113486427734E-16,-1.,0.));
#956=DIRECTION('',(-2.72113486427734E-16,-1.,0.));
#957=DIRECTION('',(0.,0.,1.));
#958=DIRECTION('',(0.,0.,-1.));
#959=DIRECTION('',(-6.80283716069336E-17,-1.,0.));
#960=DIRECTION('',(1.,-6.80283716069336E-17,0.));
#961=DIRECTION('',(1.,-6.80283716069336E-17,0.));
#962=DIRECTION('',(0.,0.,1.));
#963=DIRECTION('',(0.,0.,-1.));
#964=DIRECTION('',(0.,0.,1.));
#965=DIRECTION('',(1.,0.,0.));
#966=DIRECTION('',(0.,0.,1.));
#967=DIRECTION('',(1.,0.,0.));
#968=DIRECTION('',(0.,0.,1.));
#969=DIRECTION('',(1.,0.,0.));
#970=DIRECTION('',(-1.,3.40141858034668E-16,0.));
#971=DIRECTION('',(-3.40141858034668E-16,-1.,0.));
#972=DIRECTION('',(0.,0.,-1.));
#973=DIRECTION('',(3.40141858034668E-16,1.,0.));
#974=DIRECTION('',(0.,0.,1.));
#975=DIRECTION('',(0.,0.,1.));
#976=DIRECTION('',(1.,0.,0.));
#977=DIRECTION('',(-3.40141858034668E-16,-1.,0.));
#978=DIRECTION('',(-1.,6.80283716069336E-17,0.));
#979=DIRECTION('',(2.72113486427734E-16,1.,0.));
#980=DIRECTION('',(1.,-6.80283716069336E-17,0.));
#981=DIRECTION('',(0.,0.,1.));
#982=DIRECTION('',(1.,0.,0.));
#983=DIRECTION('',(1.,0.,0.));
#984=DIRECTION('',(0.,0.,1.));
#985=DIRECTION('',(1.,0.,0.));
#986=DIRECTION('',(0.,1.,0.));
#987=DIRECTION('',(0.,0.,1.));
#988=DIRECTION('',(1.,0.,0.));
#989=DIRECTION('',(-1.,0.,0.));
#990=DIRECTION('',(0.,-1.,0.));
#991=DIRECTION('',(1.,0.,0.));
#992=DIRECTION('',(0.,0.,-1.));
#993=DIRECTION('',(0.,-1.,0.));
#994=DIRECTION('',(0.,0.,-1.));
#995=DIRECTION('',(0.,0.,-1.));
#996=DIRECTION('',(0.,0.,-1.));
#997=DIRECTION('',(-1.,0.,0.));
#998=DIRECTION('',(0.,0.,-1.));
#999=DIRECTION('',(0.,0.,1.));
#1000=DIRECTION('',(1.,0.,0.));
#1001=DIRECTION('',(0.,0.,-1.));
#1002=DIRECTION('',(0.,0.,-1.));
#1003=DIRECTION('',(-1.,0.,0.));
#1004=DIRECTION('',(0.,0.,1.));
#1005=DIRECTION('',(0.,0.,-1.));
#1006=DIRECTION('',(0.,0.,-1.));
#1007=DIRECTION('',(-1.,0.,0.));
#1008=DIRECTION('',(0.,0.,-1.));
#1009=DIRECTION('',(0.,0.,1.));
#1010=DIRECTION('',(1.,0.,0.));
#1011=DIRECTION('',(0.,0.,-1.));
#1012=DIRECTION('',(0.,0.,-1.));
#1013=DIRECTION('',(0.,1.,0.));
#1014=DIRECTION('',(0.,0.,1.));
#1015=DIRECTION('',(-0.707106781186548,0.707106781186547,0.));
#1016=DIRECTION('',(0.,0.,-1.));
#1017=DIRECTION('',(0.707106781186547,0.707106781186548,-3.67417327313657E-16));
#1018=DIRECTION('',(-0.577350269189626,0.577350269189625,-0.577350269189626));
#1019=DIRECTION('',(-0.707106781186547,0.,0.707106781186548));
#1020=DIRECTION('',(-0.707106781186548,-8.37577633256976E-16,0.707106781186548));
#1021=DIRECTION('',(-1.23903709934807E-16,0.707106781186548,0.707106781186548));
#1022=DIRECTION('',(-0.707106781186549,-0.707106781186546,0.));
#1023=DIRECTION('',(0.,0.,1.));
#1024=DIRECTION('',(-0.707106781186546,0.707106781186549,1.19609907444043E-16));
#1025=DIRECTION('',(-4.81033228763411E-17,-0.707106781186548,0.707106781186548));
#1026=DIRECTION('',(1.,-6.80283716069336E-17,0.));
#1027=DIRECTION('',(-1.44222201478767E-15,-0.707106781186548,-0.707106781186548));
#1028=DIRECTION('',(-0.707106781186548,1.92413291505364E-16,-0.707106781186548));
#1029=DIRECTION('',(2.72113486427734E-16,1.,0.));
#1030=DIRECTION('',(0.707106781186548,5.49133230299439E-16,-0.707106781186548));
#1031=DIRECTION('',(0.707106781186547,0.707106781186549,0.));
#1032=DIRECTION('',(0.,0.,1.));
#1033=DIRECTION('',(0.707106781186549,-0.707106781186547,-3.67417327313657E-16));
#1034=DIRECTION('',(0.577350269189627,0.577350269189625,-0.577350269189626));
#1035=DIRECTION('',(-0.707106781186547,0.,-0.707106781186548));
#1036=DIRECTION('',(0.707106781186548,-8.93088784488234E-16,0.707106781186548));
#1037=DIRECTION('',(-0.577350269189625,-0.577350269189626,-0.577350269189626));
#1038=DIRECTION('',(0.,0.707106781186547,-0.707106781186548));
#1039=DIRECTION('',(9.33725767576154E-16,-0.707106781186548,0.707106781186547));
#1040=DIRECTION('',(-0.707106781186548,2.40516614381706E-16,0.707106781186548));
#1041=DIRECTION('',(-3.40141858034668E-16,-1.,0.));
#1042=DIRECTION('',(-0.707106781186548,-8.37577633256976E-16,-0.707106781186548));
#1043=DIRECTION('',(-4.81033228763412E-17,-0.707106781186548,-0.707106781186548));
#1044=DIRECTION('',(-1.,6.80283716069336E-17,0.));
#1045=DIRECTION('',(-1.23903709934807E-16,0.707106781186548,-0.707106781186548));
#1046=DIRECTION('',(0.577350269189626,-0.577350269189625,-0.577350269189626));
#1047=DIRECTION('',(-0.707106781186547,0.,-0.707106781186548));
#1048=DIRECTION('',(-0.707106781186547,-0.707106781186548,-9.18543318284144E-17));
#1049=DIRECTION('',(0.707106781186548,-0.707106781186547,0.));
#1050=DIRECTION('',(0.,0.,-1.));
#1051=DIRECTION('',(0.,0.,1.));
#1052=DIRECTION('',(1.,0.,0.));
#1053=DIRECTION('',(0.,0.,1.));
#1054=DIRECTION('',(1.,0.,0.));
#1055=DIRECTION('',(-1.,0.,0.));
#1056=DIRECTION('',(1.79764090774798E-16,-1.,0.));
#1057=DIRECTION('',(0.,1.,0.));
#1058=DIRECTION('',(0.,0.,1.));
#1059=DIRECTION('',(0.,0.,1.));
#1060=DIRECTION('',(-1.,-1.79764090774798E-16,0.));
#1061=DIRECTION('',(1.79764090774798E-16,-1.,0.));
#1062=DIRECTION('',(0.,0.,1.));
#1063=DIRECTION('',(1.,0.,0.));
#1064=DIRECTION('',(0.,0.,1.));
#1065=DIRECTION('',(1.,0.,0.));
#1066=DIRECTION('',(1.79764090774798E-16,-1.,0.));
#1067=DIRECTION('',(-1.,0.,0.));
#1068=DIRECTION('',(0.,1.,0.));
#1069=DIRECTION('',(0.,0.,1.));
#1070=DIRECTION('',(0.,0.,1.));
#1071=DIRECTION('',(-1.,-1.79764090774798E-16,0.));
#1072=DIRECTION('',(1.79764090774798E-16,-1.,0.));
#1073=DIRECTION('',(0.,0.,1.));
#1074=DIRECTION('',(1.,0.,0.));
#1075=DIRECTION('',(0.,0.,1.));
#1076=DIRECTION('',(1.,0.,0.));
#1077=DIRECTION('',(1.79764090774798E-16,-1.,0.));
#1078=DIRECTION('',(-1.,0.,0.));
#1079=DIRECTION('',(0.,1.,0.));
#1080=DIRECTION('',(0.,0.,1.));
#1081=DIRECTION('',(0.,0.,1.));
#1082=DIRECTION('',(-1.,-1.79764090774798E-16,0.));
#1083=DIRECTION('',(1.79764090774798E-16,-1.,0.));
#1084=DIRECTION('',(0.,0.,1.));
#1085=DIRECTION('',(1.,0.,0.));
#1086=DIRECTION('',(0.,0.,1.));
#1087=DIRECTION('',(1.,0.,0.));
#1088=DIRECTION('',(-1.,0.,0.));
#1089=DIRECTION('',(1.79764090774798E-16,-1.,0.));
#1090=DIRECTION('',(0.,1.,0.));
#1091=DIRECTION('',(0.,0.,1.));
#1092=DIRECTION('',(0.,0.,1.));
#1093=DIRECTION('',(-1.,-1.79764090774798E-16,0.));
#1094=DIRECTION('',(1.79764090774798E-16,-1.,0.));
#1095=DIRECTION('',(0.,0.,1.));
#1096=DIRECTION('',(1.,0.,0.));
#1097=DIRECTION('',(0.,0.,1.));
#1098=DIRECTION('',(1.,0.,0.));
#1099=DIRECTION('',(0.,0.,-1.));
#1100=DIRECTION('',(-1.,0.,0.));
#1101=DIRECTION('',(0.,0.,1.));
#1102=DIRECTION('',(1.,0.,0.));
#1103=DIRECTION('',(0.,0.,1.));
#1104=DIRECTION('',(1.,0.,0.));
#1105=DIRECTION('',(0.,0.,-1.));
#1106=DIRECTION('',(-1.,0.,0.));
#1107=DIRECTION('',(0.,0.,1.));
#1108=DIRECTION('',(1.,0.,0.));
#1109=DIRECTION('',(0.,0.,1.));
#1110=DIRECTION('',(1.,0.,0.));
#1111=DIRECTION('',(0.,0.,-1.));
#1112=DIRECTION('',(-1.,0.,0.));
#1113=DIRECTION('',(0.,0.,1.));
#1114=DIRECTION('',(1.,0.,0.));
#1115=DIRECTION('',(0.,0.,1.));
#1116=DIRECTION('',(1.,0.,0.));
#1117=DIRECTION('',(0.,0.,-1.));
#1118=DIRECTION('',(-1.,0.,0.));
#1119=CARTESIAN_POINT('',(0.,0.,0.));
#1120=CARTESIAN_POINT('',(0.022,0.022,0.0131));
#1121=CARTESIAN_POINT('',(0.0193,0.0093727366681599,0.0131));
#1122=CARTESIAN_POINT('',(0.0193,0.0093727366681599,0.0116));
#1123=CARTESIAN_POINT('',(0.0193,0.0093727366681599,0.0131));
#1124=CARTESIAN_POINT('',(0.022,0.022,0.0116));
#1125=CARTESIAN_POINT('',(0.0093727366681599,0.0193,0.0116));
#1126=CARTESIAN_POINT('',(0.0093727366681599,0.0193,0.0131));
#1127=CARTESIAN_POINT('',(0.0093727366681599,0.0193,0.0131));
#1128=CARTESIAN_POINT('',(0.022,0.022,0.0131));
#1129=CARTESIAN_POINT('',(0.00908730162779215,0.022,0.0131));
#1130=CARTESIAN_POINT('',(0.00908730162779215,0.022,0.0131));
#1131=CARTESIAN_POINT('',(0.00908730162779215,0.022,0.));
#1132=CARTESIAN_POINT('',(0.022,0.022,0.));
#1133=CARTESIAN_POINT('',(0.022,0.0090873016277916,0.));
#1134=CARTESIAN_POINT('',(0.022,0.0090873016277916,0.0131));
#1135=CARTESIAN_POINT('',(0.022,0.0090873016277916,0.0131));
#1136=CARTESIAN_POINT('',(0.022,0.022,0.0131));
#1137=CARTESIAN_POINT('',(0.022,-0.022,0.0131));
#1138=CARTESIAN_POINT('',(0.0193,-0.0093727366681599,0.0131));
#1139=CARTESIAN_POINT('',(0.0193,-0.0093727366681599,0.0131));
#1140=CARTESIAN_POINT('',(0.0193,-0.0093727366681599,0.0116));
#1141=CARTESIAN_POINT('',(0.022,-0.022,0.0131));
#1142=CARTESIAN_POINT('',(0.022,-0.00908730162779159,0.0131));
#1143=CARTESIAN_POINT('',(0.022,-0.00908730162779159,0.0131));
#1144=CARTESIAN_POINT('',(0.022,-0.00908730162779159,0.));
#1145=CARTESIAN_POINT('',(0.022,-0.022,0.));
#1146=CARTESIAN_POINT('',(0.00908730162779188,-0.022,0.));
#1147=CARTESIAN_POINT('',(0.00908730162779188,-0.022,0.0131));
#1148=CARTESIAN_POINT('',(0.00908730162779188,-0.022,0.0131));
#1149=CARTESIAN_POINT('',(0.022,-0.022,0.0131));
#1150=CARTESIAN_POINT('',(0.0093727366681599,-0.0193,0.0131));
#1151=CARTESIAN_POINT('',(0.0093727366681599,-0.0193,0.0131));
#1152=CARTESIAN_POINT('',(0.0093727366681599,-0.0193,0.0116));
#1153=CARTESIAN_POINT('',(0.022,-0.022,0.0116));
#1154=CARTESIAN_POINT('',(0.,3.46944695195361E-18,0.0131));
#1155=CARTESIAN_POINT('',(0.,-0.0255,0.0131));
#1156=CARTESIAN_POINT('',(0.0205,-0.0255,0.0131));
#1157=CARTESIAN_POINT('',(-0.0205,-0.0255,0.0131));
#1158=CARTESIAN_POINT('',(0.023,-0.023,0.0131));
#1159=CARTESIAN_POINT('',(0.0255,-0.0205,0.0131));
#1160=CARTESIAN_POINT('',(0.0255,0.,0.0131));
#1161=CARTESIAN_POINT('',(0.0255,0.0205,0.0131));
#1162=CARTESIAN_POINT('',(0.023,0.023,0.0131));
#1163=CARTESIAN_POINT('',(0.0205,0.0255,0.0131));
#1164=CARTESIAN_POINT('',(0.,0.0255,0.0131));
#1165=CARTESIAN_POINT('',(-0.0205,0.0255,0.0131));
#1166=CARTESIAN_POINT('',(-0.023,0.023,0.0131));
#1167=CARTESIAN_POINT('',(-0.0255,0.0205,0.0131));
#1168=CARTESIAN_POINT('',(-0.0255,0.,0.0131));
#1169=CARTESIAN_POINT('',(-0.0255,-0.0205,0.0131));
#1170=CARTESIAN_POINT('',(-0.023,-0.023,0.0131));
#1171=CARTESIAN_POINT('',(-3.46944695195361E-18,0.0193,0.0131));
#1172=CARTESIAN_POINT('',(0.0193,0.0193,0.0131));
#1173=CARTESIAN_POINT('',(0.0193,0.,0.0131));
#1174=CARTESIAN_POINT('',(0.022,-1.35308431126191E-16,0.0131));
#1175=CARTESIAN_POINT('',(0.0193,0.,0.0131));
#1176=CARTESIAN_POINT('',(0.0193,-0.0193,0.0131));
#1177=CARTESIAN_POINT('',(3.46944695195361E-18,-0.0193,0.0131));
#1178=CARTESIAN_POINT('',(-1.33573707650214E-16,-0.022,0.0131));
#1179=CARTESIAN_POINT('',(-0.00908730162779159,-0.022,0.0131));
#1180=CARTESIAN_POINT('',(-0.022,-0.022,0.0131));
#1181=CARTESIAN_POINT('',(-0.0093727366681599,-0.0193,0.0131));
#1182=CARTESIAN_POINT('',(3.46944695195361E-18,-0.0193,0.0131));
#1183=CARTESIAN_POINT('',(-0.0193,-0.0193,0.0131));
#1184=CARTESIAN_POINT('',(-0.0193,0.,0.0131));
#1185=CARTESIAN_POINT('',(-0.0193,-0.0093727366681599,0.0131));
#1186=CARTESIAN_POINT('',(-0.022,-0.022,0.0131));
#1187=CARTESIAN_POINT('',(-0.022,-0.00908730162779188,0.0131));
#1188=CARTESIAN_POINT('',(-0.022,1.35308431126191E-16,0.0131));
#1189=CARTESIAN_POINT('',(-0.022,0.00908730162779215,0.0131));
#1190=CARTESIAN_POINT('',(-0.022,0.022,0.0131));
#1191=CARTESIAN_POINT('',(-0.0193,0.0093727366681599,0.0131));
#1192=CARTESIAN_POINT('',(-0.0193,0.,0.0131));
#1193=CARTESIAN_POINT('',(-0.0193,0.0193,0.0131));
#1194=CARTESIAN_POINT('',(-3.46944695195361E-18,0.0193,0.0131));
#1195=CARTESIAN_POINT('',(-0.0093727366681599,0.0193,0.0131));
#1196=CARTESIAN_POINT('',(-0.022,0.022,0.0131));
#1197=CARTESIAN_POINT('',(-0.0090873016277916,0.022,0.0131));
#1198=CARTESIAN_POINT('',(1.37043154602168E-16,0.022,0.0131));
#1199=CARTESIAN_POINT('',(1.7347234759768E-18,0.0255,-0.003));
#1200=CARTESIAN_POINT('',(0.0205,0.0255,-0.003));
#1201=CARTESIAN_POINT('',(0.0205,0.0255,0.002));
#1202=CARTESIAN_POINT('',(1.7347234759768E-18,0.0255,0.002));
#1203=CARTESIAN_POINT('',(-0.0205,0.0255,0.002));
#1204=CARTESIAN_POINT('',(-0.0205,0.0255,0.0131));
#1205=CARTESIAN_POINT('',(-0.0255,0.,-0.003));
#1206=CARTESIAN_POINT('',(-0.0255,-0.0255,0.002));
#1207=CARTESIAN_POINT('',(-0.0255,0.0205,0.002));
#1208=CARTESIAN_POINT('',(-0.0255,-0.0205,0.002));
#1209=CARTESIAN_POINT('',(-0.0255,-0.0205,-0.003));
#1210=CARTESIAN_POINT('',(-0.0255,0.0205,-0.003));
#1211=CARTESIAN_POINT('',(0.,-0.0255,-0.003));
#1212=CARTESIAN_POINT('',(0.0255,-0.0255,0.002));
#1213=CARTESIAN_POINT('',(-0.0205,-0.0255,0.002));
#1214=CARTESIAN_POINT('',(0.0205,-0.0255,0.002));
#1215=CARTESIAN_POINT('',(0.0205,-0.0255,0.0131));
#1216=CARTESIAN_POINT('',(-0.0205,-0.0255,-0.003));
#1217=CARTESIAN_POINT('',(0.,9.55224503334935E-19,-0.003));
#1218=CARTESIAN_POINT('',(0.,9.55224503334935E-19,-0.003));
#1219=CARTESIAN_POINT('',(0.0156,9.55224503334935E-19,-0.003));
#1220=CARTESIAN_POINT('',(0.,9.55224503334935E-19,0.));
#1221=CARTESIAN_POINT('',(0.0156,9.55224503334935E-19,0.));
#1222=CARTESIAN_POINT('',(0.0255,0.,-0.003));
#1223=CARTESIAN_POINT('',(0.0255,-0.0205,-0.003));
#1224=CARTESIAN_POINT('',(0.0255,-0.0205,0.002));
#1225=CARTESIAN_POINT('',(0.0255,0.,0.002));
#1226=CARTESIAN_POINT('',(0.0255,0.0205,0.002));
#1227=CARTESIAN_POINT('',(0.0255,0.0205,-0.003));
#1228=CARTESIAN_POINT('',(6.93889390390723E-18,-3.46944695195361E-18,-0.003));
#1229=CARTESIAN_POINT('',(0.0205,-1.04423550416643E-17,-0.003));
#1230=CARTESIAN_POINT('',(0.0205,0.0205,-0.003));
#1231=CARTESIAN_POINT('',(0.0205,-0.0205,-0.003));
#1232=CARTESIAN_POINT('',(-0.0255,-0.0205,-0.003));
#1233=CARTESIAN_POINT('',(-0.0205,-0.0205,-0.003));
#1234=CARTESIAN_POINT('',(-0.0205,0.0255,-0.003));
#1235=CARTESIAN_POINT('',(-0.0205,0.0205,-0.003));
#1236=CARTESIAN_POINT('',(8.33347552184937E-18,0.0205,-0.003));
#1237=CARTESIAN_POINT('',(6.93889390390723E-18,-3.46944695195361E-18,0.));
#1238=CARTESIAN_POINT('',(1.37043154602168E-16,0.022,0.));
#1239=CARTESIAN_POINT('',(-0.0090873016277916,0.022,0.));
#1240=CARTESIAN_POINT('',(-0.022,0.022,0.));
#1241=CARTESIAN_POINT('',(-0.022,0.00908730162779215,0.));
#1242=CARTESIAN_POINT('',(-0.022,1.35308431126191E-16,0.));
#1243=CARTESIAN_POINT('',(-0.022,-0.00908730162779188,0.));
#1244=CARTESIAN_POINT('',(-0.022,-0.022,0.));
#1245=CARTESIAN_POINT('',(-0.00908730162779159,-0.022,0.));
#1246=CARTESIAN_POINT('',(-1.33573707650214E-16,-0.022,0.));
#1247=CARTESIAN_POINT('',(0.022,-1.35308431126191E-16,0.));
#1248=CARTESIAN_POINT('',(0.022,-1.35308431126191E-16,0.0131));
#1249=CARTESIAN_POINT('',(-1.33573707650214E-16,-0.022,0.0131));
#1250=CARTESIAN_POINT('',(-0.00908730162779159,-0.022,0.0131));
#1251=CARTESIAN_POINT('',(-0.022,-0.022,0.0131));
#1252=CARTESIAN_POINT('',(-0.0193,-0.00937273666815991,0.0131));
#1253=CARTESIAN_POINT('',(-0.0193,-0.0093727366681599,0.0116));
#1254=CARTESIAN_POINT('',(-0.022,-0.022,0.0116));
#1255=CARTESIAN_POINT('',(-0.0093727366681599,-0.0193,0.0116));
#1256=CARTESIAN_POINT('',(-0.0093727366681599,-0.0193,0.0131));
#1257=CARTESIAN_POINT('',(-0.022,-0.00908730162779188,0.0131));
#1258=CARTESIAN_POINT('',(-0.022,1.35308431126191E-16,0.0131));
#1259=CARTESIAN_POINT('',(-0.022,0.00908730162779215,0.0131));
#1260=CARTESIAN_POINT('',(-0.022,0.022,0.0131));
#1261=CARTESIAN_POINT('',(-0.0093727366681599,0.0193,0.0131));
#1262=CARTESIAN_POINT('',(-0.0093727366681599,0.0193,0.0116));
#1263=CARTESIAN_POINT('',(-0.022,0.022,0.0116));
#1264=CARTESIAN_POINT('',(-0.0193,0.0093727366681599,0.0116));
#1265=CARTESIAN_POINT('',(-0.0193,0.0093727366681599,0.0131));
#1266=CARTESIAN_POINT('',(-0.0090873016277916,0.022,0.0131));
#1267=CARTESIAN_POINT('',(1.37043154602168E-16,0.022,0.0131));
#1268=CARTESIAN_POINT('',(-0.0205,0.0255,-0.003));
#1269=CARTESIAN_POINT('',(-0.0255,0.0205,0.002));
#1270=CARTESIAN_POINT('',(-0.0255,0.0205,0.002));
#1271=CARTESIAN_POINT('',(-0.0255,0.0205,0.002));
#1272=CARTESIAN_POINT('',(-0.0205,0.023,-0.0005));
#1273=CARTESIAN_POINT('',(0.0255,0.0205,-0.003));
#1274=CARTESIAN_POINT('',(0.0205,0.0255,0.002));
#1275=CARTESIAN_POINT('',(8.33347552184937E-18,0.0205,-0.003));
#1276=CARTESIAN_POINT('',(0.0205,0.0255,0.002));
#1277=CARTESIAN_POINT('',(-0.0255,0.,0.002));
#1278=CARTESIAN_POINT('',(-0.023,-0.0205,-0.0005));
#1279=CARTESIAN_POINT('',(-0.0255,-0.0205,-0.003));
#1280=CARTESIAN_POINT('',(-0.0205,-0.0255,0.002));
#1281=CARTESIAN_POINT('',(0.0205,0.0255,0.002));
#1282=CARTESIAN_POINT('',(0.023,0.0205,-0.0005));
#1283=CARTESIAN_POINT('',(-0.0205,-0.0255,0.002));
#1284=CARTESIAN_POINT('',(-0.0205,-0.0255,0.002));
#1285=CARTESIAN_POINT('',(0.0205,-1.04423550416643E-17,-0.003));
#1286=CARTESIAN_POINT('',(0.0255,-0.0205,0.002));
#1287=CARTESIAN_POINT('',(0.,-0.0255,0.002));
#1288=CARTESIAN_POINT('',(0.0205,-0.023,-0.0005));
#1289=CARTESIAN_POINT('',(0.0255,-0.0205,0.002));
#1290=CARTESIAN_POINT('',(0.0255,-0.0205,0.002));
#1291=CARTESIAN_POINT('',(0.0205,-0.0255,-0.003));
#1292=CARTESIAN_POINT('',(0.,0.,0.0116));
#1293=CARTESIAN_POINT('',(0.015,-0.015,0.0116));
#1294=CARTESIAN_POINT('',(0.01615,-0.015,0.0116));
#1295=CARTESIAN_POINT('',(3.46944695195361E-18,-0.0193,0.0116));
#1296=CARTESIAN_POINT('',(0.0193,-0.0193,0.0116));
#1297=CARTESIAN_POINT('',(0.0193,0.,0.0116));
#1298=CARTESIAN_POINT('',(3.46944695195361E-18,-0.0193,0.0116));
#1299=CARTESIAN_POINT('',(0.0193,-0.0193,0.0116));
#1300=CARTESIAN_POINT('',(0.0193,0.,0.0116));
#1301=CARTESIAN_POINT('',(0.,0.,0.0116));
#1302=CARTESIAN_POINT('',(-0.015,-0.015,0.0116));
#1303=CARTESIAN_POINT('',(-0.01385,-0.015,0.0116));
#1304=CARTESIAN_POINT('',(-0.0193,0.,0.0116));
#1305=CARTESIAN_POINT('',(-0.0193,-0.0193,0.0116));
#1306=CARTESIAN_POINT('',(3.46944695195361E-18,-0.0193,0.0116));
#1307=CARTESIAN_POINT('',(3.46944695195361E-18,-0.0193,0.0116));
#1308=CARTESIAN_POINT('',(-0.0193,-0.0193,0.0116));
#1309=CARTESIAN_POINT('',(-0.0193,0.,0.0116));
#1310=CARTESIAN_POINT('',(0.,0.,0.0116));
#1311=CARTESIAN_POINT('',(0.015,0.015,0.0116));
#1312=CARTESIAN_POINT('',(0.01615,0.015,0.0116));
#1313=CARTESIAN_POINT('',(0.0193,0.,0.0116));
#1314=CARTESIAN_POINT('',(0.0193,0.0193,0.0116));
#1315=CARTESIAN_POINT('',(-3.46944695195361E-18,0.0193,0.0116));
#1316=CARTESIAN_POINT('',(-3.46944695195361E-18,0.0193,0.0116));
#1317=CARTESIAN_POINT('',(0.0193,0.0193,0.0116));
#1318=CARTESIAN_POINT('',(0.0193,0.,0.0116));
#1319=CARTESIAN_POINT('',(0.,0.,0.0116));
#1320=CARTESIAN_POINT('',(-0.015,0.015,0.0116));
#1321=CARTESIAN_POINT('',(-0.01385,0.015,0.0116));
#1322=CARTESIAN_POINT('',(-3.46944695195361E-18,0.0193,0.0116));
#1323=CARTESIAN_POINT('',(-0.0193,0.0193,0.0116));
#1324=CARTESIAN_POINT('',(-0.0193,0.,0.0116));
#1325=CARTESIAN_POINT('',(-3.46944695195361E-18,0.0193,0.0116));
#1326=CARTESIAN_POINT('',(-0.0193,0.0193,0.0116));
#1327=CARTESIAN_POINT('',(-0.0193,0.,0.0116));
#1328=CARTESIAN_POINT('',(6.93889390390723E-18,-3.46944695195361E-18,0.));
#1329=CARTESIAN_POINT('',(0.015,-0.015,0.));
#1330=CARTESIAN_POINT('',(0.01615,-0.015,0.));
#1331=CARTESIAN_POINT('',(0.015,-0.015,0.0131));
#1332=CARTESIAN_POINT('',(6.93889390390723E-18,-3.46944695195361E-18,0.));
#1333=CARTESIAN_POINT('',(-0.015,-0.015,0.));
#1334=CARTESIAN_POINT('',(-0.01385,-0.015,0.));
#1335=CARTESIAN_POINT('',(-0.015,-0.015,0.0131));
#1336=CARTESIAN_POINT('',(6.93889390390723E-18,-3.46944695195361E-18,0.));
#1337=CARTESIAN_POINT('',(0.015,0.015,0.));
#1338=CARTESIAN_POINT('',(0.01615,0.015,0.));
#1339=CARTESIAN_POINT('',(0.015,0.015,0.0131));
#1340=CARTESIAN_POINT('',(6.93889390390723E-18,-3.46944695195361E-18,0.));
#1341=CARTESIAN_POINT('',(-0.015,0.015,0.));
#1342=CARTESIAN_POINT('',(-0.01385,0.015,0.));
#1343=CARTESIAN_POINT('',(-0.015,0.015,0.0131));
#1344=MECHANICAL_DESIGN_GEOMETRIC_PRESENTATION_REPRESENTATION('',(#803),
#1345);
#1345=(
GEOMETRIC_REPRESENTATION_CONTEXT(3)
GLOBAL_UNCERTAINTY_ASSIGNED_CONTEXT((#1346))
GLOBAL_UNIT_ASSIGNED_CONTEXT((#1349,#1348,#1347))
REPRESENTATION_CONTEXT('Base','TOP_LEVEL_ASSEMBLY_PART')
);
#1346=UNCERTAINTY_MEASURE_WITH_UNIT(LENGTH_MEASURE(1.E-8),#1349,
'DISTANCE_ACCURACY_VALUE','Maximum Tolerance applied to model');
#1347=(
NAMED_UNIT(*)
SI_UNIT($,.STERADIAN.)
SOLID_ANGLE_UNIT()
);
#1348=(
NAMED_UNIT(*)
PLANE_ANGLE_UNIT()
SI_UNIT($,.RADIAN.)
);
#1349=(
LENGTH_UNIT()
NAMED_UNIT(*)
SI_UNIT($,.METRE.)
);
#1350=PRODUCT_DEFINITION_SHAPE('','',#1351);
#1351=PRODUCT_DEFINITION('','',#1353,#1352);
#1352=PRODUCT_DEFINITION_CONTEXT('',#1359,'design');
#1353=PRODUCT_DEFINITION_FORMATION_WITH_SPECIFIED_SOURCE('','',#1355,
 .NOT_KNOWN.);
#1354=PRODUCT_RELATED_PRODUCT_CATEGORY('','',(#1355));
#1355=PRODUCT('Base','Base','Base',(#1357));
#1356=PRODUCT_CATEGORY('','');
#1357=PRODUCT_CONTEXT('',#1359,'mechanical');
#1358=APPLICATION_PROTOCOL_DEFINITION('international standard',
'ap242_managed_model_based_3d_engineering',2011,#1359);
#1359=APPLICATION_CONTEXT('managed model based 3d engineering');
ENDSEC;
END-ISO-10303-21;
