ISO-10303-21;
HEADER;
/* Generated by software containing ST-Developer
 * from STEP Tools, Inc. (www.steptools.com) 
 */
/* OPTION: using custom renumber hook */

FILE_DESCRIPTION(
/* description */ ('STEP AP242',
'CAx-IF Rec.Pracs.---Representation and Presentation of Product Manufa
cturing Information (PMI)---4.0---2014-10-13',
'CAx-IF Rec.Pracs.---3D Tessellated Geometry---0.4---2014-09-14','2;1',
'CAx-IF Rec.Pracs.---User Defined Attributes---1.5---2016-08-15'),
/* implementation_level */ '2;1');

FILE_NAME(
/* name */ '69065cd9ee2a6d5daf038c68',
/* time_stamp */ '2025-11-01T19:17:46Z',
/* author */ (''),
/* organization */ (''),
/* preprocessor_version */ 'ST-DEVELOPER v20',
/* originating_system */ 'ONSHAPE BY PTC INC, 1.206',
/* authorisation */ '  ');

FILE_SCHEMA (('AP242_MANAGED_MODEL_BASED_3D_ENGINEERING_MIM_LF { 1 0 10303 442 1 1 4 }'));
ENDSEC;

DATA;
#10=SHAPE_REPRESENTATION_RELATIONSHIP('','',#727,#11);
#11=ADVANCED_BREP_SHAPE_REPRESENTATION('',(#725),#1175);
#12=CIRCLE('',#731,0.0014);
#13=CIRCLE('',#732,0.0014);
#14=CIRCLE('',#734,0.0014);
#15=CIRCLE('',#735,0.0014);
#16=CIRCLE('',#737,0.0014);
#17=CIRCLE('',#738,0.0014);
#18=CIRCLE('',#740,0.0014);
#19=CIRCLE('',#741,0.0014);
#20=CIRCLE('',#751,0.0025);
#21=CIRCLE('',#752,0.0025);
#22=CIRCLE('',#753,0.0025);
#23=CIRCLE('',#754,0.0025);
#24=CIRCLE('',#765,0.0025);
#25=CIRCLE('',#768,0.0025);
#26=CIRCLE('',#771,0.0025);
#27=CIRCLE('',#774,0.0025);
#28=CYLINDRICAL_SURFACE('',#730,0.0014);
#29=CYLINDRICAL_SURFACE('',#733,0.0014);
#30=CYLINDRICAL_SURFACE('',#736,0.0014);
#31=CYLINDRICAL_SURFACE('',#739,0.0014);
#32=CYLINDRICAL_SURFACE('',#766,0.0025);
#33=CYLINDRICAL_SURFACE('',#769,0.0025);
#34=CYLINDRICAL_SURFACE('',#772,0.0025);
#35=CYLINDRICAL_SURFACE('',#775,0.0025);
#36=ORIENTED_EDGE('',*,*,#216,.F.);
#37=ORIENTED_EDGE('',*,*,#217,.T.);
#38=ORIENTED_EDGE('',*,*,#218,.T.);
#39=ORIENTED_EDGE('',*,*,#219,.F.);
#40=ORIENTED_EDGE('',*,*,#220,.T.);
#41=ORIENTED_EDGE('',*,*,#221,.F.);
#42=ORIENTED_EDGE('',*,*,#222,.T.);
#43=ORIENTED_EDGE('',*,*,#223,.F.);
#44=ORIENTED_EDGE('',*,*,#224,.T.);
#45=ORIENTED_EDGE('',*,*,#225,.F.);
#46=ORIENTED_EDGE('',*,*,#226,.T.);
#47=ORIENTED_EDGE('',*,*,#227,.F.);
#48=ORIENTED_EDGE('',*,*,#228,.F.);
#49=ORIENTED_EDGE('',*,*,#229,.T.);
#50=ORIENTED_EDGE('',*,*,#230,.T.);
#51=ORIENTED_EDGE('',*,*,#231,.T.);
#52=ORIENTED_EDGE('',*,*,#230,.F.);
#53=ORIENTED_EDGE('',*,*,#232,.T.);
#54=ORIENTED_EDGE('',*,*,#233,.T.);
#55=ORIENTED_EDGE('',*,*,#234,.T.);
#56=ORIENTED_EDGE('',*,*,#233,.F.);
#57=ORIENTED_EDGE('',*,*,#235,.T.);
#58=ORIENTED_EDGE('',*,*,#236,.T.);
#59=ORIENTED_EDGE('',*,*,#237,.T.);
#60=ORIENTED_EDGE('',*,*,#236,.F.);
#61=ORIENTED_EDGE('',*,*,#238,.T.);
#62=ORIENTED_EDGE('',*,*,#239,.T.);
#63=ORIENTED_EDGE('',*,*,#240,.T.);
#64=ORIENTED_EDGE('',*,*,#239,.F.);
#65=ORIENTED_EDGE('',*,*,#241,.T.);
#66=ORIENTED_EDGE('',*,*,#242,.T.);
#67=ORIENTED_EDGE('',*,*,#243,.T.);
#68=ORIENTED_EDGE('',*,*,#242,.F.);
#69=ORIENTED_EDGE('',*,*,#244,.T.);
#70=ORIENTED_EDGE('',*,*,#245,.T.);
#71=ORIENTED_EDGE('',*,*,#246,.T.);
#72=ORIENTED_EDGE('',*,*,#247,.T.);
#73=ORIENTED_EDGE('',*,*,#248,.T.);
#74=ORIENTED_EDGE('',*,*,#249,.T.);
#75=ORIENTED_EDGE('',*,*,#245,.F.);
#76=ORIENTED_EDGE('',*,*,#250,.T.);
#77=ORIENTED_EDGE('',*,*,#251,.T.);
#78=ORIENTED_EDGE('',*,*,#252,.T.);
#79=ORIENTED_EDGE('',*,*,#253,.F.);
#80=ORIENTED_EDGE('',*,*,#251,.F.);
#81=ORIENTED_EDGE('',*,*,#254,.T.);
#82=ORIENTED_EDGE('',*,*,#228,.T.);
#83=ORIENTED_EDGE('',*,*,#255,.T.);
#84=ORIENTED_EDGE('',*,*,#256,.T.);
#85=ORIENTED_EDGE('',*,*,#257,.T.);
#86=ORIENTED_EDGE('',*,*,#258,.T.);
#87=ORIENTED_EDGE('',*,*,#259,.T.);
#88=ORIENTED_EDGE('',*,*,#260,.T.);
#89=ORIENTED_EDGE('',*,*,#261,.T.);
#90=ORIENTED_EDGE('',*,*,#262,.T.);
#91=ORIENTED_EDGE('',*,*,#263,.T.);
#92=ORIENTED_EDGE('',*,*,#264,.F.);
#93=ORIENTED_EDGE('',*,*,#265,.F.);
#94=ORIENTED_EDGE('',*,*,#266,.F.);
#95=ORIENTED_EDGE('',*,*,#267,.F.);
#96=ORIENTED_EDGE('',*,*,#268,.F.);
#97=ORIENTED_EDGE('',*,*,#269,.F.);
#98=ORIENTED_EDGE('',*,*,#218,.F.);
#99=ORIENTED_EDGE('',*,*,#270,.F.);
#100=ORIENTED_EDGE('',*,*,#271,.F.);
#101=ORIENTED_EDGE('',*,*,#272,.F.);
#102=ORIENTED_EDGE('',*,*,#273,.F.);
#103=ORIENTED_EDGE('',*,*,#274,.F.);
#104=ORIENTED_EDGE('',*,*,#224,.F.);
#105=ORIENTED_EDGE('',*,*,#222,.F.);
#106=ORIENTED_EDGE('',*,*,#220,.F.);
#107=ORIENTED_EDGE('',*,*,#226,.F.);
#108=ORIENTED_EDGE('',*,*,#268,.T.);
#109=ORIENTED_EDGE('',*,*,#275,.F.);
#110=ORIENTED_EDGE('',*,*,#276,.F.);
#111=ORIENTED_EDGE('',*,*,#277,.T.);
#112=ORIENTED_EDGE('',*,*,#274,.T.);
#113=ORIENTED_EDGE('',*,*,#278,.F.);
#114=ORIENTED_EDGE('',*,*,#279,.F.);
#115=ORIENTED_EDGE('',*,*,#275,.T.);
#116=ORIENTED_EDGE('',*,*,#273,.T.);
#117=ORIENTED_EDGE('',*,*,#280,.F.);
#118=ORIENTED_EDGE('',*,*,#281,.F.);
#119=ORIENTED_EDGE('',*,*,#278,.T.);
#120=ORIENTED_EDGE('',*,*,#272,.T.);
#121=ORIENTED_EDGE('',*,*,#282,.F.);
#122=ORIENTED_EDGE('',*,*,#283,.F.);
#123=ORIENTED_EDGE('',*,*,#280,.T.);
#124=ORIENTED_EDGE('',*,*,#271,.T.);
#125=ORIENTED_EDGE('',*,*,#284,.F.);
#126=ORIENTED_EDGE('',*,*,#285,.F.);
#127=ORIENTED_EDGE('',*,*,#282,.T.);
#128=ORIENTED_EDGE('',*,*,#270,.T.);
#129=ORIENTED_EDGE('',*,*,#217,.F.);
#130=ORIENTED_EDGE('',*,*,#286,.F.);
#131=ORIENTED_EDGE('',*,*,#287,.F.);
#132=ORIENTED_EDGE('',*,*,#284,.T.);
#133=ORIENTED_EDGE('',*,*,#269,.T.);
#134=ORIENTED_EDGE('',*,*,#277,.F.);
#135=ORIENTED_EDGE('',*,*,#288,.F.);
#136=ORIENTED_EDGE('',*,*,#289,.T.);
#137=ORIENTED_EDGE('',*,*,#219,.T.);
#138=ORIENTED_EDGE('',*,*,#290,.F.);
#139=ORIENTED_EDGE('',*,*,#288,.T.);
#140=ORIENTED_EDGE('',*,*,#276,.T.);
#141=ORIENTED_EDGE('',*,*,#279,.T.);
#142=ORIENTED_EDGE('',*,*,#281,.T.);
#143=ORIENTED_EDGE('',*,*,#283,.T.);
#144=ORIENTED_EDGE('',*,*,#285,.T.);
#145=ORIENTED_EDGE('',*,*,#287,.T.);
#146=ORIENTED_EDGE('',*,*,#291,.T.);
#147=ORIENTED_EDGE('',*,*,#252,.F.);
#148=ORIENTED_EDGE('',*,*,#255,.F.);
#149=ORIENTED_EDGE('',*,*,#231,.F.);
#150=ORIENTED_EDGE('',*,*,#234,.F.);
#151=ORIENTED_EDGE('',*,*,#237,.F.);
#152=ORIENTED_EDGE('',*,*,#240,.F.);
#153=ORIENTED_EDGE('',*,*,#243,.F.);
#154=ORIENTED_EDGE('',*,*,#246,.F.);
#155=ORIENTED_EDGE('',*,*,#249,.F.);
#156=ORIENTED_EDGE('',*,*,#292,.T.);
#157=ORIENTED_EDGE('',*,*,#225,.T.);
#158=ORIENTED_EDGE('',*,*,#292,.F.);
#159=ORIENTED_EDGE('',*,*,#267,.T.);
#160=ORIENTED_EDGE('',*,*,#293,.T.);
#161=ORIENTED_EDGE('',*,*,#223,.T.);
#162=ORIENTED_EDGE('',*,*,#293,.F.);
#163=ORIENTED_EDGE('',*,*,#266,.T.);
#164=ORIENTED_EDGE('',*,*,#294,.T.);
#165=ORIENTED_EDGE('',*,*,#221,.T.);
#166=ORIENTED_EDGE('',*,*,#294,.F.);
#167=ORIENTED_EDGE('',*,*,#265,.T.);
#168=ORIENTED_EDGE('',*,*,#295,.T.);
#169=ORIENTED_EDGE('',*,*,#227,.T.);
#170=ORIENTED_EDGE('',*,*,#295,.F.);
#171=ORIENTED_EDGE('',*,*,#264,.T.);
#172=ORIENTED_EDGE('',*,*,#296,.F.);
#173=ORIENTED_EDGE('',*,*,#261,.F.);
#174=ORIENTED_EDGE('',*,*,#297,.F.);
#175=ORIENTED_EDGE('',*,*,#229,.F.);
#176=ORIENTED_EDGE('',*,*,#297,.T.);
#177=ORIENTED_EDGE('',*,*,#260,.F.);
#178=ORIENTED_EDGE('',*,*,#298,.F.);
#179=ORIENTED_EDGE('',*,*,#232,.F.);
#180=ORIENTED_EDGE('',*,*,#296,.T.);
#181=ORIENTED_EDGE('',*,*,#254,.F.);
#182=ORIENTED_EDGE('',*,*,#299,.F.);
#183=ORIENTED_EDGE('',*,*,#262,.F.);
#184=ORIENTED_EDGE('',*,*,#298,.T.);
#185=ORIENTED_EDGE('',*,*,#259,.F.);
#186=ORIENTED_EDGE('',*,*,#300,.F.);
#187=ORIENTED_EDGE('',*,*,#235,.F.);
#188=ORIENTED_EDGE('',*,*,#299,.T.);
#189=ORIENTED_EDGE('',*,*,#250,.F.);
#190=ORIENTED_EDGE('',*,*,#301,.F.);
#191=ORIENTED_EDGE('',*,*,#263,.F.);
#192=ORIENTED_EDGE('',*,*,#300,.T.);
#193=ORIENTED_EDGE('',*,*,#258,.F.);
#194=ORIENTED_EDGE('',*,*,#302,.F.);
#195=ORIENTED_EDGE('',*,*,#238,.F.);
#196=ORIENTED_EDGE('',*,*,#301,.T.);
#197=ORIENTED_EDGE('',*,*,#244,.F.);
#198=ORIENTED_EDGE('',*,*,#303,.F.);
#199=ORIENTED_EDGE('',*,*,#256,.F.);
#200=ORIENTED_EDGE('',*,*,#302,.T.);
#201=ORIENTED_EDGE('',*,*,#257,.F.);
#202=ORIENTED_EDGE('',*,*,#303,.T.);
#203=ORIENTED_EDGE('',*,*,#241,.F.);
#204=ORIENTED_EDGE('',*,*,#290,.T.);
#205=ORIENTED_EDGE('',*,*,#248,.F.);
#206=ORIENTED_EDGE('',*,*,#304,.F.);
#207=ORIENTED_EDGE('',*,*,#289,.F.);
#208=ORIENTED_EDGE('',*,*,#291,.F.);
#209=ORIENTED_EDGE('',*,*,#286,.T.);
#210=ORIENTED_EDGE('',*,*,#305,.T.);
#211=ORIENTED_EDGE('',*,*,#253,.T.);
#212=ORIENTED_EDGE('',*,*,#216,.T.);
#213=ORIENTED_EDGE('',*,*,#304,.T.);
#214=ORIENTED_EDGE('',*,*,#247,.F.);
#215=ORIENTED_EDGE('',*,*,#305,.F.);
#216=EDGE_CURVE('',#306,#307,#368,.T.);
#217=EDGE_CURVE('',#306,#308,#369,.T.);
#218=EDGE_CURVE('',#308,#309,#370,.T.);
#219=EDGE_CURVE('',#307,#309,#371,.T.);
#220=EDGE_CURVE('',#310,#310,#12,.T.);
#221=EDGE_CURVE('',#311,#311,#13,.F.);
#222=EDGE_CURVE('',#312,#312,#14,.T.);
#223=EDGE_CURVE('',#313,#313,#15,.F.);
#224=EDGE_CURVE('',#314,#314,#16,.T.);
#225=EDGE_CURVE('',#315,#315,#17,.F.);
#226=EDGE_CURVE('',#316,#316,#18,.T.);
#227=EDGE_CURVE('',#317,#317,#19,.F.);
#228=EDGE_CURVE('',#318,#319,#372,.T.);
#229=EDGE_CURVE('',#318,#320,#373,.T.);
#230=EDGE_CURVE('',#320,#321,#374,.T.);
#231=EDGE_CURVE('',#321,#319,#375,.T.);
#232=EDGE_CURVE('',#320,#322,#376,.T.);
#233=EDGE_CURVE('',#322,#323,#377,.T.);
#234=EDGE_CURVE('',#323,#321,#378,.T.);
#235=EDGE_CURVE('',#322,#324,#379,.T.);
#236=EDGE_CURVE('',#324,#325,#380,.T.);
#237=EDGE_CURVE('',#325,#323,#381,.T.);
#238=EDGE_CURVE('',#324,#326,#382,.T.);
#239=EDGE_CURVE('',#326,#327,#383,.T.);
#240=EDGE_CURVE('',#327,#325,#384,.T.);
#241=EDGE_CURVE('',#326,#328,#385,.T.);
#242=EDGE_CURVE('',#328,#329,#386,.T.);
#243=EDGE_CURVE('',#329,#327,#387,.T.);
#244=EDGE_CURVE('',#328,#330,#388,.T.);
#245=EDGE_CURVE('',#330,#331,#389,.T.);
#246=EDGE_CURVE('',#331,#329,#390,.T.);
#247=EDGE_CURVE('',#332,#333,#391,.T.);
#248=EDGE_CURVE('',#333,#334,#392,.T.);
#249=EDGE_CURVE('',#334,#331,#393,.T.);
#250=EDGE_CURVE('',#330,#335,#394,.T.);
#251=EDGE_CURVE('',#335,#336,#395,.T.);
#252=EDGE_CURVE('',#336,#337,#396,.T.);
#253=EDGE_CURVE('',#332,#337,#397,.T.);
#254=EDGE_CURVE('',#335,#318,#398,.T.);
#255=EDGE_CURVE('',#319,#336,#399,.T.);
#256=EDGE_CURVE('',#338,#339,#400,.T.);
#257=EDGE_CURVE('',#339,#340,#401,.T.);
#258=EDGE_CURVE('',#340,#341,#402,.T.);
#259=EDGE_CURVE('',#341,#342,#403,.T.);
#260=EDGE_CURVE('',#342,#343,#404,.T.);
#261=EDGE_CURVE('',#343,#344,#405,.T.);
#262=EDGE_CURVE('',#344,#345,#406,.T.);
#263=EDGE_CURVE('',#345,#338,#407,.T.);
#264=EDGE_CURVE('',#346,#346,#20,.T.);
#265=EDGE_CURVE('',#347,#347,#21,.T.);
#266=EDGE_CURVE('',#348,#348,#22,.T.);
#267=EDGE_CURVE('',#349,#349,#23,.T.);
#268=EDGE_CURVE('',#350,#351,#408,.T.);
#269=EDGE_CURVE('',#309,#350,#409,.T.);
#270=EDGE_CURVE('',#352,#308,#410,.T.);
#271=EDGE_CURVE('',#353,#352,#411,.T.);
#272=EDGE_CURVE('',#354,#353,#412,.T.);
#273=EDGE_CURVE('',#355,#354,#413,.T.);
#274=EDGE_CURVE('',#351,#355,#414,.T.);
#275=EDGE_CURVE('',#356,#351,#415,.T.);
#276=EDGE_CURVE('',#357,#356,#416,.T.);
#277=EDGE_CURVE('',#357,#350,#417,.T.);
#278=EDGE_CURVE('',#358,#355,#418,.T.);
#279=EDGE_CURVE('',#356,#358,#419,.T.);
#280=EDGE_CURVE('',#359,#354,#420,.T.);
#281=EDGE_CURVE('',#358,#359,#421,.T.);
#282=EDGE_CURVE('',#360,#353,#422,.T.);
#283=EDGE_CURVE('',#359,#360,#423,.T.);
#284=EDGE_CURVE('',#361,#352,#424,.T.);
#285=EDGE_CURVE('',#360,#361,#425,.T.);
#286=EDGE_CURVE('',#362,#306,#426,.T.);
#287=EDGE_CURVE('',#361,#362,#427,.T.);
#288=EDGE_CURVE('',#363,#357,#428,.T.);
#289=EDGE_CURVE('',#363,#307,#429,.T.);
#290=EDGE_CURVE('',#363,#334,#430,.T.);
#291=EDGE_CURVE('',#362,#337,#431,.T.);
#292=EDGE_CURVE('',#364,#364,#24,.T.);
#293=EDGE_CURVE('',#365,#365,#25,.T.);
#294=EDGE_CURVE('',#366,#366,#26,.T.);
#295=EDGE_CURVE('',#367,#367,#27,.T.);
#296=EDGE_CURVE('',#344,#318,#432,.F.);
#297=EDGE_CURVE('',#320,#343,#433,.T.);
#298=EDGE_CURVE('',#322,#342,#434,.F.);
#299=EDGE_CURVE('',#345,#335,#435,.F.);
#300=EDGE_CURVE('',#324,#341,#436,.T.);
#301=EDGE_CURVE('',#338,#330,#437,.T.);
#302=EDGE_CURVE('',#326,#340,#438,.T.);
#303=EDGE_CURVE('',#339,#328,#439,.T.);
#304=EDGE_CURVE('',#307,#333,#440,.T.);
#305=EDGE_CURVE('',#306,#332,#441,.T.);
#306=VERTEX_POINT('',#982);
#307=VERTEX_POINT('',#983);
#308=VERTEX_POINT('',#985);
#309=VERTEX_POINT('',#987);
#310=VERTEX_POINT('',#991);
#311=VERTEX_POINT('',#993);
#312=VERTEX_POINT('',#996);
#313=VERTEX_POINT('',#998);
#314=VERTEX_POINT('',#1001);
#315=VERTEX_POINT('',#1003);
#316=VERTEX_POINT('',#1006);
#317=VERTEX_POINT('',#1008);
#318=VERTEX_POINT('',#1011);
#319=VERTEX_POINT('',#1012);
#320=VERTEX_POINT('',#1014);
#321=VERTEX_POINT('',#1016);
#322=VERTEX_POINT('',#1020);
#323=VERTEX_POINT('',#1022);
#324=VERTEX_POINT('',#1026);
#325=VERTEX_POINT('',#1028);
#326=VERTEX_POINT('',#1032);
#327=VERTEX_POINT('',#1034);
#328=VERTEX_POINT('',#1038);
#329=VERTEX_POINT('',#1040);
#330=VERTEX_POINT('',#1044);
#331=VERTEX_POINT('',#1046);
#332=VERTEX_POINT('',#1050);
#333=VERTEX_POINT('',#1051);
#334=VERTEX_POINT('',#1053);
#335=VERTEX_POINT('',#1056);
#336=VERTEX_POINT('',#1058);
#337=VERTEX_POINT('',#1060);
#338=VERTEX_POINT('',#1067);
#339=VERTEX_POINT('',#1068);
#340=VERTEX_POINT('',#1070);
#341=VERTEX_POINT('',#1072);
#342=VERTEX_POINT('',#1074);
#343=VERTEX_POINT('',#1076);
#344=VERTEX_POINT('',#1078);
#345=VERTEX_POINT('',#1080);
#346=VERTEX_POINT('',#1083);
#347=VERTEX_POINT('',#1085);
#348=VERTEX_POINT('',#1087);
#349=VERTEX_POINT('',#1089);
#350=VERTEX_POINT('',#1092);
#351=VERTEX_POINT('',#1093);
#352=VERTEX_POINT('',#1096);
#353=VERTEX_POINT('',#1098);
#354=VERTEX_POINT('',#1100);
#355=VERTEX_POINT('',#1102);
#356=VERTEX_POINT('',#1106);
#357=VERTEX_POINT('',#1108);
#358=VERTEX_POINT('',#1112);
#359=VERTEX_POINT('',#1116);
#360=VERTEX_POINT('',#1120);
#361=VERTEX_POINT('',#1124);
#362=VERTEX_POINT('',#1128);
#363=VERTEX_POINT('',#1132);
#364=VERTEX_POINT('',#1139);
#365=VERTEX_POINT('',#1143);
#366=VERTEX_POINT('',#1147);
#367=VERTEX_POINT('',#1151);
#368=LINE('',#981,#442);
#369=LINE('',#984,#443);
#370=LINE('',#986,#444);
#371=LINE('',#988,#445);
#372=LINE('',#1010,#446);
#373=LINE('',#1013,#447);
#374=LINE('',#1015,#448);
#375=LINE('',#1017,#449);
#376=LINE('',#1019,#450);
#377=LINE('',#1021,#451);
#378=LINE('',#1023,#452);
#379=LINE('',#1025,#453);
#380=LINE('',#1027,#454);
#381=LINE('',#1029,#455);
#382=LINE('',#1031,#456);
#383=LINE('',#1033,#457);
#384=LINE('',#1035,#458);
#385=LINE('',#1037,#459);
#386=LINE('',#1039,#460);
#387=LINE('',#1041,#461);
#388=LINE('',#1043,#462);
#389=LINE('',#1045,#463);
#390=LINE('',#1047,#464);
#391=LINE('',#1049,#465);
#392=LINE('',#1052,#466);
#393=LINE('',#1054,#467);
#394=LINE('',#1055,#468);
#395=LINE('',#1057,#469);
#396=LINE('',#1059,#470);
#397=LINE('',#1061,#471);
#398=LINE('',#1063,#472);
#399=LINE('',#1064,#473);
#400=LINE('',#1066,#474);
#401=LINE('',#1069,#475);
#402=LINE('',#1071,#476);
#403=LINE('',#1073,#477);
#404=LINE('',#1075,#478);
#405=LINE('',#1077,#479);
#406=LINE('',#1079,#480);
#407=LINE('',#1081,#481);
#408=LINE('',#1091,#482);
#409=LINE('',#1094,#483);
#410=LINE('',#1095,#484);
#411=LINE('',#1097,#485);
#412=LINE('',#1099,#486);
#413=LINE('',#1101,#487);
#414=LINE('',#1103,#488);
#415=LINE('',#1105,#489);
#416=LINE('',#1107,#490);
#417=LINE('',#1109,#491);
#418=LINE('',#1111,#492);
#419=LINE('',#1113,#493);
#420=LINE('',#1115,#494);
#421=LINE('',#1117,#495);
#422=LINE('',#1119,#496);
#423=LINE('',#1121,#497);
#424=LINE('',#1123,#498);
#425=LINE('',#1125,#499);
#426=LINE('',#1127,#500);
#427=LINE('',#1129,#501);
#428=LINE('',#1131,#502);
#429=LINE('',#1133,#503);
#430=LINE('',#1135,#504);
#431=LINE('',#1136,#505);
#432=LINE('',#1154,#506);
#433=LINE('',#1155,#507);
#434=LINE('',#1157,#508);
#435=LINE('',#1159,#509);
#436=LINE('',#1161,#510);
#437=LINE('',#1163,#511);
#438=LINE('',#1165,#512);
#439=LINE('',#1167,#513);
#440=LINE('',#1170,#514);
#441=LINE('',#1172,#515);
#442=VECTOR('',#791,1.);
#443=VECTOR('',#792,1.);
#444=VECTOR('',#793,1.);
#445=VECTOR('',#794,1.);
#446=VECTOR('',#821,1.);
#447=VECTOR('',#822,1.);
#448=VECTOR('',#823,1.);
#449=VECTOR('',#824,1.);
#450=VECTOR('',#827,1.);
#451=VECTOR('',#828,1.);
#452=VECTOR('',#829,1.);
#453=VECTOR('',#832,1.);
#454=VECTOR('',#833,1.);
#455=VECTOR('',#834,1.);
#456=VECTOR('',#837,1.);
#457=VECTOR('',#838,1.);
#458=VECTOR('',#839,1.);
#459=VECTOR('',#842,1.);
#460=VECTOR('',#843,1.);
#461=VECTOR('',#844,1.);
#462=VECTOR('',#847,1.);
#463=VECTOR('',#848,1.);
#464=VECTOR('',#849,1.);
#465=VECTOR('',#852,1.);
#466=VECTOR('',#853,1.);
#467=VECTOR('',#854,1.);
#468=VECTOR('',#855,1.);
#469=VECTOR('',#856,1.);
#470=VECTOR('',#857,1.);
#471=VECTOR('',#858,1.);
#472=VECTOR('',#861,1.);
#473=VECTOR('',#862,1.);
#474=VECTOR('',#865,1.);
#475=VECTOR('',#866,1.);
#476=VECTOR('',#867,1.);
#477=VECTOR('',#868,1.);
#478=VECTOR('',#869,1.);
#479=VECTOR('',#870,1.);
#480=VECTOR('',#871,1.);
#481=VECTOR('',#872,1.);
#482=VECTOR('',#883,1.);
#483=VECTOR('',#884,1.);
#484=VECTOR('',#885,1.);
#485=VECTOR('',#886,1.);
#486=VECTOR('',#887,1.);
#487=VECTOR('',#888,1.);
#488=VECTOR('',#889,1.);
#489=VECTOR('',#892,1.);
#490=VECTOR('',#893,1.);
#491=VECTOR('',#894,1.);
#492=VECTOR('',#897,1.);
#493=VECTOR('',#898,1.);
#494=VECTOR('',#901,1.);
#495=VECTOR('',#902,1.);
#496=VECTOR('',#905,1.);
#497=VECTOR('',#906,1.);
#498=VECTOR('',#909,1.);
#499=VECTOR('',#910,1.);
#500=VECTOR('',#913,1.);
#501=VECTOR('',#914,1.);
#502=VECTOR('',#917,1.);
#503=VECTOR('',#918,1.);
#504=VECTOR('',#921,1.);
#505=VECTOR('',#922,1.);
#506=VECTOR('',#949,1.);
#507=VECTOR('',#950,1.);
#508=VECTOR('',#953,1.);
#509=VECTOR('',#956,1.);
#510=VECTOR('',#959,1.);
#511=VECTOR('',#962,1.);
#512=VECTOR('',#965,1.);
#513=VECTOR('',#968,1.);
#514=VECTOR('',#973,1.);
#515=VECTOR('',#976,1.);
#516=EDGE_LOOP('',(#36,#37,#38,#39));
#517=EDGE_LOOP('',(#40));
#518=EDGE_LOOP('',(#41));
#519=EDGE_LOOP('',(#42));
#520=EDGE_LOOP('',(#43));
#521=EDGE_LOOP('',(#44));
#522=EDGE_LOOP('',(#45));
#523=EDGE_LOOP('',(#46));
#524=EDGE_LOOP('',(#47));
#525=EDGE_LOOP('',(#48,#49,#50,#51));
#526=EDGE_LOOP('',(#52,#53,#54,#55));
#527=EDGE_LOOP('',(#56,#57,#58,#59));
#528=EDGE_LOOP('',(#60,#61,#62,#63));
#529=EDGE_LOOP('',(#64,#65,#66,#67));
#530=EDGE_LOOP('',(#68,#69,#70,#71));
#531=EDGE_LOOP('',(#72,#73,#74,#75,#76,#77,#78,#79));
#532=EDGE_LOOP('',(#80,#81,#82,#83));
#533=EDGE_LOOP('',(#84,#85,#86,#87,#88,#89,#90,#91));
#534=EDGE_LOOP('',(#92));
#535=EDGE_LOOP('',(#93));
#536=EDGE_LOOP('',(#94));
#537=EDGE_LOOP('',(#95));
#538=EDGE_LOOP('',(#96,#97,#98,#99,#100,#101,#102,#103));
#539=EDGE_LOOP('',(#104));
#540=EDGE_LOOP('',(#105));
#541=EDGE_LOOP('',(#106));
#542=EDGE_LOOP('',(#107));
#543=EDGE_LOOP('',(#108,#109,#110,#111));
#544=EDGE_LOOP('',(#112,#113,#114,#115));
#545=EDGE_LOOP('',(#116,#117,#118,#119));
#546=EDGE_LOOP('',(#120,#121,#122,#123));
#547=EDGE_LOOP('',(#124,#125,#126,#127));
#548=EDGE_LOOP('',(#128,#129,#130,#131,#132));
#549=EDGE_LOOP('',(#133,#134,#135,#136,#137));
#550=EDGE_LOOP('',(#138,#139,#140,#141,#142,#143,#144,#145,#146,#147,#148,
#149,#150,#151,#152,#153,#154,#155));
#551=EDGE_LOOP('',(#156));
#552=EDGE_LOOP('',(#157));
#553=EDGE_LOOP('',(#158));
#554=EDGE_LOOP('',(#159));
#555=EDGE_LOOP('',(#160));
#556=EDGE_LOOP('',(#161));
#557=EDGE_LOOP('',(#162));
#558=EDGE_LOOP('',(#163));
#559=EDGE_LOOP('',(#164));
#560=EDGE_LOOP('',(#165));
#561=EDGE_LOOP('',(#166));
#562=EDGE_LOOP('',(#167));
#563=EDGE_LOOP('',(#168));
#564=EDGE_LOOP('',(#169));
#565=EDGE_LOOP('',(#170));
#566=EDGE_LOOP('',(#171));
#567=EDGE_LOOP('',(#172,#173,#174,#175));
#568=EDGE_LOOP('',(#176,#177,#178,#179));
#569=EDGE_LOOP('',(#180,#181,#182,#183));
#570=EDGE_LOOP('',(#184,#185,#186,#187));
#571=EDGE_LOOP('',(#188,#189,#190,#191));
#572=EDGE_LOOP('',(#192,#193,#194,#195));
#573=EDGE_LOOP('',(#196,#197,#198,#199));
#574=EDGE_LOOP('',(#200,#201,#202,#203));
#575=EDGE_LOOP('',(#204,#205,#206,#207));
#576=EDGE_LOOP('',(#208,#209,#210,#211));
#577=EDGE_LOOP('',(#212,#213,#214,#215));
#578=FACE_BOUND('',#516,.T.);
#579=FACE_BOUND('',#517,.T.);
#580=FACE_BOUND('',#518,.T.);
#581=FACE_BOUND('',#519,.T.);
#582=FACE_BOUND('',#520,.T.);
#583=FACE_BOUND('',#521,.T.);
#584=FACE_BOUND('',#522,.T.);
#585=FACE_BOUND('',#523,.T.);
#586=FACE_BOUND('',#524,.T.);
#587=FACE_BOUND('',#525,.T.);
#588=FACE_BOUND('',#526,.T.);
#589=FACE_BOUND('',#527,.T.);
#590=FACE_BOUND('',#528,.T.);
#591=FACE_BOUND('',#529,.T.);
#592=FACE_BOUND('',#530,.T.);
#593=FACE_BOUND('',#531,.T.);
#594=FACE_BOUND('',#532,.T.);
#595=FACE_BOUND('',#533,.T.);
#596=FACE_BOUND('',#534,.T.);
#597=FACE_BOUND('',#535,.T.);
#598=FACE_BOUND('',#536,.T.);
#599=FACE_BOUND('',#537,.T.);
#600=FACE_BOUND('',#538,.T.);
#601=FACE_BOUND('',#539,.T.);
#602=FACE_BOUND('',#540,.T.);
#603=FACE_BOUND('',#541,.T.);
#604=FACE_BOUND('',#542,.T.);
#605=FACE_BOUND('',#543,.T.);
#606=FACE_BOUND('',#544,.T.);
#607=FACE_BOUND('',#545,.T.);
#608=FACE_BOUND('',#546,.T.);
#609=FACE_BOUND('',#547,.T.);
#610=FACE_BOUND('',#548,.T.);
#611=FACE_BOUND('',#549,.T.);
#612=FACE_BOUND('',#550,.T.);
#613=FACE_BOUND('',#551,.T.);
#614=FACE_BOUND('',#552,.T.);
#615=FACE_BOUND('',#553,.T.);
#616=FACE_BOUND('',#554,.T.);
#617=FACE_BOUND('',#555,.T.);
#618=FACE_BOUND('',#556,.T.);
#619=FACE_BOUND('',#557,.T.);
#620=FACE_BOUND('',#558,.T.);
#621=FACE_BOUND('',#559,.T.);
#622=FACE_BOUND('',#560,.T.);
#623=FACE_BOUND('',#561,.T.);
#624=FACE_BOUND('',#562,.T.);
#625=FACE_BOUND('',#563,.T.);
#626=FACE_BOUND('',#564,.T.);
#627=FACE_BOUND('',#565,.T.);
#628=FACE_BOUND('',#566,.T.);
#629=FACE_BOUND('',#567,.T.);
#630=FACE_BOUND('',#568,.T.);
#631=FACE_BOUND('',#569,.T.);
#632=FACE_BOUND('',#570,.T.);
#633=FACE_BOUND('',#571,.T.);
#634=FACE_BOUND('',#572,.T.);
#635=FACE_BOUND('',#573,.T.);
#636=FACE_BOUND('',#574,.T.);
#637=FACE_BOUND('',#575,.T.);
#638=FACE_BOUND('',#576,.T.);
#639=FACE_BOUND('',#577,.T.);
#640=PLANE('',#729);
#641=PLANE('',#742);
#642=PLANE('',#743);
#643=PLANE('',#744);
#644=PLANE('',#745);
#645=PLANE('',#746);
#646=PLANE('',#747);
#647=PLANE('',#748);
#648=PLANE('',#749);
#649=PLANE('',#750);
#650=PLANE('',#755);
#651=PLANE('',#756);
#652=PLANE('',#757);
#653=PLANE('',#758);
#654=PLANE('',#759);
#655=PLANE('',#760);
#656=PLANE('',#761);
#657=PLANE('',#762);
#658=PLANE('',#763);
#659=PLANE('',#764);
#660=PLANE('',#767);
#661=PLANE('',#770);
#662=PLANE('',#773);
#663=PLANE('',#776);
#664=PLANE('',#777);
#665=PLANE('',#778);
#666=PLANE('',#779);
#667=PLANE('',#780);
#668=PLANE('',#781);
#669=PLANE('',#782);
#670=PLANE('',#783);
#671=PLANE('',#784);
#672=PLANE('',#785);
#673=PLANE('',#786);
#674=ADVANCED_FACE('',(#578),#640,.F.);
#675=ADVANCED_FACE('',(#579,#580),#28,.F.);
#676=ADVANCED_FACE('',(#581,#582),#29,.F.);
#677=ADVANCED_FACE('',(#583,#584),#30,.F.);
#678=ADVANCED_FACE('',(#585,#586),#31,.F.);
#679=ADVANCED_FACE('',(#587),#641,.F.);
#680=ADVANCED_FACE('',(#588),#642,.T.);
#681=ADVANCED_FACE('',(#589),#643,.T.);
#682=ADVANCED_FACE('',(#590),#644,.F.);
#683=ADVANCED_FACE('',(#591),#645,.T.);
#684=ADVANCED_FACE('',(#592),#646,.F.);
#685=ADVANCED_FACE('',(#593),#647,.F.);
#686=ADVANCED_FACE('',(#594),#648,.T.);
#687=ADVANCED_FACE('',(#595,#596,#597,#598,#599),#649,.F.);
#688=ADVANCED_FACE('',(#600,#601,#602,#603,#604),#650,.T.);
#689=ADVANCED_FACE('',(#605),#651,.F.);
#690=ADVANCED_FACE('',(#606),#652,.F.);
#691=ADVANCED_FACE('',(#607),#653,.F.);
#692=ADVANCED_FACE('',(#608),#654,.F.);
#693=ADVANCED_FACE('',(#609),#655,.F.);
#694=ADVANCED_FACE('',(#610),#656,.F.);
#695=ADVANCED_FACE('',(#611),#657,.F.);
#696=ADVANCED_FACE('',(#612),#658,.T.);
#697=ADVANCED_FACE('',(#613,#614),#659,.T.);
#698=ADVANCED_FACE('',(#615,#616),#32,.F.);
#699=ADVANCED_FACE('',(#617,#618),#660,.T.);
#700=ADVANCED_FACE('',(#619,#620),#33,.F.);
#701=ADVANCED_FACE('',(#621,#622),#661,.T.);
#702=ADVANCED_FACE('',(#623,#624),#34,.F.);
#703=ADVANCED_FACE('',(#625,#626),#662,.T.);
#704=ADVANCED_FACE('',(#627,#628),#35,.F.);
#705=ADVANCED_FACE('',(#629),#663,.F.);
#706=ADVANCED_FACE('',(#630),#664,.T.);
#707=ADVANCED_FACE('',(#631),#665,.T.);
#708=ADVANCED_FACE('',(#632),#666,.T.);
#709=ADVANCED_FACE('',(#633),#667,.F.);
#710=ADVANCED_FACE('',(#634),#668,.F.);
#711=ADVANCED_FACE('',(#635),#669,.F.);
#712=ADVANCED_FACE('',(#636),#670,.T.);
#713=ADVANCED_FACE('',(#637),#671,.F.);
#714=ADVANCED_FACE('',(#638),#672,.T.);
#715=ADVANCED_FACE('',(#639),#673,.T.);
#716=CLOSED_SHELL('',(#674,#675,#676,#677,#678,#679,#680,#681,#682,#683,
#684,#685,#686,#687,#688,#689,#690,#691,#692,#693,#694,#695,#696,#697,#698,
#699,#700,#701,#702,#703,#704,#705,#706,#707,#708,#709,#710,#711,#712,#713,
#714,#715));
#717=STYLED_ITEM('',(#718),#725);
#718=PRESENTATION_STYLE_ASSIGNMENT((#719));
#719=SURFACE_STYLE_USAGE(.BOTH.,#720);
#720=SURFACE_SIDE_STYLE('',(#721));
#721=SURFACE_STYLE_FILL_AREA(#722);
#722=FILL_AREA_STYLE('',(#723));
#723=FILL_AREA_STYLE_COLOUR('',#724);
#724=DRAUGHTING_PRE_DEFINED_COLOUR('white');
#725=MANIFOLD_SOLID_BREP('Cover',#716);
#726=SHAPE_DEFINITION_REPRESENTATION(#1180,#727);
#727=SHAPE_REPRESENTATION('Cover',(#728),#1175);
#728=AXIS2_PLACEMENT_3D('',#979,#787,#788);
#729=AXIS2_PLACEMENT_3D('',#980,#789,#790);
#730=AXIS2_PLACEMENT_3D('',#989,#795,#796);
#731=AXIS2_PLACEMENT_3D('',#990,#797,#798);
#732=AXIS2_PLACEMENT_3D('',#992,#799,#800);
#733=AXIS2_PLACEMENT_3D('',#994,#801,#802);
#734=AXIS2_PLACEMENT_3D('',#995,#803,#804);
#735=AXIS2_PLACEMENT_3D('',#997,#805,#806);
#736=AXIS2_PLACEMENT_3D('',#999,#807,#808);
#737=AXIS2_PLACEMENT_3D('',#1000,#809,#810);
#738=AXIS2_PLACEMENT_3D('',#1002,#811,#812);
#739=AXIS2_PLACEMENT_3D('',#1004,#813,#814);
#740=AXIS2_PLACEMENT_3D('',#1005,#815,#816);
#741=AXIS2_PLACEMENT_3D('',#1007,#817,#818);
#742=AXIS2_PLACEMENT_3D('',#1009,#819,#820);
#743=AXIS2_PLACEMENT_3D('',#1018,#825,#826);
#744=AXIS2_PLACEMENT_3D('',#1024,#830,#831);
#745=AXIS2_PLACEMENT_3D('',#1030,#835,#836);
#746=AXIS2_PLACEMENT_3D('',#1036,#840,#841);
#747=AXIS2_PLACEMENT_3D('',#1042,#845,#846);
#748=AXIS2_PLACEMENT_3D('',#1048,#850,#851);
#749=AXIS2_PLACEMENT_3D('',#1062,#859,#860);
#750=AXIS2_PLACEMENT_3D('',#1065,#863,#864);
#751=AXIS2_PLACEMENT_3D('',#1082,#873,#874);
#752=AXIS2_PLACEMENT_3D('',#1084,#875,#876);
#753=AXIS2_PLACEMENT_3D('',#1086,#877,#878);
#754=AXIS2_PLACEMENT_3D('',#1088,#879,#880);
#755=AXIS2_PLACEMENT_3D('',#1090,#881,#882);
#756=AXIS2_PLACEMENT_3D('',#1104,#890,#891);
#757=AXIS2_PLACEMENT_3D('',#1110,#895,#896);
#758=AXIS2_PLACEMENT_3D('',#1114,#899,#900);
#759=AXIS2_PLACEMENT_3D('',#1118,#903,#904);
#760=AXIS2_PLACEMENT_3D('',#1122,#907,#908);
#761=AXIS2_PLACEMENT_3D('',#1126,#911,#912);
#762=AXIS2_PLACEMENT_3D('',#1130,#915,#916);
#763=AXIS2_PLACEMENT_3D('',#1134,#919,#920);
#764=AXIS2_PLACEMENT_3D('',#1137,#923,#924);
#765=AXIS2_PLACEMENT_3D('',#1138,#925,#926);
#766=AXIS2_PLACEMENT_3D('',#1140,#927,#928);
#767=AXIS2_PLACEMENT_3D('',#1141,#929,#930);
#768=AXIS2_PLACEMENT_3D('',#1142,#931,#932);
#769=AXIS2_PLACEMENT_3D('',#1144,#933,#934);
#770=AXIS2_PLACEMENT_3D('',#1145,#935,#936);
#771=AXIS2_PLACEMENT_3D('',#1146,#937,#938);
#772=AXIS2_PLACEMENT_3D('',#1148,#939,#940);
#773=AXIS2_PLACEMENT_3D('',#1149,#941,#942);
#774=AXIS2_PLACEMENT_3D('',#1150,#943,#944);
#775=AXIS2_PLACEMENT_3D('',#1152,#945,#946);
#776=AXIS2_PLACEMENT_3D('',#1153,#947,#948);
#777=AXIS2_PLACEMENT_3D('',#1156,#951,#952);
#778=AXIS2_PLACEMENT_3D('',#1158,#954,#955);
#779=AXIS2_PLACEMENT_3D('',#1160,#957,#958);
#780=AXIS2_PLACEMENT_3D('',#1162,#960,#961);
#781=AXIS2_PLACEMENT_3D('',#1164,#963,#964);
#782=AXIS2_PLACEMENT_3D('',#1166,#966,#967);
#783=AXIS2_PLACEMENT_3D('',#1168,#969,#970);
#784=AXIS2_PLACEMENT_3D('',#1169,#971,#972);
#785=AXIS2_PLACEMENT_3D('',#1171,#974,#975);
#786=AXIS2_PLACEMENT_3D('',#1173,#977,#978);
#787=DIRECTION('',(0.,0.,1.));
#788=DIRECTION('',(1.,0.,0.));
#789=DIRECTION('',(-1.,0.,0.));
#790=DIRECTION('',(0.,0.,1.));
#791=DIRECTION('',(0.,1.,0.));
#792=DIRECTION('',(0.,0.,-1.));
#793=DIRECTION('',(0.,1.,0.));
#794=DIRECTION('',(0.,0.,-1.));
#795=DIRECTION('',(0.,0.,1.));
#796=DIRECTION('',(1.,0.,0.));
#797=DIRECTION('',(0.,0.,1.));
#798=DIRECTION('',(1.,0.,0.));
#799=DIRECTION('',(0.,0.,-1.));
#800=DIRECTION('',(-1.,0.,0.));
#801=DIRECTION('',(0.,0.,1.));
#802=DIRECTION('',(1.,0.,0.));
#803=DIRECTION('',(0.,0.,1.));
#804=DIRECTION('',(1.,0.,0.));
#805=DIRECTION('',(0.,0.,-1.));
#806=DIRECTION('',(-1.,0.,0.));
#807=DIRECTION('',(0.,0.,1.));
#808=DIRECTION('',(1.,0.,0.));
#809=DIRECTION('',(0.,0.,1.));
#810=DIRECTION('',(1.,0.,0.));
#811=DIRECTION('',(0.,0.,-1.));
#812=DIRECTION('',(-1.,0.,0.));
#813=DIRECTION('',(0.,0.,1.));
#814=DIRECTION('',(1.,0.,0.));
#815=DIRECTION('',(0.,0.,1.));
#816=DIRECTION('',(1.,0.,0.));
#817=DIRECTION('',(0.,0.,-1.));
#818=DIRECTION('',(-1.,0.,0.));
#819=DIRECTION('',(0.,1.,0.));
#820=DIRECTION('',(0.,0.,1.));
#821=DIRECTION('',(0.,0.,1.));
#822=DIRECTION('',(1.,0.,0.));
#823=DIRECTION('',(0.,0.,1.));
#824=DIRECTION('',(-1.,-1.69241314729444E-16,0.));
#825=DIRECTION('',(0.707106781186548,-0.707106781186547,0.));
#826=DIRECTION('',(0.707106781186547,0.707106781186548,0.));
#827=DIRECTION('',(0.707106781186547,0.707106781186548,0.));
#828=DIRECTION('',(0.,0.,1.));
#829=DIRECTION('',(-0.707106781186549,-0.707106781186547,0.));
#830=DIRECTION('',(1.,0.,0.));
#831=DIRECTION('',(0.,0.,-1.));
#832=DIRECTION('',(0.,1.,0.));
#833=DIRECTION('',(0.,0.,1.));
#834=DIRECTION('',(0.,-1.,0.));
#835=DIRECTION('',(-0.707106781186548,-0.707106781186548,0.));
#836=DIRECTION('',(0.707106781186548,-0.707106781186548,0.));
#837=DIRECTION('',(-0.707106781186548,0.707106781186548,0.));
#838=DIRECTION('',(0.,0.,1.));
#839=DIRECTION('',(0.707106781186548,-0.707106781186548,0.));
#840=DIRECTION('',(0.,1.,0.));
#841=DIRECTION('',(0.,0.,1.));
#842=DIRECTION('',(-1.,0.,0.));
#843=DIRECTION('',(0.,0.,1.));
#844=DIRECTION('',(1.,0.,0.));
#845=DIRECTION('',(0.707106781186548,-0.707106781186547,0.));
#846=DIRECTION('',(0.707106781186547,0.707106781186548,0.));
#847=DIRECTION('',(-0.707106781186547,-0.707106781186548,0.));
#848=DIRECTION('',(0.,0.,1.));
#849=DIRECTION('',(0.707106781186547,0.707106781186548,0.));
#850=DIRECTION('',(1.,0.,0.));
#851=DIRECTION('',(0.,0.,-1.));
#852=DIRECTION('',(0.,1.,0.));
#853=DIRECTION('',(0.,0.,1.));
#854=DIRECTION('',(0.,1.,0.));
#855=DIRECTION('',(0.,-1.,0.));
#856=DIRECTION('',(0.,0.,1.));
#857=DIRECTION('',(0.,1.,0.));
#858=DIRECTION('',(0.,0.,1.));
#859=DIRECTION('',(-0.707106781186547,-0.707106781186548,0.));
#860=DIRECTION('',(0.707106781186548,-0.707106781186547,0.));
#861=DIRECTION('',(0.707106781186548,-0.707106781186547,0.));
#862=DIRECTION('',(-0.707106781186547,0.707106781186548,0.));
#863=DIRECTION('',(0.,0.,1.));
#864=DIRECTION('',(1.,0.,0.));
#865=DIRECTION('',(0.707106781186547,0.707106781186548,0.));
#866=DIRECTION('',(1.,0.,0.));
#867=DIRECTION('',(0.707106781186548,-0.707106781186548,0.));
#868=DIRECTION('',(0.,-1.,0.));
#869=DIRECTION('',(-0.707106781186547,-0.707106781186548,0.));
#870=DIRECTION('',(-1.,0.,0.));
#871=DIRECTION('',(-0.707106781186548,0.707106781186547,0.));
#872=DIRECTION('',(0.,1.,0.));
#873=DIRECTION('',(0.,0.,-1.));
#874=DIRECTION('',(-1.,0.,0.));
#875=DIRECTION('',(0.,0.,-1.));
#876=DIRECTION('',(-1.,0.,0.));
#877=DIRECTION('',(0.,0.,-1.));
#878=DIRECTION('',(-1.,0.,0.));
#879=DIRECTION('',(0.,0.,-1.));
#880=DIRECTION('',(-1.,0.,0.));
#881=DIRECTION('',(0.,0.,1.));
#882=DIRECTION('',(1.,0.,0.));
#883=DIRECTION('',(1.,3.12973972747348E-16,0.));
#884=DIRECTION('',(0.722095948320498,0.691792918017467,0.));
#885=DIRECTION('',(-0.722095948320498,0.691792918017467,0.));
#886=DIRECTION('',(-1.,0.,0.));
#887=DIRECTION('',(-0.722095948320497,-0.691792918017467,0.));
#888=DIRECTION('',(0.,-1.,0.));
#889=DIRECTION('',(0.722095948320497,-0.691792918017467,0.));
#890=DIRECTION('',(-3.12973972747348E-16,1.,0.));
#891=DIRECTION('',(-1.,-3.12973972747348E-16,0.));
#892=DIRECTION('',(0.,0.,-1.));
#893=DIRECTION('',(1.,3.12973972747348E-16,0.));
#894=DIRECTION('',(0.,0.,-1.));
#895=DIRECTION('',(0.691792918017467,0.722095948320497,0.));
#896=DIRECTION('',(-0.722095948320497,0.691792918017467,0.));
#897=DIRECTION('',(0.,0.,-1.));
#898=DIRECTION('',(0.722095948320497,-0.691792918017467,0.));
#899=DIRECTION('',(1.,0.,0.));
#900=DIRECTION('',(0.,0.,-1.));
#901=DIRECTION('',(0.,0.,-1.));
#902=DIRECTION('',(0.,-1.,0.));
#903=DIRECTION('',(0.691792918017467,-0.722095948320497,0.));
#904=DIRECTION('',(0.722095948320497,0.691792918017467,0.));
#905=DIRECTION('',(0.,0.,-1.));
#906=DIRECTION('',(-0.722095948320497,-0.691792918017467,0.));
#907=DIRECTION('',(0.,-1.,0.));
#908=DIRECTION('',(0.,0.,-1.));
#909=DIRECTION('',(0.,0.,-1.));
#910=DIRECTION('',(-1.,0.,0.));
#911=DIRECTION('',(-0.691792918017467,-0.722095948320498,0.));
#912=DIRECTION('',(0.722095948320498,-0.691792918017467,0.));
#913=DIRECTION('',(0.,0.,-1.));
#914=DIRECTION('',(-0.722095948320498,0.691792918017467,0.));
#915=DIRECTION('',(-0.691792918017467,0.722095948320498,0.));
#916=DIRECTION('',(-0.722095948320498,-0.691792918017467,0.));
#917=DIRECTION('',(0.722095948320498,0.691792918017467,0.));
#918=DIRECTION('',(0.,0.,-1.));
#919=DIRECTION('',(0.,0.,1.));
#920=DIRECTION('',(1.,0.,0.));
#921=DIRECTION('',(-1.,0.,0.));
#922=DIRECTION('',(-1.,0.,0.));
#923=DIRECTION('',(0.,0.,-1.));
#924=DIRECTION('',(1.,0.,0.));
#925=DIRECTION('',(0.,0.,-1.));
#926=DIRECTION('',(-1.,0.,0.));
#927=DIRECTION('',(0.,0.,-1.));
#928=DIRECTION('',(-1.,0.,0.));
#929=DIRECTION('',(0.,0.,-1.));
#930=DIRECTION('',(1.,0.,0.));
#931=DIRECTION('',(0.,0.,-1.));
#932=DIRECTION('',(-1.,0.,0.));
#933=DIRECTION('',(0.,0.,-1.));
#934=DIRECTION('',(-1.,0.,0.));
#935=DIRECTION('',(0.,0.,-1.));
#936=DIRECTION('',(1.,0.,0.));
#937=DIRECTION('',(0.,0.,-1.));
#938=DIRECTION('',(-1.,0.,0.));
#939=DIRECTION('',(0.,0.,-1.));
#940=DIRECTION('',(-1.,0.,0.));
#941=DIRECTION('',(0.,0.,-1.));
#942=DIRECTION('',(1.,0.,0.));
#943=DIRECTION('',(0.,0.,-1.));
#944=DIRECTION('',(-1.,0.,0.));
#945=DIRECTION('',(0.,0.,-1.));
#946=DIRECTION('',(-1.,0.,0.));
#947=DIRECTION('',(0.,0.707106781186548,0.707106781186548));
#948=DIRECTION('',(-1.,0.,0.));
#949=DIRECTION('',(0.28108463771482,0.678598344545847,-0.678598344545847));
#950=DIRECTION('',(-0.28108463771482,0.678598344545847,-0.678598344545847));
#951=DIRECTION('',(0.5,-0.5,-0.707106781186547));
#952=DIRECTION('',(-0.707106781186547,-0.707106781186548,0.));
#953=DIRECTION('',(0.678598344545848,-0.281084637714819,0.678598344545847));
#954=DIRECTION('',(-0.5,-0.5,-0.707106781186548));
#955=DIRECTION('',(-0.707106781186548,0.707106781186547,0.));
#956=DIRECTION('',(0.678598344545847,0.281084637714821,-0.678598344545847));
#957=DIRECTION('',(0.707106781186547,0.,-0.707106781186548));
#958=DIRECTION('',(0.,-1.,0.));
#959=DIRECTION('',(-0.678598344545848,-0.28108463771482,-0.678598344545847));
#960=DIRECTION('',(0.707106781186548,0.,0.707106781186547));
#961=DIRECTION('',(0.,1.,0.));
#962=DIRECTION('',(-0.678598344545847,0.28108463771482,0.678598344545847));
#963=DIRECTION('',(-0.5,-0.5,0.707106781186548));
#964=DIRECTION('',(0.707106781186548,-0.707106781186548,0.));
#965=DIRECTION('',(-0.281084637714821,-0.678598344545847,-0.678598344545847));
#966=DIRECTION('',(0.5,-0.5,0.707106781186547));
#967=DIRECTION('',(0.707106781186547,0.707106781186548,0.));
#968=DIRECTION('',(-0.28108463771482,0.678598344545847,0.678598344545847));
#969=DIRECTION('',(0.,0.707106781186548,-0.707106781186548));
#970=DIRECTION('',(1.,0.,0.));
#971=DIRECTION('',(0.,1.,0.));
#972=DIRECTION('',(0.,0.,1.));
#973=DIRECTION('',(-1.,0.,0.));
#974=DIRECTION('',(0.,1.,0.));
#975=DIRECTION('',(0.,0.,1.));
#976=DIRECTION('',(-1.,0.,0.));
#977=DIRECTION('',(0.,0.,1.));
#978=DIRECTION('',(1.,0.,0.));
#979=CARTESIAN_POINT('',(0.,0.,0.));
#980=CARTESIAN_POINT('',(0.0384559017121792,0.,0.0032));
#981=CARTESIAN_POINT('',(0.0384559017121792,0.,0.0022));
#982=CARTESIAN_POINT('',(0.0384559017121791,-0.0110854168527118,0.0022));
#983=CARTESIAN_POINT('',(0.0384559017121792,0.0110854168527118,0.0022));
#984=CARTESIAN_POINT('',(0.0384559017121791,-0.0110854168527118,0.0032));
#985=CARTESIAN_POINT('',(0.0384559017121791,-0.0110854168527118,0.));
#986=CARTESIAN_POINT('',(0.0384559017121792,0.,0.));
#987=CARTESIAN_POINT('',(0.0384559017121792,0.0110854168527118,0.));
#988=CARTESIAN_POINT('',(0.0384559017121792,0.0110854168527118,0.0032));
#989=CARTESIAN_POINT('',(0.0764559017121792,-0.015,-0.004));
#990=CARTESIAN_POINT('',(0.0764559017121792,-0.015,0.));
#991=CARTESIAN_POINT('',(0.0778559017121792,-0.015,0.));
#992=CARTESIAN_POINT('',(0.0764559017121792,-0.015,-0.0025));
#993=CARTESIAN_POINT('',(0.0750559017121792,-0.015,-0.0025));
#994=CARTESIAN_POINT('',(0.0764559017121792,0.015,-0.004));
#995=CARTESIAN_POINT('',(0.0764559017121792,0.015,0.));
#996=CARTESIAN_POINT('',(0.0778559017121792,0.015,0.));
#997=CARTESIAN_POINT('',(0.0764559017121792,0.015,-0.0025));
#998=CARTESIAN_POINT('',(0.0750559017121792,0.015,-0.0025));
#999=CARTESIAN_POINT('',(0.0464559017121792,0.015,-0.004));
#1000=CARTESIAN_POINT('',(0.0464559017121792,0.015,0.));
#1001=CARTESIAN_POINT('',(0.0478559017121792,0.015,0.));
#1002=CARTESIAN_POINT('',(0.0464559017121792,0.015,-0.0025));
#1003=CARTESIAN_POINT('',(0.0450559017121792,0.015,-0.0025));
#1004=CARTESIAN_POINT('',(0.0464559017121792,-0.015,-0.004));
#1005=CARTESIAN_POINT('',(0.0464559017121792,-0.015,0.));
#1006=CARTESIAN_POINT('',(0.0478559017121792,-0.015,0.));
#1007=CARTESIAN_POINT('',(0.0464559017121792,-0.015,-0.0025));
#1008=CARTESIAN_POINT('',(0.0450559017121792,-0.015,-0.0025));
#1009=CARTESIAN_POINT('',(0.0614559017121792,-0.0255,-0.004));
#1010=CARTESIAN_POINT('',(0.0409559017121792,-0.0255,-0.004));
#1011=CARTESIAN_POINT('',(0.0409559017121792,-0.0255,0.001));
#1012=CARTESIAN_POINT('',(0.0409559017121792,-0.0255,0.0032));
#1013=CARTESIAN_POINT('',(0.0614559017121792,-0.0255,0.001));
#1014=CARTESIAN_POINT('',(0.0819559017121792,-0.0255,0.001));
#1015=CARTESIAN_POINT('',(0.0819559017121792,-0.0255,-0.004));
#1016=CARTESIAN_POINT('',(0.0819559017121792,-0.0255,0.0032));
#1017=CARTESIAN_POINT('',(0.0614559017121792,-0.0255,0.0032));
#1018=CARTESIAN_POINT('',(0.0844559017121792,-0.023,-0.004));
#1019=CARTESIAN_POINT('',(0.0869559017121792,-0.0205,0.001));
#1020=CARTESIAN_POINT('',(0.0869559017121792,-0.0205,0.001));
#1021=CARTESIAN_POINT('',(0.0869559017121792,-0.0205,-0.004));
#1022=CARTESIAN_POINT('',(0.0869559017121792,-0.0205,0.0032));
#1023=CARTESIAN_POINT('',(0.0844559017121792,-0.023,0.0032));
#1024=CARTESIAN_POINT('',(0.0869559017121792,0.,-0.004));
#1025=CARTESIAN_POINT('',(0.0869559017121792,0.0205,0.001));
#1026=CARTESIAN_POINT('',(0.0869559017121792,0.0205,0.001));
#1027=CARTESIAN_POINT('',(0.0869559017121792,0.0205,-0.004));
#1028=CARTESIAN_POINT('',(0.0869559017121792,0.0205,0.0032));
#1029=CARTESIAN_POINT('',(0.0869559017121792,0.,0.0032));
#1030=CARTESIAN_POINT('',(0.0844559017121792,0.023,-0.004));
#1031=CARTESIAN_POINT('',(0.0844559017121792,0.023,0.001));
#1032=CARTESIAN_POINT('',(0.0819559017121792,0.0255,0.001));
#1033=CARTESIAN_POINT('',(0.0819559017121792,0.0255,-0.004));
#1034=CARTESIAN_POINT('',(0.0819559017121792,0.0255,0.0032));
#1035=CARTESIAN_POINT('',(0.0844559017121792,0.023,0.0032));
#1036=CARTESIAN_POINT('',(0.0614559017121792,0.0255,-0.004));
#1037=CARTESIAN_POINT('',(0.0409559017121792,0.0255,0.001));
#1038=CARTESIAN_POINT('',(0.0409559017121792,0.0255,0.001));
#1039=CARTESIAN_POINT('',(0.0409559017121792,0.0255,-0.004));
#1040=CARTESIAN_POINT('',(0.0409559017121792,0.0255,0.0032));
#1041=CARTESIAN_POINT('',(0.0614559017121792,0.0255,0.0032));
#1042=CARTESIAN_POINT('',(0.0384559017121792,0.023,-0.004));
#1043=CARTESIAN_POINT('',(0.0384559017121792,0.023,0.001));
#1044=CARTESIAN_POINT('',(0.0359559017121792,0.0205,0.001));
#1045=CARTESIAN_POINT('',(0.0359559017121792,0.0205,-0.004));
#1046=CARTESIAN_POINT('',(0.0359559017121792,0.0205,0.0032));
#1047=CARTESIAN_POINT('',(0.0384559017121792,0.023,0.0032));
#1048=CARTESIAN_POINT('',(0.0359559017121792,0.,-0.004));
#1049=CARTESIAN_POINT('',(0.0359559017121792,3.46944695195361E-18,0.0022));
#1050=CARTESIAN_POINT('',(0.0359559017121792,-0.0110854168527118,0.0022));
#1051=CARTESIAN_POINT('',(0.0359559017121792,0.0110854168527118,0.0022));
#1052=CARTESIAN_POINT('',(0.0359559017121792,0.0110854168527118,0.0022));
#1053=CARTESIAN_POINT('',(0.0359559017121792,0.0110854168527118,0.0032));
#1054=CARTESIAN_POINT('',(0.0359559017121792,3.46944695195361E-18,0.0032));
#1055=CARTESIAN_POINT('',(0.0359559017121792,0.,0.001));
#1056=CARTESIAN_POINT('',(0.0359559017121792,-0.0205,0.001));
#1057=CARTESIAN_POINT('',(0.0359559017121792,-0.0205,-0.004));
#1058=CARTESIAN_POINT('',(0.0359559017121792,-0.0205,0.0032));
#1059=CARTESIAN_POINT('',(0.0359559017121792,3.46944695195361E-18,0.0032));
#1060=CARTESIAN_POINT('',(0.0359559017121792,-0.0110854168527118,0.0032));
#1061=CARTESIAN_POINT('',(0.0359559017121792,-0.0110854168527118,0.0022));
#1062=CARTESIAN_POINT('',(0.0384559017121792,-0.023,-0.004));
#1063=CARTESIAN_POINT('',(0.0409559017121792,-0.0255,0.001));
#1064=CARTESIAN_POINT('',(0.0384559017121792,-0.023,0.0032));
#1065=CARTESIAN_POINT('',(0.0614559017121792,-3.46944695195361E-18,-0.004));
#1066=CARTESIAN_POINT('',(0.0419914356181119,0.0194644660940673,-0.004));
#1067=CARTESIAN_POINT('',(0.0409559017121792,0.0184289321881345,-0.004));
#1068=CARTESIAN_POINT('',(0.0430269695240446,0.0205,-0.004));
#1069=CARTESIAN_POINT('',(0.0819559017121792,0.0205,-0.004));
#1070=CARTESIAN_POINT('',(0.0798848339003137,0.0205,-0.004));
#1071=CARTESIAN_POINT('',(0.0809203678062464,0.0194644660940673,-0.004));
#1072=CARTESIAN_POINT('',(0.0819559017121792,0.0184289321881345,-0.004));
#1073=CARTESIAN_POINT('',(0.0819559017121792,-0.0205,-0.004));
#1074=CARTESIAN_POINT('',(0.0819559017121792,-0.0184289321881345,-0.004));
#1075=CARTESIAN_POINT('',(0.0784203678062464,-0.0219644660940672,-0.004));
#1076=CARTESIAN_POINT('',(0.0798848339003137,-0.0205,-0.004));
#1077=CARTESIAN_POINT('',(0.0614559017121792,-0.0205,-0.004));
#1078=CARTESIAN_POINT('',(0.0430269695240446,-0.0205,-0.004));
#1079=CARTESIAN_POINT('',(0.0394914356181119,-0.0169644660940673,-0.004));
#1080=CARTESIAN_POINT('',(0.0409559017121792,-0.0184289321881345,-0.004));
#1081=CARTESIAN_POINT('',(0.0409559017121792,-3.46944695195361E-18,-0.004));
#1082=CARTESIAN_POINT('',(0.0464559017121792,-0.015,-0.004));
#1083=CARTESIAN_POINT('',(0.0439559017121792,-0.015,-0.004));
#1084=CARTESIAN_POINT('',(0.0764559017121792,-0.015,-0.004));
#1085=CARTESIAN_POINT('',(0.0739559017121792,-0.015,-0.004));
#1086=CARTESIAN_POINT('',(0.0764559017121792,0.015,-0.004));
#1087=CARTESIAN_POINT('',(0.0739559017121792,0.015,-0.004));
#1088=CARTESIAN_POINT('',(0.0464559017121792,0.015,-0.004));
#1089=CARTESIAN_POINT('',(0.0439559017121792,0.015,-0.004));
#1090=CARTESIAN_POINT('',(0.0614559017121792,-3.46944695195361E-18,0.));
#1091=CARTESIAN_POINT('',(0.0614559017121792,0.0225,0.));
#1092=CARTESIAN_POINT('',(0.0503704848594674,0.0225,0.));
#1093=CARTESIAN_POINT('',(0.072541318564891,0.0225,0.));
#1094=CARTESIAN_POINT('',(0.0444131932858233,0.0167927084263559,0.));
#1095=CARTESIAN_POINT('',(0.0444131932858233,-0.0167927084263559,0.));
#1096=CARTESIAN_POINT('',(0.0503704848594674,-0.0225,0.));
#1097=CARTESIAN_POINT('',(0.0614559017121792,-0.0225,0.));
#1098=CARTESIAN_POINT('',(0.072541318564891,-0.0225,0.));
#1099=CARTESIAN_POINT('',(0.0784986101385351,-0.0167927084263559,0.));
#1100=CARTESIAN_POINT('',(0.0844559017121792,-0.0110854168527118,0.));
#1101=CARTESIAN_POINT('',(0.0844559017121792,0.,0.));
#1102=CARTESIAN_POINT('',(0.0844559017121792,0.0110854168527118,0.));
#1103=CARTESIAN_POINT('',(0.0784986101385351,0.0167927084263559,0.));
#1104=CARTESIAN_POINT('',(0.0614559017121792,0.0225,0.0032));
#1105=CARTESIAN_POINT('',(0.072541318564891,0.0225,0.0032));
#1106=CARTESIAN_POINT('',(0.072541318564891,0.0225,0.0032));
#1107=CARTESIAN_POINT('',(0.0614559017121792,0.0225,0.0032));
#1108=CARTESIAN_POINT('',(0.0503704848594674,0.0225,0.0032));
#1109=CARTESIAN_POINT('',(0.0503704848594674,0.0225,0.0032));
#1110=CARTESIAN_POINT('',(0.0784986101385351,0.0167927084263559,0.0032));
#1111=CARTESIAN_POINT('',(0.0844559017121792,0.0110854168527118,0.0032));
#1112=CARTESIAN_POINT('',(0.0844559017121792,0.0110854168527118,0.0032));
#1113=CARTESIAN_POINT('',(0.0784986101385351,0.0167927084263559,0.0032));
#1114=CARTESIAN_POINT('',(0.0844559017121792,0.,0.0032));
#1115=CARTESIAN_POINT('',(0.0844559017121792,-0.0110854168527118,0.0032));
#1116=CARTESIAN_POINT('',(0.0844559017121792,-0.0110854168527118,0.0032));
#1117=CARTESIAN_POINT('',(0.0844559017121792,0.,0.0032));
#1118=CARTESIAN_POINT('',(0.0784986101385351,-0.0167927084263559,0.0032));
#1119=CARTESIAN_POINT('',(0.072541318564891,-0.0225,0.0032));
#1120=CARTESIAN_POINT('',(0.072541318564891,-0.0225,0.0032));
#1121=CARTESIAN_POINT('',(0.0784986101385351,-0.0167927084263559,0.0032));
#1122=CARTESIAN_POINT('',(0.0614559017121792,-0.0225,0.0032));
#1123=CARTESIAN_POINT('',(0.0503704848594674,-0.0225,0.0032));
#1124=CARTESIAN_POINT('',(0.0503704848594674,-0.0225,0.0032));
#1125=CARTESIAN_POINT('',(0.0614559017121792,-0.0225,0.0032));
#1126=CARTESIAN_POINT('',(0.0444131932858233,-0.0167927084263559,0.0032));
#1127=CARTESIAN_POINT('',(0.0384559017121791,-0.0110854168527118,0.0032));
#1128=CARTESIAN_POINT('',(0.0384559017121791,-0.0110854168527118,0.0032));
#1129=CARTESIAN_POINT('',(0.0444131932858233,-0.0167927084263559,0.0032));
#1130=CARTESIAN_POINT('',(0.0444131932858233,0.0167927084263559,0.0032));
#1131=CARTESIAN_POINT('',(0.0444131932858233,0.0167927084263559,0.0032));
#1132=CARTESIAN_POINT('',(0.0384559017121792,0.0110854168527118,0.0032));
#1133=CARTESIAN_POINT('',(0.0384559017121792,0.0110854168527118,0.0032));
#1134=CARTESIAN_POINT('',(0.0614559017121792,-3.46944695195361E-18,0.0032));
#1135=CARTESIAN_POINT('',(0.0372059017121792,0.0110854168527118,0.0032));
#1136=CARTESIAN_POINT('',(0.0372059017121792,-0.0110854168527118,0.0032));
#1137=CARTESIAN_POINT('',(0.0614559017121792,-3.46944695195361E-18,-0.0025));
#1138=CARTESIAN_POINT('',(0.0464559017121792,0.015,-0.0025));
#1139=CARTESIAN_POINT('',(0.0439559017121792,0.015,-0.0025));
#1140=CARTESIAN_POINT('',(0.0464559017121792,0.015,-0.0025));
#1141=CARTESIAN_POINT('',(0.0614559017121792,-3.46944695195361E-18,-0.0025));
#1142=CARTESIAN_POINT('',(0.0764559017121792,0.015,-0.0025));
#1143=CARTESIAN_POINT('',(0.0739559017121792,0.015,-0.0025));
#1144=CARTESIAN_POINT('',(0.0764559017121792,0.015,-0.0025));
#1145=CARTESIAN_POINT('',(0.0614559017121792,-3.46944695195361E-18,-0.0025));
#1146=CARTESIAN_POINT('',(0.0764559017121792,-0.015,-0.0025));
#1147=CARTESIAN_POINT('',(0.0739559017121792,-0.015,-0.0025));
#1148=CARTESIAN_POINT('',(0.0764559017121792,-0.015,-0.0025));
#1149=CARTESIAN_POINT('',(0.0614559017121792,-3.46944695195361E-18,-0.0025));
#1150=CARTESIAN_POINT('',(0.0464559017121792,-0.015,-0.0025));
#1151=CARTESIAN_POINT('',(0.0439559017121792,-0.015,-0.0025));
#1152=CARTESIAN_POINT('',(0.0464559017121792,-0.015,-0.0025));
#1153=CARTESIAN_POINT('',(0.0614559017121792,-0.0205,-0.004));
#1154=CARTESIAN_POINT('',(0.0412352392028574,-0.0248256196415255,0.000325619641525458));
#1155=CARTESIAN_POINT('',(0.0784287902559087,-0.0169847996862702,-0.00751520031372983));
#1156=CARTESIAN_POINT('',(0.0844559017121792,-0.023,0.001));
#1157=CARTESIAN_POINT('',(0.0862815213537046,-0.0202206625093218,0.000325619641525451));
#1158=CARTESIAN_POINT('',(0.0384559017121792,-0.023,0.001));
#1159=CARTESIAN_POINT('',(0.0444711020259091,-0.0169728885437295,-0.00751520031372985));
#1160=CARTESIAN_POINT('',(0.0869559017121792,0.,0.001));
#1161=CARTESIAN_POINT('',(0.083045658530653,0.0188803242420349,-0.00291024318152619));
#1162=CARTESIAN_POINT('',(0.0409559017121792,-3.46944695195361E-18,-0.004));
#1163=CARTESIAN_POINT('',(0.0412352392028574,0.0183132268110163,-0.00427933749067818));
#1164=CARTESIAN_POINT('',(0.0809203678062464,0.0194644660940673,-0.004));
#1165=CARTESIAN_POINT('',(0.0797691285231955,0.0202206625093218,-0.00427933749067818));
#1166=CARTESIAN_POINT('',(0.0419914356181119,0.0194644660940673,-0.004));
#1167=CARTESIAN_POINT('',(0.0431426749011628,0.0202206625093218,-0.00427933749067819));
#1168=CARTESIAN_POINT('',(0.0614559017121792,0.0255,0.001));
#1169=CARTESIAN_POINT('',(0.0372059017121792,0.0110854168527118,0.0022));
#1170=CARTESIAN_POINT('',(0.0372059017121792,0.0110854168527118,0.0022));
#1171=CARTESIAN_POINT('',(0.0372059017121792,-0.0110854168527118,0.0022));
#1172=CARTESIAN_POINT('',(0.0372059017121792,-0.0110854168527118,0.0022));
#1173=CARTESIAN_POINT('',(0.0614559017121792,-3.46944695195361E-18,0.0022));
#1174=MECHANICAL_DESIGN_GEOMETRIC_PRESENTATION_REPRESENTATION('',(#717),
#1175);
#1175=(
GEOMETRIC_REPRESENTATION_CONTEXT(3)
GLOBAL_UNCERTAINTY_ASSIGNED_CONTEXT((#1176))
GLOBAL_UNIT_ASSIGNED_CONTEXT((#1179,#1178,#1177))
REPRESENTATION_CONTEXT('Cover','TOP_LEVEL_ASSEMBLY_PART')
);
#1176=UNCERTAINTY_MEASURE_WITH_UNIT(LENGTH_MEASURE(1.E-8),#1179,
'DISTANCE_ACCURACY_VALUE','Maximum Tolerance applied to model');
#1177=(
NAMED_UNIT(*)
SI_UNIT($,.STERADIAN.)
SOLID_ANGLE_UNIT()
);
#1178=(
NAMED_UNIT(*)
PLANE_ANGLE_UNIT()
SI_UNIT($,.RADIAN.)
);
#1179=(
LENGTH_UNIT()
NAMED_UNIT(*)
SI_UNIT($,.METRE.)
);
#1180=PRODUCT_DEFINITION_SHAPE('','',#1181);
#1181=PRODUCT_DEFINITION('','',#1183,#1182);
#1182=PRODUCT_DEFINITION_CONTEXT('',#1189,'design');
#1183=PRODUCT_DEFINITION_FORMATION_WITH_SPECIFIED_SOURCE('','',#1185,
 .NOT_KNOWN.);
#1184=PRODUCT_RELATED_PRODUCT_CATEGORY('','',(#1185));
#1185=PRODUCT('Cover','Cover','Cover',(#1187));
#1186=PRODUCT_CATEGORY('','');
#1187=PRODUCT_CONTEXT('',#1189,'mechanical');
#1188=APPLICATION_PROTOCOL_DEFINITION('international standard',
'ap242_managed_model_based_3d_engineering',2011,#1189);
#1189=APPLICATION_CONTEXT('managed model based 3d engineering');
ENDSEC;
END-ISO-10303-21;
